<?xml version="1.0" encoding="utf-8"?>
<svg xmlns="http://www.w3.org/2000/svg" xmlns:xlink="http://www.w3.org/1999/xlink" width="600" height="400" viewBox="0 0 2400 1600">
<defs>
  <clipPath id="clip230">
    <rect x="0" y="0" width="2400" height="1600"/>
  </clipPath>
</defs>
<path clip-path="url(#clip230)" d="M0 1600 L2400 1600 L2400 0 L0 0  Z" fill="#ffffff" fill-rule="evenodd" fill-opacity="1"/>
<defs>
  <clipPath id="clip231">
    <rect x="480" y="0" width="1681" height="1600"/>
  </clipPath>
</defs>
<path clip-path="url(#clip230)" d="M112.177 1423.18 L2352.76 1423.18 L2352.76 47.2441 L112.177 47.2441  Z" fill="#ffffff" fill-rule="evenodd" fill-opacity="1"/>
<defs>
  <clipPath id="clip232">
    <rect x="112" y="47" width="2242" height="1377"/>
  </clipPath>
</defs>
<polyline clip-path="url(#clip232)" style="stroke:#000000; stroke-linecap:round; stroke-linejoin:round; stroke-width:2; stroke-opacity:0.1; fill:none" points="112.177,1423.18 112.177,47.2441 "/>
<polyline clip-path="url(#clip232)" style="stroke:#000000; stroke-linecap:round; stroke-linejoin:round; stroke-width:2; stroke-opacity:0.1; fill:none" points="560.293,1423.18 560.293,47.2441 "/>
<polyline clip-path="url(#clip232)" style="stroke:#000000; stroke-linecap:round; stroke-linejoin:round; stroke-width:2; stroke-opacity:0.1; fill:none" points="1008.41,1423.18 1008.41,47.2441 "/>
<polyline clip-path="url(#clip232)" style="stroke:#000000; stroke-linecap:round; stroke-linejoin:round; stroke-width:2; stroke-opacity:0.1; fill:none" points="1456.52,1423.18 1456.52,47.2441 "/>
<polyline clip-path="url(#clip232)" style="stroke:#000000; stroke-linecap:round; stroke-linejoin:round; stroke-width:2; stroke-opacity:0.1; fill:none" points="1904.64,1423.18 1904.64,47.2441 "/>
<polyline clip-path="url(#clip232)" style="stroke:#000000; stroke-linecap:round; stroke-linejoin:round; stroke-width:2; stroke-opacity:0.1; fill:none" points="2352.76,1423.18 2352.76,47.2441 "/>
<polyline clip-path="url(#clip230)" style="stroke:#000000; stroke-linecap:round; stroke-linejoin:round; stroke-width:4; stroke-opacity:1; fill:none" points="112.177,1423.18 2352.76,1423.18 "/>
<polyline clip-path="url(#clip230)" style="stroke:#000000; stroke-linecap:round; stroke-linejoin:round; stroke-width:4; stroke-opacity:1; fill:none" points="112.177,1423.18 112.177,1404.28 "/>
<polyline clip-path="url(#clip230)" style="stroke:#000000; stroke-linecap:round; stroke-linejoin:round; stroke-width:4; stroke-opacity:1; fill:none" points="560.293,1423.18 560.293,1404.28 "/>
<polyline clip-path="url(#clip230)" style="stroke:#000000; stroke-linecap:round; stroke-linejoin:round; stroke-width:4; stroke-opacity:1; fill:none" points="1008.41,1423.18 1008.41,1404.28 "/>
<polyline clip-path="url(#clip230)" style="stroke:#000000; stroke-linecap:round; stroke-linejoin:round; stroke-width:4; stroke-opacity:1; fill:none" points="1456.52,1423.18 1456.52,1404.28 "/>
<polyline clip-path="url(#clip230)" style="stroke:#000000; stroke-linecap:round; stroke-linejoin:round; stroke-width:4; stroke-opacity:1; fill:none" points="1904.64,1423.18 1904.64,1404.28 "/>
<polyline clip-path="url(#clip230)" style="stroke:#000000; stroke-linecap:round; stroke-linejoin:round; stroke-width:4; stroke-opacity:1; fill:none" points="2352.76,1423.18 2352.76,1404.28 "/>
<path clip-path="url(#clip230)" d="M112.177 1454.1 Q108.566 1454.1 106.737 1457.66 Q104.932 1461.2 104.932 1468.33 Q104.932 1475.44 106.737 1479.01 Q108.566 1482.55 112.177 1482.55 Q115.811 1482.55 117.617 1479.01 Q119.446 1475.44 119.446 1468.33 Q119.446 1461.2 117.617 1457.66 Q115.811 1454.1 112.177 1454.1 M112.177 1450.39 Q117.987 1450.39 121.043 1455 Q124.122 1459.58 124.122 1468.33 Q124.122 1477.06 121.043 1481.67 Q117.987 1486.25 112.177 1486.25 Q106.367 1486.25 103.288 1481.67 Q100.233 1477.06 100.233 1468.33 Q100.233 1459.58 103.288 1455 Q106.367 1450.39 112.177 1450.39 Z" fill="#000000" fill-rule="nonzero" fill-opacity="1" /><path clip-path="url(#clip230)" d="M554.946 1481.64 L571.265 1481.64 L571.265 1485.58 L549.321 1485.58 L549.321 1481.64 Q551.983 1478.89 556.566 1474.26 Q561.173 1469.61 562.353 1468.27 Q564.598 1465.74 565.478 1464.01 Q566.381 1462.25 566.381 1460.56 Q566.381 1457.8 564.436 1456.07 Q562.515 1454.33 559.413 1454.33 Q557.214 1454.33 554.761 1455.09 Q552.33 1455.86 549.552 1457.41 L549.552 1452.69 Q552.376 1451.55 554.83 1450.97 Q557.284 1450.39 559.321 1450.39 Q564.691 1450.39 567.885 1453.08 Q571.08 1455.77 571.08 1460.26 Q571.08 1462.39 570.27 1464.31 Q569.483 1466.2 567.376 1468.8 Q566.798 1469.47 563.696 1472.69 Q560.594 1475.88 554.946 1481.64 Z" fill="#000000" fill-rule="nonzero" fill-opacity="1" /><path clip-path="url(#clip230)" d="M1011.42 1455.09 L999.612 1473.54 L1011.42 1473.54 L1011.42 1455.09 M1010.19 1451.02 L1016.07 1451.02 L1016.07 1473.54 L1021 1473.54 L1021 1477.43 L1016.07 1477.43 L1016.07 1485.58 L1011.42 1485.58 L1011.42 1477.43 L995.816 1477.43 L995.816 1472.92 L1010.19 1451.02 Z" fill="#000000" fill-rule="nonzero" fill-opacity="1" /><path clip-path="url(#clip230)" d="M1456.93 1466.44 Q1453.78 1466.44 1451.93 1468.59 Q1450.1 1470.74 1450.1 1474.49 Q1450.1 1478.22 1451.93 1480.39 Q1453.78 1482.55 1456.93 1482.55 Q1460.08 1482.55 1461.91 1480.39 Q1463.76 1478.22 1463.76 1474.49 Q1463.76 1470.74 1461.91 1468.59 Q1460.08 1466.44 1456.93 1466.44 M1466.21 1451.78 L1466.21 1456.04 Q1464.45 1455.21 1462.65 1454.77 Q1460.86 1454.33 1459.11 1454.33 Q1454.48 1454.33 1452.02 1457.45 Q1449.59 1460.58 1449.24 1466.9 Q1450.61 1464.89 1452.67 1463.82 Q1454.73 1462.73 1457.21 1462.73 Q1462.42 1462.73 1465.42 1465.9 Q1468.46 1469.05 1468.46 1474.49 Q1468.46 1479.82 1465.31 1483.03 Q1462.16 1486.25 1456.93 1486.25 Q1450.93 1486.25 1447.76 1481.67 Q1444.59 1477.06 1444.59 1468.33 Q1444.59 1460.14 1448.48 1455.28 Q1452.37 1450.39 1458.92 1450.39 Q1460.68 1450.39 1462.46 1450.74 Q1464.27 1451.09 1466.21 1451.78 Z" fill="#000000" fill-rule="nonzero" fill-opacity="1" /><path clip-path="url(#clip230)" d="M1904.64 1469.17 Q1901.31 1469.17 1899.39 1470.95 Q1897.49 1472.73 1897.49 1475.86 Q1897.49 1478.98 1899.39 1480.77 Q1901.31 1482.55 1904.64 1482.55 Q1907.97 1482.55 1909.89 1480.77 Q1911.82 1478.96 1911.82 1475.86 Q1911.82 1472.73 1909.89 1470.95 Q1908 1469.17 1904.64 1469.17 M1899.96 1467.18 Q1896.96 1466.44 1895.27 1464.38 Q1893.6 1462.32 1893.6 1459.35 Q1893.6 1455.21 1896.54 1452.8 Q1899.5 1450.39 1904.64 1450.39 Q1909.8 1450.39 1912.74 1452.8 Q1915.68 1455.21 1915.68 1459.35 Q1915.68 1462.32 1913.99 1464.38 Q1912.33 1466.44 1909.34 1467.18 Q1912.72 1467.96 1914.59 1470.26 Q1916.49 1472.55 1916.49 1475.86 Q1916.49 1480.88 1913.41 1483.57 Q1910.36 1486.25 1904.64 1486.25 Q1898.92 1486.25 1895.84 1483.57 Q1892.79 1480.88 1892.79 1475.86 Q1892.79 1472.55 1894.69 1470.26 Q1896.58 1467.96 1899.96 1467.18 M1898.25 1459.79 Q1898.25 1462.48 1899.92 1463.98 Q1901.61 1465.49 1904.64 1465.49 Q1907.65 1465.49 1909.34 1463.98 Q1911.05 1462.48 1911.05 1459.79 Q1911.05 1457.11 1909.34 1455.6 Q1907.65 1454.1 1904.64 1454.1 Q1901.61 1454.1 1899.92 1455.6 Q1898.25 1457.11 1898.25 1459.79 Z" fill="#000000" fill-rule="nonzero" fill-opacity="1" /><path clip-path="url(#clip230)" d="M2327.44 1481.64 L2335.08 1481.64 L2335.08 1455.28 L2326.77 1456.95 L2326.77 1452.69 L2335.04 1451.02 L2339.71 1451.02 L2339.71 1481.64 L2347.35 1481.64 L2347.35 1485.58 L2327.44 1485.58 L2327.44 1481.64 Z" fill="#000000" fill-rule="nonzero" fill-opacity="1" /><path clip-path="url(#clip230)" d="M2366.8 1454.1 Q2363.18 1454.1 2361.36 1457.66 Q2359.55 1461.2 2359.55 1468.33 Q2359.55 1475.44 2361.36 1479.01 Q2363.18 1482.55 2366.8 1482.55 Q2370.43 1482.55 2372.23 1479.01 Q2374.06 1475.44 2374.06 1468.33 Q2374.06 1461.2 2372.23 1457.66 Q2370.43 1454.1 2366.8 1454.1 M2366.8 1450.39 Q2372.61 1450.39 2375.66 1455 Q2378.74 1459.58 2378.74 1468.33 Q2378.74 1477.06 2375.66 1481.67 Q2372.61 1486.25 2366.8 1486.25 Q2360.99 1486.25 2357.91 1481.67 Q2354.85 1477.06 2354.85 1468.33 Q2354.85 1459.58 2357.91 1455 Q2360.99 1450.39 2366.8 1450.39 Z" fill="#000000" fill-rule="nonzero" fill-opacity="1" /><path clip-path="url(#clip230)" d="M1231.53 1522.27 L1231.53 1532.4 L1243.59 1532.4 L1243.59 1536.95 L1231.53 1536.95 L1231.53 1556.3 Q1231.53 1560.66 1232.71 1561.9 Q1233.91 1563.14 1237.58 1563.14 L1243.59 1563.14 L1243.59 1568.04 L1237.58 1568.04 Q1230.8 1568.04 1228.22 1565.53 Q1225.64 1562.98 1225.64 1556.3 L1225.64 1536.95 L1221.34 1536.95 L1221.34 1532.4 L1225.64 1532.4 L1225.64 1522.27 L1231.53 1522.27 Z" fill="#000000" fill-rule="nonzero" fill-opacity="1" /><polyline clip-path="url(#clip232)" style="stroke:#000000; stroke-linecap:round; stroke-linejoin:round; stroke-width:2; stroke-opacity:0.1; fill:none" points="112.177,1239.07 2352.76,1239.07 "/>
<polyline clip-path="url(#clip232)" style="stroke:#000000; stroke-linecap:round; stroke-linejoin:round; stroke-width:2; stroke-opacity:0.1; fill:none" points="112.177,1043.73 2352.76,1043.73 "/>
<polyline clip-path="url(#clip232)" style="stroke:#000000; stroke-linecap:round; stroke-linejoin:round; stroke-width:2; stroke-opacity:0.1; fill:none" points="112.177,848.389 2352.76,848.389 "/>
<polyline clip-path="url(#clip232)" style="stroke:#000000; stroke-linecap:round; stroke-linejoin:round; stroke-width:2; stroke-opacity:0.1; fill:none" points="112.177,653.048 2352.76,653.048 "/>
<polyline clip-path="url(#clip232)" style="stroke:#000000; stroke-linecap:round; stroke-linejoin:round; stroke-width:2; stroke-opacity:0.1; fill:none" points="112.177,457.707 2352.76,457.707 "/>
<polyline clip-path="url(#clip232)" style="stroke:#000000; stroke-linecap:round; stroke-linejoin:round; stroke-width:2; stroke-opacity:0.1; fill:none" points="112.177,262.366 2352.76,262.366 "/>
<polyline clip-path="url(#clip232)" style="stroke:#000000; stroke-linecap:round; stroke-linejoin:round; stroke-width:2; stroke-opacity:0.1; fill:none" points="112.177,67.0251 2352.76,67.0251 "/>
<polyline clip-path="url(#clip230)" style="stroke:#000000; stroke-linecap:round; stroke-linejoin:round; stroke-width:4; stroke-opacity:1; fill:none" points="112.177,1423.18 112.177,47.2441 "/>
<polyline clip-path="url(#clip230)" style="stroke:#000000; stroke-linecap:round; stroke-linejoin:round; stroke-width:4; stroke-opacity:1; fill:none" points="112.177,1239.07 131.075,1239.07 "/>
<polyline clip-path="url(#clip230)" style="stroke:#000000; stroke-linecap:round; stroke-linejoin:round; stroke-width:4; stroke-opacity:1; fill:none" points="112.177,1043.73 131.075,1043.73 "/>
<polyline clip-path="url(#clip230)" style="stroke:#000000; stroke-linecap:round; stroke-linejoin:round; stroke-width:4; stroke-opacity:1; fill:none" points="112.177,848.389 131.075,848.389 "/>
<polyline clip-path="url(#clip230)" style="stroke:#000000; stroke-linecap:round; stroke-linejoin:round; stroke-width:4; stroke-opacity:1; fill:none" points="112.177,653.048 131.075,653.048 "/>
<polyline clip-path="url(#clip230)" style="stroke:#000000; stroke-linecap:round; stroke-linejoin:round; stroke-width:4; stroke-opacity:1; fill:none" points="112.177,457.707 131.075,457.707 "/>
<polyline clip-path="url(#clip230)" style="stroke:#000000; stroke-linecap:round; stroke-linejoin:round; stroke-width:4; stroke-opacity:1; fill:none" points="112.177,262.366 131.075,262.366 "/>
<polyline clip-path="url(#clip230)" style="stroke:#000000; stroke-linecap:round; stroke-linejoin:round; stroke-width:4; stroke-opacity:1; fill:none" points="112.177,67.0251 131.075,67.0251 "/>
<path clip-path="url(#clip230)" d="M56.2699 1252.42 L63.9087 1252.42 L63.9087 1226.05 L55.5986 1227.72 L55.5986 1223.46 L63.8624 1221.79 L68.5383 1221.79 L68.5383 1252.42 L76.1772 1252.42 L76.1772 1256.35 L56.2699 1256.35 L56.2699 1252.42 Z" fill="#000000" fill-rule="nonzero" fill-opacity="1" /><path clip-path="url(#clip230)" d="M59.8578 1057.08 L76.1772 1057.08 L76.1772 1061.01 L54.2328 1061.01 L54.2328 1057.08 Q56.8949 1054.32 61.4782 1049.69 Q66.0846 1045.04 67.2652 1043.7 Q69.5105 1041.17 70.3902 1039.44 Q71.2929 1037.68 71.2929 1035.99 Q71.2929 1033.23 69.3485 1031.5 Q67.4272 1029.76 64.3254 1029.76 Q62.1263 1029.76 59.6726 1030.52 Q57.2421 1031.29 54.4643 1032.84 L54.4643 1028.12 Q57.2884 1026.98 59.7421 1026.4 Q62.1958 1025.83 64.2328 1025.83 Q69.6031 1025.83 72.7976 1028.51 Q75.992 1031.2 75.992 1035.69 Q75.992 1037.82 75.1818 1039.74 Q74.3948 1041.64 72.2883 1044.23 Q71.7096 1044.9 68.6078 1048.12 Q65.5059 1051.31 59.8578 1057.08 Z" fill="#000000" fill-rule="nonzero" fill-opacity="1" /><path clip-path="url(#clip230)" d="M69.0476 847.035 Q72.404 847.753 74.279 850.021 Q76.1772 852.29 76.1772 855.623 Q76.1772 860.739 72.6587 863.54 Q69.1402 866.341 62.6587 866.341 Q60.4828 866.341 58.168 865.901 Q55.8764 865.484 53.4227 864.628 L53.4227 860.114 Q55.3671 861.248 57.6819 861.827 Q59.9967 862.405 62.5198 862.405 Q66.918 862.405 69.2096 860.669 Q71.5244 858.933 71.5244 855.623 Q71.5244 852.568 69.3717 850.855 Q67.242 849.119 63.4226 849.119 L59.3949 849.119 L59.3949 845.276 L63.6078 845.276 Q67.0569 845.276 68.8855 843.91 Q70.7142 842.521 70.7142 839.929 Q70.7142 837.267 68.8161 835.855 Q66.9411 834.42 63.4226 834.42 Q61.5013 834.42 59.3023 834.836 Q57.1032 835.253 54.4643 836.132 L54.4643 831.966 Q57.1264 831.225 59.4412 830.855 Q61.7791 830.484 63.8393 830.484 Q69.1633 830.484 72.2652 832.915 Q75.367 835.322 75.367 839.443 Q75.367 842.313 73.7235 844.304 Q72.08 846.271 69.0476 847.035 Z" fill="#000000" fill-rule="nonzero" fill-opacity="1" /><path clip-path="url(#clip230)" d="M66.5939 639.842 L54.7884 658.291 L66.5939 658.291 L66.5939 639.842 M65.367 635.768 L71.2466 635.768 L71.2466 658.291 L76.1772 658.291 L76.1772 662.18 L71.2466 662.18 L71.2466 670.328 L66.5939 670.328 L66.5939 662.18 L50.9921 662.18 L50.9921 657.666 L65.367 635.768 Z" fill="#000000" fill-rule="nonzero" fill-opacity="1" /><path clip-path="url(#clip230)" d="M55.2745 440.427 L73.6309 440.427 L73.6309 444.362 L59.5569 444.362 L59.5569 452.835 Q60.5754 452.487 61.5939 452.325 Q62.6124 452.14 63.6309 452.14 Q69.418 452.14 72.7976 455.311 Q76.1772 458.483 76.1772 463.899 Q76.1772 469.478 72.705 472.58 Q69.2328 475.659 62.9134 475.659 Q60.7374 475.659 58.4689 475.288 Q56.2236 474.918 53.8162 474.177 L53.8162 469.478 Q55.8995 470.612 58.1217 471.168 Q60.3439 471.723 62.8208 471.723 Q66.8254 471.723 69.1633 469.617 Q71.5013 467.51 71.5013 463.899 Q71.5013 460.288 69.1633 458.182 Q66.8254 456.075 62.8208 456.075 Q60.9458 456.075 59.0708 456.492 Q57.2189 456.909 55.2745 457.788 L55.2745 440.427 Z" fill="#000000" fill-rule="nonzero" fill-opacity="1" /><path clip-path="url(#clip230)" d="M64.6495 260.503 Q61.5013 260.503 59.6495 262.656 Q57.8208 264.808 57.8208 268.558 Q57.8208 272.285 59.6495 274.461 Q61.5013 276.614 64.6495 276.614 Q67.7976 276.614 69.6263 274.461 Q71.4781 272.285 71.4781 268.558 Q71.4781 264.808 69.6263 262.656 Q67.7976 260.503 64.6495 260.503 M73.9318 245.85 L73.9318 250.109 Q72.1726 249.276 70.367 248.836 Q68.5846 248.396 66.8254 248.396 Q62.1958 248.396 59.7421 251.521 Q57.3115 254.646 56.9643 260.966 Q58.33 258.952 60.3902 257.887 Q62.4504 256.799 64.9272 256.799 Q70.1355 256.799 73.1448 259.97 Q76.1772 263.118 76.1772 268.558 Q76.1772 273.882 73.029 277.1 Q69.8809 280.317 64.6495 280.317 Q58.6541 280.317 55.4828 275.734 Q52.3116 271.128 52.3116 262.401 Q52.3116 254.206 56.2004 249.345 Q60.0893 244.461 66.6402 244.461 Q68.3994 244.461 70.1818 244.808 Q71.9874 245.156 73.9318 245.85 Z" fill="#000000" fill-rule="nonzero" fill-opacity="1" /><path clip-path="url(#clip230)" d="M53.9551 49.7451 L76.1772 49.7451 L76.1772 51.7358 L63.6309 84.3051 L58.7467 84.3051 L70.5522 53.6803 L53.9551 53.6803 L53.9551 49.7451 Z" fill="#000000" fill-rule="nonzero" fill-opacity="1" /><polyline clip-path="url(#clip232)" style="stroke:#009af9; stroke-linecap:round; stroke-linejoin:round; stroke-width:4; stroke-opacity:1; fill:none" points="112.177,1239.07 114.42,1238.07 116.663,1237.03 118.906,1235.94 121.148,1234.81 123.391,1233.64 125.634,1232.42 127.877,1231.16 130.12,1229.86 132.363,1228.51 134.605,1227.13 136.848,1225.7 139.091,1224.22 141.334,1222.71 143.577,1221.15 145.819,1219.55 148.062,1217.9 150.305,1216.22 152.548,1214.49 154.791,1212.72 157.034,1210.9 159.276,1209.04 161.519,1207.14 163.762,1205.19 166.005,1203.2 168.248,1201.17 170.491,1199.09 172.733,1196.97 174.976,1194.8 177.219,1192.59 179.462,1190.33 181.705,1188.03 183.947,1185.68 186.19,1183.28 188.433,1180.84 190.676,1178.35 192.919,1175.81 195.162,1173.23 197.404,1170.6 199.647,1167.92 201.89,1165.19 204.133,1162.41 206.376,1159.59 208.619,1156.71 210.861,1153.78 213.104,1150.81 215.347,1147.78 217.59,1144.7 219.833,1141.56 222.075,1138.38 224.318,1135.14 226.561,1131.84 228.804,1128.5 231.047,1125.1 233.29,1121.64 235.532,1118.13 237.775,1114.56 240.018,1110.93 242.261,1107.25 244.504,1103.51 246.746,1099.71 248.989,1095.85 251.232,1091.93 253.475,1087.95 255.718,1083.91 257.961,1079.81 260.203,1075.64 262.446,1071.41 264.689,1067.12 266.932,1062.77 269.175,1058.35 271.418,1053.86 273.66,1049.31 275.903,1044.69 278.146,1040 280.389,1035.25 282.632,1030.43 284.874,1025.53 287.117,1020.57 289.36,1015.53 291.603,1010.43 293.846,1005.25 296.089,999.993 298.331,994.666 300.574,989.265 302.817,983.788 305.06,978.235 307.303,972.605 309.545,966.898 311.788,961.112 314.031,955.247 316.274,949.302 318.517,943.277 320.76,937.17 323.002,930.982 325.245,924.71 327.488,918.356 329.731,911.918 331.974,905.396 334.217,898.788 336.459,892.093 338.702,885.312 340.945,878.443 343.188,871.485 345.431,864.438 347.673,857.302 349.916,850.075 352.159,842.757 354.402,835.348 356.645,827.847 358.888,820.254 361.13,812.568 363.373,804.788 365.616,796.915 367.859,788.948 370.102,780.887 372.344,772.732 374.587,764.481 376.83,756.136 379.073,747.696 381.316,739.16 383.559,730.53 385.801,721.804 388.044,712.982 390.287,704.065 392.53,695.053 394.773,685.945 397.016,676.743 399.258,667.45 401.501,658.067 403.744,648.594 405.987,639.029 408.23,629.372 410.472,619.624 412.715,609.786 414.958,599.857 417.201,589.84 419.444,579.734 421.687,569.543 423.929,559.267 426.172,548.91 428.415,538.473 430.658,527.959 432.901,517.372 435.143,506.715 437.386,495.991 439.629,485.205 441.872,474.36 444.115,463.461 446.358,452.514 448.6,441.523 450.843,430.494 453.086,419.432 455.329,408.343 457.572,397.234 459.815,386.111 462.057,374.982 464.3,363.853 466.543,352.731 468.786,341.625 471.029,330.543 473.271,319.493 475.514,308.483 477.757,297.509 480,286.582 482.243,275.719 484.486,264.939 486.728,254.261 488.971,243.705 491.214,233.29 493.457,223.038 495.7,212.969 497.942,203.105 500.185,193.468 502.428,184.08 504.671,174.964 506.914,166.144 509.157,157.643 511.399,149.487 513.642,141.699 515.885,134.306 518.128,127.333 520.371,120.806 522.614,114.753 524.856,109.201 527.099,104.177 529.342,99.7102 531.585,95.8289 533.828,92.5627 536.07,89.9411 538.313,87.9945 540.556,86.7537 542.799,86.2498 545.042,86.5145 547.285,87.5801 549.527,89.4793 551.77,92.2451 554.013,95.9114 556.256,100.512 558.499,106.085 560.741,112.669 562.984,120.268 565.227,128.88 567.47,138.497 569.713,149.11 571.956,160.705 574.198,173.265 576.441,186.771 578.684,201.199 580.927,216.522 583.17,232.711 585.413,249.732 587.655,267.548 589.898,286.12 592.141,305.404 594.384,325.354 596.627,345.919 598.869,367.047 601.112,388.68 603.355,410.759 605.598,433.22 607.841,455.996 610.084,479.019 612.326,502.214 614.569,525.504 616.812,548.811 619.055,572.05 621.298,595.161 623.54,618.123 625.783,640.879 628.026,663.377 630.269,685.567 632.512,707.404 634.755,728.847 636.997,749.859 639.24,770.405 641.483,790.457 643.726,809.989 645.969,828.979 648.212,847.41 650.454,865.269 652.697,882.545 654.94,899.233 657.183,915.332 659.426,930.843 661.668,945.773 663.911,960.131 666.154,973.933 668.397,987.195 670.64,999.94 672.883,1012.19 675.125,1023.99 677.368,1035.32 679.611,1046.17 681.854,1056.56 684.097,1066.52 686.339,1076.04 688.582,1085.15 690.825,1093.87 693.068,1102.2 695.311,1110.17 697.554,1117.78 699.796,1125.05 702.039,1132 704.282,1138.63 706.525,1144.96 708.768,1151 711.011,1156.76 713.253,1162.25 715.496,1167.49 717.739,1172.47 719.982,1177.22 722.225,1181.74 724.467,1186.05 726.71,1190.13 728.953,1194.02 731.196,1197.72 733.439,1201.24 735.682,1204.58 737.924,1207.75 740.167,1210.76 742.41,1213.62 744.653,1216.32 746.896,1218.89 749.138,1221.31 751.381,1223.6 753.624,1225.77 755.867,1227.81 758.11,1229.73 760.353,1231.54 762.595,1233.24 764.838,1234.84 767.081,1236.33 769.324,1237.73 771.567,1239.03 773.81,1240.24 776.052,1241.37 778.295,1242.41 780.538,1243.36 782.781,1244.24 785.024,1245.03 787.266,1245.75 789.509,1246.4 791.752,1246.97 793.995,1247.46 796.238,1247.9 798.481,1248.26 800.723,1248.56 802.966,1248.8 805.209,1248.98 807.452,1249.09 809.695,1249.15 811.938,1249.15 814.18,1249.09 816.423,1248.98 818.666,1248.81 820.909,1248.58 823.152,1248.31 825.394,1247.98 827.637,1247.6 829.88,1247.18 832.123,1246.7 834.366,1246.17 836.609,1245.6 838.851,1244.98 841.094,1244.31 843.337,1243.59 845.58,1242.83 847.823,1242.03 850.065,1241.17 852.308,1240.28 854.551,1239.34 856.794,1238.36 859.037,1237.33 861.28,1236.26 863.522,1235.14 865.765,1233.99 868.008,1232.79 870.251,1231.54 872.494,1230.26 874.737,1228.93 876.979,1227.56 879.222,1226.14 881.465,1224.69 883.708,1223.19 885.951,1221.65 888.193,1220.06 890.436,1218.43 892.679,1216.76 894.922,1215.05 897.165,1213.29 899.408,1211.49 901.65,1209.64 903.893,1207.75 906.136,1205.82 908.379,1203.85 910.622,1201.83 912.864,1199.76 915.107,1197.66 917.35,1195.5 919.593,1193.31 921.836,1191.06 924.079,1188.77 926.321,1186.44 928.564,1184.06 930.807,1181.63 933.05,1179.16 935.293,1176.64 937.536,1174.07 939.778,1171.46 942.021,1168.8 944.264,1166.08 946.507,1163.32 948.75,1160.52 950.992,1157.66 953.235,1154.75 955.478,1151.79 957.721,1148.77 959.964,1145.71 962.207,1142.6 964.449,1139.43 966.692,1136.21 968.935,1132.93 971.178,1129.61 973.421,1126.22 975.663,1122.78 977.906,1119.29 980.149,1115.74 982.392,1112.14 984.635,1108.47 986.878,1104.75 989.12,1100.97 991.363,1097.13 993.606,1093.24 995.849,1089.28 998.092,1085.26 1000.33,1081.18 1002.58,1077.04 1004.82,1072.83 1007.06,1068.56 1009.31,1064.23 1011.55,1059.83 1013.79,1055.37 1016.03,1050.84 1018.28,1046.25 1020.52,1041.59 1022.76,1036.86 1025.01,1032.06 1027.25,1027.19 1029.49,1022.25 1031.73,1017.24 1033.98,1012.16 1036.22,1007.01 1038.46,1001.78 1040.71,996.48 1042.95,991.106 1045.19,985.656 1047.43,980.131 1049.68,974.529 1051.92,968.849 1054.16,963.091 1056.41,957.254 1058.65,951.337 1060.89,945.339 1063.13,939.261 1065.38,933.1 1067.62,926.857 1069.86,920.53 1072.1,914.12 1074.35,907.625 1076.59,901.045 1078.83,894.379 1081.08,887.626 1083.32,880.786 1085.56,873.859 1087.8,866.843 1090.05,859.738 1092.29,852.543 1094.53,845.259 1096.78,837.883 1099.02,830.417 1101.26,822.858 1103.5,815.207 1105.75,807.463 1107.99,799.626 1110.23,791.695 1112.48,783.669 1114.72,775.549 1116.96,767.337 1119.2,759.04 1121.45,750.654 1123.69,742.178 1125.93,733.611 1128.18,724.95 1130.42,716.193 1132.66,707.341 1134.9,698.391 1137.15,689.343 1139.39,680.197 1141.63,670.953 1143.88,661.61 1146.12,652.169 1148.36,642.63 1150.6,632.994 1152.85,623.263 1155.09,613.436 1157.33,603.517 1159.57,593.506 1161.82,583.406 1164.06,573.218 1166.3,562.946 1168.55,552.591 1170.79,542.157 1173.03,531.647 1175.27,521.065 1177.52,510.414 1179.76,499.697 1182,488.92 1184.25,478.086 1186.49,467.2 1188.73,456.267 1190.97,445.292 1193.22,434.28 1195.46,423.238 1197.7,412.17 1199.95,401.083 1202.19,389.983 1204.43,378.876 1206.67,367.771 1208.92,356.672 1211.16,345.589 1213.4,334.527 1215.65,323.496 1217.89,312.503 1220.13,301.556 1222.37,290.664 1224.62,279.831 1226.86,269.06 1229.1,258.369 1231.35,247.78 1233.59,237.316 1235.83,226.998 1238.07,216.851 1240.32,206.896 1242.56,197.158 1244.8,187.66 1247.04,178.425 1249.29,169.48 1251.53,160.848 1253.77,152.554 1256.02,144.624 1258.26,137.084 1260.5,129.96 1262.74,123.278 1264.99,117.065 1267.23,111.348 1269.47,106.154 1271.72,101.512 1273.96,97.4491 1276.2,93.9941 1278.44,91.1758 1280.69,89.0231 1282.93,87.5656 1285.17,86.833 1287.42,86.8555 1289.66,87.6633 1291.9,89.2874 1294.14,91.7588 1296.39,95.1089 1298.63,99.3695 1300.87,104.573 1303.12,110.751 1305.36,117.966 1307.6,126.25 1309.84,135.585 1312.09,145.949 1314.33,157.317 1316.57,169.664 1318.82,182.961 1321.06,197.179 1323.3,212.284 1325.54,228.243 1327.79,245.018 1330.03,262.572 1332.27,280.864 1334.51,299.85 1336.76,319.487 1339,339.726 1341.24,360.518 1343.49,381.813 1345.73,403.557 1347.97,425.695 1350.21,448.169 1352.46,470.92 1354.7,493.885 1356.94,517.001 1359.19,540.202 1361.43,563.42 1363.67,586.585 1365.91,609.625 1368.16,632.465 1370.4,655.028 1372.64,677.242 1374.89,699.096 1377.13,720.569 1379.37,741.629 1381.61,762.248 1383.86,782.399 1386.1,802.059 1388.34,821.208 1390.59,839.828 1392.83,857.904 1395.07,875.423 1397.31,892.376 1399.56,908.757 1401.8,924.561 1404.04,939.787 1406.29,954.437 1408.53,968.514 1410.77,982.027 1413.01,994.983 1415.26,1007.4 1417.5,1019.28 1419.74,1030.66 1421.98,1041.55 1424.23,1051.97 1426.47,1061.95 1428.71,1071.53 1430.96,1080.72 1433.2,1089.57 1435.44,1098.05 1437.68,1106.16 1439.93,1113.91 1442.17,1121.31 1444.41,1128.37 1446.66,1135.12 1448.9,1141.56 1451.14,1147.7 1453.38,1153.57 1455.63,1159.16 1457.87,1164.5 1460.11,1169.58 1462.36,1174.43 1464.6,1179.06 1466.84,1183.46 1469.08,1187.65 1471.33,1191.64 1473.57,1195.44 1475.81,1199.06 1478.06,1202.49 1480.3,1205.75 1482.54,1208.85 1484.78,1211.79 1487.03,1214.57 1489.27,1217.2 1491.51,1219.69 1493.76,1222.04 1496,1224.26 1498.24,1226.36 1500.48,1228.34 1502.73,1230.2 1504.97,1231.95 1507.21,1233.59 1509.46,1235.13 1511.7,1236.57 1513.94,1237.91 1516.18,1239.16 1518.43,1240.32 1520.67,1241.39 1522.91,1242.37 1525.15,1243.27 1527.4,1244.09 1529.64,1244.84 1531.88,1245.51 1534.13,1246.11 1536.37,1246.63 1538.61,1247.09 1540.85,1247.49 1543.1,1247.81 1545.34,1248.08 1547.58,1248.28 1549.83,1248.42 1552.07,1248.5 1554.31,1248.52 1556.55,1248.49 1558.8,1248.4 1561.04,1248.25 1563.28,1248.06 1565.53,1247.8 1567.77,1247.5 1570.01,1247.15 1572.25,1246.74 1574.5,1246.29 1576.74,1245.78 1578.98,1245.23 1581.23,1244.63 1583.47,1243.98 1585.71,1243.29 1587.95,1242.54 1590.2,1241.76 1592.44,1240.92 1594.68,1240.04 1596.93,1239.12 1599.17,1238.15 1601.41,1237.14 1603.65,1236.08 1605.9,1234.98 1608.14,1233.84 1610.38,1232.65 1612.62,1231.42 1614.87,1230.15 1617.11,1228.83 1619.35,1227.47 1621.6,1226.07 1623.84,1224.63 1626.08,1223.14 1628.32,1221.61 1630.57,1220.04 1632.81,1218.43 1635.05,1216.77 1637.3,1215.07 1639.54,1213.33 1641.78,1211.55 1644.02,1209.72 1646.27,1207.85 1648.51,1205.93 1650.75,1203.97 1653,1201.97 1655.24,1199.92 1657.48,1197.83 1659.72,1195.69 1661.97,1193.51 1664.21,1191.28 1666.45,1189.01 1668.7,1186.69 1670.94,1184.33 1673.18,1181.91 1675.42,1179.46 1677.67,1176.95 1679.91,1174.4 1682.15,1171.8 1684.4,1169.15 1686.64,1166.46 1688.88,1163.71 1691.12,1160.92 1693.37,1158.07 1695.61,1155.18 1697.85,1152.23 1700.09,1149.24 1702.34,1146.19 1704.58,1143.09 1706.82,1139.94 1709.07,1136.73 1711.31,1133.48 1713.55,1130.16 1715.79,1126.8 1718.04,1123.38 1720.28,1119.9 1722.52,1116.37 1724.77,1112.78 1727.01,1109.14 1729.25,1105.43 1731.49,1101.67 1733.74,1097.85 1735.98,1093.97 1738.22,1090.03 1740.47,1086.03 1742.71,1081.97 1744.95,1077.84 1747.19,1073.66 1749.44,1069.41 1751.68,1065.09 1753.92,1060.71 1756.17,1056.27 1758.41,1051.76 1760.65,1047.19 1762.89,1042.54 1765.14,1037.83 1767.38,1033.05 1769.62,1028.21 1771.87,1023.29 1774.11,1018.3 1776.35,1013.24 1778.59,1008.11 1780.84,1002.91 1783.08,997.631 1785.32,992.28 1787.56,986.854 1789.81,981.352 1792.05,975.775 1794.29,970.12 1796.54,964.388 1798.78,958.577 1801.02,952.687 1803.26,946.716 1805.51,940.665 1807.75,934.532 1809.99,928.317 1812.24,922.019 1814.48,915.638 1816.72,909.174 1818.96,902.626 1821.21,895.993 1823.45,889.273 1825.69,882.467 1827.94,875.572 1830.18,868.59 1832.42,861.517 1834.66,854.355 1836.91,847.102 1839.15,839.758 1841.39,832.321 1843.64,824.793 1845.88,817.171 1848.12,809.457 1850.36,801.648 1852.61,793.746 1854.85,785.75 1857.09,777.659 1859.34,769.473 1861.58,761.193 1863.82,752.818 1866.06,744.348 1868.31,735.784 1870.55,727.124 1872.79,718.37 1875.03,709.522 1877.28,700.579 1879.52,691.542 1881.76,682.412 1884.01,673.188 1886.25,663.871 1888.49,654.462 1890.73,644.96 1892.98,635.368 1895.22,625.684 1897.46,615.91 1899.71,606.046 1901.95,596.105 1904.19,586.096 1906.43,576.017 1908.68,565.864 1910.92,555.636 1913.16,545.332 1915.41,534.951 1917.65,524.494 1919.89,513.962 1922.13,503.355 1924.38,492.675 1926.62,481.926 1928.86,471.11 1931.11,460.231 1933.35,449.294 1935.59,438.303 1937.83,427.265 1940.08,416.186 1942.32,405.072 1944.56,393.932 1946.81,382.773 1949.05,371.604 1951.29,360.435 1953.53,349.276 1955.78,338.137 1958.02,327.029 1960.26,315.965 1962.5,304.957 1964.75,294.018 1966.99,283.162 1969.23,272.404 1971.48,261.758 1973.72,251.24 1975.96,240.866 1978.2,230.653 1980.45,220.618 1982.69,210.781 1984.93,201.158 1987.18,191.771 1989.42,182.638 1991.66,173.78 1993.9,165.219 1996.15,156.977 1998.39,149.075 2000.63,141.537 2002.88,134.387 2005.12,127.648 2007.36,121.347 2009.6,115.508 2011.85,110.157 2014.09,105.321 2016.33,101.029 2018.58,97.3256 2020.82,94.2557 2023.06,91.86 2025.3,90.1771 2027.55,89.243 2029.79,89.0907 2032.03,89.751 2034.28,91.2515 2036.52,93.6176 2038.76,96.8716 2041,101.034 2043.25,106.12 2045.49,112.147 2047.73,119.124 2049.97,127.062 2052.22,135.967 2054.46,145.843 2056.7,156.69 2058.95,168.508 2061.19,181.291 2063.43,195.033 2065.67,209.725 2067.92,225.365 2070.16,241.924 2072.4,259.343 2074.65,277.562 2076.89,296.522 2079.13,316.162 2081.37,336.422 2083.62,357.243 2085.86,378.564 2088.1,400.324 2090.35,422.463 2092.59,444.919 2094.83,467.632 2097.07,490.54 2099.32,513.582 2101.56,536.696 2103.8,559.821 2106.05,582.895 2108.29,605.855 2110.53,628.64 2112.77,651.186 2115.02,673.433 2117.26,695.316 2119.5,716.795 2121.75,737.856 2123.99,758.473 2126.23,778.622 2128.47,798.282 2130.72,817.436 2132.96,836.066 2135.2,854.161 2137.45,871.707 2139.69,888.698 2141.93,905.127 2144.17,920.991 2146.42,936.289 2148.66,951.021 2150.9,965.192 2153.14,978.809 2155.39,991.88 2157.63,1004.42 2159.87,1016.43 2162.12,1027.95 2164.36,1038.97 2166.6,1049.54 2168.84,1059.66 2171.09,1069.37 2173.33,1078.69 2175.57,1087.64 2177.82,1096.19 2180.06,1104.36 2182.3,1112.17 2184.54,1119.63 2186.79,1126.76 2189.03,1133.57 2191.27,1140.06 2193.52,1146.26 2195.76,1152.18 2198,1157.82 2200.24,1163.2 2202.49,1168.34 2204.73,1173.23 2206.97,1177.89 2209.22,1182.33 2211.46,1186.56 2213.7,1190.58 2215.94,1194.41 2218.19,1198.05 2220.43,1201.51 2222.67,1204.79 2224.92,1207.91 2227.16,1210.86 2229.4,1213.66 2231.64,1216.31 2233.89,1218.82 2236.13,1221.2 2238.37,1223.45 2240.61,1225.57 2242.86,1227.57 2245.1,1229.45 2247.34,1231.22 2249.59,1232.89 2251.83,1234.44 2254.07,1235.9 2256.31,1237.26 2258.56,1238.52 2260.8,1239.7 2263.04,1240.78 2265.29,1241.79 2267.53,1242.7 2269.77,1243.54 2272.01,1244.31 2274.26,1245 2276.5,1245.61 2278.74,1246.16 2280.99,1246.63 2283.23,1247.04 2285.47,1247.38 2287.71,1247.66 2289.96,1247.87 2292.2,1248.02 2294.44,1248.11 2296.69,1248.15 2298.93,1248.13 2301.17,1248.05 2303.41,1247.91 2305.66,1247.72 2307.9,1247.48 2310.14,1247.19 2312.39,1246.84 2314.63,1246.44 2316.87,1245.99 2319.11,1245.5 2321.36,1244.95 2323.6,1244.36 2325.84,1243.71 2328.08,1243.03 2330.33,1242.29 2332.57,1241.51 2334.81,1240.68 2337.06,1239.81 2339.3,1238.9 2341.54,1237.94 2343.78,1236.93 2346.03,1235.88 2348.27,1234.79 2350.51,1233.66 2352.76,1232.48 "/>
<polyline clip-path="url(#clip232)" style="stroke:#e26f46; stroke-linecap:round; stroke-linejoin:round; stroke-width:4; stroke-opacity:1; fill:none" points="112.177,1239.07 114.42,1242.94 116.663,1246.72 118.906,1250.41 121.148,1254.03 123.391,1257.56 125.634,1261.01 127.877,1264.38 130.12,1267.68 132.363,1270.9 134.605,1274.05 136.848,1277.13 139.091,1280.13 141.334,1283.07 143.577,1285.94 145.819,1288.74 148.062,1291.48 150.305,1294.16 152.548,1296.77 154.791,1299.32 157.034,1301.81 159.276,1304.25 161.519,1306.63 163.762,1308.95 166.005,1311.21 168.248,1313.43 170.491,1315.59 172.733,1317.7 174.976,1319.76 177.219,1321.77 179.462,1323.73 181.705,1325.65 183.947,1327.52 186.19,1329.34 188.433,1331.13 190.676,1332.86 192.919,1334.56 195.162,1336.22 197.404,1337.83 199.647,1339.4 201.89,1340.94 204.133,1342.44 206.376,1343.9 208.619,1345.33 210.861,1346.72 213.104,1348.07 215.347,1349.39 217.59,1350.68 219.833,1351.94 222.075,1353.16 224.318,1354.35 226.561,1355.51 228.804,1356.64 231.047,1357.74 233.29,1358.82 235.532,1359.86 237.775,1360.88 240.018,1361.87 242.261,1362.83 244.504,1363.77 246.746,1364.68 248.989,1365.56 251.232,1366.42 253.475,1367.26 255.718,1368.07 257.961,1368.86 260.203,1369.63 262.446,1370.37 264.689,1371.09 266.932,1371.79 269.175,1372.47 271.418,1373.12 273.66,1373.76 275.903,1374.37 278.146,1374.97 280.389,1375.54 282.632,1376.09 284.874,1376.63 287.117,1377.14 289.36,1377.64 291.603,1378.12 293.846,1378.57 296.089,1379.01 298.331,1379.43 300.574,1379.84 302.817,1380.22 305.06,1380.59 307.303,1380.94 309.545,1381.27 311.788,1381.58 314.031,1381.88 316.274,1382.16 318.517,1382.42 320.76,1382.67 323.002,1382.89 325.245,1383.1 327.488,1383.29 329.731,1383.47 331.974,1383.62 334.217,1383.76 336.459,1383.88 338.702,1383.99 340.945,1384.07 343.188,1384.14 345.431,1384.19 347.673,1384.22 349.916,1384.24 352.159,1384.23 354.402,1384.21 356.645,1384.17 358.888,1384.11 361.13,1384.02 363.373,1383.92 365.616,1383.8 367.859,1383.66 370.102,1383.49 372.344,1383.3 374.587,1383.1 376.83,1382.86 379.073,1382.61 381.316,1382.33 383.559,1382.03 385.801,1381.7 388.044,1381.34 390.287,1380.96 392.53,1380.55 394.773,1380.11 397.016,1379.64 399.258,1379.14 401.501,1378.61 403.744,1378.05 405.987,1377.44 408.23,1376.81 410.472,1376.14 412.715,1375.43 414.958,1374.69 417.201,1373.9 419.444,1373.08 421.687,1372.21 423.929,1371.3 426.172,1370.34 428.415,1369.34 430.658,1368.28 432.901,1367.17 435.143,1366.01 437.386,1364.79 439.629,1363.51 441.872,1362.16 444.115,1360.75 446.358,1359.27 448.6,1357.71 450.843,1356.08 453.086,1354.36 455.329,1352.56 457.572,1350.67 459.815,1348.69 462.057,1346.61 464.3,1344.42 466.543,1342.13 468.786,1339.73 471.029,1337.2 473.271,1334.56 475.514,1331.79 477.757,1328.89 480,1325.87 482.243,1322.71 484.486,1319.39 486.728,1315.91 488.971,1312.26 491.214,1308.41 493.457,1304.37 495.7,1300.11 497.942,1295.64 500.185,1290.92 502.428,1285.97 504.671,1280.75 506.914,1275.27 509.157,1269.51 511.399,1263.46 513.642,1257.12 515.885,1250.46 518.128,1243.49 520.371,1236.18 522.614,1228.54 524.856,1220.55 527.099,1212.2 529.342,1203.48 531.585,1194.38 533.828,1184.9 536.07,1175.02 538.313,1164.74 540.556,1154.04 542.799,1142.92 545.042,1131.37 547.285,1119.38 549.527,1106.94 551.77,1094.05 554.013,1080.7 556.256,1066.87 558.499,1052.55 560.741,1037.72 562.984,1022.41 565.227,1006.66 567.47,990.508 569.713,974 571.956,957.181 574.198,940.094 576.441,922.786 578.684,905.301 580.927,887.687 583.17,869.991 585.413,852.261 587.655,834.546 589.898,816.895 592.141,799.359 594.384,781.989 596.627,764.836 598.869,747.953 601.112,731.392 603.355,715.208 605.598,699.454 607.841,684.187 610.084,669.461 612.326,655.334 614.569,641.863 616.812,629.106 619.055,617.122 621.298,605.949 623.54,595.593 625.783,586.078 628.026,577.425 630.269,569.654 632.512,562.777 634.755,556.804 636.997,551.741 639.24,547.59 641.483,544.348 643.726,542.01 645.969,540.565 648.212,539.999 650.454,540.293 652.697,541.426 654.94,543.371 657.183,546.098 659.426,549.572 661.668,553.756 663.911,558.607 666.154,564.079 668.397,570.121 670.64,576.68 672.883,583.697 675.125,591.11 677.368,598.908 679.611,607.104 681.854,615.664 684.097,624.557 686.339,633.752 688.582,643.22 690.825,652.933 693.068,662.863 695.311,672.985 697.554,683.274 699.796,693.706 702.039,704.258 704.282,714.91 706.525,725.642 708.768,736.434 711.011,747.269 713.253,758.129 715.496,769 717.739,779.868 719.982,790.718 722.225,801.539 724.467,812.321 726.71,823.053 728.953,833.725 731.196,844.321 733.439,854.834 735.682,865.258 737.924,875.588 740.167,885.817 742.41,895.941 744.653,905.955 746.896,915.854 749.138,925.635 751.381,935.294 753.624,944.827 755.867,954.231 758.11,963.504 760.353,972.643 762.595,981.645 764.838,990.51 767.081,999.235 769.324,1007.82 771.567,1016.26 773.81,1024.56 776.052,1032.72 778.295,1040.74 780.538,1048.61 782.781,1056.34 785.024,1063.94 787.266,1071.39 789.509,1078.71 791.752,1085.89 793.995,1092.94 796.238,1099.86 798.481,1106.64 800.723,1113.29 802.966,1119.81 805.209,1126.2 807.452,1132.46 809.695,1138.6 811.938,1144.61 814.18,1150.5 816.423,1156.27 818.666,1161.93 820.909,1167.46 823.152,1172.88 825.394,1178.18 827.637,1183.38 829.88,1188.46 832.123,1193.43 834.366,1198.3 836.609,1203.06 838.851,1207.72 841.094,1212.28 843.337,1216.73 845.58,1221.09 847.823,1225.36 850.065,1229.53 852.308,1233.6 854.551,1237.59 856.794,1241.49 859.037,1245.3 861.28,1249.03 863.522,1252.67 865.765,1256.23 868.008,1259.71 870.251,1263.11 872.494,1266.44 874.737,1269.69 876.979,1272.86 879.222,1275.97 881.465,1279 883.708,1281.96 885.951,1284.85 888.193,1287.68 890.436,1290.44 892.679,1293.14 894.922,1295.78 897.165,1298.35 899.408,1300.87 901.65,1303.32 903.893,1305.72 906.136,1308.06 908.379,1310.35 910.622,1312.59 912.864,1314.77 915.107,1316.9 917.35,1318.98 919.593,1321.01 921.836,1322.99 924.079,1324.92 926.321,1326.81 928.564,1328.65 930.807,1330.45 933.05,1332.21 935.293,1333.92 937.536,1335.59 939.778,1337.22 942.021,1338.81 944.264,1340.36 946.507,1341.87 948.75,1343.34 950.992,1344.78 953.235,1346.18 955.478,1347.55 957.721,1348.88 959.964,1350.18 962.207,1351.45 964.449,1352.68 966.692,1353.88 968.935,1355.05 971.178,1356.2 973.421,1357.31 975.663,1358.39 977.906,1359.44 980.149,1360.47 982.392,1361.47 984.635,1362.44 986.878,1363.39 989.12,1364.31 991.363,1365.2 993.606,1366.07 995.849,1366.92 998.092,1367.74 1000.33,1368.54 1002.58,1369.31 1004.82,1370.06 1007.06,1370.79 1009.31,1371.5 1011.55,1372.19 1013.79,1372.85 1016.03,1373.5 1018.28,1374.12 1020.52,1374.72 1022.76,1375.3 1025.01,1375.87 1027.25,1376.41 1029.49,1376.93 1031.73,1377.43 1033.98,1377.91 1036.22,1378.38 1038.46,1378.82 1040.71,1379.25 1042.95,1379.66 1045.19,1380.05 1047.43,1380.42 1049.68,1380.78 1051.92,1381.12 1054.16,1381.44 1056.41,1381.74 1058.65,1382.02 1060.89,1382.29 1063.13,1382.54 1065.38,1382.77 1067.62,1382.99 1069.86,1383.19 1072.1,1383.37 1074.35,1383.53 1076.59,1383.68 1078.83,1383.81 1081.08,1383.92 1083.32,1384.01 1085.56,1384.09 1087.8,1384.14 1090.05,1384.18 1092.29,1384.2 1094.53,1384.21 1096.78,1384.19 1099.02,1384.15 1101.26,1384.1 1103.5,1384.02 1105.75,1383.92 1107.99,1383.81 1110.23,1383.67 1112.48,1383.51 1114.72,1383.33 1116.96,1383.13 1119.2,1382.9 1121.45,1382.64 1123.69,1382.35 1125.93,1382.03 1128.18,1381.69 1130.42,1381.33 1132.66,1380.94 1134.9,1380.52 1137.15,1380.07 1139.39,1379.6 1141.63,1379.1 1143.88,1378.57 1146.12,1378.01 1148.36,1377.42 1150.6,1376.8 1152.85,1376.15 1155.09,1375.46 1157.33,1374.74 1159.57,1373.98 1161.82,1373.18 1164.06,1372.34 1166.3,1371.46 1168.55,1370.53 1170.79,1369.56 1173.03,1368.54 1175.27,1367.46 1177.52,1366.33 1179.76,1365.14 1182,1363.89 1184.25,1362.58 1186.49,1361.2 1188.73,1359.75 1190.97,1358.23 1193.22,1356.62 1195.46,1354.94 1197.7,1353.17 1199.95,1351.31 1202.19,1349.36 1204.43,1347.31 1206.67,1345.16 1208.92,1342.9 1211.16,1340.53 1213.4,1338.04 1215.65,1335.43 1217.89,1332.69 1220.13,1329.82 1222.37,1326.82 1224.62,1323.67 1226.86,1320.39 1229.1,1316.96 1231.35,1313.37 1233.59,1309.6 1235.83,1305.64 1238.07,1301.47 1240.32,1297.1 1242.56,1292.49 1244.8,1287.64 1247.04,1282.54 1249.29,1277.17 1251.53,1271.53 1253.77,1265.6 1256.02,1259.37 1258.26,1252.83 1260.5,1245.97 1262.74,1238.78 1264.99,1231.25 1267.23,1223.37 1269.47,1215.13 1271.72,1206.53 1273.96,1197.54 1276.2,1188.17 1278.44,1178.41 1280.69,1168.25 1282.93,1157.67 1285.17,1146.68 1287.42,1135.27 1289.66,1123.42 1291.9,1111.14 1294.14,1098.41 1296.39,1085.23 1298.63,1071.6 1300.87,1057.51 1303.12,1042.95 1305.36,1027.87 1307.6,1012.28 1309.84,996.217 1312.09,979.747 1314.33,962.926 1316.57,945.808 1318.82,928.449 1321.06,910.904 1323.3,893.227 1325.54,875.472 1327.79,857.692 1330.03,839.939 1332.27,822.265 1334.51,804.721 1336.76,787.36 1339,770.229 1341.24,753.381 1343.49,736.862 1345.73,720.723 1347.97,705.011 1350.21,689.774 1352.46,675.058 1354.7,660.91 1356.94,647.375 1359.19,634.499 1361.43,622.327 1363.67,610.902 1365.91,600.268 1368.16,590.468 1370.4,581.544 1372.64,573.535 1374.89,566.441 1377.13,560.253 1379.37,554.967 1381.61,550.575 1383.86,547.069 1386.1,544.439 1388.34,542.671 1390.59,541.75 1392.83,541.659 1395.07,542.38 1397.31,543.892 1399.56,546.17 1401.8,549.19 1404.04,552.925 1406.29,557.345 1408.53,562.418 1410.77,568.113 1413.01,574.391 1415.26,581.218 1417.5,588.551 1419.74,596.351 1421.98,604.573 1424.23,613.171 1426.47,622.097 1428.71,631.303 1430.96,640.734 1433.2,650.34 1435.44,660.135 1437.68,670.127 1439.93,680.292 1442.17,690.608 1444.41,701.054 1446.66,711.609 1448.9,722.254 1451.14,732.97 1453.38,743.739 1455.63,754.545 1457.87,765.37 1460.11,776.201 1462.36,787.023 1464.6,797.821 1466.84,808.585 1469.08,819.302 1471.33,829.961 1473.57,840.554 1475.81,851.069 1478.06,861.501 1480.3,871.841 1482.54,882.083 1484.78,892.222 1487.03,902.254 1489.27,912.174 1491.51,921.98 1493.76,931.667 1496,941.227 1498.24,950.657 1500.48,959.956 1502.73,969.121 1504.97,978.152 1507.21,987.048 1509.46,995.807 1511.7,1004.43 1513.94,1012.91 1516.18,1021.26 1518.43,1029.46 1520.67,1037.53 1522.91,1045.46 1525.15,1053.24 1527.4,1060.89 1529.64,1068.4 1531.88,1075.77 1534.13,1083 1536.37,1090.1 1538.61,1097.06 1540.85,1103.89 1543.1,1110.58 1545.34,1117.14 1547.58,1123.57 1549.83,1129.88 1552.07,1136.05 1554.31,1142.1 1556.55,1148.03 1558.8,1153.84 1561.04,1159.54 1563.28,1165.11 1565.53,1170.57 1567.77,1175.91 1570.01,1181.14 1572.25,1186.26 1574.5,1191.27 1576.74,1196.18 1578.98,1200.97 1581.23,1205.67 1583.47,1210.27 1585.71,1214.76 1587.95,1219.16 1590.2,1223.46 1592.44,1227.67 1594.68,1231.78 1596.93,1235.8 1599.17,1239.74 1601.41,1243.58 1603.65,1247.34 1605.9,1251.02 1608.14,1254.61 1610.38,1258.12 1612.62,1261.56 1614.87,1264.91 1617.11,1268.19 1619.35,1271.39 1621.6,1274.52 1623.84,1277.58 1626.08,1280.57 1628.32,1283.49 1630.57,1286.34 1632.81,1289.13 1635.05,1291.85 1637.3,1294.51 1639.54,1297.11 1641.78,1299.65 1644.02,1302.13 1646.27,1304.54 1648.51,1306.91 1650.75,1309.22 1653,1311.47 1655.24,1313.67 1657.48,1315.82 1659.72,1317.91 1661.97,1319.96 1664.21,1321.96 1666.45,1323.91 1668.7,1325.82 1670.94,1327.68 1673.18,1329.49 1675.42,1331.26 1677.67,1332.99 1679.91,1334.68 1682.15,1336.33 1684.4,1337.93 1686.64,1339.5 1688.88,1341.03 1691.12,1342.52 1693.37,1343.97 1695.61,1345.39 1697.85,1346.78 1700.09,1348.13 1702.34,1349.44 1704.58,1350.72 1706.82,1351.97 1709.07,1353.19 1711.31,1354.38 1713.55,1355.53 1715.79,1356.66 1718.04,1357.75 1720.28,1358.82 1722.52,1359.86 1724.77,1360.86 1727.01,1361.85 1729.25,1362.8 1731.49,1363.73 1733.74,1364.64 1735.98,1365.52 1738.22,1366.37 1740.47,1367.2 1742.71,1368 1744.95,1368.79 1747.19,1369.55 1749.44,1370.28 1751.68,1371 1753.92,1371.69 1756.17,1372.36 1758.41,1373.01 1760.65,1373.64 1762.89,1374.25 1765.14,1374.84 1767.38,1375.4 1769.62,1375.95 1771.87,1376.48 1774.11,1376.99 1776.35,1377.48 1778.59,1377.95 1780.84,1378.41 1783.08,1378.84 1785.32,1379.26 1787.56,1379.66 1789.81,1380.04 1792.05,1380.4 1794.29,1380.74 1796.54,1381.07 1798.78,1381.38 1801.02,1381.67 1803.26,1381.94 1805.51,1382.2 1807.75,1382.44 1809.99,1382.66 1812.24,1382.86 1814.48,1383.05 1816.72,1383.22 1818.96,1383.36 1821.21,1383.5 1823.45,1383.61 1825.69,1383.7 1827.94,1383.78 1830.18,1383.84 1832.42,1383.88 1834.66,1383.91 1836.91,1383.91 1839.15,1383.9 1841.39,1383.87 1843.64,1383.82 1845.88,1383.74 1848.12,1383.65 1850.36,1383.54 1852.61,1383.41 1854.85,1383.26 1857.09,1383.09 1859.34,1382.89 1861.58,1382.68 1863.82,1382.44 1866.06,1382.17 1868.31,1381.88 1870.55,1381.57 1872.79,1381.23 1875.03,1380.86 1877.28,1380.47 1879.52,1380.05 1881.76,1379.6 1884.01,1379.11 1886.25,1378.6 1888.49,1378.06 1890.73,1377.48 1892.98,1376.87 1895.22,1376.22 1897.46,1375.54 1899.71,1374.82 1901.95,1374.05 1904.19,1373.24 1906.43,1372.37 1908.68,1371.46 1910.92,1370.49 1913.16,1369.48 1915.41,1368.42 1917.65,1367.3 1919.89,1366.13 1922.13,1364.9 1924.38,1363.62 1926.62,1362.28 1928.86,1360.88 1931.11,1359.41 1933.35,1357.88 1935.59,1356.27 1937.83,1354.59 1940.08,1352.83 1942.32,1350.99 1944.56,1349.07 1946.81,1347.05 1949.05,1344.93 1951.29,1342.71 1953.53,1340.38 1955.78,1337.94 1958.02,1335.38 1960.26,1332.69 1962.5,1329.87 1964.75,1326.91 1966.99,1323.8 1969.23,1320.54 1971.48,1317.11 1973.72,1313.51 1975.96,1309.73 1978.2,1305.76 1980.45,1301.59 1982.69,1297.22 1984.93,1292.63 1987.18,1287.81 1989.42,1282.75 1991.66,1277.45 1993.9,1271.89 1996.15,1266.06 1998.39,1259.94 2000.63,1253.54 2002.88,1246.83 2005.12,1239.8 2007.36,1232.44 2009.6,1224.74 2011.85,1216.69 2014.09,1208.27 2016.33,1199.47 2018.58,1190.29 2020.82,1180.7 2023.06,1170.69 2025.3,1160.24 2027.55,1149.35 2029.79,1138.02 2032.03,1126.23 2034.28,1113.98 2036.52,1101.29 2038.76,1088.14 2041,1074.54 2043.25,1060.51 2045.49,1046.06 2047.73,1031.19 2049.97,1015.92 2052.22,1000.28 2054.46,984.271 2056.7,967.932 2058.95,951.283 2061.19,934.353 2063.43,917.172 2065.67,899.773 2067.92,882.185 2070.16,864.457 2072.4,846.664 2074.65,828.873 2076.89,811.154 2079.13,793.572 2081.37,776.191 2083.62,759.072 2085.86,742.274 2088.1,725.854 2090.35,709.869 2092.59,694.37 2094.83,679.408 2097.07,665.032 2099.32,651.289 2101.56,638.223 2103.8,625.876 2106.05,614.289 2108.29,603.499 2110.53,593.542 2112.77,584.453 2115.02,576.261 2117.26,568.998 2119.5,562.673 2121.75,557.266 2123.99,552.766 2126.23,549.161 2128.47,546.436 2130.72,544.573 2132.96,543.556 2135.2,543.365 2137.45,543.978 2139.69,545.372 2141.93,547.524 2144.17,550.407 2146.42,553.993 2148.66,558.253 2150.9,563.156 2153.14,568.67 2155.39,574.761 2157.63,581.392 2159.87,588.527 2162.12,596.126 2164.36,604.149 2166.6,612.553 2168.84,621.295 2171.09,630.33 2173.33,639.61 2175.57,649.115 2177.82,658.85 2180.06,668.791 2182.3,678.912 2184.54,689.191 2186.79,699.606 2189.03,710.134 2191.27,720.755 2193.52,731.451 2195.76,742.202 2198,752.992 2200.24,763.803 2202.49,774.62 2204.73,785.429 2206.97,796.217 2209.22,806.971 2211.46,817.679 2213.7,828.331 2215.94,838.918 2218.19,849.43 2220.43,859.862 2222.67,870.205 2224.92,880.455 2227.16,890.607 2229.4,900.651 2231.64,910.581 2233.89,920.393 2236.13,930.084 2238.37,939.652 2240.61,949.093 2242.86,958.405 2245.1,967.587 2247.34,976.635 2249.59,985.549 2251.83,994.327 2254.07,1002.97 2256.31,1011.47 2258.56,1019.83 2260.8,1028.05 2263.04,1036.13 2265.29,1044.08 2267.53,1051.88 2269.77,1059.54 2272.01,1067.06 2274.26,1074.44 2276.5,1081.69 2278.74,1088.8 2280.99,1095.77 2283.23,1102.61 2285.47,1109.32 2287.71,1115.9 2289.96,1122.35 2292.2,1128.68 2294.44,1134.87 2296.69,1140.95 2298.93,1146.9 2301.17,1152.73 2303.41,1158.44 2305.66,1164.03 2307.9,1169.5 2310.14,1174.86 2312.39,1180.11 2314.63,1185.25 2316.87,1190.28 2319.11,1195.2 2321.36,1200.02 2323.6,1204.73 2325.84,1209.34 2328.08,1213.85 2330.33,1218.27 2332.57,1222.58 2334.81,1226.8 2337.06,1230.93 2339.3,1234.97 2341.54,1238.91 2343.78,1242.77 2346.03,1246.54 2348.27,1250.23 2350.51,1253.84 2352.76,1257.36 "/>
<polyline clip-path="url(#clip232)" style="stroke:#3da44d; stroke-linecap:round; stroke-linejoin:round; stroke-width:4; stroke-opacity:1; fill:none" points="112.177,1239.07 114.42,1238.07 116.663,1237.03 118.906,1235.94 121.148,1234.81 123.391,1233.63 125.634,1232.42 127.877,1231.16 130.12,1229.85 132.363,1228.51 134.605,1227.12 136.848,1225.69 139.091,1224.21 141.334,1222.7 143.577,1221.14 145.819,1219.53 148.062,1217.89 150.305,1216.2 152.548,1214.47 154.791,1212.7 157.034,1210.88 159.276,1209.02 161.519,1207.12 163.762,1205.17 166.005,1203.18 168.248,1201.14 170.491,1199.06 172.733,1196.94 174.976,1194.77 177.219,1192.56 179.462,1190.3 181.705,1187.99 183.947,1185.64 186.19,1183.25 188.433,1180.8 190.676,1178.31 192.919,1175.78 195.162,1173.19 197.404,1170.56 199.647,1167.88 201.89,1165.15 204.133,1162.37 206.376,1159.54 208.619,1156.66 210.861,1153.73 213.104,1150.75 215.347,1147.72 217.59,1144.64 219.833,1141.5 222.075,1138.31 224.318,1135.07 226.561,1131.78 228.804,1128.43 231.047,1125.03 233.29,1121.57 235.532,1118.05 237.775,1114.48 240.018,1110.85 242.261,1107.17 244.504,1103.42 246.746,1099.62 248.989,1095.76 251.232,1091.84 253.475,1087.86 255.718,1083.81 257.961,1079.71 260.203,1075.54 262.446,1071.31 264.689,1067.02 266.932,1062.66 269.175,1058.24 271.418,1053.75 273.66,1049.2 275.903,1044.57 278.146,1039.88 280.389,1035.13 282.632,1030.3 284.874,1025.4 287.117,1020.44 289.36,1015.4 291.603,1010.29 293.846,1005.1 296.089,999.848 298.331,994.518 300.574,989.113 302.817,983.633 305.06,978.076 307.303,972.442 309.545,966.731 311.788,960.942 314.031,955.073 316.274,949.124 318.517,943.095 320.76,936.985 323.002,930.792 325.245,924.517 327.488,918.158 329.731,911.716 331.974,905.189 334.217,898.577 336.459,891.878 338.702,885.092 340.945,878.218 343.188,871.256 345.431,864.205 347.673,857.064 349.916,849.832 352.159,842.509 354.402,835.095 356.645,827.589 358.888,819.991 361.13,812.299 363.373,804.515 365.616,796.637 367.859,788.664 370.102,780.598 372.344,772.437 374.587,764.181 376.83,755.83 379.073,747.384 381.316,738.843 383.559,730.207 385.801,721.475 388.044,712.648 390.287,703.725 392.53,694.707 394.773,685.593 397.016,676.385 399.258,667.086 401.501,657.697 403.744,648.218 405.987,638.647 408.23,628.984 410.472,619.23 412.715,609.386 414.958,599.451 417.201,589.427 419.444,579.316 421.687,569.119 423.929,558.837 426.172,548.474 428.415,538.031 430.658,527.511 432.901,516.919 435.143,506.256 437.386,495.526 439.629,484.734 441.872,473.885 444.115,462.981 446.358,452.029 448.6,441.033 450.843,429.999 453.086,418.933 455.329,407.84 457.572,396.727 459.815,385.601 462.057,374.468 464.3,363.336 466.543,352.212 468.786,341.104 471.029,330.021 473.271,318.969 475.514,307.958 477.757,296.984 480,286.056 482.243,275.193 484.486,264.415 486.728,253.739 488.971,243.185 491.214,232.775 493.457,222.527 495.7,212.464 497.942,202.607 500.185,192.978 502.428,183.599 504.671,174.493 506.914,165.685 509.157,157.198 511.399,149.055 513.642,141.284 515.885,133.908 518.128,126.953 520.371,120.447 522.614,114.416 524.856,108.887 527.099,103.889 529.342,99.4486 531.585,95.5959 533.828,92.3599 536.07,89.7703 538.313,87.8575 540.556,86.6522 542.799,86.1857 545.042,86.4896 547.285,87.5962 549.527,89.5382 551.77,92.3488 554.013,96.0616 556.256,100.711 558.499,106.334 560.741,112.97 562.984,120.622 565.227,129.287 567.47,138.957 569.713,149.622 571.956,161.27 574.198,173.882 576.441,187.439 578.684,201.917 580.927,217.29 583.17,233.527 585.413,250.594 587.655,268.455 589.898,287.07 592.141,306.395 594.384,326.382 596.627,346.983 598.869,368.144 601.112,389.807 603.355,411.912 605.598,434.396 607.841,457.193 610.084,480.231 612.326,503.438 614.569,526.737 616.812,550.047 619.055,573.285 621.298,596.393 623.54,619.35 625.783,642.098 628.026,664.585 630.269,686.762 632.512,708.583 634.755,730.008 636.997,750.998 639.24,771.523 641.483,791.551 643.726,811.057 645.969,830.021 648.212,848.425 650.454,866.255 652.697,883.502 654.94,900.161 657.183,916.23 659.426,931.711 661.668,946.611 663.911,960.94 666.154,974.712 668.397,987.946 670.64,1000.66 672.883,1012.89 675.125,1024.66 677.368,1035.96 679.611,1046.79 681.854,1057.16 684.097,1067.09 686.339,1076.59 688.582,1085.68 690.825,1094.37 693.068,1102.69 695.311,1110.63 697.554,1118.23 699.796,1125.48 702.039,1132.41 704.282,1139.02 706.525,1145.34 708.768,1151.36 711.011,1157.11 713.253,1162.58 715.496,1167.8 717.739,1172.78 719.982,1177.51 722.225,1182.02 724.467,1186.31 726.71,1190.39 728.953,1194.26 731.196,1197.95 733.439,1201.46 735.682,1204.79 737.924,1207.95 740.167,1210.95 742.41,1213.8 744.653,1216.5 746.896,1219.05 749.138,1221.47 751.381,1223.75 753.624,1225.91 755.867,1227.95 758.11,1229.86 760.353,1231.67 762.595,1233.36 764.838,1234.95 767.081,1236.44 769.324,1237.83 771.567,1239.13 773.81,1240.33 776.052,1241.45 778.295,1242.48 780.538,1243.43 782.781,1244.3 785.024,1245.09 787.266,1245.81 789.509,1246.45 791.752,1247.02 793.995,1247.51 796.238,1247.94 798.481,1248.3 800.723,1248.6 802.966,1248.83 805.209,1249 807.452,1249.11 809.695,1249.17 811.938,1249.16 814.18,1249.1 816.423,1248.98 818.666,1248.81 820.909,1248.58 823.152,1248.31 825.394,1247.98 827.637,1247.59 829.88,1247.16 832.123,1246.68 834.366,1246.15 836.609,1245.57 838.851,1244.95 841.094,1244.28 843.337,1243.56 845.58,1242.8 847.823,1241.99 850.065,1241.13 852.308,1240.23 854.551,1239.29 856.794,1238.3 859.037,1237.27 861.28,1236.2 863.522,1235.08 865.765,1233.92 868.008,1232.72 870.251,1231.47 872.494,1230.19 874.737,1228.85 876.979,1227.48 879.222,1226.06 881.465,1224.6 883.708,1223.1 885.951,1221.55 888.193,1219.97 890.436,1218.33 892.679,1216.66 894.922,1214.94 897.165,1213.18 899.408,1211.38 901.65,1209.53 903.893,1207.64 906.136,1205.7 908.379,1203.72 910.622,1201.7 912.864,1199.63 915.107,1197.52 917.35,1195.37 919.593,1193.16 921.836,1190.92 924.079,1188.63 926.321,1186.29 928.564,1183.9 930.807,1181.47 933.05,1179 935.293,1176.47 937.536,1173.9 939.778,1171.28 942.021,1168.62 944.264,1165.9 946.507,1163.14 948.75,1160.32 950.992,1157.46 953.235,1154.55 955.478,1151.58 957.721,1148.57 959.964,1145.5 962.207,1142.38 964.449,1139.21 966.692,1135.98 968.935,1132.7 971.178,1129.37 973.421,1125.98 975.663,1122.54 977.906,1119.04 980.149,1115.49 982.392,1111.88 984.635,1108.21 986.878,1104.48 989.12,1100.7 991.363,1096.85 993.606,1092.95 995.849,1088.99 998.092,1084.96 1000.33,1080.88 1002.58,1076.73 1004.82,1072.52 1007.06,1068.25 1009.31,1063.91 1011.55,1059.5 1013.79,1055.04 1016.03,1050.5 1018.28,1045.9 1020.52,1041.23 1022.76,1036.5 1025.01,1031.69 1027.25,1026.81 1029.49,1021.87 1031.73,1016.85 1033.98,1011.76 1036.22,1006.6 1038.46,1001.37 1040.71,996.064 1042.95,990.683 1045.19,985.226 1047.43,979.693 1049.68,974.084 1051.92,968.396 1054.16,962.63 1056.41,956.785 1058.65,950.861 1060.89,944.855 1063.13,938.769 1065.38,932.6 1067.62,926.348 1069.86,920.014 1072.1,913.595 1074.35,907.091 1076.59,900.503 1078.83,893.828 1081.08,887.066 1083.32,880.218 1085.56,873.281 1087.8,866.256 1090.05,859.142 1092.29,851.938 1094.53,844.644 1096.78,837.259 1099.02,829.782 1101.26,822.214 1103.5,814.554 1105.75,806.8 1107.99,798.953 1110.23,791.012 1112.48,782.976 1114.72,774.845 1116.96,766.623 1119.2,758.316 1121.45,749.921 1123.69,741.435 1125.93,732.857 1128.18,724.185 1130.42,715.419 1132.66,706.556 1134.9,697.595 1137.15,688.537 1139.39,679.381 1141.63,670.126 1143.88,660.772 1146.12,651.32 1148.36,641.771 1150.6,632.124 1152.85,622.382 1155.09,612.545 1157.33,602.615 1159.57,592.593 1161.82,582.482 1164.06,572.284 1166.3,562.001 1168.55,551.637 1170.79,541.193 1173.03,530.673 1175.27,520.081 1177.52,509.421 1179.76,498.695 1182,487.909 1184.25,477.067 1186.49,466.173 1188.73,455.232 1190.97,444.25 1193.22,433.232 1195.46,422.183 1197.7,411.11 1199.95,400.018 1202.19,388.914 1204.43,377.804 1206.67,366.696 1208.92,355.595 1211.16,344.511 1213.4,333.449 1215.65,322.419 1217.89,311.428 1220.13,300.484 1222.37,289.596 1224.62,278.768 1226.86,268.003 1229.1,257.32 1231.35,246.741 1233.59,236.288 1235.83,225.983 1238.07,215.851 1240.32,205.913 1242.56,196.193 1244.8,186.716 1247.04,177.505 1249.29,168.585 1251.53,159.981 1253.77,151.719 1256.02,143.822 1258.26,136.319 1260.5,129.233 1262.74,122.593 1264.99,116.425 1267.23,110.756 1269.47,105.614 1271.72,101.026 1273.96,97.0209 1276.2,93.6266 1278.44,90.8723 1280.69,88.7869 1282.93,87.4 1285.17,86.7413 1287.42,86.841 1289.66,87.7295 1291.9,89.4376 1294.14,91.9964 1296.39,95.4373 1298.63,99.7921 1300.87,105.093 1303.12,111.372 1305.36,118.695 1307.6,127.086 1309.84,136.526 1312.09,146.993 1314.33,158.462 1316.57,170.908 1318.82,184.301 1321.06,198.612 1323.3,213.809 1325.54,229.855 1327.79,246.716 1330.03,264.351 1332.27,282.72 1334.51,301.78 1336.76,321.486 1339,341.79 1341.24,362.642 1343.49,383.993 1345.73,405.787 1347.97,427.969 1350.21,450.481 1352.46,473.264 1354.7,496.255 1356.94,519.39 1359.19,542.603 1361.43,565.825 1363.67,588.986 1365.91,612.014 1368.16,634.833 1370.4,657.367 1372.64,679.547 1374.89,701.367 1377.13,722.803 1379.37,743.823 1381.61,764.399 1383.86,784.504 1386.1,804.116 1388.34,823.215 1390.59,841.782 1392.83,859.804 1395.07,877.268 1397.31,894.164 1399.56,910.487 1401.8,926.232 1404.04,941.399 1406.29,955.99 1408.53,970.008 1410.77,983.462 1413.01,996.362 1415.26,1008.72 1417.5,1020.55 1419.74,1031.87 1421.98,1042.71 1424.23,1053.09 1426.47,1063.02 1428.71,1072.56 1430.96,1081.71 1433.2,1090.53 1435.44,1098.97 1437.68,1107.04 1439.93,1114.75 1442.17,1122.11 1444.41,1129.14 1446.66,1135.86 1448.9,1142.26 1451.14,1148.38 1453.38,1154.21 1455.63,1159.78 1457.87,1165.09 1460.11,1170.15 1462.36,1174.97 1464.6,1179.57 1466.84,1183.95 1469.08,1188.12 1471.33,1192.09 1473.57,1195.87 1475.81,1199.46 1478.06,1202.88 1480.3,1206.12 1482.54,1209.2 1484.78,1212.12 1487.03,1214.89 1489.27,1217.5 1491.51,1219.98 1493.76,1222.31 1496,1224.52 1498.24,1226.6 1500.48,1228.57 1502.73,1230.42 1504.97,1232.16 1507.21,1233.79 1509.46,1235.32 1511.7,1236.74 1513.94,1238.07 1516.18,1239.31 1518.43,1240.46 1520.67,1241.52 1522.91,1242.49 1525.15,1243.38 1527.4,1244.2 1529.64,1244.93 1531.88,1245.6 1534.13,1246.19 1536.37,1246.71 1538.61,1247.16 1540.85,1247.54 1543.1,1247.86 1545.34,1248.12 1547.58,1248.31 1549.83,1248.45 1552.07,1248.52 1554.31,1248.54 1556.55,1248.5 1558.8,1248.4 1561.04,1248.25 1563.28,1248.05 1565.53,1247.79 1567.77,1247.48 1570.01,1247.12 1572.25,1246.71 1574.5,1246.25 1576.74,1245.74 1578.98,1245.18 1581.23,1244.57 1583.47,1243.92 1585.71,1243.22 1587.95,1242.47 1590.2,1241.68 1592.44,1240.84 1594.68,1239.95 1596.93,1239.02 1599.17,1238.05 1601.41,1237.03 1603.65,1235.97 1605.9,1234.86 1608.14,1233.72 1610.38,1232.52 1612.62,1231.29 1614.87,1230.01 1617.11,1228.69 1619.35,1227.32 1621.6,1225.92 1623.84,1224.47 1626.08,1222.98 1628.32,1221.44 1630.57,1219.87 1632.81,1218.25 1635.05,1216.59 1637.3,1214.88 1639.54,1213.14 1641.78,1211.35 1644.02,1209.51 1646.27,1207.63 1648.51,1205.71 1650.75,1203.75 1653,1201.74 1655.24,1199.69 1657.48,1197.59 1659.72,1195.45 1661.97,1193.26 1664.21,1191.02 1666.45,1188.75 1668.7,1186.42 1670.94,1184.05 1673.18,1181.63 1675.42,1179.17 1677.67,1176.66 1679.91,1174.1 1682.15,1171.49 1684.4,1168.84 1686.64,1166.14 1688.88,1163.39 1691.12,1160.58 1693.37,1157.73 1695.61,1154.83 1697.85,1151.88 1700.09,1148.88 1702.34,1145.82 1704.58,1142.72 1706.82,1139.56 1709.07,1136.35 1711.31,1133.08 1713.55,1129.76 1715.79,1126.39 1718.04,1122.96 1720.28,1119.48 1722.52,1115.94 1724.77,1112.34 1727.01,1108.69 1729.25,1104.98 1731.49,1101.21 1733.74,1097.38 1735.98,1093.49 1738.22,1089.54 1740.47,1085.53 1742.71,1081.46 1744.95,1077.33 1747.19,1073.13 1749.44,1068.87 1751.68,1064.55 1753.92,1060.16 1756.17,1055.71 1758.41,1051.19 1760.65,1046.61 1762.89,1041.95 1765.14,1037.23 1767.38,1032.45 1769.62,1027.59 1771.87,1022.66 1774.11,1017.66 1776.35,1012.59 1778.59,1007.45 1780.84,1002.24 1783.08,996.949 1785.32,991.587 1787.56,986.15 1789.81,980.637 1792.05,975.048 1794.29,969.382 1796.54,963.638 1798.78,957.816 1801.02,951.914 1803.26,945.931 1805.51,939.868 1807.75,933.723 1809.99,927.495 1812.24,921.185 1814.48,914.791 1816.72,908.315 1818.96,901.754 1821.21,895.107 1823.45,888.375 1825.69,881.555 1827.94,874.647 1830.18,867.651 1832.42,860.564 1834.66,853.388 1836.91,846.121 1839.15,838.762 1841.39,831.312 1843.64,823.769 1845.88,816.133 1848.12,808.403 1850.36,800.58 1852.61,792.663 1854.85,784.652 1857.09,776.546 1859.34,768.346 1861.58,760.051 1863.82,751.661 1866.06,743.176 1868.31,734.596 1870.55,725.921 1872.79,717.152 1875.03,708.288 1877.28,699.331 1879.52,690.278 1881.76,681.133 1884.01,671.894 1886.25,662.562 1888.49,653.137 1890.73,643.62 1892.98,634.012 1895.22,624.313 1897.46,614.524 1899.71,604.646 1901.95,594.694 1904.19,584.674 1906.43,574.583 1908.68,564.417 1910.92,554.177 1913.16,543.859 1915.41,533.465 1917.65,522.994 1919.89,512.448 1922.13,501.827 1924.38,491.134 1926.62,480.371 1928.86,469.543 1931.11,458.652 1933.35,447.703 1935.59,436.702 1937.83,425.654 1940.08,414.566 1942.32,403.444 1944.56,392.297 1946.81,381.133 1949.05,369.96 1951.29,358.788 1953.53,347.628 1955.78,336.49 1958.02,325.385 1960.26,314.325 1962.5,303.324 1964.75,292.393 1966.99,281.548 1969.23,270.802 1971.48,260.172 1973.72,249.671 1975.96,239.317 1978.2,229.127 1980.45,219.118 1982.69,209.309 1984.93,199.718 1987.18,190.365 1989.42,181.269 1991.66,172.452 1993.9,163.934 1996.15,155.739 1998.39,147.887 2000.63,140.403 2002.88,133.31 2005.12,126.632 2007.36,120.395 2009.6,114.625 2011.85,109.346 2014.09,104.585 2016.33,100.376 2018.58,96.763 2020.82,93.7904 2023.06,91.4986 2025.3,89.9258 2027.55,89.1073 2029.79,89.0759 2032.03,89.8615 2034.28,91.4917 2036.52,93.9911 2038.76,97.3819 2041,101.683 2043.25,106.912 2045.49,113.083 2047.73,120.207 2049.97,128.292 2052.22,137.345 2054.46,147.37 2056.7,158.367 2058.95,170.334 2061.19,183.266 2063.43,197.157 2065.67,211.997 2067.92,227.787 2070.16,244.486 2072.4,262.035 2074.65,280.375 2076.89,299.447 2079.13,319.189 2081.37,339.543 2083.62,360.448 2085.86,381.844 2088.1,403.67 2090.35,425.865 2092.59,448.369 2094.83,471.12 2097.07,494.058 2099.32,517.12 2101.56,540.245 2103.8,563.371 2106.05,586.437 2108.29,609.379 2110.53,632.136 2112.77,654.644 2115.02,676.842 2117.26,698.667 2119.5,720.087 2121.75,741.085 2123.99,761.635 2126.23,781.713 2128.47,801.3 2130.72,820.377 2132.96,838.928 2135.2,856.941 2137.45,874.405 2139.69,891.312 2141.93,907.656 2144.17,923.433 2146.42,938.644 2148.66,953.291 2150.9,967.377 2153.14,980.909 2155.39,993.897 2157.63,1006.35 2159.87,1018.29 2162.12,1029.73 2164.36,1040.68 2166.6,1051.17 2168.84,1061.23 2171.09,1070.88 2173.33,1080.15 2175.57,1089.03 2177.82,1097.52 2180.06,1105.64 2182.3,1113.39 2184.54,1120.8 2186.79,1127.88 2189.03,1134.63 2191.27,1141.08 2193.52,1147.24 2195.76,1153.11 2198,1158.71 2200.24,1164.05 2202.49,1169.15 2204.73,1174 2206.97,1178.63 2209.22,1183.04 2211.46,1187.23 2213.7,1191.22 2215.94,1195.02 2218.19,1198.63 2220.43,1202.06 2222.67,1205.32 2224.92,1208.41 2227.16,1211.34 2229.4,1214.11 2231.64,1216.74 2233.89,1219.23 2236.13,1221.59 2238.37,1223.81 2240.61,1225.92 2242.86,1227.9 2245.1,1229.76 2247.34,1231.51 2249.59,1233.16 2251.83,1234.7 2254.07,1236.14 2256.31,1237.48 2258.56,1238.73 2260.8,1239.89 2263.04,1240.97 2265.29,1241.96 2267.53,1242.86 2269.77,1243.69 2272.01,1244.44 2274.26,1245.12 2276.5,1245.72 2278.74,1246.25 2280.99,1246.72 2283.23,1247.11 2285.47,1247.44 2287.71,1247.71 2289.96,1247.91 2292.2,1248.06 2294.44,1248.14 2296.69,1248.16 2298.93,1248.13 2301.17,1248.04 2303.41,1247.9 2305.66,1247.7 2307.9,1247.45 2310.14,1247.15 2312.39,1246.79 2314.63,1246.39 2316.87,1245.93 2319.11,1245.42 2321.36,1244.87 2323.6,1244.27 2325.84,1243.62 2328.08,1242.92 2330.33,1242.18 2332.57,1241.39 2334.81,1240.56 2337.06,1239.68 2339.3,1238.75 2341.54,1237.79 2343.78,1236.77 2346.03,1235.72 2348.27,1234.62 2350.51,1233.48 2352.76,1232.29 "/>
<polyline clip-path="url(#clip232)" style="stroke:#c271d2; stroke-linecap:round; stroke-linejoin:round; stroke-width:4; stroke-opacity:1; fill:none" points="112.177,1239.07 114.42,1242.94 116.663,1246.72 118.906,1250.41 121.148,1254.03 123.391,1257.56 125.634,1261.01 127.877,1264.38 130.12,1267.68 132.363,1270.9 134.605,1274.05 136.848,1277.13 139.091,1280.13 141.334,1283.07 143.577,1285.94 145.819,1288.74 148.062,1291.48 150.305,1294.16 152.548,1296.77 154.791,1299.32 157.034,1301.81 159.276,1304.25 161.519,1306.63 163.762,1308.95 166.005,1311.21 168.248,1313.43 170.491,1315.59 172.733,1317.7 174.976,1319.76 177.219,1321.77 179.462,1323.73 181.705,1325.65 183.947,1327.52 186.19,1329.34 188.433,1331.12 190.676,1332.86 192.919,1334.56 195.162,1336.21 197.404,1337.83 199.647,1339.4 201.89,1340.94 204.133,1342.44 206.376,1343.9 208.619,1345.32 210.861,1346.71 213.104,1348.07 215.347,1349.39 217.59,1350.68 219.833,1351.93 222.075,1353.15 224.318,1354.35 226.561,1355.51 228.804,1356.64 231.047,1357.74 233.29,1358.81 235.532,1359.86 237.775,1360.87 240.018,1361.86 242.261,1362.82 244.504,1363.76 246.746,1364.67 248.989,1365.56 251.232,1366.42 253.475,1367.25 255.718,1368.07 257.961,1368.85 260.203,1369.62 262.446,1370.36 264.689,1371.08 266.932,1371.78 269.175,1372.46 271.418,1373.11 273.66,1373.75 275.903,1374.36 278.146,1374.96 280.389,1375.53 282.632,1376.08 284.874,1376.62 287.117,1377.13 289.36,1377.63 291.603,1378.1 293.846,1378.56 296.089,1379 298.331,1379.42 300.574,1379.82 302.817,1380.21 305.06,1380.58 307.303,1380.92 309.545,1381.26 311.788,1381.57 314.031,1381.87 316.274,1382.14 318.517,1382.41 320.76,1382.65 323.002,1382.88 325.245,1383.08 327.488,1383.28 329.731,1383.45 331.974,1383.6 334.217,1383.74 336.459,1383.86 338.702,1383.97 340.945,1384.05 343.188,1384.12 345.431,1384.17 347.673,1384.2 349.916,1384.21 352.159,1384.21 354.402,1384.19 356.645,1384.14 358.888,1384.08 361.13,1384 363.373,1383.89 365.616,1383.77 367.859,1383.63 370.102,1383.46 372.344,1383.27 374.587,1383.06 376.83,1382.83 379.073,1382.57 381.316,1382.29 383.559,1381.99 385.801,1381.66 388.044,1381.3 390.287,1380.92 392.53,1380.51 394.773,1380.07 397.016,1379.6 399.258,1379.1 401.501,1378.57 403.744,1378 405.987,1377.4 408.23,1376.76 410.472,1376.09 412.715,1375.38 414.958,1374.63 417.201,1373.84 419.444,1373.02 421.687,1372.15 423.929,1371.23 426.172,1370.27 428.415,1369.27 430.658,1368.21 432.901,1367.1 435.143,1365.93 437.386,1364.71 439.629,1363.42 441.872,1362.07 444.115,1360.66 446.358,1359.17 448.6,1357.61 450.843,1355.97 453.086,1354.25 455.329,1352.45 457.572,1350.55 459.815,1348.57 462.057,1346.48 464.3,1344.29 466.543,1341.99 468.786,1339.58 471.029,1337.05 473.271,1334.4 475.514,1331.62 477.757,1328.72 480,1325.69 482.243,1322.52 484.486,1319.2 486.728,1315.71 488.971,1312.04 491.214,1308.19 493.457,1304.13 495.7,1299.87 497.942,1295.38 500.185,1290.65 502.428,1285.68 504.671,1280.45 506.914,1274.96 509.157,1269.18 511.399,1263.12 513.642,1256.75 515.885,1250.08 518.128,1243.09 520.371,1235.77 522.614,1228.1 524.856,1220.09 527.099,1211.72 529.342,1202.98 531.585,1193.86 533.828,1184.35 536.07,1174.45 538.313,1164.14 540.556,1153.42 542.799,1142.27 545.042,1130.7 547.285,1118.68 549.527,1106.22 551.77,1093.3 554.013,1079.92 556.256,1066.06 558.499,1051.72 560.741,1036.86 562.984,1021.52 565.227,1005.74 567.47,989.567 569.713,973.037 571.956,956.198 574.198,939.093 576.441,921.769 578.684,904.27 580.927,886.645 583.17,868.94 585.413,851.203 587.655,833.484 589.898,815.833 592.141,798.298 594.384,780.932 596.627,763.786 598.869,746.912 601.112,730.364 603.355,714.196 605.598,698.462 607.841,683.217 610.084,668.517 612.326,654.419 614.569,640.981 616.812,628.259 619.055,616.315 621.298,605.183 623.54,594.869 625.783,585.397 628.026,576.79 630.269,569.065 632.512,562.235 634.755,556.309 636.997,551.295 639.24,547.192 641.483,543.999 643.726,541.709 645.969,540.312 648.212,539.794 650.454,540.135 652.697,541.313 654.94,543.303 657.183,546.073 659.426,549.59 661.668,553.814 663.911,558.703 666.154,564.211 668.397,570.287 670.64,576.877 672.883,583.922 675.125,591.361 677.368,599.185 679.611,607.405 681.854,615.987 684.097,624.901 686.339,634.115 688.582,643.601 690.825,653.33 693.068,663.275 695.311,673.41 697.554,683.71 699.796,694.153 702.039,704.715 704.282,715.375 706.525,726.114 708.768,736.912 711.011,747.751 713.253,758.616 715.496,769.49 717.739,780.36 719.982,791.212 722.225,802.034 724.467,812.816 726.71,823.548 728.953,834.219 731.196,844.813 733.439,855.324 735.682,865.746 737.924,876.072 740.167,886.298 742.41,896.418 744.653,906.428 746.896,916.323 749.138,926.1 751.381,935.754 753.624,945.282 755.867,954.681 758.11,963.948 760.353,973.081 762.595,982.078 764.838,990.937 767.081,999.656 769.324,1008.23 771.567,1016.67 773.81,1024.96 776.052,1033.12 778.295,1041.13 780.538,1048.99 782.781,1056.72 785.024,1064.31 787.266,1071.76 789.509,1079.07 791.752,1086.24 793.995,1093.29 796.238,1100.2 798.481,1106.97 800.723,1113.62 802.966,1120.13 805.209,1126.51 807.452,1132.77 809.695,1138.9 811.938,1144.91 814.18,1150.79 816.423,1156.56 818.666,1162.21 820.909,1167.73 823.152,1173.15 825.394,1178.45 827.637,1183.63 829.88,1188.71 832.123,1193.68 834.366,1198.54 836.609,1203.3 838.851,1207.95 841.094,1212.5 843.337,1216.96 845.58,1221.31 847.823,1225.57 850.065,1229.73 852.308,1233.81 854.551,1237.79 856.794,1241.68 859.037,1245.49 861.28,1249.21 863.522,1252.85 865.765,1256.41 868.008,1259.89 870.251,1263.28 872.494,1266.6 874.737,1269.85 876.979,1273.02 879.222,1276.12 881.465,1279.15 883.708,1282.11 885.951,1285 888.193,1287.82 890.436,1290.58 892.679,1293.27 894.922,1295.91 897.165,1298.48 899.408,1300.99 901.65,1303.44 903.893,1305.84 906.136,1308.18 908.379,1310.46 910.622,1312.69 912.864,1314.87 915.107,1317 917.35,1319.08 919.593,1321.1 921.836,1323.08 924.079,1325.02 926.321,1326.9 928.564,1328.74 930.807,1330.54 933.05,1332.29 935.293,1334 937.536,1335.67 939.778,1337.29 942.021,1338.88 944.264,1340.43 946.507,1341.94 948.75,1343.41 950.992,1344.85 953.235,1346.25 955.478,1347.61 957.721,1348.94 959.964,1350.24 962.207,1351.5 964.449,1352.74 966.692,1353.94 968.935,1355.11 971.178,1356.25 973.421,1357.36 975.663,1358.44 977.906,1359.49 980.149,1360.51 982.392,1361.51 984.635,1362.48 986.878,1363.43 989.12,1364.34 991.363,1365.24 993.606,1366.11 995.849,1366.95 998.092,1367.77 1000.33,1368.57 1002.58,1369.34 1004.82,1370.09 1007.06,1370.82 1009.31,1371.53 1011.55,1372.21 1013.79,1372.88 1016.03,1373.52 1018.28,1374.14 1020.52,1374.74 1022.76,1375.32 1025.01,1375.88 1027.25,1376.42 1029.49,1376.94 1031.73,1377.44 1033.98,1377.93 1036.22,1378.39 1038.46,1378.83 1040.71,1379.26 1042.95,1379.67 1045.19,1380.06 1047.43,1380.43 1049.68,1380.78 1051.92,1381.12 1054.16,1381.44 1056.41,1381.74 1058.65,1382.02 1060.89,1382.29 1063.13,1382.54 1065.38,1382.77 1067.62,1382.98 1069.86,1383.18 1072.1,1383.36 1074.35,1383.52 1076.59,1383.67 1078.83,1383.79 1081.08,1383.9 1083.32,1384 1085.56,1384.07 1087.8,1384.13 1090.05,1384.16 1092.29,1384.18 1094.53,1384.18 1096.78,1384.16 1099.02,1384.12 1101.26,1384.07 1103.5,1383.99 1105.75,1383.89 1107.99,1383.77 1110.23,1383.63 1112.48,1383.47 1114.72,1383.29 1116.96,1383.09 1119.2,1382.85 1121.45,1382.59 1123.69,1382.3 1125.93,1381.98 1128.18,1381.64 1130.42,1381.27 1132.66,1380.88 1134.9,1380.45 1137.15,1380 1139.39,1379.53 1141.63,1379.02 1143.88,1378.49 1146.12,1377.93 1148.36,1377.34 1150.6,1376.71 1152.85,1376.06 1155.09,1375.37 1157.33,1374.64 1159.57,1373.88 1161.82,1373.08 1164.06,1372.23 1166.3,1371.35 1168.55,1370.42 1170.79,1369.44 1173.03,1368.41 1175.27,1367.33 1177.52,1366.19 1179.76,1365 1182,1363.74 1184.25,1362.43 1186.49,1361.04 1188.73,1359.58 1190.97,1358.05 1193.22,1356.44 1195.46,1354.75 1197.7,1352.97 1199.95,1351.1 1202.19,1349.14 1204.43,1347.08 1206.67,1344.92 1208.92,1342.64 1211.16,1340.26 1213.4,1337.76 1215.65,1335.14 1217.89,1332.39 1220.13,1329.5 1222.37,1326.48 1224.62,1323.32 1226.86,1320.02 1229.1,1316.57 1231.35,1312.96 1233.59,1309.17 1235.83,1305.19 1238.07,1301.01 1240.32,1296.61 1242.56,1291.98 1244.8,1287.1 1247.04,1281.98 1249.29,1276.58 1251.53,1270.91 1253.77,1264.95 1256.02,1258.69 1258.26,1252.12 1260.5,1245.22 1262.74,1238 1264.99,1230.43 1267.23,1222.52 1269.47,1214.24 1271.72,1205.59 1273.96,1196.57 1276.2,1187.16 1278.44,1177.35 1280.69,1167.14 1282.93,1156.52 1285.17,1145.48 1287.42,1134.02 1289.66,1122.13 1291.9,1109.8 1294.14,1097.02 1296.39,1083.79 1298.63,1070.11 1300.87,1055.96 1303.12,1041.35 1305.36,1026.22 1307.6,1010.57 1309.84,994.466 1312.09,977.956 1314.33,961.1 1316.57,943.952 1318.82,926.569 1321.06,909.004 1323.3,891.313 1325.54,873.548 1327.79,855.763 1330.03,838.01 1332.27,820.341 1334.51,802.808 1336.76,785.461 1339,768.35 1341.24,751.526 1343.49,735.036 1345.73,718.931 1347.97,703.258 1350.21,688.064 1352.46,673.397 1354.7,659.302 1356.94,645.826 1359.19,633.015 1361.43,620.911 1363.67,609.561 1365.91,599.007 1368.16,589.293 1370.4,580.46 1372.64,572.547 1374.89,565.546 1377.13,559.451 1379.37,554.256 1381.61,549.956 1383.86,546.541 1386.1,544 1388.34,542.321 1390.59,541.488 1392.83,541.484 1395.07,542.289 1397.31,543.883 1399.56,546.243 1401.8,549.342 1404.04,553.153 1406.29,557.646 1408.53,562.791 1410.77,568.553 1413.01,574.896 1415.26,581.782 1417.5,589.172 1419.74,597.024 1421.98,605.292 1424.23,613.932 1426.47,622.896 1428.71,632.131 1430.96,641.587 1433.2,651.213 1435.44,661.034 1437.68,671.049 1439.93,681.234 1442.17,691.569 1444.41,702.031 1446.66,712.601 1448.9,723.258 1451.14,733.984 1453.38,744.761 1455.63,755.573 1457.87,766.403 1460.11,777.237 1462.36,788.06 1464.6,798.859 1466.84,809.621 1469.08,820.335 1471.33,830.991 1473.57,841.578 1475.81,852.088 1478.06,862.513 1480.3,872.845 1482.54,883.079 1484.78,893.21 1487.03,903.232 1489.27,913.142 1491.51,922.939 1493.76,932.615 1496,942.163 1498.24,951.581 1500.48,960.867 1502.73,970.021 1504.97,979.04 1507.21,987.923 1509.46,996.669 1511.7,1005.28 1513.94,1013.75 1516.18,1022.08 1518.43,1030.27 1520.67,1038.33 1522.91,1046.24 1525.15,1054.01 1527.4,1061.65 1529.64,1069.14 1531.88,1076.5 1534.13,1083.72 1536.37,1090.8 1538.61,1097.75 1540.85,1104.57 1543.1,1111.25 1545.34,1117.79 1547.58,1124.21 1549.83,1130.5 1552.07,1136.67 1554.31,1142.71 1556.55,1148.62 1558.8,1154.42 1561.04,1160.1 1563.28,1165.66 1565.53,1171.11 1567.77,1176.44 1570.01,1181.66 1572.25,1186.77 1574.5,1191.77 1576.74,1196.66 1578.98,1201.45 1581.23,1206.14 1583.47,1210.72 1585.71,1215.21 1587.95,1219.6 1590.2,1223.89 1592.44,1228.09 1594.68,1232.19 1596.93,1236.2 1599.17,1240.13 1601.41,1243.97 1603.65,1247.72 1605.9,1251.38 1608.14,1254.97 1610.38,1258.47 1612.62,1261.9 1614.87,1265.24 1617.11,1268.52 1619.35,1271.71 1621.6,1274.83 1623.84,1277.89 1626.08,1280.87 1628.32,1283.78 1630.57,1286.63 1632.81,1289.41 1635.05,1292.12 1637.3,1294.78 1639.54,1297.37 1641.78,1299.9 1644.02,1302.37 1646.27,1304.78 1648.51,1307.14 1650.75,1309.44 1653,1311.69 1655.24,1313.89 1657.48,1316.03 1659.72,1318.12 1661.97,1320.16 1664.21,1322.16 1666.45,1324.1 1668.7,1326 1670.94,1327.86 1673.18,1329.67 1675.42,1331.44 1677.67,1333.16 1679.91,1334.84 1682.15,1336.49 1684.4,1338.09 1686.64,1339.65 1688.88,1341.18 1691.12,1342.66 1693.37,1344.11 1695.61,1345.53 1697.85,1346.91 1700.09,1348.26 1702.34,1349.57 1704.58,1350.85 1706.82,1352.09 1709.07,1353.31 1711.31,1354.49 1713.55,1355.64 1715.79,1356.76 1718.04,1357.85 1720.28,1358.92 1722.52,1359.95 1724.77,1360.96 1727.01,1361.94 1729.25,1362.89 1731.49,1363.82 1733.74,1364.72 1735.98,1365.6 1738.22,1366.45 1740.47,1367.27 1742.71,1368.08 1744.95,1368.86 1747.19,1369.61 1749.44,1370.35 1751.68,1371.06 1753.92,1371.75 1756.17,1372.42 1758.41,1373.07 1760.65,1373.69 1762.89,1374.3 1765.14,1374.88 1767.38,1375.45 1769.62,1376 1771.87,1376.52 1774.11,1377.03 1776.35,1377.52 1778.59,1377.99 1780.84,1378.44 1783.08,1378.87 1785.32,1379.29 1787.56,1379.68 1789.81,1380.06 1792.05,1380.42 1794.29,1380.76 1796.54,1381.09 1798.78,1381.39 1801.02,1381.68 1803.26,1381.95 1805.51,1382.21 1807.75,1382.45 1809.99,1382.66 1812.24,1382.86 1814.48,1383.05 1816.72,1383.21 1818.96,1383.36 1821.21,1383.49 1823.45,1383.6 1825.69,1383.69 1827.94,1383.77 1830.18,1383.82 1832.42,1383.86 1834.66,1383.88 1836.91,1383.89 1839.15,1383.87 1841.39,1383.84 1843.64,1383.78 1845.88,1383.71 1848.12,1383.62 1850.36,1383.5 1852.61,1383.37 1854.85,1383.22 1857.09,1383.04 1859.34,1382.84 1861.58,1382.62 1863.82,1382.38 1866.06,1382.11 1868.31,1381.82 1870.55,1381.5 1872.79,1381.16 1875.03,1380.79 1877.28,1380.39 1879.52,1379.96 1881.76,1379.51 1884.01,1379.02 1886.25,1378.5 1888.49,1377.95 1890.73,1377.37 1892.98,1376.75 1895.22,1376.1 1897.46,1375.41 1899.71,1374.69 1901.95,1373.91 1904.19,1373.09 1906.43,1372.22 1908.68,1371.29 1910.92,1370.32 1913.16,1369.3 1915.41,1368.23 1917.65,1367.1 1919.89,1365.93 1922.13,1364.69 1924.38,1363.4 1926.62,1362.05 1928.86,1360.64 1931.11,1359.16 1933.35,1357.62 1935.59,1356 1937.83,1354.31 1940.08,1352.54 1942.32,1350.69 1944.56,1348.75 1946.81,1346.71 1949.05,1344.58 1951.29,1342.35 1953.53,1340 1955.78,1337.54 1958.02,1334.96 1960.26,1332.26 1962.5,1329.41 1964.75,1326.43 1966.99,1323.3 1969.23,1320.01 1971.48,1316.55 1973.72,1312.93 1975.96,1309.12 1978.2,1305.12 1980.45,1300.92 1982.69,1296.51 1984.93,1291.89 1987.18,1287.03 1989.42,1281.94 1991.66,1276.6 1993.9,1270.99 1996.15,1265.12 1998.39,1258.96 2000.63,1252.51 2002.88,1245.75 2005.12,1238.67 2007.36,1231.26 2009.6,1223.5 2011.85,1215.39 2014.09,1206.91 2016.33,1198.06 2018.58,1188.81 2020.82,1179.16 2023.06,1169.08 2025.3,1158.56 2027.55,1147.6 2029.79,1136.19 2032.03,1124.33 2034.28,1112.01 2036.52,1099.24 2038.76,1086.02 2041,1072.36 2043.25,1058.26 2045.49,1043.73 2047.73,1028.8 2049.97,1013.47 2052.22,997.761 2054.46,981.7 2056.7,965.307 2058.95,948.608 2061.19,931.632 2063.43,914.409 2065.67,896.973 2067.92,879.352 2070.16,861.603 2072.4,843.8 2074.65,826.011 2076.89,808.304 2079.13,790.744 2081.37,773.395 2083.62,756.317 2085.86,739.569 2088.1,723.209 2090.35,707.29 2092.59,691.867 2094.83,676.988 2097.07,662.702 2099.32,649.057 2101.56,636.095 2103.8,623.859 2106.05,612.388 2108.29,601.721 2110.53,591.893 2112.77,582.938 2115.02,574.887 2117.26,567.77 2119.5,561.586 2121.75,556.319 2123.99,551.958 2126.23,548.489 2128.47,545.898 2130.72,544.167 2132.96,543.279 2135.2,543.214 2137.45,543.951 2139.69,545.465 2141.93,547.734 2144.17,550.729 2146.42,554.424 2148.66,558.789 2150.9,563.792 2153.14,569.402 2155.39,575.582 2157.63,582.298 2159.87,589.511 2162.12,597.183 2164.36,605.271 2166.6,613.735 2168.84,622.529 2171.09,631.607 2173.33,640.923 2175.57,650.468 2177.82,660.24 2180.06,670.214 2182.3,680.365 2184.54,690.669 2186.79,701.106 2189.03,711.654 2191.27,722.291 2193.52,733 2195.76,743.761 2198,754.558 2200.24,765.374 2202.49,776.194 2204.73,787.004 2206.97,797.79 2209.22,808.54 2211.46,819.243 2213.7,829.888 2215.94,840.466 2218.19,850.969 2220.43,861.39 2222.67,871.722 2224.92,881.959 2227.16,892.097 2229.4,902.126 2231.64,912.04 2233.89,921.836 2236.13,931.51 2238.37,941.06 2240.61,950.484 2242.86,959.778 2245.1,968.941 2247.34,977.97 2249.59,986.865 2251.83,995.623 2254.07,1004.24 2256.31,1012.72 2258.56,1021.07 2260.8,1029.27 2263.04,1037.33 2265.29,1045.25 2267.53,1053.03 2269.77,1060.67 2272.01,1068.17 2274.26,1075.54 2276.5,1082.76 2278.74,1089.85 2280.99,1096.8 2283.23,1103.63 2285.47,1110.32 2287.71,1116.88 2289.96,1123.31 2292.2,1129.62 2294.44,1135.79 2296.69,1141.85 2298.93,1147.78 2301.17,1153.59 2303.41,1159.28 2305.66,1164.86 2307.9,1170.32 2310.14,1175.66 2312.39,1180.89 2314.63,1186.01 2316.87,1191.03 2319.11,1195.93 2321.36,1200.73 2323.6,1205.43 2325.84,1210.03 2328.08,1214.52 2330.33,1218.92 2332.57,1223.22 2334.81,1227.43 2337.06,1231.54 2339.3,1235.57 2341.54,1239.5 2343.78,1243.34 2346.03,1247.1 2348.27,1250.78 2350.51,1254.37 2352.76,1257.89 "/>
<path clip-path="url(#clip230)" d="M186.863 352.309 L518.606 352.309 L518.606 93.1086 L186.863 93.1086  Z" fill="#ffffff" fill-rule="evenodd" fill-opacity="1"/>
<polyline clip-path="url(#clip230)" style="stroke:#000000; stroke-linecap:round; stroke-linejoin:round; stroke-width:4; stroke-opacity:1; fill:none" points="186.863,352.309 518.606,352.309 518.606,93.1086 186.863,93.1086 186.863,352.309 "/>
<polyline clip-path="url(#clip230)" style="stroke:#009af9; stroke-linecap:round; stroke-linejoin:round; stroke-width:4; stroke-opacity:1; fill:none" points="211.758,144.949 361.13,144.949 "/>
<path clip-path="url(#clip230)" d="M386.026 151.997 L386.026 136.303 L390.285 136.303 L390.285 151.835 Q390.285 155.516 391.72 157.368 Q393.155 159.196 396.026 159.196 Q399.475 159.196 401.465 156.997 Q403.479 154.798 403.479 151.002 L403.479 136.303 L407.739 136.303 L407.739 162.229 L403.479 162.229 L403.479 158.247 Q401.928 160.608 399.868 161.766 Q397.831 162.9 395.123 162.9 Q390.655 162.9 388.34 160.122 Q386.026 157.344 386.026 151.997 M396.743 135.678 L396.743 135.678 Z" fill="#000000" fill-rule="nonzero" fill-opacity="1" /><path clip-path="url(#clip230)" d="M417.924 158.293 L425.563 158.293 L425.563 131.928 L417.252 133.595 L417.252 129.335 L425.516 127.669 L430.192 127.669 L430.192 158.293 L437.831 158.293 L437.831 162.229 L417.924 162.229 L417.924 158.293 Z" fill="#000000" fill-rule="nonzero" fill-opacity="1" /><path clip-path="url(#clip230)" d="M456.905 126.257 Q453.803 131.581 452.298 136.789 Q450.794 141.997 450.794 147.344 Q450.794 152.692 452.298 157.946 Q453.826 163.178 456.905 168.479 L453.201 168.479 Q449.729 163.039 447.993 157.784 Q446.28 152.53 446.28 147.344 Q446.28 142.182 447.993 136.951 Q449.706 131.72 453.201 126.257 L456.905 126.257 Z" fill="#000000" fill-rule="nonzero" fill-opacity="1" /><path clip-path="url(#clip230)" d="M469.382 128.942 L469.382 136.303 L478.155 136.303 L478.155 139.613 L469.382 139.613 L469.382 153.687 Q469.382 156.858 470.238 157.761 Q471.118 158.664 473.78 158.664 L478.155 158.664 L478.155 162.229 L473.78 162.229 Q468.849 162.229 466.974 160.4 Q465.099 158.548 465.099 153.687 L465.099 139.613 L461.974 139.613 L461.974 136.303 L465.099 136.303 L465.099 128.942 L469.382 128.942 Z" fill="#000000" fill-rule="nonzero" fill-opacity="1" /><path clip-path="url(#clip230)" d="M483.085 126.257 L486.789 126.257 Q490.261 131.72 491.974 136.951 Q493.71 142.182 493.71 147.344 Q493.71 152.53 491.974 157.784 Q490.261 163.039 486.789 168.479 L483.085 168.479 Q486.164 163.178 487.669 157.946 Q489.196 152.692 489.196 147.344 Q489.196 141.997 487.669 136.789 Q486.164 131.581 483.085 126.257 Z" fill="#000000" fill-rule="nonzero" fill-opacity="1" /><polyline clip-path="url(#clip230)" style="stroke:#e26f46; stroke-linecap:round; stroke-linejoin:round; stroke-width:4; stroke-opacity:1; fill:none" points="211.758,196.789 361.13,196.789 "/>
<path clip-path="url(#clip230)" d="M386.026 203.837 L386.026 188.143 L390.285 188.143 L390.285 203.675 Q390.285 207.356 391.72 209.208 Q393.155 211.036 396.026 211.036 Q399.475 211.036 401.465 208.837 Q403.479 206.638 403.479 202.842 L403.479 188.143 L407.739 188.143 L407.739 214.069 L403.479 214.069 L403.479 210.087 Q401.928 212.448 399.868 213.606 Q397.831 214.74 395.123 214.74 Q390.655 214.74 388.34 211.962 Q386.026 209.184 386.026 203.837 M396.743 187.518 L396.743 187.518 Z" fill="#000000" fill-rule="nonzero" fill-opacity="1" /><path clip-path="url(#clip230)" d="M421.141 210.133 L437.461 210.133 L437.461 214.069 L415.516 214.069 L415.516 210.133 Q418.178 207.379 422.762 202.749 Q427.368 198.096 428.549 196.754 Q430.794 194.231 431.674 192.495 Q432.576 190.735 432.576 189.046 Q432.576 186.291 430.632 184.555 Q428.711 182.819 425.609 182.819 Q423.41 182.819 420.956 183.583 Q418.526 184.347 415.748 185.897 L415.748 181.175 Q418.572 180.041 421.026 179.462 Q423.479 178.884 425.516 178.884 Q430.887 178.884 434.081 181.569 Q437.275 184.254 437.275 188.745 Q437.275 190.874 436.465 192.796 Q435.678 194.694 433.572 197.286 Q432.993 197.958 429.891 201.175 Q426.789 204.37 421.141 210.133 Z" fill="#000000" fill-rule="nonzero" fill-opacity="1" /><path clip-path="url(#clip230)" d="M456.905 178.097 Q453.803 183.421 452.298 188.629 Q450.794 193.837 450.794 199.184 Q450.794 204.532 452.298 209.786 Q453.826 215.018 456.905 220.319 L453.201 220.319 Q449.729 214.879 447.993 209.624 Q446.28 204.37 446.28 199.184 Q446.28 194.022 447.993 188.791 Q449.706 183.56 453.201 178.097 L456.905 178.097 Z" fill="#000000" fill-rule="nonzero" fill-opacity="1" /><path clip-path="url(#clip230)" d="M469.382 180.782 L469.382 188.143 L478.155 188.143 L478.155 191.453 L469.382 191.453 L469.382 205.527 Q469.382 208.698 470.238 209.601 Q471.118 210.504 473.78 210.504 L478.155 210.504 L478.155 214.069 L473.78 214.069 Q468.849 214.069 466.974 212.24 Q465.099 210.388 465.099 205.527 L465.099 191.453 L461.974 191.453 L461.974 188.143 L465.099 188.143 L465.099 180.782 L469.382 180.782 Z" fill="#000000" fill-rule="nonzero" fill-opacity="1" /><path clip-path="url(#clip230)" d="M483.085 178.097 L486.789 178.097 Q490.261 183.56 491.974 188.791 Q493.71 194.022 493.71 199.184 Q493.71 204.37 491.974 209.624 Q490.261 214.879 486.789 220.319 L483.085 220.319 Q486.164 215.018 487.669 209.786 Q489.196 204.532 489.196 199.184 Q489.196 193.837 487.669 188.629 Q486.164 183.421 483.085 178.097 Z" fill="#000000" fill-rule="nonzero" fill-opacity="1" /><polyline clip-path="url(#clip230)" style="stroke:#3da44d; stroke-linecap:round; stroke-linejoin:round; stroke-width:4; stroke-opacity:1; fill:none" points="211.758,248.629 361.13,248.629 "/>
<path clip-path="url(#clip230)" d="M386.026 255.677 L386.026 239.983 L390.285 239.983 L390.285 255.515 Q390.285 259.196 391.72 261.048 Q393.155 262.876 396.026 262.876 Q399.475 262.876 401.465 260.677 Q403.479 258.478 403.479 254.682 L403.479 239.983 L407.739 239.983 L407.739 265.909 L403.479 265.909 L403.479 261.927 Q401.928 264.288 399.868 265.446 Q397.831 266.58 395.123 266.58 Q390.655 266.58 388.34 263.802 Q386.026 261.024 386.026 255.677 M396.743 239.358 L396.743 239.358 Z" fill="#000000" fill-rule="nonzero" fill-opacity="1" /><path clip-path="url(#clip230)" d="M417.924 261.973 L425.563 261.973 L425.563 235.608 L417.252 237.275 L417.252 233.015 L425.516 231.349 L430.192 231.349 L430.192 261.973 L437.831 261.973 L437.831 265.909 L417.924 265.909 L417.924 261.973 Z" fill="#000000" fill-rule="nonzero" fill-opacity="1" /><path clip-path="url(#clip230)" d="M456.905 229.937 Q453.803 235.261 452.298 240.469 Q450.794 245.677 450.794 251.024 Q450.794 256.372 452.298 261.626 Q453.826 266.858 456.905 272.159 L453.201 272.159 Q449.729 266.719 447.993 261.464 Q446.28 256.21 446.28 251.024 Q446.28 245.862 447.993 240.631 Q449.706 235.4 453.201 229.937 L456.905 229.937 Z" fill="#000000" fill-rule="nonzero" fill-opacity="1" /><path clip-path="url(#clip230)" d="M469.382 232.622 L469.382 239.983 L478.155 239.983 L478.155 243.293 L469.382 243.293 L469.382 257.367 Q469.382 260.538 470.238 261.441 Q471.118 262.344 473.78 262.344 L478.155 262.344 L478.155 265.909 L473.78 265.909 Q468.849 265.909 466.974 264.08 Q465.099 262.228 465.099 257.367 L465.099 243.293 L461.974 243.293 L461.974 239.983 L465.099 239.983 L465.099 232.622 L469.382 232.622 Z" fill="#000000" fill-rule="nonzero" fill-opacity="1" /><path clip-path="url(#clip230)" d="M483.085 229.937 L486.789 229.937 Q490.261 235.4 491.974 240.631 Q493.71 245.862 493.71 251.024 Q493.71 256.21 491.974 261.464 Q490.261 266.719 486.789 272.159 L483.085 272.159 Q486.164 266.858 487.669 261.626 Q489.196 256.372 489.196 251.024 Q489.196 245.677 487.669 240.469 Q486.164 235.261 483.085 229.937 Z" fill="#000000" fill-rule="nonzero" fill-opacity="1" /><polyline clip-path="url(#clip230)" style="stroke:#c271d2; stroke-linecap:round; stroke-linejoin:round; stroke-width:4; stroke-opacity:1; fill:none" points="211.758,300.469 361.13,300.469 "/>
<path clip-path="url(#clip230)" d="M386.026 307.517 L386.026 291.823 L390.285 291.823 L390.285 307.355 Q390.285 311.036 391.72 312.888 Q393.155 314.716 396.026 314.716 Q399.475 314.716 401.465 312.517 Q403.479 310.318 403.479 306.522 L403.479 291.823 L407.739 291.823 L407.739 317.749 L403.479 317.749 L403.479 313.767 Q401.928 316.128 399.868 317.286 Q397.831 318.42 395.123 318.42 Q390.655 318.42 388.34 315.642 Q386.026 312.864 386.026 307.517 M396.743 291.198 L396.743 291.198 Z" fill="#000000" fill-rule="nonzero" fill-opacity="1" /><path clip-path="url(#clip230)" d="M421.141 313.813 L437.461 313.813 L437.461 317.749 L415.516 317.749 L415.516 313.813 Q418.178 311.059 422.762 306.429 Q427.368 301.776 428.549 300.434 Q430.794 297.911 431.674 296.175 Q432.576 294.415 432.576 292.726 Q432.576 289.971 430.632 288.235 Q428.711 286.499 425.609 286.499 Q423.41 286.499 420.956 287.263 Q418.526 288.027 415.748 289.577 L415.748 284.855 Q418.572 283.721 421.026 283.142 Q423.479 282.564 425.516 282.564 Q430.887 282.564 434.081 285.249 Q437.275 287.934 437.275 292.425 Q437.275 294.554 436.465 296.476 Q435.678 298.374 433.572 300.966 Q432.993 301.638 429.891 304.855 Q426.789 308.05 421.141 313.813 Z" fill="#000000" fill-rule="nonzero" fill-opacity="1" /><path clip-path="url(#clip230)" d="M456.905 281.777 Q453.803 287.101 452.298 292.309 Q450.794 297.517 450.794 302.864 Q450.794 308.212 452.298 313.466 Q453.826 318.698 456.905 323.999 L453.201 323.999 Q449.729 318.559 447.993 313.304 Q446.28 308.05 446.28 302.864 Q446.28 297.702 447.993 292.471 Q449.706 287.24 453.201 281.777 L456.905 281.777 Z" fill="#000000" fill-rule="nonzero" fill-opacity="1" /><path clip-path="url(#clip230)" d="M469.382 284.462 L469.382 291.823 L478.155 291.823 L478.155 295.133 L469.382 295.133 L469.382 309.207 Q469.382 312.378 470.238 313.281 Q471.118 314.184 473.78 314.184 L478.155 314.184 L478.155 317.749 L473.78 317.749 Q468.849 317.749 466.974 315.92 Q465.099 314.068 465.099 309.207 L465.099 295.133 L461.974 295.133 L461.974 291.823 L465.099 291.823 L465.099 284.462 L469.382 284.462 Z" fill="#000000" fill-rule="nonzero" fill-opacity="1" /><path clip-path="url(#clip230)" d="M483.085 281.777 L486.789 281.777 Q490.261 287.24 491.974 292.471 Q493.71 297.702 493.71 302.864 Q493.71 308.05 491.974 313.304 Q490.261 318.559 486.789 323.999 L483.085 323.999 Q486.164 318.698 487.669 313.466 Q489.196 308.212 489.196 302.864 Q489.196 297.517 487.669 292.309 Q486.164 287.101 483.085 281.777 Z" fill="#000000" fill-rule="nonzero" fill-opacity="1" /></svg>
