<?xml version="1.0" encoding="utf-8"?>
<svg xmlns="http://www.w3.org/2000/svg" xmlns:xlink="http://www.w3.org/1999/xlink" width="600" height="400" viewBox="0 0 2400 1600">
<defs>
  <clipPath id="clip390">
    <rect x="0" y="0" width="2400" height="1600"/>
  </clipPath>
</defs>
<path clip-path="url(#clip390)" d="M0 1600 L2400 1600 L2400 0 L0 0  Z" fill="#ffffff" fill-rule="evenodd" fill-opacity="1"/>
<defs>
  <clipPath id="clip391">
    <rect x="480" y="0" width="1681" height="1600"/>
  </clipPath>
</defs>
<path clip-path="url(#clip390)" d="M112.177 1423.18 L2352.76 1423.18 L2352.76 47.2441 L112.177 47.2441  Z" fill="#ffffff" fill-rule="evenodd" fill-opacity="1"/>
<defs>
  <clipPath id="clip392">
    <rect x="112" y="47" width="2242" height="1377"/>
  </clipPath>
</defs>
<polyline clip-path="url(#clip392)" style="stroke:#000000; stroke-linecap:round; stroke-linejoin:round; stroke-width:2; stroke-opacity:0.1; fill:none" points="112.177,1423.18 112.177,47.2441 "/>
<polyline clip-path="url(#clip392)" style="stroke:#000000; stroke-linecap:round; stroke-linejoin:round; stroke-width:2; stroke-opacity:0.1; fill:none" points="560.293,1423.18 560.293,47.2441 "/>
<polyline clip-path="url(#clip392)" style="stroke:#000000; stroke-linecap:round; stroke-linejoin:round; stroke-width:2; stroke-opacity:0.1; fill:none" points="1008.41,1423.18 1008.41,47.2441 "/>
<polyline clip-path="url(#clip392)" style="stroke:#000000; stroke-linecap:round; stroke-linejoin:round; stroke-width:2; stroke-opacity:0.1; fill:none" points="1456.52,1423.18 1456.52,47.2441 "/>
<polyline clip-path="url(#clip392)" style="stroke:#000000; stroke-linecap:round; stroke-linejoin:round; stroke-width:2; stroke-opacity:0.1; fill:none" points="1904.64,1423.18 1904.64,47.2441 "/>
<polyline clip-path="url(#clip392)" style="stroke:#000000; stroke-linecap:round; stroke-linejoin:round; stroke-width:2; stroke-opacity:0.1; fill:none" points="2352.76,1423.18 2352.76,47.2441 "/>
<polyline clip-path="url(#clip390)" style="stroke:#000000; stroke-linecap:round; stroke-linejoin:round; stroke-width:4; stroke-opacity:1; fill:none" points="112.177,1423.18 2352.76,1423.18 "/>
<polyline clip-path="url(#clip390)" style="stroke:#000000; stroke-linecap:round; stroke-linejoin:round; stroke-width:4; stroke-opacity:1; fill:none" points="112.177,1423.18 112.177,1404.28 "/>
<polyline clip-path="url(#clip390)" style="stroke:#000000; stroke-linecap:round; stroke-linejoin:round; stroke-width:4; stroke-opacity:1; fill:none" points="560.293,1423.18 560.293,1404.28 "/>
<polyline clip-path="url(#clip390)" style="stroke:#000000; stroke-linecap:round; stroke-linejoin:round; stroke-width:4; stroke-opacity:1; fill:none" points="1008.41,1423.18 1008.41,1404.28 "/>
<polyline clip-path="url(#clip390)" style="stroke:#000000; stroke-linecap:round; stroke-linejoin:round; stroke-width:4; stroke-opacity:1; fill:none" points="1456.52,1423.18 1456.52,1404.28 "/>
<polyline clip-path="url(#clip390)" style="stroke:#000000; stroke-linecap:round; stroke-linejoin:round; stroke-width:4; stroke-opacity:1; fill:none" points="1904.64,1423.18 1904.64,1404.28 "/>
<polyline clip-path="url(#clip390)" style="stroke:#000000; stroke-linecap:round; stroke-linejoin:round; stroke-width:4; stroke-opacity:1; fill:none" points="2352.76,1423.18 2352.76,1404.28 "/>
<path clip-path="url(#clip390)" d="M112.177 1454.1 Q108.566 1454.1 106.737 1457.66 Q104.932 1461.2 104.932 1468.33 Q104.932 1475.44 106.737 1479.01 Q108.566 1482.55 112.177 1482.55 Q115.811 1482.55 117.617 1479.01 Q119.446 1475.44 119.446 1468.33 Q119.446 1461.2 117.617 1457.66 Q115.811 1454.1 112.177 1454.1 M112.177 1450.39 Q117.987 1450.39 121.043 1455 Q124.122 1459.58 124.122 1468.33 Q124.122 1477.06 121.043 1481.67 Q117.987 1486.25 112.177 1486.25 Q106.367 1486.25 103.288 1481.67 Q100.233 1477.06 100.233 1468.33 Q100.233 1459.58 103.288 1455 Q106.367 1450.39 112.177 1450.39 Z" fill="#000000" fill-rule="nonzero" fill-opacity="1" /><path clip-path="url(#clip390)" d="M554.946 1481.64 L571.265 1481.64 L571.265 1485.58 L549.321 1485.58 L549.321 1481.64 Q551.983 1478.89 556.566 1474.26 Q561.173 1469.61 562.353 1468.27 Q564.598 1465.74 565.478 1464.01 Q566.381 1462.25 566.381 1460.56 Q566.381 1457.8 564.436 1456.07 Q562.515 1454.33 559.413 1454.33 Q557.214 1454.33 554.761 1455.09 Q552.33 1455.86 549.552 1457.41 L549.552 1452.69 Q552.376 1451.55 554.83 1450.97 Q557.284 1450.39 559.321 1450.39 Q564.691 1450.39 567.885 1453.08 Q571.08 1455.77 571.08 1460.26 Q571.08 1462.39 570.27 1464.31 Q569.483 1466.2 567.376 1468.8 Q566.798 1469.47 563.696 1472.69 Q560.594 1475.88 554.946 1481.64 Z" fill="#000000" fill-rule="nonzero" fill-opacity="1" /><path clip-path="url(#clip390)" d="M1011.42 1455.09 L999.612 1473.54 L1011.42 1473.54 L1011.42 1455.09 M1010.19 1451.02 L1016.07 1451.02 L1016.07 1473.54 L1021 1473.54 L1021 1477.43 L1016.07 1477.43 L1016.07 1485.58 L1011.42 1485.58 L1011.42 1477.43 L995.816 1477.43 L995.816 1472.92 L1010.19 1451.02 Z" fill="#000000" fill-rule="nonzero" fill-opacity="1" /><path clip-path="url(#clip390)" d="M1456.93 1466.44 Q1453.78 1466.44 1451.93 1468.59 Q1450.1 1470.74 1450.1 1474.49 Q1450.1 1478.22 1451.93 1480.39 Q1453.78 1482.55 1456.93 1482.55 Q1460.08 1482.55 1461.91 1480.39 Q1463.76 1478.22 1463.76 1474.49 Q1463.76 1470.74 1461.91 1468.59 Q1460.08 1466.44 1456.93 1466.44 M1466.21 1451.78 L1466.21 1456.04 Q1464.45 1455.21 1462.65 1454.77 Q1460.86 1454.33 1459.11 1454.33 Q1454.48 1454.33 1452.02 1457.45 Q1449.59 1460.58 1449.24 1466.9 Q1450.61 1464.89 1452.67 1463.82 Q1454.73 1462.73 1457.21 1462.73 Q1462.42 1462.73 1465.42 1465.9 Q1468.46 1469.05 1468.46 1474.49 Q1468.46 1479.82 1465.31 1483.03 Q1462.16 1486.25 1456.93 1486.25 Q1450.93 1486.25 1447.76 1481.67 Q1444.59 1477.06 1444.59 1468.33 Q1444.59 1460.14 1448.48 1455.28 Q1452.37 1450.39 1458.92 1450.39 Q1460.68 1450.39 1462.46 1450.74 Q1464.27 1451.09 1466.21 1451.78 Z" fill="#000000" fill-rule="nonzero" fill-opacity="1" /><path clip-path="url(#clip390)" d="M1904.64 1469.17 Q1901.31 1469.17 1899.39 1470.95 Q1897.49 1472.73 1897.49 1475.86 Q1897.49 1478.98 1899.39 1480.77 Q1901.31 1482.55 1904.64 1482.55 Q1907.97 1482.55 1909.89 1480.77 Q1911.82 1478.96 1911.82 1475.86 Q1911.82 1472.73 1909.89 1470.95 Q1908 1469.17 1904.64 1469.17 M1899.96 1467.18 Q1896.96 1466.44 1895.27 1464.38 Q1893.6 1462.32 1893.6 1459.35 Q1893.6 1455.21 1896.54 1452.8 Q1899.5 1450.39 1904.64 1450.39 Q1909.8 1450.39 1912.74 1452.8 Q1915.68 1455.21 1915.68 1459.35 Q1915.68 1462.32 1913.99 1464.38 Q1912.33 1466.44 1909.34 1467.18 Q1912.72 1467.96 1914.59 1470.26 Q1916.49 1472.55 1916.49 1475.86 Q1916.49 1480.88 1913.41 1483.57 Q1910.36 1486.25 1904.64 1486.25 Q1898.92 1486.25 1895.84 1483.57 Q1892.79 1480.88 1892.79 1475.86 Q1892.79 1472.55 1894.69 1470.26 Q1896.58 1467.96 1899.96 1467.18 M1898.25 1459.79 Q1898.25 1462.48 1899.92 1463.98 Q1901.61 1465.49 1904.64 1465.49 Q1907.65 1465.49 1909.34 1463.98 Q1911.05 1462.48 1911.05 1459.79 Q1911.05 1457.11 1909.34 1455.6 Q1907.65 1454.1 1904.64 1454.1 Q1901.61 1454.1 1899.92 1455.6 Q1898.25 1457.11 1898.25 1459.79 Z" fill="#000000" fill-rule="nonzero" fill-opacity="1" /><path clip-path="url(#clip390)" d="M2327.44 1481.64 L2335.08 1481.64 L2335.08 1455.28 L2326.77 1456.95 L2326.77 1452.69 L2335.04 1451.02 L2339.71 1451.02 L2339.71 1481.64 L2347.35 1481.64 L2347.35 1485.58 L2327.44 1485.58 L2327.44 1481.64 Z" fill="#000000" fill-rule="nonzero" fill-opacity="1" /><path clip-path="url(#clip390)" d="M2366.8 1454.1 Q2363.18 1454.1 2361.36 1457.66 Q2359.55 1461.2 2359.55 1468.33 Q2359.55 1475.44 2361.36 1479.01 Q2363.18 1482.55 2366.8 1482.55 Q2370.43 1482.55 2372.23 1479.01 Q2374.06 1475.44 2374.06 1468.33 Q2374.06 1461.2 2372.23 1457.66 Q2370.43 1454.1 2366.8 1454.1 M2366.8 1450.39 Q2372.61 1450.39 2375.66 1455 Q2378.74 1459.58 2378.74 1468.33 Q2378.74 1477.06 2375.66 1481.67 Q2372.61 1486.25 2366.8 1486.25 Q2360.99 1486.25 2357.91 1481.67 Q2354.85 1477.06 2354.85 1468.33 Q2354.85 1459.58 2357.91 1455 Q2360.99 1450.39 2366.8 1450.39 Z" fill="#000000" fill-rule="nonzero" fill-opacity="1" /><path clip-path="url(#clip390)" d="M1231.53 1522.27 L1231.53 1532.4 L1243.59 1532.4 L1243.59 1536.95 L1231.53 1536.95 L1231.53 1556.3 Q1231.53 1560.66 1232.71 1561.9 Q1233.91 1563.14 1237.58 1563.14 L1243.59 1563.14 L1243.59 1568.04 L1237.58 1568.04 Q1230.8 1568.04 1228.22 1565.53 Q1225.64 1562.98 1225.64 1556.3 L1225.64 1536.95 L1221.34 1536.95 L1221.34 1532.4 L1225.64 1532.4 L1225.64 1522.27 L1231.53 1522.27 Z" fill="#000000" fill-rule="nonzero" fill-opacity="1" /><polyline clip-path="url(#clip392)" style="stroke:#000000; stroke-linecap:round; stroke-linejoin:round; stroke-width:2; stroke-opacity:0.1; fill:none" points="112.177,1239.07 2352.76,1239.07 "/>
<polyline clip-path="url(#clip392)" style="stroke:#000000; stroke-linecap:round; stroke-linejoin:round; stroke-width:2; stroke-opacity:0.1; fill:none" points="112.177,1043.73 2352.76,1043.73 "/>
<polyline clip-path="url(#clip392)" style="stroke:#000000; stroke-linecap:round; stroke-linejoin:round; stroke-width:2; stroke-opacity:0.1; fill:none" points="112.177,848.387 2352.76,848.387 "/>
<polyline clip-path="url(#clip392)" style="stroke:#000000; stroke-linecap:round; stroke-linejoin:round; stroke-width:2; stroke-opacity:0.1; fill:none" points="112.177,653.044 2352.76,653.044 "/>
<polyline clip-path="url(#clip392)" style="stroke:#000000; stroke-linecap:round; stroke-linejoin:round; stroke-width:2; stroke-opacity:0.1; fill:none" points="112.177,457.702 2352.76,457.702 "/>
<polyline clip-path="url(#clip392)" style="stroke:#000000; stroke-linecap:round; stroke-linejoin:round; stroke-width:2; stroke-opacity:0.1; fill:none" points="112.177,262.36 2352.76,262.36 "/>
<polyline clip-path="url(#clip392)" style="stroke:#000000; stroke-linecap:round; stroke-linejoin:round; stroke-width:2; stroke-opacity:0.1; fill:none" points="112.177,67.0182 2352.76,67.0182 "/>
<polyline clip-path="url(#clip390)" style="stroke:#000000; stroke-linecap:round; stroke-linejoin:round; stroke-width:4; stroke-opacity:1; fill:none" points="112.177,1423.18 112.177,47.2441 "/>
<polyline clip-path="url(#clip390)" style="stroke:#000000; stroke-linecap:round; stroke-linejoin:round; stroke-width:4; stroke-opacity:1; fill:none" points="112.177,1239.07 131.075,1239.07 "/>
<polyline clip-path="url(#clip390)" style="stroke:#000000; stroke-linecap:round; stroke-linejoin:round; stroke-width:4; stroke-opacity:1; fill:none" points="112.177,1043.73 131.075,1043.73 "/>
<polyline clip-path="url(#clip390)" style="stroke:#000000; stroke-linecap:round; stroke-linejoin:round; stroke-width:4; stroke-opacity:1; fill:none" points="112.177,848.387 131.075,848.387 "/>
<polyline clip-path="url(#clip390)" style="stroke:#000000; stroke-linecap:round; stroke-linejoin:round; stroke-width:4; stroke-opacity:1; fill:none" points="112.177,653.044 131.075,653.044 "/>
<polyline clip-path="url(#clip390)" style="stroke:#000000; stroke-linecap:round; stroke-linejoin:round; stroke-width:4; stroke-opacity:1; fill:none" points="112.177,457.702 131.075,457.702 "/>
<polyline clip-path="url(#clip390)" style="stroke:#000000; stroke-linecap:round; stroke-linejoin:round; stroke-width:4; stroke-opacity:1; fill:none" points="112.177,262.36 131.075,262.36 "/>
<polyline clip-path="url(#clip390)" style="stroke:#000000; stroke-linecap:round; stroke-linejoin:round; stroke-width:4; stroke-opacity:1; fill:none" points="112.177,67.0182 131.075,67.0182 "/>
<path clip-path="url(#clip390)" d="M56.2699 1252.42 L63.9087 1252.42 L63.9087 1226.05 L55.5986 1227.72 L55.5986 1223.46 L63.8624 1221.79 L68.5383 1221.79 L68.5383 1252.42 L76.1772 1252.42 L76.1772 1256.35 L56.2699 1256.35 L56.2699 1252.42 Z" fill="#000000" fill-rule="nonzero" fill-opacity="1" /><path clip-path="url(#clip390)" d="M59.8578 1057.07 L76.1772 1057.07 L76.1772 1061.01 L54.2328 1061.01 L54.2328 1057.07 Q56.8949 1054.32 61.4782 1049.69 Q66.0846 1045.04 67.2652 1043.69 Q69.5105 1041.17 70.3902 1039.43 Q71.2929 1037.68 71.2929 1035.99 Q71.2929 1033.23 69.3485 1031.49 Q67.4272 1029.76 64.3254 1029.76 Q62.1263 1029.76 59.6726 1030.52 Q57.2421 1031.29 54.4643 1032.84 L54.4643 1028.12 Q57.2884 1026.98 59.7421 1026.4 Q62.1958 1025.82 64.2328 1025.82 Q69.6031 1025.82 72.7976 1028.51 Q75.992 1031.19 75.992 1035.68 Q75.992 1037.81 75.1818 1039.74 Q74.3948 1041.63 72.2883 1044.23 Q71.7096 1044.9 68.6078 1048.12 Q65.5059 1051.31 59.8578 1057.07 Z" fill="#000000" fill-rule="nonzero" fill-opacity="1" /><path clip-path="url(#clip390)" d="M69.0476 847.032 Q72.404 847.75 74.279 850.018 Q76.1772 852.287 76.1772 855.62 Q76.1772 860.736 72.6587 863.537 Q69.1402 866.338 62.6587 866.338 Q60.4828 866.338 58.168 865.898 Q55.8764 865.481 53.4227 864.625 L53.4227 860.111 Q55.3671 861.245 57.6819 861.824 Q59.9967 862.403 62.5198 862.403 Q66.918 862.403 69.2096 860.667 Q71.5244 858.93 71.5244 855.62 Q71.5244 852.565 69.3717 850.852 Q67.242 849.116 63.4226 849.116 L59.3949 849.116 L59.3949 845.273 L63.6078 845.273 Q67.0569 845.273 68.8855 843.907 Q70.7142 842.519 70.7142 839.926 Q70.7142 837.264 68.8161 835.852 Q66.9411 834.417 63.4226 834.417 Q61.5013 834.417 59.3023 834.833 Q57.1032 835.25 54.4643 836.13 L54.4643 831.963 Q57.1264 831.222 59.4412 830.852 Q61.7791 830.482 63.8393 830.482 Q69.1633 830.482 72.2652 832.912 Q75.367 835.319 75.367 839.44 Q75.367 842.31 73.7235 844.301 Q72.08 846.268 69.0476 847.032 Z" fill="#000000" fill-rule="nonzero" fill-opacity="1" /><path clip-path="url(#clip390)" d="M66.5939 639.839 L54.7884 658.287 L66.5939 658.287 L66.5939 639.839 M65.367 635.764 L71.2466 635.764 L71.2466 658.287 L76.1772 658.287 L76.1772 662.176 L71.2466 662.176 L71.2466 670.324 L66.5939 670.324 L66.5939 662.176 L50.9921 662.176 L50.9921 657.662 L65.367 635.764 Z" fill="#000000" fill-rule="nonzero" fill-opacity="1" /><path clip-path="url(#clip390)" d="M55.2745 440.422 L73.6309 440.422 L73.6309 444.358 L59.5569 444.358 L59.5569 452.83 Q60.5754 452.482 61.5939 452.32 Q62.6124 452.135 63.6309 452.135 Q69.418 452.135 72.7976 455.307 Q76.1772 458.478 76.1772 463.894 Q76.1772 469.473 72.705 472.575 Q69.2328 475.654 62.9134 475.654 Q60.7374 475.654 58.4689 475.283 Q56.2236 474.913 53.8162 474.172 L53.8162 469.473 Q55.8995 470.607 58.1217 471.163 Q60.3439 471.718 62.8208 471.718 Q66.8254 471.718 69.1633 469.612 Q71.5013 467.506 71.5013 463.894 Q71.5013 460.283 69.1633 458.177 Q66.8254 456.07 62.8208 456.07 Q60.9458 456.07 59.0708 456.487 Q57.2189 456.904 55.2745 457.783 L55.2745 440.422 Z" fill="#000000" fill-rule="nonzero" fill-opacity="1" /><path clip-path="url(#clip390)" d="M64.6495 260.497 Q61.5013 260.497 59.6495 262.65 Q57.8208 264.802 57.8208 268.552 Q57.8208 272.279 59.6495 274.455 Q61.5013 276.608 64.6495 276.608 Q67.7976 276.608 69.6263 274.455 Q71.4781 272.279 71.4781 268.552 Q71.4781 264.802 69.6263 262.65 Q67.7976 260.497 64.6495 260.497 M73.9318 245.844 L73.9318 250.103 Q72.1726 249.27 70.367 248.83 Q68.5846 248.39 66.8254 248.39 Q62.1958 248.39 59.7421 251.515 Q57.3115 254.64 56.9643 260.96 Q58.33 258.946 60.3902 257.881 Q62.4504 256.793 64.9272 256.793 Q70.1355 256.793 73.1448 259.964 Q76.1772 263.113 76.1772 268.552 Q76.1772 273.876 73.029 277.094 Q69.8809 280.312 64.6495 280.312 Q58.6541 280.312 55.4828 275.728 Q52.3116 271.122 52.3116 262.395 Q52.3116 254.201 56.2004 249.34 Q60.0893 244.455 66.6402 244.455 Q68.3994 244.455 70.1818 244.803 Q71.9874 245.15 73.9318 245.844 Z" fill="#000000" fill-rule="nonzero" fill-opacity="1" /><path clip-path="url(#clip390)" d="M53.9551 49.7382 L76.1772 49.7382 L76.1772 51.7289 L63.6309 84.2982 L58.7467 84.2982 L70.5522 53.6734 L53.9551 53.6734 L53.9551 49.7382 Z" fill="#000000" fill-rule="nonzero" fill-opacity="1" /><polyline clip-path="url(#clip392)" style="stroke:#009af9; stroke-linecap:round; stroke-linejoin:round; stroke-width:4; stroke-opacity:1; fill:none" points="112.177,1239.07 114.42,1238.07 116.663,1237.03 118.906,1235.94 121.148,1234.81 123.391,1233.64 125.634,1232.42 127.877,1231.16 130.12,1229.86 132.363,1228.51 134.605,1227.13 136.848,1225.7 139.091,1224.22 141.334,1222.71 143.577,1221.15 145.819,1219.55 148.062,1217.9 150.305,1216.22 152.548,1214.49 154.791,1212.72 157.034,1210.9 159.276,1209.04 161.519,1207.14 163.762,1205.19 166.005,1203.2 168.248,1201.17 170.491,1199.09 172.733,1196.97 174.976,1194.8 177.219,1192.59 179.462,1190.33 181.705,1188.03 183.947,1185.68 186.19,1183.28 188.433,1180.84 190.676,1178.35 192.919,1175.81 195.162,1173.23 197.404,1170.6 199.647,1167.92 201.89,1165.19 204.133,1162.41 206.376,1159.59 208.619,1156.71 210.861,1153.78 213.104,1150.8 215.347,1147.77 217.59,1144.69 219.833,1141.56 222.075,1138.37 224.318,1135.14 226.561,1131.84 228.804,1128.5 231.047,1125.09 233.29,1121.64 235.532,1118.12 237.775,1114.56 240.018,1110.93 242.261,1107.25 244.504,1103.5 246.746,1099.7 248.989,1095.85 251.232,1091.93 253.475,1087.95 255.718,1083.91 257.961,1079.8 260.203,1075.64 262.446,1071.41 264.689,1067.12 266.932,1062.77 269.175,1058.35 271.418,1053.86 273.66,1049.31 275.903,1044.69 278.146,1040 280.389,1035.25 282.632,1030.42 284.874,1025.53 287.117,1020.57 289.36,1015.53 291.603,1010.42 293.846,1005.24 296.089,999.991 298.331,994.664 300.574,989.263 302.817,983.786 305.06,978.233 307.303,972.603 309.545,966.895 311.788,961.11 314.031,955.245 316.274,949.3 318.517,943.275 320.76,937.168 323.002,930.979 325.245,924.708 327.488,918.354 329.731,911.916 331.974,905.393 334.217,898.785 336.459,892.091 338.702,885.309 340.945,878.44 343.188,871.482 345.431,864.436 347.673,857.299 349.916,850.072 352.159,842.755 354.402,835.346 356.645,827.844 358.888,820.251 361.13,812.565 363.373,804.785 365.616,796.912 367.859,788.945 370.102,780.884 372.344,772.728 374.587,764.478 376.83,756.133 379.073,747.693 381.316,739.157 383.559,730.526 385.801,721.8 388.044,712.978 390.287,704.062 392.53,695.049 394.773,685.942 397.016,676.739 399.258,667.447 401.501,658.064 403.744,648.59 405.987,639.025 408.23,629.368 410.472,619.62 412.715,609.782 414.958,599.853 417.201,589.835 419.444,579.73 421.687,569.539 423.929,559.263 426.172,548.905 428.415,538.468 430.658,527.955 432.901,517.368 435.143,506.71 437.386,495.986 439.629,485.2 441.872,474.355 444.115,463.457 446.358,452.509 448.6,441.518 450.843,430.489 453.086,419.427 455.329,408.338 457.572,397.229 459.815,386.106 462.057,374.976 464.3,363.847 466.543,352.726 468.786,341.62 471.029,330.538 473.271,319.488 475.514,308.478 477.757,297.504 480,286.576 482.243,275.713 484.486,264.933 486.728,254.255 488.971,243.699 491.214,233.284 493.457,223.032 495.7,212.963 497.942,203.099 500.185,193.461 502.428,184.073 504.671,174.958 506.914,166.137 509.157,157.637 511.399,149.48 513.642,141.693 515.885,134.299 518.128,127.326 520.371,120.8 522.614,114.747 524.856,109.194 527.099,104.17 529.342,99.7034 531.585,95.8222 533.828,92.5559 536.07,89.9343 538.313,87.9877 540.556,86.7469 542.799,86.243 545.042,86.5077 547.285,87.5733 549.527,89.4725 551.77,92.2384 554.013,95.9046 556.256,100.505 558.499,106.078 560.741,112.662 562.984,120.262 565.227,128.874 567.47,138.491 569.713,149.104 571.956,160.698 574.198,173.259 576.441,186.764 578.684,201.192 580.927,216.516 583.17,232.705 585.413,249.726 587.655,267.542 589.898,286.114 592.141,305.399 594.384,325.348 596.627,345.914 598.869,367.041 601.112,388.675 603.355,410.753 605.598,433.215 607.841,455.992 610.084,479.014 612.326,502.209 614.569,525.5 616.812,548.806 619.055,572.045 621.298,595.157 623.54,618.119 625.783,640.875 628.026,663.373 630.269,685.564 632.512,707.401 634.755,728.844 636.997,749.855 639.24,770.402 641.483,790.454 643.726,809.986 645.969,828.976 648.212,847.407 650.454,865.266 652.697,882.542 654.94,899.231 657.183,915.33 659.426,930.841 661.668,945.771 663.911,960.129 666.154,973.931 668.397,987.193 670.64,999.938 672.883,1012.19 675.125,1023.99 677.368,1035.32 679.611,1046.17 681.854,1056.56 684.097,1066.51 686.339,1076.04 688.582,1085.15 690.825,1093.86 693.068,1102.2 695.311,1110.17 697.554,1117.78 699.796,1125.05 702.039,1132 704.282,1138.63 706.525,1144.96 708.768,1151 711.011,1156.76 713.253,1162.25 715.496,1167.49 717.739,1172.47 719.982,1177.22 722.225,1181.74 724.467,1186.04 726.71,1190.13 728.953,1194.02 731.196,1197.72 733.439,1201.24 735.682,1204.58 737.924,1207.75 740.167,1210.76 742.41,1213.62 744.653,1216.32 746.896,1218.89 749.138,1221.31 751.381,1223.6 753.624,1225.77 755.867,1227.81 758.11,1229.73 760.353,1231.54 762.595,1233.24 764.838,1234.84 767.081,1236.33 769.324,1237.73 771.567,1239.03 773.81,1240.24 776.052,1241.37 778.295,1242.4 780.538,1243.36 782.781,1244.23 785.024,1245.03 787.266,1245.75 789.509,1246.39 791.752,1246.97 793.995,1247.46 796.238,1247.9 798.481,1248.26 800.723,1248.56 802.966,1248.8 805.209,1248.98 807.452,1249.09 809.695,1249.15 811.938,1249.15 814.18,1249.09 816.423,1248.98 818.666,1248.81 820.909,1248.58 823.152,1248.31 825.394,1247.98 827.637,1247.6 829.88,1247.18 832.123,1246.7 834.366,1246.17 836.609,1245.6 838.851,1244.97 841.094,1244.31 843.337,1243.59 845.58,1242.83 847.823,1242.02 850.065,1241.17 852.308,1240.28 854.551,1239.34 856.794,1238.36 859.037,1237.33 861.28,1236.26 863.522,1235.14 865.765,1233.99 868.008,1232.79 870.251,1231.54 872.494,1230.26 874.737,1228.93 876.979,1227.56 879.222,1226.14 881.465,1224.69 883.708,1223.19 885.951,1221.64 888.193,1220.06 890.436,1218.43 892.679,1216.76 894.922,1215.04 897.165,1213.29 899.408,1211.49 901.65,1209.64 903.893,1207.75 906.136,1205.82 908.379,1203.85 910.622,1201.83 912.864,1199.76 915.107,1197.66 917.35,1195.5 919.593,1193.3 921.836,1191.06 924.079,1188.77 926.321,1186.44 928.564,1184.06 930.807,1181.63 933.05,1179.16 935.293,1176.64 937.536,1174.07 939.778,1171.46 942.021,1168.8 944.264,1166.08 946.507,1163.32 948.75,1160.51 950.992,1157.65 953.235,1154.74 955.478,1151.78 957.721,1148.77 959.964,1145.71 962.207,1142.59 964.449,1139.43 966.692,1136.21 968.935,1132.93 971.178,1129.6 973.421,1126.22 975.663,1122.78 977.906,1119.29 980.149,1115.74 982.392,1112.13 984.635,1108.47 986.878,1104.75 989.12,1100.97 991.363,1097.13 993.606,1093.23 995.849,1089.28 998.092,1085.26 1000.33,1081.18 1002.58,1077.04 1004.82,1072.83 1007.06,1068.56 1009.31,1064.23 1011.55,1059.83 1013.79,1055.37 1016.03,1050.84 1018.28,1046.25 1020.52,1041.59 1022.76,1036.86 1025.01,1032.06 1027.25,1027.19 1029.49,1022.25 1031.73,1017.24 1033.98,1012.16 1036.22,1007 1038.46,1001.78 1040.71,996.478 1042.95,991.104 1045.19,985.654 1047.43,980.129 1049.68,974.527 1051.92,968.847 1054.16,963.088 1056.41,957.251 1058.65,951.334 1060.89,945.337 1063.13,939.258 1065.38,933.098 1067.62,926.854 1069.86,920.528 1072.1,914.118 1074.35,907.623 1076.59,901.042 1078.83,894.376 1081.08,887.624 1083.32,880.784 1085.56,873.856 1087.8,866.84 1090.05,859.735 1092.29,852.541 1094.53,845.256 1096.78,837.88 1099.02,830.414 1101.26,822.855 1103.5,815.204 1105.75,807.46 1107.99,799.623 1110.23,791.692 1112.48,783.666 1114.72,775.546 1116.96,767.334 1119.2,759.036 1121.45,750.651 1123.69,742.175 1125.93,733.607 1128.18,724.946 1130.42,716.19 1132.66,707.337 1134.9,698.387 1137.15,689.339 1139.39,680.193 1141.63,670.949 1143.88,661.606 1146.12,652.165 1148.36,642.626 1150.6,632.99 1152.85,623.259 1155.09,613.432 1157.33,603.513 1159.57,593.502 1161.82,583.402 1164.06,573.214 1166.3,562.941 1168.55,552.587 1170.79,542.153 1173.03,531.643 1175.27,521.061 1177.52,510.409 1179.76,499.693 1182,488.915 1184.25,478.081 1186.49,467.195 1188.73,456.262 1190.97,445.287 1193.22,434.275 1195.46,423.232 1197.7,412.165 1199.95,401.077 1202.19,389.977 1204.43,378.871 1206.67,367.765 1208.92,356.667 1211.16,345.583 1213.4,334.522 1215.65,323.491 1217.89,312.497 1220.13,301.55 1222.37,290.658 1224.62,279.826 1226.86,269.054 1229.1,258.363 1231.35,247.774 1233.59,237.31 1235.83,226.992 1238.07,216.845 1240.32,206.89 1242.56,197.152 1244.8,187.653 1247.04,178.419 1249.29,169.474 1251.53,160.841 1253.77,152.548 1256.02,144.618 1258.26,137.078 1260.5,129.953 1262.74,123.271 1264.99,117.058 1267.23,111.341 1269.47,106.147 1271.72,101.505 1273.96,97.4423 1276.2,93.9874 1278.44,91.169 1280.69,89.0163 1282.93,87.5588 1285.17,86.8262 1287.42,86.8487 1289.66,87.6565 1291.9,89.2806 1294.14,91.752 1296.39,95.1021 1298.63,99.3628 1300.87,104.566 1303.12,110.744 1305.36,117.959 1307.6,126.244 1309.84,135.579 1312.09,145.943 1314.33,157.311 1316.57,169.658 1318.82,182.955 1321.06,197.172 1323.3,212.278 1325.54,228.237 1327.79,245.012 1330.03,262.567 1332.27,280.858 1334.51,299.845 1336.76,319.481 1339,339.72 1341.24,360.513 1343.49,381.808 1345.73,403.552 1347.97,425.69 1350.21,448.164 1352.46,470.915 1354.7,493.88 1356.94,516.996 1359.19,540.198 1361.43,563.416 1363.67,586.581 1365.91,609.621 1368.16,632.461 1370.4,655.025 1372.64,677.239 1374.89,699.093 1377.13,720.566 1379.37,741.626 1381.61,762.245 1383.86,782.396 1386.1,802.056 1388.34,821.205 1390.59,839.825 1392.83,857.901 1395.07,875.42 1397.31,892.374 1399.56,908.755 1401.8,924.559 1404.04,939.785 1406.29,954.435 1408.53,968.512 1410.77,982.024 1413.01,994.981 1415.26,1007.4 1417.5,1019.28 1419.74,1030.66 1421.98,1041.55 1424.23,1051.97 1426.47,1061.95 1428.71,1071.52 1430.96,1080.72 1433.2,1089.57 1435.44,1098.05 1437.68,1106.16 1439.93,1113.91 1442.17,1121.3 1444.41,1128.37 1446.66,1135.12 1448.9,1141.56 1451.14,1147.7 1453.38,1153.57 1455.63,1159.16 1457.87,1164.5 1460.11,1169.58 1462.36,1174.43 1464.6,1179.05 1466.84,1183.46 1469.08,1187.65 1471.33,1191.64 1473.57,1195.44 1475.81,1199.05 1478.06,1202.49 1480.3,1205.75 1482.54,1208.85 1484.78,1211.79 1487.03,1214.57 1489.27,1217.2 1491.51,1219.69 1493.76,1222.04 1496,1224.26 1498.24,1226.36 1500.48,1228.34 1502.73,1230.2 1504.97,1231.95 1507.21,1233.59 1509.46,1235.13 1511.7,1236.57 1513.94,1237.91 1516.18,1239.16 1518.43,1240.32 1520.67,1241.39 1522.91,1242.37 1525.15,1243.27 1527.4,1244.09 1529.64,1244.84 1531.88,1245.51 1534.13,1246.11 1536.37,1246.63 1538.61,1247.09 1540.85,1247.48 1543.1,1247.81 1545.34,1248.08 1547.58,1248.28 1549.83,1248.42 1552.07,1248.5 1554.31,1248.52 1556.55,1248.49 1558.8,1248.4 1561.04,1248.25 1563.28,1248.05 1565.53,1247.8 1567.77,1247.5 1570.01,1247.15 1572.25,1246.74 1574.5,1246.29 1576.74,1245.78 1578.98,1245.23 1581.23,1244.63 1583.47,1243.98 1585.71,1243.28 1587.95,1242.54 1590.2,1241.75 1592.44,1240.92 1594.68,1240.04 1596.93,1239.12 1599.17,1238.15 1601.41,1237.14 1603.65,1236.08 1605.9,1234.98 1608.14,1233.84 1610.38,1232.65 1612.62,1231.42 1614.87,1230.15 1617.11,1228.83 1619.35,1227.47 1621.6,1226.07 1623.84,1224.63 1626.08,1223.14 1628.32,1221.61 1630.57,1220.04 1632.81,1218.43 1635.05,1216.77 1637.3,1215.07 1639.54,1213.33 1641.78,1211.54 1644.02,1209.72 1646.27,1207.84 1648.51,1205.93 1650.75,1203.97 1653,1201.97 1655.24,1199.92 1657.48,1197.83 1659.72,1195.69 1661.97,1193.51 1664.21,1191.28 1666.45,1189.01 1668.7,1186.69 1670.94,1184.32 1673.18,1181.91 1675.42,1179.46 1677.67,1176.95 1679.91,1174.4 1682.15,1171.8 1684.4,1169.15 1686.64,1166.45 1688.88,1163.71 1691.12,1160.91 1693.37,1158.07 1695.61,1155.18 1697.85,1152.23 1700.09,1149.24 1702.34,1146.19 1704.58,1143.09 1706.82,1139.94 1709.07,1136.73 1711.31,1133.48 1713.55,1130.16 1715.79,1126.8 1718.04,1123.38 1720.28,1119.9 1722.52,1116.37 1724.77,1112.78 1727.01,1109.13 1729.25,1105.43 1731.49,1101.67 1733.74,1097.85 1735.98,1093.97 1738.22,1090.03 1740.47,1086.03 1742.71,1081.96 1744.95,1077.84 1747.19,1073.65 1749.44,1069.4 1751.68,1065.09 1753.92,1060.71 1756.17,1056.27 1758.41,1051.76 1760.65,1047.18 1762.89,1042.54 1765.14,1037.83 1767.38,1033.05 1769.62,1028.21 1771.87,1023.29 1774.11,1018.3 1776.35,1013.24 1778.59,1008.11 1780.84,1002.91 1783.08,997.629 1785.32,992.277 1787.56,986.852 1789.81,981.35 1792.05,975.773 1794.29,970.118 1796.54,964.385 1798.78,958.574 1801.02,952.684 1803.26,946.714 1805.51,940.663 1807.75,934.53 1809.99,928.315 1812.24,922.017 1814.48,915.636 1816.72,909.172 1818.96,902.623 1821.21,895.99 1823.45,889.271 1825.69,882.464 1827.94,875.57 1830.18,868.587 1832.42,861.515 1834.66,854.352 1836.91,847.099 1839.15,839.755 1841.39,832.318 1843.64,824.79 1845.88,817.168 1848.12,809.454 1850.36,801.645 1852.61,793.743 1854.85,785.746 1857.09,777.655 1859.34,769.47 1861.58,761.19 1863.82,752.815 1866.06,744.345 1868.31,735.78 1870.55,727.121 1872.79,718.367 1875.03,709.518 1877.28,700.575 1879.52,691.539 1881.76,682.408 1884.01,673.184 1886.25,663.867 1888.49,654.458 1890.73,644.957 1892.98,635.364 1895.22,625.68 1897.46,615.906 1899.71,606.042 1901.95,596.101 1904.19,586.092 1906.43,576.012 1908.68,565.859 1910.92,555.631 1913.16,545.327 1915.41,534.947 1917.65,524.49 1919.89,513.957 1922.13,503.35 1924.38,492.67 1926.62,481.921 1928.86,471.105 1931.11,460.226 1933.35,449.289 1935.59,438.298 1937.83,427.26 1940.08,416.181 1942.32,405.067 1944.56,393.927 1946.81,382.768 1949.05,371.599 1951.29,360.43 1953.53,349.27 1955.78,338.131 1958.02,327.024 1960.26,315.959 1962.5,304.951 1964.75,294.013 1966.99,283.157 1969.23,272.398 1971.48,261.752 1973.72,251.234 1975.96,240.86 1978.2,230.647 1980.45,220.612 1982.69,210.774 1984.93,201.152 1987.18,191.764 1989.42,182.632 1991.66,173.774 1993.9,165.213 1996.15,156.97 1998.39,149.068 2000.63,141.531 2002.88,134.38 2005.12,127.642 2007.36,121.34 2009.6,115.501 2011.85,110.15 2014.09,105.314 2016.33,101.022 2018.58,97.3189 2020.82,94.2489 2023.06,91.8532 2025.3,90.1703 2027.55,89.2362 2029.79,89.0839 2032.03,89.7442 2034.28,91.2447 2036.52,93.6108 2038.76,96.8649 2041,101.027 2043.25,106.114 2045.49,112.14 2047.73,119.118 2049.97,127.056 2052.22,135.961 2054.46,145.836 2056.7,156.684 2058.95,168.501 2061.19,181.285 2063.43,195.027 2065.67,209.719 2067.92,225.359 2070.16,241.918 2072.4,259.337 2074.65,277.556 2076.89,296.516 2079.13,316.156 2081.37,336.417 2083.62,357.238 2085.86,378.559 2088.1,400.319 2090.35,422.458 2092.59,444.914 2094.83,467.627 2097.07,490.535 2099.32,513.577 2101.56,536.692 2103.8,559.817 2106.05,582.89 2108.29,605.851 2110.53,628.636 2112.77,651.182 2115.02,673.429 2117.26,695.312 2119.5,716.792 2121.75,737.853 2123.99,758.47 2126.23,778.619 2128.47,798.279 2130.72,817.433 2132.96,836.064 2135.2,854.158 2137.45,871.705 2139.69,888.696 2141.93,905.125 2144.17,920.989 2146.42,936.286 2148.66,951.019 2150.9,965.19 2153.14,978.807 2155.39,991.878 2157.63,1004.42 2159.87,1016.43 2162.12,1027.94 2164.36,1038.97 2166.6,1049.53 2168.84,1059.66 2171.09,1069.37 2173.33,1078.69 2175.57,1087.64 2177.82,1096.19 2180.06,1104.36 2182.3,1112.17 2184.54,1119.63 2186.79,1126.76 2189.03,1133.56 2191.27,1140.06 2193.52,1146.26 2195.76,1152.18 2198,1157.82 2200.24,1163.2 2202.49,1168.34 2204.73,1173.23 2206.97,1177.89 2209.22,1182.33 2211.46,1186.56 2213.7,1190.58 2215.94,1194.41 2218.19,1198.05 2220.43,1201.51 2222.67,1204.79 2224.92,1207.91 2227.16,1210.86 2229.4,1213.66 2231.64,1216.31 2233.89,1218.82 2236.13,1221.2 2238.37,1223.45 2240.61,1225.57 2242.86,1227.57 2245.1,1229.45 2247.34,1231.22 2249.59,1232.88 2251.83,1234.44 2254.07,1235.9 2256.31,1237.26 2258.56,1238.52 2260.8,1239.7 2263.04,1240.78 2265.29,1241.78 2267.53,1242.7 2269.77,1243.54 2272.01,1244.31 2274.26,1245 2276.5,1245.61 2278.74,1246.15 2280.99,1246.63 2283.23,1247.04 2285.47,1247.38 2287.71,1247.66 2289.96,1247.87 2292.2,1248.02 2294.44,1248.11 2296.69,1248.15 2298.93,1248.13 2301.17,1248.05 2303.41,1247.91 2305.66,1247.72 2307.9,1247.48 2310.14,1247.18 2312.39,1246.84 2314.63,1246.44 2316.87,1245.99 2319.11,1245.5 2321.36,1244.95 2323.6,1244.35 2325.84,1243.71 2328.08,1243.02 2330.33,1242.29 2332.57,1241.51 2334.81,1240.68 2337.06,1239.81 2339.3,1238.89 2341.54,1237.93 2343.78,1236.93 2346.03,1235.88 2348.27,1234.79 2350.51,1233.65 2352.76,1232.48 "/>
<polyline clip-path="url(#clip392)" style="stroke:#e26f46; stroke-linecap:round; stroke-linejoin:round; stroke-width:4; stroke-opacity:1; fill:none" points="112.177,1239.07 114.42,1242.94 116.663,1246.72 118.906,1250.41 121.148,1254.03 123.391,1257.56 125.634,1261.01 127.877,1264.38 130.12,1267.68 132.363,1270.9 134.605,1274.05 136.848,1277.13 139.091,1280.13 141.334,1283.07 143.577,1285.94 145.819,1288.74 148.062,1291.48 150.305,1294.16 152.548,1296.77 154.791,1299.32 157.034,1301.81 159.276,1304.25 161.519,1306.63 163.762,1308.95 166.005,1311.21 168.248,1313.43 170.491,1315.59 172.733,1317.7 174.976,1319.76 177.219,1321.77 179.462,1323.73 181.705,1325.65 183.947,1327.52 186.19,1329.34 188.433,1331.13 190.676,1332.86 192.919,1334.56 195.162,1336.21 197.404,1337.83 199.647,1339.4 201.89,1340.94 204.133,1342.44 206.376,1343.9 208.619,1345.33 210.861,1346.72 213.104,1348.07 215.347,1349.39 217.59,1350.68 219.833,1351.94 222.075,1353.16 224.318,1354.35 226.561,1355.51 228.804,1356.64 231.047,1357.74 233.29,1358.82 235.532,1359.86 237.775,1360.88 240.018,1361.87 242.261,1362.83 244.504,1363.77 246.746,1364.68 248.989,1365.56 251.232,1366.42 253.475,1367.26 255.718,1368.07 257.961,1368.86 260.203,1369.63 262.446,1370.37 264.689,1371.09 266.932,1371.79 269.175,1372.47 271.418,1373.12 273.66,1373.76 275.903,1374.37 278.146,1374.97 280.389,1375.54 282.632,1376.09 284.874,1376.63 287.117,1377.14 289.36,1377.64 291.603,1378.12 293.846,1378.57 296.089,1379.01 298.331,1379.43 300.574,1379.84 302.817,1380.22 305.06,1380.59 307.303,1380.94 309.545,1381.27 311.788,1381.58 314.031,1381.88 316.274,1382.16 318.517,1382.42 320.76,1382.67 323.002,1382.89 325.245,1383.1 327.488,1383.29 329.731,1383.47 331.974,1383.62 334.217,1383.76 336.459,1383.88 338.702,1383.99 340.945,1384.07 343.188,1384.14 345.431,1384.19 347.673,1384.22 349.916,1384.24 352.159,1384.23 354.402,1384.21 356.645,1384.17 358.888,1384.11 361.13,1384.02 363.373,1383.92 365.616,1383.8 367.859,1383.66 370.102,1383.49 372.344,1383.3 374.587,1383.1 376.83,1382.86 379.073,1382.61 381.316,1382.33 383.559,1382.03 385.801,1381.7 388.044,1381.34 390.287,1380.96 392.53,1380.55 394.773,1380.11 397.016,1379.64 399.258,1379.14 401.501,1378.61 403.744,1378.05 405.987,1377.44 408.23,1376.81 410.472,1376.14 412.715,1375.43 414.958,1374.69 417.201,1373.9 419.444,1373.08 421.687,1372.21 423.929,1371.3 426.172,1370.34 428.415,1369.34 430.658,1368.28 432.901,1367.17 435.143,1366.01 437.386,1364.79 439.629,1363.51 441.872,1362.16 444.115,1360.75 446.358,1359.27 448.6,1357.71 450.843,1356.08 453.086,1354.36 455.329,1352.56 457.572,1350.67 459.815,1348.69 462.057,1346.61 464.3,1344.42 466.543,1342.13 468.786,1339.73 471.029,1337.2 473.271,1334.56 475.514,1331.79 477.757,1328.89 480,1325.87 482.243,1322.71 484.486,1319.39 486.728,1315.91 488.971,1312.26 491.214,1308.41 493.457,1304.37 495.7,1300.11 497.942,1295.64 500.185,1290.92 502.428,1285.96 504.671,1280.75 506.914,1275.27 509.157,1269.51 511.399,1263.46 513.642,1257.12 515.885,1250.46 518.128,1243.49 520.371,1236.18 522.614,1228.54 524.856,1220.55 527.099,1212.2 529.342,1203.48 531.585,1194.38 533.828,1184.9 536.07,1175.02 538.313,1164.74 540.556,1154.04 542.799,1142.92 545.042,1131.37 547.285,1119.38 549.527,1106.94 551.77,1094.05 554.013,1080.69 556.256,1066.87 558.499,1052.55 560.741,1037.72 562.984,1022.41 565.227,1006.66 567.47,990.506 569.713,973.998 571.956,957.179 574.198,940.092 576.441,922.783 578.684,905.298 580.927,887.684 583.17,869.988 585.413,852.258 587.655,834.543 589.898,816.892 592.141,799.356 594.384,781.986 596.627,764.833 598.869,747.949 601.112,731.389 603.355,715.204 605.598,699.45 607.841,684.183 610.084,669.457 612.326,655.33 614.569,641.859 616.812,629.102 619.055,617.118 621.298,605.945 623.54,595.589 625.783,586.074 628.026,577.421 630.269,569.65 632.512,562.772 634.755,556.799 636.997,551.736 639.24,547.585 641.483,544.344 643.726,542.005 645.969,540.56 648.212,539.994 650.454,540.289 652.697,541.421 654.94,543.366 657.183,546.093 659.426,549.568 661.668,553.752 663.911,558.603 666.154,564.075 668.397,570.117 670.64,576.676 672.883,583.693 675.125,591.105 677.368,598.904 679.611,607.099 681.854,615.66 684.097,624.553 686.339,633.748 688.582,643.216 690.825,652.929 693.068,662.859 695.311,672.981 697.554,683.27 699.796,693.702 702.039,704.255 704.282,714.907 706.525,725.639 708.768,736.431 711.011,747.265 713.253,758.126 715.496,768.997 717.739,779.864 719.982,790.715 722.225,801.536 724.467,812.318 726.71,823.05 728.953,833.722 731.196,844.318 733.439,854.832 735.682,865.256 737.924,875.585 740.167,885.814 742.41,895.938 744.653,905.952 746.896,915.852 749.138,925.633 751.381,935.291 753.624,944.825 755.867,954.229 758.11,963.502 760.353,972.641 762.595,981.643 764.838,990.508 767.081,999.233 769.324,1007.82 771.567,1016.26 773.81,1024.56 776.052,1032.72 778.295,1040.73 780.538,1048.61 782.781,1056.34 785.024,1063.94 787.266,1071.39 789.509,1078.71 791.752,1085.89 793.995,1092.94 796.238,1099.86 798.481,1106.64 800.723,1113.29 802.966,1119.81 805.209,1126.2 807.452,1132.46 809.695,1138.6 811.938,1144.61 814.18,1150.5 816.423,1156.27 818.666,1161.92 820.909,1167.46 823.152,1172.88 825.394,1178.18 827.637,1183.38 829.88,1188.46 832.123,1193.43 834.366,1198.3 836.609,1203.06 838.851,1207.72 841.094,1212.28 843.337,1216.73 845.58,1221.09 847.823,1225.36 850.065,1229.53 852.308,1233.6 854.551,1237.59 856.794,1241.49 859.037,1245.3 861.28,1249.03 863.522,1252.67 865.765,1256.23 868.008,1259.71 870.251,1263.11 872.494,1266.44 874.737,1269.69 876.979,1272.86 879.222,1275.96 881.465,1279 883.708,1281.96 885.951,1284.85 888.193,1287.68 890.436,1290.44 892.679,1293.14 894.922,1295.78 897.165,1298.35 899.408,1300.87 901.65,1303.32 903.893,1305.72 906.136,1308.06 908.379,1310.35 910.622,1312.58 912.864,1314.77 915.107,1316.9 917.35,1318.98 919.593,1321.01 921.836,1322.99 924.079,1324.92 926.321,1326.81 928.564,1328.65 930.807,1330.45 933.05,1332.21 935.293,1333.92 937.536,1335.59 939.778,1337.22 942.021,1338.81 944.264,1340.36 946.507,1341.87 948.75,1343.34 950.992,1344.78 953.235,1346.18 955.478,1347.55 957.721,1348.88 959.964,1350.18 962.207,1351.45 964.449,1352.68 966.692,1353.88 968.935,1355.05 971.178,1356.2 973.421,1357.31 975.663,1358.39 977.906,1359.44 980.149,1360.47 982.392,1361.47 984.635,1362.44 986.878,1363.39 989.12,1364.31 991.363,1365.2 993.606,1366.07 995.849,1366.92 998.092,1367.74 1000.33,1368.54 1002.58,1369.31 1004.82,1370.06 1007.06,1370.79 1009.31,1371.5 1011.55,1372.19 1013.79,1372.85 1016.03,1373.5 1018.28,1374.12 1020.52,1374.72 1022.76,1375.3 1025.01,1375.87 1027.25,1376.41 1029.49,1376.93 1031.73,1377.43 1033.98,1377.91 1036.22,1378.38 1038.46,1378.82 1040.71,1379.25 1042.95,1379.66 1045.19,1380.05 1047.43,1380.42 1049.68,1380.78 1051.92,1381.12 1054.16,1381.44 1056.41,1381.74 1058.65,1382.02 1060.89,1382.29 1063.13,1382.54 1065.38,1382.77 1067.62,1382.99 1069.86,1383.19 1072.1,1383.37 1074.35,1383.53 1076.59,1383.68 1078.83,1383.81 1081.08,1383.92 1083.32,1384.01 1085.56,1384.09 1087.8,1384.14 1090.05,1384.18 1092.29,1384.2 1094.53,1384.21 1096.78,1384.19 1099.02,1384.15 1101.26,1384.1 1103.5,1384.02 1105.75,1383.92 1107.99,1383.81 1110.23,1383.67 1112.48,1383.51 1114.72,1383.33 1116.96,1383.13 1119.2,1382.9 1121.45,1382.64 1123.69,1382.35 1125.93,1382.03 1128.18,1381.69 1130.42,1381.33 1132.66,1380.94 1134.9,1380.52 1137.15,1380.07 1139.39,1379.6 1141.63,1379.1 1143.88,1378.57 1146.12,1378.01 1148.36,1377.42 1150.6,1376.8 1152.85,1376.15 1155.09,1375.46 1157.33,1374.74 1159.57,1373.98 1161.82,1373.18 1164.06,1372.34 1166.3,1371.46 1168.55,1370.53 1170.79,1369.56 1173.03,1368.54 1175.27,1367.46 1177.52,1366.33 1179.76,1365.14 1182,1363.89 1184.25,1362.58 1186.49,1361.2 1188.73,1359.75 1190.97,1358.23 1193.22,1356.62 1195.46,1354.94 1197.7,1353.17 1199.95,1351.31 1202.19,1349.36 1204.43,1347.31 1206.67,1345.16 1208.92,1342.9 1211.16,1340.53 1213.4,1338.04 1215.65,1335.43 1217.89,1332.69 1220.13,1329.82 1222.37,1326.82 1224.62,1323.67 1226.86,1320.39 1229.1,1316.96 1231.35,1313.37 1233.59,1309.6 1235.83,1305.64 1238.07,1301.47 1240.32,1297.1 1242.56,1292.49 1244.8,1287.64 1247.04,1282.54 1249.29,1277.17 1251.53,1271.53 1253.77,1265.6 1256.02,1259.37 1258.26,1252.83 1260.5,1245.97 1262.74,1238.78 1264.99,1231.25 1267.23,1223.37 1269.47,1215.13 1271.72,1206.52 1273.96,1197.54 1276.2,1188.17 1278.44,1178.41 1280.69,1168.24 1282.93,1157.67 1285.17,1146.68 1287.42,1135.26 1289.66,1123.42 1291.9,1111.14 1294.14,1098.41 1296.39,1085.23 1298.63,1071.6 1300.87,1057.5 1303.12,1042.94 1305.36,1027.87 1307.6,1012.28 1309.84,996.215 1312.09,979.745 1314.33,962.924 1316.57,945.806 1318.82,928.447 1321.06,910.902 1323.3,893.225 1325.54,875.47 1327.79,857.689 1330.03,839.936 1332.27,822.262 1334.51,804.718 1336.76,787.356 1339,770.226 1341.24,753.377 1343.49,736.859 1345.73,720.72 1347.97,705.008 1350.21,689.77 1352.46,675.054 1354.7,660.906 1356.94,647.371 1359.19,634.496 1361.43,622.323 1363.67,610.898 1365.91,600.264 1368.16,590.463 1370.4,581.54 1372.64,573.531 1374.89,566.437 1377.13,560.249 1379.37,554.962 1381.61,550.571 1383.86,547.065 1386.1,544.434 1388.34,542.666 1390.59,541.745 1392.83,541.655 1395.07,542.376 1397.31,543.887 1399.56,546.166 1401.8,549.186 1404.04,552.921 1406.29,557.34 1408.53,562.414 1410.77,568.108 1413.01,574.387 1415.26,581.213 1417.5,588.547 1419.74,596.347 1421.98,604.569 1424.23,613.167 1426.47,622.093 1428.71,631.299 1430.96,640.73 1433.2,650.336 1435.44,660.131 1437.68,670.123 1439.93,680.288 1442.17,690.604 1444.41,701.05 1446.66,711.606 1448.9,722.251 1451.14,732.967 1453.38,743.736 1455.63,754.542 1457.87,765.367 1460.11,776.198 1462.36,787.019 1464.6,797.818 1466.84,808.582 1469.08,819.299 1471.33,829.958 1473.57,840.551 1475.81,851.067 1478.06,861.498 1480.3,871.838 1482.54,882.081 1484.78,892.22 1487.03,902.251 1489.27,912.171 1491.51,921.977 1493.76,931.665 1496,941.225 1498.24,950.655 1500.48,959.953 1502.73,969.119 1504.97,978.15 1507.21,987.046 1509.46,995.805 1511.7,1004.43 1513.94,1012.91 1516.18,1021.26 1518.43,1029.46 1520.67,1037.53 1522.91,1045.45 1525.15,1053.24 1527.4,1060.89 1529.64,1068.4 1531.88,1075.77 1534.13,1083 1536.37,1090.1 1538.61,1097.06 1540.85,1103.89 1543.1,1110.58 1545.34,1117.14 1547.58,1123.57 1549.83,1129.87 1552.07,1136.05 1554.31,1142.1 1556.55,1148.03 1558.8,1153.84 1561.04,1159.53 1563.28,1165.11 1565.53,1170.56 1567.77,1175.91 1570.01,1181.14 1572.25,1186.26 1574.5,1191.27 1576.74,1196.17 1578.98,1200.97 1581.23,1205.67 1583.47,1210.26 1585.71,1214.76 1587.95,1219.16 1590.2,1223.46 1592.44,1227.66 1594.68,1231.78 1596.93,1235.8 1599.17,1239.74 1601.41,1243.58 1603.65,1247.34 1605.9,1251.02 1608.14,1254.61 1610.38,1258.12 1612.62,1261.56 1614.87,1264.91 1617.11,1268.19 1619.35,1271.39 1621.6,1274.52 1623.84,1277.58 1626.08,1280.57 1628.32,1283.49 1630.57,1286.34 1632.81,1289.13 1635.05,1291.85 1637.3,1294.51 1639.54,1297.11 1641.78,1299.65 1644.02,1302.12 1646.27,1304.54 1648.51,1306.91 1650.75,1309.21 1653,1311.47 1655.24,1313.67 1657.48,1315.82 1659.72,1317.91 1661.97,1319.96 1664.21,1321.96 1666.45,1323.91 1668.7,1325.82 1670.94,1327.68 1673.18,1329.49 1675.42,1331.26 1677.67,1332.99 1679.91,1334.68 1682.15,1336.32 1684.4,1337.93 1686.64,1339.5 1688.88,1341.03 1691.12,1342.52 1693.37,1343.97 1695.61,1345.39 1697.85,1346.78 1700.09,1348.13 1702.34,1349.44 1704.58,1350.72 1706.82,1351.97 1709.07,1353.19 1711.31,1354.38 1713.55,1355.53 1715.79,1356.66 1718.04,1357.75 1720.28,1358.82 1722.52,1359.85 1724.77,1360.86 1727.01,1361.85 1729.25,1362.8 1731.49,1363.73 1733.74,1364.64 1735.98,1365.52 1738.22,1366.37 1740.47,1367.2 1742.71,1368 1744.95,1368.79 1747.19,1369.55 1749.44,1370.28 1751.68,1371 1753.92,1371.69 1756.17,1372.36 1758.41,1373.01 1760.65,1373.64 1762.89,1374.25 1765.14,1374.84 1767.38,1375.4 1769.62,1375.95 1771.87,1376.48 1774.11,1376.99 1776.35,1377.48 1778.59,1377.95 1780.84,1378.41 1783.08,1378.84 1785.32,1379.26 1787.56,1379.66 1789.81,1380.04 1792.05,1380.4 1794.29,1380.74 1796.54,1381.07 1798.78,1381.38 1801.02,1381.67 1803.26,1381.94 1805.51,1382.2 1807.75,1382.44 1809.99,1382.66 1812.24,1382.86 1814.48,1383.05 1816.72,1383.22 1818.96,1383.36 1821.21,1383.5 1823.45,1383.61 1825.69,1383.7 1827.94,1383.78 1830.18,1383.84 1832.42,1383.88 1834.66,1383.91 1836.91,1383.91 1839.15,1383.9 1841.39,1383.87 1843.64,1383.82 1845.88,1383.74 1848.12,1383.65 1850.36,1383.54 1852.61,1383.41 1854.85,1383.26 1857.09,1383.09 1859.34,1382.89 1861.58,1382.68 1863.82,1382.44 1866.06,1382.17 1868.31,1381.88 1870.55,1381.57 1872.79,1381.23 1875.03,1380.86 1877.28,1380.47 1879.52,1380.05 1881.76,1379.6 1884.01,1379.11 1886.25,1378.6 1888.49,1378.06 1890.73,1377.48 1892.98,1376.87 1895.22,1376.22 1897.46,1375.54 1899.71,1374.82 1901.95,1374.05 1904.19,1373.24 1906.43,1372.37 1908.68,1371.46 1910.92,1370.49 1913.16,1369.48 1915.41,1368.42 1917.65,1367.3 1919.89,1366.13 1922.13,1364.9 1924.38,1363.62 1926.62,1362.28 1928.86,1360.88 1931.11,1359.41 1933.35,1357.88 1935.59,1356.27 1937.83,1354.59 1940.08,1352.83 1942.32,1350.99 1944.56,1349.07 1946.81,1347.05 1949.05,1344.93 1951.29,1342.71 1953.53,1340.38 1955.78,1337.94 1958.02,1335.38 1960.26,1332.69 1962.5,1329.87 1964.75,1326.91 1966.99,1323.8 1969.23,1320.54 1971.48,1317.11 1973.72,1313.51 1975.96,1309.73 1978.2,1305.76 1980.45,1301.59 1982.69,1297.22 1984.93,1292.63 1987.18,1287.81 1989.42,1282.75 1991.66,1277.45 1993.9,1271.89 1996.15,1266.05 1998.39,1259.94 2000.63,1253.54 2002.88,1246.83 2005.12,1239.8 2007.36,1232.44 2009.6,1224.74 2011.85,1216.69 2014.09,1208.27 2016.33,1199.47 2018.58,1190.29 2020.82,1180.7 2023.06,1170.69 2025.3,1160.24 2027.55,1149.35 2029.79,1138.02 2032.03,1126.23 2034.28,1113.98 2036.52,1101.29 2038.76,1088.14 2041,1074.54 2043.25,1060.51 2045.49,1046.06 2047.73,1031.19 2049.97,1015.92 2052.22,1000.27 2054.46,984.269 2056.7,967.93 2058.95,951.281 2061.19,934.351 2063.43,917.169 2065.67,899.77 2067.92,882.182 2070.16,864.455 2072.4,846.661 2074.65,828.87 2076.89,811.151 2079.13,793.569 2081.37,776.188 2083.62,759.068 2085.86,742.27 2088.1,725.851 2090.35,709.865 2092.59,694.366 2094.83,679.404 2097.07,665.029 2099.32,651.285 2101.56,638.219 2103.8,625.872 2106.05,614.285 2108.29,603.495 2110.53,593.538 2112.77,584.448 2115.02,576.257 2117.26,568.994 2119.5,562.668 2121.75,557.261 2123.99,552.762 2126.23,549.157 2128.47,546.431 2130.72,544.569 2132.96,543.552 2135.2,543.36 2137.45,543.973 2139.69,545.368 2141.93,547.519 2144.17,550.402 2146.42,553.988 2148.66,558.248 2150.9,563.152 2153.14,568.666 2155.39,574.756 2157.63,581.388 2159.87,588.522 2162.12,596.122 2164.36,604.145 2166.6,612.549 2168.84,621.291 2171.09,630.326 2173.33,639.606 2175.57,649.111 2177.82,658.846 2180.06,668.787 2182.3,678.908 2184.54,689.188 2186.79,699.602 2189.03,710.13 2191.27,720.752 2193.52,731.448 2195.76,742.199 2198,752.988 2200.24,763.799 2202.49,774.617 2204.73,785.426 2206.97,796.214 2209.22,806.968 2211.46,817.676 2213.7,828.328 2215.94,838.915 2218.19,849.427 2220.43,859.859 2222.67,870.202 2224.92,880.452 2227.16,890.604 2229.4,900.648 2231.64,910.578 2233.89,920.391 2236.13,930.082 2238.37,939.65 2240.61,949.091 2242.86,958.403 2245.1,967.585 2247.34,976.633 2249.59,985.547 2251.83,994.325 2254.07,1002.96 2256.31,1011.47 2258.56,1019.83 2260.8,1028.05 2263.04,1036.13 2265.29,1044.07 2267.53,1051.88 2269.77,1059.54 2272.01,1067.06 2274.26,1074.44 2276.5,1081.69 2278.74,1088.8 2280.99,1095.77 2283.23,1102.61 2285.47,1109.32 2287.71,1115.9 2289.96,1122.35 2292.2,1128.68 2294.44,1134.87 2296.69,1140.95 2298.93,1146.9 2301.17,1152.72 2303.41,1158.43 2305.66,1164.03 2307.9,1169.5 2310.14,1174.86 2312.39,1180.11 2314.63,1185.25 2316.87,1190.28 2319.11,1195.2 2321.36,1200.02 2323.6,1204.73 2325.84,1209.34 2328.08,1213.85 2330.33,1218.26 2332.57,1222.58 2334.81,1226.8 2337.06,1230.93 2339.3,1234.96 2341.54,1238.91 2343.78,1242.77 2346.03,1246.54 2348.27,1250.23 2350.51,1253.84 2352.76,1257.36 "/>
<polyline clip-path="url(#clip392)" style="stroke:#3da44d; stroke-linecap:round; stroke-linejoin:round; stroke-width:4; stroke-opacity:1; fill:none" points="112.177,1239.07 114.42,1238.07 116.663,1237.03 118.906,1235.94 121.148,1234.81 123.391,1233.63 125.634,1232.42 127.877,1231.16 130.12,1229.85 132.363,1228.51 134.605,1227.12 136.848,1225.69 139.091,1224.21 141.334,1222.7 143.577,1221.14 145.819,1219.53 148.062,1217.89 150.305,1216.2 152.548,1214.47 154.791,1212.7 157.034,1210.88 159.276,1209.02 161.519,1207.12 163.762,1205.17 166.005,1203.18 168.248,1201.15 170.491,1199.07 172.733,1196.94 174.976,1194.77 177.219,1192.56 179.462,1190.3 181.705,1188 183.947,1185.65 186.19,1183.25 188.433,1180.81 190.676,1178.32 192.919,1175.78 195.162,1173.19 197.404,1170.56 199.647,1167.88 201.89,1165.15 204.133,1162.37 206.376,1159.54 208.619,1156.66 210.861,1153.74 213.104,1150.76 215.347,1147.73 217.59,1144.64 219.833,1141.51 222.075,1138.32 224.318,1135.08 226.561,1131.79 228.804,1128.44 231.047,1125.03 233.29,1121.57 235.532,1118.06 237.775,1114.49 240.018,1110.86 242.261,1107.18 244.504,1103.43 246.746,1099.63 248.989,1095.77 251.232,1091.85 253.475,1087.87 255.718,1083.82 257.961,1079.72 260.203,1075.55 262.446,1071.32 264.689,1067.03 266.932,1062.67 269.175,1058.25 271.418,1053.76 273.66,1049.21 275.903,1044.58 278.146,1039.9 280.389,1035.14 282.632,1030.31 284.874,1025.41 287.117,1020.45 289.36,1015.41 291.603,1010.3 293.846,1005.12 296.089,999.862 298.331,994.532 300.574,989.127 302.817,983.647 305.06,978.091 307.303,972.458 309.545,966.747 311.788,960.958 314.031,955.089 316.274,949.141 318.517,943.112 320.76,937.002 323.002,930.81 325.245,924.535 327.488,918.177 329.731,911.735 331.974,905.209 334.217,898.597 336.459,891.898 338.702,885.113 340.945,878.24 343.188,871.278 345.431,864.227 347.673,857.086 349.916,849.855 352.159,842.533 354.402,835.12 356.645,827.614 358.888,820.016 361.13,812.325 363.373,804.541 365.616,796.663 367.859,788.692 370.102,780.626 372.344,772.465 374.587,764.21 376.83,755.86 379.073,747.415 381.316,738.874 383.559,730.238 385.801,721.507 388.044,712.68 390.287,703.758 392.53,694.74 394.773,685.627 397.016,676.42 399.258,667.122 401.501,657.733 403.744,648.254 405.987,638.684 408.23,629.022 410.472,619.269 412.715,609.425 414.958,599.491 417.201,589.468 419.444,579.357 421.687,569.16 423.929,558.879 426.172,548.516 428.415,538.074 430.658,527.555 432.901,516.963 435.143,506.3 437.386,495.572 439.629,484.78 441.872,473.931 444.115,463.028 446.358,452.076 448.6,441.081 450.843,430.047 453.086,418.981 455.329,407.889 457.572,396.776 459.815,385.65 462.057,374.518 464.3,363.386 466.543,352.263 468.786,341.155 471.029,330.071 473.271,319.02 475.514,308.009 477.757,297.034 480,286.107 482.243,275.244 484.486,264.465 486.728,253.789 488.971,243.235 491.214,232.824 493.457,222.576 495.7,212.512 497.942,202.654 500.185,193.024 502.428,183.644 504.671,174.538 506.914,165.728 509.157,157.239 511.399,149.095 513.642,141.322 515.885,133.944 518.128,126.988 520.371,120.479 522.614,114.446 524.856,108.914 527.099,103.913 529.342,99.4699 531.585,95.6141 533.828,92.3748 536.07,89.7818 538.313,87.8654 540.556,86.6562 542.799,86.1857 545.042,86.4854 547.285,87.5876 549.527,89.525 551.77,92.3308 554.013,96.0386 556.256,100.683 558.499,106.3 560.741,112.931 562.984,120.577 565.227,129.236 567.47,138.901 569.713,149.561 571.956,161.202 574.198,173.809 576.441,187.361 578.684,201.834 580.927,217.201 583.17,233.433 585.413,250.495 587.655,268.352 589.898,286.962 592.141,306.282 594.384,326.266 596.627,346.863 598.869,368.02 601.112,389.68 603.355,411.783 605.598,434.265 607.841,457.059 610.084,480.096 612.326,503.302 614.569,526.6 616.812,549.909 619.055,573.148 621.298,596.257 623.54,619.214 625.783,641.963 628.026,664.451 630.269,686.63 632.512,708.453 634.755,729.879 636.997,750.873 639.24,771.399 641.483,791.43 643.726,810.939 645.969,829.906 648.212,848.313 650.454,866.146 652.697,883.397 654.94,900.059 657.183,916.131 659.426,931.615 661.668,946.518 663.911,960.851 666.154,974.626 668.397,987.863 670.64,1000.58 672.883,1012.81 675.125,1024.59 677.368,1035.89 679.611,1046.72 681.854,1057.1 684.097,1067.02 686.339,1076.53 688.582,1085.62 690.825,1094.32 693.068,1102.63 695.311,1110.58 697.554,1118.18 699.796,1125.43 702.039,1132.36 704.282,1138.98 706.525,1145.3 708.768,1151.32 711.011,1157.07 713.253,1162.55 715.496,1167.77 717.739,1172.74 719.982,1177.48 722.225,1181.99 724.467,1186.28 726.71,1190.36 728.953,1194.24 731.196,1197.93 733.439,1201.43 735.682,1204.77 737.924,1207.93 740.167,1210.93 742.41,1213.78 744.653,1216.48 746.896,1219.03 749.138,1221.45 751.381,1223.74 753.624,1225.89 755.867,1227.93 758.11,1229.85 760.353,1231.65 762.595,1233.35 764.838,1234.94 767.081,1236.43 769.324,1237.82 771.567,1239.12 773.81,1240.32 776.052,1241.44 778.295,1242.47 780.538,1243.42 782.781,1244.29 785.024,1245.09 787.266,1245.8 789.509,1246.44 791.752,1247.01 793.995,1247.5 796.238,1247.93 798.481,1248.29 800.723,1248.59 802.966,1248.83 805.209,1249 807.452,1249.11 809.695,1249.16 811.938,1249.16 814.18,1249.1 816.423,1248.98 818.666,1248.81 820.909,1248.58 823.152,1248.31 825.394,1247.98 827.637,1247.59 829.88,1247.16 832.123,1246.68 834.366,1246.15 836.609,1245.58 838.851,1244.95 841.094,1244.28 843.337,1243.56 845.58,1242.8 847.823,1241.99 850.065,1241.14 852.308,1240.24 854.551,1239.3 856.794,1238.31 859.037,1237.28 861.28,1236.21 863.522,1235.09 865.765,1233.93 868.008,1232.73 870.251,1231.48 872.494,1230.19 874.737,1228.86 876.979,1227.49 879.222,1226.07 881.465,1224.61 883.708,1223.11 885.951,1221.56 888.193,1219.97 890.436,1218.34 892.679,1216.67 894.922,1214.95 897.165,1213.19 899.408,1211.39 901.65,1209.54 903.893,1207.65 906.136,1205.71 908.379,1203.74 910.622,1201.71 912.864,1199.65 915.107,1197.54 917.35,1195.38 919.593,1193.18 921.836,1190.93 924.079,1188.64 926.321,1186.3 928.564,1183.92 930.807,1181.49 933.05,1179.01 935.293,1176.49 937.536,1173.92 939.778,1171.3 942.021,1168.64 944.264,1165.92 946.507,1163.16 948.75,1160.34 950.992,1157.48 953.235,1154.57 955.478,1151.6 957.721,1148.59 959.964,1145.52 962.207,1142.4 964.449,1139.23 966.692,1136 968.935,1132.73 971.178,1129.39 973.421,1126.01 975.663,1122.57 977.906,1119.07 980.149,1115.51 982.392,1111.9 984.635,1108.24 986.878,1104.51 989.12,1100.73 991.363,1096.88 993.606,1092.98 995.849,1089.02 998.092,1084.99 1000.33,1080.91 1002.58,1076.76 1004.82,1072.55 1007.06,1068.28 1009.31,1063.94 1011.55,1059.54 1013.79,1055.07 1016.03,1050.54 1018.28,1045.94 1020.52,1041.27 1022.76,1036.53 1025.01,1031.73 1027.25,1026.85 1029.49,1021.91 1031.73,1016.89 1033.98,1011.8 1036.22,1006.65 1038.46,1001.41 1040.71,996.107 1042.95,990.726 1045.19,985.27 1047.43,979.738 1049.68,974.129 1051.92,968.443 1054.16,962.678 1056.41,956.834 1058.65,950.91 1060.89,944.905 1063.13,938.819 1065.38,932.651 1067.62,926.401 1069.86,920.067 1072.1,913.649 1074.35,907.146 1076.59,900.558 1078.83,893.885 1081.08,887.124 1083.32,880.276 1085.56,873.34 1087.8,866.316 1090.05,859.203 1092.29,852 1094.53,844.707 1096.78,837.323 1099.02,829.848 1101.26,822.281 1103.5,814.621 1105.75,806.868 1107.99,799.022 1110.23,791.082 1112.48,783.047 1114.72,774.918 1116.96,766.697 1119.2,758.391 1121.45,749.996 1123.69,741.512 1125.93,732.935 1128.18,724.264 1130.42,715.499 1132.66,706.637 1134.9,697.677 1137.15,688.62 1139.39,679.465 1141.63,670.211 1143.88,660.858 1146.12,651.408 1148.36,641.859 1150.6,632.214 1152.85,622.473 1155.09,612.637 1157.33,602.708 1159.57,592.687 1161.82,582.577 1164.06,572.38 1166.3,562.099 1168.55,551.735 1170.79,541.292 1173.03,530.774 1175.27,520.183 1177.52,509.523 1179.76,498.798 1182,488.013 1184.25,477.171 1186.49,466.278 1188.73,455.339 1190.97,444.357 1193.22,433.34 1195.46,422.292 1197.7,411.219 1199.95,400.127 1202.19,389.024 1204.43,377.914 1206.67,366.806 1208.92,355.706 1211.16,344.621 1213.4,333.56 1215.65,322.529 1217.89,311.538 1220.13,300.593 1222.37,289.705 1224.62,278.877 1226.86,268.111 1229.1,257.427 1231.35,246.847 1233.59,236.392 1235.83,226.086 1238.07,215.952 1240.32,206.012 1242.56,196.291 1244.8,186.811 1247.04,177.598 1249.29,168.675 1251.53,160.068 1253.77,151.802 1256.02,143.902 1258.26,136.394 1260.5,129.305 1262.74,122.66 1264.99,116.487 1267.23,110.813 1269.47,105.665 1271.72,101.071 1273.96,97.0599 1276.2,93.6591 1278.44,90.8978 1280.69,88.8052 1282.93,87.4106 1285.17,86.744 1287.42,86.8354 1289.66,87.7152 1291.9,89.4142 1294.14,91.9636 1296.39,95.3948 1298.63,99.7394 1300.87,105.03 1303.12,111.298 1305.36,118.609 1307.6,126.989 1309.84,136.418 1312.09,146.874 1314.33,158.332 1316.57,170.767 1318.82,184.15 1321.06,198.452 1323.3,213.638 1325.54,229.675 1327.79,246.527 1330.03,264.154 1332.27,282.514 1334.51,301.567 1336.76,321.265 1339,341.562 1341.24,362.408 1343.49,383.753 1345.73,405.542 1347.97,427.719 1350.21,450.228 1352.46,473.007 1354.7,495.995 1356.94,519.128 1359.19,542.34 1361.43,565.562 1363.67,588.724 1365.91,611.753 1368.16,634.575 1370.4,657.112 1372.64,679.295 1374.89,701.119 1377.13,722.56 1379.37,743.584 1381.61,764.164 1383.86,784.275 1386.1,803.892 1388.34,822.996 1390.59,841.57 1392.83,859.597 1395.07,877.067 1397.31,893.969 1399.56,910.299 1401.8,926.05 1404.04,941.224 1406.29,955.821 1408.53,969.846 1410.77,983.306 1413.01,996.212 1415.26,1008.58 1417.5,1020.41 1419.74,1031.74 1421.98,1042.58 1424.23,1052.96 1426.47,1062.91 1428.71,1072.44 1430.96,1081.6 1433.2,1090.42 1435.44,1098.87 1437.68,1106.94 1439.93,1114.66 1442.17,1122.02 1444.41,1129.06 1446.66,1135.77 1448.9,1142.19 1451.14,1148.3 1453.38,1154.14 1455.63,1159.71 1457.87,1165.02 1460.11,1170.09 1462.36,1174.91 1464.6,1179.51 1466.84,1183.9 1469.08,1188.07 1471.33,1192.04 1473.57,1195.82 1475.81,1199.42 1478.06,1202.84 1480.3,1206.08 1482.54,1209.16 1484.78,1212.09 1487.03,1214.85 1489.27,1217.47 1491.51,1219.95 1493.76,1222.28 1496,1224.49 1498.24,1226.57 1500.48,1228.54 1502.73,1230.39 1504.97,1232.13 1507.21,1233.77 1509.46,1235.29 1511.7,1236.72 1513.94,1238.06 1516.18,1239.29 1518.43,1240.44 1520.67,1241.5 1522.91,1242.48 1525.15,1243.37 1527.4,1244.19 1529.64,1244.92 1531.88,1245.59 1534.13,1246.18 1536.37,1246.7 1538.61,1247.15 1540.85,1247.54 1543.1,1247.86 1545.34,1248.11 1547.58,1248.31 1549.83,1248.44 1552.07,1248.52 1554.31,1248.54 1556.55,1248.5 1558.8,1248.4 1561.04,1248.25 1563.28,1248.05 1565.53,1247.79 1567.77,1247.48 1570.01,1247.12 1572.25,1246.71 1574.5,1246.25 1576.74,1245.74 1578.98,1245.18 1581.23,1244.58 1583.47,1243.92 1585.71,1243.22 1587.95,1242.48 1590.2,1241.68 1592.44,1240.85 1594.68,1239.96 1596.93,1239.03 1599.17,1238.06 1601.41,1237.04 1603.65,1235.98 1605.9,1234.88 1608.14,1233.73 1610.38,1232.54 1612.62,1231.3 1614.87,1230.02 1617.11,1228.7 1619.35,1227.34 1621.6,1225.93 1623.84,1224.49 1626.08,1223 1628.32,1221.46 1630.57,1219.89 1632.81,1218.27 1635.05,1216.61 1637.3,1214.9 1639.54,1213.16 1641.78,1211.37 1644.02,1209.53 1646.27,1207.66 1648.51,1205.74 1650.75,1203.77 1653,1201.76 1655.24,1199.71 1657.48,1197.61 1659.72,1195.47 1661.97,1193.28 1664.21,1191.05 1666.45,1188.77 1668.7,1186.45 1670.94,1184.08 1673.18,1181.66 1675.42,1179.2 1677.67,1176.69 1679.91,1174.13 1682.15,1171.53 1684.4,1168.87 1686.64,1166.17 1688.88,1163.42 1691.12,1160.62 1693.37,1157.77 1695.61,1154.87 1697.85,1151.92 1700.09,1148.91 1702.34,1145.86 1704.58,1142.76 1706.82,1139.6 1709.07,1136.39 1711.31,1133.12 1713.55,1129.8 1715.79,1126.43 1718.04,1123 1720.28,1119.52 1722.52,1115.98 1724.77,1112.39 1727.01,1108.73 1729.25,1105.02 1731.49,1101.25 1733.74,1097.43 1735.98,1093.54 1738.22,1089.59 1740.47,1085.58 1742.71,1081.51 1744.95,1077.38 1747.19,1073.19 1749.44,1068.93 1751.68,1064.61 1753.92,1060.22 1756.17,1055.77 1758.41,1051.25 1760.65,1046.67 1762.89,1042.02 1765.14,1037.3 1767.38,1032.51 1769.62,1027.65 1771.87,1022.73 1774.11,1017.73 1776.35,1012.66 1778.59,1007.52 1780.84,1002.31 1783.08,997.02 1785.32,991.659 1787.56,986.223 1789.81,980.712 1792.05,975.124 1794.29,969.459 1796.54,963.717 1798.78,957.895 1801.02,951.994 1803.26,946.013 1805.51,939.951 1807.75,933.808 1809.99,927.582 1812.24,921.272 1814.48,914.88 1816.72,908.405 1818.96,901.845 1821.21,895.2 1823.45,888.469 1825.69,881.65 1827.94,874.744 1830.18,867.749 1832.42,860.664 1834.66,853.489 1836.91,846.224 1839.15,838.867 1841.39,831.418 1843.64,823.876 1845.88,816.242 1848.12,808.514 1850.36,800.692 1852.61,792.777 1854.85,784.767 1857.09,776.663 1859.34,768.464 1861.58,760.17 1863.82,751.782 1866.06,743.299 1868.31,734.72 1870.55,726.047 1872.79,717.28 1875.03,708.418 1877.28,699.461 1879.52,690.411 1881.76,681.267 1884.01,672.029 1886.25,662.699 1888.49,653.276 1890.73,643.761 1892.98,634.154 1895.22,624.457 1897.46,614.669 1899.71,604.792 1901.95,594.842 1904.19,584.823 1906.43,574.733 1908.68,564.569 1910.92,554.329 1913.16,544.013 1915.41,533.621 1917.65,523.151 1919.89,512.606 1922.13,501.987 1924.38,491.295 1926.62,480.534 1928.86,469.707 1931.11,458.817 1933.35,447.869 1935.59,436.869 1937.83,425.822 1940.08,414.735 1942.32,403.614 1944.56,392.468 1946.81,381.304 1949.05,370.132 1951.29,358.96 1953.53,347.8 1955.78,336.661 1958.02,325.556 1960.26,314.496 1962.5,303.494 1964.75,292.562 1966.99,281.716 1969.23,270.969 1971.48,260.336 1973.72,249.834 1975.96,239.478 1978.2,229.285 1980.45,219.273 1982.69,209.461 1984.93,199.866 1987.18,190.509 1989.42,181.41 1991.66,172.588 1993.9,164.066 1996.15,155.865 1998.39,148.008 2000.63,140.518 2002.88,133.419 2005.12,126.735 2007.36,120.491 2009.6,114.712 2011.85,109.426 2014.09,104.657 2016.33,100.439 2018.58,96.8161 2020.82,93.8329 2023.06,91.5299 2025.3,89.9452 2027.55,89.1142 2029.79,89.0698 2032.03,89.8419 2034.28,91.4581 2036.52,93.9432 2038.76,97.3192 2041,101.606 2043.25,106.819 2045.49,112.975 2047.73,120.083 2049.97,128.152 2052.22,137.189 2054.46,147.198 2056.7,158.179 2058.95,170.13 2061.19,183.046 2063.43,196.921 2065.67,211.746 2067.92,227.519 2070.16,244.203 2072.4,261.739 2074.65,280.066 2076.89,299.125 2079.13,318.857 2081.37,339.201 2083.62,360.097 2085.86,381.485 2088.1,403.304 2090.35,425.494 2092.59,447.993 2094.83,470.74 2097.07,493.674 2099.32,516.735 2101.56,539.859 2103.8,562.985 2106.05,586.051 2108.29,608.996 2110.53,631.756 2112.77,654.269 2115.02,676.472 2117.26,698.303 2119.5,719.73 2121.75,740.735 2123.99,761.292 2126.23,781.378 2128.47,800.973 2130.72,820.058 2132.96,838.618 2135.2,856.64 2137.45,874.113 2139.69,891.029 2141.93,907.382 2144.17,923.169 2146.42,938.389 2148.66,953.045 2150.9,967.14 2153.14,980.681 2155.39,993.678 2157.63,1006.14 2159.87,1018.09 2162.12,1029.53 2164.36,1040.49 2166.6,1051 2168.84,1061.06 2171.09,1070.71 2173.33,1079.99 2175.57,1088.88 2177.82,1097.38 2180.06,1105.5 2182.3,1113.26 2184.54,1120.67 2186.79,1127.76 2189.03,1134.52 2191.27,1140.97 2193.52,1147.13 2195.76,1153.01 2198,1158.62 2200.24,1163.96 2202.49,1169.06 2204.73,1173.92 2206.97,1178.55 2209.22,1182.96 2211.46,1187.16 2213.7,1191.15 2215.94,1194.96 2218.19,1198.57 2220.43,1202 2222.67,1205.26 2224.92,1208.35 2227.16,1211.28 2229.4,1214.06 2231.64,1216.69 2233.89,1219.19 2236.13,1221.55 2238.37,1223.77 2240.61,1225.88 2242.86,1227.86 2245.1,1229.73 2247.34,1231.48 2249.59,1233.13 2251.83,1234.67 2254.07,1236.11 2256.31,1237.46 2258.56,1238.71 2260.8,1239.87 2263.04,1240.95 2265.29,1241.94 2267.53,1242.84 2269.77,1243.67 2272.01,1244.43 2274.26,1245.1 2276.5,1245.71 2278.74,1246.24 2280.99,1246.71 2283.23,1247.11 2285.47,1247.44 2287.71,1247.7 2289.96,1247.91 2292.2,1248.05 2294.44,1248.14 2296.69,1248.16 2298.93,1248.13 2301.17,1248.04 2303.41,1247.9 2305.66,1247.7 2307.9,1247.45 2310.14,1247.15 2312.39,1246.8 2314.63,1246.39 2316.87,1245.94 2319.11,1245.43 2321.36,1244.88 2323.6,1244.28 2325.84,1243.63 2328.08,1242.93 2330.33,1242.19 2332.57,1241.4 2334.81,1240.57 2337.06,1239.69 2339.3,1238.77 2341.54,1237.8 2343.78,1236.79 2346.03,1235.74 2348.27,1234.64 2350.51,1233.5 2352.76,1232.31 "/>
<polyline clip-path="url(#clip392)" style="stroke:#c271d2; stroke-linecap:round; stroke-linejoin:round; stroke-width:4; stroke-opacity:1; fill:none" points="112.177,1239.07 114.42,1242.94 116.663,1246.72 118.906,1250.41 121.148,1254.03 123.391,1257.56 125.634,1261.01 127.877,1264.38 130.12,1267.68 132.363,1270.9 134.605,1274.05 136.848,1277.13 139.091,1280.13 141.334,1283.07 143.577,1285.94 145.819,1288.74 148.062,1291.48 150.305,1294.16 152.548,1296.77 154.791,1299.32 157.034,1301.81 159.276,1304.25 161.519,1306.62 163.762,1308.95 166.005,1311.21 168.248,1313.43 170.491,1315.59 172.733,1317.7 174.976,1319.76 177.219,1321.77 179.462,1323.73 181.705,1325.65 183.947,1327.52 186.19,1329.34 188.433,1331.12 190.676,1332.86 192.919,1334.56 195.162,1336.21 197.404,1337.83 199.647,1339.4 201.89,1340.94 204.133,1342.44 206.376,1343.9 208.619,1345.32 210.861,1346.71 213.104,1348.07 215.347,1349.39 217.59,1350.68 219.833,1351.93 222.075,1353.15 224.318,1354.35 226.561,1355.51 228.804,1356.64 231.047,1357.74 233.29,1358.81 235.532,1359.86 237.775,1360.87 240.018,1361.86 242.261,1362.82 244.504,1363.76 246.746,1364.67 248.989,1365.56 251.232,1366.42 253.475,1367.25 255.718,1368.07 257.961,1368.85 260.203,1369.62 262.446,1370.36 264.689,1371.08 266.932,1371.78 269.175,1372.46 271.418,1373.12 273.66,1373.75 275.903,1374.36 278.146,1374.96 280.389,1375.53 282.632,1376.08 284.874,1376.62 287.117,1377.13 289.36,1377.63 291.603,1378.1 293.846,1378.56 296.089,1379 298.331,1379.42 300.574,1379.83 302.817,1380.21 305.06,1380.58 307.303,1380.93 309.545,1381.26 311.788,1381.57 314.031,1381.87 316.274,1382.15 318.517,1382.41 320.76,1382.65 323.002,1382.88 325.245,1383.09 327.488,1383.28 329.731,1383.45 331.974,1383.61 334.217,1383.75 336.459,1383.87 338.702,1383.97 340.945,1384.06 343.188,1384.12 345.431,1384.17 347.673,1384.2 349.916,1384.22 352.159,1384.21 354.402,1384.19 356.645,1384.14 358.888,1384.08 361.13,1384 363.373,1383.9 365.616,1383.77 367.859,1383.63 370.102,1383.46 372.344,1383.28 374.587,1383.07 376.83,1382.83 379.073,1382.58 381.316,1382.3 383.559,1381.99 385.801,1381.66 388.044,1381.31 390.287,1380.92 392.53,1380.51 394.773,1380.07 397.016,1379.61 399.258,1379.1 401.501,1378.57 403.744,1378 405.987,1377.4 408.23,1376.76 410.472,1376.09 412.715,1375.38 414.958,1374.63 417.201,1373.85 419.444,1373.02 421.687,1372.15 423.929,1371.24 426.172,1370.28 428.415,1369.27 430.658,1368.22 432.901,1367.11 435.143,1365.94 437.386,1364.72 439.629,1363.43 441.872,1362.08 444.115,1360.67 446.358,1359.18 448.6,1357.62 450.843,1355.98 453.086,1354.27 455.329,1352.46 457.572,1350.57 459.815,1348.58 462.057,1346.49 464.3,1344.3 466.543,1342.01 468.786,1339.6 471.029,1337.07 473.271,1334.42 475.514,1331.64 477.757,1328.74 480,1325.71 482.243,1322.54 484.486,1319.22 486.728,1315.73 488.971,1312.07 491.214,1308.21 493.457,1304.16 495.7,1299.89 497.942,1295.4 500.185,1290.68 502.428,1285.71 504.671,1280.48 506.914,1274.99 509.157,1269.22 511.399,1263.15 513.642,1256.79 515.885,1250.12 518.128,1243.13 520.371,1235.81 522.614,1228.15 524.856,1220.14 527.099,1211.77 529.342,1203.03 531.585,1193.91 533.828,1184.41 536.07,1174.51 538.313,1164.2 540.556,1153.49 542.799,1142.34 545.042,1130.77 547.285,1118.76 549.527,1106.3 551.77,1093.38 554.013,1080 556.256,1066.14 558.499,1051.81 560.741,1036.95 562.984,1021.61 565.227,1005.84 567.47,989.666 569.713,973.139 571.956,956.301 574.198,939.199 576.441,921.876 578.684,904.379 580.927,886.754 583.17,869.05 585.413,851.314 587.655,833.596 589.898,815.944 592.141,798.409 594.384,781.042 596.627,763.895 598.869,747.021 601.112,730.471 603.355,714.301 605.598,698.565 607.841,683.317 610.084,668.615 612.326,654.514 614.569,641.072 616.812,628.346 619.055,616.397 621.298,605.261 623.54,594.943 625.783,585.466 628.026,576.854 630.269,569.124 632.512,562.288 634.755,556.358 636.997,551.338 639.24,547.23 641.483,544.032 643.726,541.737 645.969,540.335 648.212,539.811 650.454,540.147 652.697,541.321 654.94,543.306 657.183,546.071 659.426,549.583 661.668,553.803 663.911,558.688 666.154,564.192 668.397,570.265 670.64,576.851 672.883,583.894 675.125,591.33 677.368,599.151 679.611,607.368 681.854,615.948 684.097,624.86 686.339,634.072 688.582,643.556 690.825,653.283 693.068,663.227 695.311,673.36 697.554,683.659 699.796,694.101 702.039,704.662 704.282,715.322 706.525,726.059 708.768,736.857 711.011,747.696 713.253,758.56 715.496,769.434 717.739,780.304 719.982,791.156 722.225,801.978 724.467,812.76 726.71,823.492 728.953,834.163 731.196,844.758 733.439,855.269 735.682,865.691 737.924,876.017 740.167,886.244 742.41,896.364 744.653,906.375 746.896,916.27 749.138,926.047 751.381,935.702 753.624,945.231 755.867,954.63 758.11,963.898 760.353,973.032 762.595,982.029 764.838,990.889 767.081,999.608 769.324,1008.19 771.567,1016.62 773.81,1024.92 776.052,1033.07 778.295,1041.08 780.538,1048.95 782.781,1056.68 785.024,1064.27 787.266,1071.72 789.509,1079.03 791.752,1086.21 793.995,1093.25 796.238,1100.16 798.481,1106.94 800.723,1113.58 802.966,1120.09 805.209,1126.48 807.452,1132.74 809.695,1138.87 811.938,1144.88 814.18,1150.76 816.423,1156.53 818.666,1162.17 820.909,1167.7 823.152,1173.12 825.394,1178.42 827.637,1183.6 829.88,1188.68 832.123,1193.65 834.366,1198.51 836.609,1203.27 838.851,1207.93 841.094,1212.48 843.337,1216.93 845.58,1221.29 847.823,1225.55 850.065,1229.71 852.308,1233.78 854.551,1237.77 856.794,1241.66 859.037,1245.47 861.28,1249.19 863.522,1252.83 865.765,1256.39 868.008,1259.87 870.251,1263.26 872.494,1266.59 874.737,1269.83 876.979,1273 879.222,1276.1 881.465,1279.13 883.708,1282.09 885.951,1284.98 888.193,1287.8 890.436,1290.56 892.679,1293.26 894.922,1295.89 897.165,1298.46 899.408,1300.98 901.65,1303.43 903.893,1305.83 906.136,1308.17 908.379,1310.45 910.622,1312.68 912.864,1314.86 915.107,1316.99 917.35,1319.07 919.593,1321.09 921.836,1323.07 924.079,1325 926.321,1326.89 928.564,1328.73 930.807,1330.53 933.05,1332.28 935.293,1333.99 937.536,1335.66 939.778,1337.29 942.021,1338.87 944.264,1340.42 946.507,1341.93 948.75,1343.4 950.992,1344.84 953.235,1346.24 955.478,1347.61 957.721,1348.94 959.964,1350.23 962.207,1351.5 964.449,1352.73 966.692,1353.93 968.935,1355.1 971.178,1356.24 973.421,1357.35 975.663,1358.43 977.906,1359.48 980.149,1360.51 982.392,1361.51 984.635,1362.48 986.878,1363.42 989.12,1364.34 991.363,1365.23 993.606,1366.1 995.849,1366.95 998.092,1367.77 1000.33,1368.56 1002.58,1369.34 1004.82,1370.09 1007.06,1370.82 1009.31,1371.52 1011.55,1372.21 1013.79,1372.87 1016.03,1373.52 1018.28,1374.14 1020.52,1374.74 1022.76,1375.32 1025.01,1375.88 1027.25,1376.42 1029.49,1376.94 1031.73,1377.44 1033.98,1377.93 1036.22,1378.39 1038.46,1378.83 1040.71,1379.26 1042.95,1379.67 1045.19,1380.06 1047.43,1380.43 1049.68,1380.78 1051.92,1381.12 1054.16,1381.44 1056.41,1381.74 1058.65,1382.02 1060.89,1382.29 1063.13,1382.54 1065.38,1382.77 1067.62,1382.98 1069.86,1383.18 1072.1,1383.36 1074.35,1383.52 1076.59,1383.67 1078.83,1383.8 1081.08,1383.91 1083.32,1384 1085.56,1384.07 1087.8,1384.13 1090.05,1384.16 1092.29,1384.18 1094.53,1384.18 1096.78,1384.17 1099.02,1384.13 1101.26,1384.07 1103.5,1383.99 1105.75,1383.89 1107.99,1383.78 1110.23,1383.64 1112.48,1383.48 1114.72,1383.3 1116.96,1383.09 1119.2,1382.86 1121.45,1382.59 1123.69,1382.3 1125.93,1381.99 1128.18,1381.65 1130.42,1381.28 1132.66,1380.88 1134.9,1380.46 1137.15,1380.01 1139.39,1379.54 1141.63,1379.03 1143.88,1378.5 1146.12,1377.94 1148.36,1377.35 1150.6,1376.72 1152.85,1376.07 1155.09,1375.38 1157.33,1374.65 1159.57,1373.89 1161.82,1373.09 1164.06,1372.24 1166.3,1371.36 1168.55,1370.43 1170.79,1369.45 1173.03,1368.42 1175.27,1367.34 1177.52,1366.21 1179.76,1365.01 1182,1363.76 1184.25,1362.44 1186.49,1361.06 1188.73,1359.6 1190.97,1358.07 1193.22,1356.46 1195.46,1354.77 1197.7,1352.99 1199.95,1351.12 1202.19,1349.16 1204.43,1347.1 1206.67,1344.94 1208.92,1342.67 1211.16,1340.29 1213.4,1337.79 1215.65,1335.17 1217.89,1332.42 1220.13,1329.54 1222.37,1326.52 1224.62,1323.36 1226.86,1320.06 1229.1,1316.62 1231.35,1313.01 1233.59,1309.22 1235.83,1305.24 1238.07,1301.06 1240.32,1296.66 1242.56,1292.03 1244.8,1287.16 1247.04,1282.04 1249.29,1276.65 1251.53,1270.98 1253.77,1265.02 1256.02,1258.76 1258.26,1252.19 1260.5,1245.3 1262.74,1238.08 1264.99,1230.52 1267.23,1222.61 1269.47,1214.33 1271.72,1205.69 1273.96,1196.67 1276.2,1187.26 1278.44,1177.46 1280.69,1167.26 1282.93,1156.64 1285.17,1145.61 1287.42,1134.15 1289.66,1122.27 1291.9,1109.94 1294.14,1097.17 1296.39,1083.94 1298.63,1070.27 1300.87,1056.13 1303.12,1041.52 1305.36,1026.4 1307.6,1010.75 1309.84,994.653 1312.09,978.147 1314.33,961.294 1316.57,944.149 1318.82,926.769 1321.06,909.206 1323.3,891.516 1325.54,873.752 1327.79,855.968 1330.03,838.215 1332.27,820.545 1334.51,803.011 1336.76,785.662 1339,768.549 1341.24,751.722 1343.49,735.229 1345.73,719.12 1347.97,703.443 1350.21,688.244 1352.46,673.572 1354.7,659.471 1356.94,645.989 1359.19,633.17 1361.43,621.059 1363.67,609.701 1365.91,599.138 1368.16,589.414 1370.4,580.572 1372.64,572.649 1374.89,565.638 1377.13,559.532 1379.37,554.328 1381.61,550.018 1383.86,546.593 1386.1,544.043 1388.34,542.354 1390.59,541.511 1392.83,541.498 1395.07,542.294 1397.31,543.879 1399.56,546.23 1401.8,549.321 1404.04,553.123 1406.29,557.609 1408.53,562.746 1410.77,568.501 1413.01,574.837 1415.26,581.717 1417.5,589.101 1419.74,596.947 1421.98,605.211 1424.23,613.846 1426.47,622.806 1428.71,632.038 1430.96,641.492 1433.2,651.115 1435.44,660.933 1437.68,670.946 1439.93,681.129 1442.17,691.462 1444.41,701.923 1446.66,712.49 1448.9,723.146 1451.14,733.871 1453.38,744.648 1455.63,755.459 1457.87,766.289 1460.11,777.122 1462.36,787.945 1464.6,798.744 1466.84,809.506 1469.08,820.221 1471.33,830.877 1473.57,841.465 1475.81,851.976 1478.06,862.401 1480.3,872.735 1482.54,882.97 1484.78,893.101 1487.03,903.124 1489.27,913.036 1491.51,922.833 1493.76,932.511 1496,942.06 1498.24,951.479 1500.48,960.767 1502.73,969.922 1504.97,978.942 1507.21,987.827 1509.46,996.575 1511.7,1005.18 1513.94,1013.66 1516.18,1021.99 1518.43,1030.18 1520.67,1038.24 1522.91,1046.15 1525.15,1053.93 1527.4,1061.57 1529.64,1069.06 1531.88,1076.42 1534.13,1083.64 1536.37,1090.73 1538.61,1097.68 1540.85,1104.49 1543.1,1111.17 1545.34,1117.72 1547.58,1124.14 1549.83,1130.43 1552.07,1136.6 1554.31,1142.64 1556.55,1148.56 1558.8,1154.36 1561.04,1160.04 1563.28,1165.6 1565.53,1171.05 1567.77,1176.38 1570.01,1181.6 1572.25,1186.71 1574.5,1191.72 1576.74,1196.61 1578.98,1201.4 1581.23,1206.09 1583.47,1210.67 1585.71,1215.16 1587.95,1219.55 1590.2,1223.84 1592.44,1228.04 1594.68,1232.15 1596.93,1236.16 1599.17,1240.09 1601.41,1243.92 1603.65,1247.68 1605.9,1251.34 1608.14,1254.93 1610.38,1258.43 1612.62,1261.86 1614.87,1265.21 1617.11,1268.48 1619.35,1271.68 1621.6,1274.8 1623.84,1277.85 1626.08,1280.84 1628.32,1283.75 1630.57,1286.6 1632.81,1289.38 1635.05,1292.09 1637.3,1294.75 1639.54,1297.34 1641.78,1299.87 1644.02,1302.34 1646.27,1304.76 1648.51,1307.12 1650.75,1309.42 1653,1311.67 1655.24,1313.86 1657.48,1316.01 1659.72,1318.1 1661.97,1320.14 1664.21,1322.14 1666.45,1324.08 1668.7,1325.98 1670.94,1327.84 1673.18,1329.65 1675.42,1331.42 1677.67,1333.14 1679.91,1334.83 1682.15,1336.47 1684.4,1338.07 1686.64,1339.63 1688.88,1341.16 1691.12,1342.65 1693.37,1344.1 1695.61,1345.52 1697.85,1346.9 1700.09,1348.24 1702.34,1349.55 1704.58,1350.83 1706.82,1352.08 1709.07,1353.29 1711.31,1354.48 1713.55,1355.63 1715.79,1356.75 1718.04,1357.84 1720.28,1358.91 1722.52,1359.94 1724.77,1360.95 1727.01,1361.93 1729.25,1362.88 1731.49,1363.81 1733.74,1364.71 1735.98,1365.59 1738.22,1366.44 1740.47,1367.27 1742.71,1368.07 1744.95,1368.85 1747.19,1369.61 1749.44,1370.34 1751.68,1371.05 1753.92,1371.74 1756.17,1372.41 1758.41,1373.06 1760.65,1373.69 1762.89,1374.29 1765.14,1374.88 1767.38,1375.45 1769.62,1375.99 1771.87,1376.52 1774.11,1377.03 1776.35,1377.52 1778.59,1377.99 1780.84,1378.44 1783.08,1378.87 1785.32,1379.28 1787.56,1379.68 1789.81,1380.06 1792.05,1380.42 1794.29,1380.76 1796.54,1381.09 1798.78,1381.39 1801.02,1381.68 1803.26,1381.95 1805.51,1382.21 1807.75,1382.44 1809.99,1382.66 1812.24,1382.86 1814.48,1383.05 1816.72,1383.21 1818.96,1383.36 1821.21,1383.49 1823.45,1383.6 1825.69,1383.69 1827.94,1383.77 1830.18,1383.83 1832.42,1383.87 1834.66,1383.89 1836.91,1383.89 1839.15,1383.87 1841.39,1383.84 1843.64,1383.79 1845.88,1383.71 1848.12,1383.62 1850.36,1383.51 1852.61,1383.38 1854.85,1383.22 1857.09,1383.05 1859.34,1382.85 1861.58,1382.63 1863.82,1382.38 1866.06,1382.12 1868.31,1381.82 1870.55,1381.51 1872.79,1381.16 1875.03,1380.79 1877.28,1380.4 1879.52,1379.97 1881.76,1379.52 1884.01,1379.03 1886.25,1378.51 1888.49,1377.96 1890.73,1377.38 1892.98,1376.77 1895.22,1376.11 1897.46,1375.43 1899.71,1374.7 1901.95,1373.93 1904.19,1373.1 1906.43,1372.23 1908.68,1371.31 1910.92,1370.34 1913.16,1369.32 1915.41,1368.25 1917.65,1367.13 1919.89,1365.95 1922.13,1364.72 1924.38,1363.43 1926.62,1362.08 1928.86,1360.67 1931.11,1359.19 1933.35,1357.65 1935.59,1356.03 1937.83,1354.34 1940.08,1352.57 1942.32,1350.72 1944.56,1348.78 1946.81,1346.75 1949.05,1344.62 1951.29,1342.39 1953.53,1340.04 1955.78,1337.59 1958.02,1335.01 1960.26,1332.3 1962.5,1329.46 1964.75,1326.48 1966.99,1323.35 1969.23,1320.07 1971.48,1316.61 1973.72,1312.99 1975.96,1309.18 1978.2,1305.19 1980.45,1300.99 1982.69,1296.59 1984.93,1291.97 1987.18,1287.12 1989.42,1282.03 1991.66,1276.69 1993.9,1271.09 1996.15,1265.22 1998.39,1259.06 2000.63,1252.62 2002.88,1245.86 2005.12,1238.79 2007.36,1231.39 2009.6,1223.64 2011.85,1215.53 2014.09,1207.06 2016.33,1198.21 2018.58,1188.97 2020.82,1179.32 2023.06,1169.25 2025.3,1158.74 2027.55,1147.79 2029.79,1136.39 2032.03,1124.53 2034.28,1112.22 2036.52,1099.46 2038.76,1086.25 2041,1072.59 2043.25,1058.5 2045.49,1043.98 2047.73,1029.05 2049.97,1013.73 2052.22,998.03 2054.46,981.975 2056.7,965.587 2058.95,948.894 2061.19,931.922 2063.43,914.704 2065.67,897.272 2067.92,879.654 2070.16,861.908 2072.4,844.105 2074.65,826.316 2076.89,808.607 2079.13,791.045 2081.37,773.692 2083.62,756.61 2085.86,739.856 2088.1,723.49 2090.35,707.564 2092.59,692.132 2094.83,677.244 2097.07,662.949 2099.32,649.292 2101.56,636.319 2103.8,624.071 2106.05,612.588 2108.29,601.907 2110.53,592.066 2112.77,583.096 2115.02,575.03 2117.26,567.897 2119.5,561.697 2121.75,556.415 2123.99,552.039 2126.23,548.556 2128.47,545.95 2130.72,544.205 2132.96,543.304 2135.2,543.225 2137.45,543.948 2139.69,545.45 2141.93,547.706 2144.17,550.689 2146.42,554.373 2148.66,558.726 2150.9,563.719 2153.14,569.318 2155.39,575.489 2157.63,582.196 2159.87,589.4 2162.12,597.064 2164.36,605.146 2166.6,613.603 2168.84,622.392 2171.09,631.465 2173.33,640.777 2175.57,650.318 2177.82,660.087 2180.06,670.057 2182.3,680.204 2184.54,690.507 2186.79,700.941 2189.03,711.486 2191.27,722.122 2193.52,732.83 2195.76,743.59 2198,754.386 2200.24,765.202 2202.49,776.022 2204.73,786.831 2206.97,797.618 2209.22,808.368 2211.46,819.072 2213.7,829.718 2215.94,840.297 2218.19,850.801 2220.43,861.223 2222.67,871.556 2224.92,881.795 2227.16,891.934 2229.4,901.965 2231.64,911.881 2233.89,921.678 2236.13,931.355 2238.37,940.907 2240.61,950.332 2242.86,959.628 2245.1,968.793 2247.34,977.825 2249.59,986.721 2251.83,995.481 2254.07,1004.1 2256.31,1012.59 2258.56,1020.93 2260.8,1029.14 2263.04,1037.2 2265.29,1045.12 2267.53,1052.91 2269.77,1060.55 2272.01,1068.05 2274.26,1075.42 2276.5,1082.64 2278.74,1089.74 2280.99,1096.69 2283.23,1103.52 2285.47,1110.21 2287.71,1116.77 2289.96,1123.21 2292.2,1129.51 2294.44,1135.69 2296.69,1141.75 2298.93,1147.68 2301.17,1153.5 2303.41,1159.19 2305.66,1164.77 2307.9,1170.23 2310.14,1175.57 2312.39,1180.81 2314.63,1185.93 2316.87,1190.95 2319.11,1195.85 2321.36,1200.66 2323.6,1205.36 2325.84,1209.95 2328.08,1214.45 2330.33,1218.85 2332.57,1223.15 2334.81,1227.36 2337.06,1231.48 2339.3,1235.5 2341.54,1239.44 2343.78,1243.28 2346.03,1247.04 2348.27,1250.72 2350.51,1254.31 2352.76,1257.83 "/>
<path clip-path="url(#clip390)" d="M186.863 352.309 L500.018 352.309 L500.018 93.1086 L186.863 93.1086  Z" fill="#ffffff" fill-rule="evenodd" fill-opacity="1"/>
<polyline clip-path="url(#clip390)" style="stroke:#000000; stroke-linecap:round; stroke-linejoin:round; stroke-width:4; stroke-opacity:1; fill:none" points="186.863,352.309 500.018,352.309 500.018,93.1086 186.863,93.1086 186.863,352.309 "/>
<polyline clip-path="url(#clip390)" style="stroke:#009af9; stroke-linecap:round; stroke-linejoin:round; stroke-width:4; stroke-opacity:1; fill:none" points="211.758,144.949 361.13,144.949 "/>
<path clip-path="url(#clip390)" d="M386.026 151.997 L386.026 136.303 L390.285 136.303 L390.285 151.835 Q390.285 155.516 391.72 157.368 Q393.155 159.196 396.026 159.196 Q399.475 159.196 401.465 156.997 Q403.479 154.798 403.479 151.002 L403.479 136.303 L407.739 136.303 L407.739 162.229 L403.479 162.229 L403.479 158.247 Q401.928 160.608 399.868 161.766 Q397.831 162.9 395.123 162.9 Q390.655 162.9 388.34 160.122 Q386.026 157.344 386.026 151.997 M396.743 135.678 L396.743 135.678 Z" fill="#000000" fill-rule="nonzero" fill-opacity="1" /><path clip-path="url(#clip390)" d="M416.118 126.21 L425.933 126.21 L425.933 129.52 L420.377 129.52 L420.377 165.168 L425.933 165.168 L425.933 168.479 L416.118 168.479 L416.118 126.21 Z" fill="#000000" fill-rule="nonzero" fill-opacity="1" /><path clip-path="url(#clip390)" d="M436.419 158.293 L444.058 158.293 L444.058 131.928 L435.748 133.595 L435.748 129.335 L444.011 127.669 L448.687 127.669 L448.687 158.293 L456.326 158.293 L456.326 162.229 L436.419 162.229 L436.419 158.293 Z" fill="#000000" fill-rule="nonzero" fill-opacity="1" /><path clip-path="url(#clip390)" d="M475.122 126.21 L475.122 168.479 L465.308 168.479 L465.308 165.168 L470.84 165.168 L470.84 129.52 L465.308 129.52 L465.308 126.21 L475.122 126.21 Z" fill="#000000" fill-rule="nonzero" fill-opacity="1" /><polyline clip-path="url(#clip390)" style="stroke:#e26f46; stroke-linecap:round; stroke-linejoin:round; stroke-width:4; stroke-opacity:1; fill:none" points="211.758,196.789 361.13,196.789 "/>
<path clip-path="url(#clip390)" d="M386.026 203.837 L386.026 188.143 L390.285 188.143 L390.285 203.675 Q390.285 207.356 391.72 209.208 Q393.155 211.036 396.026 211.036 Q399.475 211.036 401.465 208.837 Q403.479 206.638 403.479 202.842 L403.479 188.143 L407.739 188.143 L407.739 214.069 L403.479 214.069 L403.479 210.087 Q401.928 212.448 399.868 213.606 Q397.831 214.74 395.123 214.74 Q390.655 214.74 388.34 211.962 Q386.026 209.184 386.026 203.837 M396.743 187.518 L396.743 187.518 Z" fill="#000000" fill-rule="nonzero" fill-opacity="1" /><path clip-path="url(#clip390)" d="M416.118 178.05 L425.933 178.05 L425.933 181.36 L420.377 181.36 L420.377 217.008 L425.933 217.008 L425.933 220.319 L416.118 220.319 L416.118 178.05 Z" fill="#000000" fill-rule="nonzero" fill-opacity="1" /><path clip-path="url(#clip390)" d="M439.637 210.133 L455.956 210.133 L455.956 214.069 L434.012 214.069 L434.012 210.133 Q436.674 207.379 441.257 202.749 Q445.863 198.096 447.044 196.754 Q449.289 194.231 450.169 192.495 Q451.072 190.735 451.072 189.046 Q451.072 186.291 449.127 184.555 Q447.206 182.819 444.104 182.819 Q441.905 182.819 439.451 183.583 Q437.021 184.347 434.243 185.897 L434.243 181.175 Q437.067 180.041 439.521 179.462 Q441.974 178.884 444.011 178.884 Q449.382 178.884 452.576 181.569 Q455.771 184.254 455.771 188.745 Q455.771 190.874 454.961 192.796 Q454.173 194.694 452.067 197.286 Q451.488 197.958 448.386 201.175 Q445.285 204.37 439.637 210.133 Z" fill="#000000" fill-rule="nonzero" fill-opacity="1" /><path clip-path="url(#clip390)" d="M475.122 178.05 L475.122 220.319 L465.308 220.319 L465.308 217.008 L470.84 217.008 L470.84 181.36 L465.308 181.36 L465.308 178.05 L475.122 178.05 Z" fill="#000000" fill-rule="nonzero" fill-opacity="1" /><polyline clip-path="url(#clip390)" style="stroke:#3da44d; stroke-linecap:round; stroke-linejoin:round; stroke-width:4; stroke-opacity:1; fill:none" points="211.758,248.629 361.13,248.629 "/>
<path clip-path="url(#clip390)" d="M386.026 255.677 L386.026 239.983 L390.285 239.983 L390.285 255.515 Q390.285 259.196 391.72 261.048 Q393.155 262.876 396.026 262.876 Q399.475 262.876 401.465 260.677 Q403.479 258.478 403.479 254.682 L403.479 239.983 L407.739 239.983 L407.739 265.909 L403.479 265.909 L403.479 261.927 Q401.928 264.288 399.868 265.446 Q397.831 266.58 395.123 266.58 Q390.655 266.58 388.34 263.802 Q386.026 261.024 386.026 255.677 M396.743 239.358 L396.743 239.358 Z" fill="#000000" fill-rule="nonzero" fill-opacity="1" /><path clip-path="url(#clip390)" d="M416.118 229.89 L425.933 229.89 L425.933 233.2 L420.377 233.2 L420.377 268.848 L425.933 268.848 L425.933 272.159 L416.118 272.159 L416.118 229.89 Z" fill="#000000" fill-rule="nonzero" fill-opacity="1" /><path clip-path="url(#clip390)" d="M436.419 261.973 L444.058 261.973 L444.058 235.608 L435.748 237.275 L435.748 233.015 L444.011 231.349 L448.687 231.349 L448.687 261.973 L456.326 261.973 L456.326 265.909 L436.419 265.909 L436.419 261.973 Z" fill="#000000" fill-rule="nonzero" fill-opacity="1" /><path clip-path="url(#clip390)" d="M475.122 229.89 L475.122 272.159 L465.308 272.159 L465.308 268.848 L470.84 268.848 L470.84 233.2 L465.308 233.2 L465.308 229.89 L475.122 229.89 Z" fill="#000000" fill-rule="nonzero" fill-opacity="1" /><polyline clip-path="url(#clip390)" style="stroke:#c271d2; stroke-linecap:round; stroke-linejoin:round; stroke-width:4; stroke-opacity:1; fill:none" points="211.758,300.469 361.13,300.469 "/>
<path clip-path="url(#clip390)" d="M386.026 307.517 L386.026 291.823 L390.285 291.823 L390.285 307.355 Q390.285 311.036 391.72 312.888 Q393.155 314.716 396.026 314.716 Q399.475 314.716 401.465 312.517 Q403.479 310.318 403.479 306.522 L403.479 291.823 L407.739 291.823 L407.739 317.749 L403.479 317.749 L403.479 313.767 Q401.928 316.128 399.868 317.286 Q397.831 318.42 395.123 318.42 Q390.655 318.42 388.34 315.642 Q386.026 312.864 386.026 307.517 M396.743 291.198 L396.743 291.198 Z" fill="#000000" fill-rule="nonzero" fill-opacity="1" /><path clip-path="url(#clip390)" d="M416.118 281.73 L425.933 281.73 L425.933 285.04 L420.377 285.04 L420.377 320.688 L425.933 320.688 L425.933 323.999 L416.118 323.999 L416.118 281.73 Z" fill="#000000" fill-rule="nonzero" fill-opacity="1" /><path clip-path="url(#clip390)" d="M439.637 313.813 L455.956 313.813 L455.956 317.749 L434.012 317.749 L434.012 313.813 Q436.674 311.059 441.257 306.429 Q445.863 301.776 447.044 300.434 Q449.289 297.911 450.169 296.175 Q451.072 294.415 451.072 292.726 Q451.072 289.971 449.127 288.235 Q447.206 286.499 444.104 286.499 Q441.905 286.499 439.451 287.263 Q437.021 288.027 434.243 289.577 L434.243 284.855 Q437.067 283.721 439.521 283.142 Q441.974 282.564 444.011 282.564 Q449.382 282.564 452.576 285.249 Q455.771 287.934 455.771 292.425 Q455.771 294.554 454.961 296.476 Q454.173 298.374 452.067 300.966 Q451.488 301.638 448.386 304.855 Q445.285 308.05 439.637 313.813 Z" fill="#000000" fill-rule="nonzero" fill-opacity="1" /><path clip-path="url(#clip390)" d="M475.122 281.73 L475.122 323.999 L465.308 323.999 L465.308 320.688 L470.84 320.688 L470.84 285.04 L465.308 285.04 L465.308 281.73 L475.122 281.73 Z" fill="#000000" fill-rule="nonzero" fill-opacity="1" /></svg>
