<?xml version="1.0" encoding="utf-8"?>
<svg xmlns="http://www.w3.org/2000/svg" xmlns:xlink="http://www.w3.org/1999/xlink" width="600" height="400" viewBox="0 0 2400 1600">
<defs>
  <clipPath id="clip410">
    <rect x="0" y="0" width="2400" height="1600"/>
  </clipPath>
</defs>
<path clip-path="url(#clip410)" d="M0 1600 L2400 1600 L2400 0 L0 0  Z" fill="#ffffff" fill-rule="evenodd" fill-opacity="1"/>
<defs>
  <clipPath id="clip411">
    <rect x="480" y="0" width="1681" height="1600"/>
  </clipPath>
</defs>
<path clip-path="url(#clip410)" d="M112.177 1423.18 L2352.76 1423.18 L2352.76 47.2441 L112.177 47.2441  Z" fill="#ffffff" fill-rule="evenodd" fill-opacity="1"/>
<defs>
  <clipPath id="clip412">
    <rect x="112" y="47" width="2242" height="1377"/>
  </clipPath>
</defs>
<polyline clip-path="url(#clip412)" style="stroke:#000000; stroke-linecap:round; stroke-linejoin:round; stroke-width:2; stroke-opacity:0.1; fill:none" points="112.177,1423.18 112.177,47.2441 "/>
<polyline clip-path="url(#clip412)" style="stroke:#000000; stroke-linecap:round; stroke-linejoin:round; stroke-width:2; stroke-opacity:0.1; fill:none" points="560.293,1423.18 560.293,47.2441 "/>
<polyline clip-path="url(#clip412)" style="stroke:#000000; stroke-linecap:round; stroke-linejoin:round; stroke-width:2; stroke-opacity:0.1; fill:none" points="1008.41,1423.18 1008.41,47.2441 "/>
<polyline clip-path="url(#clip412)" style="stroke:#000000; stroke-linecap:round; stroke-linejoin:round; stroke-width:2; stroke-opacity:0.1; fill:none" points="1456.52,1423.18 1456.52,47.2441 "/>
<polyline clip-path="url(#clip412)" style="stroke:#000000; stroke-linecap:round; stroke-linejoin:round; stroke-width:2; stroke-opacity:0.1; fill:none" points="1904.64,1423.18 1904.64,47.2441 "/>
<polyline clip-path="url(#clip412)" style="stroke:#000000; stroke-linecap:round; stroke-linejoin:round; stroke-width:2; stroke-opacity:0.1; fill:none" points="2352.76,1423.18 2352.76,47.2441 "/>
<polyline clip-path="url(#clip410)" style="stroke:#000000; stroke-linecap:round; stroke-linejoin:round; stroke-width:4; stroke-opacity:1; fill:none" points="112.177,1423.18 2352.76,1423.18 "/>
<polyline clip-path="url(#clip410)" style="stroke:#000000; stroke-linecap:round; stroke-linejoin:round; stroke-width:4; stroke-opacity:1; fill:none" points="112.177,1423.18 112.177,1404.28 "/>
<polyline clip-path="url(#clip410)" style="stroke:#000000; stroke-linecap:round; stroke-linejoin:round; stroke-width:4; stroke-opacity:1; fill:none" points="560.293,1423.18 560.293,1404.28 "/>
<polyline clip-path="url(#clip410)" style="stroke:#000000; stroke-linecap:round; stroke-linejoin:round; stroke-width:4; stroke-opacity:1; fill:none" points="1008.41,1423.18 1008.41,1404.28 "/>
<polyline clip-path="url(#clip410)" style="stroke:#000000; stroke-linecap:round; stroke-linejoin:round; stroke-width:4; stroke-opacity:1; fill:none" points="1456.52,1423.18 1456.52,1404.28 "/>
<polyline clip-path="url(#clip410)" style="stroke:#000000; stroke-linecap:round; stroke-linejoin:round; stroke-width:4; stroke-opacity:1; fill:none" points="1904.64,1423.18 1904.64,1404.28 "/>
<polyline clip-path="url(#clip410)" style="stroke:#000000; stroke-linecap:round; stroke-linejoin:round; stroke-width:4; stroke-opacity:1; fill:none" points="2352.76,1423.18 2352.76,1404.28 "/>
<path clip-path="url(#clip410)" d="M112.177 1454.1 Q108.566 1454.1 106.737 1457.66 Q104.932 1461.2 104.932 1468.33 Q104.932 1475.44 106.737 1479.01 Q108.566 1482.55 112.177 1482.55 Q115.811 1482.55 117.617 1479.01 Q119.446 1475.44 119.446 1468.33 Q119.446 1461.2 117.617 1457.66 Q115.811 1454.1 112.177 1454.1 M112.177 1450.39 Q117.987 1450.39 121.043 1455 Q124.122 1459.58 124.122 1468.33 Q124.122 1477.06 121.043 1481.67 Q117.987 1486.25 112.177 1486.25 Q106.367 1486.25 103.288 1481.67 Q100.233 1477.06 100.233 1468.33 Q100.233 1459.58 103.288 1455 Q106.367 1450.39 112.177 1450.39 Z" fill="#000000" fill-rule="nonzero" fill-opacity="1" /><path clip-path="url(#clip410)" d="M554.946 1481.64 L571.265 1481.64 L571.265 1485.58 L549.321 1485.58 L549.321 1481.64 Q551.983 1478.89 556.566 1474.26 Q561.173 1469.61 562.353 1468.27 Q564.598 1465.74 565.478 1464.01 Q566.381 1462.25 566.381 1460.56 Q566.381 1457.8 564.436 1456.07 Q562.515 1454.33 559.413 1454.33 Q557.214 1454.33 554.761 1455.09 Q552.33 1455.86 549.552 1457.41 L549.552 1452.69 Q552.376 1451.55 554.83 1450.97 Q557.284 1450.39 559.321 1450.39 Q564.691 1450.39 567.885 1453.08 Q571.08 1455.77 571.08 1460.26 Q571.08 1462.39 570.27 1464.31 Q569.483 1466.2 567.376 1468.8 Q566.798 1469.47 563.696 1472.69 Q560.594 1475.88 554.946 1481.64 Z" fill="#000000" fill-rule="nonzero" fill-opacity="1" /><path clip-path="url(#clip410)" d="M1011.42 1455.09 L999.612 1473.54 L1011.42 1473.54 L1011.42 1455.09 M1010.19 1451.02 L1016.07 1451.02 L1016.07 1473.54 L1021 1473.54 L1021 1477.43 L1016.07 1477.43 L1016.07 1485.58 L1011.42 1485.58 L1011.42 1477.43 L995.816 1477.43 L995.816 1472.92 L1010.19 1451.02 Z" fill="#000000" fill-rule="nonzero" fill-opacity="1" /><path clip-path="url(#clip410)" d="M1456.93 1466.44 Q1453.78 1466.44 1451.93 1468.59 Q1450.1 1470.74 1450.1 1474.49 Q1450.1 1478.22 1451.93 1480.39 Q1453.78 1482.55 1456.93 1482.55 Q1460.08 1482.55 1461.91 1480.39 Q1463.76 1478.22 1463.76 1474.49 Q1463.76 1470.74 1461.91 1468.59 Q1460.08 1466.44 1456.93 1466.44 M1466.21 1451.78 L1466.21 1456.04 Q1464.45 1455.21 1462.65 1454.77 Q1460.86 1454.33 1459.11 1454.33 Q1454.48 1454.33 1452.02 1457.45 Q1449.59 1460.58 1449.24 1466.9 Q1450.61 1464.89 1452.67 1463.82 Q1454.73 1462.73 1457.21 1462.73 Q1462.42 1462.73 1465.42 1465.9 Q1468.46 1469.05 1468.46 1474.49 Q1468.46 1479.82 1465.31 1483.03 Q1462.16 1486.25 1456.93 1486.25 Q1450.93 1486.25 1447.76 1481.67 Q1444.59 1477.06 1444.59 1468.33 Q1444.59 1460.14 1448.48 1455.28 Q1452.37 1450.39 1458.92 1450.39 Q1460.68 1450.39 1462.46 1450.74 Q1464.27 1451.09 1466.21 1451.78 Z" fill="#000000" fill-rule="nonzero" fill-opacity="1" /><path clip-path="url(#clip410)" d="M1904.64 1469.17 Q1901.31 1469.17 1899.39 1470.95 Q1897.49 1472.73 1897.49 1475.86 Q1897.49 1478.98 1899.39 1480.77 Q1901.31 1482.55 1904.64 1482.55 Q1907.97 1482.55 1909.89 1480.77 Q1911.82 1478.96 1911.82 1475.86 Q1911.82 1472.73 1909.89 1470.95 Q1908 1469.17 1904.64 1469.17 M1899.96 1467.18 Q1896.96 1466.44 1895.27 1464.38 Q1893.6 1462.32 1893.6 1459.35 Q1893.6 1455.21 1896.54 1452.8 Q1899.5 1450.39 1904.64 1450.39 Q1909.8 1450.39 1912.74 1452.8 Q1915.68 1455.21 1915.68 1459.35 Q1915.68 1462.32 1913.99 1464.38 Q1912.33 1466.44 1909.34 1467.18 Q1912.72 1467.96 1914.59 1470.26 Q1916.49 1472.55 1916.49 1475.86 Q1916.49 1480.88 1913.41 1483.57 Q1910.36 1486.25 1904.64 1486.25 Q1898.92 1486.25 1895.84 1483.57 Q1892.79 1480.88 1892.79 1475.86 Q1892.79 1472.55 1894.69 1470.26 Q1896.58 1467.96 1899.96 1467.18 M1898.25 1459.79 Q1898.25 1462.48 1899.92 1463.98 Q1901.61 1465.49 1904.64 1465.49 Q1907.65 1465.49 1909.34 1463.98 Q1911.05 1462.48 1911.05 1459.79 Q1911.05 1457.11 1909.34 1455.6 Q1907.65 1454.1 1904.64 1454.1 Q1901.61 1454.1 1899.92 1455.6 Q1898.25 1457.11 1898.25 1459.79 Z" fill="#000000" fill-rule="nonzero" fill-opacity="1" /><path clip-path="url(#clip410)" d="M2327.44 1481.64 L2335.08 1481.64 L2335.08 1455.28 L2326.77 1456.95 L2326.77 1452.69 L2335.04 1451.02 L2339.71 1451.02 L2339.71 1481.64 L2347.35 1481.64 L2347.35 1485.58 L2327.44 1485.58 L2327.44 1481.64 Z" fill="#000000" fill-rule="nonzero" fill-opacity="1" /><path clip-path="url(#clip410)" d="M2366.8 1454.1 Q2363.18 1454.1 2361.36 1457.66 Q2359.55 1461.2 2359.55 1468.33 Q2359.55 1475.44 2361.36 1479.01 Q2363.18 1482.55 2366.8 1482.55 Q2370.43 1482.55 2372.23 1479.01 Q2374.06 1475.44 2374.06 1468.33 Q2374.06 1461.2 2372.23 1457.66 Q2370.43 1454.1 2366.8 1454.1 M2366.8 1450.39 Q2372.61 1450.39 2375.66 1455 Q2378.74 1459.58 2378.74 1468.33 Q2378.74 1477.06 2375.66 1481.67 Q2372.61 1486.25 2366.8 1486.25 Q2360.99 1486.25 2357.91 1481.67 Q2354.85 1477.06 2354.85 1468.33 Q2354.85 1459.58 2357.91 1455 Q2360.99 1450.39 2366.8 1450.39 Z" fill="#000000" fill-rule="nonzero" fill-opacity="1" /><path clip-path="url(#clip410)" d="M1231.53 1522.27 L1231.53 1532.4 L1243.59 1532.4 L1243.59 1536.95 L1231.53 1536.95 L1231.53 1556.3 Q1231.53 1560.66 1232.71 1561.9 Q1233.91 1563.14 1237.58 1563.14 L1243.59 1563.14 L1243.59 1568.04 L1237.58 1568.04 Q1230.8 1568.04 1228.22 1565.53 Q1225.64 1562.98 1225.64 1556.3 L1225.64 1536.95 L1221.34 1536.95 L1221.34 1532.4 L1225.64 1532.4 L1225.64 1522.27 L1231.53 1522.27 Z" fill="#000000" fill-rule="nonzero" fill-opacity="1" /><polyline clip-path="url(#clip412)" style="stroke:#000000; stroke-linecap:round; stroke-linejoin:round; stroke-width:2; stroke-opacity:0.1; fill:none" points="112.177,1239.07 2352.76,1239.07 "/>
<polyline clip-path="url(#clip412)" style="stroke:#000000; stroke-linecap:round; stroke-linejoin:round; stroke-width:2; stroke-opacity:0.1; fill:none" points="112.177,1043.73 2352.76,1043.73 "/>
<polyline clip-path="url(#clip412)" style="stroke:#000000; stroke-linecap:round; stroke-linejoin:round; stroke-width:2; stroke-opacity:0.1; fill:none" points="112.177,848.392 2352.76,848.392 "/>
<polyline clip-path="url(#clip412)" style="stroke:#000000; stroke-linecap:round; stroke-linejoin:round; stroke-width:2; stroke-opacity:0.1; fill:none" points="112.177,653.051 2352.76,653.051 "/>
<polyline clip-path="url(#clip412)" style="stroke:#000000; stroke-linecap:round; stroke-linejoin:round; stroke-width:2; stroke-opacity:0.1; fill:none" points="112.177,457.711 2352.76,457.711 "/>
<polyline clip-path="url(#clip412)" style="stroke:#000000; stroke-linecap:round; stroke-linejoin:round; stroke-width:2; stroke-opacity:0.1; fill:none" points="112.177,262.371 2352.76,262.371 "/>
<polyline clip-path="url(#clip412)" style="stroke:#000000; stroke-linecap:round; stroke-linejoin:round; stroke-width:2; stroke-opacity:0.1; fill:none" points="112.177,67.0309 2352.76,67.0309 "/>
<polyline clip-path="url(#clip410)" style="stroke:#000000; stroke-linecap:round; stroke-linejoin:round; stroke-width:4; stroke-opacity:1; fill:none" points="112.177,1423.18 112.177,47.2441 "/>
<polyline clip-path="url(#clip410)" style="stroke:#000000; stroke-linecap:round; stroke-linejoin:round; stroke-width:4; stroke-opacity:1; fill:none" points="112.177,1239.07 131.075,1239.07 "/>
<polyline clip-path="url(#clip410)" style="stroke:#000000; stroke-linecap:round; stroke-linejoin:round; stroke-width:4; stroke-opacity:1; fill:none" points="112.177,1043.73 131.075,1043.73 "/>
<polyline clip-path="url(#clip410)" style="stroke:#000000; stroke-linecap:round; stroke-linejoin:round; stroke-width:4; stroke-opacity:1; fill:none" points="112.177,848.392 131.075,848.392 "/>
<polyline clip-path="url(#clip410)" style="stroke:#000000; stroke-linecap:round; stroke-linejoin:round; stroke-width:4; stroke-opacity:1; fill:none" points="112.177,653.051 131.075,653.051 "/>
<polyline clip-path="url(#clip410)" style="stroke:#000000; stroke-linecap:round; stroke-linejoin:round; stroke-width:4; stroke-opacity:1; fill:none" points="112.177,457.711 131.075,457.711 "/>
<polyline clip-path="url(#clip410)" style="stroke:#000000; stroke-linecap:round; stroke-linejoin:round; stroke-width:4; stroke-opacity:1; fill:none" points="112.177,262.371 131.075,262.371 "/>
<polyline clip-path="url(#clip410)" style="stroke:#000000; stroke-linecap:round; stroke-linejoin:round; stroke-width:4; stroke-opacity:1; fill:none" points="112.177,67.0309 131.075,67.0309 "/>
<path clip-path="url(#clip410)" d="M56.2699 1252.42 L63.9087 1252.42 L63.9087 1226.05 L55.5986 1227.72 L55.5986 1223.46 L63.8624 1221.79 L68.5383 1221.79 L68.5383 1252.42 L76.1772 1252.42 L76.1772 1256.35 L56.2699 1256.35 L56.2699 1252.42 Z" fill="#000000" fill-rule="nonzero" fill-opacity="1" /><path clip-path="url(#clip410)" d="M59.8578 1057.08 L76.1772 1057.08 L76.1772 1061.01 L54.2328 1061.01 L54.2328 1057.08 Q56.8949 1054.32 61.4782 1049.69 Q66.0846 1045.04 67.2652 1043.7 Q69.5105 1041.17 70.3902 1039.44 Q71.2929 1037.68 71.2929 1035.99 Q71.2929 1033.23 69.3485 1031.5 Q67.4272 1029.76 64.3254 1029.76 Q62.1263 1029.76 59.6726 1030.53 Q57.2421 1031.29 54.4643 1032.84 L54.4643 1028.12 Q57.2884 1026.98 59.7421 1026.41 Q62.1958 1025.83 64.2328 1025.83 Q69.6031 1025.83 72.7976 1028.51 Q75.992 1031.2 75.992 1035.69 Q75.992 1037.82 75.1818 1039.74 Q74.3948 1041.64 72.2883 1044.23 Q71.7096 1044.9 68.6078 1048.12 Q65.5059 1051.31 59.8578 1057.08 Z" fill="#000000" fill-rule="nonzero" fill-opacity="1" /><path clip-path="url(#clip410)" d="M69.0476 847.038 Q72.404 847.755 74.279 850.024 Q76.1772 852.292 76.1772 855.625 Q76.1772 860.741 72.6587 863.542 Q69.1402 866.343 62.6587 866.343 Q60.4828 866.343 58.168 865.903 Q55.8764 865.487 53.4227 864.63 L53.4227 860.116 Q55.3671 861.25 57.6819 861.829 Q59.9967 862.408 62.5198 862.408 Q66.918 862.408 69.2096 860.672 Q71.5244 858.936 71.5244 855.625 Q71.5244 852.57 69.3717 850.857 Q67.242 849.121 63.4226 849.121 L59.3949 849.121 L59.3949 845.278 L63.6078 845.278 Q67.0569 845.278 68.8855 843.913 Q70.7142 842.524 70.7142 839.931 Q70.7142 837.269 68.8161 835.857 Q66.9411 834.422 63.4226 834.422 Q61.5013 834.422 59.3023 834.839 Q57.1032 835.255 54.4643 836.135 L54.4643 831.968 Q57.1264 831.227 59.4412 830.857 Q61.7791 830.487 63.8393 830.487 Q69.1633 830.487 72.2652 832.917 Q75.367 835.325 75.367 839.445 Q75.367 842.315 73.7235 844.306 Q72.08 846.274 69.0476 847.038 Z" fill="#000000" fill-rule="nonzero" fill-opacity="1" /><path clip-path="url(#clip410)" d="M66.5939 639.846 L54.7884 658.295 L66.5939 658.295 L66.5939 639.846 M65.367 635.771 L71.2466 635.771 L71.2466 658.295 L76.1772 658.295 L76.1772 662.183 L71.2466 662.183 L71.2466 670.331 L66.5939 670.331 L66.5939 662.183 L50.9921 662.183 L50.9921 657.67 L65.367 635.771 Z" fill="#000000" fill-rule="nonzero" fill-opacity="1" /><path clip-path="url(#clip410)" d="M55.2745 440.431 L73.6309 440.431 L73.6309 444.366 L59.5569 444.366 L59.5569 452.839 Q60.5754 452.491 61.5939 452.329 Q62.6124 452.144 63.6309 452.144 Q69.418 452.144 72.7976 455.315 Q76.1772 458.487 76.1772 463.903 Q76.1772 469.482 72.705 472.584 Q69.2328 475.663 62.9134 475.663 Q60.7374 475.663 58.4689 475.292 Q56.2236 474.922 53.8162 474.181 L53.8162 469.482 Q55.8995 470.616 58.1217 471.172 Q60.3439 471.727 62.8208 471.727 Q66.8254 471.727 69.1633 469.621 Q71.5013 467.514 71.5013 463.903 Q71.5013 460.292 69.1633 458.186 Q66.8254 456.079 62.8208 456.079 Q60.9458 456.079 59.0708 456.496 Q57.2189 456.913 55.2745 457.792 L55.2745 440.431 Z" fill="#000000" fill-rule="nonzero" fill-opacity="1" /><path clip-path="url(#clip410)" d="M64.6495 260.508 Q61.5013 260.508 59.6495 262.66 Q57.8208 264.813 57.8208 268.563 Q57.8208 272.29 59.6495 274.466 Q61.5013 276.619 64.6495 276.619 Q67.7976 276.619 69.6263 274.466 Q71.4781 272.29 71.4781 268.563 Q71.4781 264.813 69.6263 262.66 Q67.7976 260.508 64.6495 260.508 M73.9318 245.855 L73.9318 250.114 Q72.1726 249.281 70.367 248.841 Q68.5846 248.401 66.8254 248.401 Q62.1958 248.401 59.7421 251.526 Q57.3115 254.651 56.9643 260.971 Q58.33 258.957 60.3902 257.892 Q62.4504 256.804 64.9272 256.804 Q70.1355 256.804 73.1448 259.975 Q76.1772 263.123 76.1772 268.563 Q76.1772 273.887 73.029 277.105 Q69.8809 280.322 64.6495 280.322 Q58.6541 280.322 55.4828 275.739 Q52.3116 271.133 52.3116 262.406 Q52.3116 254.211 56.2004 249.35 Q60.0893 244.466 66.6402 244.466 Q68.3994 244.466 70.1818 244.813 Q71.9874 245.161 73.9318 245.855 Z" fill="#000000" fill-rule="nonzero" fill-opacity="1" /><path clip-path="url(#clip410)" d="M53.9551 49.7509 L76.1772 49.7509 L76.1772 51.7416 L63.6309 84.3109 L58.7467 84.3109 L70.5522 53.686 L53.9551 53.686 L53.9551 49.7509 Z" fill="#000000" fill-rule="nonzero" fill-opacity="1" /><polyline clip-path="url(#clip412)" style="stroke:#009af9; stroke-linecap:round; stroke-linejoin:round; stroke-width:4; stroke-opacity:1; fill:none" points="112.177,1239.07 114.42,1238.07 116.663,1237.03 118.906,1235.94 121.148,1234.81 123.391,1233.64 125.634,1232.42 127.877,1231.16 130.12,1229.86 132.363,1228.51 134.605,1227.13 136.848,1225.7 139.091,1224.22 141.334,1222.71 143.577,1221.15 145.819,1219.55 148.062,1217.91 150.305,1216.22 152.548,1214.49 154.791,1212.72 157.034,1210.9 159.276,1209.04 161.519,1207.14 163.762,1205.19 166.005,1203.2 168.248,1201.17 170.491,1199.09 172.733,1196.97 174.976,1194.8 177.219,1192.59 179.462,1190.33 181.705,1188.03 183.947,1185.68 186.19,1183.28 188.433,1180.84 190.676,1178.35 192.919,1175.82 195.162,1173.23 197.404,1170.6 199.647,1167.92 201.89,1165.19 204.133,1162.42 206.376,1159.59 208.619,1156.71 210.861,1153.78 213.104,1150.81 215.347,1147.78 217.59,1144.7 219.833,1141.56 222.075,1138.38 224.318,1135.14 226.561,1131.85 228.804,1128.5 231.047,1125.1 233.29,1121.64 235.532,1118.13 237.775,1114.56 240.018,1110.93 242.261,1107.25 244.504,1103.51 246.746,1099.71 248.989,1095.85 251.232,1091.93 253.475,1087.95 255.718,1083.91 257.961,1079.81 260.203,1075.64 262.446,1071.42 264.689,1067.12 266.932,1062.77 269.175,1058.35 271.418,1053.86 273.66,1049.31 275.903,1044.69 278.146,1040.01 280.389,1035.25 282.632,1030.43 284.874,1025.53 287.117,1020.57 289.36,1015.53 291.603,1010.43 293.846,1005.25 296.089,999.995 298.331,994.668 300.574,989.267 302.817,983.79 305.06,978.237 307.303,972.607 309.545,966.899 311.788,961.114 314.031,955.249 316.274,949.304 318.517,943.279 320.76,937.172 323.002,930.984 325.245,924.712 327.488,918.358 329.731,911.92 331.974,905.398 334.217,898.79 336.459,892.095 338.702,885.314 340.945,878.445 343.188,871.487 345.431,864.441 347.673,857.304 349.916,850.077 352.159,842.76 354.402,835.351 356.645,827.85 358.888,820.256 361.13,812.57 363.373,804.791 365.616,796.918 367.859,788.951 370.102,780.89 372.344,772.734 374.587,764.484 376.83,756.139 379.073,747.699 381.316,739.163 383.559,730.532 385.801,721.806 388.044,712.985 390.287,704.068 392.53,695.056 394.773,685.948 397.016,676.746 399.258,667.453 401.501,658.071 403.744,648.597 405.987,639.032 408.23,629.375 410.472,619.628 412.715,609.789 414.958,599.861 417.201,589.843 419.444,579.738 421.687,569.546 423.929,559.271 426.172,548.913 428.415,538.477 430.658,527.963 432.901,517.376 435.143,506.719 437.386,495.995 439.629,485.208 441.872,474.364 444.115,463.465 446.358,452.518 448.6,441.527 450.843,430.498 453.086,419.436 455.329,408.347 457.572,397.238 459.815,386.116 462.057,374.986 464.3,363.857 466.543,352.736 468.786,341.63 471.029,330.548 473.271,319.498 475.514,308.488 477.757,297.514 480,286.586 482.243,275.723 484.486,264.943 486.728,254.266 488.971,243.709 491.214,233.295 493.457,223.043 495.7,212.974 497.942,203.11 500.185,193.473 502.428,184.085 504.671,174.969 506.914,166.149 509.157,157.649 511.399,149.492 513.642,141.705 515.885,134.311 518.128,127.338 520.371,120.812 522.614,114.759 524.856,109.206 527.099,104.183 529.342,99.7158 531.585,95.8346 533.828,92.5683 536.07,89.9468 538.313,88.0002 540.556,86.7594 542.799,86.2555 545.042,86.5202 547.285,87.5858 549.527,89.4849 551.77,92.2508 554.013,95.917 556.256,100.518 558.499,106.09 560.741,112.674 562.984,120.274 565.227,128.886 567.47,138.503 569.713,149.115 571.956,160.71 574.198,173.27 576.441,186.776 578.684,201.204 580.927,216.527 583.17,232.716 585.413,249.737 587.655,267.553 589.898,286.125 592.141,305.409 594.384,325.359 596.627,345.924 598.869,367.051 601.112,388.684 603.355,410.763 605.598,433.224 607.841,456 610.084,479.023 612.326,502.218 614.569,525.508 616.812,548.814 619.055,572.053 621.298,595.164 623.54,618.126 625.783,640.882 628.026,663.38 630.269,685.57 632.512,707.407 634.755,728.85 636.997,749.861 639.24,770.408 641.483,790.459 643.726,809.991 645.969,828.981 648.212,847.413 650.454,865.271 652.697,882.547 654.94,899.236 657.183,915.334 659.426,930.845 661.668,945.775 663.911,960.133 666.154,973.935 668.397,987.197 670.64,999.942 672.883,1012.2 675.125,1023.99 677.368,1035.32 679.611,1046.17 681.854,1056.57 684.097,1066.52 686.339,1076.04 688.582,1085.15 690.825,1093.87 693.068,1102.2 695.311,1110.17 697.554,1117.78 699.796,1125.05 702.039,1132 704.282,1138.63 706.525,1144.96 708.768,1151 711.011,1156.76 713.253,1162.25 715.496,1167.49 717.739,1172.47 719.982,1177.22 722.225,1181.74 724.467,1186.05 726.71,1190.14 728.953,1194.02 731.196,1197.72 733.439,1201.24 735.682,1204.58 737.924,1207.75 740.167,1210.76 742.41,1213.62 744.653,1216.32 746.896,1218.89 749.138,1221.31 751.381,1223.6 753.624,1225.77 755.867,1227.81 758.11,1229.73 760.353,1231.54 762.595,1233.24 764.838,1234.84 767.081,1236.33 769.324,1237.73 771.567,1239.03 773.81,1240.24 776.052,1241.37 778.295,1242.41 780.538,1243.36 782.781,1244.24 785.024,1245.03 787.266,1245.75 789.509,1246.4 791.752,1246.97 793.995,1247.47 796.238,1247.9 798.481,1248.26 800.723,1248.56 802.966,1248.8 805.209,1248.98 807.452,1249.09 809.695,1249.15 811.938,1249.15 814.18,1249.09 816.423,1248.98 818.666,1248.81 820.909,1248.59 823.152,1248.31 825.394,1247.98 827.637,1247.6 829.88,1247.18 832.123,1246.7 834.366,1246.17 836.609,1245.6 838.851,1244.98 841.094,1244.31 843.337,1243.59 845.58,1242.83 847.823,1242.03 850.065,1241.18 852.308,1240.28 854.551,1239.34 856.794,1238.36 859.037,1237.33 861.28,1236.26 863.522,1235.14 865.765,1233.99 868.008,1232.79 870.251,1231.54 872.494,1230.26 874.737,1228.93 876.979,1227.56 879.222,1226.14 881.465,1224.69 883.708,1223.19 885.951,1221.65 888.193,1220.06 890.436,1218.43 892.679,1216.76 894.922,1215.05 897.165,1213.29 899.408,1211.49 901.65,1209.64 903.893,1207.76 906.136,1205.82 908.379,1203.85 910.622,1201.83 912.864,1199.77 915.107,1197.66 917.35,1195.5 919.593,1193.31 921.836,1191.06 924.079,1188.77 926.321,1186.44 928.564,1184.06 930.807,1181.63 933.05,1179.16 935.293,1176.64 937.536,1174.07 939.778,1171.46 942.021,1168.8 944.264,1166.09 946.507,1163.33 948.75,1160.52 950.992,1157.66 953.235,1154.75 955.478,1151.79 957.721,1148.78 959.964,1145.71 962.207,1142.6 964.449,1139.43 966.692,1136.21 968.935,1132.93 971.178,1129.61 973.421,1126.22 975.663,1122.79 977.906,1119.29 980.149,1115.74 982.392,1112.14 984.635,1108.47 986.878,1104.75 989.12,1100.97 991.363,1097.14 993.606,1093.24 995.849,1089.28 998.092,1085.26 1000.33,1081.18 1002.58,1077.04 1004.82,1072.83 1007.06,1068.57 1009.31,1064.23 1011.55,1059.84 1013.79,1055.37 1016.03,1050.85 1018.28,1046.25 1020.52,1041.59 1022.76,1036.86 1025.01,1032.06 1027.25,1027.19 1029.49,1022.25 1031.73,1017.24 1033.98,1012.16 1036.22,1007.01 1038.46,1001.78 1040.71,996.482 1042.95,991.108 1045.19,985.658 1047.43,980.133 1049.68,974.53 1051.92,968.851 1054.16,963.093 1056.41,957.255 1058.65,951.338 1060.89,945.341 1063.13,939.262 1065.38,933.102 1067.62,926.859 1069.86,920.533 1072.1,914.122 1074.35,907.627 1076.59,901.047 1078.83,894.381 1081.08,887.628 1083.32,880.789 1085.56,873.861 1087.8,866.845 1090.05,859.74 1092.29,852.546 1094.53,845.261 1096.78,837.886 1099.02,830.419 1101.26,822.86 1103.5,815.21 1105.75,807.466 1107.99,799.629 1110.23,791.698 1112.48,783.672 1114.72,775.551 1116.96,767.34 1119.2,759.042 1121.45,750.657 1123.69,742.181 1125.93,733.614 1128.18,724.952 1130.42,716.196 1132.66,707.343 1134.9,698.394 1137.15,689.346 1139.39,680.2 1141.63,670.956 1143.88,661.613 1146.12,652.172 1148.36,642.633 1150.6,632.997 1152.85,623.266 1155.09,613.44 1157.33,603.52 1159.57,593.51 1161.82,583.409 1164.06,573.222 1166.3,562.949 1168.55,552.595 1170.79,542.161 1173.03,531.651 1175.27,521.069 1177.52,510.417 1179.76,499.701 1182,488.924 1184.25,478.09 1186.49,467.204 1188.73,456.271 1190.97,445.296 1193.22,434.284 1195.46,423.242 1197.7,412.174 1199.95,401.087 1202.19,389.987 1204.43,378.881 1206.67,367.775 1208.92,356.677 1211.16,345.593 1213.4,334.532 1215.65,323.501 1217.89,312.508 1220.13,301.561 1222.37,290.669 1224.62,279.836 1226.86,269.065 1229.1,258.373 1231.35,247.785 1233.59,237.321 1235.83,227.003 1238.07,216.856 1240.32,206.901 1242.56,197.163 1244.8,187.665 1247.04,178.431 1249.29,169.485 1251.53,160.853 1253.77,152.559 1256.02,144.63 1258.26,137.09 1260.5,129.965 1262.74,123.283 1264.99,117.07 1267.23,111.353 1269.47,106.16 1271.72,101.517 1273.96,97.4547 1276.2,93.9998 1278.44,91.1814 1280.69,89.0288 1282.93,87.5713 1285.17,86.8387 1287.42,86.8611 1289.66,87.669 1291.9,89.293 1294.14,91.7644 1296.39,95.1145 1298.63,99.3751 1300.87,104.578 1303.12,110.757 1305.36,117.971 1307.6,126.256 1309.84,135.591 1312.09,145.954 1314.33,157.323 1316.57,169.669 1318.82,182.966 1321.06,197.184 1323.3,212.289 1325.54,228.248 1327.79,245.023 1330.03,262.577 1332.27,280.869 1334.51,299.855 1336.76,319.491 1339,339.73 1341.24,360.523 1343.49,381.818 1345.73,403.562 1347.97,425.699 1350.21,448.173 1352.46,470.924 1354.7,493.889 1356.94,517.005 1359.19,540.206 1361.43,563.424 1363.67,586.589 1365.91,609.628 1368.16,632.468 1370.4,655.032 1372.64,677.245 1374.89,699.099 1377.13,720.572 1379.37,741.632 1381.61,762.25 1383.86,782.401 1386.1,802.062 1388.34,821.211 1390.59,839.83 1392.83,857.906 1395.07,875.425 1397.31,892.379 1399.56,908.759 1401.8,924.563 1404.04,939.789 1406.29,954.439 1408.53,968.516 1410.77,982.028 1413.01,994.985 1415.26,1007.4 1417.5,1019.28 1419.74,1030.66 1421.98,1041.55 1424.23,1051.97 1426.47,1061.95 1428.71,1071.53 1430.96,1080.72 1433.2,1089.57 1435.44,1098.05 1437.68,1106.16 1439.93,1113.91 1442.17,1121.31 1444.41,1128.37 1446.66,1135.12 1448.9,1141.56 1451.14,1147.71 1453.38,1153.57 1455.63,1159.16 1457.87,1164.5 1460.11,1169.59 1462.36,1174.44 1464.6,1179.06 1466.84,1183.46 1469.08,1187.65 1471.33,1191.64 1473.57,1195.44 1475.81,1199.06 1478.06,1202.49 1480.3,1205.75 1482.54,1208.85 1484.78,1211.79 1487.03,1214.57 1489.27,1217.21 1491.51,1219.69 1493.76,1222.04 1496,1224.26 1498.24,1226.36 1500.48,1228.34 1502.73,1230.2 1504.97,1231.95 1507.21,1233.59 1509.46,1235.13 1511.7,1236.57 1513.94,1237.91 1516.18,1239.16 1518.43,1240.32 1520.67,1241.39 1522.91,1242.37 1525.15,1243.27 1527.4,1244.09 1529.64,1244.84 1531.88,1245.51 1534.13,1246.11 1536.37,1246.63 1538.61,1247.09 1540.85,1247.49 1543.1,1247.81 1545.34,1248.08 1547.58,1248.28 1549.83,1248.42 1552.07,1248.5 1554.31,1248.52 1556.55,1248.49 1558.8,1248.4 1561.04,1248.25 1563.28,1248.06 1565.53,1247.8 1567.77,1247.5 1570.01,1247.15 1572.25,1246.74 1574.5,1246.29 1576.74,1245.78 1578.98,1245.23 1581.23,1244.63 1583.47,1243.98 1585.71,1243.29 1587.95,1242.54 1590.2,1241.76 1592.44,1240.92 1594.68,1240.04 1596.93,1239.12 1599.17,1238.15 1601.41,1237.14 1603.65,1236.08 1605.9,1234.98 1608.14,1233.84 1610.38,1232.65 1612.62,1231.42 1614.87,1230.15 1617.11,1228.83 1619.35,1227.47 1621.6,1226.07 1623.84,1224.63 1626.08,1223.14 1628.32,1221.61 1630.57,1220.04 1632.81,1218.43 1635.05,1216.77 1637.3,1215.07 1639.54,1213.33 1641.78,1211.55 1644.02,1209.72 1646.27,1207.85 1648.51,1205.93 1650.75,1203.97 1653,1201.97 1655.24,1199.92 1657.48,1197.83 1659.72,1195.69 1661.97,1193.51 1664.21,1191.28 1666.45,1189.01 1668.7,1186.69 1670.94,1184.33 1673.18,1181.92 1675.42,1179.46 1677.67,1176.95 1679.91,1174.4 1682.15,1171.8 1684.4,1169.15 1686.64,1166.46 1688.88,1163.71 1691.12,1160.92 1693.37,1158.07 1695.61,1155.18 1697.85,1152.23 1700.09,1149.24 1702.34,1146.19 1704.58,1143.09 1706.82,1139.94 1709.07,1136.74 1711.31,1133.48 1713.55,1130.17 1715.79,1126.8 1718.04,1123.38 1720.28,1119.9 1722.52,1116.37 1724.77,1112.78 1727.01,1109.14 1729.25,1105.43 1731.49,1101.67 1733.74,1097.85 1735.98,1093.97 1738.22,1090.03 1740.47,1086.03 1742.71,1081.97 1744.95,1077.84 1747.19,1073.66 1749.44,1069.41 1751.68,1065.09 1753.92,1060.71 1756.17,1056.27 1758.41,1051.76 1760.65,1047.19 1762.89,1042.55 1765.14,1037.83 1767.38,1033.06 1769.62,1028.21 1771.87,1023.29 1774.11,1018.3 1776.35,1013.24 1778.59,1008.11 1780.84,1002.91 1783.08,997.632 1785.32,992.281 1787.56,986.855 1789.81,981.354 1792.05,975.776 1794.29,970.122 1796.54,964.389 1798.78,958.579 1801.02,952.688 1803.26,946.718 1805.51,940.667 1807.75,934.534 1809.99,928.319 1812.24,922.021 1814.48,915.64 1816.72,909.176 1818.96,902.628 1821.21,895.995 1823.45,889.275 1825.69,882.469 1827.94,875.575 1830.18,868.592 1832.42,861.52 1834.66,854.357 1836.91,847.104 1839.15,839.76 1841.39,832.324 1843.64,824.795 1845.88,817.174 1848.12,809.459 1850.36,801.651 1852.61,793.749 1854.85,785.752 1857.09,777.661 1859.34,769.476 1861.58,761.196 1863.82,752.821 1866.06,744.351 1868.31,735.786 1870.55,727.127 1872.79,718.373 1875.03,709.525 1877.28,700.582 1879.52,691.545 1881.76,682.415 1884.01,673.191 1886.25,663.874 1888.49,654.465 1890.73,644.964 1892.98,635.371 1895.22,625.687 1897.46,615.913 1899.71,606.05 1901.95,596.109 1904.19,586.1 1906.43,576.02 1908.68,565.867 1910.92,555.639 1913.16,545.336 1915.41,534.955 1917.65,524.498 1919.89,513.965 1922.13,503.358 1924.38,492.679 1926.62,481.929 1928.86,471.114 1931.11,460.235 1933.35,449.298 1935.59,438.307 1937.83,427.269 1940.08,416.19 1942.32,405.077 1944.56,393.936 1946.81,382.777 1949.05,371.609 1951.29,360.44 1953.53,349.28 1955.78,338.141 1958.02,327.034 1960.26,315.97 1962.5,304.962 1964.75,294.023 1966.99,283.167 1969.23,272.409 1971.48,261.763 1973.72,251.245 1975.96,240.871 1978.2,230.658 1980.45,220.623 1982.69,210.786 1984.93,201.163 1987.18,191.776 1989.42,182.643 1991.66,173.786 1993.9,165.225 1996.15,156.982 1998.39,149.08 2000.63,141.542 2002.88,134.392 2005.12,127.654 2007.36,121.352 2009.6,115.513 2011.85,110.163 2014.09,105.326 2016.33,101.034 2018.58,97.3313 2020.82,94.2613 2023.06,91.8656 2025.3,90.1828 2027.55,89.2486 2029.79,89.0964 2032.03,89.7566 2034.28,91.2572 2036.52,93.6232 2038.76,96.8772 2041,101.039 2043.25,106.126 2045.49,112.152 2047.73,119.13 2049.97,127.068 2052.22,135.973 2054.46,145.848 2056.7,156.696 2058.95,168.513 2061.19,181.296 2063.43,195.038 2065.67,209.73 2067.92,225.37 2070.16,241.929 2072.4,259.348 2074.65,277.567 2076.89,296.526 2079.13,316.166 2081.37,336.427 2083.62,357.248 2085.86,378.569 2088.1,400.328 2090.35,422.467 2092.59,444.923 2094.83,467.636 2097.07,490.544 2099.32,513.585 2101.56,536.7 2103.8,559.824 2106.05,582.898 2108.29,605.858 2110.53,628.643 2112.77,651.189 2115.02,673.436 2117.26,695.319 2119.5,716.798 2121.75,737.859 2123.99,758.476 2126.23,778.625 2128.47,798.285 2130.72,817.438 2132.96,836.069 2135.2,854.163 2137.45,871.71 2139.69,888.7 2141.93,905.129 2144.17,920.993 2146.42,936.29 2148.66,951.023 2150.9,965.194 2153.14,978.811 2155.39,991.882 2157.63,1004.42 2159.87,1016.44 2162.12,1027.95 2164.36,1038.97 2166.6,1049.54 2168.84,1059.66 2171.09,1069.37 2173.33,1078.69 2175.57,1087.64 2177.82,1096.19 2180.06,1104.36 2182.3,1112.17 2184.54,1119.64 2186.79,1126.76 2189.03,1133.57 2191.27,1140.06 2193.52,1146.26 2195.76,1152.18 2198,1157.82 2200.24,1163.21 2202.49,1168.34 2204.73,1173.23 2206.97,1177.89 2209.22,1182.33 2211.46,1186.56 2213.7,1190.58 2215.94,1194.41 2218.19,1198.05 2220.43,1201.51 2222.67,1204.79 2224.92,1207.91 2227.16,1210.86 2229.4,1213.66 2231.64,1216.31 2233.89,1218.83 2236.13,1221.2 2238.37,1223.45 2240.61,1225.57 2242.86,1227.57 2245.1,1229.45 2247.34,1231.22 2249.59,1232.89 2251.83,1234.44 2254.07,1235.9 2256.31,1237.26 2258.56,1238.52 2260.8,1239.7 2263.04,1240.78 2265.29,1241.79 2267.53,1242.71 2269.77,1243.55 2272.01,1244.31 2274.26,1245 2276.5,1245.61 2278.74,1246.16 2280.99,1246.63 2283.23,1247.04 2285.47,1247.38 2287.71,1247.66 2289.96,1247.87 2292.2,1248.02 2294.44,1248.12 2296.69,1248.15 2298.93,1248.13 2301.17,1248.05 2303.41,1247.91 2305.66,1247.72 2307.9,1247.48 2310.14,1247.19 2312.39,1246.84 2314.63,1246.44 2316.87,1245.99 2319.11,1245.5 2321.36,1244.95 2323.6,1244.36 2325.84,1243.71 2328.08,1243.03 2330.33,1242.29 2332.57,1241.51 2334.81,1240.68 2337.06,1239.81 2339.3,1238.9 2341.54,1237.94 2343.78,1236.93 2346.03,1235.88 2348.27,1234.79 2350.51,1233.66 2352.76,1232.48 "/>
<polyline clip-path="url(#clip412)" style="stroke:#e26f46; stroke-linecap:round; stroke-linejoin:round; stroke-width:4; stroke-opacity:1; fill:none" points="112.177,1239.07 114.42,1242.94 116.663,1246.72 118.906,1250.42 121.148,1254.03 123.391,1257.56 125.634,1261.01 127.877,1264.39 130.12,1267.68 132.363,1270.9 134.605,1274.05 136.848,1277.13 139.091,1280.14 141.334,1283.07 143.577,1285.94 145.819,1288.74 148.062,1291.48 150.305,1294.16 152.548,1296.77 154.791,1299.32 157.034,1301.82 159.276,1304.25 161.519,1306.63 163.762,1308.95 166.005,1311.22 168.248,1313.43 170.491,1315.59 172.733,1317.7 174.976,1319.76 177.219,1321.77 179.462,1323.73 181.705,1325.65 183.947,1327.52 186.19,1329.34 188.433,1331.13 190.676,1332.86 192.919,1334.56 195.162,1336.22 197.404,1337.83 199.647,1339.41 201.89,1340.94 204.133,1342.44 206.376,1343.9 208.619,1345.33 210.861,1346.72 213.104,1348.07 215.347,1349.39 217.59,1350.68 219.833,1351.94 222.075,1353.16 224.318,1354.35 226.561,1355.51 228.804,1356.64 231.047,1357.74 233.29,1358.82 235.532,1359.86 237.775,1360.88 240.018,1361.87 242.261,1362.83 244.504,1363.77 246.746,1364.68 248.989,1365.56 251.232,1366.42 253.475,1367.26 255.718,1368.07 257.961,1368.86 260.203,1369.63 262.446,1370.37 264.689,1371.09 266.932,1371.79 269.175,1372.47 271.418,1373.12 273.66,1373.76 275.903,1374.37 278.146,1374.97 280.389,1375.54 282.632,1376.09 284.874,1376.63 287.117,1377.14 289.36,1377.64 291.603,1378.12 293.846,1378.57 296.089,1379.01 298.331,1379.43 300.574,1379.84 302.817,1380.22 305.06,1380.59 307.303,1380.94 309.545,1381.27 311.788,1381.58 314.031,1381.88 316.274,1382.16 318.517,1382.42 320.76,1382.67 323.002,1382.89 325.245,1383.1 327.488,1383.29 329.731,1383.47 331.974,1383.62 334.217,1383.76 336.459,1383.88 338.702,1383.99 340.945,1384.07 343.188,1384.14 345.431,1384.19 347.673,1384.22 349.916,1384.24 352.159,1384.23 354.402,1384.21 356.645,1384.17 358.888,1384.11 361.13,1384.02 363.373,1383.92 365.616,1383.8 367.859,1383.66 370.102,1383.49 372.344,1383.3 374.587,1383.1 376.83,1382.86 379.073,1382.61 381.316,1382.33 383.559,1382.03 385.801,1381.7 388.044,1381.34 390.287,1380.96 392.53,1380.55 394.773,1380.11 397.016,1379.64 399.258,1379.14 401.501,1378.61 403.744,1378.05 405.987,1377.44 408.23,1376.81 410.472,1376.14 412.715,1375.43 414.958,1374.69 417.201,1373.9 419.444,1373.08 421.687,1372.21 423.929,1371.3 426.172,1370.34 428.415,1369.34 430.658,1368.28 432.901,1367.17 435.143,1366.01 437.386,1364.79 439.629,1363.51 441.872,1362.16 444.115,1360.75 446.358,1359.27 448.6,1357.71 450.843,1356.08 453.086,1354.36 455.329,1352.56 457.572,1350.67 459.815,1348.69 462.057,1346.61 464.3,1344.42 466.543,1342.13 468.786,1339.73 471.029,1337.2 473.271,1334.56 475.514,1331.79 477.757,1328.89 480,1325.87 482.243,1322.71 484.486,1319.39 486.728,1315.91 488.971,1312.26 491.214,1308.41 493.457,1304.37 495.7,1300.11 497.942,1295.64 500.185,1290.92 502.428,1285.97 504.671,1280.75 506.914,1275.27 509.157,1269.51 511.399,1263.46 513.642,1257.12 515.885,1250.46 518.128,1243.49 520.371,1236.19 522.614,1228.54 524.856,1220.55 527.099,1212.2 529.342,1203.48 531.585,1194.38 533.828,1184.9 536.07,1175.02 538.313,1164.74 540.556,1154.04 542.799,1142.92 545.042,1131.37 547.285,1119.38 549.527,1106.95 551.77,1094.05 554.013,1080.7 556.256,1066.87 558.499,1052.56 560.741,1037.73 562.984,1022.41 565.227,1006.66 567.47,990.51 569.713,974.002 571.956,957.183 574.198,940.096 576.441,922.788 578.684,905.303 580.927,887.689 583.17,869.993 585.413,852.263 587.655,834.548 589.898,816.898 592.141,799.362 594.384,781.992 596.627,764.839 598.869,747.956 601.112,731.395 603.355,715.211 605.598,699.457 607.841,684.19 610.084,669.464 612.326,655.337 614.569,641.866 616.812,629.109 619.055,617.125 621.298,605.953 623.54,595.596 625.783,586.081 628.026,577.429 630.269,569.657 632.512,562.78 634.755,556.807 636.997,551.744 639.24,547.593 641.483,544.352 643.726,542.014 645.969,540.568 648.212,540.002 650.454,540.297 652.697,541.43 654.94,543.375 657.183,546.101 659.426,549.576 661.668,553.76 663.911,558.611 666.154,564.083 668.397,570.125 670.64,576.684 672.883,583.701 675.125,591.113 677.368,598.911 679.611,607.107 681.854,615.667 684.097,624.56 686.339,633.755 688.582,643.223 690.825,652.936 693.068,662.866 695.311,672.988 697.554,683.277 699.796,693.709 702.039,704.261 704.282,714.913 706.525,725.645 708.768,736.437 711.011,747.271 713.253,758.132 715.496,769.003 717.739,779.87 719.982,790.721 722.225,801.542 724.467,812.323 726.71,823.055 728.953,833.727 731.196,844.324 733.439,854.837 735.682,865.261 737.924,875.59 740.167,885.819 742.41,895.943 744.653,905.957 746.896,915.856 749.138,925.637 751.381,935.296 753.624,944.829 755.867,954.233 758.11,963.506 760.353,972.645 762.595,981.647 764.838,990.511 767.081,999.236 769.324,1007.82 771.567,1016.26 773.81,1024.56 776.052,1032.72 778.295,1040.74 780.538,1048.61 782.781,1056.35 785.024,1063.94 787.266,1071.39 789.509,1078.71 791.752,1085.89 793.995,1092.94 796.238,1099.86 798.481,1106.64 800.723,1113.29 802.966,1119.81 805.209,1126.2 807.452,1132.46 809.695,1138.6 811.938,1144.61 814.18,1150.5 816.423,1156.28 818.666,1161.93 820.909,1167.46 823.152,1172.88 825.394,1178.18 827.637,1183.38 829.88,1188.46 832.123,1193.43 834.366,1198.3 836.609,1203.06 838.851,1207.72 841.094,1212.28 843.337,1216.74 845.58,1221.09 847.823,1225.36 850.065,1229.53 852.308,1233.61 854.551,1237.59 856.794,1241.49 859.037,1245.3 861.28,1249.03 863.522,1252.67 865.765,1256.23 868.008,1259.71 870.251,1263.12 872.494,1266.44 874.737,1269.69 876.979,1272.86 879.222,1275.97 881.465,1279 883.708,1281.96 885.951,1284.85 888.193,1287.68 890.436,1290.44 892.679,1293.14 894.922,1295.78 897.165,1298.35 899.408,1300.87 901.65,1303.32 903.893,1305.72 906.136,1308.06 908.379,1310.35 910.622,1312.59 912.864,1314.77 915.107,1316.9 917.35,1318.98 919.593,1321.01 921.836,1322.99 924.079,1324.92 926.321,1326.81 928.564,1328.65 930.807,1330.45 933.05,1332.21 935.293,1333.92 937.536,1335.59 939.778,1337.22 942.021,1338.81 944.264,1340.36 946.507,1341.87 948.75,1343.34 950.992,1344.78 953.235,1346.18 955.478,1347.55 957.721,1348.88 959.964,1350.18 962.207,1351.45 964.449,1352.68 966.692,1353.88 968.935,1355.05 971.178,1356.2 973.421,1357.31 975.663,1358.39 977.906,1359.44 980.149,1360.47 982.392,1361.47 984.635,1362.44 986.878,1363.39 989.12,1364.31 991.363,1365.2 993.606,1366.07 995.849,1366.92 998.092,1367.74 1000.33,1368.54 1002.58,1369.31 1004.82,1370.06 1007.06,1370.79 1009.31,1371.5 1011.55,1372.19 1013.79,1372.85 1016.03,1373.5 1018.28,1374.12 1020.52,1374.72 1022.76,1375.3 1025.01,1375.87 1027.25,1376.41 1029.49,1376.93 1031.73,1377.43 1033.98,1377.91 1036.22,1378.38 1038.46,1378.82 1040.71,1379.25 1042.95,1379.66 1045.19,1380.05 1047.43,1380.42 1049.68,1380.78 1051.92,1381.12 1054.16,1381.44 1056.41,1381.74 1058.65,1382.02 1060.89,1382.29 1063.13,1382.54 1065.38,1382.77 1067.62,1382.99 1069.86,1383.19 1072.1,1383.37 1074.35,1383.53 1076.59,1383.68 1078.83,1383.81 1081.08,1383.92 1083.32,1384.01 1085.56,1384.09 1087.8,1384.14 1090.05,1384.18 1092.29,1384.2 1094.53,1384.21 1096.78,1384.19 1099.02,1384.15 1101.26,1384.1 1103.5,1384.02 1105.75,1383.92 1107.99,1383.81 1110.23,1383.67 1112.48,1383.51 1114.72,1383.33 1116.96,1383.13 1119.2,1382.9 1121.45,1382.64 1123.69,1382.35 1125.93,1382.03 1128.18,1381.69 1130.42,1381.33 1132.66,1380.94 1134.9,1380.52 1137.15,1380.07 1139.39,1379.6 1141.63,1379.1 1143.88,1378.57 1146.12,1378.01 1148.36,1377.42 1150.6,1376.8 1152.85,1376.15 1155.09,1375.46 1157.33,1374.74 1159.57,1373.98 1161.82,1373.18 1164.06,1372.34 1166.3,1371.46 1168.55,1370.53 1170.79,1369.56 1173.03,1368.54 1175.27,1367.46 1177.52,1366.33 1179.76,1365.14 1182,1363.89 1184.25,1362.58 1186.49,1361.2 1188.73,1359.75 1190.97,1358.23 1193.22,1356.62 1195.46,1354.94 1197.7,1353.17 1199.95,1351.31 1202.19,1349.36 1204.43,1347.31 1206.67,1345.16 1208.92,1342.9 1211.16,1340.53 1213.4,1338.04 1215.65,1335.43 1217.89,1332.69 1220.13,1329.82 1222.37,1326.82 1224.62,1323.67 1226.86,1320.39 1229.1,1316.96 1231.35,1313.37 1233.59,1309.6 1235.83,1305.64 1238.07,1301.47 1240.32,1297.1 1242.56,1292.49 1244.8,1287.64 1247.04,1282.54 1249.29,1277.17 1251.53,1271.53 1253.77,1265.6 1256.02,1259.37 1258.26,1252.83 1260.5,1245.97 1262.74,1238.78 1264.99,1231.25 1267.23,1223.37 1269.47,1215.13 1271.72,1206.53 1273.96,1197.54 1276.2,1188.17 1278.44,1178.41 1280.69,1168.25 1282.93,1157.67 1285.17,1146.68 1287.42,1135.27 1289.66,1123.42 1291.9,1111.14 1294.14,1098.41 1296.39,1085.23 1298.63,1071.6 1300.87,1057.51 1303.12,1042.95 1305.36,1027.87 1307.6,1012.28 1309.84,996.219 1312.09,979.749 1314.33,962.928 1316.57,945.81 1318.82,928.451 1321.06,910.906 1323.3,893.23 1325.54,875.474 1327.79,857.694 1330.03,839.941 1332.27,822.267 1334.51,804.724 1336.76,787.362 1339,770.232 1341.24,753.383 1343.49,736.865 1345.73,720.726 1347.97,705.014 1350.21,689.777 1352.46,675.061 1354.7,660.913 1356.94,647.379 1359.19,634.503 1361.43,622.33 1363.67,610.905 1365.91,600.271 1368.16,590.471 1370.4,581.547 1372.64,573.539 1374.89,566.445 1377.13,560.257 1379.37,554.97 1381.61,550.579 1383.86,547.073 1386.1,544.442 1388.34,542.674 1390.59,541.754 1392.83,541.663 1395.07,542.384 1397.31,543.895 1399.56,546.174 1401.8,549.194 1404.04,552.929 1406.29,557.348 1408.53,562.422 1410.77,568.116 1413.01,574.395 1415.26,581.221 1417.5,588.555 1419.74,596.354 1421.98,604.576 1424.23,613.174 1426.47,622.101 1428.71,631.306 1430.96,640.738 1433.2,650.343 1435.44,660.138 1437.68,670.13 1439.93,680.295 1442.17,690.611 1444.41,701.057 1446.66,711.612 1448.9,722.257 1451.14,732.973 1453.38,743.742 1455.63,754.548 1457.87,765.373 1460.11,776.204 1462.36,787.025 1464.6,797.824 1466.84,808.588 1469.08,819.304 1471.33,829.964 1473.57,840.556 1475.81,851.072 1478.06,861.503 1480.3,871.843 1482.54,882.086 1484.78,892.225 1487.03,902.256 1489.27,912.176 1491.51,921.982 1493.76,931.669 1496,941.229 1498.24,950.659 1500.48,959.957 1502.73,969.123 1504.97,978.154 1507.21,987.05 1509.46,995.809 1511.7,1004.43 1513.94,1012.91 1516.18,1021.26 1518.43,1029.46 1520.67,1037.53 1522.91,1045.46 1525.15,1053.24 1527.4,1060.89 1529.64,1068.4 1531.88,1075.77 1534.13,1083.01 1536.37,1090.1 1538.61,1097.06 1540.85,1103.89 1543.1,1110.58 1545.34,1117.14 1547.58,1123.57 1549.83,1129.88 1552.07,1136.05 1554.31,1142.1 1556.55,1148.03 1558.8,1153.84 1561.04,1159.54 1563.28,1165.11 1565.53,1170.57 1567.77,1175.91 1570.01,1181.14 1572.25,1186.26 1574.5,1191.27 1576.74,1196.18 1578.98,1200.98 1581.23,1205.67 1583.47,1210.27 1585.71,1214.76 1587.95,1219.16 1590.2,1223.46 1592.44,1227.67 1594.68,1231.78 1596.93,1235.8 1599.17,1239.74 1601.41,1243.58 1603.65,1247.34 1605.9,1251.02 1608.14,1254.61 1610.38,1258.12 1612.62,1261.56 1614.87,1264.91 1617.11,1268.19 1619.35,1271.39 1621.6,1274.52 1623.84,1277.58 1626.08,1280.57 1628.32,1283.49 1630.57,1286.34 1632.81,1289.13 1635.05,1291.85 1637.3,1294.51 1639.54,1297.11 1641.78,1299.65 1644.02,1302.13 1646.27,1304.55 1648.51,1306.91 1650.75,1309.22 1653,1311.47 1655.24,1313.67 1657.48,1315.82 1659.72,1317.91 1661.97,1319.96 1664.21,1321.96 1666.45,1323.91 1668.7,1325.82 1670.94,1327.68 1673.18,1329.49 1675.42,1331.26 1677.67,1332.99 1679.91,1334.68 1682.15,1336.33 1684.4,1337.93 1686.64,1339.5 1688.88,1341.03 1691.12,1342.52 1693.37,1343.97 1695.61,1345.39 1697.85,1346.78 1700.09,1348.13 1702.34,1349.44 1704.58,1350.72 1706.82,1351.97 1709.07,1353.19 1711.31,1354.38 1713.55,1355.53 1715.79,1356.66 1718.04,1357.75 1720.28,1358.82 1722.52,1359.86 1724.77,1360.87 1727.01,1361.85 1729.25,1362.8 1731.49,1363.73 1733.74,1364.64 1735.98,1365.52 1738.22,1366.37 1740.47,1367.2 1742.71,1368 1744.95,1368.79 1747.19,1369.55 1749.44,1370.28 1751.68,1371 1753.92,1371.69 1756.17,1372.36 1758.41,1373.01 1760.65,1373.64 1762.89,1374.25 1765.14,1374.84 1767.38,1375.4 1769.62,1375.95 1771.87,1376.48 1774.11,1376.99 1776.35,1377.48 1778.59,1377.95 1780.84,1378.41 1783.08,1378.84 1785.32,1379.26 1787.56,1379.66 1789.81,1380.04 1792.05,1380.4 1794.29,1380.74 1796.54,1381.07 1798.78,1381.38 1801.02,1381.67 1803.26,1381.94 1805.51,1382.2 1807.75,1382.44 1809.99,1382.66 1812.24,1382.86 1814.48,1383.05 1816.72,1383.22 1818.96,1383.36 1821.21,1383.5 1823.45,1383.61 1825.69,1383.7 1827.94,1383.78 1830.18,1383.84 1832.42,1383.88 1834.66,1383.91 1836.91,1383.91 1839.15,1383.9 1841.39,1383.87 1843.64,1383.82 1845.88,1383.74 1848.12,1383.65 1850.36,1383.54 1852.61,1383.41 1854.85,1383.26 1857.09,1383.09 1859.34,1382.89 1861.58,1382.68 1863.82,1382.44 1866.06,1382.17 1868.31,1381.88 1870.55,1381.57 1872.79,1381.23 1875.03,1380.86 1877.28,1380.47 1879.52,1380.05 1881.76,1379.6 1884.01,1379.11 1886.25,1378.6 1888.49,1378.06 1890.73,1377.48 1892.98,1376.87 1895.22,1376.22 1897.46,1375.54 1899.71,1374.82 1901.95,1374.05 1904.19,1373.24 1906.43,1372.37 1908.68,1371.46 1910.92,1370.49 1913.16,1369.48 1915.41,1368.42 1917.65,1367.3 1919.89,1366.13 1922.13,1364.9 1924.38,1363.62 1926.62,1362.28 1928.86,1360.88 1931.11,1359.41 1933.35,1357.88 1935.59,1356.27 1937.83,1354.59 1940.08,1352.83 1942.32,1350.99 1944.56,1349.07 1946.81,1347.05 1949.05,1344.93 1951.29,1342.71 1953.53,1340.38 1955.78,1337.94 1958.02,1335.38 1960.26,1332.7 1962.5,1329.87 1964.75,1326.91 1966.99,1323.8 1969.23,1320.54 1971.48,1317.11 1973.72,1313.51 1975.96,1309.73 1978.2,1305.76 1980.45,1301.59 1982.69,1297.22 1984.93,1292.63 1987.18,1287.81 1989.42,1282.75 1991.66,1277.45 1993.9,1271.89 1996.15,1266.06 1998.39,1259.94 2000.63,1253.54 2002.88,1246.83 2005.12,1239.8 2007.36,1232.44 2009.6,1224.74 2011.85,1216.69 2014.09,1208.27 2016.33,1199.48 2018.58,1190.29 2020.82,1180.7 2023.06,1170.69 2025.3,1160.24 2027.55,1149.35 2029.79,1138.02 2032.03,1126.23 2034.28,1113.99 2036.52,1101.29 2038.76,1088.14 2041,1074.55 2043.25,1060.52 2045.49,1046.06 2047.73,1031.19 2049.97,1015.92 2052.22,1000.28 2054.46,984.273 2056.7,967.934 2058.95,951.285 2061.19,934.355 2063.43,917.174 2065.67,899.775 2067.92,882.187 2070.16,864.46 2072.4,846.666 2074.65,828.876 2076.89,811.157 2079.13,793.575 2081.37,776.194 2083.62,759.074 2085.86,742.277 2088.1,725.857 2090.35,709.872 2092.59,694.373 2094.83,679.411 2097.07,665.035 2099.32,651.292 2101.56,638.226 2103.8,625.88 2106.05,614.292 2108.29,603.502 2110.53,593.546 2112.77,584.456 2115.02,576.265 2117.26,569.002 2119.5,562.676 2121.75,557.269 2123.99,552.77 2126.23,549.165 2128.47,546.439 2130.72,544.577 2132.96,543.56 2135.2,543.368 2137.45,543.981 2139.69,545.376 2141.93,547.527 2144.17,550.41 2146.42,553.996 2148.66,558.256 2150.9,563.16 2153.14,568.674 2155.39,574.764 2157.63,581.395 2159.87,588.53 2162.12,596.129 2164.36,604.152 2166.6,612.557 2168.84,621.299 2171.09,630.333 2173.33,639.613 2175.57,649.118 2177.82,658.853 2180.06,668.794 2182.3,678.915 2184.54,689.194 2186.79,699.609 2189.03,710.137 2191.27,720.758 2193.52,731.454 2195.76,742.205 2198,752.994 2200.24,763.805 2202.49,774.623 2204.73,785.432 2206.97,796.22 2209.22,806.973 2211.46,817.681 2213.7,828.333 2215.94,838.92 2218.19,849.433 2220.43,859.864 2222.67,870.207 2224.92,880.457 2227.16,890.609 2229.4,900.653 2231.64,910.583 2233.89,920.395 2236.13,930.086 2238.37,939.654 2240.61,949.095 2242.86,958.407 2245.1,967.589 2247.34,976.637 2249.59,985.551 2251.83,994.328 2254.07,1002.97 2256.31,1011.47 2258.56,1019.83 2260.8,1028.05 2263.04,1036.14 2265.29,1044.08 2267.53,1051.88 2269.77,1059.54 2272.01,1067.06 2274.26,1074.44 2276.5,1081.69 2278.74,1088.8 2280.99,1095.77 2283.23,1102.61 2285.47,1109.32 2287.71,1115.9 2289.96,1122.35 2292.2,1128.68 2294.44,1134.88 2296.69,1140.95 2298.93,1146.9 2301.17,1152.73 2303.41,1158.44 2305.66,1164.03 2307.9,1169.5 2310.14,1174.86 2312.39,1180.11 2314.63,1185.25 2316.87,1190.28 2319.11,1195.2 2321.36,1200.02 2323.6,1204.73 2325.84,1209.34 2328.08,1213.85 2330.33,1218.27 2332.57,1222.58 2334.81,1226.8 2337.06,1230.93 2339.3,1234.97 2341.54,1238.91 2343.78,1242.77 2346.03,1246.54 2348.27,1250.23 2350.51,1253.84 2352.76,1257.36 "/>
<polyline clip-path="url(#clip412)" style="stroke:#3da44d; stroke-linecap:round; stroke-linejoin:round; stroke-width:4; stroke-opacity:1; fill:none" points="112.177,1239.07 114.42,1238.07 116.663,1237.03 118.906,1235.94 121.148,1234.81 123.391,1233.63 125.634,1232.42 127.877,1231.16 130.12,1229.85 132.363,1228.51 134.605,1227.12 136.848,1225.69 139.091,1224.21 141.334,1222.7 143.577,1221.14 145.819,1219.53 148.062,1217.89 150.305,1216.2 152.548,1214.47 154.791,1212.7 157.034,1210.88 159.276,1209.02 161.519,1207.12 163.762,1205.17 166.005,1203.18 168.248,1201.14 170.491,1199.06 172.733,1196.94 174.976,1194.77 177.219,1192.56 179.462,1190.3 181.705,1187.99 183.947,1185.64 186.19,1183.24 188.433,1180.8 190.676,1178.31 192.919,1175.77 195.162,1173.19 197.404,1170.55 199.647,1167.87 201.89,1165.14 204.133,1162.36 206.376,1159.54 208.619,1156.66 210.861,1153.73 213.104,1150.75 215.347,1147.72 217.59,1144.63 219.833,1141.5 222.075,1138.31 224.318,1135.07 226.561,1131.77 228.804,1128.43 231.047,1125.02 233.29,1121.56 235.532,1118.05 237.775,1114.48 240.018,1110.85 242.261,1107.16 244.504,1103.42 246.746,1099.62 248.989,1095.75 251.232,1091.83 253.475,1087.85 255.718,1083.81 257.961,1079.7 260.203,1075.54 262.446,1071.31 264.689,1067.01 266.932,1062.65 269.175,1058.23 271.418,1053.74 273.66,1049.19 275.903,1044.56 278.146,1039.87 280.389,1035.12 282.632,1030.29 284.874,1025.39 287.117,1020.43 289.36,1015.39 291.603,1010.28 293.846,1005.09 296.089,999.837 298.331,994.506 300.574,989.101 302.817,983.62 305.06,978.063 307.303,972.43 309.545,966.718 311.788,960.928 314.031,955.059 316.274,949.11 318.517,943.081 320.76,936.97 323.002,930.777 325.245,924.501 327.488,918.142 329.731,911.7 331.974,905.173 334.217,898.56 336.459,891.861 338.702,885.074 340.945,878.2 343.188,871.238 345.431,864.186 347.673,857.044 349.916,849.812 352.159,842.489 354.402,835.075 356.645,827.569 358.888,819.97 361.13,812.278 363.373,804.493 365.616,796.614 367.859,788.641 370.102,780.574 372.344,772.413 374.587,764.157 376.83,755.805 379.073,747.359 381.316,738.818 383.559,730.181 385.801,721.448 388.044,712.62 390.287,703.697 392.53,694.679 394.773,685.565 397.016,676.356 399.258,667.057 401.501,657.667 403.744,648.187 405.987,638.616 408.23,628.953 410.472,619.198 412.715,609.353 414.958,599.418 417.201,589.394 419.444,579.282 421.687,569.084 423.929,558.802 426.172,548.438 428.415,537.995 430.658,527.475 432.901,516.882 435.143,506.218 437.386,495.488 439.629,484.696 441.872,473.846 444.115,462.942 446.358,451.989 448.6,440.993 450.843,429.959 453.086,418.892 455.329,407.799 457.572,396.686 459.815,385.559 462.057,374.426 464.3,363.294 466.543,352.17 468.786,341.062 471.029,329.978 473.271,318.927 475.514,307.916 477.757,296.941 480,286.013 482.243,275.151 484.486,264.372 486.728,253.697 488.971,243.144 491.214,232.733 493.457,222.487 495.7,212.424 497.942,202.567 500.185,192.939 502.428,183.561 504.671,174.456 506.914,165.649 509.157,157.163 511.399,149.022 513.642,141.252 515.885,133.877 518.128,126.925 520.371,120.421 522.614,114.391 524.856,108.865 527.099,103.868 529.342,99.4307 531.585,95.5806 533.828,92.3473 536.07,89.7607 538.313,87.8509 540.556,86.6489 542.799,86.1857 545.042,86.4931 547.285,87.6034 549.527,89.5493 551.77,92.3639 554.013,96.0808 556.256,100.734 558.499,106.362 560.741,113.003 562.984,120.659 565.227,129.329 567.47,139.004 569.713,149.674 571.956,161.326 574.198,173.943 576.441,187.504 578.684,201.987 580.927,217.364 583.17,233.605 585.413,250.677 587.655,268.542 589.898,287.16 592.141,306.488 594.384,326.48 596.627,347.084 598.869,368.247 601.112,389.912 603.355,412.02 605.598,434.506 607.841,457.304 610.084,480.344 612.326,503.552 614.569,526.851 616.812,550.161 619.055,573.399 621.298,596.508 623.54,619.464 625.783,642.211 628.026,664.697 630.269,686.872 632.512,708.692 634.755,730.115 636.997,751.104 639.24,771.626 641.483,791.651 643.726,811.156 645.969,830.117 648.212,848.518 650.454,866.346 652.697,883.59 654.94,900.246 657.183,916.312 659.426,931.791 661.668,946.688 663.911,961.014 666.154,974.784 668.397,988.015 670.64,1000.73 672.883,1012.96 675.125,1024.72 677.368,1036.02 679.611,1046.85 681.854,1057.22 684.097,1067.14 686.339,1076.64 688.582,1085.73 690.825,1094.42 693.068,1102.73 695.311,1110.68 697.554,1118.27 699.796,1125.52 702.039,1132.45 704.282,1139.06 706.525,1145.37 708.768,1151.39 711.011,1157.14 713.253,1162.61 715.496,1167.83 717.739,1172.8 719.982,1177.54 722.225,1182.05 724.467,1186.33 726.71,1190.41 728.953,1194.29 731.196,1197.97 733.439,1201.48 735.682,1204.81 737.924,1207.97 740.167,1210.97 742.41,1213.82 744.653,1216.52 746.896,1219.07 749.138,1221.48 751.381,1223.77 753.624,1225.92 755.867,1227.96 758.11,1229.87 760.353,1231.68 762.595,1233.37 764.838,1234.96 767.081,1236.45 769.324,1237.84 771.567,1239.13 773.81,1240.34 776.052,1241.46 778.295,1242.49 780.538,1243.44 782.781,1244.31 785.024,1245.1 787.266,1245.81 789.509,1246.45 791.752,1247.02 793.995,1247.51 796.238,1247.94 798.481,1248.3 800.723,1248.6 802.966,1248.83 805.209,1249 807.452,1249.12 809.695,1249.17 811.938,1249.16 814.18,1249.1 816.423,1248.98 818.666,1248.81 820.909,1248.58 823.152,1248.31 825.394,1247.98 827.637,1247.59 829.88,1247.16 832.123,1246.68 834.366,1246.15 836.609,1245.57 838.851,1244.95 841.094,1244.28 843.337,1243.56 845.58,1242.79 847.823,1241.98 850.065,1241.13 852.308,1240.23 854.551,1239.29 856.794,1238.3 859.037,1237.27 861.28,1236.2 863.522,1235.08 865.765,1233.92 868.008,1232.71 870.251,1231.47 872.494,1230.18 874.737,1228.85 876.979,1227.47 879.222,1226.06 881.465,1224.6 883.708,1223.09 885.951,1221.55 888.193,1219.96 890.436,1218.33 892.679,1216.65 894.922,1214.93 897.165,1213.17 899.408,1211.37 901.65,1209.52 903.893,1207.63 906.136,1205.69 908.379,1203.71 910.622,1201.69 912.864,1199.62 915.107,1197.51 917.35,1195.35 919.593,1193.15 921.836,1190.91 924.079,1188.61 926.321,1186.28 928.564,1183.89 930.807,1181.46 933.05,1178.98 935.293,1176.46 937.536,1173.89 939.778,1171.27 942.021,1168.6 944.264,1165.89 946.507,1163.12 948.75,1160.31 950.992,1157.44 953.235,1154.53 955.478,1151.56 957.721,1148.55 959.964,1145.48 962.207,1142.36 964.449,1139.19 966.692,1135.96 968.935,1132.68 971.178,1129.35 973.421,1125.96 975.663,1122.52 977.906,1119.02 980.149,1115.47 982.392,1111.85 984.635,1108.19 986.878,1104.46 989.12,1100.67 991.363,1096.83 993.606,1092.93 995.849,1088.96 998.092,1084.94 1000.33,1080.85 1002.58,1076.7 1004.82,1072.49 1007.06,1068.22 1009.31,1063.88 1011.55,1059.48 1013.79,1055.01 1016.03,1050.47 1018.28,1045.87 1020.52,1041.2 1022.76,1036.46 1025.01,1031.66 1027.25,1026.78 1029.49,1021.84 1031.73,1016.82 1033.98,1011.73 1036.22,1006.57 1038.46,1001.34 1040.71,996.029 1042.95,990.647 1045.19,985.189 1047.43,979.656 1049.68,974.045 1051.92,968.357 1054.16,962.591 1056.41,956.745 1058.65,950.82 1060.89,944.814 1063.13,938.726 1065.38,932.557 1067.62,926.305 1069.86,919.969 1072.1,913.55 1074.35,907.046 1076.59,900.456 1078.83,893.78 1081.08,887.018 1083.32,880.169 1085.56,873.231 1087.8,866.205 1090.05,859.09 1092.29,851.886 1094.53,844.591 1096.78,837.205 1099.02,829.728 1101.26,822.159 1103.5,814.497 1105.75,806.743 1107.99,798.895 1110.23,790.953 1112.48,782.916 1114.72,774.784 1116.96,766.562 1119.2,758.254 1121.45,749.857 1123.69,741.371 1125.93,732.792 1128.18,724.12 1130.42,715.352 1132.66,706.488 1134.9,697.527 1137.15,688.468 1139.39,679.31 1141.63,670.054 1143.88,660.7 1146.12,651.247 1148.36,641.696 1150.6,632.049 1152.85,622.306 1155.09,612.468 1157.33,602.537 1159.57,592.515 1161.82,582.403 1164.06,572.204 1166.3,561.92 1168.55,551.554 1170.79,541.11 1173.03,530.589 1175.27,519.997 1177.52,509.335 1179.76,498.609 1182,487.822 1184.25,476.979 1186.49,466.084 1188.73,455.143 1190.97,444.16 1193.22,433.142 1195.46,422.093 1197.7,411.019 1199.95,399.926 1202.19,388.822 1204.43,377.712 1206.67,366.603 1208.92,355.503 1211.16,344.419 1213.4,333.357 1215.65,322.327 1217.89,311.336 1220.13,300.392 1222.37,289.504 1224.62,278.678 1226.86,267.913 1229.1,257.231 1231.35,246.652 1233.59,236.2 1235.83,225.897 1238.07,215.766 1240.32,205.829 1242.56,196.112 1244.8,186.636 1247.04,177.428 1249.29,168.51 1251.53,159.909 1253.77,151.649 1256.02,143.756 1258.26,136.255 1260.5,129.174 1262.74,122.538 1264.99,116.374 1267.23,110.709 1269.47,105.571 1271.72,100.988 1273.96,96.9883 1276.2,93.5995 1278.44,90.8509 1280.69,88.7716 1282.93,87.3911 1285.17,86.7391 1287.42,86.8458 1289.66,87.7415 1291.9,89.4572 1294.14,92.0238 1296.39,95.4729 1298.63,99.8361 1300.87,105.146 1303.12,111.434 1305.36,118.766 1307.6,127.167 1309.84,136.617 1312.09,147.093 1314.33,158.571 1316.57,171.025 1318.82,184.427 1321.06,198.747 1323.3,213.951 1325.54,230.006 1327.79,246.874 1330.03,264.516 1332.27,282.892 1334.51,301.959 1336.76,321.67 1339,341.98 1341.24,362.838 1343.49,384.193 1345.73,405.992 1347.97,428.178 1350.21,450.693 1352.46,473.479 1354.7,496.472 1356.94,519.609 1359.19,542.822 1361.43,566.045 1363.67,589.206 1365.91,612.232 1368.16,635.049 1370.4,657.581 1372.64,679.757 1374.89,701.574 1377.13,723.007 1379.37,744.023 1381.61,764.595 1383.86,784.696 1386.1,804.304 1388.34,823.398 1390.59,841.96 1392.83,859.977 1395.07,877.435 1397.31,894.327 1399.56,910.644 1401.8,926.384 1404.04,941.546 1406.29,956.131 1408.53,970.144 1410.77,983.593 1413.01,996.487 1415.26,1008.84 1417.5,1020.67 1419.74,1031.98 1421.98,1042.82 1424.23,1053.19 1426.47,1063.12 1428.71,1072.65 1430.96,1081.8 1433.2,1090.61 1435.44,1099.05 1437.68,1107.12 1439.93,1114.82 1442.17,1122.18 1444.41,1129.21 1446.66,1135.92 1448.9,1142.33 1451.14,1148.44 1453.38,1154.27 1455.63,1159.84 1457.87,1165.14 1460.11,1170.2 1462.36,1175.02 1464.6,1179.62 1466.84,1183.99 1469.08,1188.16 1471.33,1192.13 1473.57,1195.91 1475.81,1199.5 1478.06,1202.91 1480.3,1206.16 1482.54,1209.23 1484.78,1212.15 1487.03,1214.92 1489.27,1217.53 1491.51,1220 1493.76,1222.34 1496,1224.54 1498.24,1226.62 1500.48,1228.59 1502.73,1230.44 1504.97,1232.17 1507.21,1233.81 1509.46,1235.33 1511.7,1236.76 1513.94,1238.09 1516.18,1239.33 1518.43,1240.47 1520.67,1241.53 1522.91,1242.5 1525.15,1243.4 1527.4,1244.21 1529.64,1244.94 1531.88,1245.61 1534.13,1246.19 1536.37,1246.71 1538.61,1247.16 1540.85,1247.55 1543.1,1247.87 1545.34,1248.12 1547.58,1248.32 1549.83,1248.45 1552.07,1248.53 1554.31,1248.54 1556.55,1248.5 1558.8,1248.4 1561.04,1248.25 1563.28,1248.05 1565.53,1247.79 1567.77,1247.48 1570.01,1247.12 1572.25,1246.71 1574.5,1246.24 1576.74,1245.73 1578.98,1245.17 1581.23,1244.57 1583.47,1243.91 1585.71,1243.21 1587.95,1242.46 1590.2,1241.67 1592.44,1240.83 1594.68,1239.95 1596.93,1239.02 1599.17,1238.04 1601.41,1237.02 1603.65,1235.96 1605.9,1234.85 1608.14,1233.7 1610.38,1232.51 1612.62,1231.28 1614.87,1230 1617.11,1228.68 1619.35,1227.31 1621.6,1225.91 1623.84,1224.46 1626.08,1222.96 1628.32,1221.43 1630.57,1219.85 1632.81,1218.23 1635.05,1216.57 1637.3,1214.87 1639.54,1213.12 1641.78,1211.33 1644.02,1209.49 1646.27,1207.62 1648.51,1205.69 1650.75,1203.73 1653,1201.72 1655.24,1199.67 1657.48,1197.57 1659.72,1195.42 1661.97,1193.24 1664.21,1191 1666.45,1188.72 1668.7,1186.4 1670.94,1184.03 1673.18,1181.61 1675.42,1179.15 1677.67,1176.63 1679.91,1174.07 1682.15,1171.47 1684.4,1168.81 1686.64,1166.11 1688.88,1163.36 1691.12,1160.56 1693.37,1157.7 1695.61,1154.8 1697.85,1151.85 1700.09,1148.85 1702.34,1145.79 1704.58,1142.68 1706.82,1139.53 1709.07,1136.31 1711.31,1133.05 1713.55,1129.73 1715.79,1126.35 1718.04,1122.92 1720.28,1119.44 1722.52,1115.9 1724.77,1112.3 1727.01,1108.65 1729.25,1104.94 1731.49,1101.17 1733.74,1097.34 1735.98,1093.45 1738.22,1089.5 1740.47,1085.49 1742.71,1081.41 1744.95,1077.28 1747.19,1073.08 1749.44,1068.83 1751.68,1064.5 1753.92,1060.11 1756.17,1055.66 1758.41,1051.14 1760.65,1046.56 1762.89,1041.9 1765.14,1037.18 1767.38,1032.39 1769.62,1027.53 1771.87,1022.61 1774.11,1017.61 1776.35,1012.54 1778.59,1007.39 1780.84,1002.18 1783.08,996.889 1785.32,991.526 1787.56,986.088 1789.81,980.575 1792.05,974.985 1794.29,969.318 1796.54,963.573 1798.78,957.749 1801.02,951.846 1803.26,945.863 1805.51,939.798 1807.75,933.652 1809.99,927.423 1812.24,921.112 1814.48,914.717 1816.72,908.24 1818.96,901.677 1821.21,895.03 1823.45,888.296 1825.69,881.475 1827.94,874.566 1830.18,867.568 1832.42,860.481 1834.66,853.303 1836.91,846.035 1839.15,838.675 1841.39,831.223 1843.64,823.679 1845.88,816.042 1848.12,808.311 1850.36,800.487 1852.61,792.569 1854.85,784.556 1857.09,776.449 1859.34,768.247 1861.58,759.951 1863.82,751.559 1866.06,743.073 1868.31,734.492 1870.55,725.816 1872.79,717.046 1875.03,708.18 1877.28,699.221 1879.52,690.168 1881.76,681.021 1884.01,671.78 1886.25,662.447 1888.49,653.021 1890.73,643.503 1892.98,633.894 1895.22,624.193 1897.46,614.403 1899.71,604.523 1901.95,594.571 1904.19,584.55 1906.43,574.457 1908.68,564.291 1910.92,554.049 1913.16,543.73 1915.41,533.335 1917.65,522.863 1919.89,512.316 1922.13,501.694 1924.38,490.999 1926.62,480.236 1928.86,469.406 1931.11,458.514 1933.35,447.564 1935.59,436.562 1937.83,425.513 1940.08,414.424 1942.32,403.302 1944.56,392.154 1946.81,380.99 1949.05,369.817 1951.29,358.645 1953.53,347.484 1955.78,336.346 1958.02,325.242 1960.26,314.182 1962.5,303.181 1964.75,292.252 1966.99,281.408 1969.23,270.663 1971.48,260.034 1973.72,249.535 1975.96,239.183 1978.2,228.995 1980.45,218.989 1982.69,209.182 1984.93,199.594 1987.18,190.244 1989.42,181.151 1991.66,172.338 1993.9,163.825 1996.15,155.633 1998.39,147.786 2000.63,140.307 2002.88,133.219 2005.12,126.547 2007.36,120.316 2009.6,114.551 2011.85,109.279 2014.09,104.525 2016.33,100.323 2018.58,96.7188 2020.82,93.7549 2023.06,91.4726 2025.3,89.9097 2027.55,89.1017 2029.79,89.0811 2032.03,89.8781 2034.28,91.5199 2036.52,94.0314 2038.76,97.4344 2041,101.748 2043.25,106.99 2045.49,113.174 2047.73,120.311 2049.97,128.409 2052.22,137.476 2054.46,147.514 2056.7,158.524 2058.95,170.504 2061.19,183.45 2063.43,197.355 2065.67,212.208 2067.92,228.011 2070.16,244.722 2072.4,262.283 2074.65,280.634 2076.89,299.715 2079.13,319.467 2081.37,339.829 2083.62,360.741 2085.86,382.144 2088.1,403.975 2090.35,426.176 2092.59,448.684 2094.83,471.438 2097.07,494.378 2099.32,517.442 2101.56,540.568 2103.8,563.694 2106.05,586.758 2108.29,609.699 2110.53,632.453 2112.77,654.958 2115.02,677.151 2117.26,698.971 2119.5,720.386 2121.75,741.378 2123.99,761.921 2126.23,781.993 2128.47,801.573 2130.72,820.643 2132.96,839.188 2135.2,857.193 2137.45,874.649 2139.69,891.548 2141.93,907.884 2144.17,923.654 2146.42,938.858 2148.66,953.496 2150.9,967.574 2153.14,981.099 2155.39,994.079 2157.63,1006.53 2159.87,1018.46 2162.12,1029.89 2164.36,1040.83 2166.6,1051.32 2168.84,1061.37 2171.09,1071.01 2173.33,1080.28 2175.57,1089.16 2177.82,1097.64 2180.06,1105.75 2182.3,1113.5 2184.54,1120.91 2186.79,1127.98 2189.03,1134.73 2191.27,1141.17 2193.52,1147.32 2195.76,1153.19 2198,1158.79 2200.24,1164.13 2202.49,1169.22 2204.73,1174.07 2206.97,1178.7 2209.22,1183.1 2211.46,1187.29 2213.7,1191.28 2215.94,1195.08 2218.19,1198.69 2220.43,1202.11 2222.67,1205.37 2224.92,1208.45 2227.16,1211.38 2229.4,1214.15 2231.64,1216.78 2233.89,1219.27 2236.13,1221.62 2238.37,1223.85 2240.61,1225.95 2242.86,1227.93 2245.1,1229.79 2247.34,1231.54 2249.59,1233.18 2251.83,1234.72 2254.07,1236.16 2256.31,1237.51 2258.56,1238.75 2260.8,1239.91 2263.04,1240.98 2265.29,1241.97 2267.53,1242.88 2269.77,1243.7 2272.01,1244.45 2274.26,1245.13 2276.5,1245.73 2278.74,1246.26 2280.99,1246.73 2283.23,1247.12 2285.47,1247.45 2287.71,1247.72 2289.96,1247.92 2292.2,1248.06 2294.44,1248.14 2296.69,1248.17 2298.93,1248.13 2301.17,1248.04 2303.41,1247.9 2305.66,1247.7 2307.9,1247.45 2310.14,1247.14 2312.39,1246.79 2314.63,1246.38 2316.87,1245.93 2319.11,1245.42 2321.36,1244.86 2323.6,1244.26 2325.84,1243.61 2328.08,1242.91 2330.33,1242.17 2332.57,1241.38 2334.81,1240.55 2337.06,1239.67 2339.3,1238.74 2341.54,1237.77 2343.78,1236.76 2346.03,1235.7 2348.27,1234.6 2350.51,1233.46 2352.76,1232.27 "/>
<polyline clip-path="url(#clip412)" style="stroke:#c271d2; stroke-linecap:round; stroke-linejoin:round; stroke-width:4; stroke-opacity:1; fill:none" points="112.177,1239.07 114.42,1242.94 116.663,1246.72 118.906,1250.42 121.148,1254.03 123.391,1257.56 125.634,1261.01 127.877,1264.39 130.12,1267.68 132.363,1270.9 134.605,1274.05 136.848,1277.13 139.091,1280.13 141.334,1283.07 143.577,1285.94 145.819,1288.74 148.062,1291.48 150.305,1294.16 152.548,1296.77 154.791,1299.32 157.034,1301.81 159.276,1304.25 161.519,1306.63 163.762,1308.95 166.005,1311.21 168.248,1313.43 170.491,1315.59 172.733,1317.7 174.976,1319.76 177.219,1321.77 179.462,1323.73 181.705,1325.65 183.947,1327.52 186.19,1329.34 188.433,1331.12 190.676,1332.86 192.919,1334.56 195.162,1336.21 197.404,1337.83 199.647,1339.4 201.89,1340.94 204.133,1342.44 206.376,1343.9 208.619,1345.32 210.861,1346.71 213.104,1348.07 215.347,1349.39 217.59,1350.68 219.833,1351.93 222.075,1353.15 224.318,1354.35 226.561,1355.51 228.804,1356.64 231.047,1357.74 233.29,1358.81 235.532,1359.85 237.775,1360.87 240.018,1361.86 242.261,1362.82 244.504,1363.76 246.746,1364.67 248.989,1365.56 251.232,1366.42 253.475,1367.25 255.718,1368.06 257.961,1368.85 260.203,1369.62 262.446,1370.36 264.689,1371.08 266.932,1371.78 269.175,1372.46 271.418,1373.11 273.66,1373.75 275.903,1374.36 278.146,1374.96 280.389,1375.53 282.632,1376.08 284.874,1376.62 287.117,1377.13 289.36,1377.63 291.603,1378.1 293.846,1378.56 296.089,1379 298.331,1379.42 300.574,1379.82 302.817,1380.21 305.06,1380.57 307.303,1380.92 309.545,1381.25 311.788,1381.57 314.031,1381.86 316.274,1382.14 318.517,1382.4 320.76,1382.65 323.002,1382.87 325.245,1383.08 327.488,1383.27 329.731,1383.45 331.974,1383.6 334.217,1383.74 336.459,1383.86 338.702,1383.97 340.945,1384.05 343.188,1384.12 345.431,1384.17 347.673,1384.2 349.916,1384.21 352.159,1384.21 354.402,1384.18 356.645,1384.14 358.888,1384.08 361.13,1383.99 363.373,1383.89 365.616,1383.77 367.859,1383.62 370.102,1383.46 372.344,1383.27 374.587,1383.06 376.83,1382.83 379.073,1382.57 381.316,1382.29 383.559,1381.99 385.801,1381.66 388.044,1381.3 390.287,1380.92 392.53,1380.5 394.773,1380.07 397.016,1379.6 399.258,1379.1 401.501,1378.56 403.744,1377.99 405.987,1377.39 408.23,1376.75 410.472,1376.08 412.715,1375.37 414.958,1374.62 417.201,1373.84 419.444,1373.01 421.687,1372.14 423.929,1371.23 426.172,1370.27 428.415,1369.26 430.658,1368.2 432.901,1367.09 435.143,1365.92 437.386,1364.7 439.629,1363.42 441.872,1362.07 444.115,1360.65 446.358,1359.16 448.6,1357.6 450.843,1355.96 453.086,1354.24 455.329,1352.44 457.572,1350.54 459.815,1348.56 462.057,1346.47 464.3,1344.28 466.543,1341.98 468.786,1339.57 471.029,1337.04 473.271,1334.39 475.514,1331.61 477.757,1328.7 480,1325.67 482.243,1322.5 484.486,1319.18 486.728,1315.69 488.971,1312.02 491.214,1308.17 493.457,1304.11 495.7,1299.84 497.942,1295.35 500.185,1290.63 502.428,1285.65 504.671,1280.42 506.914,1274.93 509.157,1269.15 511.399,1263.09 513.642,1256.72 515.885,1250.05 518.128,1243.05 520.371,1235.73 522.614,1228.06 524.856,1220.05 527.099,1211.68 529.342,1202.93 531.585,1193.81 533.828,1184.3 536.07,1174.4 538.313,1164.09 540.556,1153.37 542.799,1142.22 545.042,1130.64 547.285,1118.62 549.527,1106.15 551.77,1093.23 554.013,1079.85 556.256,1065.99 558.499,1051.64 560.741,1036.78 562.984,1021.44 565.227,1005.66 567.47,989.484 569.713,972.952 571.956,956.111 574.198,939.005 576.441,921.679 578.684,904.18 580.927,886.553 583.17,868.848 585.413,851.111 587.655,833.391 589.898,815.739 592.141,798.205 594.384,780.839 596.627,763.694 598.869,746.821 601.112,730.275 603.355,714.108 605.598,698.375 607.841,683.133 610.084,668.435 612.326,654.34 614.569,640.905 616.812,628.187 619.055,616.245 621.298,605.118 623.54,594.807 625.783,585.34 628.026,576.737 630.269,569.015 632.512,562.19 634.755,556.269 636.997,551.258 639.24,547.16 641.483,543.972 643.726,541.686 645.969,540.293 648.212,539.779 650.454,540.124 652.697,541.307 654.94,543.301 657.183,546.075 659.426,549.595 661.668,553.822 663.911,558.715 666.154,564.226 668.397,570.305 670.64,576.898 672.883,583.946 675.125,591.387 677.368,599.213 679.611,607.435 681.854,616.02 684.097,624.935 686.339,634.151 688.582,643.639 690.825,653.369 693.068,663.315 695.311,673.451 697.554,683.752 699.796,694.196 702.039,704.759 704.282,715.42 706.525,726.159 708.768,736.957 711.011,747.798 713.253,758.663 715.496,769.537 717.739,780.407 719.982,791.259 722.225,802.081 724.467,812.863 726.71,823.595 728.953,834.266 731.196,844.86 733.439,855.371 735.682,865.792 737.924,876.118 740.167,886.343 742.41,896.463 744.653,906.473 746.896,916.367 749.138,926.143 751.381,935.797 753.624,945.325 755.867,954.723 758.11,963.99 760.353,973.123 762.595,982.119 764.838,990.977 767.081,999.695 769.324,1008.27 771.567,1016.71 773.81,1025 776.052,1033.15 778.295,1041.16 780.538,1049.03 782.781,1056.76 785.024,1064.34 787.266,1071.79 789.509,1079.1 791.752,1086.28 793.995,1093.32 796.238,1100.23 798.481,1107 800.723,1113.65 802.966,1120.16 805.209,1126.54 807.452,1132.8 809.695,1138.93 811.938,1144.94 814.18,1150.82 816.423,1156.59 818.666,1162.23 820.909,1167.76 823.152,1173.17 825.394,1178.47 827.637,1183.66 829.88,1188.73 832.123,1193.7 834.366,1198.56 836.609,1203.32 838.851,1207.97 841.094,1212.52 843.337,1216.98 845.58,1221.33 847.823,1225.59 850.065,1229.75 852.308,1233.83 854.551,1237.81 856.794,1241.7 859.037,1245.51 861.28,1249.23 863.522,1252.87 865.765,1256.43 868.008,1259.9 870.251,1263.3 872.494,1266.62 874.737,1269.86 876.979,1273.03 879.222,1276.13 881.465,1279.16 883.708,1282.12 885.951,1285.01 888.193,1287.83 890.436,1290.59 892.679,1293.29 894.922,1295.92 897.165,1298.49 899.408,1301 901.65,1303.45 903.893,1305.85 906.136,1308.19 908.379,1310.47 910.622,1312.7 912.864,1314.88 915.107,1317.01 917.35,1319.09 919.593,1321.11 921.836,1323.09 924.079,1325.02 926.321,1326.91 928.564,1328.75 930.807,1330.54 933.05,1332.3 935.293,1334.01 937.536,1335.67 939.778,1337.3 942.021,1338.89 944.264,1340.44 946.507,1341.95 948.75,1343.42 950.992,1344.85 953.235,1346.25 955.478,1347.62 957.721,1348.95 959.964,1350.25 962.207,1351.51 964.449,1352.74 966.692,1353.94 968.935,1355.11 971.178,1356.25 973.421,1357.36 975.663,1358.44 977.906,1359.49 980.149,1360.52 982.392,1361.51 984.635,1362.48 986.878,1363.43 989.12,1364.35 991.363,1365.24 993.606,1366.11 995.849,1366.95 998.092,1367.77 1000.33,1368.57 1002.58,1369.34 1004.82,1370.09 1007.06,1370.82 1009.31,1371.53 1011.55,1372.21 1013.79,1372.88 1016.03,1373.52 1018.28,1374.14 1020.52,1374.74 1022.76,1375.32 1025.01,1375.88 1027.25,1376.42 1029.49,1376.94 1031.73,1377.45 1033.98,1377.93 1036.22,1378.39 1038.46,1378.83 1040.71,1379.26 1042.95,1379.67 1045.19,1380.06 1047.43,1380.43 1049.68,1380.78 1051.92,1381.12 1054.16,1381.44 1056.41,1381.74 1058.65,1382.02 1060.89,1382.29 1063.13,1382.54 1065.38,1382.77 1067.62,1382.98 1069.86,1383.18 1072.1,1383.36 1074.35,1383.52 1076.59,1383.67 1078.83,1383.79 1081.08,1383.9 1083.32,1383.99 1085.56,1384.07 1087.8,1384.12 1090.05,1384.16 1092.29,1384.18 1094.53,1384.18 1096.78,1384.16 1099.02,1384.12 1101.26,1384.06 1103.5,1383.99 1105.75,1383.89 1107.99,1383.77 1110.23,1383.63 1112.48,1383.47 1114.72,1383.29 1116.96,1383.08 1119.2,1382.85 1121.45,1382.58 1123.69,1382.29 1125.93,1381.98 1128.18,1381.63 1130.42,1381.27 1132.66,1380.87 1134.9,1380.45 1137.15,1380 1139.39,1379.52 1141.63,1379.02 1143.88,1378.48 1146.12,1377.92 1148.36,1377.33 1150.6,1376.71 1152.85,1376.05 1155.09,1375.36 1157.33,1374.63 1159.57,1373.87 1161.82,1373.07 1164.06,1372.22 1166.3,1371.34 1168.55,1370.41 1170.79,1369.43 1173.03,1368.4 1175.27,1367.32 1177.52,1366.18 1179.76,1364.99 1182,1363.73 1184.25,1362.41 1186.49,1361.02 1188.73,1359.57 1190.97,1358.03 1193.22,1356.42 1195.46,1354.73 1197.7,1352.95 1199.95,1351.08 1202.19,1349.12 1204.43,1347.06 1206.67,1344.89 1208.92,1342.62 1211.16,1340.24 1213.4,1337.74 1215.65,1335.11 1217.89,1332.36 1220.13,1329.48 1222.37,1326.45 1224.62,1323.29 1226.86,1319.99 1229.1,1316.54 1231.35,1312.93 1233.59,1309.14 1235.83,1305.15 1238.07,1300.97 1240.32,1296.57 1242.56,1291.93 1244.8,1287.06 1247.04,1281.93 1249.29,1276.53 1251.53,1270.86 1253.77,1264.89 1256.02,1258.63 1258.26,1252.05 1260.5,1245.16 1262.74,1237.93 1264.99,1230.36 1267.23,1222.44 1269.47,1214.16 1271.72,1205.51 1273.96,1196.48 1276.2,1187.07 1278.44,1177.26 1280.69,1167.04 1282.93,1156.42 1285.17,1145.38 1287.42,1133.91 1289.66,1122.01 1291.9,1109.68 1294.14,1096.89 1296.39,1083.66 1298.63,1069.97 1300.87,1055.82 1303.12,1041.21 1305.36,1026.07 1307.6,1010.42 1309.84,994.31 1312.09,977.797 1314.33,960.937 1316.57,943.787 1318.82,926.401 1321.06,908.835 1323.3,891.143 1325.54,873.377 1327.79,855.592 1330.03,837.839 1332.27,820.171 1334.51,802.639 1336.76,785.293 1339,768.184 1341.24,751.362 1343.49,734.875 1345.73,718.773 1347.97,703.103 1350.21,687.914 1352.46,673.251 1354.7,659.161 1356.94,645.691 1359.19,632.885 1361.43,620.788 1363.67,609.444 1365.91,598.898 1368.16,589.191 1370.4,580.367 1372.64,572.462 1374.89,565.47 1377.13,559.383 1379.37,554.196 1381.61,549.904 1383.86,546.498 1386.1,543.965 1388.34,542.294 1390.59,541.468 1392.83,541.472 1395.07,542.285 1397.31,543.887 1399.56,546.253 1401.8,549.359 1404.04,553.177 1406.29,557.677 1408.53,562.828 1410.77,568.596 1413.01,574.945 1415.26,581.837 1417.5,589.232 1419.74,597.088 1421.98,605.361 1424.23,614.004 1426.47,622.971 1428.71,632.209 1430.96,641.667 1433.2,651.295 1435.44,661.118 1437.68,671.135 1439.93,681.322 1442.17,691.659 1444.41,702.122 1446.66,712.693 1448.9,723.351 1451.14,734.078 1453.38,744.856 1455.63,755.668 1457.87,766.499 1460.11,777.333 1462.36,788.156 1464.6,798.954 1466.84,809.717 1469.08,820.431 1471.33,831.086 1473.57,841.672 1475.81,852.182 1478.06,862.606 1480.3,872.938 1482.54,883.171 1484.78,893.301 1487.03,903.322 1489.27,913.231 1491.51,923.027 1493.76,932.702 1496,942.249 1498.24,951.666 1500.48,960.951 1502.73,970.103 1504.97,979.121 1507.21,988.003 1509.46,996.748 1511.7,1005.36 1513.94,1013.83 1516.18,1022.16 1518.43,1030.35 1520.67,1038.4 1522.91,1046.31 1525.15,1054.08 1527.4,1061.72 1529.64,1069.21 1531.88,1076.57 1534.13,1083.79 1536.37,1090.87 1538.61,1097.82 1540.85,1104.63 1543.1,1111.31 1545.34,1117.85 1547.58,1124.27 1549.83,1130.56 1552.07,1136.72 1554.31,1142.76 1556.55,1148.68 1558.8,1154.47 1561.04,1160.15 1563.28,1165.71 1565.53,1171.16 1567.77,1176.49 1570.01,1181.71 1572.25,1186.82 1574.5,1191.82 1576.74,1196.71 1578.98,1201.5 1581.23,1206.18 1583.47,1210.77 1585.71,1215.25 1587.95,1219.64 1590.2,1223.93 1592.44,1228.12 1594.68,1232.23 1596.93,1236.24 1599.17,1240.16 1601.41,1244 1603.65,1247.75 1605.9,1251.42 1608.14,1255 1610.38,1258.51 1612.62,1261.93 1614.87,1265.28 1617.11,1268.55 1619.35,1271.74 1621.6,1274.86 1623.84,1277.91 1626.08,1280.89 1628.32,1283.81 1630.57,1286.65 1632.81,1289.43 1635.05,1292.15 1637.3,1294.8 1639.54,1297.39 1641.78,1299.92 1644.02,1302.39 1646.27,1304.81 1648.51,1307.16 1650.75,1309.46 1653,1311.71 1655.24,1313.91 1657.48,1316.05 1659.72,1318.14 1661.97,1320.18 1664.21,1322.18 1666.45,1324.12 1668.7,1326.02 1670.94,1327.88 1673.18,1329.69 1675.42,1331.45 1677.67,1333.18 1679.91,1334.86 1682.15,1336.5 1684.4,1338.1 1686.64,1339.67 1688.88,1341.19 1691.12,1342.68 1693.37,1344.13 1695.61,1345.54 1697.85,1346.92 1700.09,1348.27 1702.34,1349.58 1704.58,1350.86 1706.82,1352.1 1709.07,1353.32 1711.31,1354.5 1713.55,1355.65 1715.79,1356.77 1718.04,1357.86 1720.28,1358.93 1722.52,1359.96 1724.77,1360.97 1727.01,1361.95 1729.25,1362.9 1731.49,1363.83 1733.74,1364.73 1735.98,1365.6 1738.22,1366.45 1740.47,1367.28 1742.71,1368.08 1744.95,1368.86 1747.19,1369.62 1749.44,1370.35 1751.68,1371.06 1753.92,1371.75 1756.17,1372.42 1758.41,1373.07 1760.65,1373.7 1762.89,1374.3 1765.14,1374.89 1767.38,1375.45 1769.62,1376 1771.87,1376.53 1774.11,1377.03 1776.35,1377.52 1778.59,1377.99 1780.84,1378.44 1783.08,1378.88 1785.32,1379.29 1787.56,1379.69 1789.81,1380.06 1792.05,1380.42 1794.29,1380.76 1796.54,1381.09 1798.78,1381.4 1801.02,1381.68 1803.26,1381.96 1805.51,1382.21 1807.75,1382.45 1809.99,1382.66 1812.24,1382.86 1814.48,1383.05 1816.72,1383.21 1818.96,1383.36 1821.21,1383.49 1823.45,1383.6 1825.69,1383.69 1827.94,1383.77 1830.18,1383.82 1832.42,1383.86 1834.66,1383.88 1836.91,1383.89 1839.15,1383.87 1841.39,1383.83 1843.64,1383.78 1845.88,1383.71 1848.12,1383.61 1850.36,1383.5 1852.61,1383.37 1854.85,1383.21 1857.09,1383.04 1859.34,1382.84 1861.58,1382.62 1863.82,1382.37 1866.06,1382.1 1868.31,1381.81 1870.55,1381.49 1872.79,1381.15 1875.03,1380.78 1877.28,1380.38 1879.52,1379.95 1881.76,1379.5 1884.01,1379.01 1886.25,1378.49 1888.49,1377.94 1890.73,1377.36 1892.98,1376.74 1895.22,1376.09 1897.46,1375.4 1899.71,1374.67 1901.95,1373.9 1904.19,1373.08 1906.43,1372.2 1908.68,1371.28 1910.92,1370.31 1913.16,1369.29 1915.41,1368.21 1917.65,1367.09 1919.89,1365.91 1922.13,1364.67 1924.38,1363.38 1926.62,1362.03 1928.86,1360.62 1931.11,1359.14 1933.35,1357.6 1935.59,1355.98 1937.83,1354.29 1940.08,1352.51 1942.32,1350.66 1944.56,1348.72 1946.81,1346.68 1949.05,1344.55 1951.29,1342.31 1953.53,1339.97 1955.78,1337.51 1958.02,1334.93 1960.26,1332.22 1962.5,1329.37 1964.75,1326.39 1966.99,1323.25 1969.23,1319.96 1971.48,1316.51 1973.72,1312.88 1975.96,1309.06 1978.2,1305.06 1980.45,1300.86 1982.69,1296.45 1984.93,1291.82 1987.18,1286.96 1989.42,1281.87 1991.66,1276.52 1993.9,1270.91 1996.15,1265.03 1998.39,1258.87 2000.63,1252.41 2002.88,1245.65 2005.12,1238.57 2007.36,1231.15 2009.6,1223.39 2011.85,1215.28 2014.09,1206.79 2016.33,1197.93 2018.58,1188.68 2020.82,1179.02 2023.06,1168.93 2025.3,1158.41 2027.55,1147.44 2029.79,1136.03 2032.03,1124.16 2034.28,1111.84 2036.52,1099.06 2038.76,1085.83 2041,1072.16 2043.25,1058.06 2045.49,1043.52 2047.73,1028.58 2049.97,1013.25 2052.22,997.536 2054.46,981.47 2056.7,965.072 2058.95,948.369 2061.19,931.389 2063.43,914.162 2065.67,896.723 2067.92,879.099 2070.16,861.349 2072.4,843.545 2074.65,825.756 2076.89,808.05 2079.13,790.493 2081.37,773.146 2083.62,756.072 2085.86,739.329 2088.1,722.974 2090.35,707.062 2092.59,691.645 2094.83,676.774 2097.07,662.497 2099.32,648.86 2101.56,635.907 2103.8,623.681 2106.05,612.221 2108.29,601.566 2110.53,591.75 2112.77,582.807 2115.02,574.769 2117.26,567.664 2119.5,561.493 2121.75,556.239 2123.99,551.89 2126.23,548.433 2128.47,545.854 2130.72,544.135 2132.96,543.259 2135.2,543.205 2137.45,543.953 2139.69,545.478 2141.93,547.757 2144.17,550.763 2146.42,554.467 2148.66,558.842 2150.9,563.854 2153.14,569.472 2155.39,575.66 2157.63,582.383 2159.87,589.604 2162.12,597.282 2164.36,605.376 2166.6,613.845 2168.84,622.643 2171.09,631.726 2173.33,641.045 2175.57,650.593 2177.82,660.369 2180.06,670.345 2182.3,680.498 2184.54,690.806 2186.79,701.244 2189.03,711.793 2191.27,722.432 2193.52,733.142 2195.76,743.904 2198,754.702 2200.24,765.518 2202.49,776.338 2204.73,787.148 2206.97,797.934 2209.22,808.684 2211.46,819.386 2213.7,830.03 2215.94,840.608 2218.19,851.11 2220.43,861.529 2222.67,871.86 2224.92,882.096 2227.16,892.233 2229.4,902.261 2231.64,912.173 2233.89,921.967 2236.13,931.64 2238.37,941.189 2240.61,950.611 2242.86,959.903 2245.1,969.064 2247.34,978.092 2249.59,986.984 2251.83,995.741 2254.07,1004.36 2256.31,1012.84 2258.56,1021.18 2260.8,1029.38 2263.04,1037.44 2265.29,1045.36 2267.53,1053.14 2269.77,1060.78 2272.01,1068.28 2274.26,1075.64 2276.5,1082.86 2278.74,1089.95 2280.99,1096.9 2283.23,1103.72 2285.47,1110.41 2287.71,1116.97 2289.96,1123.4 2292.2,1129.7 2294.44,1135.88 2296.69,1141.93 2298.93,1147.86 2301.17,1153.67 2303.41,1159.36 2305.66,1164.93 2307.9,1170.39 2310.14,1175.73 2312.39,1180.96 2314.63,1186.08 2316.87,1191.1 2319.11,1196 2321.36,1200.8 2323.6,1205.5 2325.84,1210.09 2328.08,1214.59 2330.33,1218.98 2332.57,1223.28 2334.81,1227.49 2337.06,1231.6 2339.3,1235.62 2341.54,1239.55 2343.78,1243.4 2346.03,1247.16 2348.27,1250.83 2350.51,1254.42 2352.76,1257.93 "/>
<path clip-path="url(#clip410)" d="M186.863 352.309 L500.018 352.309 L500.018 93.1086 L186.863 93.1086  Z" fill="#ffffff" fill-rule="evenodd" fill-opacity="1"/>
<polyline clip-path="url(#clip410)" style="stroke:#000000; stroke-linecap:round; stroke-linejoin:round; stroke-width:4; stroke-opacity:1; fill:none" points="186.863,352.309 500.018,352.309 500.018,93.1086 186.863,93.1086 186.863,352.309 "/>
<polyline clip-path="url(#clip410)" style="stroke:#009af9; stroke-linecap:round; stroke-linejoin:round; stroke-width:4; stroke-opacity:1; fill:none" points="211.758,144.949 361.13,144.949 "/>
<path clip-path="url(#clip410)" d="M386.026 151.997 L386.026 136.303 L390.285 136.303 L390.285 151.835 Q390.285 155.516 391.72 157.368 Q393.155 159.196 396.026 159.196 Q399.475 159.196 401.465 156.997 Q403.479 154.798 403.479 151.002 L403.479 136.303 L407.739 136.303 L407.739 162.229 L403.479 162.229 L403.479 158.247 Q401.928 160.608 399.868 161.766 Q397.831 162.9 395.123 162.9 Q390.655 162.9 388.34 160.122 Q386.026 157.344 386.026 151.997 M396.743 135.678 L396.743 135.678 Z" fill="#000000" fill-rule="nonzero" fill-opacity="1" /><path clip-path="url(#clip410)" d="M416.118 126.21 L425.933 126.21 L425.933 129.52 L420.377 129.52 L420.377 165.168 L425.933 165.168 L425.933 168.479 L416.118 168.479 L416.118 126.21 Z" fill="#000000" fill-rule="nonzero" fill-opacity="1" /><path clip-path="url(#clip410)" d="M436.419 158.293 L444.058 158.293 L444.058 131.928 L435.748 133.595 L435.748 129.335 L444.011 127.669 L448.687 127.669 L448.687 158.293 L456.326 158.293 L456.326 162.229 L436.419 162.229 L436.419 158.293 Z" fill="#000000" fill-rule="nonzero" fill-opacity="1" /><path clip-path="url(#clip410)" d="M475.122 126.21 L475.122 168.479 L465.308 168.479 L465.308 165.168 L470.84 165.168 L470.84 129.52 L465.308 129.52 L465.308 126.21 L475.122 126.21 Z" fill="#000000" fill-rule="nonzero" fill-opacity="1" /><polyline clip-path="url(#clip410)" style="stroke:#e26f46; stroke-linecap:round; stroke-linejoin:round; stroke-width:4; stroke-opacity:1; fill:none" points="211.758,196.789 361.13,196.789 "/>
<path clip-path="url(#clip410)" d="M386.026 203.837 L386.026 188.143 L390.285 188.143 L390.285 203.675 Q390.285 207.356 391.72 209.208 Q393.155 211.036 396.026 211.036 Q399.475 211.036 401.465 208.837 Q403.479 206.638 403.479 202.842 L403.479 188.143 L407.739 188.143 L407.739 214.069 L403.479 214.069 L403.479 210.087 Q401.928 212.448 399.868 213.606 Q397.831 214.74 395.123 214.74 Q390.655 214.74 388.34 211.962 Q386.026 209.184 386.026 203.837 M396.743 187.518 L396.743 187.518 Z" fill="#000000" fill-rule="nonzero" fill-opacity="1" /><path clip-path="url(#clip410)" d="M416.118 178.05 L425.933 178.05 L425.933 181.36 L420.377 181.36 L420.377 217.008 L425.933 217.008 L425.933 220.319 L416.118 220.319 L416.118 178.05 Z" fill="#000000" fill-rule="nonzero" fill-opacity="1" /><path clip-path="url(#clip410)" d="M439.637 210.133 L455.956 210.133 L455.956 214.069 L434.012 214.069 L434.012 210.133 Q436.674 207.379 441.257 202.749 Q445.863 198.096 447.044 196.754 Q449.289 194.231 450.169 192.495 Q451.072 190.735 451.072 189.046 Q451.072 186.291 449.127 184.555 Q447.206 182.819 444.104 182.819 Q441.905 182.819 439.451 183.583 Q437.021 184.347 434.243 185.897 L434.243 181.175 Q437.067 180.041 439.521 179.462 Q441.974 178.884 444.011 178.884 Q449.382 178.884 452.576 181.569 Q455.771 184.254 455.771 188.745 Q455.771 190.874 454.961 192.796 Q454.173 194.694 452.067 197.286 Q451.488 197.958 448.386 201.175 Q445.285 204.37 439.637 210.133 Z" fill="#000000" fill-rule="nonzero" fill-opacity="1" /><path clip-path="url(#clip410)" d="M475.122 178.05 L475.122 220.319 L465.308 220.319 L465.308 217.008 L470.84 217.008 L470.84 181.36 L465.308 181.36 L465.308 178.05 L475.122 178.05 Z" fill="#000000" fill-rule="nonzero" fill-opacity="1" /><polyline clip-path="url(#clip410)" style="stroke:#3da44d; stroke-linecap:round; stroke-linejoin:round; stroke-width:4; stroke-opacity:1; fill:none" points="211.758,248.629 361.13,248.629 "/>
<path clip-path="url(#clip410)" d="M386.026 255.677 L386.026 239.983 L390.285 239.983 L390.285 255.515 Q390.285 259.196 391.72 261.048 Q393.155 262.876 396.026 262.876 Q399.475 262.876 401.465 260.677 Q403.479 258.478 403.479 254.682 L403.479 239.983 L407.739 239.983 L407.739 265.909 L403.479 265.909 L403.479 261.927 Q401.928 264.288 399.868 265.446 Q397.831 266.58 395.123 266.58 Q390.655 266.58 388.34 263.802 Q386.026 261.024 386.026 255.677 M396.743 239.358 L396.743 239.358 Z" fill="#000000" fill-rule="nonzero" fill-opacity="1" /><path clip-path="url(#clip410)" d="M416.118 229.89 L425.933 229.89 L425.933 233.2 L420.377 233.2 L420.377 268.848 L425.933 268.848 L425.933 272.159 L416.118 272.159 L416.118 229.89 Z" fill="#000000" fill-rule="nonzero" fill-opacity="1" /><path clip-path="url(#clip410)" d="M436.419 261.973 L444.058 261.973 L444.058 235.608 L435.748 237.275 L435.748 233.015 L444.011 231.349 L448.687 231.349 L448.687 261.973 L456.326 261.973 L456.326 265.909 L436.419 265.909 L436.419 261.973 Z" fill="#000000" fill-rule="nonzero" fill-opacity="1" /><path clip-path="url(#clip410)" d="M475.122 229.89 L475.122 272.159 L465.308 272.159 L465.308 268.848 L470.84 268.848 L470.84 233.2 L465.308 233.2 L465.308 229.89 L475.122 229.89 Z" fill="#000000" fill-rule="nonzero" fill-opacity="1" /><polyline clip-path="url(#clip410)" style="stroke:#c271d2; stroke-linecap:round; stroke-linejoin:round; stroke-width:4; stroke-opacity:1; fill:none" points="211.758,300.469 361.13,300.469 "/>
<path clip-path="url(#clip410)" d="M386.026 307.517 L386.026 291.823 L390.285 291.823 L390.285 307.355 Q390.285 311.036 391.72 312.888 Q393.155 314.716 396.026 314.716 Q399.475 314.716 401.465 312.517 Q403.479 310.318 403.479 306.522 L403.479 291.823 L407.739 291.823 L407.739 317.749 L403.479 317.749 L403.479 313.767 Q401.928 316.128 399.868 317.286 Q397.831 318.42 395.123 318.42 Q390.655 318.42 388.34 315.642 Q386.026 312.864 386.026 307.517 M396.743 291.198 L396.743 291.198 Z" fill="#000000" fill-rule="nonzero" fill-opacity="1" /><path clip-path="url(#clip410)" d="M416.118 281.73 L425.933 281.73 L425.933 285.04 L420.377 285.04 L420.377 320.688 L425.933 320.688 L425.933 323.999 L416.118 323.999 L416.118 281.73 Z" fill="#000000" fill-rule="nonzero" fill-opacity="1" /><path clip-path="url(#clip410)" d="M439.637 313.813 L455.956 313.813 L455.956 317.749 L434.012 317.749 L434.012 313.813 Q436.674 311.059 441.257 306.429 Q445.863 301.776 447.044 300.434 Q449.289 297.911 450.169 296.175 Q451.072 294.415 451.072 292.726 Q451.072 289.971 449.127 288.235 Q447.206 286.499 444.104 286.499 Q441.905 286.499 439.451 287.263 Q437.021 288.027 434.243 289.577 L434.243 284.855 Q437.067 283.721 439.521 283.142 Q441.974 282.564 444.011 282.564 Q449.382 282.564 452.576 285.249 Q455.771 287.934 455.771 292.425 Q455.771 294.554 454.961 296.476 Q454.173 298.374 452.067 300.966 Q451.488 301.638 448.386 304.855 Q445.285 308.05 439.637 313.813 Z" fill="#000000" fill-rule="nonzero" fill-opacity="1" /><path clip-path="url(#clip410)" d="M475.122 281.73 L475.122 323.999 L465.308 323.999 L465.308 320.688 L470.84 320.688 L470.84 285.04 L465.308 285.04 L465.308 281.73 L475.122 281.73 Z" fill="#000000" fill-rule="nonzero" fill-opacity="1" /></svg>
