<?xml version="1.0" encoding="utf-8"?>
<svg xmlns="http://www.w3.org/2000/svg" xmlns:xlink="http://www.w3.org/1999/xlink" width="600" height="400" viewBox="0 0 2400 1600">
<defs>
  <clipPath id="clip850">
    <rect x="0" y="0" width="2400" height="1600"/>
  </clipPath>
</defs>
<path clip-path="url(#clip850)" d="M0 1600 L2400 1600 L2400 0 L0 0  Z" fill="#ffffff" fill-rule="evenodd" fill-opacity="1"/>
<defs>
  <clipPath id="clip851">
    <rect x="480" y="0" width="1681" height="1600"/>
  </clipPath>
</defs>
<path clip-path="url(#clip850)" d="M112.177 1423.18 L2352.76 1423.18 L2352.76 47.2441 L112.177 47.2441  Z" fill="#ffffff" fill-rule="evenodd" fill-opacity="1"/>
<defs>
  <clipPath id="clip852">
    <rect x="112" y="47" width="2242" height="1377"/>
  </clipPath>
</defs>
<polyline clip-path="url(#clip852)" style="stroke:#000000; stroke-linecap:round; stroke-linejoin:round; stroke-width:2; stroke-opacity:0.1; fill:none" points="112.177,1423.18 112.177,47.2441 "/>
<polyline clip-path="url(#clip852)" style="stroke:#000000; stroke-linecap:round; stroke-linejoin:round; stroke-width:2; stroke-opacity:0.1; fill:none" points="560.293,1423.18 560.293,47.2441 "/>
<polyline clip-path="url(#clip852)" style="stroke:#000000; stroke-linecap:round; stroke-linejoin:round; stroke-width:2; stroke-opacity:0.1; fill:none" points="1008.41,1423.18 1008.41,47.2441 "/>
<polyline clip-path="url(#clip852)" style="stroke:#000000; stroke-linecap:round; stroke-linejoin:round; stroke-width:2; stroke-opacity:0.1; fill:none" points="1456.52,1423.18 1456.52,47.2441 "/>
<polyline clip-path="url(#clip852)" style="stroke:#000000; stroke-linecap:round; stroke-linejoin:round; stroke-width:2; stroke-opacity:0.1; fill:none" points="1904.64,1423.18 1904.64,47.2441 "/>
<polyline clip-path="url(#clip852)" style="stroke:#000000; stroke-linecap:round; stroke-linejoin:round; stroke-width:2; stroke-opacity:0.1; fill:none" points="2352.76,1423.18 2352.76,47.2441 "/>
<polyline clip-path="url(#clip850)" style="stroke:#000000; stroke-linecap:round; stroke-linejoin:round; stroke-width:4; stroke-opacity:1; fill:none" points="112.177,1423.18 2352.76,1423.18 "/>
<polyline clip-path="url(#clip850)" style="stroke:#000000; stroke-linecap:round; stroke-linejoin:round; stroke-width:4; stroke-opacity:1; fill:none" points="112.177,1423.18 112.177,1404.28 "/>
<polyline clip-path="url(#clip850)" style="stroke:#000000; stroke-linecap:round; stroke-linejoin:round; stroke-width:4; stroke-opacity:1; fill:none" points="560.293,1423.18 560.293,1404.28 "/>
<polyline clip-path="url(#clip850)" style="stroke:#000000; stroke-linecap:round; stroke-linejoin:round; stroke-width:4; stroke-opacity:1; fill:none" points="1008.41,1423.18 1008.41,1404.28 "/>
<polyline clip-path="url(#clip850)" style="stroke:#000000; stroke-linecap:round; stroke-linejoin:round; stroke-width:4; stroke-opacity:1; fill:none" points="1456.52,1423.18 1456.52,1404.28 "/>
<polyline clip-path="url(#clip850)" style="stroke:#000000; stroke-linecap:round; stroke-linejoin:round; stroke-width:4; stroke-opacity:1; fill:none" points="1904.64,1423.18 1904.64,1404.28 "/>
<polyline clip-path="url(#clip850)" style="stroke:#000000; stroke-linecap:round; stroke-linejoin:round; stroke-width:4; stroke-opacity:1; fill:none" points="2352.76,1423.18 2352.76,1404.28 "/>
<path clip-path="url(#clip850)" d="M112.177 1454.1 Q108.566 1454.1 106.737 1457.66 Q104.932 1461.2 104.932 1468.33 Q104.932 1475.44 106.737 1479.01 Q108.566 1482.55 112.177 1482.55 Q115.811 1482.55 117.617 1479.01 Q119.446 1475.44 119.446 1468.33 Q119.446 1461.2 117.617 1457.66 Q115.811 1454.1 112.177 1454.1 M112.177 1450.39 Q117.987 1450.39 121.043 1455 Q124.122 1459.58 124.122 1468.33 Q124.122 1477.06 121.043 1481.67 Q117.987 1486.25 112.177 1486.25 Q106.367 1486.25 103.288 1481.67 Q100.233 1477.06 100.233 1468.33 Q100.233 1459.58 103.288 1455 Q106.367 1450.39 112.177 1450.39 Z" fill="#000000" fill-rule="nonzero" fill-opacity="1" /><path clip-path="url(#clip850)" d="M554.946 1481.64 L571.265 1481.64 L571.265 1485.58 L549.321 1485.58 L549.321 1481.64 Q551.983 1478.89 556.566 1474.26 Q561.173 1469.61 562.353 1468.27 Q564.598 1465.74 565.478 1464.01 Q566.381 1462.25 566.381 1460.56 Q566.381 1457.8 564.436 1456.07 Q562.515 1454.33 559.413 1454.33 Q557.214 1454.33 554.761 1455.09 Q552.33 1455.86 549.552 1457.41 L549.552 1452.69 Q552.376 1451.55 554.83 1450.97 Q557.284 1450.39 559.321 1450.39 Q564.691 1450.39 567.885 1453.08 Q571.08 1455.77 571.08 1460.26 Q571.08 1462.39 570.27 1464.31 Q569.483 1466.2 567.376 1468.8 Q566.798 1469.47 563.696 1472.69 Q560.594 1475.88 554.946 1481.64 Z" fill="#000000" fill-rule="nonzero" fill-opacity="1" /><path clip-path="url(#clip850)" d="M1011.42 1455.09 L999.612 1473.54 L1011.42 1473.54 L1011.42 1455.09 M1010.19 1451.02 L1016.07 1451.02 L1016.07 1473.54 L1021 1473.54 L1021 1477.43 L1016.07 1477.43 L1016.07 1485.58 L1011.42 1485.58 L1011.42 1477.43 L995.816 1477.43 L995.816 1472.92 L1010.19 1451.02 Z" fill="#000000" fill-rule="nonzero" fill-opacity="1" /><path clip-path="url(#clip850)" d="M1456.93 1466.44 Q1453.78 1466.44 1451.93 1468.59 Q1450.1 1470.74 1450.1 1474.49 Q1450.1 1478.22 1451.93 1480.39 Q1453.78 1482.55 1456.93 1482.55 Q1460.08 1482.55 1461.91 1480.39 Q1463.76 1478.22 1463.76 1474.49 Q1463.76 1470.74 1461.91 1468.59 Q1460.08 1466.44 1456.93 1466.44 M1466.21 1451.78 L1466.21 1456.04 Q1464.45 1455.21 1462.65 1454.77 Q1460.86 1454.33 1459.11 1454.33 Q1454.48 1454.33 1452.02 1457.45 Q1449.59 1460.58 1449.24 1466.9 Q1450.61 1464.89 1452.67 1463.82 Q1454.73 1462.73 1457.21 1462.73 Q1462.42 1462.73 1465.42 1465.9 Q1468.46 1469.05 1468.46 1474.49 Q1468.46 1479.82 1465.31 1483.03 Q1462.16 1486.25 1456.93 1486.25 Q1450.93 1486.25 1447.76 1481.67 Q1444.59 1477.06 1444.59 1468.33 Q1444.59 1460.14 1448.48 1455.28 Q1452.37 1450.39 1458.92 1450.39 Q1460.68 1450.39 1462.46 1450.74 Q1464.27 1451.09 1466.21 1451.78 Z" fill="#000000" fill-rule="nonzero" fill-opacity="1" /><path clip-path="url(#clip850)" d="M1904.64 1469.17 Q1901.31 1469.17 1899.39 1470.95 Q1897.49 1472.73 1897.49 1475.86 Q1897.49 1478.98 1899.39 1480.77 Q1901.31 1482.55 1904.64 1482.55 Q1907.97 1482.55 1909.89 1480.77 Q1911.82 1478.96 1911.82 1475.86 Q1911.82 1472.73 1909.89 1470.95 Q1908 1469.17 1904.64 1469.17 M1899.96 1467.18 Q1896.96 1466.44 1895.27 1464.38 Q1893.6 1462.32 1893.6 1459.35 Q1893.6 1455.21 1896.54 1452.8 Q1899.5 1450.39 1904.64 1450.39 Q1909.8 1450.39 1912.74 1452.8 Q1915.68 1455.21 1915.68 1459.35 Q1915.68 1462.32 1913.99 1464.38 Q1912.33 1466.44 1909.34 1467.18 Q1912.72 1467.96 1914.59 1470.26 Q1916.49 1472.55 1916.49 1475.86 Q1916.49 1480.88 1913.41 1483.57 Q1910.36 1486.25 1904.64 1486.25 Q1898.92 1486.25 1895.84 1483.57 Q1892.79 1480.88 1892.79 1475.86 Q1892.79 1472.55 1894.69 1470.26 Q1896.58 1467.96 1899.96 1467.18 M1898.25 1459.79 Q1898.25 1462.48 1899.92 1463.98 Q1901.61 1465.49 1904.64 1465.49 Q1907.65 1465.49 1909.34 1463.98 Q1911.05 1462.48 1911.05 1459.79 Q1911.05 1457.11 1909.34 1455.6 Q1907.65 1454.1 1904.64 1454.1 Q1901.61 1454.1 1899.92 1455.6 Q1898.25 1457.11 1898.25 1459.79 Z" fill="#000000" fill-rule="nonzero" fill-opacity="1" /><path clip-path="url(#clip850)" d="M2327.44 1481.64 L2335.08 1481.64 L2335.08 1455.28 L2326.77 1456.95 L2326.77 1452.69 L2335.04 1451.02 L2339.71 1451.02 L2339.71 1481.64 L2347.35 1481.64 L2347.35 1485.58 L2327.44 1485.58 L2327.44 1481.64 Z" fill="#000000" fill-rule="nonzero" fill-opacity="1" /><path clip-path="url(#clip850)" d="M2366.8 1454.1 Q2363.18 1454.1 2361.36 1457.66 Q2359.55 1461.2 2359.55 1468.33 Q2359.55 1475.44 2361.36 1479.01 Q2363.18 1482.55 2366.8 1482.55 Q2370.43 1482.55 2372.23 1479.01 Q2374.06 1475.44 2374.06 1468.33 Q2374.06 1461.2 2372.23 1457.66 Q2370.43 1454.1 2366.8 1454.1 M2366.8 1450.39 Q2372.61 1450.39 2375.66 1455 Q2378.74 1459.58 2378.74 1468.33 Q2378.74 1477.06 2375.66 1481.67 Q2372.61 1486.25 2366.8 1486.25 Q2360.99 1486.25 2357.91 1481.67 Q2354.85 1477.06 2354.85 1468.33 Q2354.85 1459.58 2357.91 1455 Q2360.99 1450.39 2366.8 1450.39 Z" fill="#000000" fill-rule="nonzero" fill-opacity="1" /><path clip-path="url(#clip850)" d="M1231.53 1522.27 L1231.53 1532.4 L1243.59 1532.4 L1243.59 1536.95 L1231.53 1536.95 L1231.53 1556.3 Q1231.53 1560.66 1232.71 1561.9 Q1233.91 1563.14 1237.58 1563.14 L1243.59 1563.14 L1243.59 1568.04 L1237.58 1568.04 Q1230.8 1568.04 1228.22 1565.53 Q1225.64 1562.98 1225.64 1556.3 L1225.64 1536.95 L1221.34 1536.95 L1221.34 1532.4 L1225.64 1532.4 L1225.64 1522.27 L1231.53 1522.27 Z" fill="#000000" fill-rule="nonzero" fill-opacity="1" /><polyline clip-path="url(#clip852)" style="stroke:#000000; stroke-linecap:round; stroke-linejoin:round; stroke-width:2; stroke-opacity:0.1; fill:none" points="112.177,1239.07 2352.76,1239.07 "/>
<polyline clip-path="url(#clip852)" style="stroke:#000000; stroke-linecap:round; stroke-linejoin:round; stroke-width:2; stroke-opacity:0.1; fill:none" points="112.177,1043.73 2352.76,1043.73 "/>
<polyline clip-path="url(#clip852)" style="stroke:#000000; stroke-linecap:round; stroke-linejoin:round; stroke-width:2; stroke-opacity:0.1; fill:none" points="112.177,848.387 2352.76,848.387 "/>
<polyline clip-path="url(#clip852)" style="stroke:#000000; stroke-linecap:round; stroke-linejoin:round; stroke-width:2; stroke-opacity:0.1; fill:none" points="112.177,653.045 2352.76,653.045 "/>
<polyline clip-path="url(#clip852)" style="stroke:#000000; stroke-linecap:round; stroke-linejoin:round; stroke-width:2; stroke-opacity:0.1; fill:none" points="112.177,457.704 2352.76,457.704 "/>
<polyline clip-path="url(#clip852)" style="stroke:#000000; stroke-linecap:round; stroke-linejoin:round; stroke-width:2; stroke-opacity:0.1; fill:none" points="112.177,262.362 2352.76,262.362 "/>
<polyline clip-path="url(#clip852)" style="stroke:#000000; stroke-linecap:round; stroke-linejoin:round; stroke-width:2; stroke-opacity:0.1; fill:none" points="112.177,67.0201 2352.76,67.0201 "/>
<polyline clip-path="url(#clip850)" style="stroke:#000000; stroke-linecap:round; stroke-linejoin:round; stroke-width:4; stroke-opacity:1; fill:none" points="112.177,1423.18 112.177,47.2441 "/>
<polyline clip-path="url(#clip850)" style="stroke:#000000; stroke-linecap:round; stroke-linejoin:round; stroke-width:4; stroke-opacity:1; fill:none" points="112.177,1239.07 131.075,1239.07 "/>
<polyline clip-path="url(#clip850)" style="stroke:#000000; stroke-linecap:round; stroke-linejoin:round; stroke-width:4; stroke-opacity:1; fill:none" points="112.177,1043.73 131.075,1043.73 "/>
<polyline clip-path="url(#clip850)" style="stroke:#000000; stroke-linecap:round; stroke-linejoin:round; stroke-width:4; stroke-opacity:1; fill:none" points="112.177,848.387 131.075,848.387 "/>
<polyline clip-path="url(#clip850)" style="stroke:#000000; stroke-linecap:round; stroke-linejoin:round; stroke-width:4; stroke-opacity:1; fill:none" points="112.177,653.045 131.075,653.045 "/>
<polyline clip-path="url(#clip850)" style="stroke:#000000; stroke-linecap:round; stroke-linejoin:round; stroke-width:4; stroke-opacity:1; fill:none" points="112.177,457.704 131.075,457.704 "/>
<polyline clip-path="url(#clip850)" style="stroke:#000000; stroke-linecap:round; stroke-linejoin:round; stroke-width:4; stroke-opacity:1; fill:none" points="112.177,262.362 131.075,262.362 "/>
<polyline clip-path="url(#clip850)" style="stroke:#000000; stroke-linecap:round; stroke-linejoin:round; stroke-width:4; stroke-opacity:1; fill:none" points="112.177,67.0201 131.075,67.0201 "/>
<path clip-path="url(#clip850)" d="M56.2699 1252.42 L63.9087 1252.42 L63.9087 1226.05 L55.5986 1227.72 L55.5986 1223.46 L63.8624 1221.79 L68.5383 1221.79 L68.5383 1252.42 L76.1772 1252.42 L76.1772 1256.35 L56.2699 1256.35 L56.2699 1252.42 Z" fill="#000000" fill-rule="nonzero" fill-opacity="1" /><path clip-path="url(#clip850)" d="M59.8578 1057.07 L76.1772 1057.07 L76.1772 1061.01 L54.2328 1061.01 L54.2328 1057.07 Q56.8949 1054.32 61.4782 1049.69 Q66.0846 1045.04 67.2652 1043.69 Q69.5105 1041.17 70.3902 1039.44 Q71.2929 1037.68 71.2929 1035.99 Q71.2929 1033.23 69.3485 1031.5 Q67.4272 1029.76 64.3254 1029.76 Q62.1263 1029.76 59.6726 1030.52 Q57.2421 1031.29 54.4643 1032.84 L54.4643 1028.12 Q57.2884 1026.98 59.7421 1026.4 Q62.1958 1025.82 64.2328 1025.82 Q69.6031 1025.82 72.7976 1028.51 Q75.992 1031.19 75.992 1035.69 Q75.992 1037.81 75.1818 1039.74 Q74.3948 1041.63 72.2883 1044.23 Q71.7096 1044.9 68.6078 1048.12 Q65.5059 1051.31 59.8578 1057.07 Z" fill="#000000" fill-rule="nonzero" fill-opacity="1" /><path clip-path="url(#clip850)" d="M69.0476 847.033 Q72.404 847.751 74.279 850.019 Q76.1772 852.288 76.1772 855.621 Q76.1772 860.737 72.6587 863.538 Q69.1402 866.339 62.6587 866.339 Q60.4828 866.339 58.168 865.899 Q55.8764 865.482 53.4227 864.626 L53.4227 860.112 Q55.3671 861.246 57.6819 861.825 Q59.9967 862.403 62.5198 862.403 Q66.918 862.403 69.2096 860.667 Q71.5244 858.931 71.5244 855.621 Q71.5244 852.566 69.3717 850.853 Q67.242 849.116 63.4226 849.116 L59.3949 849.116 L59.3949 845.274 L63.6078 845.274 Q67.0569 845.274 68.8855 843.908 Q70.7142 842.519 70.7142 839.927 Q70.7142 837.265 68.8161 835.853 Q66.9411 834.417 63.4226 834.417 Q61.5013 834.417 59.3023 834.834 Q57.1032 835.251 54.4643 836.13 L54.4643 831.964 Q57.1264 831.223 59.4412 830.853 Q61.7791 830.482 63.8393 830.482 Q69.1633 830.482 72.2652 832.913 Q75.367 835.32 75.367 839.441 Q75.367 842.311 73.7235 844.302 Q72.08 846.269 69.0476 847.033 Z" fill="#000000" fill-rule="nonzero" fill-opacity="1" /><path clip-path="url(#clip850)" d="M66.5939 639.84 L54.7884 658.289 L66.5939 658.289 L66.5939 639.84 M65.367 635.765 L71.2466 635.765 L71.2466 658.289 L76.1772 658.289 L76.1772 662.177 L71.2466 662.177 L71.2466 670.325 L66.5939 670.325 L66.5939 662.177 L50.9921 662.177 L50.9921 657.664 L65.367 635.765 Z" fill="#000000" fill-rule="nonzero" fill-opacity="1" /><path clip-path="url(#clip850)" d="M55.2745 440.424 L73.6309 440.424 L73.6309 444.359 L59.5569 444.359 L59.5569 452.831 Q60.5754 452.484 61.5939 452.322 Q62.6124 452.137 63.6309 452.137 Q69.418 452.137 72.7976 455.308 Q76.1772 458.479 76.1772 463.896 Q76.1772 469.474 72.705 472.576 Q69.2328 475.655 62.9134 475.655 Q60.7374 475.655 58.4689 475.285 Q56.2236 474.914 53.8162 474.173 L53.8162 469.474 Q55.8995 470.609 58.1217 471.164 Q60.3439 471.72 62.8208 471.72 Q66.8254 471.72 69.1633 469.613 Q71.5013 467.507 71.5013 463.896 Q71.5013 460.285 69.1633 458.178 Q66.8254 456.072 62.8208 456.072 Q60.9458 456.072 59.0708 456.488 Q57.2189 456.905 55.2745 457.785 L55.2745 440.424 Z" fill="#000000" fill-rule="nonzero" fill-opacity="1" /><path clip-path="url(#clip850)" d="M64.6495 260.498 Q61.5013 260.498 59.6495 262.651 Q57.8208 264.804 57.8208 268.554 Q57.8208 272.281 59.6495 274.457 Q61.5013 276.609 64.6495 276.609 Q67.7976 276.609 69.6263 274.457 Q71.4781 272.281 71.4781 268.554 Q71.4781 264.804 69.6263 262.651 Q67.7976 260.498 64.6495 260.498 M73.9318 245.846 L73.9318 250.105 Q72.1726 249.272 70.367 248.832 Q68.5846 248.392 66.8254 248.392 Q62.1958 248.392 59.7421 251.517 Q57.3115 254.642 56.9643 260.961 Q58.33 258.948 60.3902 257.883 Q62.4504 256.795 64.9272 256.795 Q70.1355 256.795 73.1448 259.966 Q76.1772 263.114 76.1772 268.554 Q76.1772 273.878 73.029 277.096 Q69.8809 280.313 64.6495 280.313 Q58.6541 280.313 55.4828 275.73 Q52.3116 271.123 52.3116 262.397 Q52.3116 254.202 56.2004 249.341 Q60.0893 244.457 66.6402 244.457 Q68.3994 244.457 70.1818 244.804 Q71.9874 245.151 73.9318 245.846 Z" fill="#000000" fill-rule="nonzero" fill-opacity="1" /><path clip-path="url(#clip850)" d="M53.9551 49.7401 L76.1772 49.7401 L76.1772 51.7308 L63.6309 84.3001 L58.7467 84.3001 L70.5522 53.6752 L53.9551 53.6752 L53.9551 49.7401 Z" fill="#000000" fill-rule="nonzero" fill-opacity="1" /><polyline clip-path="url(#clip852)" style="stroke:#009af9; stroke-linecap:round; stroke-linejoin:round; stroke-width:4; stroke-opacity:1; fill:none" points="112.177,1239.07 114.42,1238.07 116.663,1237.03 118.906,1235.94 121.148,1234.81 123.391,1233.64 125.634,1232.42 127.877,1231.16 130.12,1229.86 132.363,1228.51 134.605,1227.13 136.848,1225.7 139.091,1224.22 141.334,1222.71 143.577,1221.15 145.819,1219.55 148.062,1217.9 150.305,1216.22 152.548,1214.49 154.791,1212.72 157.034,1210.9 159.276,1209.04 161.519,1207.14 163.762,1205.19 166.005,1203.2 168.248,1201.17 170.491,1199.09 172.733,1196.97 174.976,1194.8 177.219,1192.59 179.462,1190.33 181.705,1188.03 183.947,1185.68 186.19,1183.28 188.433,1180.84 190.676,1178.35 192.919,1175.81 195.162,1173.23 197.404,1170.6 199.647,1167.92 201.89,1165.19 204.133,1162.41 206.376,1159.59 208.619,1156.71 210.861,1153.78 213.104,1150.8 215.347,1147.78 217.59,1144.69 219.833,1141.56 222.075,1138.38 224.318,1135.14 226.561,1131.84 228.804,1128.5 231.047,1125.09 233.29,1121.64 235.532,1118.13 237.775,1114.56 240.018,1110.93 242.261,1107.25 244.504,1103.51 246.746,1099.71 248.989,1095.85 251.232,1091.93 253.475,1087.95 255.718,1083.91 257.961,1079.8 260.203,1075.64 262.446,1071.41 264.689,1067.12 266.932,1062.77 269.175,1058.35 271.418,1053.86 273.66,1049.31 275.903,1044.69 278.146,1040 280.389,1035.25 282.632,1030.42 284.874,1025.53 287.117,1020.57 289.36,1015.53 291.603,1010.42 293.846,1005.24 296.089,999.992 298.331,994.665 300.574,989.263 302.817,983.787 305.06,978.233 307.303,972.604 309.545,966.896 311.788,961.11 314.031,955.245 316.274,949.3 318.517,943.275 320.76,937.169 323.002,930.98 325.245,924.709 327.488,918.354 329.731,911.916 331.974,905.394 334.217,898.786 336.459,892.091 338.702,885.31 340.945,878.441 343.188,871.483 345.431,864.436 347.673,857.3 349.916,850.073 352.159,842.755 354.402,835.346 356.645,827.845 358.888,820.252 361.13,812.566 363.373,804.786 365.616,796.913 367.859,788.946 370.102,780.885 372.344,772.729 374.587,764.479 376.83,756.134 379.073,747.693 381.316,739.158 383.559,730.527 385.801,721.801 388.044,712.979 390.287,704.063 392.53,695.05 394.773,685.943 397.016,676.74 399.258,667.448 401.501,658.065 403.744,648.591 405.987,639.026 408.23,629.369 410.472,619.621 412.715,609.783 414.958,599.854 417.201,589.837 419.444,579.731 421.687,569.54 423.929,559.264 426.172,548.907 428.415,538.47 430.658,527.956 432.901,517.369 435.143,506.711 437.386,495.988 439.629,485.201 441.872,474.356 444.115,463.458 446.358,452.511 448.6,441.519 450.843,430.49 453.086,419.428 455.329,408.339 457.572,397.23 459.815,386.107 462.057,374.978 464.3,363.849 466.543,352.727 468.786,341.621 471.029,330.539 473.271,319.489 475.514,308.479 477.757,297.505 480,286.577 482.243,275.714 484.486,264.934 486.728,254.256 488.971,243.7 491.214,233.286 493.457,223.033 495.7,212.965 497.942,203.1 500.185,193.463 502.428,184.075 504.671,174.959 506.914,166.139 509.157,157.639 511.399,149.482 513.642,141.694 515.885,134.301 518.128,127.328 520.371,120.801 522.614,114.748 524.856,109.196 527.099,104.172 529.342,99.7052 531.585,95.824 533.828,92.5577 536.07,89.9362 538.313,87.9896 540.556,86.7487 542.799,86.2448 545.042,86.5096 547.285,87.5752 549.527,89.4743 551.77,92.2402 554.013,95.9064 556.256,100.507 558.499,106.08 560.741,112.664 562.984,120.264 565.227,128.875 567.47,138.493 569.713,149.105 571.956,160.7 574.198,173.26 576.441,186.766 578.684,201.194 580.927,216.517 583.17,232.706 585.413,249.727 587.655,267.544 589.898,286.116 592.141,305.4 594.384,325.35 596.627,345.915 598.869,367.043 601.112,388.676 603.355,410.755 605.598,433.216 607.841,455.993 610.084,479.015 612.326,502.21 614.569,525.501 616.812,548.808 619.055,572.047 621.298,595.158 623.54,618.12 625.783,640.876 628.026,663.374 630.269,685.565 632.512,707.402 634.755,728.845 636.997,749.856 639.24,770.403 641.483,790.454 643.726,809.986 645.969,828.977 648.212,847.408 650.454,865.267 652.697,882.543 654.94,899.232 657.183,915.33 659.426,930.841 661.668,945.771 663.911,960.13 666.154,973.931 668.397,987.194 670.64,999.939 672.883,1012.19 675.125,1023.99 677.368,1035.32 679.611,1046.17 681.854,1056.56 684.097,1066.51 686.339,1076.04 688.582,1085.15 690.825,1093.87 693.068,1102.2 695.311,1110.17 697.554,1117.78 699.796,1125.05 702.039,1132 704.282,1138.63 706.525,1144.96 708.768,1151 711.011,1156.76 713.253,1162.25 715.496,1167.49 717.739,1172.47 719.982,1177.22 722.225,1181.74 724.467,1186.04 726.71,1190.13 728.953,1194.02 731.196,1197.72 733.439,1201.24 735.682,1204.58 737.924,1207.75 740.167,1210.76 742.41,1213.62 744.653,1216.32 746.896,1218.89 749.138,1221.31 751.381,1223.6 753.624,1225.77 755.867,1227.81 758.11,1229.73 760.353,1231.54 762.595,1233.24 764.838,1234.84 767.081,1236.33 769.324,1237.73 771.567,1239.03 773.81,1240.24 776.052,1241.37 778.295,1242.4 780.538,1243.36 782.781,1244.23 785.024,1245.03 787.266,1245.75 789.509,1246.39 791.752,1246.97 793.995,1247.46 796.238,1247.9 798.481,1248.26 800.723,1248.56 802.966,1248.8 805.209,1248.98 807.452,1249.09 809.695,1249.15 811.938,1249.15 814.18,1249.09 816.423,1248.98 818.666,1248.81 820.909,1248.58 823.152,1248.31 825.394,1247.98 827.637,1247.6 829.88,1247.18 832.123,1246.7 834.366,1246.17 836.609,1245.6 838.851,1244.98 841.094,1244.31 843.337,1243.59 845.58,1242.83 847.823,1242.02 850.065,1241.17 852.308,1240.28 854.551,1239.34 856.794,1238.36 859.037,1237.33 861.28,1236.26 863.522,1235.14 865.765,1233.99 868.008,1232.79 870.251,1231.54 872.494,1230.26 874.737,1228.93 876.979,1227.56 879.222,1226.14 881.465,1224.69 883.708,1223.19 885.951,1221.64 888.193,1220.06 890.436,1218.43 892.679,1216.76 894.922,1215.04 897.165,1213.29 899.408,1211.49 901.65,1209.64 903.893,1207.75 906.136,1205.82 908.379,1203.85 910.622,1201.83 912.864,1199.76 915.107,1197.66 917.35,1195.5 919.593,1193.3 921.836,1191.06 924.079,1188.77 926.321,1186.44 928.564,1184.06 930.807,1181.63 933.05,1179.16 935.293,1176.64 937.536,1174.07 939.778,1171.46 942.021,1168.8 944.264,1166.08 946.507,1163.32 948.75,1160.51 950.992,1157.65 953.235,1154.75 955.478,1151.78 957.721,1148.77 959.964,1145.71 962.207,1142.59 964.449,1139.43 966.692,1136.21 968.935,1132.93 971.178,1129.6 973.421,1126.22 975.663,1122.78 977.906,1119.29 980.149,1115.74 982.392,1112.14 984.635,1108.47 986.878,1104.75 989.12,1100.97 991.363,1097.13 993.606,1093.24 995.849,1089.28 998.092,1085.26 1000.33,1081.18 1002.58,1077.04 1004.82,1072.83 1007.06,1068.56 1009.31,1064.23 1011.55,1059.83 1013.79,1055.37 1016.03,1050.84 1018.28,1046.25 1020.52,1041.59 1022.76,1036.86 1025.01,1032.06 1027.25,1027.19 1029.49,1022.25 1031.73,1017.24 1033.98,1012.16 1036.22,1007 1038.46,1001.78 1040.71,996.479 1042.95,991.104 1045.19,985.655 1047.43,980.129 1049.68,974.527 1051.92,968.847 1054.16,963.089 1056.41,957.252 1058.65,951.335 1060.89,945.337 1063.13,939.259 1065.38,933.098 1067.62,926.855 1069.86,920.529 1072.1,914.118 1074.35,907.623 1076.59,901.043 1078.83,894.377 1081.08,887.624 1083.32,880.785 1085.56,873.857 1087.8,866.841 1090.05,859.736 1092.29,852.541 1094.53,845.257 1096.78,837.881 1099.02,830.414 1101.26,822.856 1103.5,815.205 1105.75,807.461 1107.99,799.624 1110.23,791.693 1112.48,783.667 1114.72,775.546 1116.96,767.335 1119.2,759.037 1121.45,750.652 1123.69,742.176 1125.93,733.608 1128.18,724.947 1130.42,716.191 1132.66,707.338 1134.9,698.388 1137.15,689.34 1139.39,680.194 1141.63,670.95 1143.88,661.607 1146.12,652.166 1148.36,642.627 1150.6,632.991 1152.85,623.26 1155.09,613.433 1157.33,603.514 1159.57,593.503 1161.82,583.403 1164.06,573.215 1166.3,562.943 1168.55,552.588 1170.79,542.154 1173.03,531.644 1175.27,521.062 1177.52,510.41 1179.76,499.694 1182,488.916 1184.25,478.082 1186.49,467.196 1188.73,456.263 1190.97,445.288 1193.22,434.277 1195.46,423.234 1197.7,412.166 1199.95,401.079 1202.19,389.979 1204.43,378.872 1206.67,367.767 1208.92,356.668 1211.16,345.585 1213.4,334.523 1215.65,323.492 1217.89,312.499 1220.13,301.552 1222.37,290.66 1224.62,279.827 1226.86,269.055 1229.1,258.364 1231.35,247.775 1233.59,237.311 1235.83,226.994 1238.07,216.846 1240.32,206.892 1242.56,197.153 1244.8,187.655 1247.04,178.421 1249.29,169.475 1251.53,160.843 1253.77,152.549 1256.02,144.62 1258.26,137.079 1260.5,129.955 1262.74,123.273 1264.99,117.06 1267.23,111.343 1269.47,106.149 1271.72,101.507 1273.96,97.4442 1276.2,93.9892 1278.44,91.1708 1280.69,89.0182 1282.93,87.5607 1285.17,86.8281 1287.42,86.8505 1289.66,87.6584 1291.9,89.2824 1294.14,91.7538 1296.39,95.1039 1298.63,99.3646 1300.87,104.568 1303.12,110.746 1305.36,117.961 1307.6,126.246 1309.84,135.581 1312.09,145.944 1314.33,157.313 1316.57,169.659 1318.82,182.957 1321.06,197.174 1323.3,212.279 1325.54,228.238 1327.79,245.014 1330.03,262.568 1332.27,280.86 1334.51,299.846 1336.76,319.483 1339,339.722 1341.24,360.514 1343.49,381.809 1345.73,403.554 1347.97,425.692 1350.21,448.166 1352.46,470.916 1354.7,493.881 1356.94,516.998 1359.19,540.199 1361.43,563.417 1363.67,586.582 1365.91,609.622 1368.16,632.462 1370.4,655.026 1372.64,677.24 1374.89,699.094 1377.13,720.567 1379.37,741.627 1381.61,762.245 1383.86,782.397 1386.1,802.057 1388.34,821.206 1390.59,839.826 1392.83,857.902 1395.07,875.421 1397.31,892.375 1399.56,908.755 1401.8,924.559 1404.04,939.786 1406.29,954.435 1408.53,968.513 1410.77,982.025 1413.01,994.982 1415.26,1007.4 1417.5,1019.28 1419.74,1030.66 1421.98,1041.55 1424.23,1051.97 1426.47,1061.95 1428.71,1071.52 1430.96,1080.72 1433.2,1089.57 1435.44,1098.05 1437.68,1106.16 1439.93,1113.91 1442.17,1121.31 1444.41,1128.37 1446.66,1135.12 1448.9,1141.56 1451.14,1147.7 1453.38,1153.57 1455.63,1159.16 1457.87,1164.5 1460.11,1169.58 1462.36,1174.43 1464.6,1179.05 1466.84,1183.46 1469.08,1187.65 1471.33,1191.64 1473.57,1195.44 1475.81,1199.05 1478.06,1202.49 1480.3,1205.75 1482.54,1208.85 1484.78,1211.79 1487.03,1214.57 1489.27,1217.2 1491.51,1219.69 1493.76,1222.04 1496,1224.26 1498.24,1226.36 1500.48,1228.34 1502.73,1230.2 1504.97,1231.95 1507.21,1233.59 1509.46,1235.13 1511.7,1236.57 1513.94,1237.91 1516.18,1239.16 1518.43,1240.32 1520.67,1241.39 1522.91,1242.37 1525.15,1243.27 1527.4,1244.09 1529.64,1244.84 1531.88,1245.51 1534.13,1246.11 1536.37,1246.63 1538.61,1247.09 1540.85,1247.48 1543.1,1247.81 1545.34,1248.08 1547.58,1248.28 1549.83,1248.42 1552.07,1248.5 1554.31,1248.52 1556.55,1248.49 1558.8,1248.4 1561.04,1248.25 1563.28,1248.05 1565.53,1247.8 1567.77,1247.5 1570.01,1247.15 1572.25,1246.74 1574.5,1246.29 1576.74,1245.78 1578.98,1245.23 1581.23,1244.63 1583.47,1243.98 1585.71,1243.28 1587.95,1242.54 1590.2,1241.75 1592.44,1240.92 1594.68,1240.04 1596.93,1239.12 1599.17,1238.15 1601.41,1237.14 1603.65,1236.08 1605.9,1234.98 1608.14,1233.84 1610.38,1232.65 1612.62,1231.42 1614.87,1230.15 1617.11,1228.83 1619.35,1227.47 1621.6,1226.07 1623.84,1224.63 1626.08,1223.14 1628.32,1221.61 1630.57,1220.04 1632.81,1218.43 1635.05,1216.77 1637.3,1215.07 1639.54,1213.33 1641.78,1211.54 1644.02,1209.72 1646.27,1207.84 1648.51,1205.93 1650.75,1203.97 1653,1201.97 1655.24,1199.92 1657.48,1197.83 1659.72,1195.69 1661.97,1193.51 1664.21,1191.28 1666.45,1189.01 1668.7,1186.69 1670.94,1184.33 1673.18,1181.91 1675.42,1179.46 1677.67,1176.95 1679.91,1174.4 1682.15,1171.8 1684.4,1169.15 1686.64,1166.46 1688.88,1163.71 1691.12,1160.92 1693.37,1158.07 1695.61,1155.18 1697.85,1152.23 1700.09,1149.24 1702.34,1146.19 1704.58,1143.09 1706.82,1139.94 1709.07,1136.73 1711.31,1133.48 1713.55,1130.16 1715.79,1126.8 1718.04,1123.38 1720.28,1119.9 1722.52,1116.37 1724.77,1112.78 1727.01,1109.13 1729.25,1105.43 1731.49,1101.67 1733.74,1097.85 1735.98,1093.97 1738.22,1090.03 1740.47,1086.03 1742.71,1081.96 1744.95,1077.84 1747.19,1073.65 1749.44,1069.4 1751.68,1065.09 1753.92,1060.71 1756.17,1056.27 1758.41,1051.76 1760.65,1047.18 1762.89,1042.54 1765.14,1037.83 1767.38,1033.05 1769.62,1028.21 1771.87,1023.29 1774.11,1018.3 1776.35,1013.24 1778.59,1008.11 1780.84,1002.91 1783.08,997.629 1785.32,992.278 1787.56,986.852 1789.81,981.351 1792.05,975.773 1794.29,970.118 1796.54,964.386 1798.78,958.575 1801.02,952.685 1803.26,946.715 1805.51,940.663 1807.75,934.531 1809.99,928.316 1812.24,922.017 1814.48,915.636 1816.72,909.172 1818.96,902.624 1821.21,895.991 1823.45,889.271 1825.69,882.465 1827.94,875.57 1830.18,868.588 1832.42,861.515 1834.66,854.353 1836.91,847.1 1839.15,839.755 1841.39,832.319 1843.64,824.791 1845.88,817.169 1848.12,809.454 1850.36,801.646 1852.61,793.744 1854.85,785.747 1857.09,777.656 1859.34,769.471 1861.58,761.191 1863.82,752.816 1866.06,744.346 1868.31,735.781 1870.55,727.122 1872.79,718.368 1875.03,709.519 1877.28,700.576 1879.52,691.54 1881.76,682.409 1884.01,673.185 1886.25,663.868 1888.49,654.459 1890.73,644.958 1892.98,635.365 1895.22,625.681 1897.46,615.907 1899.71,606.043 1901.95,596.102 1904.19,586.093 1906.43,576.013 1908.68,565.861 1910.92,555.633 1913.16,545.329 1915.41,534.948 1917.65,524.491 1919.89,513.958 1922.13,503.351 1924.38,492.672 1926.62,481.922 1928.86,471.106 1931.11,460.227 1933.35,449.29 1935.59,438.299 1937.83,427.261 1940.08,416.182 1942.32,405.068 1944.56,393.928 1946.81,382.769 1949.05,371.6 1951.29,360.431 1953.53,349.272 1955.78,338.133 1958.02,327.025 1960.26,315.961 1962.5,304.953 1964.75,294.014 1966.99,283.158 1969.23,272.4 1971.48,261.754 1973.72,251.235 1975.96,240.861 1978.2,230.648 1980.45,220.614 1982.69,210.776 1984.93,201.154 1987.18,191.766 1989.42,182.633 1991.66,173.776 1993.9,165.215 1996.15,156.972 1998.39,149.07 2000.63,141.532 2002.88,134.382 2005.12,127.644 2007.36,121.342 2009.6,115.503 2011.85,110.152 2014.09,105.316 2016.33,101.024 2018.58,97.3207 2020.82,94.2507 2023.06,91.855 2025.3,90.1722 2027.55,89.238 2029.79,89.0858 2032.03,89.746 2034.28,91.2466 2036.52,93.6126 2038.76,96.8667 2041,101.029 2043.25,106.115 2045.49,112.142 2047.73,119.12 2049.97,127.058 2052.22,135.963 2054.46,145.838 2056.7,156.685 2058.95,168.503 2061.19,181.286 2063.43,195.029 2065.67,209.72 2067.92,225.36 2070.16,241.92 2072.4,259.338 2074.65,277.558 2076.89,296.517 2079.13,316.158 2081.37,336.418 2083.62,357.239 2085.86,378.56 2088.1,400.32 2090.35,422.459 2092.59,444.915 2094.83,467.628 2097.07,490.536 2099.32,513.578 2101.56,536.693 2103.8,559.818 2106.05,582.891 2108.29,605.852 2110.53,628.637 2112.77,651.183 2115.02,673.43 2117.26,695.313 2119.5,716.793 2121.75,737.854 2123.99,758.471 2126.23,778.62 2128.47,798.28 2130.72,817.434 2132.96,836.064 2135.2,854.159 2137.45,871.705 2139.69,888.696 2141.93,905.126 2144.17,920.989 2146.42,936.287 2148.66,951.019 2150.9,965.191 2153.14,978.808 2155.39,991.879 2157.63,1004.42 2159.87,1016.43 2162.12,1027.94 2164.36,1038.97 2166.6,1049.54 2168.84,1059.66 2171.09,1069.37 2173.33,1078.69 2175.57,1087.64 2177.82,1096.19 2180.06,1104.36 2182.3,1112.17 2184.54,1119.63 2186.79,1126.76 2189.03,1133.56 2191.27,1140.06 2193.52,1146.26 2195.76,1152.18 2198,1157.82 2200.24,1163.2 2202.49,1168.34 2204.73,1173.23 2206.97,1177.89 2209.22,1182.33 2211.46,1186.56 2213.7,1190.58 2215.94,1194.41 2218.19,1198.05 2220.43,1201.51 2222.67,1204.79 2224.92,1207.91 2227.16,1210.86 2229.4,1213.66 2231.64,1216.31 2233.89,1218.82 2236.13,1221.2 2238.37,1223.45 2240.61,1225.57 2242.86,1227.57 2245.1,1229.45 2247.34,1231.22 2249.59,1232.88 2251.83,1234.44 2254.07,1235.9 2256.31,1237.26 2258.56,1238.52 2260.8,1239.7 2263.04,1240.78 2265.29,1241.78 2267.53,1242.7 2269.77,1243.54 2272.01,1244.31 2274.26,1245 2276.5,1245.61 2278.74,1246.15 2280.99,1246.63 2283.23,1247.04 2285.47,1247.38 2287.71,1247.66 2289.96,1247.87 2292.2,1248.02 2294.44,1248.11 2296.69,1248.15 2298.93,1248.13 2301.17,1248.05 2303.41,1247.91 2305.66,1247.72 2307.9,1247.48 2310.14,1247.18 2312.39,1246.84 2314.63,1246.44 2316.87,1245.99 2319.11,1245.5 2321.36,1244.95 2323.6,1244.36 2325.84,1243.71 2328.08,1243.02 2330.33,1242.29 2332.57,1241.51 2334.81,1240.68 2337.06,1239.81 2339.3,1238.89 2341.54,1237.93 2343.78,1236.93 2346.03,1235.88 2348.27,1234.79 2350.51,1233.65 2352.76,1232.48 "/>
<polyline clip-path="url(#clip852)" style="stroke:#e26f46; stroke-linecap:round; stroke-linejoin:round; stroke-width:4; stroke-opacity:1; fill:none" points="112.177,1239.07 114.42,1242.94 116.663,1246.72 118.906,1250.41 121.148,1254.03 123.391,1257.56 125.634,1261.01 127.877,1264.38 130.12,1267.68 132.363,1270.9 134.605,1274.05 136.848,1277.13 139.091,1280.13 141.334,1283.07 143.577,1285.94 145.819,1288.74 148.062,1291.48 150.305,1294.16 152.548,1296.77 154.791,1299.32 157.034,1301.81 159.276,1304.25 161.519,1306.63 163.762,1308.95 166.005,1311.21 168.248,1313.43 170.491,1315.59 172.733,1317.7 174.976,1319.76 177.219,1321.77 179.462,1323.73 181.705,1325.65 183.947,1327.52 186.19,1329.34 188.433,1331.13 190.676,1332.86 192.919,1334.56 195.162,1336.21 197.404,1337.83 199.647,1339.4 201.89,1340.94 204.133,1342.44 206.376,1343.9 208.619,1345.33 210.861,1346.72 213.104,1348.07 215.347,1349.39 217.59,1350.68 219.833,1351.94 222.075,1353.16 224.318,1354.35 226.561,1355.51 228.804,1356.64 231.047,1357.74 233.29,1358.82 235.532,1359.86 237.775,1360.88 240.018,1361.87 242.261,1362.83 244.504,1363.77 246.746,1364.68 248.989,1365.56 251.232,1366.42 253.475,1367.26 255.718,1368.07 257.961,1368.86 260.203,1369.63 262.446,1370.37 264.689,1371.09 266.932,1371.79 269.175,1372.47 271.418,1373.12 273.66,1373.76 275.903,1374.37 278.146,1374.97 280.389,1375.54 282.632,1376.09 284.874,1376.63 287.117,1377.14 289.36,1377.64 291.603,1378.12 293.846,1378.57 296.089,1379.01 298.331,1379.43 300.574,1379.84 302.817,1380.22 305.06,1380.59 307.303,1380.94 309.545,1381.27 311.788,1381.58 314.031,1381.88 316.274,1382.16 318.517,1382.42 320.76,1382.67 323.002,1382.89 325.245,1383.1 327.488,1383.29 329.731,1383.47 331.974,1383.62 334.217,1383.76 336.459,1383.88 338.702,1383.99 340.945,1384.07 343.188,1384.14 345.431,1384.19 347.673,1384.22 349.916,1384.24 352.159,1384.23 354.402,1384.21 356.645,1384.17 358.888,1384.11 361.13,1384.02 363.373,1383.92 365.616,1383.8 367.859,1383.66 370.102,1383.49 372.344,1383.3 374.587,1383.1 376.83,1382.86 379.073,1382.61 381.316,1382.33 383.559,1382.03 385.801,1381.7 388.044,1381.34 390.287,1380.96 392.53,1380.55 394.773,1380.11 397.016,1379.64 399.258,1379.14 401.501,1378.61 403.744,1378.05 405.987,1377.44 408.23,1376.81 410.472,1376.14 412.715,1375.43 414.958,1374.69 417.201,1373.9 419.444,1373.08 421.687,1372.21 423.929,1371.3 426.172,1370.34 428.415,1369.34 430.658,1368.28 432.901,1367.17 435.143,1366.01 437.386,1364.79 439.629,1363.51 441.872,1362.16 444.115,1360.75 446.358,1359.27 448.6,1357.71 450.843,1356.08 453.086,1354.36 455.329,1352.56 457.572,1350.67 459.815,1348.69 462.057,1346.61 464.3,1344.42 466.543,1342.13 468.786,1339.73 471.029,1337.2 473.271,1334.56 475.514,1331.79 477.757,1328.89 480,1325.87 482.243,1322.71 484.486,1319.39 486.728,1315.91 488.971,1312.26 491.214,1308.41 493.457,1304.37 495.7,1300.11 497.942,1295.64 500.185,1290.92 502.428,1285.97 504.671,1280.75 506.914,1275.27 509.157,1269.51 511.399,1263.46 513.642,1257.12 515.885,1250.46 518.128,1243.49 520.371,1236.18 522.614,1228.54 524.856,1220.55 527.099,1212.2 529.342,1203.48 531.585,1194.38 533.828,1184.9 536.07,1175.02 538.313,1164.74 540.556,1154.04 542.799,1142.92 545.042,1131.37 547.285,1119.38 549.527,1106.94 551.77,1094.05 554.013,1080.69 556.256,1066.87 558.499,1052.55 560.741,1037.72 562.984,1022.41 565.227,1006.66 567.47,990.506 569.713,973.999 571.956,957.179 574.198,940.093 576.441,922.784 578.684,905.299 580.927,887.685 583.17,869.989 585.413,852.259 587.655,834.544 589.898,816.893 592.141,799.357 594.384,781.987 596.627,764.834 598.869,747.95 601.112,731.389 603.355,715.205 605.598,699.451 607.841,684.184 610.084,669.458 612.326,655.331 614.569,641.86 616.812,629.103 619.055,617.119 621.298,605.946 623.54,595.59 625.783,586.075 628.026,577.422 630.269,569.651 632.512,562.773 634.755,556.801 636.997,551.738 639.24,547.586 641.483,544.345 643.726,542.007 645.969,540.562 648.212,539.995 650.454,540.29 652.697,541.423 654.94,543.368 657.183,546.094 659.426,549.569 661.668,553.753 663.911,558.604 666.154,564.076 668.397,570.118 670.64,576.677 672.883,583.694 675.125,591.107 677.368,598.905 679.611,607.101 681.854,615.661 684.097,624.554 686.339,633.749 688.582,643.217 690.825,652.93 693.068,662.86 695.311,672.982 697.554,683.271 699.796,693.703 702.039,704.256 704.282,714.908 706.525,725.639 708.768,736.432 711.011,747.266 713.253,758.127 715.496,768.998 717.739,779.865 719.982,790.716 722.225,801.537 724.467,812.319 726.71,823.051 728.953,833.723 731.196,844.319 733.439,854.832 735.682,865.256 737.924,875.586 740.167,885.815 742.41,895.939 744.653,905.953 746.896,915.852 749.138,925.633 751.381,935.292 753.624,944.825 755.867,954.23 758.11,963.502 760.353,972.641 762.595,981.644 764.838,990.508 767.081,999.233 769.324,1007.82 771.567,1016.26 773.81,1024.56 776.052,1032.72 778.295,1040.73 780.538,1048.61 782.781,1056.34 785.024,1063.94 787.266,1071.39 789.509,1078.71 791.752,1085.89 793.995,1092.94 796.238,1099.86 798.481,1106.64 800.723,1113.29 802.966,1119.81 805.209,1126.2 807.452,1132.46 809.695,1138.6 811.938,1144.61 814.18,1150.5 816.423,1156.27 818.666,1161.93 820.909,1167.46 823.152,1172.88 825.394,1178.18 827.637,1183.38 829.88,1188.46 832.123,1193.43 834.366,1198.3 836.609,1203.06 838.851,1207.72 841.094,1212.28 843.337,1216.73 845.58,1221.09 847.823,1225.36 850.065,1229.53 852.308,1233.6 854.551,1237.59 856.794,1241.49 859.037,1245.3 861.28,1249.03 863.522,1252.67 865.765,1256.23 868.008,1259.71 870.251,1263.11 872.494,1266.44 874.737,1269.69 876.979,1272.86 879.222,1275.97 881.465,1279 883.708,1281.96 885.951,1284.85 888.193,1287.68 890.436,1290.44 892.679,1293.14 894.922,1295.78 897.165,1298.35 899.408,1300.87 901.65,1303.32 903.893,1305.72 906.136,1308.06 908.379,1310.35 910.622,1312.58 912.864,1314.77 915.107,1316.9 917.35,1318.98 919.593,1321.01 921.836,1322.99 924.079,1324.92 926.321,1326.81 928.564,1328.65 930.807,1330.45 933.05,1332.21 935.293,1333.92 937.536,1335.59 939.778,1337.22 942.021,1338.81 944.264,1340.36 946.507,1341.87 948.75,1343.34 950.992,1344.78 953.235,1346.18 955.478,1347.55 957.721,1348.88 959.964,1350.18 962.207,1351.45 964.449,1352.68 966.692,1353.88 968.935,1355.05 971.178,1356.2 973.421,1357.31 975.663,1358.39 977.906,1359.44 980.149,1360.47 982.392,1361.47 984.635,1362.44 986.878,1363.39 989.12,1364.31 991.363,1365.2 993.606,1366.07 995.849,1366.92 998.092,1367.74 1000.33,1368.54 1002.58,1369.31 1004.82,1370.06 1007.06,1370.79 1009.31,1371.5 1011.55,1372.19 1013.79,1372.85 1016.03,1373.5 1018.28,1374.12 1020.52,1374.72 1022.76,1375.3 1025.01,1375.87 1027.25,1376.41 1029.49,1376.93 1031.73,1377.43 1033.98,1377.91 1036.22,1378.38 1038.46,1378.82 1040.71,1379.25 1042.95,1379.66 1045.19,1380.05 1047.43,1380.42 1049.68,1380.78 1051.92,1381.12 1054.16,1381.44 1056.41,1381.74 1058.65,1382.02 1060.89,1382.29 1063.13,1382.54 1065.38,1382.77 1067.62,1382.99 1069.86,1383.19 1072.1,1383.37 1074.35,1383.53 1076.59,1383.68 1078.83,1383.81 1081.08,1383.92 1083.32,1384.01 1085.56,1384.09 1087.8,1384.14 1090.05,1384.18 1092.29,1384.2 1094.53,1384.21 1096.78,1384.19 1099.02,1384.15 1101.26,1384.1 1103.5,1384.02 1105.75,1383.92 1107.99,1383.81 1110.23,1383.67 1112.48,1383.51 1114.72,1383.33 1116.96,1383.13 1119.2,1382.9 1121.45,1382.64 1123.69,1382.35 1125.93,1382.03 1128.18,1381.69 1130.42,1381.33 1132.66,1380.94 1134.9,1380.52 1137.15,1380.07 1139.39,1379.6 1141.63,1379.1 1143.88,1378.57 1146.12,1378.01 1148.36,1377.42 1150.6,1376.8 1152.85,1376.15 1155.09,1375.46 1157.33,1374.74 1159.57,1373.98 1161.82,1373.18 1164.06,1372.34 1166.3,1371.46 1168.55,1370.53 1170.79,1369.56 1173.03,1368.54 1175.27,1367.46 1177.52,1366.33 1179.76,1365.14 1182,1363.89 1184.25,1362.58 1186.49,1361.2 1188.73,1359.75 1190.97,1358.23 1193.22,1356.62 1195.46,1354.94 1197.7,1353.17 1199.95,1351.31 1202.19,1349.36 1204.43,1347.31 1206.67,1345.16 1208.92,1342.9 1211.16,1340.53 1213.4,1338.04 1215.65,1335.43 1217.89,1332.69 1220.13,1329.82 1222.37,1326.82 1224.62,1323.67 1226.86,1320.39 1229.1,1316.96 1231.35,1313.37 1233.59,1309.6 1235.83,1305.64 1238.07,1301.47 1240.32,1297.1 1242.56,1292.49 1244.8,1287.64 1247.04,1282.54 1249.29,1277.17 1251.53,1271.53 1253.77,1265.6 1256.02,1259.37 1258.26,1252.83 1260.5,1245.97 1262.74,1238.78 1264.99,1231.25 1267.23,1223.37 1269.47,1215.13 1271.72,1206.53 1273.96,1197.54 1276.2,1188.17 1278.44,1178.41 1280.69,1168.24 1282.93,1157.67 1285.17,1146.68 1287.42,1135.26 1289.66,1123.42 1291.9,1111.14 1294.14,1098.41 1296.39,1085.23 1298.63,1071.6 1300.87,1057.5 1303.12,1042.94 1305.36,1027.87 1307.6,1012.28 1309.84,996.215 1312.09,979.746 1314.33,962.924 1316.57,945.806 1318.82,928.448 1321.06,910.903 1323.3,893.226 1325.54,875.47 1327.79,857.69 1330.03,839.937 1332.27,822.263 1334.51,804.719 1336.76,787.357 1339,770.227 1341.24,753.378 1343.49,736.86 1345.73,720.721 1347.97,705.009 1350.21,689.771 1352.46,675.055 1354.7,660.907 1356.94,647.373 1359.19,634.497 1361.43,622.324 1363.67,610.899 1365.91,600.265 1368.16,590.465 1370.4,581.541 1372.64,573.532 1374.89,566.438 1377.13,560.25 1379.37,554.963 1381.61,550.572 1383.86,547.066 1386.1,544.436 1388.34,542.667 1390.59,541.747 1392.83,541.656 1395.07,542.377 1397.31,543.889 1399.56,546.167 1401.8,549.187 1404.04,552.922 1406.29,557.342 1408.53,562.415 1410.77,568.109 1413.01,574.388 1415.26,581.214 1417.5,588.548 1419.74,596.348 1421.98,604.57 1424.23,613.168 1426.47,622.095 1428.71,631.3 1430.96,640.732 1433.2,650.337 1435.44,660.132 1437.68,670.124 1439.93,680.289 1442.17,690.605 1444.41,701.051 1446.66,711.607 1448.9,722.252 1451.14,732.968 1453.38,743.737 1455.63,754.542 1457.87,765.368 1460.11,776.199 1462.36,787.02 1464.6,797.819 1466.84,808.583 1469.08,819.3 1471.33,829.959 1473.57,840.551 1475.81,851.067 1478.06,861.499 1480.3,871.839 1482.54,882.081 1484.78,892.221 1487.03,902.252 1489.27,912.172 1491.51,921.978 1493.76,931.665 1496,941.225 1498.24,950.655 1500.48,959.954 1502.73,969.12 1504.97,978.151 1507.21,987.047 1509.46,995.806 1511.7,1004.43 1513.94,1012.91 1516.18,1021.26 1518.43,1029.46 1520.67,1037.53 1522.91,1045.45 1525.15,1053.24 1527.4,1060.89 1529.64,1068.4 1531.88,1075.77 1534.13,1083 1536.37,1090.1 1538.61,1097.06 1540.85,1103.89 1543.1,1110.58 1545.34,1117.14 1547.58,1123.57 1549.83,1129.87 1552.07,1136.05 1554.31,1142.1 1556.55,1148.03 1558.8,1153.84 1561.04,1159.53 1563.28,1165.11 1565.53,1170.57 1567.77,1175.91 1570.01,1181.14 1572.25,1186.26 1574.5,1191.27 1576.74,1196.17 1578.98,1200.97 1581.23,1205.67 1583.47,1210.27 1585.71,1214.76 1587.95,1219.16 1590.2,1223.46 1592.44,1227.67 1594.68,1231.78 1596.93,1235.8 1599.17,1239.74 1601.41,1243.58 1603.65,1247.34 1605.9,1251.02 1608.14,1254.61 1610.38,1258.12 1612.62,1261.56 1614.87,1264.91 1617.11,1268.19 1619.35,1271.39 1621.6,1274.52 1623.84,1277.58 1626.08,1280.57 1628.32,1283.49 1630.57,1286.34 1632.81,1289.13 1635.05,1291.85 1637.3,1294.51 1639.54,1297.11 1641.78,1299.65 1644.02,1302.12 1646.27,1304.54 1648.51,1306.91 1650.75,1309.22 1653,1311.47 1655.24,1313.67 1657.48,1315.82 1659.72,1317.91 1661.97,1319.96 1664.21,1321.96 1666.45,1323.91 1668.7,1325.82 1670.94,1327.68 1673.18,1329.49 1675.42,1331.26 1677.67,1332.99 1679.91,1334.68 1682.15,1336.33 1684.4,1337.93 1686.64,1339.5 1688.88,1341.03 1691.12,1342.52 1693.37,1343.97 1695.61,1345.39 1697.85,1346.78 1700.09,1348.13 1702.34,1349.44 1704.58,1350.72 1706.82,1351.97 1709.07,1353.19 1711.31,1354.38 1713.55,1355.53 1715.79,1356.66 1718.04,1357.75 1720.28,1358.82 1722.52,1359.86 1724.77,1360.86 1727.01,1361.85 1729.25,1362.8 1731.49,1363.73 1733.74,1364.64 1735.98,1365.52 1738.22,1366.37 1740.47,1367.2 1742.71,1368 1744.95,1368.79 1747.19,1369.55 1749.44,1370.28 1751.68,1371 1753.92,1371.69 1756.17,1372.36 1758.41,1373.01 1760.65,1373.64 1762.89,1374.25 1765.14,1374.84 1767.38,1375.4 1769.62,1375.95 1771.87,1376.48 1774.11,1376.99 1776.35,1377.48 1778.59,1377.95 1780.84,1378.41 1783.08,1378.84 1785.32,1379.26 1787.56,1379.66 1789.81,1380.04 1792.05,1380.4 1794.29,1380.74 1796.54,1381.07 1798.78,1381.38 1801.02,1381.67 1803.26,1381.94 1805.51,1382.2 1807.75,1382.44 1809.99,1382.66 1812.24,1382.86 1814.48,1383.05 1816.72,1383.22 1818.96,1383.36 1821.21,1383.5 1823.45,1383.61 1825.69,1383.7 1827.94,1383.78 1830.18,1383.84 1832.42,1383.88 1834.66,1383.91 1836.91,1383.91 1839.15,1383.9 1841.39,1383.87 1843.64,1383.82 1845.88,1383.74 1848.12,1383.65 1850.36,1383.54 1852.61,1383.41 1854.85,1383.26 1857.09,1383.09 1859.34,1382.89 1861.58,1382.68 1863.82,1382.44 1866.06,1382.17 1868.31,1381.88 1870.55,1381.57 1872.79,1381.23 1875.03,1380.86 1877.28,1380.47 1879.52,1380.05 1881.76,1379.6 1884.01,1379.11 1886.25,1378.6 1888.49,1378.06 1890.73,1377.48 1892.98,1376.87 1895.22,1376.22 1897.46,1375.54 1899.71,1374.82 1901.95,1374.05 1904.19,1373.24 1906.43,1372.37 1908.68,1371.46 1910.92,1370.49 1913.16,1369.48 1915.41,1368.42 1917.65,1367.3 1919.89,1366.13 1922.13,1364.9 1924.38,1363.62 1926.62,1362.28 1928.86,1360.88 1931.11,1359.41 1933.35,1357.88 1935.59,1356.27 1937.83,1354.59 1940.08,1352.83 1942.32,1350.99 1944.56,1349.07 1946.81,1347.05 1949.05,1344.93 1951.29,1342.71 1953.53,1340.38 1955.78,1337.94 1958.02,1335.38 1960.26,1332.69 1962.5,1329.87 1964.75,1326.91 1966.99,1323.8 1969.23,1320.54 1971.48,1317.11 1973.72,1313.51 1975.96,1309.73 1978.2,1305.76 1980.45,1301.59 1982.69,1297.22 1984.93,1292.63 1987.18,1287.81 1989.42,1282.75 1991.66,1277.45 1993.9,1271.89 1996.15,1266.05 1998.39,1259.94 2000.63,1253.54 2002.88,1246.83 2005.12,1239.8 2007.36,1232.44 2009.6,1224.74 2011.85,1216.69 2014.09,1208.27 2016.33,1199.47 2018.58,1190.29 2020.82,1180.7 2023.06,1170.69 2025.3,1160.24 2027.55,1149.35 2029.79,1138.02 2032.03,1126.23 2034.28,1113.98 2036.52,1101.29 2038.76,1088.14 2041,1074.54 2043.25,1060.51 2045.49,1046.06 2047.73,1031.19 2049.97,1015.92 2052.22,1000.27 2054.46,984.27 2056.7,967.931 2058.95,951.282 2061.19,934.351 2063.43,917.17 2065.67,899.771 2067.92,882.183 2070.16,864.455 2072.4,846.662 2074.65,828.871 2076.89,811.152 2079.13,793.57 2081.37,776.189 2083.62,759.069 2085.86,742.271 2088.1,725.852 2090.35,709.866 2092.59,694.367 2094.83,679.405 2097.07,665.03 2099.32,651.286 2101.56,638.22 2103.8,625.873 2106.05,614.286 2108.29,603.496 2110.53,593.539 2112.77,584.449 2115.02,576.258 2117.26,568.995 2119.5,562.669 2121.75,557.262 2123.99,552.763 2126.23,549.158 2128.47,546.432 2130.72,544.57 2132.96,543.553 2135.2,543.361 2137.45,543.974 2139.69,545.369 2141.93,547.521 2144.17,550.403 2146.42,553.989 2148.66,558.25 2150.9,563.153 2153.14,568.667 2155.39,574.758 2157.63,581.389 2159.87,588.524 2162.12,596.123 2164.36,604.146 2166.6,612.55 2168.84,621.293 2171.09,630.327 2173.33,639.607 2175.57,649.112 2177.82,658.847 2180.06,668.788 2182.3,678.909 2184.54,689.189 2186.79,699.603 2189.03,710.131 2191.27,720.753 2193.52,731.449 2195.76,742.2 2198,752.989 2200.24,763.8 2202.49,774.618 2204.73,785.427 2206.97,796.215 2209.22,806.969 2211.46,817.677 2213.7,828.329 2215.94,838.916 2218.19,849.428 2220.43,859.86 2222.67,870.203 2224.92,880.453 2227.16,890.605 2229.4,900.649 2231.64,910.579 2233.89,920.391 2236.13,930.083 2238.37,939.65 2240.61,949.091 2242.86,958.404 2245.1,967.585 2247.34,976.634 2249.59,985.548 2251.83,994.325 2254.07,1002.97 2256.31,1011.47 2258.56,1019.83 2260.8,1028.05 2263.04,1036.13 2265.29,1044.07 2267.53,1051.88 2269.77,1059.54 2272.01,1067.06 2274.26,1074.44 2276.5,1081.69 2278.74,1088.8 2280.99,1095.77 2283.23,1102.61 2285.47,1109.32 2287.71,1115.9 2289.96,1122.35 2292.2,1128.68 2294.44,1134.87 2296.69,1140.95 2298.93,1146.9 2301.17,1152.73 2303.41,1158.43 2305.66,1164.03 2307.9,1169.5 2310.14,1174.86 2312.39,1180.11 2314.63,1185.25 2316.87,1190.28 2319.11,1195.2 2321.36,1200.02 2323.6,1204.73 2325.84,1209.34 2328.08,1213.85 2330.33,1218.27 2332.57,1222.58 2334.81,1226.8 2337.06,1230.93 2339.3,1234.97 2341.54,1238.91 2343.78,1242.77 2346.03,1246.54 2348.27,1250.23 2350.51,1253.84 2352.76,1257.36 "/>
<polyline clip-path="url(#clip852)" style="stroke:#3da44d; stroke-linecap:round; stroke-linejoin:round; stroke-width:4; stroke-opacity:1; fill:none" points="112.177,1239.07 114.42,1238.07 116.663,1237.03 118.906,1235.94 121.148,1234.81 123.391,1233.63 125.634,1232.42 127.877,1231.16 130.12,1229.85 132.363,1228.51 134.605,1227.12 136.848,1225.69 139.091,1224.21 141.334,1222.7 143.577,1221.14 145.819,1219.53 148.062,1217.89 150.305,1216.2 152.548,1214.47 154.791,1212.7 157.034,1210.88 159.276,1209.02 161.519,1207.12 163.762,1205.17 166.005,1203.18 168.248,1201.14 170.491,1199.07 172.733,1196.94 174.976,1194.77 177.219,1192.56 179.462,1190.3 181.705,1188 183.947,1185.64 186.19,1183.25 188.433,1180.81 190.676,1178.31 192.919,1175.78 195.162,1173.19 197.404,1170.56 199.647,1167.88 201.89,1165.15 204.133,1162.37 206.376,1159.54 208.619,1156.66 210.861,1153.73 213.104,1150.75 215.347,1147.72 217.59,1144.64 219.833,1141.51 222.075,1138.32 224.318,1135.08 226.561,1131.78 228.804,1128.43 231.047,1125.03 233.29,1121.57 235.532,1118.06 237.775,1114.49 240.018,1110.86 242.261,1107.17 244.504,1103.43 246.746,1099.63 248.989,1095.77 251.232,1091.85 253.475,1087.86 255.718,1083.82 257.961,1079.72 260.203,1075.55 262.446,1071.32 264.689,1067.03 266.932,1062.67 269.175,1058.25 271.418,1053.76 273.66,1049.2 275.903,1044.58 278.146,1039.89 280.389,1035.13 282.632,1030.31 284.874,1025.41 287.117,1020.44 289.36,1015.41 291.603,1010.3 293.846,1005.11 296.089,999.858 298.331,994.528 300.574,989.123 302.817,983.643 305.06,978.087 307.303,972.454 309.545,966.743 311.788,960.953 314.031,955.085 316.274,949.137 318.517,943.108 320.76,936.997 323.002,930.805 325.245,924.53 327.488,918.172 329.731,911.73 331.974,905.203 334.217,898.591 336.459,891.893 338.702,885.107 340.945,878.234 343.188,871.272 345.431,864.221 347.673,857.08 349.916,849.849 352.159,842.527 354.402,835.113 356.645,827.607 358.888,820.009 361.13,812.318 363.373,804.534 365.616,796.656 367.859,788.684 370.102,780.618 372.344,772.458 374.587,764.202 376.83,755.852 379.073,747.406 381.316,738.866 383.559,730.23 385.801,721.498 388.044,712.671 390.287,703.749 392.53,694.731 394.773,685.618 397.016,676.411 399.258,667.112 401.501,657.724 403.744,648.244 405.987,638.674 408.23,629.012 410.472,619.258 412.715,609.414 414.958,599.48 417.201,589.457 419.444,579.346 421.687,569.149 423.929,558.868 426.172,548.505 428.415,538.062 430.658,527.543 432.901,516.951 435.143,506.288 437.386,495.559 439.629,484.768 441.872,473.918 444.115,463.015 446.358,452.063 448.6,441.068 450.843,430.034 453.086,418.968 455.329,407.876 457.572,396.763 459.815,385.637 462.057,374.505 464.3,363.373 466.543,352.249 468.786,341.141 471.029,330.058 473.271,319.006 475.514,307.995 477.757,297.021 480,286.093 482.243,275.23 484.486,264.451 486.728,253.775 488.971,243.222 491.214,232.811 493.457,222.563 495.7,212.499 497.942,202.642 500.185,193.012 502.428,183.632 504.671,174.526 506.914,165.716 509.157,157.228 511.399,149.085 513.642,141.312 515.885,133.934 518.128,126.978 520.371,120.471 522.614,114.438 524.856,108.907 527.099,103.906 529.342,99.4642 531.585,95.6092 533.828,92.3708 536.07,89.7787 538.313,87.8633 540.556,86.6552 542.799,86.1857 545.042,86.4865 547.285,87.5899 549.527,89.5285 551.77,92.3356 554.013,96.0448 556.256,100.69 558.499,106.309 560.741,112.941 562.984,120.589 565.227,129.25 567.47,138.916 569.713,149.577 571.956,161.22 574.198,173.829 576.441,187.382 578.684,201.856 580.927,217.225 583.17,233.458 585.413,250.522 587.655,268.38 589.898,286.991 592.141,306.312 594.384,326.297 596.627,346.896 598.869,368.053 601.112,389.714 603.355,411.817 605.598,434.3 607.841,457.095 610.084,480.132 612.326,503.338 614.569,526.636 616.812,549.946 619.055,573.185 621.298,596.293 623.54,619.251 625.783,642 628.026,664.487 630.269,686.665 632.512,708.488 634.755,729.914 636.997,750.906 639.24,771.432 641.483,791.462 643.726,810.971 645.969,829.937 648.212,848.343 650.454,866.175 652.697,883.425 654.94,900.086 657.183,916.157 659.426,931.641 661.668,946.543 663.911,960.875 666.154,974.649 668.397,987.886 670.64,1000.61 672.883,1012.84 675.125,1024.61 677.368,1035.91 679.611,1046.74 681.854,1057.11 684.097,1067.04 686.339,1076.54 688.582,1085.64 690.825,1094.33 693.068,1102.65 695.311,1110.6 697.554,1118.19 699.796,1125.45 702.039,1132.38 704.282,1138.99 706.525,1145.31 708.768,1151.33 711.011,1157.08 713.253,1162.56 715.496,1167.78 717.739,1172.75 719.982,1177.49 722.225,1182 724.467,1186.29 726.71,1190.37 728.953,1194.24 731.196,1197.93 733.439,1201.44 735.682,1204.77 737.924,1207.94 740.167,1210.94 742.41,1213.79 744.653,1216.48 746.896,1219.04 749.138,1221.46 751.381,1223.74 753.624,1225.9 755.867,1227.93 758.11,1229.85 760.353,1231.65 762.595,1233.35 764.838,1234.94 767.081,1236.43 769.324,1237.82 771.567,1239.12 773.81,1240.32 776.052,1241.44 778.295,1242.48 780.538,1243.43 782.781,1244.3 785.024,1245.09 787.266,1245.8 789.509,1246.44 791.752,1247.01 793.995,1247.51 796.238,1247.93 798.481,1248.29 800.723,1248.59 802.966,1248.83 805.209,1249 807.452,1249.11 809.695,1249.17 811.938,1249.16 814.18,1249.1 816.423,1248.98 818.666,1248.81 820.909,1248.58 823.152,1248.31 825.394,1247.98 827.637,1247.59 829.88,1247.16 832.123,1246.68 834.366,1246.15 836.609,1245.58 838.851,1244.95 841.094,1244.28 843.337,1243.56 845.58,1242.8 847.823,1241.99 850.065,1241.14 852.308,1240.24 854.551,1239.29 856.794,1238.31 859.037,1237.28 861.28,1236.2 863.522,1235.09 865.765,1233.93 868.008,1232.72 870.251,1231.48 872.494,1230.19 874.737,1228.86 876.979,1227.49 879.222,1226.07 881.465,1224.61 883.708,1223.11 885.951,1221.56 888.193,1219.97 890.436,1218.34 892.679,1216.67 894.922,1214.95 897.165,1213.19 899.408,1211.38 901.65,1209.54 903.893,1207.65 906.136,1205.71 908.379,1203.73 910.622,1201.71 912.864,1199.64 915.107,1197.53 917.35,1195.38 919.593,1193.17 921.836,1190.93 924.079,1188.64 926.321,1186.3 928.564,1183.92 930.807,1181.49 933.05,1179.01 935.293,1176.49 937.536,1173.92 939.778,1171.3 942.021,1168.63 944.264,1165.92 946.507,1163.15 948.75,1160.34 950.992,1157.48 953.235,1154.56 955.478,1151.6 957.721,1148.58 959.964,1145.51 962.207,1142.4 964.449,1139.22 966.692,1136 968.935,1132.72 971.178,1129.39 973.421,1126 975.663,1122.56 977.906,1119.06 980.149,1115.51 982.392,1111.9 984.635,1108.23 986.878,1104.5 989.12,1100.72 991.363,1096.88 993.606,1092.97 995.849,1089.01 998.092,1084.99 1000.33,1080.9 1002.58,1076.75 1004.82,1072.54 1007.06,1068.27 1009.31,1063.93 1011.55,1059.53 1013.79,1055.06 1016.03,1050.53 1018.28,1045.93 1020.52,1041.26 1022.76,1036.52 1025.01,1031.72 1027.25,1026.84 1029.49,1021.9 1031.73,1016.88 1033.98,1011.79 1036.22,1006.63 1038.46,1001.4 1040.71,996.096 1042.95,990.715 1045.19,985.259 1047.43,979.726 1049.68,974.117 1051.92,968.43 1054.16,962.665 1056.41,956.821 1058.65,950.896 1060.89,944.892 1063.13,938.806 1065.38,932.637 1067.62,926.387 1069.86,920.053 1072.1,913.634 1074.35,907.132 1076.59,900.543 1078.83,893.869 1081.08,887.108 1083.32,880.26 1085.56,873.324 1087.8,866.3 1090.05,859.186 1092.29,851.983 1094.53,844.69 1096.78,837.306 1099.02,829.83 1101.26,822.263 1103.5,814.603 1105.75,806.85 1107.99,799.003 1110.23,791.063 1112.48,783.028 1114.72,774.898 1116.96,766.677 1119.2,758.371 1121.45,749.976 1123.69,741.491 1125.93,732.914 1128.18,724.243 1130.42,715.477 1132.66,706.615 1134.9,697.655 1137.15,688.598 1139.39,679.442 1141.63,670.188 1143.88,660.835 1146.12,651.384 1148.36,641.835 1150.6,632.19 1152.85,622.448 1155.09,612.612 1157.33,602.683 1159.57,592.662 1161.82,582.552 1164.06,572.355 1166.3,562.073 1168.55,551.709 1170.79,541.266 1173.03,530.747 1175.27,520.155 1177.52,509.495 1179.76,498.77 1182,487.985 1184.25,477.143 1186.49,466.25 1188.73,455.31 1190.97,444.328 1193.22,433.311 1195.46,422.262 1197.7,411.189 1199.95,400.098 1202.19,388.994 1204.43,377.885 1206.67,366.776 1208.92,355.676 1211.16,344.592 1213.4,333.53 1215.65,322.5 1217.89,311.508 1220.13,300.564 1222.37,289.675 1224.62,278.848 1226.86,268.082 1229.1,257.398 1231.35,246.818 1233.59,236.364 1235.83,226.059 1238.07,215.925 1240.32,205.985 1242.56,196.264 1244.8,186.785 1247.04,177.573 1249.29,168.651 1251.53,160.045 1253.77,151.779 1256.02,143.881 1258.26,136.374 1260.5,129.286 1262.74,122.642 1264.99,116.471 1267.23,110.798 1269.47,105.651 1271.72,101.059 1273.96,97.0494 1276.2,93.6504 1278.44,90.8909 1280.69,88.8003 1282.93,87.4078 1285.17,86.7433 1287.42,86.8369 1289.66,87.719 1291.9,89.4205 1294.14,91.9724 1296.39,95.4062 1298.63,99.7536 1300.87,105.047 1303.12,111.318 1305.36,118.632 1307.6,127.015 1309.84,136.447 1312.09,146.906 1314.33,158.367 1316.57,170.805 1318.82,184.191 1321.06,198.495 1323.3,213.684 1325.54,229.724 1327.79,246.578 1330.03,264.207 1332.27,282.57 1334.51,301.624 1336.76,321.324 1339,341.623 1341.24,362.471 1343.49,383.817 1345.73,405.608 1347.97,427.786 1350.21,450.296 1352.46,473.076 1354.7,496.065 1356.94,519.199 1359.19,542.411 1361.43,565.633 1363.67,588.795 1365.91,611.823 1368.16,634.644 1370.4,657.181 1372.64,679.363 1374.89,701.186 1377.13,722.625 1379.37,743.648 1381.61,764.228 1383.86,784.337 1386.1,803.953 1388.34,823.055 1390.59,841.627 1392.83,859.653 1395.07,877.121 1397.31,894.022 1399.56,910.349 1401.8,926.099 1404.04,941.271 1406.29,955.866 1408.53,969.89 1410.77,983.348 1413.01,996.252 1415.26,1008.61 1417.5,1020.45 1419.74,1031.78 1421.98,1042.62 1424.23,1053 1426.47,1062.94 1428.71,1072.47 1430.96,1081.63 1433.2,1090.45 1435.44,1098.9 1437.68,1106.97 1439.93,1114.68 1442.17,1122.05 1444.41,1129.08 1446.66,1135.8 1448.9,1142.21 1451.14,1148.32 1453.38,1154.16 1455.63,1159.73 1457.87,1165.04 1460.11,1170.1 1462.36,1174.93 1464.6,1179.53 1466.84,1183.91 1469.08,1188.08 1471.33,1192.05 1473.57,1195.83 1475.81,1199.43 1478.06,1202.85 1480.3,1206.09 1482.54,1209.17 1484.78,1212.1 1487.03,1214.86 1489.27,1217.48 1491.51,1219.95 1493.76,1222.29 1496,1224.5 1498.24,1226.58 1500.48,1228.55 1502.73,1230.4 1504.97,1232.14 1507.21,1233.77 1509.46,1235.3 1511.7,1236.73 1513.94,1238.06 1516.18,1239.3 1518.43,1240.45 1520.67,1241.51 1522.91,1242.48 1525.15,1243.38 1527.4,1244.19 1529.64,1244.93 1531.88,1245.59 1534.13,1246.18 1536.37,1246.7 1538.61,1247.15 1540.85,1247.54 1543.1,1247.86 1545.34,1248.11 1547.58,1248.31 1549.83,1248.44 1552.07,1248.52 1554.31,1248.54 1556.55,1248.5 1558.8,1248.4 1561.04,1248.25 1563.28,1248.05 1565.53,1247.79 1567.77,1247.48 1570.01,1247.12 1572.25,1246.71 1574.5,1246.25 1576.74,1245.74 1578.98,1245.18 1581.23,1244.58 1583.47,1243.92 1585.71,1243.22 1587.95,1242.48 1590.2,1241.68 1592.44,1240.84 1594.68,1239.96 1596.93,1239.03 1599.17,1238.06 1601.41,1237.04 1603.65,1235.98 1605.9,1234.87 1608.14,1233.72 1610.38,1232.53 1612.62,1231.3 1614.87,1230.02 1617.11,1228.7 1619.35,1227.34 1621.6,1225.93 1623.84,1224.48 1626.08,1222.99 1628.32,1221.46 1630.57,1219.88 1632.81,1218.26 1635.05,1216.6 1637.3,1214.9 1639.54,1213.15 1641.78,1211.36 1644.02,1209.53 1646.27,1207.65 1648.51,1205.73 1650.75,1203.76 1653,1201.76 1655.24,1199.7 1657.48,1197.61 1659.72,1195.46 1661.97,1193.28 1664.21,1191.04 1666.45,1188.77 1668.7,1186.44 1670.94,1184.07 1673.18,1181.66 1675.42,1179.19 1677.67,1176.68 1679.91,1174.12 1682.15,1171.52 1684.4,1168.86 1686.64,1166.16 1688.88,1163.41 1691.12,1160.61 1693.37,1157.76 1695.61,1154.86 1697.85,1151.91 1700.09,1148.9 1702.34,1145.85 1704.58,1142.75 1706.82,1139.59 1709.07,1136.38 1711.31,1133.11 1713.55,1129.79 1715.79,1126.42 1718.04,1122.99 1720.28,1119.51 1722.52,1115.97 1724.77,1112.37 1727.01,1108.72 1729.25,1105.01 1731.49,1101.24 1733.74,1097.41 1735.98,1093.53 1738.22,1089.58 1740.47,1085.57 1742.71,1081.5 1744.95,1077.37 1747.19,1073.17 1749.44,1068.91 1751.68,1064.59 1753.92,1060.2 1756.17,1055.75 1758.41,1051.23 1760.65,1046.65 1762.89,1042 1765.14,1037.28 1767.38,1032.49 1769.62,1027.64 1771.87,1022.71 1774.11,1017.71 1776.35,1012.64 1778.59,1007.5 1780.84,1002.29 1783.08,997.001 1785.32,991.64 1787.56,986.204 1789.81,980.692 1792.05,975.104 1794.29,969.439 1796.54,963.696 1798.78,957.874 1801.02,951.973 1803.26,945.991 1805.51,939.929 1807.75,933.785 1809.99,927.558 1812.24,921.249 1814.48,914.856 1816.72,908.381 1818.96,901.821 1821.21,895.175 1823.45,888.444 1825.69,881.625 1827.94,874.718 1830.18,867.722 1832.42,860.637 1834.66,853.462 1836.91,846.196 1839.15,838.839 1841.39,831.389 1843.64,823.847 1845.88,816.212 1848.12,808.484 1850.36,800.662 1852.61,792.746 1854.85,784.736 1857.09,776.632 1859.34,768.432 1861.58,760.138 1863.82,751.749 1866.06,743.266 1868.31,734.687 1870.55,726.014 1872.79,717.246 1875.03,708.383 1877.28,699.426 1879.52,690.375 1881.76,681.231 1884.01,671.993 1886.25,662.662 1888.49,653.238 1890.73,643.723 1892.98,634.116 1895.22,624.418 1897.46,614.63 1899.71,604.753 1901.95,594.802 1904.19,584.783 1906.43,574.692 1908.68,564.528 1910.92,554.288 1913.16,543.972 1915.41,533.579 1917.65,523.109 1919.89,512.564 1922.13,501.944 1924.38,491.252 1926.62,480.49 1928.86,469.663 1931.11,458.772 1933.35,447.825 1935.59,436.824 1937.83,425.777 1940.08,414.689 1942.32,403.569 1944.56,392.422 1946.81,381.258 1949.05,370.085 1951.29,358.914 1953.53,347.754 1955.78,336.615 1958.02,325.51 1960.26,314.45 1962.5,303.448 1964.75,292.517 1966.99,281.671 1969.23,270.924 1971.48,260.292 1973.72,249.79 1975.96,239.434 1978.2,229.243 1980.45,219.232 1982.69,209.42 1984.93,199.826 1987.18,190.47 1989.42,181.372 1991.66,172.551 1993.9,164.031 1996.15,155.831 1998.39,147.976 2000.63,140.487 2002.88,133.39 2005.12,126.707 2007.36,120.465 2009.6,114.689 2011.85,109.405 2014.09,104.638 2016.33,100.422 2018.58,96.8018 2020.82,93.8215 2023.06,91.5215 2025.3,89.94 2027.55,89.1124 2029.79,89.0714 2032.03,89.8472 2034.28,91.4671 2036.52,93.956 2038.76,97.3361 2041,101.627 2043.25,106.844 2045.49,113.004 2047.73,120.116 2049.97,128.19 2052.22,137.231 2054.46,147.244 2056.7,158.229 2058.95,170.184 2061.19,183.105 2063.43,196.985 2065.67,211.813 2067.92,227.591 2070.16,244.279 2072.4,261.818 2074.65,280.149 2076.89,299.212 2079.13,318.946 2081.37,339.293 2083.62,360.192 2085.86,381.582 2088.1,403.402 2090.35,425.594 2092.59,448.094 2094.83,470.842 2097.07,493.778 2099.32,516.838 2101.56,539.963 2103.8,563.089 2106.05,586.155 2108.29,609.099 2110.53,631.858 2112.77,654.37 2115.02,676.572 2117.26,698.401 2119.5,719.826 2121.75,740.829 2123.99,761.384 2126.23,781.468 2128.47,801.061 2130.72,820.144 2132.96,838.702 2135.2,856.721 2137.45,874.192 2139.69,891.105 2141.93,907.455 2144.17,923.24 2146.42,938.458 2148.66,953.111 2150.9,967.204 2153.14,980.743 2155.39,993.737 2157.63,1006.2 2159.87,1018.14 2162.12,1029.58 2164.36,1040.54 2166.6,1051.04 2168.84,1061.11 2171.09,1070.76 2173.33,1080.03 2175.57,1088.92 2177.82,1097.42 2180.06,1105.54 2182.3,1113.3 2184.54,1120.71 2186.79,1127.79 2189.03,1134.55 2191.27,1141 2193.52,1147.16 2195.76,1153.04 2198,1158.64 2200.24,1163.99 2202.49,1169.08 2204.73,1173.94 2206.97,1178.57 2209.22,1182.98 2211.46,1187.18 2213.7,1191.17 2215.94,1194.97 2218.19,1198.59 2220.43,1202.02 2222.67,1205.28 2224.92,1208.37 2227.16,1211.3 2229.4,1214.07 2231.64,1216.71 2233.89,1219.2 2236.13,1221.56 2238.37,1223.79 2240.61,1225.89 2242.86,1227.87 2245.1,1229.74 2247.34,1231.49 2249.59,1233.14 2251.83,1234.68 2254.07,1236.12 2256.31,1237.47 2258.56,1238.72 2260.8,1239.88 2263.04,1240.95 2265.29,1241.94 2267.53,1242.85 2269.77,1243.68 2272.01,1244.43 2274.26,1245.11 2276.5,1245.71 2278.74,1246.25 2280.99,1246.71 2283.23,1247.11 2285.47,1247.44 2287.71,1247.71 2289.96,1247.91 2292.2,1248.05 2294.44,1248.14 2296.69,1248.16 2298.93,1248.13 2301.17,1248.04 2303.41,1247.9 2305.66,1247.7 2307.9,1247.45 2310.14,1247.15 2312.39,1246.8 2314.63,1246.39 2316.87,1245.93 2319.11,1245.43 2321.36,1244.88 2323.6,1244.27 2325.84,1243.63 2328.08,1242.93 2330.33,1242.19 2332.57,1241.4 2334.81,1240.57 2337.06,1239.69 2339.3,1238.76 2341.54,1237.8 2343.78,1236.79 2346.03,1235.73 2348.27,1234.63 2350.51,1233.49 2352.76,1232.3 "/>
<polyline clip-path="url(#clip852)" style="stroke:#c271d2; stroke-linecap:round; stroke-linejoin:round; stroke-width:4; stroke-opacity:1; fill:none" points="112.177,1239.07 114.42,1242.94 116.663,1246.72 118.906,1250.41 121.148,1254.03 123.391,1257.56 125.634,1261.01 127.877,1264.38 130.12,1267.68 132.363,1270.9 134.605,1274.05 136.848,1277.13 139.091,1280.13 141.334,1283.07 143.577,1285.94 145.819,1288.74 148.062,1291.48 150.305,1294.16 152.548,1296.77 154.791,1299.32 157.034,1301.81 159.276,1304.25 161.519,1306.62 163.762,1308.95 166.005,1311.21 168.248,1313.43 170.491,1315.59 172.733,1317.7 174.976,1319.76 177.219,1321.77 179.462,1323.73 181.705,1325.65 183.947,1327.52 186.19,1329.34 188.433,1331.12 190.676,1332.86 192.919,1334.56 195.162,1336.21 197.404,1337.83 199.647,1339.4 201.89,1340.94 204.133,1342.44 206.376,1343.9 208.619,1345.32 210.861,1346.71 213.104,1348.07 215.347,1349.39 217.59,1350.68 219.833,1351.93 222.075,1353.15 224.318,1354.35 226.561,1355.51 228.804,1356.64 231.047,1357.74 233.29,1358.81 235.532,1359.86 237.775,1360.87 240.018,1361.86 242.261,1362.82 244.504,1363.76 246.746,1364.67 248.989,1365.56 251.232,1366.42 253.475,1367.25 255.718,1368.07 257.961,1368.85 260.203,1369.62 262.446,1370.36 264.689,1371.08 266.932,1371.78 269.175,1372.46 271.418,1373.11 273.66,1373.75 275.903,1374.36 278.146,1374.96 280.389,1375.53 282.632,1376.08 284.874,1376.62 287.117,1377.13 289.36,1377.63 291.603,1378.1 293.846,1378.56 296.089,1379 298.331,1379.42 300.574,1379.83 302.817,1380.21 305.06,1380.58 307.303,1380.93 309.545,1381.26 311.788,1381.57 314.031,1381.87 316.274,1382.15 318.517,1382.41 320.76,1382.65 323.002,1382.88 325.245,1383.09 327.488,1383.28 329.731,1383.45 331.974,1383.61 334.217,1383.74 336.459,1383.87 338.702,1383.97 340.945,1384.05 343.188,1384.12 345.431,1384.17 347.673,1384.2 349.916,1384.22 352.159,1384.21 354.402,1384.19 356.645,1384.14 358.888,1384.08 361.13,1384 363.373,1383.9 365.616,1383.77 367.859,1383.63 370.102,1383.46 372.344,1383.28 374.587,1383.07 376.83,1382.83 379.073,1382.58 381.316,1382.3 383.559,1381.99 385.801,1381.66 388.044,1381.31 390.287,1380.92 392.53,1380.51 394.773,1380.07 397.016,1379.6 399.258,1379.1 401.501,1378.57 403.744,1378 405.987,1377.4 408.23,1376.76 410.472,1376.09 412.715,1375.38 414.958,1374.63 417.201,1373.85 419.444,1373.02 421.687,1372.15 423.929,1371.24 426.172,1370.28 428.415,1369.27 430.658,1368.21 432.901,1367.1 435.143,1365.94 437.386,1364.71 439.629,1363.43 441.872,1362.08 444.115,1360.67 446.358,1359.18 448.6,1357.62 450.843,1355.98 453.086,1354.26 455.329,1352.46 457.572,1350.56 459.815,1348.58 462.057,1346.49 464.3,1344.3 466.543,1342 468.786,1339.59 471.029,1337.06 473.271,1334.41 475.514,1331.63 477.757,1328.73 480,1325.7 482.243,1322.53 484.486,1319.21 486.728,1315.72 488.971,1312.06 491.214,1308.21 493.457,1304.15 495.7,1299.89 497.942,1295.4 500.185,1290.67 502.428,1285.7 504.671,1280.47 506.914,1274.98 509.157,1269.21 511.399,1263.14 513.642,1256.78 515.885,1250.11 518.128,1243.12 520.371,1235.8 522.614,1228.14 524.856,1220.13 527.099,1211.76 529.342,1203.02 531.585,1193.9 533.828,1184.39 536.07,1174.49 538.313,1164.19 540.556,1153.47 542.799,1142.32 545.042,1130.75 547.285,1118.74 549.527,1106.27 551.77,1093.36 554.013,1079.98 556.256,1066.12 558.499,1051.78 560.741,1036.93 562.984,1021.59 565.227,1005.81 567.47,989.639 569.713,973.111 571.956,956.274 574.198,939.17 576.441,921.847 578.684,904.35 580.927,886.725 583.17,869.021 585.413,851.285 587.655,833.566 589.898,815.914 592.141,798.379 594.384,781.013 596.627,763.866 598.869,746.992 601.112,730.443 603.355,714.273 605.598,698.537 607.841,683.29 610.084,668.588 612.326,654.488 614.569,641.047 616.812,628.323 619.055,616.375 621.298,605.24 623.54,594.923 625.783,585.448 628.026,576.837 630.269,569.108 632.512,562.274 634.755,556.345 636.997,551.327 639.24,547.22 641.483,544.023 643.726,541.73 645.969,540.329 648.212,539.806 650.454,540.144 652.697,541.319 654.94,543.305 657.183,546.072 659.426,549.585 661.668,553.806 663.911,558.692 666.154,564.197 668.397,570.271 670.64,576.858 672.883,583.902 675.125,591.338 677.368,599.16 679.611,607.378 681.854,615.959 684.097,624.871 686.339,634.084 688.582,643.568 690.825,653.296 693.068,663.239 695.311,673.373 697.554,683.673 699.796,694.115 702.039,704.676 704.282,715.336 706.525,726.074 708.768,736.872 711.011,747.711 713.253,758.575 715.496,769.449 717.739,780.319 719.982,791.171 722.225,801.993 724.467,812.775 726.71,823.507 728.953,834.178 731.196,844.773 733.439,855.284 735.682,865.705 737.924,876.032 740.167,886.258 742.41,896.379 744.653,906.389 746.896,916.285 749.138,926.061 751.381,935.716 753.624,945.244 755.867,954.644 758.11,963.912 760.353,973.045 762.595,982.043 764.838,990.902 767.081,999.621 769.324,1008.2 771.567,1016.64 773.81,1024.93 776.052,1033.08 778.295,1041.09 780.538,1048.96 782.781,1056.69 785.024,1064.28 787.266,1071.73 789.509,1079.04 791.752,1086.22 793.995,1093.26 796.238,1100.17 798.481,1106.95 800.723,1113.59 802.966,1120.1 805.209,1126.49 807.452,1132.75 809.695,1138.88 811.938,1144.89 814.18,1150.77 816.423,1156.54 818.666,1162.18 820.909,1167.71 823.152,1173.13 825.394,1178.42 827.637,1183.61 829.88,1188.69 832.123,1193.66 834.366,1198.52 836.609,1203.28 838.851,1207.93 841.094,1212.48 843.337,1216.94 845.58,1221.29 847.823,1225.55 850.065,1229.72 852.308,1233.79 854.551,1237.77 856.794,1241.67 859.037,1245.48 861.28,1249.2 863.522,1252.84 865.765,1256.39 868.008,1259.87 870.251,1263.27 872.494,1266.59 874.737,1269.84 876.979,1273.01 879.222,1276.11 881.465,1279.13 883.708,1282.09 885.951,1284.98 888.193,1287.81 890.436,1290.57 892.679,1293.26 894.922,1295.9 897.165,1298.47 899.408,1300.98 901.65,1303.43 903.893,1305.83 906.136,1308.17 908.379,1310.45 910.622,1312.69 912.864,1314.86 915.107,1316.99 917.35,1319.07 919.593,1321.1 921.836,1323.08 924.079,1325.01 926.321,1326.89 928.564,1328.73 930.807,1330.53 933.05,1332.28 935.293,1333.99 937.536,1335.66 939.778,1337.29 942.021,1338.88 944.264,1340.42 946.507,1341.93 948.75,1343.41 950.992,1344.84 953.235,1346.24 955.478,1347.61 957.721,1348.94 959.964,1350.24 962.207,1351.5 964.449,1352.73 966.692,1353.93 968.935,1355.1 971.178,1356.24 973.421,1357.35 975.663,1358.43 977.906,1359.49 980.149,1360.51 982.392,1361.51 984.635,1362.48 986.878,1363.42 989.12,1364.34 991.363,1365.23 993.606,1366.1 995.849,1366.95 998.092,1367.77 1000.33,1368.56 1002.58,1369.34 1004.82,1370.09 1007.06,1370.82 1009.31,1371.53 1011.55,1372.21 1013.79,1372.87 1016.03,1373.52 1018.28,1374.14 1020.52,1374.74 1022.76,1375.32 1025.01,1375.88 1027.25,1376.42 1029.49,1376.94 1031.73,1377.44 1033.98,1377.93 1036.22,1378.39 1038.46,1378.83 1040.71,1379.26 1042.95,1379.67 1045.19,1380.06 1047.43,1380.43 1049.68,1380.78 1051.92,1381.12 1054.16,1381.44 1056.41,1381.74 1058.65,1382.02 1060.89,1382.29 1063.13,1382.54 1065.38,1382.77 1067.62,1382.98 1069.86,1383.18 1072.1,1383.36 1074.35,1383.52 1076.59,1383.67 1078.83,1383.8 1081.08,1383.91 1083.32,1384 1085.56,1384.07 1087.8,1384.13 1090.05,1384.16 1092.29,1384.18 1094.53,1384.18 1096.78,1384.16 1099.02,1384.13 1101.26,1384.07 1103.5,1383.99 1105.75,1383.89 1107.99,1383.78 1110.23,1383.64 1112.48,1383.48 1114.72,1383.29 1116.96,1383.09 1119.2,1382.85 1121.45,1382.59 1123.69,1382.3 1125.93,1381.99 1128.18,1381.64 1130.42,1381.28 1132.66,1380.88 1134.9,1380.46 1137.15,1380.01 1139.39,1379.53 1141.63,1379.03 1143.88,1378.5 1146.12,1377.94 1148.36,1377.34 1150.6,1376.72 1152.85,1376.06 1155.09,1375.37 1157.33,1374.65 1159.57,1373.89 1161.82,1373.08 1164.06,1372.24 1166.3,1371.36 1168.55,1370.43 1170.79,1369.45 1173.03,1368.42 1175.27,1367.34 1177.52,1366.2 1179.76,1365.01 1182,1363.76 1184.25,1362.44 1186.49,1361.05 1188.73,1359.59 1190.97,1358.06 1193.22,1356.45 1195.46,1354.76 1197.7,1352.99 1199.95,1351.12 1202.19,1349.16 1204.43,1347.1 1206.67,1344.93 1208.92,1342.66 1211.16,1340.28 1213.4,1337.78 1215.65,1335.16 1217.89,1332.41 1220.13,1329.53 1222.37,1326.51 1224.62,1323.35 1226.86,1320.05 1229.1,1316.6 1231.35,1312.99 1233.59,1309.21 1235.83,1305.23 1238.07,1301.05 1240.32,1296.65 1242.56,1292.02 1244.8,1287.15 1247.04,1282.02 1249.29,1276.63 1251.53,1270.96 1253.77,1265 1256.02,1258.74 1258.26,1252.17 1260.5,1245.28 1262.74,1238.06 1264.99,1230.5 1267.23,1222.58 1269.47,1214.31 1271.72,1205.67 1273.96,1196.64 1276.2,1187.24 1278.44,1177.43 1280.69,1167.23 1282.93,1156.61 1285.17,1145.58 1287.42,1134.12 1289.66,1122.23 1291.9,1109.9 1294.14,1097.13 1296.39,1083.9 1298.63,1070.22 1300.87,1056.08 1303.12,1041.47 1305.36,1026.35 1307.6,1010.71 1309.84,994.603 1312.09,978.096 1314.33,961.242 1316.57,944.096 1318.82,926.715 1321.06,909.152 1323.3,891.461 1325.54,873.697 1327.79,855.913 1330.03,838.16 1332.27,820.49 1334.51,802.956 1336.76,785.608 1339,768.495 1341.24,751.669 1343.49,735.177 1345.73,719.069 1347.97,703.393 1350.21,688.196 1352.46,673.525 1354.7,659.426 1356.94,645.945 1359.19,633.128 1361.43,621.019 1363.67,609.663 1365.91,599.103 1368.16,589.382 1370.4,580.542 1372.64,572.621 1374.89,565.613 1377.13,559.51 1379.37,554.309 1381.61,550.001 1383.86,546.579 1386.1,544.031 1388.34,542.345 1390.59,541.505 1392.83,541.494 1395.07,542.293 1397.31,543.88 1399.56,546.233 1401.8,549.326 1404.04,553.131 1406.29,557.619 1408.53,562.758 1410.77,568.515 1413.01,574.853 1415.26,581.734 1417.5,589.12 1419.74,596.967 1421.98,605.233 1424.23,613.869 1426.47,622.83 1428.71,632.063 1430.96,641.517 1433.2,651.142 1435.44,660.96 1437.68,670.973 1439.93,681.157 1442.17,691.491 1444.41,701.952 1446.66,712.52 1448.9,723.176 1451.14,733.902 1453.38,744.678 1455.63,755.49 1457.87,766.32 1460.11,777.153 1462.36,787.976 1464.6,798.775 1466.84,809.537 1469.08,820.252 1471.33,830.908 1473.57,841.495 1475.81,852.006 1478.06,862.431 1480.3,872.764 1482.54,882.999 1484.78,893.13 1487.03,903.153 1489.27,913.064 1491.51,922.862 1493.76,932.539 1496,942.088 1498.24,951.507 1500.48,960.794 1502.73,969.949 1504.97,978.968 1507.21,987.853 1509.46,996.6 1511.7,1005.21 1513.94,1013.68 1516.18,1022.01 1518.43,1030.21 1520.67,1038.26 1522.91,1046.18 1525.15,1053.95 1527.4,1061.59 1529.64,1069.08 1531.88,1076.44 1534.13,1083.66 1536.37,1090.75 1538.61,1097.7 1540.85,1104.51 1543.1,1111.19 1545.34,1117.74 1547.58,1124.16 1549.83,1130.45 1552.07,1136.62 1554.31,1142.66 1556.55,1148.58 1558.8,1154.38 1561.04,1160.06 1563.28,1165.62 1565.53,1171.07 1567.77,1176.4 1570.01,1181.62 1572.25,1186.73 1574.5,1191.73 1576.74,1196.62 1578.98,1201.41 1581.23,1206.1 1583.47,1210.69 1585.71,1215.17 1587.95,1219.56 1590.2,1223.85 1592.44,1228.05 1594.68,1232.16 1596.93,1236.17 1599.17,1240.1 1601.41,1243.94 1603.65,1247.69 1605.9,1251.36 1608.14,1254.94 1610.38,1258.45 1612.62,1261.87 1614.87,1265.22 1617.11,1268.49 1619.35,1271.69 1621.6,1274.81 1623.84,1277.86 1626.08,1280.84 1628.32,1283.76 1630.57,1286.6 1632.81,1289.39 1635.05,1292.1 1637.3,1294.76 1639.54,1297.35 1641.78,1299.88 1644.02,1302.35 1646.27,1304.77 1648.51,1307.12 1650.75,1309.43 1653,1311.67 1655.24,1313.87 1657.48,1316.01 1659.72,1318.1 1661.97,1320.15 1664.21,1322.14 1666.45,1324.09 1668.7,1325.99 1670.94,1327.84 1673.18,1329.66 1675.42,1331.42 1677.67,1333.15 1679.91,1334.83 1682.15,1336.47 1684.4,1338.08 1686.64,1339.64 1688.88,1341.16 1691.12,1342.65 1693.37,1344.1 1695.61,1345.52 1697.85,1346.9 1700.09,1348.25 1702.34,1349.56 1704.58,1350.84 1706.82,1352.08 1709.07,1353.3 1711.31,1354.48 1713.55,1355.63 1715.79,1356.75 1718.04,1357.85 1720.28,1358.91 1722.52,1359.94 1724.77,1360.95 1727.01,1361.93 1729.25,1362.88 1731.49,1363.81 1733.74,1364.71 1735.98,1365.59 1738.22,1366.44 1740.47,1367.27 1742.71,1368.07 1744.95,1368.85 1747.19,1369.61 1749.44,1370.34 1751.68,1371.05 1753.92,1371.74 1756.17,1372.41 1758.41,1373.06 1760.65,1373.69 1762.89,1374.29 1765.14,1374.88 1767.38,1375.45 1769.62,1375.99 1771.87,1376.52 1774.11,1377.03 1776.35,1377.52 1778.59,1377.99 1780.84,1378.44 1783.08,1378.87 1785.32,1379.28 1787.56,1379.68 1789.81,1380.06 1792.05,1380.42 1794.29,1380.76 1796.54,1381.09 1798.78,1381.39 1801.02,1381.68 1803.26,1381.95 1805.51,1382.21 1807.75,1382.44 1809.99,1382.66 1812.24,1382.86 1814.48,1383.05 1816.72,1383.21 1818.96,1383.36 1821.21,1383.49 1823.45,1383.6 1825.69,1383.69 1827.94,1383.77 1830.18,1383.83 1832.42,1383.87 1834.66,1383.89 1836.91,1383.89 1839.15,1383.87 1841.39,1383.84 1843.64,1383.79 1845.88,1383.71 1848.12,1383.62 1850.36,1383.51 1852.61,1383.37 1854.85,1383.22 1857.09,1383.04 1859.34,1382.85 1861.58,1382.63 1863.82,1382.38 1866.06,1382.11 1868.31,1381.82 1870.55,1381.5 1872.79,1381.16 1875.03,1380.79 1877.28,1380.39 1879.52,1379.97 1881.76,1379.51 1884.01,1379.03 1886.25,1378.51 1888.49,1377.96 1890.73,1377.38 1892.98,1376.76 1895.22,1376.11 1897.46,1375.42 1899.71,1374.7 1901.95,1373.92 1904.19,1373.1 1906.43,1372.23 1908.68,1371.31 1910.92,1370.34 1913.16,1369.32 1915.41,1368.24 1917.65,1367.12 1919.89,1365.94 1922.13,1364.71 1924.38,1363.42 1926.62,1362.07 1928.86,1360.66 1931.11,1359.18 1933.35,1357.64 1935.59,1356.02 1937.83,1354.33 1940.08,1352.56 1942.32,1350.71 1944.56,1348.77 1946.81,1346.74 1949.05,1344.61 1951.29,1342.37 1953.53,1340.03 1955.78,1337.57 1958.02,1335 1960.26,1332.29 1962.5,1329.45 1964.75,1326.47 1966.99,1323.34 1969.23,1320.05 1971.48,1316.6 1973.72,1312.97 1975.96,1309.17 1978.2,1305.17 1980.45,1300.97 1982.69,1296.57 1984.93,1291.95 1987.18,1287.09 1989.42,1282 1991.66,1276.66 1993.9,1271.06 1996.15,1265.19 1998.39,1259.04 2000.63,1252.59 2002.88,1245.83 2005.12,1238.76 2007.36,1231.35 2009.6,1223.6 2011.85,1215.49 2014.09,1207.02 2016.33,1198.17 2018.58,1188.93 2020.82,1179.28 2023.06,1169.2 2025.3,1158.69 2027.55,1147.74 2029.79,1136.34 2032.03,1124.48 2034.28,1112.17 2036.52,1099.4 2038.76,1086.19 2041,1072.53 2043.25,1058.43 2045.49,1043.91 2047.73,1028.98 2049.97,1013.66 2052.22,997.958 2054.46,981.901 2056.7,965.512 2058.95,948.817 2061.19,931.844 2063.43,914.625 2065.67,897.192 2067.92,879.573 2070.16,861.826 2072.4,844.023 2074.65,826.234 2076.89,808.526 2079.13,790.964 2081.37,773.612 2083.62,756.531 2085.86,739.779 2088.1,723.414 2090.35,707.49 2092.59,692.06 2094.83,677.175 2097.07,662.882 2099.32,649.229 2101.56,636.259 2103.8,624.014 2106.05,612.534 2108.29,601.857 2110.53,592.019 2112.77,583.054 2115.02,574.992 2117.26,567.862 2119.5,561.667 2121.75,556.389 2123.99,552.017 2126.23,548.538 2128.47,545.936 2130.72,544.195 2132.96,543.297 2135.2,543.222 2137.45,543.949 2139.69,545.454 2141.93,547.713 2144.17,550.7 2146.42,554.386 2148.66,558.743 2150.9,563.739 2153.14,569.34 2155.39,575.514 2157.63,582.223 2159.87,589.43 2162.12,597.096 2164.36,605.18 2166.6,613.639 2168.84,622.428 2171.09,631.504 2173.33,640.817 2175.57,650.359 2177.82,660.128 2180.06,670.099 2182.3,680.247 2184.54,690.55 2186.79,700.985 2189.03,711.531 2191.27,722.168 2193.52,732.875 2195.76,743.636 2198,754.432 2200.24,765.248 2202.49,776.068 2204.73,786.878 2206.97,797.664 2209.22,808.414 2211.46,819.118 2213.7,829.763 2215.94,840.342 2218.19,850.846 2220.43,861.268 2222.67,871.6 2224.92,881.839 2227.16,891.978 2229.4,902.008 2231.64,911.924 2233.89,921.721 2236.13,931.396 2238.37,940.948 2240.61,950.373 2242.86,959.668 2245.1,968.833 2247.34,977.864 2249.59,986.76 2251.83,995.519 2254.07,1004.14 2256.31,1012.62 2258.56,1020.97 2260.8,1029.17 2263.04,1037.23 2265.29,1045.16 2267.53,1052.94 2269.77,1060.58 2272.01,1068.09 2274.26,1075.45 2276.5,1082.68 2278.74,1089.77 2280.99,1096.72 2283.23,1103.55 2285.47,1110.24 2287.71,1116.8 2289.96,1123.23 2292.2,1129.54 2294.44,1135.72 2296.69,1141.78 2298.93,1147.71 2301.17,1153.52 2303.41,1159.22 2305.66,1164.79 2307.9,1170.25 2310.14,1175.6 2312.39,1180.83 2314.63,1185.95 2316.87,1190.97 2319.11,1195.88 2321.36,1200.68 2323.6,1205.38 2325.84,1209.97 2328.08,1214.47 2330.33,1218.87 2332.57,1223.17 2334.81,1227.38 2337.06,1231.49 2339.3,1235.52 2341.54,1239.45 2343.78,1243.3 2346.03,1247.06 2348.27,1250.74 2350.51,1254.33 2352.76,1257.84 "/>
<path clip-path="url(#clip850)" d="M186.863 352.309 L500.018 352.309 L500.018 93.1086 L186.863 93.1086  Z" fill="#ffffff" fill-rule="evenodd" fill-opacity="1"/>
<polyline clip-path="url(#clip850)" style="stroke:#000000; stroke-linecap:round; stroke-linejoin:round; stroke-width:4; stroke-opacity:1; fill:none" points="186.863,352.309 500.018,352.309 500.018,93.1086 186.863,93.1086 186.863,352.309 "/>
<polyline clip-path="url(#clip850)" style="stroke:#009af9; stroke-linecap:round; stroke-linejoin:round; stroke-width:4; stroke-opacity:1; fill:none" points="211.758,144.949 361.13,144.949 "/>
<path clip-path="url(#clip850)" d="M386.026 151.997 L386.026 136.303 L390.285 136.303 L390.285 151.835 Q390.285 155.516 391.72 157.368 Q393.155 159.196 396.026 159.196 Q399.475 159.196 401.465 156.997 Q403.479 154.798 403.479 151.002 L403.479 136.303 L407.739 136.303 L407.739 162.229 L403.479 162.229 L403.479 158.247 Q401.928 160.608 399.868 161.766 Q397.831 162.9 395.123 162.9 Q390.655 162.9 388.34 160.122 Q386.026 157.344 386.026 151.997 M396.743 135.678 L396.743 135.678 Z" fill="#000000" fill-rule="nonzero" fill-opacity="1" /><path clip-path="url(#clip850)" d="M416.118 126.21 L425.933 126.21 L425.933 129.52 L420.377 129.52 L420.377 165.168 L425.933 165.168 L425.933 168.479 L416.118 168.479 L416.118 126.21 Z" fill="#000000" fill-rule="nonzero" fill-opacity="1" /><path clip-path="url(#clip850)" d="M436.419 158.293 L444.058 158.293 L444.058 131.928 L435.748 133.595 L435.748 129.335 L444.011 127.669 L448.687 127.669 L448.687 158.293 L456.326 158.293 L456.326 162.229 L436.419 162.229 L436.419 158.293 Z" fill="#000000" fill-rule="nonzero" fill-opacity="1" /><path clip-path="url(#clip850)" d="M475.122 126.21 L475.122 168.479 L465.308 168.479 L465.308 165.168 L470.84 165.168 L470.84 129.52 L465.308 129.52 L465.308 126.21 L475.122 126.21 Z" fill="#000000" fill-rule="nonzero" fill-opacity="1" /><polyline clip-path="url(#clip850)" style="stroke:#e26f46; stroke-linecap:round; stroke-linejoin:round; stroke-width:4; stroke-opacity:1; fill:none" points="211.758,196.789 361.13,196.789 "/>
<path clip-path="url(#clip850)" d="M386.026 203.837 L386.026 188.143 L390.285 188.143 L390.285 203.675 Q390.285 207.356 391.72 209.208 Q393.155 211.036 396.026 211.036 Q399.475 211.036 401.465 208.837 Q403.479 206.638 403.479 202.842 L403.479 188.143 L407.739 188.143 L407.739 214.069 L403.479 214.069 L403.479 210.087 Q401.928 212.448 399.868 213.606 Q397.831 214.74 395.123 214.74 Q390.655 214.74 388.34 211.962 Q386.026 209.184 386.026 203.837 M396.743 187.518 L396.743 187.518 Z" fill="#000000" fill-rule="nonzero" fill-opacity="1" /><path clip-path="url(#clip850)" d="M416.118 178.05 L425.933 178.05 L425.933 181.36 L420.377 181.36 L420.377 217.008 L425.933 217.008 L425.933 220.319 L416.118 220.319 L416.118 178.05 Z" fill="#000000" fill-rule="nonzero" fill-opacity="1" /><path clip-path="url(#clip850)" d="M439.637 210.133 L455.956 210.133 L455.956 214.069 L434.012 214.069 L434.012 210.133 Q436.674 207.379 441.257 202.749 Q445.863 198.096 447.044 196.754 Q449.289 194.231 450.169 192.495 Q451.072 190.735 451.072 189.046 Q451.072 186.291 449.127 184.555 Q447.206 182.819 444.104 182.819 Q441.905 182.819 439.451 183.583 Q437.021 184.347 434.243 185.897 L434.243 181.175 Q437.067 180.041 439.521 179.462 Q441.974 178.884 444.011 178.884 Q449.382 178.884 452.576 181.569 Q455.771 184.254 455.771 188.745 Q455.771 190.874 454.961 192.796 Q454.173 194.694 452.067 197.286 Q451.488 197.958 448.386 201.175 Q445.285 204.37 439.637 210.133 Z" fill="#000000" fill-rule="nonzero" fill-opacity="1" /><path clip-path="url(#clip850)" d="M475.122 178.05 L475.122 220.319 L465.308 220.319 L465.308 217.008 L470.84 217.008 L470.84 181.36 L465.308 181.36 L465.308 178.05 L475.122 178.05 Z" fill="#000000" fill-rule="nonzero" fill-opacity="1" /><polyline clip-path="url(#clip850)" style="stroke:#3da44d; stroke-linecap:round; stroke-linejoin:round; stroke-width:4; stroke-opacity:1; fill:none" points="211.758,248.629 361.13,248.629 "/>
<path clip-path="url(#clip850)" d="M386.026 255.677 L386.026 239.983 L390.285 239.983 L390.285 255.515 Q390.285 259.196 391.72 261.048 Q393.155 262.876 396.026 262.876 Q399.475 262.876 401.465 260.677 Q403.479 258.478 403.479 254.682 L403.479 239.983 L407.739 239.983 L407.739 265.909 L403.479 265.909 L403.479 261.927 Q401.928 264.288 399.868 265.446 Q397.831 266.58 395.123 266.58 Q390.655 266.58 388.34 263.802 Q386.026 261.024 386.026 255.677 M396.743 239.358 L396.743 239.358 Z" fill="#000000" fill-rule="nonzero" fill-opacity="1" /><path clip-path="url(#clip850)" d="M416.118 229.89 L425.933 229.89 L425.933 233.2 L420.377 233.2 L420.377 268.848 L425.933 268.848 L425.933 272.159 L416.118 272.159 L416.118 229.89 Z" fill="#000000" fill-rule="nonzero" fill-opacity="1" /><path clip-path="url(#clip850)" d="M436.419 261.973 L444.058 261.973 L444.058 235.608 L435.748 237.275 L435.748 233.015 L444.011 231.349 L448.687 231.349 L448.687 261.973 L456.326 261.973 L456.326 265.909 L436.419 265.909 L436.419 261.973 Z" fill="#000000" fill-rule="nonzero" fill-opacity="1" /><path clip-path="url(#clip850)" d="M475.122 229.89 L475.122 272.159 L465.308 272.159 L465.308 268.848 L470.84 268.848 L470.84 233.2 L465.308 233.2 L465.308 229.89 L475.122 229.89 Z" fill="#000000" fill-rule="nonzero" fill-opacity="1" /><polyline clip-path="url(#clip850)" style="stroke:#c271d2; stroke-linecap:round; stroke-linejoin:round; stroke-width:4; stroke-opacity:1; fill:none" points="211.758,300.469 361.13,300.469 "/>
<path clip-path="url(#clip850)" d="M386.026 307.517 L386.026 291.823 L390.285 291.823 L390.285 307.355 Q390.285 311.036 391.72 312.888 Q393.155 314.716 396.026 314.716 Q399.475 314.716 401.465 312.517 Q403.479 310.318 403.479 306.522 L403.479 291.823 L407.739 291.823 L407.739 317.749 L403.479 317.749 L403.479 313.767 Q401.928 316.128 399.868 317.286 Q397.831 318.42 395.123 318.42 Q390.655 318.42 388.34 315.642 Q386.026 312.864 386.026 307.517 M396.743 291.198 L396.743 291.198 Z" fill="#000000" fill-rule="nonzero" fill-opacity="1" /><path clip-path="url(#clip850)" d="M416.118 281.73 L425.933 281.73 L425.933 285.04 L420.377 285.04 L420.377 320.688 L425.933 320.688 L425.933 323.999 L416.118 323.999 L416.118 281.73 Z" fill="#000000" fill-rule="nonzero" fill-opacity="1" /><path clip-path="url(#clip850)" d="M439.637 313.813 L455.956 313.813 L455.956 317.749 L434.012 317.749 L434.012 313.813 Q436.674 311.059 441.257 306.429 Q445.863 301.776 447.044 300.434 Q449.289 297.911 450.169 296.175 Q451.072 294.415 451.072 292.726 Q451.072 289.971 449.127 288.235 Q447.206 286.499 444.104 286.499 Q441.905 286.499 439.451 287.263 Q437.021 288.027 434.243 289.577 L434.243 284.855 Q437.067 283.721 439.521 283.142 Q441.974 282.564 444.011 282.564 Q449.382 282.564 452.576 285.249 Q455.771 287.934 455.771 292.425 Q455.771 294.554 454.961 296.476 Q454.173 298.374 452.067 300.966 Q451.488 301.638 448.386 304.855 Q445.285 308.05 439.637 313.813 Z" fill="#000000" fill-rule="nonzero" fill-opacity="1" /><path clip-path="url(#clip850)" d="M475.122 281.73 L475.122 323.999 L465.308 323.999 L465.308 320.688 L470.84 320.688 L470.84 285.04 L465.308 285.04 L465.308 281.73 L475.122 281.73 Z" fill="#000000" fill-rule="nonzero" fill-opacity="1" /></svg>
