<?xml version="1.0" encoding="utf-8"?>
<svg xmlns="http://www.w3.org/2000/svg" xmlns:xlink="http://www.w3.org/1999/xlink" width="600" height="400" viewBox="0 0 2400 1600">
<defs>
  <clipPath id="clip190">
    <rect x="0" y="0" width="2400" height="1600"/>
  </clipPath>
</defs>
<path clip-path="url(#clip190)" d="M0 1600 L2400 1600 L2400 0 L0 0  Z" fill="#ffffff" fill-rule="evenodd" fill-opacity="1"/>
<defs>
  <clipPath id="clip191">
    <rect x="480" y="0" width="1681" height="1600"/>
  </clipPath>
</defs>
<path clip-path="url(#clip190)" d="M112.177 1423.18 L2352.76 1423.18 L2352.76 47.2441 L112.177 47.2441  Z" fill="#ffffff" fill-rule="evenodd" fill-opacity="1"/>
<defs>
  <clipPath id="clip192">
    <rect x="112" y="47" width="2242" height="1377"/>
  </clipPath>
</defs>
<polyline clip-path="url(#clip192)" style="stroke:#000000; stroke-linecap:round; stroke-linejoin:round; stroke-width:2; stroke-opacity:0.1; fill:none" points="112.177,1423.18 112.177,47.2441 "/>
<polyline clip-path="url(#clip192)" style="stroke:#000000; stroke-linecap:round; stroke-linejoin:round; stroke-width:2; stroke-opacity:0.1; fill:none" points="560.293,1423.18 560.293,47.2441 "/>
<polyline clip-path="url(#clip192)" style="stroke:#000000; stroke-linecap:round; stroke-linejoin:round; stroke-width:2; stroke-opacity:0.1; fill:none" points="1008.41,1423.18 1008.41,47.2441 "/>
<polyline clip-path="url(#clip192)" style="stroke:#000000; stroke-linecap:round; stroke-linejoin:round; stroke-width:2; stroke-opacity:0.1; fill:none" points="1456.52,1423.18 1456.52,47.2441 "/>
<polyline clip-path="url(#clip192)" style="stroke:#000000; stroke-linecap:round; stroke-linejoin:round; stroke-width:2; stroke-opacity:0.1; fill:none" points="1904.64,1423.18 1904.64,47.2441 "/>
<polyline clip-path="url(#clip192)" style="stroke:#000000; stroke-linecap:round; stroke-linejoin:round; stroke-width:2; stroke-opacity:0.1; fill:none" points="2352.76,1423.18 2352.76,47.2441 "/>
<polyline clip-path="url(#clip190)" style="stroke:#000000; stroke-linecap:round; stroke-linejoin:round; stroke-width:4; stroke-opacity:1; fill:none" points="112.177,1423.18 2352.76,1423.18 "/>
<polyline clip-path="url(#clip190)" style="stroke:#000000; stroke-linecap:round; stroke-linejoin:round; stroke-width:4; stroke-opacity:1; fill:none" points="112.177,1423.18 112.177,1404.28 "/>
<polyline clip-path="url(#clip190)" style="stroke:#000000; stroke-linecap:round; stroke-linejoin:round; stroke-width:4; stroke-opacity:1; fill:none" points="560.293,1423.18 560.293,1404.28 "/>
<polyline clip-path="url(#clip190)" style="stroke:#000000; stroke-linecap:round; stroke-linejoin:round; stroke-width:4; stroke-opacity:1; fill:none" points="1008.41,1423.18 1008.41,1404.28 "/>
<polyline clip-path="url(#clip190)" style="stroke:#000000; stroke-linecap:round; stroke-linejoin:round; stroke-width:4; stroke-opacity:1; fill:none" points="1456.52,1423.18 1456.52,1404.28 "/>
<polyline clip-path="url(#clip190)" style="stroke:#000000; stroke-linecap:round; stroke-linejoin:round; stroke-width:4; stroke-opacity:1; fill:none" points="1904.64,1423.18 1904.64,1404.28 "/>
<polyline clip-path="url(#clip190)" style="stroke:#000000; stroke-linecap:round; stroke-linejoin:round; stroke-width:4; stroke-opacity:1; fill:none" points="2352.76,1423.18 2352.76,1404.28 "/>
<path clip-path="url(#clip190)" d="M112.177 1454.1 Q108.566 1454.1 106.737 1457.66 Q104.932 1461.2 104.932 1468.33 Q104.932 1475.44 106.737 1479.01 Q108.566 1482.55 112.177 1482.55 Q115.811 1482.55 117.617 1479.01 Q119.446 1475.44 119.446 1468.33 Q119.446 1461.2 117.617 1457.66 Q115.811 1454.1 112.177 1454.1 M112.177 1450.39 Q117.987 1450.39 121.043 1455 Q124.122 1459.58 124.122 1468.33 Q124.122 1477.06 121.043 1481.67 Q117.987 1486.25 112.177 1486.25 Q106.367 1486.25 103.288 1481.67 Q100.233 1477.06 100.233 1468.33 Q100.233 1459.58 103.288 1455 Q106.367 1450.39 112.177 1450.39 Z" fill="#000000" fill-rule="nonzero" fill-opacity="1" /><path clip-path="url(#clip190)" d="M554.946 1481.64 L571.265 1481.64 L571.265 1485.58 L549.321 1485.58 L549.321 1481.64 Q551.983 1478.89 556.566 1474.26 Q561.173 1469.61 562.353 1468.27 Q564.598 1465.74 565.478 1464.01 Q566.381 1462.25 566.381 1460.56 Q566.381 1457.8 564.436 1456.07 Q562.515 1454.33 559.413 1454.33 Q557.214 1454.33 554.761 1455.09 Q552.33 1455.86 549.552 1457.41 L549.552 1452.69 Q552.376 1451.55 554.83 1450.97 Q557.284 1450.39 559.321 1450.39 Q564.691 1450.39 567.885 1453.08 Q571.08 1455.77 571.08 1460.26 Q571.08 1462.39 570.27 1464.31 Q569.483 1466.2 567.376 1468.8 Q566.798 1469.47 563.696 1472.69 Q560.594 1475.88 554.946 1481.64 Z" fill="#000000" fill-rule="nonzero" fill-opacity="1" /><path clip-path="url(#clip190)" d="M1011.42 1455.09 L999.612 1473.54 L1011.42 1473.54 L1011.42 1455.09 M1010.19 1451.02 L1016.07 1451.02 L1016.07 1473.54 L1021 1473.54 L1021 1477.43 L1016.07 1477.43 L1016.07 1485.58 L1011.42 1485.58 L1011.42 1477.43 L995.816 1477.43 L995.816 1472.92 L1010.19 1451.02 Z" fill="#000000" fill-rule="nonzero" fill-opacity="1" /><path clip-path="url(#clip190)" d="M1456.93 1466.44 Q1453.78 1466.44 1451.93 1468.59 Q1450.1 1470.74 1450.1 1474.49 Q1450.1 1478.22 1451.93 1480.39 Q1453.78 1482.55 1456.93 1482.55 Q1460.08 1482.55 1461.91 1480.39 Q1463.76 1478.22 1463.76 1474.49 Q1463.76 1470.74 1461.91 1468.59 Q1460.08 1466.44 1456.93 1466.44 M1466.21 1451.78 L1466.21 1456.04 Q1464.45 1455.21 1462.65 1454.77 Q1460.86 1454.33 1459.11 1454.33 Q1454.48 1454.33 1452.02 1457.45 Q1449.59 1460.58 1449.24 1466.9 Q1450.61 1464.89 1452.67 1463.82 Q1454.73 1462.73 1457.21 1462.73 Q1462.42 1462.73 1465.42 1465.9 Q1468.46 1469.05 1468.46 1474.49 Q1468.46 1479.82 1465.31 1483.03 Q1462.16 1486.25 1456.93 1486.25 Q1450.93 1486.25 1447.76 1481.67 Q1444.59 1477.06 1444.59 1468.33 Q1444.59 1460.14 1448.48 1455.28 Q1452.37 1450.39 1458.92 1450.39 Q1460.68 1450.39 1462.46 1450.74 Q1464.27 1451.09 1466.21 1451.78 Z" fill="#000000" fill-rule="nonzero" fill-opacity="1" /><path clip-path="url(#clip190)" d="M1904.64 1469.17 Q1901.31 1469.17 1899.39 1470.95 Q1897.49 1472.73 1897.49 1475.86 Q1897.49 1478.98 1899.39 1480.77 Q1901.31 1482.55 1904.64 1482.55 Q1907.97 1482.55 1909.89 1480.77 Q1911.82 1478.96 1911.82 1475.86 Q1911.82 1472.73 1909.89 1470.95 Q1908 1469.17 1904.64 1469.17 M1899.96 1467.18 Q1896.96 1466.44 1895.27 1464.38 Q1893.6 1462.32 1893.6 1459.35 Q1893.6 1455.21 1896.54 1452.8 Q1899.5 1450.39 1904.64 1450.39 Q1909.8 1450.39 1912.74 1452.8 Q1915.68 1455.21 1915.68 1459.35 Q1915.68 1462.32 1913.99 1464.38 Q1912.33 1466.44 1909.34 1467.18 Q1912.72 1467.96 1914.59 1470.26 Q1916.49 1472.55 1916.49 1475.86 Q1916.49 1480.88 1913.41 1483.57 Q1910.36 1486.25 1904.64 1486.25 Q1898.92 1486.25 1895.84 1483.57 Q1892.79 1480.88 1892.79 1475.86 Q1892.79 1472.55 1894.69 1470.26 Q1896.58 1467.96 1899.96 1467.18 M1898.25 1459.79 Q1898.25 1462.48 1899.92 1463.98 Q1901.61 1465.49 1904.64 1465.49 Q1907.65 1465.49 1909.34 1463.98 Q1911.05 1462.48 1911.05 1459.79 Q1911.05 1457.11 1909.34 1455.6 Q1907.65 1454.1 1904.64 1454.1 Q1901.61 1454.1 1899.92 1455.6 Q1898.25 1457.11 1898.25 1459.79 Z" fill="#000000" fill-rule="nonzero" fill-opacity="1" /><path clip-path="url(#clip190)" d="M2327.44 1481.64 L2335.08 1481.64 L2335.08 1455.28 L2326.77 1456.95 L2326.77 1452.69 L2335.04 1451.02 L2339.71 1451.02 L2339.71 1481.64 L2347.35 1481.64 L2347.35 1485.58 L2327.44 1485.58 L2327.44 1481.64 Z" fill="#000000" fill-rule="nonzero" fill-opacity="1" /><path clip-path="url(#clip190)" d="M2366.8 1454.1 Q2363.18 1454.1 2361.36 1457.66 Q2359.55 1461.2 2359.55 1468.33 Q2359.55 1475.44 2361.36 1479.01 Q2363.18 1482.55 2366.8 1482.55 Q2370.43 1482.55 2372.23 1479.01 Q2374.06 1475.44 2374.06 1468.33 Q2374.06 1461.2 2372.23 1457.66 Q2370.43 1454.1 2366.8 1454.1 M2366.8 1450.39 Q2372.61 1450.39 2375.66 1455 Q2378.74 1459.58 2378.74 1468.33 Q2378.74 1477.06 2375.66 1481.67 Q2372.61 1486.25 2366.8 1486.25 Q2360.99 1486.25 2357.91 1481.67 Q2354.85 1477.06 2354.85 1468.33 Q2354.85 1459.58 2357.91 1455 Q2360.99 1450.39 2366.8 1450.39 Z" fill="#000000" fill-rule="nonzero" fill-opacity="1" /><path clip-path="url(#clip190)" d="M1231.53 1522.27 L1231.53 1532.4 L1243.59 1532.4 L1243.59 1536.95 L1231.53 1536.95 L1231.53 1556.3 Q1231.53 1560.66 1232.71 1561.9 Q1233.91 1563.14 1237.58 1563.14 L1243.59 1563.14 L1243.59 1568.04 L1237.58 1568.04 Q1230.8 1568.04 1228.22 1565.53 Q1225.64 1562.98 1225.64 1556.3 L1225.64 1536.95 L1221.34 1536.95 L1221.34 1532.4 L1225.64 1532.4 L1225.64 1522.27 L1231.53 1522.27 Z" fill="#000000" fill-rule="nonzero" fill-opacity="1" /><polyline clip-path="url(#clip192)" style="stroke:#000000; stroke-linecap:round; stroke-linejoin:round; stroke-width:2; stroke-opacity:0.1; fill:none" points="112.177,1239.07 2352.76,1239.07 "/>
<polyline clip-path="url(#clip192)" style="stroke:#000000; stroke-linecap:round; stroke-linejoin:round; stroke-width:2; stroke-opacity:0.1; fill:none" points="112.177,1043.73 2352.76,1043.73 "/>
<polyline clip-path="url(#clip192)" style="stroke:#000000; stroke-linecap:round; stroke-linejoin:round; stroke-width:2; stroke-opacity:0.1; fill:none" points="112.177,848.384 2352.76,848.384 "/>
<polyline clip-path="url(#clip192)" style="stroke:#000000; stroke-linecap:round; stroke-linejoin:round; stroke-width:2; stroke-opacity:0.1; fill:none" points="112.177,653.041 2352.76,653.041 "/>
<polyline clip-path="url(#clip192)" style="stroke:#000000; stroke-linecap:round; stroke-linejoin:round; stroke-width:2; stroke-opacity:0.1; fill:none" points="112.177,457.698 2352.76,457.698 "/>
<polyline clip-path="url(#clip192)" style="stroke:#000000; stroke-linecap:round; stroke-linejoin:round; stroke-width:2; stroke-opacity:0.1; fill:none" points="112.177,262.355 2352.76,262.355 "/>
<polyline clip-path="url(#clip192)" style="stroke:#000000; stroke-linecap:round; stroke-linejoin:round; stroke-width:2; stroke-opacity:0.1; fill:none" points="112.177,67.0122 2352.76,67.0122 "/>
<polyline clip-path="url(#clip190)" style="stroke:#000000; stroke-linecap:round; stroke-linejoin:round; stroke-width:4; stroke-opacity:1; fill:none" points="112.177,1423.18 112.177,47.2441 "/>
<polyline clip-path="url(#clip190)" style="stroke:#000000; stroke-linecap:round; stroke-linejoin:round; stroke-width:4; stroke-opacity:1; fill:none" points="112.177,1239.07 131.075,1239.07 "/>
<polyline clip-path="url(#clip190)" style="stroke:#000000; stroke-linecap:round; stroke-linejoin:round; stroke-width:4; stroke-opacity:1; fill:none" points="112.177,1043.73 131.075,1043.73 "/>
<polyline clip-path="url(#clip190)" style="stroke:#000000; stroke-linecap:round; stroke-linejoin:round; stroke-width:4; stroke-opacity:1; fill:none" points="112.177,848.384 131.075,848.384 "/>
<polyline clip-path="url(#clip190)" style="stroke:#000000; stroke-linecap:round; stroke-linejoin:round; stroke-width:4; stroke-opacity:1; fill:none" points="112.177,653.041 131.075,653.041 "/>
<polyline clip-path="url(#clip190)" style="stroke:#000000; stroke-linecap:round; stroke-linejoin:round; stroke-width:4; stroke-opacity:1; fill:none" points="112.177,457.698 131.075,457.698 "/>
<polyline clip-path="url(#clip190)" style="stroke:#000000; stroke-linecap:round; stroke-linejoin:round; stroke-width:4; stroke-opacity:1; fill:none" points="112.177,262.355 131.075,262.355 "/>
<polyline clip-path="url(#clip190)" style="stroke:#000000; stroke-linecap:round; stroke-linejoin:round; stroke-width:4; stroke-opacity:1; fill:none" points="112.177,67.0122 131.075,67.0122 "/>
<path clip-path="url(#clip190)" d="M56.2699 1252.41 L63.9087 1252.41 L63.9087 1226.05 L55.5986 1227.72 L55.5986 1223.46 L63.8624 1221.79 L68.5383 1221.79 L68.5383 1252.41 L76.1772 1252.41 L76.1772 1256.35 L56.2699 1256.35 L56.2699 1252.41 Z" fill="#000000" fill-rule="nonzero" fill-opacity="1" /><path clip-path="url(#clip190)" d="M59.8578 1057.07 L76.1772 1057.07 L76.1772 1061.01 L54.2328 1061.01 L54.2328 1057.07 Q56.8949 1054.32 61.4782 1049.69 Q66.0846 1045.03 67.2652 1043.69 Q69.5105 1041.17 70.3902 1039.43 Q71.2929 1037.67 71.2929 1035.98 Q71.2929 1033.23 69.3485 1031.49 Q67.4272 1029.76 64.3254 1029.76 Q62.1263 1029.76 59.6726 1030.52 Q57.2421 1031.29 54.4643 1032.84 L54.4643 1028.11 Q57.2884 1026.98 59.7421 1026.4 Q62.1958 1025.82 64.2328 1025.82 Q69.6031 1025.82 72.7976 1028.51 Q75.992 1031.19 75.992 1035.68 Q75.992 1037.81 75.1818 1039.73 Q74.3948 1041.63 72.2883 1044.22 Q71.7096 1044.9 68.6078 1048.11 Q65.5059 1051.31 59.8578 1057.07 Z" fill="#000000" fill-rule="nonzero" fill-opacity="1" /><path clip-path="url(#clip190)" d="M69.0476 847.03 Q72.404 847.748 74.279 850.016 Q76.1772 852.285 76.1772 855.618 Q76.1772 860.734 72.6587 863.535 Q69.1402 866.335 62.6587 866.335 Q60.4828 866.335 58.168 865.896 Q55.8764 865.479 53.4227 864.622 L53.4227 860.109 Q55.3671 861.243 57.6819 861.822 Q59.9967 862.4 62.5198 862.4 Q66.918 862.4 69.2096 860.664 Q71.5244 858.928 71.5244 855.618 Q71.5244 852.562 69.3717 850.849 Q67.242 849.113 63.4226 849.113 L59.3949 849.113 L59.3949 845.271 L63.6078 845.271 Q67.0569 845.271 68.8855 843.905 Q70.7142 842.516 70.7142 839.924 Q70.7142 837.261 68.8161 835.849 Q66.9411 834.414 63.4226 834.414 Q61.5013 834.414 59.3023 834.831 Q57.1032 835.248 54.4643 836.127 L54.4643 831.961 Q57.1264 831.22 59.4412 830.849 Q61.7791 830.479 63.8393 830.479 Q69.1633 830.479 72.2652 832.91 Q75.367 835.317 75.367 839.437 Q75.367 842.308 73.7235 844.298 Q72.08 846.266 69.0476 847.03 Z" fill="#000000" fill-rule="nonzero" fill-opacity="1" /><path clip-path="url(#clip190)" d="M66.5939 639.835 L54.7884 658.284 L66.5939 658.284 L66.5939 639.835 M65.367 635.761 L71.2466 635.761 L71.2466 658.284 L76.1772 658.284 L76.1772 662.173 L71.2466 662.173 L71.2466 670.321 L66.5939 670.321 L66.5939 662.173 L50.9921 662.173 L50.9921 657.659 L65.367 635.761 Z" fill="#000000" fill-rule="nonzero" fill-opacity="1" /><path clip-path="url(#clip190)" d="M55.2745 440.418 L73.6309 440.418 L73.6309 444.353 L59.5569 444.353 L59.5569 452.826 Q60.5754 452.478 61.5939 452.316 Q62.6124 452.131 63.6309 452.131 Q69.418 452.131 72.7976 455.302 Q76.1772 458.474 76.1772 463.89 Q76.1772 469.469 72.705 472.571 Q69.2328 475.649 62.9134 475.649 Q60.7374 475.649 58.4689 475.279 Q56.2236 474.909 53.8162 474.168 L53.8162 469.469 Q55.8995 470.603 58.1217 471.159 Q60.3439 471.714 62.8208 471.714 Q66.8254 471.714 69.1633 469.608 Q71.5013 467.501 71.5013 463.89 Q71.5013 460.279 69.1633 458.173 Q66.8254 456.066 62.8208 456.066 Q60.9458 456.066 59.0708 456.483 Q57.2189 456.9 55.2745 457.779 L55.2745 440.418 Z" fill="#000000" fill-rule="nonzero" fill-opacity="1" /><path clip-path="url(#clip190)" d="M64.6495 260.492 Q61.5013 260.492 59.6495 262.645 Q57.8208 264.797 57.8208 268.547 Q57.8208 272.274 59.6495 274.45 Q61.5013 276.603 64.6495 276.603 Q67.7976 276.603 69.6263 274.45 Q71.4781 272.274 71.4781 268.547 Q71.4781 264.797 69.6263 262.645 Q67.7976 260.492 64.6495 260.492 M73.9318 245.839 L73.9318 250.098 Q72.1726 249.265 70.367 248.825 Q68.5846 248.385 66.8254 248.385 Q62.1958 248.385 59.7421 251.51 Q57.3115 254.635 56.9643 260.955 Q58.33 258.941 60.3902 257.876 Q62.4504 256.788 64.9272 256.788 Q70.1355 256.788 73.1448 259.959 Q76.1772 263.108 76.1772 268.547 Q76.1772 273.871 73.029 277.089 Q69.8809 280.307 64.6495 280.307 Q58.6541 280.307 55.4828 275.723 Q52.3116 271.117 52.3116 262.39 Q52.3116 254.196 56.2004 249.334 Q60.0893 244.45 66.6402 244.45 Q68.3994 244.45 70.1818 244.797 Q71.9874 245.145 73.9318 245.839 Z" fill="#000000" fill-rule="nonzero" fill-opacity="1" /><path clip-path="url(#clip190)" d="M53.9551 49.7322 L76.1772 49.7322 L76.1772 51.723 L63.6309 84.2922 L58.7467 84.2922 L70.5522 53.6674 L53.9551 53.6674 L53.9551 49.7322 Z" fill="#000000" fill-rule="nonzero" fill-opacity="1" /><polyline clip-path="url(#clip192)" style="stroke:#009af9; stroke-linecap:round; stroke-linejoin:round; stroke-width:4; stroke-opacity:1; fill:none" points="112.177,1239.07 114.42,1238.07 116.663,1237.03 118.906,1235.94 121.148,1234.81 123.391,1233.64 125.634,1232.42 127.877,1231.16 130.12,1229.86 132.363,1228.51 134.605,1227.12 136.848,1225.69 139.091,1224.22 141.334,1222.71 143.577,1221.15 145.819,1219.55 148.062,1217.9 150.305,1216.22 152.548,1214.49 154.791,1212.71 157.034,1210.9 159.276,1209.04 161.519,1207.14 163.762,1205.19 166.005,1203.2 168.248,1201.17 170.491,1199.09 172.733,1196.97 174.976,1194.8 177.219,1192.59 179.462,1190.33 181.705,1188.02 183.947,1185.68 186.19,1183.28 188.433,1180.84 190.676,1178.35 192.919,1175.81 195.162,1173.23 197.404,1170.6 199.647,1167.92 201.89,1165.19 204.133,1162.41 206.376,1159.59 208.619,1156.71 210.861,1153.78 213.104,1150.8 215.347,1147.77 217.59,1144.69 219.833,1141.56 222.075,1138.37 224.318,1135.13 226.561,1131.84 228.804,1128.49 231.047,1125.09 233.29,1121.64 235.532,1118.12 237.775,1114.55 240.018,1110.93 242.261,1107.25 244.504,1103.5 246.746,1099.7 248.989,1095.84 251.232,1091.93 253.475,1087.95 255.718,1083.9 257.961,1079.8 260.203,1075.64 262.446,1071.41 264.689,1067.12 266.932,1062.76 269.175,1058.34 271.418,1053.86 273.66,1049.31 275.903,1044.69 278.146,1040 280.389,1035.25 282.632,1030.42 284.874,1025.53 287.117,1020.56 289.36,1015.53 291.603,1010.42 293.846,1005.24 296.089,999.989 298.331,994.663 300.574,989.261 302.817,983.784 305.06,978.231 307.303,972.601 309.545,966.894 311.788,961.108 314.031,955.243 316.274,949.298 318.517,943.273 320.76,937.166 323.002,930.977 325.245,924.706 327.488,918.352 329.731,911.914 331.974,905.391 334.217,898.783 336.459,892.088 338.702,885.307 340.945,878.438 343.188,871.48 345.431,864.433 347.673,857.297 349.916,850.07 352.159,842.752 354.402,835.343 356.645,827.842 358.888,820.248 361.13,812.562 363.373,804.783 365.616,796.91 367.859,788.943 370.102,780.881 372.344,772.726 374.587,764.475 376.83,756.13 379.073,747.69 381.316,739.154 383.559,730.523 385.801,721.797 388.044,712.975 390.287,704.058 392.53,695.046 394.773,685.939 397.016,676.736 399.258,667.443 401.501,658.06 403.744,648.587 405.987,639.021 408.23,629.365 410.472,619.617 412.715,609.778 414.958,599.85 417.201,589.832 419.444,579.726 421.687,569.535 423.929,559.259 426.172,548.902 428.415,538.465 430.658,527.951 432.901,517.364 435.143,506.706 437.386,495.982 439.629,485.196 441.872,474.351 444.115,463.452 446.358,452.505 448.6,441.514 450.843,430.484 453.086,419.422 455.329,408.333 457.572,397.224 459.815,386.101 462.057,374.972 464.3,363.843 466.543,352.721 468.786,341.615 471.029,330.533 473.271,319.483 475.514,308.473 477.757,297.499 480,286.571 482.243,275.708 484.486,264.928 486.728,254.25 488.971,243.693 491.214,233.279 493.457,223.027 495.7,212.958 497.942,203.093 500.185,193.456 502.428,184.068 504.671,174.952 506.914,166.132 509.157,157.631 511.399,149.475 513.642,141.687 515.885,134.294 518.128,127.321 520.371,120.794 522.614,114.741 524.856,109.188 527.099,104.165 529.342,99.6976 531.585,95.8164 533.828,92.55 536.07,89.9285 538.313,87.9819 540.556,86.741 542.799,86.2371 545.042,86.5019 547.285,87.5675 549.527,89.4666 551.77,92.2325 554.013,95.8988 556.256,100.5 558.499,106.072 560.741,112.656 562.984,120.256 565.227,128.868 567.47,138.485 569.713,149.098 571.956,160.693 574.198,173.253 576.441,186.759 578.684,201.187 580.927,216.51 583.17,232.699 585.413,249.721 587.655,267.537 589.898,286.109 592.141,305.394 594.384,325.344 596.627,345.909 598.869,367.037 601.112,388.67 603.355,410.749 605.598,433.21 607.841,455.987 610.084,479.01 612.326,502.205 614.569,525.496 616.812,548.803 619.055,572.042 621.298,595.153 623.54,618.115 625.783,640.872 628.026,663.37 630.269,685.56 632.512,707.398 634.755,728.841 636.997,749.852 639.24,770.399 641.483,790.451 643.726,809.983 645.969,828.973 648.212,847.405 650.454,865.264 652.697,882.54 654.94,899.229 657.183,915.327 659.426,930.839 661.668,945.769 663.911,960.127 666.154,973.929 668.397,987.191 670.64,999.937 672.883,1012.19 675.125,1023.98 677.368,1035.31 679.611,1046.17 681.854,1056.56 684.097,1066.51 686.339,1076.04 688.582,1085.15 690.825,1093.86 693.068,1102.2 695.311,1110.16 697.554,1117.78 699.796,1125.05 702.039,1132 704.282,1138.63 706.525,1144.96 708.768,1151 711.011,1156.76 713.253,1162.25 715.496,1167.48 717.739,1172.47 719.982,1177.22 722.225,1181.74 724.467,1186.04 726.71,1190.13 728.953,1194.02 731.196,1197.72 733.439,1201.23 735.682,1204.58 737.924,1207.75 740.167,1210.76 742.41,1213.62 744.653,1216.32 746.896,1218.89 749.138,1221.31 751.381,1223.6 753.624,1225.77 755.867,1227.81 758.11,1229.73 760.353,1231.54 762.595,1233.24 764.838,1234.84 767.081,1236.33 769.324,1237.73 771.567,1239.03 773.81,1240.24 776.052,1241.37 778.295,1242.4 780.538,1243.36 782.781,1244.23 785.024,1245.03 787.266,1245.75 789.509,1246.39 791.752,1246.96 793.995,1247.46 796.238,1247.89 798.481,1248.26 800.723,1248.56 802.966,1248.8 805.209,1248.98 807.452,1249.09 809.695,1249.15 811.938,1249.15 814.18,1249.09 816.423,1248.97 818.666,1248.81 820.909,1248.58 823.152,1248.31 825.394,1247.98 827.637,1247.6 829.88,1247.17 832.123,1246.7 834.366,1246.17 836.609,1245.6 838.851,1244.97 841.094,1244.31 843.337,1243.59 845.58,1242.83 847.823,1242.02 850.065,1241.17 852.308,1240.28 854.551,1239.34 856.794,1238.35 859.037,1237.33 861.28,1236.26 863.522,1235.14 865.765,1233.99 868.008,1232.79 870.251,1231.54 872.494,1230.26 874.737,1228.93 876.979,1227.56 879.222,1226.14 881.465,1224.69 883.708,1223.19 885.951,1221.64 888.193,1220.06 890.436,1218.43 892.679,1216.76 894.922,1215.04 897.165,1213.29 899.408,1211.49 901.65,1209.64 903.893,1207.75 906.136,1205.82 908.379,1203.85 910.622,1201.83 912.864,1199.76 915.107,1197.65 917.35,1195.5 919.593,1193.3 921.836,1191.06 924.079,1188.77 926.321,1186.44 928.564,1184.06 930.807,1181.63 933.05,1179.16 935.293,1176.64 937.536,1174.07 939.778,1171.46 942.021,1168.79 944.264,1166.08 946.507,1163.32 948.75,1160.51 950.992,1157.65 953.235,1154.74 955.478,1151.78 957.721,1148.77 959.964,1145.71 962.207,1142.59 964.449,1139.43 966.692,1136.21 968.935,1132.93 971.178,1129.6 973.421,1126.22 975.663,1122.78 977.906,1119.29 980.149,1115.74 982.392,1112.13 984.635,1108.47 986.878,1104.75 989.12,1100.97 991.363,1097.13 993.606,1093.23 995.849,1089.28 998.092,1085.26 1000.33,1081.18 1002.58,1077.03 1004.82,1072.83 1007.06,1068.56 1009.31,1064.23 1011.55,1059.83 1013.79,1055.37 1016.03,1050.84 1018.28,1046.25 1020.52,1041.58 1022.76,1036.85 1025.01,1032.05 1027.25,1027.19 1029.49,1022.25 1031.73,1017.24 1033.98,1012.16 1036.22,1007 1038.46,1001.78 1040.71,996.476 1042.95,991.102 1045.19,985.653 1047.43,980.127 1049.68,974.525 1051.92,968.845 1054.16,963.087 1056.41,957.249 1058.65,951.332 1060.89,945.335 1063.13,939.256 1065.38,933.096 1067.62,926.852 1069.86,920.526 1072.1,914.116 1074.35,907.621 1076.59,901.04 1078.83,894.374 1081.08,887.621 1083.32,880.782 1085.56,873.854 1087.8,866.838 1090.05,859.733 1092.29,852.538 1094.53,845.253 1096.78,837.878 1099.02,830.411 1101.26,822.853 1103.5,815.202 1105.75,807.458 1107.99,799.62 1110.23,791.689 1112.48,783.663 1114.72,775.543 1116.96,767.331 1119.2,759.033 1121.45,750.648 1123.69,742.172 1125.93,733.604 1128.18,724.943 1130.42,716.187 1132.66,707.334 1134.9,698.384 1137.15,689.336 1139.39,680.19 1141.63,670.946 1143.88,661.603 1146.12,652.161 1148.36,642.623 1150.6,632.987 1152.85,623.255 1155.09,613.429 1157.33,603.509 1159.57,593.498 1161.82,583.398 1164.06,573.21 1166.3,562.938 1168.55,552.583 1170.79,542.149 1173.03,531.639 1175.27,521.057 1177.52,510.405 1179.76,499.689 1182,488.911 1184.25,478.077 1186.49,467.191 1188.73,456.258 1190.97,445.283 1193.22,434.271 1195.46,423.228 1197.7,412.16 1199.95,401.073 1202.19,389.973 1204.43,378.866 1206.67,367.761 1208.92,356.662 1211.16,345.579 1213.4,334.517 1215.65,323.486 1217.89,312.493 1220.13,301.546 1222.37,290.653 1224.62,279.821 1226.86,269.049 1229.1,258.358 1231.35,247.769 1233.59,237.304 1235.83,226.987 1238.07,216.84 1240.32,206.885 1242.56,197.146 1244.8,187.648 1247.04,178.414 1249.29,169.468 1251.53,160.836 1253.77,152.542 1256.02,144.612 1258.26,137.072 1260.5,129.948 1262.74,123.265 1264.99,117.052 1267.23,111.335 1269.47,106.142 1271.72,101.499 1273.96,97.4365 1276.2,93.9815 1278.44,91.1632 1280.69,89.0105 1282.93,87.553 1285.17,86.8204 1287.42,86.8428 1289.66,87.6507 1291.9,89.2747 1294.14,91.7461 1296.39,95.0963 1298.63,99.357 1300.87,104.56 1303.12,110.739 1305.36,117.953 1307.6,126.238 1309.84,135.573 1312.09,145.937 1314.33,157.305 1316.57,169.652 1318.82,182.949 1321.06,197.167 1323.3,212.272 1325.54,228.231 1327.79,245.007 1330.03,262.562 1332.27,280.853 1334.51,299.84 1336.76,319.476 1339,339.715 1341.24,360.508 1343.49,381.803 1345.73,403.548 1347.97,425.686 1350.21,448.16 1352.46,470.911 1354.7,493.876 1356.94,516.993 1359.19,540.194 1361.43,563.412 1363.67,586.578 1365.91,609.617 1368.16,632.457 1370.4,655.021 1372.64,677.235 1374.89,699.09 1377.13,720.563 1379.37,741.623 1381.61,762.242 1383.86,782.393 1386.1,802.053 1388.34,821.203 1390.59,839.823 1392.83,857.899 1395.07,875.418 1397.31,892.372 1399.56,908.752 1401.8,924.557 1404.04,939.783 1406.29,954.433 1408.53,968.51 1410.77,982.023 1413.01,994.98 1415.26,1007.39 1417.5,1019.28 1419.74,1030.66 1421.98,1041.54 1424.23,1051.97 1426.47,1061.95 1428.71,1071.52 1430.96,1080.72 1433.2,1089.57 1435.44,1098.05 1437.68,1106.16 1439.93,1113.9 1442.17,1121.3 1444.41,1128.37 1446.66,1135.12 1448.9,1141.56 1451.14,1147.7 1453.38,1153.57 1455.63,1159.16 1457.87,1164.5 1460.11,1169.58 1462.36,1174.43 1464.6,1179.05 1466.84,1183.46 1469.08,1187.65 1471.33,1191.64 1473.57,1195.44 1475.81,1199.05 1478.06,1202.49 1480.3,1205.75 1482.54,1208.85 1484.78,1211.79 1487.03,1214.57 1489.27,1217.2 1491.51,1219.69 1493.76,1222.04 1496,1224.26 1498.24,1226.36 1500.48,1228.33 1502.73,1230.2 1504.97,1231.95 1507.21,1233.59 1509.46,1235.13 1511.7,1236.57 1513.94,1237.91 1516.18,1239.16 1518.43,1240.32 1520.67,1241.38 1522.91,1242.37 1525.15,1243.27 1527.4,1244.09 1529.64,1244.84 1531.88,1245.51 1534.13,1246.11 1536.37,1246.63 1538.61,1247.09 1540.85,1247.48 1543.1,1247.81 1545.34,1248.07 1547.58,1248.28 1549.83,1248.42 1552.07,1248.5 1554.31,1248.52 1556.55,1248.49 1558.8,1248.4 1561.04,1248.25 1563.28,1248.05 1565.53,1247.8 1567.77,1247.5 1570.01,1247.14 1572.25,1246.74 1574.5,1246.29 1576.74,1245.78 1578.98,1245.23 1581.23,1244.63 1583.47,1243.98 1585.71,1243.28 1587.95,1242.54 1590.2,1241.75 1592.44,1240.92 1594.68,1240.04 1596.93,1239.12 1599.17,1238.15 1601.41,1237.14 1603.65,1236.08 1605.9,1234.98 1608.14,1233.83 1610.38,1232.65 1612.62,1231.42 1614.87,1230.14 1617.11,1228.83 1619.35,1227.47 1621.6,1226.07 1623.84,1224.63 1626.08,1223.14 1628.32,1221.61 1630.57,1220.04 1632.81,1218.43 1635.05,1216.77 1637.3,1215.07 1639.54,1213.33 1641.78,1211.54 1644.02,1209.72 1646.27,1207.84 1648.51,1205.93 1650.75,1203.97 1653,1201.97 1655.24,1199.92 1657.48,1197.83 1659.72,1195.69 1661.97,1193.51 1664.21,1191.28 1666.45,1189.01 1668.7,1186.69 1670.94,1184.32 1673.18,1181.91 1675.42,1179.46 1677.67,1176.95 1679.91,1174.4 1682.15,1171.8 1684.4,1169.15 1686.64,1166.45 1688.88,1163.71 1691.12,1160.91 1693.37,1158.07 1695.61,1155.18 1697.85,1152.23 1700.09,1149.23 1702.34,1146.19 1704.58,1143.09 1706.82,1139.94 1709.07,1136.73 1711.31,1133.47 1713.55,1130.16 1715.79,1126.8 1718.04,1123.38 1720.28,1119.9 1722.52,1116.37 1724.77,1112.78 1727.01,1109.13 1729.25,1105.43 1731.49,1101.67 1733.74,1097.85 1735.98,1093.97 1738.22,1090.03 1740.47,1086.03 1742.71,1081.96 1744.95,1077.84 1747.19,1073.65 1749.44,1069.4 1751.68,1065.09 1753.92,1060.71 1756.17,1056.27 1758.41,1051.76 1760.65,1047.18 1762.89,1042.54 1765.14,1037.83 1767.38,1033.05 1769.62,1028.2 1771.87,1023.29 1774.11,1018.3 1776.35,1013.24 1778.59,1008.11 1780.84,1002.9 1783.08,997.627 1785.32,992.276 1787.56,986.85 1789.81,981.348 1792.05,975.771 1794.29,970.116 1796.54,964.384 1798.78,958.573 1801.02,952.682 1803.26,946.712 1805.51,940.661 1807.75,934.528 1809.99,928.313 1812.24,922.015 1814.48,915.634 1816.72,909.17 1818.96,902.621 1821.21,895.988 1823.45,889.268 1825.69,882.462 1827.94,875.567 1830.18,868.585 1832.42,861.512 1834.66,854.35 1836.91,847.097 1839.15,839.752 1841.39,832.316 1843.64,824.787 1845.88,817.166 1848.12,809.451 1850.36,801.643 1852.61,793.74 1854.85,785.744 1857.09,777.653 1859.34,769.467 1861.58,761.187 1863.82,752.812 1866.06,744.342 1868.31,735.777 1870.55,727.118 1872.79,718.364 1875.03,709.515 1877.28,700.572 1879.52,691.535 1881.76,682.405 1884.01,673.181 1886.25,663.864 1888.49,654.455 1890.73,644.953 1892.98,635.36 1895.22,625.676 1897.46,615.902 1899.71,606.039 1901.95,596.098 1904.19,586.088 1906.43,576.009 1908.68,565.856 1910.92,555.628 1913.16,545.324 1915.41,534.943 1917.65,524.486 1919.89,513.953 1922.13,503.346 1924.38,492.666 1926.62,481.917 1928.86,471.101 1931.11,460.222 1933.35,449.284 1935.59,438.294 1937.83,427.256 1940.08,416.176 1942.32,405.063 1944.56,393.922 1946.81,382.763 1949.05,371.594 1951.29,360.425 1953.53,349.266 1955.78,338.126 1958.02,327.019 1960.26,315.955 1962.5,304.947 1964.75,294.008 1966.99,283.152 1969.23,272.393 1971.48,261.747 1973.72,251.229 1975.96,240.854 1978.2,230.641 1980.45,220.607 1982.69,210.769 1984.93,201.147 1987.18,191.759 1989.42,182.626 1991.66,173.769 1993.9,165.207 1996.15,156.965 1998.39,149.063 2000.63,141.525 2002.88,134.375 2005.12,127.636 2007.36,121.334 2009.6,115.495 2011.85,110.145 2014.09,105.308 2016.33,101.016 2018.58,97.3131 2020.82,94.2431 2023.06,91.8474 2025.3,90.1645 2027.55,89.2303 2029.79,89.0781 2032.03,89.7383 2034.28,91.2389 2036.52,93.605 2038.76,96.859 2041,101.021 2043.25,106.108 2045.49,112.134 2047.73,119.112 2049.97,127.05 2052.22,135.955 2054.46,145.831 2056.7,156.678 2058.95,168.496 2061.19,181.279 2063.43,195.022 2065.67,209.714 2067.92,225.354 2070.16,241.913 2072.4,259.332 2074.65,277.551 2076.89,296.511 2079.13,316.151 2081.37,336.412 2083.62,357.233 2085.86,378.554 2088.1,400.315 2090.35,422.453 2092.59,444.91 2094.83,467.623 2097.07,490.531 2099.32,513.573 2101.56,536.688 2103.8,559.813 2106.05,582.887 2108.29,605.847 2110.53,628.632 2112.77,651.179 2115.02,673.426 2117.26,695.309 2119.5,716.789 2121.75,737.85 2123.99,758.467 2126.23,778.616 2128.47,798.277 2130.72,817.43 2132.96,836.061 2135.2,854.155 2137.45,871.702 2139.69,888.693 2141.93,905.123 2144.17,920.987 2146.42,936.284 2148.66,951.017 2150.9,965.188 2153.14,978.805 2155.39,991.877 2157.63,1004.41 2159.87,1016.43 2162.12,1027.94 2164.36,1038.97 2166.6,1049.53 2168.84,1059.66 2171.09,1069.37 2173.33,1078.69 2175.57,1087.63 2177.82,1096.19 2180.06,1104.36 2182.3,1112.17 2184.54,1119.63 2186.79,1126.76 2189.03,1133.56 2191.27,1140.06 2193.52,1146.26 2195.76,1152.18 2198,1157.82 2200.24,1163.2 2202.49,1168.33 2204.73,1173.23 2206.97,1177.89 2209.22,1182.33 2211.46,1186.56 2213.7,1190.58 2215.94,1194.41 2218.19,1198.05 2220.43,1201.51 2222.67,1204.79 2224.92,1207.91 2227.16,1210.86 2229.4,1213.66 2231.64,1216.31 2233.89,1218.82 2236.13,1221.2 2238.37,1223.45 2240.61,1225.57 2242.86,1227.57 2245.1,1229.45 2247.34,1231.22 2249.59,1232.88 2251.83,1234.44 2254.07,1235.9 2256.31,1237.26 2258.56,1238.52 2260.8,1239.7 2263.04,1240.78 2265.29,1241.78 2267.53,1242.7 2269.77,1243.54 2272.01,1244.31 2274.26,1244.99 2276.5,1245.61 2278.74,1246.15 2280.99,1246.63 2283.23,1247.04 2285.47,1247.38 2287.71,1247.65 2289.96,1247.87 2292.2,1248.02 2294.44,1248.11 2296.69,1248.15 2298.93,1248.12 2301.17,1248.05 2303.41,1247.91 2305.66,1247.72 2307.9,1247.48 2310.14,1247.18 2312.39,1246.84 2314.63,1246.44 2316.87,1245.99 2319.11,1245.49 2321.36,1244.95 2323.6,1244.35 2325.84,1243.71 2328.08,1243.02 2330.33,1242.29 2332.57,1241.51 2334.81,1240.68 2337.06,1239.81 2339.3,1238.89 2341.54,1237.93 2343.78,1236.93 2346.03,1235.88 2348.27,1234.79 2350.51,1233.65 2352.76,1232.48 "/>
<polyline clip-path="url(#clip192)" style="stroke:#e26f46; stroke-linecap:round; stroke-linejoin:round; stroke-width:4; stroke-opacity:1; fill:none" points="112.177,1239.07 114.42,1242.94 116.663,1246.72 118.906,1250.41 121.148,1254.03 123.391,1257.56 125.634,1261.01 127.877,1264.38 130.12,1267.68 132.363,1270.9 134.605,1274.05 136.848,1277.13 139.091,1280.13 141.334,1283.07 143.577,1285.94 145.819,1288.74 148.062,1291.48 150.305,1294.16 152.548,1296.77 154.791,1299.32 157.034,1301.81 159.276,1304.25 161.519,1306.63 163.762,1308.95 166.005,1311.21 168.248,1313.43 170.491,1315.59 172.733,1317.7 174.976,1319.76 177.219,1321.77 179.462,1323.73 181.705,1325.65 183.947,1327.52 186.19,1329.34 188.433,1331.13 190.676,1332.86 192.919,1334.56 195.162,1336.21 197.404,1337.83 199.647,1339.4 201.89,1340.94 204.133,1342.44 206.376,1343.9 208.619,1345.33 210.861,1346.72 213.104,1348.07 215.347,1349.39 217.59,1350.68 219.833,1351.94 222.075,1353.16 224.318,1354.35 226.561,1355.51 228.804,1356.64 231.047,1357.74 233.29,1358.82 235.532,1359.86 237.775,1360.88 240.018,1361.87 242.261,1362.83 244.504,1363.77 246.746,1364.68 248.989,1365.56 251.232,1366.42 253.475,1367.26 255.718,1368.07 257.961,1368.86 260.203,1369.63 262.446,1370.37 264.689,1371.09 266.932,1371.79 269.175,1372.47 271.418,1373.12 273.66,1373.76 275.903,1374.37 278.146,1374.97 280.389,1375.54 282.632,1376.09 284.874,1376.63 287.117,1377.14 289.36,1377.64 291.603,1378.12 293.846,1378.57 296.089,1379.01 298.331,1379.43 300.574,1379.84 302.817,1380.22 305.06,1380.59 307.303,1380.94 309.545,1381.27 311.788,1381.58 314.031,1381.88 316.274,1382.16 318.517,1382.42 320.76,1382.67 323.002,1382.89 325.245,1383.1 327.488,1383.29 329.731,1383.47 331.974,1383.62 334.217,1383.76 336.459,1383.88 338.702,1383.99 340.945,1384.07 343.188,1384.14 345.431,1384.19 347.673,1384.22 349.916,1384.24 352.159,1384.23 354.402,1384.21 356.645,1384.17 358.888,1384.11 361.13,1384.02 363.373,1383.92 365.616,1383.8 367.859,1383.66 370.102,1383.49 372.344,1383.3 374.587,1383.1 376.83,1382.86 379.073,1382.61 381.316,1382.33 383.559,1382.03 385.801,1381.7 388.044,1381.34 390.287,1380.96 392.53,1380.55 394.773,1380.11 397.016,1379.64 399.258,1379.14 401.501,1378.61 403.744,1378.05 405.987,1377.44 408.23,1376.81 410.472,1376.14 412.715,1375.43 414.958,1374.69 417.201,1373.9 419.444,1373.08 421.687,1372.21 423.929,1371.3 426.172,1370.34 428.415,1369.34 430.658,1368.28 432.901,1367.17 435.143,1366.01 437.386,1364.79 439.629,1363.51 441.872,1362.16 444.115,1360.75 446.358,1359.27 448.6,1357.71 450.843,1356.08 453.086,1354.36 455.329,1352.56 457.572,1350.67 459.815,1348.69 462.057,1346.61 464.3,1344.42 466.543,1342.13 468.786,1339.72 471.029,1337.2 473.271,1334.56 475.514,1331.79 477.757,1328.89 480,1325.87 482.243,1322.71 484.486,1319.39 486.728,1315.91 488.971,1312.26 491.214,1308.41 493.457,1304.37 495.7,1300.11 497.942,1295.63 500.185,1290.92 502.428,1285.96 504.671,1280.75 506.914,1275.27 509.157,1269.51 511.399,1263.46 513.642,1257.12 515.885,1250.46 518.128,1243.49 520.371,1236.18 522.614,1228.54 524.856,1220.55 527.099,1212.2 529.342,1203.48 531.585,1194.38 533.828,1184.9 536.07,1175.02 538.313,1164.74 540.556,1154.04 542.799,1142.92 545.042,1131.37 547.285,1119.38 549.527,1106.94 551.77,1094.05 554.013,1080.69 556.256,1066.86 558.499,1052.55 560.741,1037.72 562.984,1022.41 565.227,1006.66 567.47,990.504 569.713,973.996 571.956,957.177 574.198,940.09 576.441,922.781 578.684,905.296 580.927,887.682 583.17,869.986 585.413,852.256 587.655,834.541 589.898,816.89 592.141,799.354 594.384,781.983 596.627,764.83 598.869,747.947 601.112,731.386 603.355,715.201 605.598,699.447 607.841,684.18 610.084,669.454 612.326,655.327 614.569,641.856 616.812,629.099 619.055,617.114 621.298,605.942 623.54,595.585 625.783,586.07 628.026,577.418 630.269,569.646 632.512,562.769 634.755,556.796 636.997,551.733 639.24,547.581 641.483,544.34 643.726,542.002 645.969,540.557 648.212,539.99 650.454,540.285 652.697,541.418 654.94,543.363 657.183,546.09 659.426,549.564 661.668,553.748 663.911,558.599 666.154,564.071 668.397,570.114 670.64,576.672 672.883,583.689 675.125,591.102 677.368,598.9 679.611,607.096 681.854,615.656 684.097,624.549 686.339,633.745 688.582,643.213 690.825,652.926 693.068,662.856 695.311,672.978 697.554,683.267 699.796,693.699 702.039,704.252 704.282,714.904 706.525,725.636 708.768,736.428 711.011,747.262 713.253,758.123 715.496,768.994 717.739,779.862 719.982,790.712 722.225,801.534 724.467,812.315 726.71,823.047 728.953,833.72 731.196,844.316 733.439,854.829 735.682,865.253 737.924,875.583 740.167,885.812 742.41,895.936 744.653,905.95 746.896,915.849 749.138,925.631 751.381,935.289 753.624,944.823 755.867,954.227 758.11,963.5 760.353,972.639 762.595,981.641 764.838,990.506 767.081,999.231 769.324,1007.82 771.567,1016.26 773.81,1024.56 776.052,1032.72 778.295,1040.73 780.538,1048.61 782.781,1056.34 785.024,1063.93 787.266,1071.39 789.509,1078.71 791.752,1085.89 793.995,1092.94 796.238,1099.86 798.481,1106.64 800.723,1113.29 802.966,1119.81 805.209,1126.2 807.452,1132.46 809.695,1138.6 811.938,1144.61 814.18,1150.5 816.423,1156.27 818.666,1161.92 820.909,1167.46 823.152,1172.88 825.394,1178.18 827.637,1183.37 829.88,1188.46 832.123,1193.43 834.366,1198.3 836.609,1203.06 838.851,1207.72 841.094,1212.28 843.337,1216.73 845.58,1221.09 847.823,1225.36 850.065,1229.53 852.308,1233.6 854.551,1237.59 856.794,1241.49 859.037,1245.3 861.28,1249.03 863.522,1252.67 865.765,1256.23 868.008,1259.71 870.251,1263.11 872.494,1266.44 874.737,1269.69 876.979,1272.86 879.222,1275.96 881.465,1279 883.708,1281.96 885.951,1284.85 888.193,1287.68 890.436,1290.44 892.679,1293.14 894.922,1295.78 897.165,1298.35 899.408,1300.86 901.65,1303.32 903.893,1305.72 906.136,1308.06 908.379,1310.35 910.622,1312.58 912.864,1314.77 915.107,1316.9 917.35,1318.97 919.593,1321 921.836,1322.99 924.079,1324.92 926.321,1326.81 928.564,1328.65 930.807,1330.45 933.05,1332.21 935.293,1333.92 937.536,1335.59 939.778,1337.22 942.021,1338.81 944.264,1340.36 946.507,1341.87 948.75,1343.34 950.992,1344.78 953.235,1346.18 955.478,1347.55 957.721,1348.88 959.964,1350.18 962.207,1351.45 964.449,1352.68 966.692,1353.88 968.935,1355.05 971.178,1356.19 973.421,1357.31 975.663,1358.39 977.906,1359.44 980.149,1360.47 982.392,1361.47 984.635,1362.44 986.878,1363.39 989.12,1364.31 991.363,1365.2 993.606,1366.07 995.849,1366.92 998.092,1367.74 1000.33,1368.54 1002.58,1369.31 1004.82,1370.06 1007.06,1370.79 1009.31,1371.5 1011.55,1372.19 1013.79,1372.85 1016.03,1373.5 1018.28,1374.12 1020.52,1374.72 1022.76,1375.3 1025.01,1375.87 1027.25,1376.41 1029.49,1376.93 1031.73,1377.43 1033.98,1377.91 1036.22,1378.38 1038.46,1378.82 1040.71,1379.25 1042.95,1379.66 1045.19,1380.05 1047.43,1380.42 1049.68,1380.78 1051.92,1381.12 1054.16,1381.44 1056.41,1381.74 1058.65,1382.02 1060.89,1382.29 1063.13,1382.54 1065.38,1382.77 1067.62,1382.99 1069.86,1383.19 1072.1,1383.37 1074.35,1383.53 1076.59,1383.68 1078.83,1383.81 1081.08,1383.92 1083.32,1384.01 1085.56,1384.09 1087.8,1384.14 1090.05,1384.18 1092.29,1384.2 1094.53,1384.21 1096.78,1384.19 1099.02,1384.15 1101.26,1384.1 1103.5,1384.02 1105.75,1383.92 1107.99,1383.81 1110.23,1383.67 1112.48,1383.51 1114.72,1383.33 1116.96,1383.13 1119.2,1382.9 1121.45,1382.64 1123.69,1382.35 1125.93,1382.03 1128.18,1381.69 1130.42,1381.33 1132.66,1380.94 1134.9,1380.52 1137.15,1380.07 1139.39,1379.6 1141.63,1379.1 1143.88,1378.57 1146.12,1378.01 1148.36,1377.42 1150.6,1376.8 1152.85,1376.15 1155.09,1375.46 1157.33,1374.74 1159.57,1373.98 1161.82,1373.18 1164.06,1372.34 1166.3,1371.46 1168.55,1370.53 1170.79,1369.56 1173.03,1368.54 1175.27,1367.46 1177.52,1366.33 1179.76,1365.14 1182,1363.89 1184.25,1362.58 1186.49,1361.2 1188.73,1359.75 1190.97,1358.23 1193.22,1356.62 1195.46,1354.94 1197.7,1353.17 1199.95,1351.31 1202.19,1349.36 1204.43,1347.31 1206.67,1345.16 1208.92,1342.9 1211.16,1340.53 1213.4,1338.04 1215.65,1335.43 1217.89,1332.69 1220.13,1329.82 1222.37,1326.82 1224.62,1323.67 1226.86,1320.39 1229.1,1316.96 1231.35,1313.36 1233.59,1309.6 1235.83,1305.64 1238.07,1301.47 1240.32,1297.09 1242.56,1292.49 1244.8,1287.64 1247.04,1282.54 1249.29,1277.17 1251.53,1271.53 1253.77,1265.6 1256.02,1259.37 1258.26,1252.83 1260.5,1245.97 1262.74,1238.78 1264.99,1231.25 1267.23,1223.37 1269.47,1215.13 1271.72,1206.52 1273.96,1197.54 1276.2,1188.17 1278.44,1178.41 1280.69,1168.24 1282.93,1157.67 1285.17,1146.68 1287.42,1135.26 1289.66,1123.42 1291.9,1111.13 1294.14,1098.41 1296.39,1085.23 1298.63,1071.6 1300.87,1057.5 1303.12,1042.94 1305.36,1027.87 1307.6,1012.27 1309.84,996.213 1312.09,979.744 1314.33,962.922 1316.57,945.804 1318.82,928.445 1321.06,910.9 1323.3,893.223 1325.54,875.467 1327.79,857.687 1330.03,839.933 1332.27,822.259 1334.51,804.716 1336.76,787.354 1339,770.223 1341.24,753.374 1343.49,736.856 1345.73,720.717 1347.97,705.005 1350.21,689.767 1352.46,675.051 1354.7,660.903 1356.94,647.368 1359.19,634.492 1361.43,622.32 1363.67,610.894 1365.91,600.26 1368.16,590.46 1370.4,581.536 1372.64,573.527 1374.89,566.433 1377.13,560.245 1379.37,554.959 1381.61,550.567 1383.86,547.061 1386.1,544.431 1388.34,542.662 1390.59,541.742 1392.83,541.651 1395.07,542.372 1397.31,543.884 1399.56,546.162 1401.8,549.182 1404.04,552.917 1406.29,557.337 1408.53,562.41 1410.77,568.105 1413.01,574.384 1415.26,581.21 1417.5,588.544 1419.74,596.343 1421.98,604.565 1424.23,613.163 1426.47,622.09 1428.71,631.295 1430.96,640.727 1433.2,650.333 1435.44,660.128 1437.68,670.12 1439.93,680.285 1442.17,690.601 1444.41,701.047 1446.66,711.603 1448.9,722.248 1451.14,732.964 1453.38,743.733 1455.63,754.539 1457.87,765.364 1460.11,776.195 1462.36,787.017 1464.6,797.816 1466.84,808.579 1469.08,819.296 1471.33,829.956 1473.57,840.548 1475.81,851.064 1478.06,861.496 1480.3,871.836 1482.54,882.078 1484.78,892.218 1487.03,902.249 1489.27,912.169 1491.51,921.975 1493.76,931.663 1496,941.223 1498.24,950.653 1500.48,959.951 1502.73,969.117 1504.97,978.148 1507.21,987.044 1509.46,995.804 1511.7,1004.43 1513.94,1012.91 1516.18,1021.25 1518.43,1029.46 1520.67,1037.53 1522.91,1045.45 1525.15,1053.24 1527.4,1060.89 1529.64,1068.4 1531.88,1075.77 1534.13,1083 1536.37,1090.1 1538.61,1097.06 1540.85,1103.89 1543.1,1110.58 1545.34,1117.14 1547.58,1123.57 1549.83,1129.87 1552.07,1136.05 1554.31,1142.1 1556.55,1148.03 1558.8,1153.84 1561.04,1159.53 1563.28,1165.11 1565.53,1170.56 1567.77,1175.91 1570.01,1181.14 1572.25,1186.26 1574.5,1191.27 1576.74,1196.17 1578.98,1200.97 1581.23,1205.67 1583.47,1210.26 1585.71,1214.76 1587.95,1219.16 1590.2,1223.46 1592.44,1227.66 1594.68,1231.78 1596.93,1235.8 1599.17,1239.73 1601.41,1243.58 1603.65,1247.34 1605.9,1251.02 1608.14,1254.61 1610.38,1258.12 1612.62,1261.55 1614.87,1264.91 1617.11,1268.19 1619.35,1271.39 1621.6,1274.52 1623.84,1277.58 1626.08,1280.57 1628.32,1283.49 1630.57,1286.34 1632.81,1289.13 1635.05,1291.85 1637.3,1294.51 1639.54,1297.11 1641.78,1299.65 1644.02,1302.12 1646.27,1304.54 1648.51,1306.91 1650.75,1309.21 1653,1311.47 1655.24,1313.67 1657.48,1315.82 1659.72,1317.91 1661.97,1319.96 1664.21,1321.96 1666.45,1323.91 1668.7,1325.82 1670.94,1327.68 1673.18,1329.49 1675.42,1331.26 1677.67,1332.99 1679.91,1334.68 1682.15,1336.32 1684.4,1337.93 1686.64,1339.5 1688.88,1341.03 1691.12,1342.52 1693.37,1343.97 1695.61,1345.39 1697.85,1346.78 1700.09,1348.13 1702.34,1349.44 1704.58,1350.72 1706.82,1351.97 1709.07,1353.19 1711.31,1354.38 1713.55,1355.53 1715.79,1356.66 1718.04,1357.75 1720.28,1358.82 1722.52,1359.85 1724.77,1360.86 1727.01,1361.85 1729.25,1362.8 1731.49,1363.73 1733.74,1364.64 1735.98,1365.52 1738.22,1366.37 1740.47,1367.2 1742.71,1368 1744.95,1368.79 1747.19,1369.55 1749.44,1370.28 1751.68,1371 1753.92,1371.69 1756.17,1372.36 1758.41,1373.01 1760.65,1373.64 1762.89,1374.25 1765.14,1374.84 1767.38,1375.4 1769.62,1375.95 1771.87,1376.48 1774.11,1376.99 1776.35,1377.48 1778.59,1377.95 1780.84,1378.41 1783.08,1378.84 1785.32,1379.26 1787.56,1379.66 1789.81,1380.04 1792.05,1380.4 1794.29,1380.74 1796.54,1381.07 1798.78,1381.38 1801.02,1381.67 1803.26,1381.94 1805.51,1382.2 1807.75,1382.44 1809.99,1382.66 1812.24,1382.86 1814.48,1383.05 1816.72,1383.22 1818.96,1383.36 1821.21,1383.5 1823.45,1383.61 1825.69,1383.7 1827.94,1383.78 1830.18,1383.84 1832.42,1383.88 1834.66,1383.91 1836.91,1383.91 1839.15,1383.9 1841.39,1383.87 1843.64,1383.82 1845.88,1383.74 1848.12,1383.65 1850.36,1383.54 1852.61,1383.41 1854.85,1383.26 1857.09,1383.09 1859.34,1382.89 1861.58,1382.68 1863.82,1382.44 1866.06,1382.17 1868.31,1381.88 1870.55,1381.57 1872.79,1381.23 1875.03,1380.86 1877.28,1380.47 1879.52,1380.05 1881.76,1379.6 1884.01,1379.11 1886.25,1378.6 1888.49,1378.06 1890.73,1377.48 1892.98,1376.87 1895.22,1376.22 1897.46,1375.54 1899.71,1374.82 1901.95,1374.05 1904.19,1373.24 1906.43,1372.37 1908.68,1371.46 1910.92,1370.49 1913.16,1369.48 1915.41,1368.42 1917.65,1367.3 1919.89,1366.13 1922.13,1364.9 1924.38,1363.62 1926.62,1362.28 1928.86,1360.88 1931.11,1359.41 1933.35,1357.88 1935.59,1356.27 1937.83,1354.59 1940.08,1352.83 1942.32,1350.99 1944.56,1349.07 1946.81,1347.05 1949.05,1344.93 1951.29,1342.71 1953.53,1340.38 1955.78,1337.94 1958.02,1335.38 1960.26,1332.69 1962.5,1329.87 1964.75,1326.91 1966.99,1323.8 1969.23,1320.54 1971.48,1317.11 1973.72,1313.51 1975.96,1309.73 1978.2,1305.76 1980.45,1301.59 1982.69,1297.22 1984.93,1292.63 1987.18,1287.81 1989.42,1282.75 1991.66,1277.45 1993.9,1271.89 1996.15,1266.05 1998.39,1259.94 2000.63,1253.54 2002.88,1246.82 2005.12,1239.8 2007.36,1232.44 2009.6,1224.74 2011.85,1216.69 2014.09,1208.27 2016.33,1199.47 2018.58,1190.29 2020.82,1180.7 2023.06,1170.68 2025.3,1160.24 2027.55,1149.35 2029.79,1138.02 2032.03,1126.23 2034.28,1113.98 2036.52,1101.28 2038.76,1088.13 2041,1074.54 2043.25,1060.51 2045.49,1046.05 2047.73,1031.18 2049.97,1015.92 2052.22,1000.27 2054.46,984.267 2056.7,967.928 2058.95,951.279 2061.19,934.349 2063.43,917.167 2065.67,899.768 2067.92,882.18 2070.16,864.452 2072.4,846.658 2074.65,828.868 2076.89,811.149 2079.13,793.567 2081.37,776.185 2083.62,759.066 2085.86,742.268 2088.1,725.848 2090.35,709.862 2092.59,694.363 2094.83,679.401 2097.07,665.025 2099.32,651.282 2101.56,638.216 2103.8,625.869 2106.05,614.281 2108.29,603.491 2110.53,593.535 2112.77,584.445 2115.02,576.254 2117.26,568.991 2119.5,562.665 2121.75,557.258 2123.99,552.758 2126.23,549.153 2128.47,546.427 2130.72,544.565 2132.96,543.548 2135.2,543.356 2137.45,543.969 2139.69,545.364 2141.93,547.516 2144.17,550.398 2146.42,553.984 2148.66,558.245 2150.9,563.148 2153.14,568.662 2155.39,574.753 2157.63,581.384 2159.87,588.519 2162.12,596.118 2164.36,604.141 2166.6,612.546 2168.84,621.288 2171.09,630.323 2173.33,639.603 2175.57,649.108 2177.82,658.843 2180.06,668.784 2182.3,678.905 2184.54,689.184 2186.79,699.599 2189.03,710.127 2191.27,720.749 2193.52,731.445 2195.76,742.196 2198,752.985 2200.24,763.797 2202.49,774.614 2204.73,785.424 2206.97,796.211 2209.22,806.965 2211.46,817.673 2213.7,828.326 2215.94,838.912 2218.19,849.425 2220.43,859.856 2222.67,870.2 2224.92,880.45 2227.16,890.602 2229.4,900.646 2231.64,910.576 2233.89,920.388 2236.13,930.08 2238.37,939.648 2240.61,949.089 2242.86,958.401 2245.1,967.583 2247.34,976.631 2249.59,985.545 2251.83,994.323 2254.07,1002.96 2256.31,1011.46 2258.56,1019.83 2260.8,1028.05 2263.04,1036.13 2265.29,1044.07 2267.53,1051.87 2269.77,1059.54 2272.01,1067.06 2274.26,1074.44 2276.5,1081.69 2278.74,1088.79 2280.99,1095.77 2283.23,1102.61 2285.47,1109.32 2287.71,1115.9 2289.96,1122.35 2292.2,1128.67 2294.44,1134.87 2296.69,1140.95 2298.93,1146.89 2301.17,1152.72 2303.41,1158.43 2305.66,1164.02 2307.9,1169.5 2310.14,1174.86 2312.39,1180.11 2314.63,1185.25 2316.87,1190.28 2319.11,1195.2 2321.36,1200.02 2323.6,1204.73 2325.84,1209.34 2328.08,1213.85 2330.33,1218.26 2332.57,1222.58 2334.81,1226.8 2337.06,1230.93 2339.3,1234.96 2341.54,1238.91 2343.78,1242.77 2346.03,1246.54 2348.27,1250.23 2350.51,1253.84 2352.76,1257.36 "/>
<polyline clip-path="url(#clip192)" style="stroke:#3da44d; stroke-linecap:round; stroke-linejoin:round; stroke-width:4; stroke-opacity:1; fill:none" points="112.177,1239.07 114.42,1238.07 116.663,1237.03 118.906,1235.94 121.148,1234.81 123.391,1233.63 125.634,1232.42 127.877,1231.15 130.12,1229.85 132.363,1228.51 134.605,1227.12 136.848,1225.69 139.091,1224.21 141.334,1222.7 143.577,1221.14 145.819,1219.54 148.062,1217.89 150.305,1216.2 152.548,1214.47 154.791,1212.7 157.034,1210.88 159.276,1209.02 161.519,1207.12 163.762,1205.17 166.005,1203.18 168.248,1201.15 170.491,1199.07 172.733,1196.94 174.976,1194.78 177.219,1192.56 179.462,1190.3 181.705,1188 183.947,1185.65 186.19,1183.25 188.433,1180.81 190.676,1178.32 192.919,1175.78 195.162,1173.2 197.404,1170.56 199.647,1167.88 201.89,1165.15 204.133,1162.37 206.376,1159.55 208.619,1156.67 210.861,1153.74 213.104,1150.76 215.347,1147.73 217.59,1144.65 219.833,1141.51 222.075,1138.32 224.318,1135.08 226.561,1131.79 228.804,1128.44 231.047,1125.04 233.29,1121.58 235.532,1118.07 237.775,1114.49 240.018,1110.87 242.261,1107.18 244.504,1103.44 246.746,1099.64 248.989,1095.78 251.232,1091.85 253.475,1087.87 255.718,1083.83 257.961,1079.73 260.203,1075.56 262.446,1071.33 264.689,1067.04 266.932,1062.68 269.175,1058.26 271.418,1053.77 273.66,1049.21 275.903,1044.59 278.146,1039.9 280.389,1035.15 282.632,1030.32 284.874,1025.42 287.117,1020.46 289.36,1015.42 291.603,1010.31 293.846,1005.13 296.089,999.873 298.331,994.544 300.574,989.139 302.817,983.66 305.06,978.104 307.303,972.471 309.545,966.76 311.788,960.972 314.031,955.104 316.274,949.156 318.517,943.127 320.76,937.017 323.002,930.825 325.245,924.551 327.488,918.193 329.731,911.752 331.974,905.226 334.217,898.614 336.459,891.916 338.702,885.131 340.945,878.258 343.188,871.297 345.431,864.246 347.673,857.106 349.916,849.875 352.159,842.554 354.402,835.141 356.645,827.635 358.888,820.038 361.13,812.348 363.373,804.564 365.616,796.687 367.859,788.715 370.102,780.65 372.344,772.49 374.587,764.235 376.83,755.885 379.073,747.44 381.316,738.9 383.559,730.265 385.801,721.534 388.044,712.708 390.287,703.786 392.53,694.769 394.773,685.657 397.016,676.45 399.258,667.152 401.501,657.764 403.744,648.286 405.987,638.716 408.23,629.054 410.472,619.302 412.715,609.458 414.958,599.525 417.201,589.502 419.444,579.392 421.687,569.195 423.929,558.915 426.172,548.553 428.415,538.111 430.658,527.593 432.901,517.001 435.143,506.339 437.386,495.61 439.629,484.82 441.872,473.971 444.115,463.068 446.358,452.117 448.6,441.122 450.843,430.089 453.086,419.023 455.329,407.931 457.572,396.819 459.815,385.693 462.057,374.561 464.3,363.429 466.543,352.306 468.786,341.198 471.029,330.115 473.271,319.064 475.514,308.053 477.757,297.078 480,286.15 482.243,275.288 484.486,264.508 486.728,253.832 488.971,243.278 491.214,232.867 493.457,222.618 495.7,212.554 497.942,202.695 500.185,193.064 502.428,183.683 504.671,174.576 506.914,165.765 509.157,157.275 511.399,149.13 513.642,141.355 515.885,133.975 518.128,127.017 520.371,120.507 522.614,114.471 524.856,108.937 527.099,103.934 529.342,99.4882 531.585,95.6298 533.828,92.3877 536.07,89.7917 538.313,87.8721 540.556,86.6597 542.799,86.1857 545.042,86.4818 547.285,87.5802 549.527,89.5136 551.77,92.3153 554.013,96.0188 556.256,100.658 558.499,106.272 560.741,112.897 562.984,120.539 565.227,129.193 567.47,138.852 569.713,149.508 571.956,161.145 574.198,173.747 576.441,187.294 578.684,201.762 580.927,217.125 583.17,233.352 585.413,250.41 587.655,268.263 589.898,286.869 592.141,306.186 594.384,326.166 596.627,346.76 598.869,367.914 601.112,389.571 603.355,411.672 605.598,434.152 607.841,456.944 610.084,479.98 612.326,503.185 614.569,526.482 616.812,549.791 619.055,573.03 621.298,596.139 623.54,619.097 625.783,641.847 628.026,664.337 630.269,686.516 632.512,708.341 634.755,729.769 636.997,750.764 639.24,771.293 641.483,791.326 643.726,810.838 645.969,829.807 648.212,848.217 650.454,866.053 652.697,883.306 654.94,899.971 657.183,916.046 659.426,931.533 661.668,946.439 663.911,960.774 666.154,974.552 668.397,987.792 670.64,1000.52 672.883,1012.75 675.125,1024.52 677.368,1035.83 679.611,1046.66 681.854,1057.04 684.097,1066.97 686.339,1076.48 688.582,1085.57 690.825,1094.27 693.068,1102.59 695.311,1110.54 697.554,1118.14 699.796,1125.39 702.039,1132.33 704.282,1138.94 706.525,1145.26 708.768,1151.29 711.011,1157.03 713.253,1162.51 715.496,1167.74 717.739,1172.71 719.982,1177.45 722.225,1181.96 724.467,1186.25 726.71,1190.34 728.953,1194.21 731.196,1197.9 733.439,1201.41 735.682,1204.75 737.924,1207.91 740.167,1210.91 742.41,1213.76 744.653,1216.46 746.896,1219.02 749.138,1221.44 751.381,1223.72 753.624,1225.88 755.867,1227.92 758.11,1229.83 760.353,1231.64 762.595,1233.33 764.838,1234.93 767.081,1236.42 769.324,1237.81 771.567,1239.11 773.81,1240.31 776.052,1241.43 778.295,1242.47 780.538,1243.42 782.781,1244.29 785.024,1245.08 787.266,1245.8 789.509,1246.44 791.752,1247 793.995,1247.5 796.238,1247.93 798.481,1248.29 800.723,1248.59 802.966,1248.82 805.209,1249 807.452,1249.11 809.695,1249.16 811.938,1249.16 814.18,1249.1 816.423,1248.98 818.666,1248.81 820.909,1248.58 823.152,1248.31 825.394,1247.98 827.637,1247.59 829.88,1247.16 832.123,1246.68 834.366,1246.15 836.609,1245.58 838.851,1244.95 841.094,1244.28 843.337,1243.56 845.58,1242.8 847.823,1241.99 850.065,1241.14 852.308,1240.24 854.551,1239.3 856.794,1238.31 859.037,1237.28 861.28,1236.21 863.522,1235.09 865.765,1233.93 868.008,1232.73 870.251,1231.49 872.494,1230.2 874.737,1228.87 876.979,1227.49 879.222,1226.08 881.465,1224.62 883.708,1223.12 885.951,1221.57 888.193,1219.98 890.436,1218.35 892.679,1216.68 894.922,1214.96 897.165,1213.2 899.408,1211.4 901.65,1209.55 903.893,1207.66 906.136,1205.73 908.379,1203.75 910.622,1201.72 912.864,1199.66 915.107,1197.55 917.35,1195.39 919.593,1193.19 921.836,1190.94 924.079,1188.65 926.321,1186.32 928.564,1183.93 930.807,1181.5 933.05,1179.03 935.293,1176.51 937.536,1173.93 939.778,1171.32 942.021,1168.65 944.264,1165.94 946.507,1163.17 948.75,1160.36 950.992,1157.5 953.235,1154.58 955.478,1151.62 957.721,1148.61 959.964,1145.54 962.207,1142.42 964.449,1139.25 966.692,1136.02 968.935,1132.75 971.178,1129.41 973.421,1126.03 975.663,1122.59 977.906,1119.09 980.149,1115.54 982.392,1111.93 984.635,1108.26 986.878,1104.53 989.12,1100.75 991.363,1096.91 993.606,1093.01 995.849,1089.04 998.092,1085.02 1000.33,1080.93 1002.58,1076.79 1004.82,1072.58 1007.06,1068.31 1009.31,1063.97 1011.55,1059.57 1013.79,1055.1 1016.03,1050.57 1018.28,1045.97 1020.52,1041.3 1022.76,1036.56 1025.01,1031.76 1027.25,1026.89 1029.49,1021.94 1031.73,1016.93 1033.98,1011.84 1036.22,1006.68 1038.46,1001.45 1040.71,996.144 1042.95,990.764 1045.19,985.308 1047.43,979.777 1049.68,974.169 1051.92,968.483 1054.16,962.718 1056.41,956.875 1058.65,950.952 1060.89,944.948 1063.13,938.863 1065.38,932.696 1067.62,926.446 1069.86,920.113 1072.1,913.695 1074.35,907.194 1076.59,900.606 1078.83,893.933 1081.08,887.173 1083.32,880.326 1085.56,873.392 1087.8,866.368 1090.05,859.256 1092.29,852.054 1094.53,844.761 1096.78,837.378 1099.02,829.904 1101.26,822.338 1103.5,814.679 1105.75,806.927 1107.99,799.082 1110.23,791.142 1112.48,783.109 1114.72,774.98 1116.96,766.76 1119.2,758.455 1121.45,750.061 1123.69,741.577 1125.93,733.001 1128.18,724.332 1130.42,715.567 1132.66,706.706 1134.9,697.748 1137.15,688.692 1139.39,679.537 1141.63,670.284 1143.88,660.932 1146.12,651.483 1148.36,641.935 1150.6,632.291 1152.85,622.551 1155.09,612.716 1157.33,602.788 1159.57,592.768 1161.82,582.659 1164.06,572.463 1166.3,562.182 1168.55,551.819 1170.79,541.378 1173.03,530.86 1175.27,520.27 1177.52,509.611 1179.76,498.887 1182,488.102 1184.25,477.262 1186.49,466.369 1188.73,455.43 1190.97,444.449 1193.22,433.432 1195.46,422.385 1197.7,411.312 1199.95,400.221 1202.19,389.118 1204.43,378.009 1206.67,366.901 1208.92,355.801 1211.16,344.716 1213.4,333.655 1215.65,322.624 1217.89,311.632 1220.13,300.688 1222.37,289.798 1224.62,278.97 1226.86,268.204 1229.1,257.519 1231.35,246.937 1233.59,236.482 1235.83,226.175 1238.07,216.039 1240.32,206.098 1242.56,196.374 1244.8,186.893 1247.04,177.677 1249.29,168.752 1251.53,160.142 1253.77,151.873 1256.02,143.97 1258.26,136.459 1260.5,129.366 1262.74,122.718 1264.99,116.54 1267.23,110.862 1269.47,105.709 1271.72,101.11 1273.96,97.0935 1276.2,93.687 1278.44,90.9198 1280.69,88.8209 1282.93,87.4199 1285.17,86.7464 1287.42,86.8306 1289.66,87.703 1291.9,89.3942 1294.14,91.9355 1296.39,95.3583 1298.63,99.6943 1300.87,104.976 1303.12,111.235 1305.36,118.536 1307.6,126.906 1309.84,136.325 1312.09,146.771 1314.33,158.22 1316.57,170.646 1318.82,184.021 1321.06,198.313 1323.3,213.492 1325.54,229.521 1327.79,246.365 1330.03,263.984 1332.27,282.338 1334.51,301.383 1336.76,321.075 1339,341.366 1341.24,362.207 1343.49,383.547 1345.73,405.331 1347.97,427.505 1350.21,450.01 1352.46,472.786 1354.7,495.772 1356.94,518.904 1359.19,542.115 1361.43,565.336 1363.67,588.499 1365.91,611.529 1368.16,634.353 1370.4,656.893 1372.64,679.079 1374.89,700.907 1377.13,722.35 1379.37,743.379 1381.61,763.963 1383.86,784.078 1386.1,803.7 1388.34,822.809 1390.59,841.387 1392.83,859.419 1395.07,876.894 1397.31,893.802 1399.56,910.137 1401.8,925.894 1404.04,941.073 1406.29,955.676 1408.53,969.706 1410.77,983.172 1413.01,996.083 1415.26,1008.45 1417.5,1020.29 1419.74,1031.63 1421.98,1042.48 1424.23,1052.86 1426.47,1062.81 1428.71,1072.35 1430.96,1081.51 1433.2,1090.33 1435.44,1098.78 1437.68,1106.86 1439.93,1114.58 1442.17,1121.95 1444.41,1128.99 1446.66,1135.71 1448.9,1142.12 1451.14,1148.24 1453.38,1154.08 1455.63,1159.65 1457.87,1164.97 1460.11,1170.03 1462.36,1174.86 1464.6,1179.46 1466.84,1183.85 1469.08,1188.02 1471.33,1192 1473.57,1195.78 1475.81,1199.38 1478.06,1202.8 1480.3,1206.05 1482.54,1209.13 1484.78,1212.05 1487.03,1214.82 1489.27,1217.44 1491.51,1219.92 1493.76,1222.26 1496,1224.47 1498.24,1226.55 1500.48,1228.52 1502.73,1230.37 1504.97,1232.11 1507.21,1233.75 1509.46,1235.28 1511.7,1236.71 1513.94,1238.04 1516.18,1239.28 1518.43,1240.43 1520.67,1241.49 1522.91,1242.47 1525.15,1243.36 1527.4,1244.18 1529.64,1244.91 1531.88,1245.58 1534.13,1246.17 1536.37,1246.69 1538.61,1247.14 1540.85,1247.53 1543.1,1247.85 1545.34,1248.11 1547.58,1248.3 1549.83,1248.44 1552.07,1248.52 1554.31,1248.54 1556.55,1248.5 1558.8,1248.4 1561.04,1248.25 1563.28,1248.05 1565.53,1247.79 1567.77,1247.48 1570.01,1247.12 1572.25,1246.71 1574.5,1246.25 1576.74,1245.75 1578.98,1245.19 1581.23,1244.58 1583.47,1243.93 1585.71,1243.23 1587.95,1242.48 1590.2,1241.69 1592.44,1240.85 1594.68,1239.97 1596.93,1239.04 1599.17,1238.07 1601.41,1237.05 1603.65,1235.99 1605.9,1234.89 1608.14,1233.74 1610.38,1232.55 1612.62,1231.31 1614.87,1230.04 1617.11,1228.72 1619.35,1227.35 1621.6,1225.95 1623.84,1224.5 1626.08,1223.01 1628.32,1221.48 1630.57,1219.9 1632.81,1218.28 1635.05,1216.62 1637.3,1214.92 1639.54,1213.17 1641.78,1211.38 1644.02,1209.55 1646.27,1207.67 1648.51,1205.75 1650.75,1203.79 1653,1201.78 1655.24,1199.73 1657.48,1197.63 1659.72,1195.49 1661.97,1193.31 1664.21,1191.07 1666.45,1188.8 1668.7,1186.47 1670.94,1184.1 1673.18,1181.69 1675.42,1179.23 1677.67,1176.72 1679.91,1174.16 1682.15,1171.55 1684.4,1168.9 1686.64,1166.2 1688.88,1163.45 1691.12,1160.65 1693.37,1157.8 1695.61,1154.9 1697.85,1151.95 1700.09,1148.95 1702.34,1145.89 1704.58,1142.79 1706.82,1139.63 1709.07,1136.42 1711.31,1133.16 1713.55,1129.84 1715.79,1126.47 1718.04,1123.04 1720.28,1119.56 1722.52,1116.02 1724.77,1112.43 1727.01,1108.77 1729.25,1105.06 1731.49,1101.3 1733.74,1097.47 1735.98,1093.58 1738.22,1089.63 1740.47,1085.63 1742.71,1081.56 1744.95,1077.43 1747.19,1073.23 1749.44,1068.98 1751.68,1064.65 1753.92,1060.27 1756.17,1055.82 1758.41,1051.3 1760.65,1046.72 1762.89,1042.07 1765.14,1037.35 1767.38,1032.56 1769.62,1027.71 1771.87,1022.78 1774.11,1017.79 1776.35,1012.72 1778.59,1007.58 1780.84,1002.37 1783.08,997.081 1785.32,991.721 1787.56,986.287 1789.81,980.776 1792.05,975.19 1794.29,969.526 1796.54,963.784 1798.78,957.964 1801.02,952.064 1803.26,946.084 1805.51,940.023 1807.75,933.881 1809.99,927.655 1812.24,921.347 1814.48,914.956 1816.72,908.482 1818.96,901.924 1821.21,895.28 1823.45,888.55 1825.69,881.733 1827.94,874.827 1830.18,867.833 1832.42,860.75 1834.66,853.576 1836.91,846.312 1839.15,838.956 1841.39,831.508 1843.64,823.968 1845.88,816.335 1848.12,808.609 1850.36,800.788 1852.61,792.874 1854.85,784.866 1857.09,776.763 1859.34,768.565 1861.58,760.273 1863.82,751.886 1866.06,743.404 1868.31,734.827 1870.55,726.156 1872.79,717.389 1875.03,708.529 1877.28,699.574 1879.52,690.525 1881.76,681.382 1884.01,672.146 1886.25,662.817 1888.49,653.395 1890.73,643.881 1892.98,634.276 1895.22,624.58 1897.46,614.794 1899.71,604.918 1901.95,594.969 1904.19,584.951 1906.43,574.862 1908.68,564.699 1910.92,554.46 1913.16,544.146 1915.41,533.754 1917.65,523.286 1919.89,512.742 1922.13,502.124 1924.38,491.434 1926.62,480.674 1928.86,469.847 1931.11,458.959 1933.35,448.012 1935.59,437.013 1937.83,425.967 1940.08,414.88 1942.32,403.76 1944.56,392.614 1946.81,381.451 1949.05,370.279 1951.29,359.108 1953.53,347.947 1955.78,336.809 1958.02,325.703 1960.26,314.643 1962.5,303.64 1964.75,292.707 1966.99,281.86 1969.23,271.112 1971.48,260.478 1973.72,249.973 1975.96,239.615 1978.2,229.421 1980.45,219.407 1982.69,209.591 1984.93,199.994 1987.18,190.634 1989.42,181.53 1991.66,172.705 1993.9,164.179 1996.15,155.974 1998.39,148.112 2000.63,140.617 2002.88,133.512 2005.12,126.823 2007.36,120.573 2009.6,114.788 2011.85,109.495 2014.09,104.719 2016.33,100.493 2018.58,96.8618 2020.82,93.8696 2023.06,91.5569 2025.3,89.962 2027.55,89.1203 2029.79,89.0647 2032.03,89.8252 2034.28,91.4294 2036.52,93.9022 2038.76,97.2656 2041,101.539 2043.25,106.74 2045.49,112.882 2047.73,119.976 2049.97,128.032 2052.22,137.056 2054.46,147.051 2056.7,158.018 2058.95,169.955 2061.19,182.858 2063.43,196.719 2065.67,211.53 2067.92,227.289 2070.16,243.961 2072.4,261.484 2074.65,279.801 2076.89,298.85 2079.13,318.572 2081.37,338.908 2083.62,359.796 2085.86,381.177 2088.1,402.99 2090.35,425.175 2092.59,447.669 2094.83,470.413 2097.07,493.345 2099.32,516.404 2101.56,539.527 2103.8,562.653 2106.05,585.721 2108.29,608.667 2110.53,631.43 2112.77,653.946 2115.02,676.154 2117.26,697.991 2119.5,719.423 2121.75,740.434 2123.99,760.997 2126.23,781.09 2128.47,800.692 2130.72,819.784 2132.96,838.352 2135.2,856.381 2137.45,873.862 2139.69,890.786 2141.93,907.147 2144.17,922.942 2146.42,938.17 2148.66,952.834 2150.9,966.937 2153.14,980.486 2155.39,993.491 2157.63,1005.96 2159.87,1017.92 2162.12,1029.37 2164.36,1040.34 2166.6,1050.84 2168.84,1060.91 2171.09,1070.57 2173.33,1079.85 2175.57,1088.75 2177.82,1097.25 2180.06,1105.38 2182.3,1113.15 2184.54,1120.57 2186.79,1127.65 2189.03,1134.42 2191.27,1140.88 2193.52,1147.04 2195.76,1152.92 2198,1158.53 2200.24,1163.88 2202.49,1168.98 2204.73,1173.85 2206.97,1178.48 2209.22,1182.89 2211.46,1187.09 2213.7,1191.09 2215.94,1194.9 2218.19,1198.51 2220.43,1201.95 2222.67,1205.21 2224.92,1208.31 2227.16,1211.24 2229.4,1214.02 2231.64,1216.65 2233.89,1219.15 2236.13,1221.51 2238.37,1223.74 2240.61,1225.85 2242.86,1227.83 2245.1,1229.7 2247.34,1231.46 2249.59,1233.1 2251.83,1234.65 2254.07,1236.09 2256.31,1237.44 2258.56,1238.69 2260.8,1239.85 2263.04,1240.93 2265.29,1241.92 2267.53,1242.83 2269.77,1243.66 2272.01,1244.41 2274.26,1245.09 2276.5,1245.7 2278.74,1246.23 2280.99,1246.7 2283.23,1247.1 2285.47,1247.43 2287.71,1247.7 2289.96,1247.9 2292.2,1248.05 2294.44,1248.13 2296.69,1248.16 2298.93,1248.13 2301.17,1248.04 2303.41,1247.9 2305.66,1247.71 2307.9,1247.46 2310.14,1247.15 2312.39,1246.8 2314.63,1246.4 2316.87,1245.94 2319.11,1245.44 2321.36,1244.89 2323.6,1244.28 2325.84,1243.64 2328.08,1242.94 2330.33,1242.2 2332.57,1241.41 2334.81,1240.58 2337.06,1239.7 2339.3,1238.78 2341.54,1237.81 2343.78,1236.8 2346.03,1235.75 2348.27,1234.65 2350.51,1233.51 2352.76,1232.33 "/>
<polyline clip-path="url(#clip192)" style="stroke:#c271d2; stroke-linecap:round; stroke-linejoin:round; stroke-width:4; stroke-opacity:1; fill:none" points="112.177,1239.07 114.42,1242.94 116.663,1246.72 118.906,1250.41 121.148,1254.03 123.391,1257.56 125.634,1261.01 127.877,1264.38 130.12,1267.68 132.363,1270.9 134.605,1274.05 136.848,1277.13 139.091,1280.13 141.334,1283.07 143.577,1285.94 145.819,1288.74 148.062,1291.48 150.305,1294.16 152.548,1296.77 154.791,1299.32 157.034,1301.81 159.276,1304.25 161.519,1306.62 163.762,1308.95 166.005,1311.21 168.248,1313.43 170.491,1315.59 172.733,1317.7 174.976,1319.76 177.219,1321.77 179.462,1323.73 181.705,1325.65 183.947,1327.52 186.19,1329.34 188.433,1331.12 190.676,1332.86 192.919,1334.56 195.162,1336.21 197.404,1337.83 199.647,1339.4 201.89,1340.94 204.133,1342.44 206.376,1343.9 208.619,1345.32 210.861,1346.71 213.104,1348.07 215.347,1349.39 217.59,1350.68 219.833,1351.93 222.075,1353.15 224.318,1354.35 226.561,1355.51 228.804,1356.64 231.047,1357.74 233.29,1358.81 235.532,1359.86 237.775,1360.87 240.018,1361.86 242.261,1362.82 244.504,1363.76 246.746,1364.67 248.989,1365.56 251.232,1366.42 253.475,1367.25 255.718,1368.07 257.961,1368.86 260.203,1369.62 262.446,1370.36 264.689,1371.08 266.932,1371.78 269.175,1372.46 271.418,1373.12 273.66,1373.75 275.903,1374.36 278.146,1374.96 280.389,1375.53 282.632,1376.09 284.874,1376.62 287.117,1377.13 289.36,1377.63 291.603,1378.11 293.846,1378.56 296.089,1379 298.331,1379.42 300.574,1379.83 302.817,1380.21 305.06,1380.58 307.303,1380.93 309.545,1381.26 311.788,1381.57 314.031,1381.87 316.274,1382.15 318.517,1382.41 320.76,1382.65 323.002,1382.88 325.245,1383.09 327.488,1383.28 329.731,1383.45 331.974,1383.61 334.217,1383.75 336.459,1383.87 338.702,1383.97 340.945,1384.06 343.188,1384.12 345.431,1384.17 347.673,1384.21 349.916,1384.22 352.159,1384.21 354.402,1384.19 356.645,1384.15 358.888,1384.08 361.13,1384 363.373,1383.9 365.616,1383.78 367.859,1383.63 370.102,1383.47 372.344,1383.28 374.587,1383.07 376.83,1382.84 379.073,1382.58 381.316,1382.3 383.559,1382 385.801,1381.67 388.044,1381.31 390.287,1380.93 392.53,1380.52 394.773,1380.08 397.016,1379.61 399.258,1379.11 401.501,1378.57 403.744,1378.01 405.987,1377.41 408.23,1376.77 410.472,1376.1 412.715,1375.39 414.958,1374.64 417.201,1373.85 419.444,1373.03 421.687,1372.16 423.929,1371.25 426.172,1370.29 428.415,1369.28 430.658,1368.22 432.901,1367.11 435.143,1365.95 437.386,1364.72 439.629,1363.44 441.872,1362.09 444.115,1360.68 446.358,1359.19 448.6,1357.63 450.843,1355.99 453.086,1354.28 455.329,1352.47 457.572,1350.58 459.815,1348.59 462.057,1346.5 464.3,1344.32 466.543,1342.02 468.786,1339.61 471.029,1337.08 473.271,1334.43 475.514,1331.65 477.757,1328.75 480,1325.73 482.243,1322.56 484.486,1319.24 486.728,1315.75 488.971,1312.08 491.214,1308.23 493.457,1304.18 495.7,1299.92 497.942,1295.43 500.185,1290.7 502.428,1285.74 504.671,1280.51 506.914,1275.02 509.157,1269.25 511.399,1263.19 513.642,1256.83 515.885,1250.16 518.128,1243.17 520.371,1235.85 522.614,1228.19 524.856,1220.18 527.099,1211.81 529.342,1203.08 531.585,1193.96 533.828,1184.46 536.07,1174.56 538.313,1164.26 540.556,1153.54 542.799,1142.4 545.042,1130.83 547.285,1118.82 549.527,1106.36 551.77,1093.45 554.013,1080.07 556.256,1066.22 558.499,1051.88 560.741,1037.03 562.984,1021.7 565.227,1005.92 567.47,989.751 569.713,973.226 571.956,956.39 574.198,939.289 576.441,921.968 578.684,904.472 580.927,886.848 583.17,869.145 585.413,851.41 587.655,833.691 589.898,816.039 592.141,798.504 594.384,781.137 596.627,763.99 598.869,747.114 601.112,730.563 603.355,714.392 605.598,698.653 607.841,683.404 610.084,668.699 612.326,654.595 614.569,641.15 616.812,628.421 619.055,616.468 621.298,605.328 623.54,595.006 625.783,585.525 628.026,576.909 630.269,569.174 632.512,562.335 634.755,556.4 636.997,551.376 639.24,547.263 641.483,544.061 643.726,541.761 645.969,540.354 648.212,539.826 650.454,540.158 652.697,541.328 654.94,543.308 657.183,546.07 659.426,549.578 661.668,553.794 663.911,558.675 666.154,564.176 668.397,570.246 670.64,576.83 672.883,583.869 675.125,591.303 677.368,599.122 679.611,607.337 681.854,615.915 684.097,624.825 686.339,634.035 688.582,643.518 690.825,653.243 693.068,663.185 695.311,673.318 697.554,683.616 699.796,694.056 702.039,704.617 704.282,715.276 706.525,726.013 708.768,736.81 711.011,747.649 713.253,758.513 715.496,769.386 717.739,780.256 719.982,791.107 722.225,801.93 724.467,812.711 726.71,823.443 728.953,834.115 731.196,844.71 733.439,855.221 735.682,865.643 737.924,875.97 740.167,886.197 742.41,896.318 744.653,906.329 746.896,916.225 749.138,926.002 751.381,935.657 753.624,945.187 755.867,954.587 758.11,963.855 760.353,972.99 762.595,981.988 764.838,990.848 767.081,999.568 769.324,1008.15 771.567,1016.58 773.81,1024.88 776.052,1033.03 778.295,1041.04 780.538,1048.91 782.781,1056.64 785.024,1064.23 787.266,1071.68 789.509,1078.99 791.752,1086.17 793.995,1093.22 796.238,1100.13 798.481,1106.9 800.723,1113.55 802.966,1120.06 805.209,1126.45 807.452,1132.71 809.695,1138.84 811.938,1144.85 814.18,1150.73 816.423,1156.5 818.666,1162.15 820.909,1167.68 823.152,1173.09 825.394,1178.39 827.637,1183.58 829.88,1188.66 832.123,1193.63 834.366,1198.49 836.609,1203.25 838.851,1207.9 841.094,1212.46 843.337,1216.91 845.58,1221.27 847.823,1225.53 850.065,1229.69 852.308,1233.77 854.551,1237.75 856.794,1241.64 859.037,1245.45 861.28,1249.18 863.522,1252.81 865.765,1256.37 868.008,1259.85 870.251,1263.25 872.494,1266.57 874.737,1269.82 876.979,1272.99 879.222,1276.09 881.465,1279.12 883.708,1282.08 885.951,1284.97 888.193,1287.79 890.436,1290.55 892.679,1293.25 894.922,1295.88 897.165,1298.45 899.408,1300.96 901.65,1303.42 903.893,1305.81 906.136,1308.15 908.379,1310.44 910.622,1312.67 912.864,1314.85 915.107,1316.98 917.35,1319.06 919.593,1321.08 921.836,1323.06 924.079,1325 926.321,1326.88 928.564,1328.72 930.807,1330.52 933.05,1332.27 935.293,1333.98 937.536,1335.65 939.778,1337.28 942.021,1338.87 944.264,1340.41 946.507,1341.93 948.75,1343.4 950.992,1344.83 953.235,1346.23 955.478,1347.6 957.721,1348.93 959.964,1350.23 962.207,1351.49 964.449,1352.73 966.692,1353.93 968.935,1355.1 971.178,1356.24 973.421,1357.35 975.663,1358.43 977.906,1359.48 980.149,1360.5 982.392,1361.5 984.635,1362.47 986.878,1363.42 989.12,1364.34 991.363,1365.23 993.606,1366.1 995.849,1366.94 998.092,1367.76 1000.33,1368.56 1002.58,1369.33 1004.82,1370.09 1007.06,1370.82 1009.31,1371.52 1011.55,1372.21 1013.79,1372.87 1016.03,1373.51 1018.28,1374.14 1020.52,1374.74 1022.76,1375.32 1025.01,1375.88 1027.25,1376.42 1029.49,1376.94 1031.73,1377.44 1033.98,1377.92 1036.22,1378.39 1038.46,1378.83 1040.71,1379.26 1042.95,1379.67 1045.19,1380.06 1047.43,1380.43 1049.68,1380.78 1051.92,1381.12 1054.16,1381.44 1056.41,1381.74 1058.65,1382.02 1060.89,1382.29 1063.13,1382.54 1065.38,1382.77 1067.62,1382.98 1069.86,1383.18 1072.1,1383.36 1074.35,1383.52 1076.59,1383.67 1078.83,1383.8 1081.08,1383.91 1083.32,1384 1085.56,1384.07 1087.8,1384.13 1090.05,1384.17 1092.29,1384.19 1094.53,1384.19 1096.78,1384.17 1099.02,1384.13 1101.26,1384.07 1103.5,1383.99 1105.75,1383.9 1107.99,1383.78 1110.23,1383.64 1112.48,1383.48 1114.72,1383.3 1116.96,1383.09 1119.2,1382.86 1121.45,1382.6 1123.69,1382.31 1125.93,1381.99 1128.18,1381.65 1130.42,1381.28 1132.66,1380.89 1134.9,1380.47 1137.15,1380.02 1139.39,1379.54 1141.63,1379.04 1143.88,1378.51 1146.12,1377.94 1148.36,1377.35 1150.6,1376.73 1152.85,1376.07 1155.09,1375.39 1157.33,1374.66 1159.57,1373.9 1161.82,1373.1 1164.06,1372.25 1166.3,1371.37 1168.55,1370.44 1170.79,1369.46 1173.03,1368.44 1175.27,1367.36 1177.52,1366.22 1179.76,1365.03 1182,1363.77 1184.25,1362.46 1186.49,1361.07 1188.73,1359.61 1190.97,1358.08 1193.22,1356.48 1195.46,1354.79 1197.7,1353.01 1199.95,1351.14 1202.19,1349.18 1204.43,1347.13 1206.67,1344.96 1208.92,1342.7 1211.16,1340.31 1213.4,1337.82 1215.65,1335.2 1217.89,1332.45 1220.13,1329.57 1222.37,1326.55 1224.62,1323.39 1226.86,1320.1 1229.1,1316.65 1231.35,1313.04 1233.59,1309.26 1235.83,1305.28 1238.07,1301.1 1240.32,1296.71 1242.56,1292.08 1244.8,1287.21 1247.04,1282.09 1249.29,1276.7 1251.53,1271.03 1253.77,1265.08 1256.02,1258.82 1258.26,1252.26 1260.5,1245.37 1262.74,1238.15 1264.99,1230.6 1267.23,1222.69 1269.47,1214.42 1271.72,1205.78 1273.96,1196.76 1276.2,1187.36 1278.44,1177.56 1280.69,1167.36 1282.93,1156.75 1285.17,1145.72 1287.42,1134.27 1289.66,1122.38 1291.9,1110.06 1294.14,1097.29 1296.39,1084.08 1298.63,1070.4 1300.87,1056.27 1303.12,1041.67 1305.36,1026.55 1307.6,1010.91 1309.84,994.813 1312.09,978.311 1314.33,961.461 1316.57,944.319 1318.82,926.94 1321.06,909.38 1323.3,891.691 1325.54,873.928 1327.79,856.144 1330.03,838.39 1332.27,820.72 1334.51,803.185 1336.76,785.834 1339,768.72 1341.24,751.89 1343.49,735.395 1345.73,719.283 1347.97,703.602 1350.21,688.399 1352.46,673.722 1354.7,659.616 1356.94,646.128 1359.19,633.304 1361.43,621.186 1363.67,609.821 1365.91,599.251 1368.16,589.519 1370.4,580.668 1372.64,572.736 1374.89,565.716 1377.13,559.602 1379.37,554.389 1381.61,550.071 1383.86,546.638 1386.1,544.079 1388.34,542.382 1390.59,541.531 1392.83,541.51 1395.07,542.299 1397.31,543.876 1399.56,546.219 1401.8,549.302 1404.04,553.098 1406.29,557.577 1408.53,562.708 1410.77,568.456 1413.01,574.786 1415.26,581.661 1417.5,589.04 1419.74,596.881 1421.98,605.14 1424.23,613.772 1426.47,622.728 1428.71,631.958 1430.96,641.409 1433.2,651.031 1435.44,660.847 1437.68,670.857 1439.93,681.039 1442.17,691.37 1444.41,701.829 1446.66,712.396 1448.9,723.051 1451.14,733.775 1453.38,744.551 1455.63,755.361 1457.87,766.191 1460.11,777.024 1462.36,787.847 1464.6,798.646 1466.84,809.408 1469.08,820.123 1471.33,830.78 1473.57,841.368 1475.81,851.879 1478.06,862.305 1480.3,872.64 1482.54,882.875 1484.78,893.008 1487.03,903.032 1489.27,912.944 1491.51,922.743 1493.76,932.421 1496,941.972 1498.24,951.392 1500.48,960.681 1502.73,969.837 1504.97,978.858 1507.21,987.744 1509.46,996.493 1511.7,1005.1 1513.94,1013.58 1516.18,1021.91 1518.43,1030.11 1520.67,1038.16 1522.91,1046.08 1525.15,1053.86 1527.4,1061.49 1529.64,1068.99 1531.88,1076.35 1534.13,1083.58 1536.37,1090.66 1538.61,1097.61 1540.85,1104.43 1543.1,1111.11 1545.34,1117.66 1547.58,1124.08 1549.83,1130.37 1552.07,1136.54 1554.31,1142.58 1556.55,1148.5 1558.8,1154.3 1561.04,1159.99 1563.28,1165.55 1565.53,1171 1567.77,1176.33 1570.01,1181.55 1572.25,1186.67 1574.5,1191.67 1576.74,1196.56 1578.98,1201.36 1581.23,1206.04 1583.47,1210.63 1585.71,1215.12 1587.95,1219.51 1590.2,1223.8 1592.44,1228 1594.68,1232.11 1596.93,1236.12 1599.17,1240.05 1601.41,1243.89 1603.65,1247.64 1605.9,1251.31 1608.14,1254.9 1610.38,1258.4 1612.62,1261.83 1614.87,1265.18 1617.11,1268.45 1619.35,1271.65 1621.6,1274.77 1623.84,1277.82 1626.08,1280.81 1628.32,1283.72 1630.57,1286.57 1632.81,1289.35 1635.05,1292.07 1637.3,1294.72 1639.54,1297.32 1641.78,1299.85 1644.02,1302.32 1646.27,1304.74 1648.51,1307.09 1650.75,1309.4 1653,1311.65 1655.24,1313.84 1657.48,1315.99 1659.72,1318.08 1661.97,1320.12 1664.21,1322.12 1666.45,1324.07 1668.7,1325.97 1670.94,1327.82 1673.18,1329.63 1675.42,1331.4 1677.67,1333.13 1679.91,1334.81 1682.15,1336.45 1684.4,1338.06 1686.64,1339.62 1688.88,1341.15 1691.12,1342.63 1693.37,1344.09 1695.61,1345.5 1697.85,1346.88 1700.09,1348.23 1702.34,1349.54 1704.58,1350.82 1706.82,1352.07 1709.07,1353.28 1711.31,1354.47 1713.55,1355.62 1715.79,1356.74 1718.04,1357.83 1720.28,1358.9 1722.52,1359.93 1724.77,1360.94 1727.01,1361.92 1729.25,1362.87 1731.49,1363.8 1733.74,1364.7 1735.98,1365.58 1738.22,1366.43 1740.47,1367.26 1742.71,1368.06 1744.95,1368.84 1747.19,1369.6 1749.44,1370.33 1751.68,1371.05 1753.92,1371.74 1756.17,1372.41 1758.41,1373.05 1760.65,1373.68 1762.89,1374.29 1765.14,1374.87 1767.38,1375.44 1769.62,1375.99 1771.87,1376.52 1774.11,1377.02 1776.35,1377.51 1778.59,1377.98 1780.84,1378.43 1783.08,1378.87 1785.32,1379.28 1787.56,1379.68 1789.81,1380.06 1792.05,1380.42 1794.29,1380.76 1796.54,1381.08 1798.78,1381.39 1801.02,1381.68 1803.26,1381.95 1805.51,1382.21 1807.75,1382.44 1809.99,1382.66 1812.24,1382.86 1814.48,1383.05 1816.72,1383.21 1818.96,1383.36 1821.21,1383.49 1823.45,1383.6 1825.69,1383.69 1827.94,1383.77 1830.18,1383.83 1832.42,1383.87 1834.66,1383.89 1836.91,1383.89 1839.15,1383.88 1841.39,1383.84 1843.64,1383.79 1845.88,1383.72 1848.12,1383.62 1850.36,1383.51 1852.61,1383.38 1854.85,1383.23 1857.09,1383.05 1859.34,1382.85 1861.58,1382.63 1863.82,1382.39 1866.06,1382.12 1868.31,1381.83 1870.55,1381.51 1872.79,1381.17 1875.03,1380.8 1877.28,1380.4 1879.52,1379.98 1881.76,1379.52 1884.01,1379.04 1886.25,1378.52 1888.49,1377.97 1890.73,1377.39 1892.98,1376.78 1895.22,1376.13 1897.46,1375.44 1899.71,1374.71 1901.95,1373.94 1904.19,1373.12 1906.43,1372.25 1908.68,1371.33 1910.92,1370.36 1913.16,1369.34 1915.41,1368.27 1917.65,1367.14 1919.89,1365.97 1922.13,1364.73 1924.38,1363.45 1926.62,1362.1 1928.86,1360.69 1931.11,1359.21 1933.35,1357.67 1935.59,1356.06 1937.83,1354.37 1940.08,1352.6 1942.32,1350.75 1944.56,1348.81 1946.81,1346.78 1949.05,1344.65 1951.29,1342.42 1953.53,1340.08 1955.78,1337.62 1958.02,1335.05 1960.26,1332.34 1962.5,1329.51 1964.75,1326.53 1966.99,1323.4 1969.23,1320.11 1971.48,1316.67 1973.72,1313.04 1975.96,1309.24 1978.2,1305.25 1980.45,1301.06 1982.69,1296.65 1984.93,1292.03 1987.18,1287.19 1989.42,1282.1 1991.66,1276.77 1993.9,1271.17 1996.15,1265.3 1998.39,1259.15 2000.63,1252.71 2002.88,1245.96 2005.12,1238.89 2007.36,1231.49 2009.6,1223.75 2011.85,1215.65 2014.09,1207.18 2016.33,1198.34 2018.58,1189.11 2020.82,1179.46 2023.06,1169.4 2025.3,1158.9 2027.55,1147.95 2029.79,1136.56 2032.03,1124.71 2034.28,1112.41 2036.52,1099.65 2038.76,1086.44 2041,1072.79 2043.25,1058.71 2045.49,1044.19 2047.73,1029.27 2049.97,1013.96 2052.22,998.261 2054.46,982.211 2056.7,965.828 2058.95,949.139 2061.19,932.172 2063.43,914.957 2065.67,897.529 2067.92,879.914 2070.16,862.169 2072.4,844.367 2074.65,826.578 2076.89,808.868 2079.13,791.304 2081.37,773.948 2083.62,756.861 2085.86,740.103 2088.1,723.731 2090.35,707.799 2092.59,692.359 2094.83,677.464 2097.07,663.16 2099.32,649.495 2101.56,636.512 2103.8,624.253 2106.05,612.759 2108.29,602.067 2110.53,592.214 2112.77,583.232 2115.02,575.153 2117.26,568.006 2119.5,561.793 2121.75,556.498 2123.99,552.11 2126.23,548.614 2128.47,545.995 2130.72,544.239 2132.96,543.325 2135.2,543.235 2137.45,543.946 2139.69,545.437 2141.93,547.682 2144.17,550.655 2146.42,554.328 2148.66,558.672 2150.9,563.656 2153.14,569.246 2155.39,575.409 2157.63,582.108 2159.87,589.306 2162.12,596.963 2164.36,605.038 2166.6,613.49 2168.84,622.274 2171.09,631.344 2173.33,640.653 2175.57,650.19 2177.82,659.955 2180.06,669.922 2182.3,680.067 2184.54,690.367 2186.79,700.799 2189.03,711.343 2191.27,721.977 2193.52,732.684 2195.76,743.443 2198,754.239 2200.24,765.054 2202.49,775.873 2204.73,786.683 2206.97,797.47 2209.22,808.221 2211.46,818.925 2213.7,829.571 2215.94,840.151 2218.19,850.656 2220.43,861.079 2222.67,871.413 2224.92,881.653 2227.16,891.795 2229.4,901.827 2231.64,911.744 2233.89,921.543 2236.13,931.221 2238.37,940.775 2240.61,950.202 2242.86,959.5 2245.1,968.666 2247.34,977.699 2249.59,986.598 2251.83,995.36 2254.07,1003.98 2256.31,1012.47 2258.56,1020.82 2260.8,1029.02 2263.04,1037.09 2265.29,1045.01 2267.53,1052.8 2269.77,1060.44 2272.01,1067.95 2274.26,1075.32 2276.5,1082.54 2278.74,1089.64 2280.99,1096.6 2283.23,1103.42 2285.47,1110.11 2287.71,1116.68 2289.96,1123.12 2292.2,1129.43 2294.44,1135.61 2296.69,1141.67 2298.93,1147.6 2301.17,1153.42 2303.41,1159.11 2305.66,1164.69 2307.9,1170.15 2310.14,1175.5 2312.39,1180.73 2314.63,1185.86 2316.87,1190.88 2319.11,1195.79 2321.36,1200.59 2323.6,1205.29 2325.84,1209.89 2328.08,1214.39 2330.33,1218.79 2332.57,1223.09 2334.81,1227.3 2337.06,1231.42 2339.3,1235.44 2341.54,1239.38 2343.78,1243.23 2346.03,1246.99 2348.27,1250.67 2350.51,1254.26 2352.76,1257.78 "/>
<path clip-path="url(#clip190)" d="M186.863 352.309 L500.018 352.309 L500.018 93.1086 L186.863 93.1086  Z" fill="#ffffff" fill-rule="evenodd" fill-opacity="1"/>
<polyline clip-path="url(#clip190)" style="stroke:#000000; stroke-linecap:round; stroke-linejoin:round; stroke-width:4; stroke-opacity:1; fill:none" points="186.863,352.309 500.018,352.309 500.018,93.1086 186.863,93.1086 186.863,352.309 "/>
<polyline clip-path="url(#clip190)" style="stroke:#009af9; stroke-linecap:round; stroke-linejoin:round; stroke-width:4; stroke-opacity:1; fill:none" points="211.758,144.949 361.13,144.949 "/>
<path clip-path="url(#clip190)" d="M386.026 151.997 L386.026 136.303 L390.285 136.303 L390.285 151.835 Q390.285 155.516 391.72 157.368 Q393.155 159.196 396.026 159.196 Q399.475 159.196 401.465 156.997 Q403.479 154.798 403.479 151.002 L403.479 136.303 L407.739 136.303 L407.739 162.229 L403.479 162.229 L403.479 158.247 Q401.928 160.608 399.868 161.766 Q397.831 162.9 395.123 162.9 Q390.655 162.9 388.34 160.122 Q386.026 157.344 386.026 151.997 M396.743 135.678 L396.743 135.678 Z" fill="#000000" fill-rule="nonzero" fill-opacity="1" /><path clip-path="url(#clip190)" d="M416.118 126.21 L425.933 126.21 L425.933 129.52 L420.377 129.52 L420.377 165.168 L425.933 165.168 L425.933 168.479 L416.118 168.479 L416.118 126.21 Z" fill="#000000" fill-rule="nonzero" fill-opacity="1" /><path clip-path="url(#clip190)" d="M436.419 158.293 L444.058 158.293 L444.058 131.928 L435.748 133.595 L435.748 129.335 L444.011 127.669 L448.687 127.669 L448.687 158.293 L456.326 158.293 L456.326 162.229 L436.419 162.229 L436.419 158.293 Z" fill="#000000" fill-rule="nonzero" fill-opacity="1" /><path clip-path="url(#clip190)" d="M475.122 126.21 L475.122 168.479 L465.308 168.479 L465.308 165.168 L470.84 165.168 L470.84 129.52 L465.308 129.52 L465.308 126.21 L475.122 126.21 Z" fill="#000000" fill-rule="nonzero" fill-opacity="1" /><polyline clip-path="url(#clip190)" style="stroke:#e26f46; stroke-linecap:round; stroke-linejoin:round; stroke-width:4; stroke-opacity:1; fill:none" points="211.758,196.789 361.13,196.789 "/>
<path clip-path="url(#clip190)" d="M386.026 203.837 L386.026 188.143 L390.285 188.143 L390.285 203.675 Q390.285 207.356 391.72 209.208 Q393.155 211.036 396.026 211.036 Q399.475 211.036 401.465 208.837 Q403.479 206.638 403.479 202.842 L403.479 188.143 L407.739 188.143 L407.739 214.069 L403.479 214.069 L403.479 210.087 Q401.928 212.448 399.868 213.606 Q397.831 214.74 395.123 214.74 Q390.655 214.74 388.34 211.962 Q386.026 209.184 386.026 203.837 M396.743 187.518 L396.743 187.518 Z" fill="#000000" fill-rule="nonzero" fill-opacity="1" /><path clip-path="url(#clip190)" d="M416.118 178.05 L425.933 178.05 L425.933 181.36 L420.377 181.36 L420.377 217.008 L425.933 217.008 L425.933 220.319 L416.118 220.319 L416.118 178.05 Z" fill="#000000" fill-rule="nonzero" fill-opacity="1" /><path clip-path="url(#clip190)" d="M439.637 210.133 L455.956 210.133 L455.956 214.069 L434.012 214.069 L434.012 210.133 Q436.674 207.379 441.257 202.749 Q445.863 198.096 447.044 196.754 Q449.289 194.231 450.169 192.495 Q451.072 190.735 451.072 189.046 Q451.072 186.291 449.127 184.555 Q447.206 182.819 444.104 182.819 Q441.905 182.819 439.451 183.583 Q437.021 184.347 434.243 185.897 L434.243 181.175 Q437.067 180.041 439.521 179.462 Q441.974 178.884 444.011 178.884 Q449.382 178.884 452.576 181.569 Q455.771 184.254 455.771 188.745 Q455.771 190.874 454.961 192.796 Q454.173 194.694 452.067 197.286 Q451.488 197.958 448.386 201.175 Q445.285 204.37 439.637 210.133 Z" fill="#000000" fill-rule="nonzero" fill-opacity="1" /><path clip-path="url(#clip190)" d="M475.122 178.05 L475.122 220.319 L465.308 220.319 L465.308 217.008 L470.84 217.008 L470.84 181.36 L465.308 181.36 L465.308 178.05 L475.122 178.05 Z" fill="#000000" fill-rule="nonzero" fill-opacity="1" /><polyline clip-path="url(#clip190)" style="stroke:#3da44d; stroke-linecap:round; stroke-linejoin:round; stroke-width:4; stroke-opacity:1; fill:none" points="211.758,248.629 361.13,248.629 "/>
<path clip-path="url(#clip190)" d="M386.026 255.677 L386.026 239.983 L390.285 239.983 L390.285 255.515 Q390.285 259.196 391.72 261.048 Q393.155 262.876 396.026 262.876 Q399.475 262.876 401.465 260.677 Q403.479 258.478 403.479 254.682 L403.479 239.983 L407.739 239.983 L407.739 265.909 L403.479 265.909 L403.479 261.927 Q401.928 264.288 399.868 265.446 Q397.831 266.58 395.123 266.58 Q390.655 266.58 388.34 263.802 Q386.026 261.024 386.026 255.677 M396.743 239.358 L396.743 239.358 Z" fill="#000000" fill-rule="nonzero" fill-opacity="1" /><path clip-path="url(#clip190)" d="M416.118 229.89 L425.933 229.89 L425.933 233.2 L420.377 233.2 L420.377 268.848 L425.933 268.848 L425.933 272.159 L416.118 272.159 L416.118 229.89 Z" fill="#000000" fill-rule="nonzero" fill-opacity="1" /><path clip-path="url(#clip190)" d="M436.419 261.973 L444.058 261.973 L444.058 235.608 L435.748 237.275 L435.748 233.015 L444.011 231.349 L448.687 231.349 L448.687 261.973 L456.326 261.973 L456.326 265.909 L436.419 265.909 L436.419 261.973 Z" fill="#000000" fill-rule="nonzero" fill-opacity="1" /><path clip-path="url(#clip190)" d="M475.122 229.89 L475.122 272.159 L465.308 272.159 L465.308 268.848 L470.84 268.848 L470.84 233.2 L465.308 233.2 L465.308 229.89 L475.122 229.89 Z" fill="#000000" fill-rule="nonzero" fill-opacity="1" /><polyline clip-path="url(#clip190)" style="stroke:#c271d2; stroke-linecap:round; stroke-linejoin:round; stroke-width:4; stroke-opacity:1; fill:none" points="211.758,300.469 361.13,300.469 "/>
<path clip-path="url(#clip190)" d="M386.026 307.517 L386.026 291.823 L390.285 291.823 L390.285 307.355 Q390.285 311.036 391.72 312.888 Q393.155 314.716 396.026 314.716 Q399.475 314.716 401.465 312.517 Q403.479 310.318 403.479 306.522 L403.479 291.823 L407.739 291.823 L407.739 317.749 L403.479 317.749 L403.479 313.767 Q401.928 316.128 399.868 317.286 Q397.831 318.42 395.123 318.42 Q390.655 318.42 388.34 315.642 Q386.026 312.864 386.026 307.517 M396.743 291.198 L396.743 291.198 Z" fill="#000000" fill-rule="nonzero" fill-opacity="1" /><path clip-path="url(#clip190)" d="M416.118 281.73 L425.933 281.73 L425.933 285.04 L420.377 285.04 L420.377 320.688 L425.933 320.688 L425.933 323.999 L416.118 323.999 L416.118 281.73 Z" fill="#000000" fill-rule="nonzero" fill-opacity="1" /><path clip-path="url(#clip190)" d="M439.637 313.813 L455.956 313.813 L455.956 317.749 L434.012 317.749 L434.012 313.813 Q436.674 311.059 441.257 306.429 Q445.863 301.776 447.044 300.434 Q449.289 297.911 450.169 296.175 Q451.072 294.415 451.072 292.726 Q451.072 289.971 449.127 288.235 Q447.206 286.499 444.104 286.499 Q441.905 286.499 439.451 287.263 Q437.021 288.027 434.243 289.577 L434.243 284.855 Q437.067 283.721 439.521 283.142 Q441.974 282.564 444.011 282.564 Q449.382 282.564 452.576 285.249 Q455.771 287.934 455.771 292.425 Q455.771 294.554 454.961 296.476 Q454.173 298.374 452.067 300.966 Q451.488 301.638 448.386 304.855 Q445.285 308.05 439.637 313.813 Z" fill="#000000" fill-rule="nonzero" fill-opacity="1" /><path clip-path="url(#clip190)" d="M475.122 281.73 L475.122 323.999 L465.308 323.999 L465.308 320.688 L470.84 320.688 L470.84 285.04 L465.308 285.04 L465.308 281.73 L475.122 281.73 Z" fill="#000000" fill-rule="nonzero" fill-opacity="1" /></svg>
