<?xml version="1.0" encoding="utf-8"?>
<svg xmlns="http://www.w3.org/2000/svg" xmlns:xlink="http://www.w3.org/1999/xlink" width="600" height="400" viewBox="0 0 2400 1600">
<defs>
  <clipPath id="clip580">
    <rect x="0" y="0" width="2400" height="1600"/>
  </clipPath>
</defs>
<path clip-path="url(#clip580)" d="M0 1600 L2400 1600 L2400 0 L0 0  Z" fill="#ffffff" fill-rule="evenodd" fill-opacity="1"/>
<defs>
  <clipPath id="clip581">
    <rect x="480" y="0" width="1681" height="1600"/>
  </clipPath>
</defs>
<path clip-path="url(#clip580)" d="M221.637 1423.18 L2352.76 1423.18 L2352.76 123.472 L221.637 123.472  Z" fill="#ffffff" fill-rule="evenodd" fill-opacity="1"/>
<defs>
  <clipPath id="clip582">
    <rect x="221" y="123" width="2132" height="1301"/>
  </clipPath>
</defs>
<polyline clip-path="url(#clip582)" style="stroke:#000000; stroke-linecap:round; stroke-linejoin:round; stroke-width:2; stroke-opacity:0.1; fill:none" points="281.952,1423.18 281.952,123.472 "/>
<polyline clip-path="url(#clip582)" style="stroke:#000000; stroke-linecap:round; stroke-linejoin:round; stroke-width:2; stroke-opacity:0.1; fill:none" points="784.574,1423.18 784.574,123.472 "/>
<polyline clip-path="url(#clip582)" style="stroke:#000000; stroke-linecap:round; stroke-linejoin:round; stroke-width:2; stroke-opacity:0.1; fill:none" points="1287.2,1423.18 1287.2,123.472 "/>
<polyline clip-path="url(#clip582)" style="stroke:#000000; stroke-linecap:round; stroke-linejoin:round; stroke-width:2; stroke-opacity:0.1; fill:none" points="1789.82,1423.18 1789.82,123.472 "/>
<polyline clip-path="url(#clip582)" style="stroke:#000000; stroke-linecap:round; stroke-linejoin:round; stroke-width:2; stroke-opacity:0.1; fill:none" points="2292.44,1423.18 2292.44,123.472 "/>
<polyline clip-path="url(#clip580)" style="stroke:#000000; stroke-linecap:round; stroke-linejoin:round; stroke-width:4; stroke-opacity:1; fill:none" points="221.637,1423.18 2352.76,1423.18 "/>
<polyline clip-path="url(#clip580)" style="stroke:#000000; stroke-linecap:round; stroke-linejoin:round; stroke-width:4; stroke-opacity:1; fill:none" points="281.952,1423.18 281.952,1404.28 "/>
<polyline clip-path="url(#clip580)" style="stroke:#000000; stroke-linecap:round; stroke-linejoin:round; stroke-width:4; stroke-opacity:1; fill:none" points="784.574,1423.18 784.574,1404.28 "/>
<polyline clip-path="url(#clip580)" style="stroke:#000000; stroke-linecap:round; stroke-linejoin:round; stroke-width:4; stroke-opacity:1; fill:none" points="1287.2,1423.18 1287.2,1404.28 "/>
<polyline clip-path="url(#clip580)" style="stroke:#000000; stroke-linecap:round; stroke-linejoin:round; stroke-width:4; stroke-opacity:1; fill:none" points="1789.82,1423.18 1789.82,1404.28 "/>
<polyline clip-path="url(#clip580)" style="stroke:#000000; stroke-linecap:round; stroke-linejoin:round; stroke-width:4; stroke-opacity:1; fill:none" points="2292.44,1423.18 2292.44,1404.28 "/>
<path clip-path="url(#clip580)" d="M259.336 1454.1 Q255.725 1454.1 253.896 1457.66 Q252.091 1461.2 252.091 1468.33 Q252.091 1475.44 253.896 1479.01 Q255.725 1482.55 259.336 1482.55 Q262.97 1482.55 264.776 1479.01 Q266.605 1475.44 266.605 1468.33 Q266.605 1461.2 264.776 1457.66 Q262.97 1454.1 259.336 1454.1 M259.336 1450.39 Q265.146 1450.39 268.202 1455 Q271.281 1459.58 271.281 1468.33 Q271.281 1477.06 268.202 1481.67 Q265.146 1486.25 259.336 1486.25 Q253.526 1486.25 250.447 1481.67 Q247.392 1477.06 247.392 1468.33 Q247.392 1459.58 250.447 1455 Q253.526 1450.39 259.336 1450.39 Z" fill="#000000" fill-rule="nonzero" fill-opacity="1" /><path clip-path="url(#clip580)" d="M279.498 1479.7 L284.382 1479.7 L284.382 1485.58 L279.498 1485.58 L279.498 1479.7 Z" fill="#000000" fill-rule="nonzero" fill-opacity="1" /><path clip-path="url(#clip580)" d="M304.567 1454.1 Q300.956 1454.1 299.128 1457.66 Q297.322 1461.2 297.322 1468.33 Q297.322 1475.44 299.128 1479.01 Q300.956 1482.55 304.567 1482.55 Q308.202 1482.55 310.007 1479.01 Q311.836 1475.44 311.836 1468.33 Q311.836 1461.2 310.007 1457.66 Q308.202 1454.1 304.567 1454.1 M304.567 1450.39 Q310.378 1450.39 313.433 1455 Q316.512 1459.58 316.512 1468.33 Q316.512 1477.06 313.433 1481.67 Q310.378 1486.25 304.567 1486.25 Q298.757 1486.25 295.679 1481.67 Q292.623 1477.06 292.623 1468.33 Q292.623 1459.58 295.679 1455 Q298.757 1450.39 304.567 1450.39 Z" fill="#000000" fill-rule="nonzero" fill-opacity="1" /><path clip-path="url(#clip580)" d="M756.31 1481.64 L772.63 1481.64 L772.63 1485.58 L750.685 1485.58 L750.685 1481.64 Q753.347 1478.89 757.931 1474.26 Q762.537 1469.61 763.718 1468.27 Q765.963 1465.74 766.843 1464.01 Q767.746 1462.25 767.746 1460.56 Q767.746 1457.8 765.801 1456.07 Q763.88 1454.33 760.778 1454.33 Q758.579 1454.33 756.125 1455.09 Q753.695 1455.86 750.917 1457.41 L750.917 1452.69 Q753.741 1451.55 756.195 1450.97 Q758.648 1450.39 760.685 1450.39 Q766.056 1450.39 769.25 1453.08 Q772.445 1455.77 772.445 1460.26 Q772.445 1462.39 771.634 1464.31 Q770.847 1466.2 768.741 1468.8 Q768.162 1469.47 765.06 1472.69 Q761.959 1475.88 756.31 1481.64 Z" fill="#000000" fill-rule="nonzero" fill-opacity="1" /><path clip-path="url(#clip580)" d="M782.445 1479.7 L787.329 1479.7 L787.329 1485.58 L782.445 1485.58 L782.445 1479.7 Z" fill="#000000" fill-rule="nonzero" fill-opacity="1" /><path clip-path="url(#clip580)" d="M797.56 1451.02 L815.917 1451.02 L815.917 1454.96 L801.843 1454.96 L801.843 1463.43 Q802.861 1463.08 803.88 1462.92 Q804.898 1462.73 805.917 1462.73 Q811.704 1462.73 815.083 1465.9 Q818.463 1469.08 818.463 1474.49 Q818.463 1480.07 814.991 1483.17 Q811.518 1486.25 805.199 1486.25 Q803.023 1486.25 800.755 1485.88 Q798.509 1485.51 796.102 1484.77 L796.102 1480.07 Q798.185 1481.2 800.407 1481.76 Q802.63 1482.32 805.106 1482.32 Q809.111 1482.32 811.449 1480.21 Q813.787 1478.1 813.787 1474.49 Q813.787 1470.88 811.449 1468.77 Q809.111 1466.67 805.106 1466.67 Q803.231 1466.67 801.356 1467.08 Q799.505 1467.5 797.56 1468.38 L797.56 1451.02 Z" fill="#000000" fill-rule="nonzero" fill-opacity="1" /><path clip-path="url(#clip580)" d="M1254.36 1451.02 L1272.72 1451.02 L1272.72 1454.96 L1258.64 1454.96 L1258.64 1463.43 Q1259.66 1463.08 1260.68 1462.92 Q1261.7 1462.73 1262.72 1462.73 Q1268.5 1462.73 1271.88 1465.9 Q1275.26 1469.08 1275.26 1474.49 Q1275.26 1480.07 1271.79 1483.17 Q1268.32 1486.25 1262 1486.25 Q1259.82 1486.25 1257.56 1485.88 Q1255.31 1485.51 1252.9 1484.77 L1252.9 1480.07 Q1254.99 1481.2 1257.21 1481.76 Q1259.43 1482.32 1261.91 1482.32 Q1265.91 1482.32 1268.25 1480.21 Q1270.59 1478.1 1270.59 1474.49 Q1270.59 1470.88 1268.25 1468.77 Q1265.91 1466.67 1261.91 1466.67 Q1260.03 1466.67 1258.16 1467.08 Q1256.31 1467.5 1254.36 1468.38 L1254.36 1451.02 Z" fill="#000000" fill-rule="nonzero" fill-opacity="1" /><path clip-path="url(#clip580)" d="M1284.48 1479.7 L1289.36 1479.7 L1289.36 1485.58 L1284.48 1485.58 L1284.48 1479.7 Z" fill="#000000" fill-rule="nonzero" fill-opacity="1" /><path clip-path="url(#clip580)" d="M1309.55 1454.1 Q1305.93 1454.1 1304.11 1457.66 Q1302.3 1461.2 1302.3 1468.33 Q1302.3 1475.44 1304.11 1479.01 Q1305.93 1482.55 1309.55 1482.55 Q1313.18 1482.55 1314.99 1479.01 Q1316.81 1475.44 1316.81 1468.33 Q1316.81 1461.2 1314.99 1457.66 Q1313.18 1454.1 1309.55 1454.1 M1309.55 1450.39 Q1315.36 1450.39 1318.41 1455 Q1321.49 1459.58 1321.49 1468.33 Q1321.49 1477.06 1318.41 1481.67 Q1315.36 1486.25 1309.55 1486.25 Q1303.74 1486.25 1300.66 1481.67 Q1297.6 1477.06 1297.6 1468.33 Q1297.6 1459.58 1300.66 1455 Q1303.74 1450.39 1309.55 1450.39 Z" fill="#000000" fill-rule="nonzero" fill-opacity="1" /><path clip-path="url(#clip580)" d="M1756.14 1451.02 L1778.36 1451.02 L1778.36 1453.01 L1765.81 1485.58 L1760.93 1485.58 L1772.74 1454.96 L1756.14 1454.96 L1756.14 1451.02 Z" fill="#000000" fill-rule="nonzero" fill-opacity="1" /><path clip-path="url(#clip580)" d="M1787.48 1479.7 L1792.37 1479.7 L1792.37 1485.58 L1787.48 1485.58 L1787.48 1479.7 Z" fill="#000000" fill-rule="nonzero" fill-opacity="1" /><path clip-path="url(#clip580)" d="M1802.6 1451.02 L1820.95 1451.02 L1820.95 1454.96 L1806.88 1454.96 L1806.88 1463.43 Q1807.9 1463.08 1808.92 1462.92 Q1809.93 1462.73 1810.95 1462.73 Q1816.74 1462.73 1820.12 1465.9 Q1823.5 1469.08 1823.5 1474.49 Q1823.5 1480.07 1820.03 1483.17 Q1816.55 1486.25 1810.24 1486.25 Q1808.06 1486.25 1805.79 1485.88 Q1803.55 1485.51 1801.14 1484.77 L1801.14 1480.07 Q1803.22 1481.2 1805.44 1481.76 Q1807.67 1482.32 1810.14 1482.32 Q1814.15 1482.32 1816.49 1480.21 Q1818.82 1478.1 1818.82 1474.49 Q1818.82 1470.88 1816.49 1468.77 Q1814.15 1466.67 1810.14 1466.67 Q1808.27 1466.67 1806.39 1467.08 Q1804.54 1467.5 1802.6 1468.38 L1802.6 1451.02 Z" fill="#000000" fill-rule="nonzero" fill-opacity="1" /><path clip-path="url(#clip580)" d="M2244.51 1481.64 L2252.15 1481.64 L2252.15 1455.28 L2243.84 1456.95 L2243.84 1452.69 L2252.11 1451.02 L2256.78 1451.02 L2256.78 1481.64 L2264.42 1481.64 L2264.42 1485.58 L2244.51 1485.58 L2244.51 1481.64 Z" fill="#000000" fill-rule="nonzero" fill-opacity="1" /><path clip-path="url(#clip580)" d="M2283.86 1454.1 Q2280.25 1454.1 2278.43 1457.66 Q2276.62 1461.2 2276.62 1468.33 Q2276.62 1475.44 2278.43 1479.01 Q2280.25 1482.55 2283.86 1482.55 Q2287.5 1482.55 2289.3 1479.01 Q2291.13 1475.44 2291.13 1468.33 Q2291.13 1461.2 2289.3 1457.66 Q2287.5 1454.1 2283.86 1454.1 M2283.86 1450.39 Q2289.68 1450.39 2292.73 1455 Q2295.81 1459.58 2295.81 1468.33 Q2295.81 1477.06 2292.73 1481.67 Q2289.68 1486.25 2283.86 1486.25 Q2278.05 1486.25 2274.98 1481.67 Q2271.92 1477.06 2271.92 1468.33 Q2271.92 1459.58 2274.98 1455 Q2278.05 1450.39 2283.86 1450.39 Z" fill="#000000" fill-rule="nonzero" fill-opacity="1" /><path clip-path="url(#clip580)" d="M2304.03 1479.7 L2308.91 1479.7 L2308.91 1485.58 L2304.03 1485.58 L2304.03 1479.7 Z" fill="#000000" fill-rule="nonzero" fill-opacity="1" /><path clip-path="url(#clip580)" d="M2329.1 1454.1 Q2325.49 1454.1 2323.66 1457.66 Q2321.85 1461.2 2321.85 1468.33 Q2321.85 1475.44 2323.66 1479.01 Q2325.49 1482.55 2329.1 1482.55 Q2332.73 1482.55 2334.54 1479.01 Q2336.36 1475.44 2336.36 1468.33 Q2336.36 1461.2 2334.54 1457.66 Q2332.73 1454.1 2329.1 1454.1 M2329.1 1450.39 Q2334.91 1450.39 2337.96 1455 Q2341.04 1459.58 2341.04 1468.33 Q2341.04 1477.06 2337.96 1481.67 Q2334.91 1486.25 2329.1 1486.25 Q2323.29 1486.25 2320.21 1481.67 Q2317.15 1477.06 2317.15 1468.33 Q2317.15 1459.58 2320.21 1455 Q2323.29 1450.39 2329.1 1450.39 Z" fill="#000000" fill-rule="nonzero" fill-opacity="1" /><path clip-path="url(#clip580)" d="M1127.26 1525.81 L1127.26 1543.66 L1135.34 1543.66 Q1139.83 1543.66 1142.28 1541.34 Q1144.73 1539.02 1144.73 1534.72 Q1144.73 1530.45 1142.28 1528.13 Q1139.83 1525.81 1135.34 1525.81 L1127.26 1525.81 M1120.83 1520.52 L1135.34 1520.52 Q1143.33 1520.52 1147.41 1524.15 Q1151.51 1527.75 1151.51 1534.72 Q1151.51 1541.75 1147.41 1545.35 Q1143.33 1548.95 1135.34 1548.95 L1127.26 1548.95 L1127.26 1568.04 L1120.83 1568.04 L1120.83 1520.52 Z" fill="#000000" fill-rule="nonzero" fill-opacity="1" /><path clip-path="url(#clip580)" d="M1173.15 1550.12 Q1166.06 1550.12 1163.32 1551.75 Q1160.58 1553.37 1160.58 1557.29 Q1160.58 1560.4 1162.62 1562.25 Q1164.69 1564.07 1168.22 1564.07 Q1173.09 1564.07 1176.02 1560.63 Q1178.98 1557.16 1178.98 1551.43 L1178.98 1550.12 L1173.15 1550.12 M1184.84 1547.71 L1184.84 1568.04 L1178.98 1568.04 L1178.98 1562.63 Q1176.97 1565.88 1173.98 1567.44 Q1170.99 1568.97 1166.66 1568.97 Q1161.19 1568.97 1157.94 1565.91 Q1154.73 1562.82 1154.73 1557.67 Q1154.73 1551.65 1158.74 1548.6 Q1162.78 1545.54 1170.77 1545.54 L1178.98 1545.54 L1178.98 1544.97 Q1178.98 1540.93 1176.31 1538.73 Q1173.66 1536.5 1168.86 1536.5 Q1165.8 1536.5 1162.91 1537.23 Q1160.01 1537.97 1157.34 1539.43 L1157.34 1534.02 Q1160.55 1532.78 1163.57 1532.17 Q1166.6 1531.54 1169.46 1531.54 Q1177.2 1531.54 1181.02 1535.55 Q1184.84 1539.56 1184.84 1547.71 Z" fill="#000000" fill-rule="nonzero" fill-opacity="1" /><path clip-path="url(#clip580)" d="M1217.56 1537.87 Q1216.57 1537.3 1215.39 1537.04 Q1214.25 1536.76 1212.85 1536.76 Q1207.88 1536.76 1205.21 1540 Q1202.56 1543.22 1202.56 1549.27 L1202.56 1568.04 L1196.68 1568.04 L1196.68 1532.4 L1202.56 1532.4 L1202.56 1537.93 Q1204.41 1534.69 1207.37 1533.13 Q1210.33 1531.54 1214.56 1531.54 Q1215.17 1531.54 1215.9 1531.63 Q1216.63 1531.7 1217.52 1531.85 L1217.56 1537.87 Z" fill="#000000" fill-rule="nonzero" fill-opacity="1" /><path clip-path="url(#clip580)" d="M1239.9 1550.12 Q1232.8 1550.12 1230.06 1551.75 Q1227.33 1553.37 1227.33 1557.29 Q1227.33 1560.4 1229.36 1562.25 Q1231.43 1564.07 1234.97 1564.07 Q1239.84 1564.07 1242.76 1560.63 Q1245.72 1557.16 1245.72 1551.43 L1245.72 1550.12 L1239.9 1550.12 M1251.58 1547.71 L1251.58 1568.04 L1245.72 1568.04 L1245.72 1562.63 Q1243.72 1565.88 1240.73 1567.44 Q1237.73 1568.97 1233.41 1568.97 Q1227.93 1568.97 1224.69 1565.91 Q1221.47 1562.82 1221.47 1557.67 Q1221.47 1551.65 1225.48 1548.6 Q1229.52 1545.54 1237.51 1545.54 L1245.72 1545.54 L1245.72 1544.97 Q1245.72 1540.93 1243.05 1538.73 Q1240.41 1536.5 1235.6 1536.5 Q1232.55 1536.5 1229.65 1537.23 Q1226.75 1537.97 1224.08 1539.43 L1224.08 1534.02 Q1227.3 1532.78 1230.32 1532.17 Q1233.34 1531.54 1236.21 1531.54 Q1243.94 1531.54 1247.76 1535.55 Q1251.58 1539.56 1251.58 1547.71 Z" fill="#000000" fill-rule="nonzero" fill-opacity="1" /><path clip-path="url(#clip580)" d="M1291.4 1539.24 Q1293.59 1535.29 1296.65 1533.41 Q1299.71 1531.54 1303.84 1531.54 Q1309.41 1531.54 1312.44 1535.45 Q1315.46 1539.33 1315.46 1546.53 L1315.46 1568.04 L1309.57 1568.04 L1309.57 1546.72 Q1309.57 1541.59 1307.76 1539.11 Q1305.94 1536.63 1302.22 1536.63 Q1297.67 1536.63 1295.03 1539.65 Q1292.38 1542.68 1292.38 1547.9 L1292.38 1568.04 L1286.5 1568.04 L1286.5 1546.72 Q1286.5 1541.56 1284.68 1539.11 Q1282.87 1536.63 1279.08 1536.63 Q1274.59 1536.63 1271.95 1539.68 Q1269.31 1542.71 1269.31 1547.9 L1269.31 1568.04 L1263.42 1568.04 L1263.42 1532.4 L1269.31 1532.4 L1269.31 1537.93 Q1271.31 1534.66 1274.11 1533.1 Q1276.92 1531.54 1280.77 1531.54 Q1284.65 1531.54 1287.36 1533.51 Q1290.09 1535.48 1291.4 1539.24 Z" fill="#000000" fill-rule="nonzero" fill-opacity="1" /><path clip-path="url(#clip580)" d="M1357.63 1548.76 L1357.63 1551.62 L1330.71 1551.62 Q1331.09 1557.67 1334.33 1560.85 Q1337.61 1564 1343.44 1564 Q1346.81 1564 1349.96 1563.17 Q1353.15 1562.35 1356.26 1560.69 L1356.26 1566.23 Q1353.11 1567.57 1349.8 1568.27 Q1346.49 1568.97 1343.09 1568.97 Q1334.56 1568.97 1329.56 1564 Q1324.6 1559.04 1324.6 1550.57 Q1324.6 1541.82 1329.31 1536.69 Q1334.05 1531.54 1342.07 1531.54 Q1349.26 1531.54 1353.43 1536.18 Q1357.63 1540.8 1357.63 1548.76 M1351.78 1547.04 Q1351.71 1542.23 1349.07 1539.37 Q1346.46 1536.5 1342.13 1536.5 Q1337.23 1536.5 1334.27 1539.27 Q1331.34 1542.04 1330.9 1547.07 L1351.78 1547.04 Z" fill="#000000" fill-rule="nonzero" fill-opacity="1" /><path clip-path="url(#clip580)" d="M1373.04 1522.27 L1373.04 1532.4 L1385.1 1532.4 L1385.1 1536.95 L1373.04 1536.95 L1373.04 1556.3 Q1373.04 1560.66 1374.22 1561.9 Q1375.43 1563.14 1379.09 1563.14 L1385.1 1563.14 L1385.1 1568.04 L1379.09 1568.04 Q1372.31 1568.04 1369.73 1565.53 Q1367.15 1562.98 1367.15 1556.3 L1367.15 1536.95 L1362.85 1536.95 L1362.85 1532.4 L1367.15 1532.4 L1367.15 1522.27 L1373.04 1522.27 Z" fill="#000000" fill-rule="nonzero" fill-opacity="1" /><path clip-path="url(#clip580)" d="M1423.3 1548.76 L1423.3 1551.62 L1396.37 1551.62 Q1396.75 1557.67 1400 1560.85 Q1403.28 1564 1409.1 1564 Q1412.47 1564 1415.62 1563.17 Q1418.81 1562.35 1421.93 1560.69 L1421.93 1566.23 Q1418.78 1567.57 1415.47 1568.27 Q1412.16 1568.97 1408.75 1568.97 Q1400.22 1568.97 1395.22 1564 Q1390.26 1559.04 1390.26 1550.57 Q1390.26 1541.82 1394.97 1536.69 Q1399.71 1531.54 1407.73 1531.54 Q1414.92 1531.54 1419.09 1536.18 Q1423.3 1540.8 1423.3 1548.76 M1417.44 1547.04 Q1417.38 1542.23 1414.73 1539.37 Q1412.12 1536.5 1407.79 1536.5 Q1402.89 1536.5 1399.93 1539.27 Q1397 1542.04 1396.56 1547.07 L1417.44 1547.04 Z" fill="#000000" fill-rule="nonzero" fill-opacity="1" /><path clip-path="url(#clip580)" d="M1453.56 1537.87 Q1452.58 1537.3 1451.4 1537.04 Q1450.25 1536.76 1448.85 1536.76 Q1443.89 1536.76 1441.21 1540 Q1438.57 1543.22 1438.57 1549.27 L1438.57 1568.04 L1432.68 1568.04 L1432.68 1532.4 L1438.57 1532.4 L1438.57 1537.93 Q1440.42 1534.69 1443.38 1533.13 Q1446.34 1531.54 1450.57 1531.54 Q1451.18 1531.54 1451.91 1531.63 Q1452.64 1531.7 1453.53 1531.85 L1453.56 1537.87 Z" fill="#000000" fill-rule="nonzero" fill-opacity="1" /><polyline clip-path="url(#clip582)" style="stroke:#000000; stroke-linecap:round; stroke-linejoin:round; stroke-width:2; stroke-opacity:0.1; fill:none" points="221.637,1110.92 2352.76,1110.92 "/>
<polyline clip-path="url(#clip582)" style="stroke:#000000; stroke-linecap:round; stroke-linejoin:round; stroke-width:2; stroke-opacity:0.1; fill:none" points="221.637,504.676 2352.76,504.676 "/>
<polyline clip-path="url(#clip580)" style="stroke:#000000; stroke-linecap:round; stroke-linejoin:round; stroke-width:4; stroke-opacity:1; fill:none" points="221.637,1423.18 221.637,123.472 "/>
<polyline clip-path="url(#clip580)" style="stroke:#000000; stroke-linecap:round; stroke-linejoin:round; stroke-width:4; stroke-opacity:1; fill:none" points="221.637,1110.92 240.535,1110.92 "/>
<polyline clip-path="url(#clip580)" style="stroke:#000000; stroke-linecap:round; stroke-linejoin:round; stroke-width:4; stroke-opacity:1; fill:none" points="221.637,504.676 240.535,504.676 "/>
<path clip-path="url(#clip580)" d="M114.931 1130.71 L122.57 1130.71 L122.57 1104.35 L114.26 1106.02 L114.26 1101.76 L122.524 1100.09 L127.2 1100.09 L127.2 1130.71 L134.839 1130.71 L134.839 1134.65 L114.931 1134.65 L114.931 1130.71 Z" fill="#000000" fill-rule="nonzero" fill-opacity="1" /><path clip-path="url(#clip580)" d="M154.283 1103.17 Q150.672 1103.17 148.843 1106.73 Q147.038 1110.28 147.038 1117.4 Q147.038 1124.51 148.843 1128.08 Q150.672 1131.62 154.283 1131.62 Q157.917 1131.62 159.723 1128.08 Q161.552 1124.51 161.552 1117.4 Q161.552 1110.28 159.723 1106.73 Q157.917 1103.17 154.283 1103.17 M154.283 1099.46 Q160.093 1099.46 163.149 1104.07 Q166.227 1108.65 166.227 1117.4 Q166.227 1126.13 163.149 1130.74 Q160.093 1135.32 154.283 1135.32 Q148.473 1135.32 145.394 1130.74 Q142.339 1126.13 142.339 1117.4 Q142.339 1108.65 145.394 1104.07 Q148.473 1099.46 154.283 1099.46 Z" fill="#000000" fill-rule="nonzero" fill-opacity="1" /><path clip-path="url(#clip580)" d="M175.932 1081.66 Q172.998 1081.66 171.512 1084.56 Q170.045 1087.43 170.045 1093.23 Q170.045 1099 171.512 1101.9 Q172.998 1104.78 175.932 1104.78 Q178.885 1104.78 180.352 1101.9 Q181.838 1099 181.838 1093.23 Q181.838 1087.43 180.352 1084.56 Q178.885 1081.66 175.932 1081.66 M175.932 1078.65 Q180.653 1078.65 183.136 1082.39 Q185.637 1086.12 185.637 1093.23 Q185.637 1100.32 183.136 1104.06 Q180.653 1107.78 175.932 1107.78 Q171.212 1107.78 168.71 1104.06 Q166.227 1100.32 166.227 1093.23 Q166.227 1086.12 168.71 1082.39 Q171.212 1078.65 175.932 1078.65 Z" fill="#000000" fill-rule="nonzero" fill-opacity="1" /><path clip-path="url(#clip580)" d="M115.853 524.469 L123.492 524.469 L123.492 498.103 L115.182 499.77 L115.182 495.51 L123.446 493.844 L128.121 493.844 L128.121 524.469 L135.76 524.469 L135.76 528.404 L115.853 528.404 L115.853 524.469 Z" fill="#000000" fill-rule="nonzero" fill-opacity="1" /><path clip-path="url(#clip580)" d="M155.205 496.922 Q151.594 496.922 149.765 500.487 Q147.959 504.029 147.959 511.158 Q147.959 518.265 149.765 521.83 Q151.594 525.371 155.205 525.371 Q158.839 525.371 160.644 521.83 Q162.473 518.265 162.473 511.158 Q162.473 504.029 160.644 500.487 Q158.839 496.922 155.205 496.922 M155.205 493.219 Q161.015 493.219 164.07 497.825 Q167.149 502.408 167.149 511.158 Q167.149 519.885 164.07 524.492 Q161.015 529.075 155.205 529.075 Q149.395 529.075 146.316 524.492 Q143.26 519.885 143.26 511.158 Q143.26 502.408 146.316 497.825 Q149.395 493.219 155.205 493.219 Z" fill="#000000" fill-rule="nonzero" fill-opacity="1" /><path clip-path="url(#clip580)" d="M179.844 485.853 Q182.571 486.436 184.095 488.279 Q185.637 490.122 185.637 492.831 Q185.637 496.987 182.778 499.263 Q179.92 501.539 174.653 501.539 Q172.885 501.539 171.005 501.181 Q169.143 500.843 167.149 500.147 L167.149 496.479 Q168.729 497.401 170.61 497.871 Q172.49 498.341 174.541 498.341 Q178.114 498.341 179.976 496.931 Q181.857 495.52 181.857 492.831 Q181.857 490.348 180.108 488.956 Q178.377 487.546 175.274 487.546 L172.001 487.546 L172.001 484.424 L175.424 484.424 Q178.227 484.424 179.713 483.314 Q181.198 482.185 181.198 480.079 Q181.198 477.916 179.656 476.769 Q178.133 475.603 175.274 475.603 Q173.713 475.603 171.926 475.941 Q170.139 476.28 167.995 476.995 L167.995 473.609 Q170.158 473.007 172.039 472.706 Q173.939 472.405 175.613 472.405 Q179.938 472.405 182.459 474.38 Q184.979 476.336 184.979 479.684 Q184.979 482.016 183.643 483.634 Q182.308 485.232 179.844 485.853 Z" fill="#000000" fill-rule="nonzero" fill-opacity="1" /><path clip-path="url(#clip580)" d="M20.1444 804.852 L26.9239 804.852 Q23.9002 808.099 22.4043 811.791 Q20.9083 815.451 20.9083 819.589 Q20.9083 827.737 25.9054 832.066 Q30.8707 836.394 40.2919 836.394 Q49.6813 836.394 54.6784 832.066 Q59.6436 827.737 59.6436 819.589 Q59.6436 815.451 58.1477 811.791 Q56.6518 808.099 53.6281 804.852 L60.3439 804.852 Q62.6355 808.226 63.7814 812.014 Q64.9272 815.769 64.9272 819.971 Q64.9272 830.761 58.3387 836.967 Q51.7183 843.174 40.2919 843.174 Q28.8336 843.174 22.2451 836.967 Q15.6248 830.761 15.6248 819.971 Q15.6248 815.706 16.7706 811.95 Q17.8846 808.162 20.1444 804.852 Z" fill="#000000" fill-rule="nonzero" fill-opacity="1" /><path clip-path="url(#clip580)" d="M32.4621 781.363 Q32.4621 786.073 36.1542 788.811 Q39.8145 791.548 46.212 791.548 Q52.6095 791.548 56.3017 788.842 Q59.9619 786.105 59.9619 781.363 Q59.9619 776.684 56.2698 773.947 Q52.5777 771.209 46.212 771.209 Q39.8781 771.209 36.186 773.947 Q32.4621 776.684 32.4621 781.363 M27.4968 781.363 Q27.4968 773.724 32.4621 769.363 Q37.4273 765.003 46.212 765.003 Q54.9649 765.003 59.9619 769.363 Q64.9272 773.724 64.9272 781.363 Q64.9272 789.033 59.9619 793.394 Q54.9649 797.723 46.212 797.723 Q37.4273 797.723 32.4621 793.394 Q27.4968 789.033 27.4968 781.363 Z" fill="#000000" fill-rule="nonzero" fill-opacity="1" /><path clip-path="url(#clip580)" d="M29.4065 732.57 L34.9447 732.57 Q33.6716 735.052 33.035 737.726 Q32.3984 740.399 32.3984 743.264 Q32.3984 747.624 33.7352 749.821 Q35.072 751.985 37.7456 751.985 Q39.7826 751.985 40.9603 750.425 Q42.1061 748.866 43.1565 744.155 L43.6021 742.15 Q44.9389 735.912 47.3897 733.302 Q49.8086 730.66 54.1691 730.66 Q59.1344 730.66 62.0308 734.607 Q64.9272 738.521 64.9272 745.396 Q64.9272 748.261 64.3543 751.38 Q63.8132 754.468 62.6992 757.905 L56.6518 757.905 Q58.3387 754.659 59.198 751.508 Q60.0256 748.356 60.0256 745.269 Q60.0256 741.131 58.6251 738.903 Q57.1929 736.675 54.6147 736.675 Q52.2276 736.675 50.9545 738.299 Q49.6813 739.89 48.5037 745.333 L48.0262 747.37 Q46.8804 752.812 44.5251 755.231 Q42.138 757.65 38.0002 757.65 Q32.9713 757.65 30.2341 754.086 Q27.4968 750.521 27.4968 743.964 Q27.4968 740.718 27.9743 737.853 Q28.4517 734.989 29.4065 732.57 Z" fill="#000000" fill-rule="nonzero" fill-opacity="1" /><path clip-path="url(#clip580)" d="M18.2347 715.541 L28.3562 715.541 L28.3562 703.478 L32.9077 703.478 L32.9077 715.541 L52.2594 715.541 Q56.6199 715.541 57.8613 714.364 Q59.1026 713.154 59.1026 709.494 L59.1026 703.478 L64.0042 703.478 L64.0042 709.494 Q64.0042 716.273 61.4897 718.851 Q58.9434 721.43 52.2594 721.43 L32.9077 721.43 L32.9077 725.726 L28.3562 725.726 L28.3562 721.43 L18.2347 721.43 L18.2347 715.541 Z" fill="#000000" fill-rule="nonzero" fill-opacity="1" /><path clip-path="url(#clip580)" d="M744.254 65.6895 L757.622 65.6895 L757.622 19.5497 L743.079 22.4663 L743.079 15.0127 L757.541 12.096 L765.724 12.096 L765.724 65.6895 L779.092 65.6895 L779.092 72.576 L744.254 72.576 L744.254 65.6895 Z" fill="#000000" fill-rule="nonzero" fill-opacity="1" /><path clip-path="url(#clip580)" d="M790.799 46.5287 L812.633 46.5287 L812.633 53.1722 L790.799 53.1722 L790.799 46.5287 Z" fill="#000000" fill-rule="nonzero" fill-opacity="1" /><path clip-path="url(#clip580)" d="M833.009 18.8205 L833.009 41.5461 L843.298 41.5461 Q849.01 41.5461 852.129 38.5889 Q855.249 35.6318 855.249 30.163 Q855.249 24.7348 852.129 21.7777 Q849.01 18.8205 843.298 18.8205 L833.009 18.8205 M824.826 12.096 L843.298 12.096 Q853.466 12.096 858.651 16.714 Q863.877 21.2916 863.877 30.163 Q863.877 39.1155 858.651 43.6931 Q853.466 48.2706 843.298 48.2706 L833.009 48.2706 L833.009 72.576 L824.826 72.576 L824.826 12.096 Z" fill="#000000" fill-rule="nonzero" fill-opacity="1" /><path clip-path="url(#clip580)" d="M891.423 49.7694 Q882.39 49.7694 878.906 51.8354 Q875.422 53.9013 875.422 58.8839 Q875.422 62.8538 878.015 65.2034 Q880.648 67.5124 885.144 67.5124 Q891.342 67.5124 895.069 63.1374 Q898.836 58.7219 898.836 51.4303 L898.836 49.7694 L891.423 49.7694 M906.29 46.6907 L906.29 72.576 L898.836 72.576 L898.836 65.6895 Q896.284 69.8214 892.476 71.8063 Q888.669 73.7508 883.159 73.7508 Q876.192 73.7508 872.06 69.8619 Q867.968 65.9325 867.968 59.3701 Q867.968 51.7138 873.073 47.825 Q878.217 43.9361 888.385 43.9361 L898.836 43.9361 L898.836 43.2069 Q898.836 38.0623 895.434 35.2672 Q892.071 32.4315 885.954 32.4315 Q882.066 32.4315 878.379 33.3632 Q874.693 34.295 871.29 36.1584 L871.29 29.2718 Q875.382 27.692 879.23 26.9223 Q883.078 26.1121 886.724 26.1121 Q896.568 26.1121 901.429 31.2163 Q906.29 36.3204 906.29 46.6907 Z" fill="#000000" fill-rule="nonzero" fill-opacity="1" /><path clip-path="url(#clip580)" d="M947.933 34.1734 Q946.677 33.4443 945.179 33.1202 Q943.72 32.7556 941.938 32.7556 Q935.619 32.7556 932.216 36.8875 Q928.854 40.9789 928.854 48.6757 L928.854 72.576 L921.359 72.576 L921.359 27.2059 L928.854 27.2059 L928.854 34.2544 Q931.203 30.1225 934.97 28.1376 Q938.738 26.1121 944.125 26.1121 Q944.895 26.1121 945.827 26.2337 Q946.759 26.3147 947.893 26.5172 L947.933 34.1734 Z" fill="#000000" fill-rule="nonzero" fill-opacity="1" /><path clip-path="url(#clip580)" d="M976.371 49.7694 Q967.337 49.7694 963.853 51.8354 Q960.37 53.9013 960.37 58.8839 Q960.37 62.8538 962.962 65.2034 Q965.595 67.5124 970.092 67.5124 Q976.29 67.5124 980.016 63.1374 Q983.784 58.7219 983.784 51.4303 L983.784 49.7694 L976.371 49.7694 M991.237 46.6907 L991.237 72.576 L983.784 72.576 L983.784 65.6895 Q981.232 69.8214 977.424 71.8063 Q973.616 73.7508 968.107 73.7508 Q961.139 73.7508 957.007 69.8619 Q952.916 65.9325 952.916 59.3701 Q952.916 51.7138 958.02 47.825 Q963.165 43.9361 973.332 43.9361 L983.784 43.9361 L983.784 43.2069 Q983.784 38.0623 980.381 35.2672 Q977.019 32.4315 970.902 32.4315 Q967.013 32.4315 963.327 33.3632 Q959.64 34.295 956.238 36.1584 L956.238 29.2718 Q960.329 27.692 964.177 26.9223 Q968.026 26.1121 971.672 26.1121 Q981.515 26.1121 986.376 31.2163 Q991.237 36.3204 991.237 46.6907 Z" fill="#000000" fill-rule="nonzero" fill-opacity="1" /><path clip-path="url(#clip580)" d="M1041.91 35.9153 Q1044.71 30.8922 1048.6 28.5022 Q1052.49 26.1121 1057.75 26.1121 Q1064.84 26.1121 1068.69 31.0947 Q1072.54 36.0368 1072.54 45.1919 L1072.54 72.576 L1065.04 72.576 L1065.04 45.4349 Q1065.04 38.913 1062.74 35.7533 Q1060.43 32.5936 1055.69 32.5936 Q1049.89 32.5936 1046.53 36.4419 Q1043.17 40.2903 1043.17 46.9338 L1043.17 72.576 L1035.68 72.576 L1035.68 45.4349 Q1035.68 38.8725 1033.37 35.7533 Q1031.06 32.5936 1026.24 32.5936 Q1020.53 32.5936 1017.16 36.4824 Q1013.8 40.3308 1013.8 46.9338 L1013.8 72.576 L1006.31 72.576 L1006.31 27.2059 L1013.8 27.2059 L1013.8 34.2544 Q1016.35 30.082 1019.92 28.0971 Q1023.48 26.1121 1028.38 26.1121 Q1033.33 26.1121 1036.77 28.6237 Q1040.25 31.1352 1041.91 35.9153 Z" fill="#000000" fill-rule="nonzero" fill-opacity="1" /><path clip-path="url(#clip580)" d="M1126.21 48.0275 L1126.21 51.6733 L1091.94 51.6733 Q1092.43 59.3701 1096.56 63.421 Q1100.73 67.4314 1108.15 67.4314 Q1112.44 67.4314 1116.45 66.3781 Q1120.5 65.3249 1124.47 63.2184 L1124.47 70.267 Q1120.46 71.9684 1116.25 72.8596 Q1112.04 73.7508 1107.7 73.7508 Q1096.84 73.7508 1090.48 67.4314 Q1084.17 61.1119 1084.17 50.3365 Q1084.17 39.1965 1090.16 32.6746 Q1096.2 26.1121 1106.4 26.1121 Q1115.56 26.1121 1120.87 32.0264 Q1126.21 37.9003 1126.21 48.0275 M1118.76 45.84 Q1118.68 39.7232 1115.32 36.0774 Q1111.99 32.4315 1106.49 32.4315 Q1100.25 32.4315 1096.48 35.9558 Q1092.75 39.4801 1092.19 45.8805 L1118.76 45.84 Z" fill="#000000" fill-rule="nonzero" fill-opacity="1" /><path clip-path="url(#clip580)" d="M1145.82 14.324 L1145.82 27.2059 L1161.17 27.2059 L1161.17 32.9987 L1145.82 32.9987 L1145.82 57.6282 Q1145.82 63.1779 1147.32 64.7578 Q1148.86 66.3376 1153.52 66.3376 L1161.17 66.3376 L1161.17 72.576 L1153.52 72.576 Q1144.89 72.576 1141.61 69.3758 Q1138.33 66.1351 1138.33 57.6282 L1138.33 32.9987 L1132.86 32.9987 L1132.86 27.2059 L1138.33 27.2059 L1138.33 14.324 L1145.82 14.324 Z" fill="#000000" fill-rule="nonzero" fill-opacity="1" /><path clip-path="url(#clip580)" d="M1209.78 48.0275 L1209.78 51.6733 L1175.51 51.6733 Q1176 59.3701 1180.13 63.421 Q1184.3 67.4314 1191.72 67.4314 Q1196.01 67.4314 1200.02 66.3781 Q1204.07 65.3249 1208.04 63.2184 L1208.04 70.267 Q1204.03 71.9684 1199.82 72.8596 Q1195.61 73.7508 1191.27 73.7508 Q1180.41 73.7508 1174.05 67.4314 Q1167.74 61.1119 1167.74 50.3365 Q1167.74 39.1965 1173.73 32.6746 Q1179.77 26.1121 1189.97 26.1121 Q1199.13 26.1121 1204.44 32.0264 Q1209.78 37.9003 1209.78 48.0275 M1202.33 45.84 Q1202.25 39.7232 1198.89 36.0774 Q1195.57 32.4315 1190.06 32.4315 Q1183.82 32.4315 1180.05 35.9558 Q1176.32 39.4801 1175.76 45.8805 L1202.33 45.84 Z" fill="#000000" fill-rule="nonzero" fill-opacity="1" /><path clip-path="url(#clip580)" d="M1248.31 34.1734 Q1247.05 33.4443 1245.55 33.1202 Q1244.09 32.7556 1242.31 32.7556 Q1235.99 32.7556 1232.59 36.8875 Q1229.23 40.9789 1229.23 48.6757 L1229.23 72.576 L1221.73 72.576 L1221.73 27.2059 L1229.23 27.2059 L1229.23 34.2544 Q1231.58 30.1225 1235.34 28.1376 Q1239.11 26.1121 1244.5 26.1121 Q1245.27 26.1121 1246.2 26.2337 Q1247.13 26.3147 1248.27 26.5172 L1248.31 34.1734 Z" fill="#000000" fill-rule="nonzero" fill-opacity="1" /><path clip-path="url(#clip580)" d="M1328.11 16.7545 L1328.11 25.383 Q1323.98 21.5346 1319.28 19.6307 Q1314.62 17.7268 1309.35 17.7268 Q1298.98 17.7268 1293.48 24.0867 Q1287.97 30.4061 1287.97 42.3968 Q1287.97 54.3469 1293.48 60.7069 Q1298.98 67.0263 1309.35 67.0263 Q1314.62 67.0263 1319.28 65.1223 Q1323.98 63.2184 1328.11 59.3701 L1328.11 67.9175 Q1323.82 70.8341 1319 72.2924 Q1314.22 73.7508 1308.87 73.7508 Q1295.14 73.7508 1287.24 65.3654 Q1279.34 56.9395 1279.34 42.3968 Q1279.34 27.8135 1287.24 19.4281 Q1295.14 11.0023 1308.87 11.0023 Q1314.3 11.0023 1319.08 12.4606 Q1323.9 13.8784 1328.11 16.7545 Z" fill="#000000" fill-rule="nonzero" fill-opacity="1" /><path clip-path="url(#clip580)" d="M1358.01 32.4315 Q1352.01 32.4315 1348.53 37.1306 Q1345.04 41.7891 1345.04 49.9314 Q1345.04 58.0738 1348.49 62.7728 Q1351.97 67.4314 1358.01 67.4314 Q1363.96 67.4314 1367.44 62.7323 Q1370.93 58.0333 1370.93 49.9314 Q1370.93 41.8701 1367.44 37.1711 Q1363.96 32.4315 1358.01 32.4315 M1358.01 26.1121 Q1367.73 26.1121 1373.28 32.4315 Q1378.83 38.7509 1378.83 49.9314 Q1378.83 61.0714 1373.28 67.4314 Q1367.73 73.7508 1358.01 73.7508 Q1348.24 73.7508 1342.69 67.4314 Q1337.18 61.0714 1337.18 49.9314 Q1337.18 38.7509 1342.69 32.4315 Q1348.24 26.1121 1358.01 26.1121 Z" fill="#000000" fill-rule="nonzero" fill-opacity="1" /><path clip-path="url(#clip580)" d="M1420.11 28.5427 L1420.11 35.5912 Q1416.95 33.9709 1413.54 33.1607 Q1410.14 32.3505 1406.5 32.3505 Q1400.95 32.3505 1398.15 34.0519 Q1395.4 35.7533 1395.4 39.156 Q1395.4 41.7486 1397.38 43.2475 Q1399.37 44.7058 1405.36 46.0426 L1407.91 46.6097 Q1415.85 48.3111 1419.17 51.4303 Q1422.54 54.509 1422.54 60.0587 Q1422.54 66.3781 1417.51 70.0644 Q1412.53 73.7508 1403.78 73.7508 Q1400.14 73.7508 1396.17 73.0216 Q1392.24 72.3329 1387.86 70.9151 L1387.86 63.2184 Q1391.99 65.3654 1396 66.4591 Q1400.01 67.5124 1403.94 67.5124 Q1409.21 67.5124 1412.05 65.73 Q1414.88 63.9071 1414.88 60.6258 Q1414.88 57.5877 1412.82 55.9673 Q1410.79 54.3469 1403.86 52.8481 L1401.27 52.2405 Q1394.34 50.7821 1391.26 47.7845 Q1388.19 44.7463 1388.19 39.4801 Q1388.19 33.0797 1392.72 29.5959 Q1397.26 26.1121 1405.6 26.1121 Q1409.74 26.1121 1413.38 26.7198 Q1417.03 27.3274 1420.11 28.5427 Z" fill="#000000" fill-rule="nonzero" fill-opacity="1" /><path clip-path="url(#clip580)" d="M1441.78 14.324 L1441.78 27.2059 L1457.13 27.2059 L1457.13 32.9987 L1441.78 32.9987 L1441.78 57.6282 Q1441.78 63.1779 1443.28 64.7578 Q1444.82 66.3376 1449.48 66.3376 L1457.13 66.3376 L1457.13 72.576 L1449.48 72.576 Q1440.85 72.576 1437.57 69.3758 Q1434.28 66.1351 1434.28 57.6282 L1434.28 32.9987 L1428.82 32.9987 L1428.82 27.2059 L1434.28 27.2059 L1434.28 14.324 L1441.78 14.324 Z" fill="#000000" fill-rule="nonzero" fill-opacity="1" /><path clip-path="url(#clip580)" d="M1493.63 12.096 L1528.39 12.096 L1528.39 18.9825 L1501.81 18.9825 L1501.81 36.8065 L1525.79 36.8065 L1525.79 43.6931 L1501.81 43.6931 L1501.81 72.576 L1493.63 72.576 L1493.63 12.096 Z" fill="#000000" fill-rule="nonzero" fill-opacity="1" /><path clip-path="url(#clip580)" d="M1535.72 54.671 L1535.72 27.2059 L1543.17 27.2059 L1543.17 54.3874 Q1543.17 60.8284 1545.68 64.0691 Q1548.2 67.2693 1553.22 67.2693 Q1559.26 67.2693 1562.74 63.421 Q1566.26 59.5726 1566.26 52.9291 L1566.26 27.2059 L1573.72 27.2059 L1573.72 72.576 L1566.26 72.576 L1566.26 65.6084 Q1563.55 69.7404 1559.94 71.7658 Q1556.38 73.7508 1551.64 73.7508 Q1543.82 73.7508 1539.77 68.8897 Q1535.72 64.0286 1535.72 54.671 M1554.48 26.1121 L1554.48 26.1121 Z" fill="#000000" fill-rule="nonzero" fill-opacity="1" /><path clip-path="url(#clip580)" d="M1626.78 45.1919 L1626.78 72.576 L1619.33 72.576 L1619.33 45.4349 Q1619.33 38.994 1616.82 35.7938 Q1614.31 32.5936 1609.28 32.5936 Q1603.25 32.5936 1599.76 36.4419 Q1596.28 40.2903 1596.28 46.9338 L1596.28 72.576 L1588.79 72.576 L1588.79 27.2059 L1596.28 27.2059 L1596.28 34.2544 Q1598.95 30.163 1602.56 28.1376 Q1606.21 26.1121 1610.94 26.1121 Q1618.76 26.1121 1622.77 30.9732 Q1626.78 35.7938 1626.78 45.1919 Z" fill="#000000" fill-rule="nonzero" fill-opacity="1" /><path clip-path="url(#clip580)" d="M1674.3 28.9478 L1674.3 35.9153 Q1671.14 34.1734 1667.94 33.3227 Q1664.78 32.4315 1661.54 32.4315 Q1654.29 32.4315 1650.28 37.0496 Q1646.27 41.6271 1646.27 49.9314 Q1646.27 58.2358 1650.28 62.8538 Q1654.29 67.4314 1661.54 67.4314 Q1664.78 67.4314 1667.94 66.5807 Q1671.14 65.6895 1674.3 63.9476 L1674.3 70.8341 Q1671.18 72.2924 1667.82 73.0216 Q1664.5 73.7508 1660.73 73.7508 Q1650.48 73.7508 1644.45 67.3098 Q1638.41 60.8689 1638.41 49.9314 Q1638.41 38.832 1644.49 32.472 Q1650.6 26.1121 1661.22 26.1121 Q1664.66 26.1121 1667.94 26.8413 Q1671.22 27.5299 1674.3 28.9478 Z" fill="#000000" fill-rule="nonzero" fill-opacity="1" /><path clip-path="url(#clip580)" d="M1694.64 14.324 L1694.64 27.2059 L1709.99 27.2059 L1709.99 32.9987 L1694.64 32.9987 L1694.64 57.6282 Q1694.64 63.1779 1696.14 64.7578 Q1697.67 66.3376 1702.33 66.3376 L1709.99 66.3376 L1709.99 72.576 L1702.33 72.576 Q1693.7 72.576 1690.42 69.3758 Q1687.14 66.1351 1687.14 57.6282 L1687.14 32.9987 L1681.67 32.9987 L1681.67 27.2059 L1687.14 27.2059 L1687.14 14.324 L1694.64 14.324 Z" fill="#000000" fill-rule="nonzero" fill-opacity="1" /><path clip-path="url(#clip580)" d="M1719.79 27.2059 L1727.25 27.2059 L1727.25 72.576 L1719.79 72.576 L1719.79 27.2059 M1719.79 9.54393 L1727.25 9.54393 L1727.25 18.9825 L1719.79 18.9825 L1719.79 9.54393 Z" fill="#000000" fill-rule="nonzero" fill-opacity="1" /><path clip-path="url(#clip580)" d="M1760.42 32.4315 Q1754.43 32.4315 1750.94 37.1306 Q1747.46 41.7891 1747.46 49.9314 Q1747.46 58.0738 1750.9 62.7728 Q1754.39 67.4314 1760.42 67.4314 Q1766.38 67.4314 1769.86 62.7323 Q1773.35 58.0333 1773.35 49.9314 Q1773.35 41.8701 1769.86 37.1711 Q1766.38 32.4315 1760.42 32.4315 M1760.42 26.1121 Q1770.15 26.1121 1775.7 32.4315 Q1781.24 38.7509 1781.24 49.9314 Q1781.24 61.0714 1775.7 67.4314 Q1770.15 73.7508 1760.42 73.7508 Q1750.66 73.7508 1745.11 67.4314 Q1739.6 61.0714 1739.6 49.9314 Q1739.6 38.7509 1745.11 32.4315 Q1750.66 26.1121 1760.42 26.1121 Z" fill="#000000" fill-rule="nonzero" fill-opacity="1" /><path clip-path="url(#clip580)" d="M1831.31 45.1919 L1831.31 72.576 L1823.86 72.576 L1823.86 45.4349 Q1823.86 38.994 1821.35 35.7938 Q1818.84 32.5936 1813.81 32.5936 Q1807.78 32.5936 1804.29 36.4419 Q1800.81 40.2903 1800.81 46.9338 L1800.81 72.576 L1793.32 72.576 L1793.32 27.2059 L1800.81 27.2059 L1800.81 34.2544 Q1803.48 30.163 1807.09 28.1376 Q1810.74 26.1121 1815.47 26.1121 Q1823.29 26.1121 1827.3 30.9732 Q1831.31 35.7938 1831.31 45.1919 Z" fill="#000000" fill-rule="nonzero" fill-opacity="1" /><polyline clip-path="url(#clip582)" style="stroke:#009af9; stroke-linecap:round; stroke-linejoin:round; stroke-width:12; stroke-opacity:1; fill:none" points="281.952,416.765 302.057,429.197 322.162,440.052 342.266,451.067 362.371,419.092 382.476,459.219 402.581,428.787 422.686,428.916 442.791,434.454 462.896,414.002 483.001,413.885 503.106,423.655 523.211,438.389 543.315,477.767 563.42,578.057 583.525,1386.4 603.63,589.995 623.735,493.463 643.84,448.07 663.945,421.456 684.05,402.438 704.155,388.501 724.259,380.392 744.364,376.648 764.469,377.113 784.574,380.021 804.679,383.258 824.784,384.643 844.889,382.934 864.994,378.612 885.099,373.397 905.204,368.318 925.308,363.293 945.413,358.37 965.518,352.789 985.623,346.585 1005.73,340.265 1025.83,333.803 1045.94,327.611 1066.04,322.255 1086.15,317.86 1106.25,313.742 1126.36,311.118 1146.46,308.219 1166.57,305.873 1186.67,303.3 1206.78,300.971 1226.88,298.538 1246.99,296.421 1267.09,294.251 1287.2,291.685 1307.3,289.257 1327.41,286.054 1347.51,282.452 1367.62,279.327 1387.72,276.475 1407.83,273.059 1427.93,269.804 1448.04,266.052 1468.14,262.804 1488.25,259.887 1508.35,256.503 1528.46,253.319 1548.56,250.36 1568.67,247.183 1588.77,244.074 1608.87,240.859 1628.98,237.643 1649.08,234.338 1669.19,230.774 1689.29,227.927 1709.4,224.739 1729.5,220.948 1749.61,217.925 1769.71,214.665 1789.82,211.581 1809.92,208.692 1830.03,205.816 1850.13,203.141 1870.24,200.654 1890.34,198.407 1910.45,196.346 1930.55,194.338 1950.66,192.176 1970.76,189.458 1990.87,188.072 2010.97,185.24 2031.08,182.958 2051.18,180.676 2071.29,179.476 2091.39,176.628 2111.5,174.795 2131.6,173.156 2151.71,170.542 2171.81,168.89 2191.92,167.341 2212.02,165.777 2232.13,164.512 2252.23,162.809 2272.34,161.106 2292.44,160.256 "/>
<path clip-path="url(#clip580)" d="M2016.18 270.476 L2281.72 270.476 L2281.72 166.796 L2016.18 166.796  Z" fill="#ffffff" fill-rule="evenodd" fill-opacity="1"/>
<polyline clip-path="url(#clip580)" style="stroke:#000000; stroke-linecap:round; stroke-linejoin:round; stroke-width:4; stroke-opacity:1; fill:none" points="2016.18,270.476 2281.72,270.476 2281.72,166.796 2016.18,166.796 2016.18,270.476 "/>
<polyline clip-path="url(#clip580)" style="stroke:#009af9; stroke-linecap:round; stroke-linejoin:round; stroke-width:12; stroke-opacity:1; fill:none" points="2039.86,218.636 2181.93,218.636 "/>
<path clip-path="url(#clip580)" d="M2219.45 238.323 Q2217.65 242.953 2215.93 244.365 Q2214.22 245.777 2211.35 245.777 L2207.95 245.777 L2207.95 242.212 L2210.45 242.212 Q2212.21 242.212 2213.18 241.379 Q2214.15 240.545 2215.33 237.443 L2216.1 235.499 L2205.61 209.99 L2210.12 209.99 L2218.22 230.268 L2226.33 209.99 L2230.84 209.99 L2219.45 238.323 Z" fill="#000000" fill-rule="nonzero" fill-opacity="1" /><path clip-path="url(#clip580)" d="M2238.13 231.981 L2245.77 231.981 L2245.77 205.615 L2237.46 207.282 L2237.46 203.022 L2245.72 201.356 L2250.4 201.356 L2250.4 231.981 L2258.04 231.981 L2258.04 235.916 L2238.13 235.916 L2238.13 231.981 Z" fill="#000000" fill-rule="nonzero" fill-opacity="1" /></svg>
