<?xml version="1.0" encoding="utf-8"?>
<svg xmlns="http://www.w3.org/2000/svg" xmlns:xlink="http://www.w3.org/1999/xlink" width="600" height="400" viewBox="0 0 2400 1600">
<defs>
  <clipPath id="clip340">
    <rect x="0" y="0" width="2400" height="1600"/>
  </clipPath>
</defs>
<path clip-path="url(#clip340)" d="M0 1600 L2400 1600 L2400 0 L0 0  Z" fill="#ffffff" fill-rule="evenodd" fill-opacity="1"/>
<defs>
  <clipPath id="clip341">
    <rect x="480" y="0" width="1681" height="1600"/>
  </clipPath>
</defs>
<path clip-path="url(#clip340)" d="M112.177 1423.18 L2352.76 1423.18 L2352.76 47.2441 L112.177 47.2441  Z" fill="#ffffff" fill-rule="evenodd" fill-opacity="1"/>
<defs>
  <clipPath id="clip342">
    <rect x="112" y="47" width="2242" height="1377"/>
  </clipPath>
</defs>
<polyline clip-path="url(#clip342)" style="stroke:#000000; stroke-linecap:round; stroke-linejoin:round; stroke-width:2; stroke-opacity:0.1; fill:none" points="112.177,1423.18 112.177,47.2441 "/>
<polyline clip-path="url(#clip342)" style="stroke:#000000; stroke-linecap:round; stroke-linejoin:round; stroke-width:2; stroke-opacity:0.1; fill:none" points="560.293,1423.18 560.293,47.2441 "/>
<polyline clip-path="url(#clip342)" style="stroke:#000000; stroke-linecap:round; stroke-linejoin:round; stroke-width:2; stroke-opacity:0.1; fill:none" points="1008.41,1423.18 1008.41,47.2441 "/>
<polyline clip-path="url(#clip342)" style="stroke:#000000; stroke-linecap:round; stroke-linejoin:round; stroke-width:2; stroke-opacity:0.1; fill:none" points="1456.52,1423.18 1456.52,47.2441 "/>
<polyline clip-path="url(#clip342)" style="stroke:#000000; stroke-linecap:round; stroke-linejoin:round; stroke-width:2; stroke-opacity:0.1; fill:none" points="1904.64,1423.18 1904.64,47.2441 "/>
<polyline clip-path="url(#clip342)" style="stroke:#000000; stroke-linecap:round; stroke-linejoin:round; stroke-width:2; stroke-opacity:0.1; fill:none" points="2352.76,1423.18 2352.76,47.2441 "/>
<polyline clip-path="url(#clip340)" style="stroke:#000000; stroke-linecap:round; stroke-linejoin:round; stroke-width:4; stroke-opacity:1; fill:none" points="112.177,1423.18 2352.76,1423.18 "/>
<polyline clip-path="url(#clip340)" style="stroke:#000000; stroke-linecap:round; stroke-linejoin:round; stroke-width:4; stroke-opacity:1; fill:none" points="112.177,1423.18 112.177,1404.28 "/>
<polyline clip-path="url(#clip340)" style="stroke:#000000; stroke-linecap:round; stroke-linejoin:round; stroke-width:4; stroke-opacity:1; fill:none" points="560.293,1423.18 560.293,1404.28 "/>
<polyline clip-path="url(#clip340)" style="stroke:#000000; stroke-linecap:round; stroke-linejoin:round; stroke-width:4; stroke-opacity:1; fill:none" points="1008.41,1423.18 1008.41,1404.28 "/>
<polyline clip-path="url(#clip340)" style="stroke:#000000; stroke-linecap:round; stroke-linejoin:round; stroke-width:4; stroke-opacity:1; fill:none" points="1456.52,1423.18 1456.52,1404.28 "/>
<polyline clip-path="url(#clip340)" style="stroke:#000000; stroke-linecap:round; stroke-linejoin:round; stroke-width:4; stroke-opacity:1; fill:none" points="1904.64,1423.18 1904.64,1404.28 "/>
<polyline clip-path="url(#clip340)" style="stroke:#000000; stroke-linecap:round; stroke-linejoin:round; stroke-width:4; stroke-opacity:1; fill:none" points="2352.76,1423.18 2352.76,1404.28 "/>
<path clip-path="url(#clip340)" d="M112.177 1454.1 Q108.566 1454.1 106.737 1457.66 Q104.932 1461.2 104.932 1468.33 Q104.932 1475.44 106.737 1479.01 Q108.566 1482.55 112.177 1482.55 Q115.811 1482.55 117.617 1479.01 Q119.446 1475.44 119.446 1468.33 Q119.446 1461.2 117.617 1457.66 Q115.811 1454.1 112.177 1454.1 M112.177 1450.39 Q117.987 1450.39 121.043 1455 Q124.122 1459.58 124.122 1468.33 Q124.122 1477.06 121.043 1481.67 Q117.987 1486.25 112.177 1486.25 Q106.367 1486.25 103.288 1481.67 Q100.233 1477.06 100.233 1468.33 Q100.233 1459.58 103.288 1455 Q106.367 1450.39 112.177 1450.39 Z" fill="#000000" fill-rule="nonzero" fill-opacity="1" /><path clip-path="url(#clip340)" d="M554.946 1481.64 L571.265 1481.64 L571.265 1485.58 L549.321 1485.58 L549.321 1481.64 Q551.983 1478.89 556.566 1474.26 Q561.173 1469.61 562.353 1468.27 Q564.598 1465.74 565.478 1464.01 Q566.381 1462.25 566.381 1460.56 Q566.381 1457.8 564.436 1456.07 Q562.515 1454.33 559.413 1454.33 Q557.214 1454.33 554.761 1455.09 Q552.33 1455.86 549.552 1457.41 L549.552 1452.69 Q552.376 1451.55 554.83 1450.97 Q557.284 1450.39 559.321 1450.39 Q564.691 1450.39 567.885 1453.08 Q571.08 1455.77 571.08 1460.26 Q571.08 1462.39 570.27 1464.31 Q569.483 1466.2 567.376 1468.8 Q566.798 1469.47 563.696 1472.69 Q560.594 1475.88 554.946 1481.64 Z" fill="#000000" fill-rule="nonzero" fill-opacity="1" /><path clip-path="url(#clip340)" d="M1011.42 1455.09 L999.612 1473.54 L1011.42 1473.54 L1011.42 1455.09 M1010.19 1451.02 L1016.07 1451.02 L1016.07 1473.54 L1021 1473.54 L1021 1477.43 L1016.07 1477.43 L1016.07 1485.58 L1011.42 1485.58 L1011.42 1477.43 L995.816 1477.43 L995.816 1472.92 L1010.19 1451.02 Z" fill="#000000" fill-rule="nonzero" fill-opacity="1" /><path clip-path="url(#clip340)" d="M1456.93 1466.44 Q1453.78 1466.44 1451.93 1468.59 Q1450.1 1470.74 1450.1 1474.49 Q1450.1 1478.22 1451.93 1480.39 Q1453.78 1482.55 1456.93 1482.55 Q1460.08 1482.55 1461.91 1480.39 Q1463.76 1478.22 1463.76 1474.49 Q1463.76 1470.74 1461.91 1468.59 Q1460.08 1466.44 1456.93 1466.44 M1466.21 1451.78 L1466.21 1456.04 Q1464.45 1455.21 1462.65 1454.77 Q1460.86 1454.33 1459.11 1454.33 Q1454.48 1454.33 1452.02 1457.45 Q1449.59 1460.58 1449.24 1466.9 Q1450.61 1464.89 1452.67 1463.82 Q1454.73 1462.73 1457.21 1462.73 Q1462.42 1462.73 1465.42 1465.9 Q1468.46 1469.05 1468.46 1474.49 Q1468.46 1479.82 1465.31 1483.03 Q1462.16 1486.25 1456.93 1486.25 Q1450.93 1486.25 1447.76 1481.67 Q1444.59 1477.06 1444.59 1468.33 Q1444.59 1460.14 1448.48 1455.28 Q1452.37 1450.39 1458.92 1450.39 Q1460.68 1450.39 1462.46 1450.74 Q1464.27 1451.09 1466.21 1451.78 Z" fill="#000000" fill-rule="nonzero" fill-opacity="1" /><path clip-path="url(#clip340)" d="M1904.64 1469.17 Q1901.31 1469.17 1899.39 1470.95 Q1897.49 1472.73 1897.49 1475.86 Q1897.49 1478.98 1899.39 1480.77 Q1901.31 1482.55 1904.64 1482.55 Q1907.97 1482.55 1909.89 1480.77 Q1911.82 1478.96 1911.82 1475.86 Q1911.82 1472.73 1909.89 1470.95 Q1908 1469.17 1904.64 1469.17 M1899.96 1467.18 Q1896.96 1466.44 1895.27 1464.38 Q1893.6 1462.32 1893.6 1459.35 Q1893.6 1455.21 1896.54 1452.8 Q1899.5 1450.39 1904.64 1450.39 Q1909.8 1450.39 1912.74 1452.8 Q1915.68 1455.21 1915.68 1459.35 Q1915.68 1462.32 1913.99 1464.38 Q1912.33 1466.44 1909.34 1467.18 Q1912.72 1467.96 1914.59 1470.26 Q1916.49 1472.55 1916.49 1475.86 Q1916.49 1480.88 1913.41 1483.57 Q1910.36 1486.25 1904.64 1486.25 Q1898.92 1486.25 1895.84 1483.57 Q1892.79 1480.88 1892.79 1475.86 Q1892.79 1472.55 1894.69 1470.26 Q1896.58 1467.96 1899.96 1467.18 M1898.25 1459.79 Q1898.25 1462.48 1899.92 1463.98 Q1901.61 1465.49 1904.64 1465.49 Q1907.65 1465.49 1909.34 1463.98 Q1911.05 1462.48 1911.05 1459.79 Q1911.05 1457.11 1909.34 1455.6 Q1907.65 1454.1 1904.64 1454.1 Q1901.61 1454.1 1899.92 1455.6 Q1898.25 1457.11 1898.25 1459.79 Z" fill="#000000" fill-rule="nonzero" fill-opacity="1" /><path clip-path="url(#clip340)" d="M2327.44 1481.64 L2335.08 1481.64 L2335.08 1455.28 L2326.77 1456.95 L2326.77 1452.69 L2335.04 1451.02 L2339.71 1451.02 L2339.71 1481.64 L2347.35 1481.64 L2347.35 1485.58 L2327.44 1485.58 L2327.44 1481.64 Z" fill="#000000" fill-rule="nonzero" fill-opacity="1" /><path clip-path="url(#clip340)" d="M2366.8 1454.1 Q2363.18 1454.1 2361.36 1457.66 Q2359.55 1461.2 2359.55 1468.33 Q2359.55 1475.44 2361.36 1479.01 Q2363.18 1482.55 2366.8 1482.55 Q2370.43 1482.55 2372.23 1479.01 Q2374.06 1475.44 2374.06 1468.33 Q2374.06 1461.2 2372.23 1457.66 Q2370.43 1454.1 2366.8 1454.1 M2366.8 1450.39 Q2372.61 1450.39 2375.66 1455 Q2378.74 1459.58 2378.74 1468.33 Q2378.74 1477.06 2375.66 1481.67 Q2372.61 1486.25 2366.8 1486.25 Q2360.99 1486.25 2357.91 1481.67 Q2354.85 1477.06 2354.85 1468.33 Q2354.85 1459.58 2357.91 1455 Q2360.99 1450.39 2366.8 1450.39 Z" fill="#000000" fill-rule="nonzero" fill-opacity="1" /><path clip-path="url(#clip340)" d="M1231.53 1522.27 L1231.53 1532.4 L1243.59 1532.4 L1243.59 1536.95 L1231.53 1536.95 L1231.53 1556.3 Q1231.53 1560.66 1232.71 1561.9 Q1233.91 1563.14 1237.58 1563.14 L1243.59 1563.14 L1243.59 1568.04 L1237.58 1568.04 Q1230.8 1568.04 1228.22 1565.53 Q1225.64 1562.98 1225.64 1556.3 L1225.64 1536.95 L1221.34 1536.95 L1221.34 1532.4 L1225.64 1532.4 L1225.64 1522.27 L1231.53 1522.27 Z" fill="#000000" fill-rule="nonzero" fill-opacity="1" /><polyline clip-path="url(#clip342)" style="stroke:#000000; stroke-linecap:round; stroke-linejoin:round; stroke-width:2; stroke-opacity:0.1; fill:none" points="112.177,1239.07 2352.76,1239.07 "/>
<polyline clip-path="url(#clip342)" style="stroke:#000000; stroke-linecap:round; stroke-linejoin:round; stroke-width:2; stroke-opacity:0.1; fill:none" points="112.177,1043.73 2352.76,1043.73 "/>
<polyline clip-path="url(#clip342)" style="stroke:#000000; stroke-linecap:round; stroke-linejoin:round; stroke-width:2; stroke-opacity:0.1; fill:none" points="112.177,848.386 2352.76,848.386 "/>
<polyline clip-path="url(#clip342)" style="stroke:#000000; stroke-linecap:round; stroke-linejoin:round; stroke-width:2; stroke-opacity:0.1; fill:none" points="112.177,653.043 2352.76,653.043 "/>
<polyline clip-path="url(#clip342)" style="stroke:#000000; stroke-linecap:round; stroke-linejoin:round; stroke-width:2; stroke-opacity:0.1; fill:none" points="112.177,457.701 2352.76,457.701 "/>
<polyline clip-path="url(#clip342)" style="stroke:#000000; stroke-linecap:round; stroke-linejoin:round; stroke-width:2; stroke-opacity:0.1; fill:none" points="112.177,262.359 2352.76,262.359 "/>
<polyline clip-path="url(#clip342)" style="stroke:#000000; stroke-linecap:round; stroke-linejoin:round; stroke-width:2; stroke-opacity:0.1; fill:none" points="112.177,67.0165 2352.76,67.0165 "/>
<polyline clip-path="url(#clip340)" style="stroke:#000000; stroke-linecap:round; stroke-linejoin:round; stroke-width:4; stroke-opacity:1; fill:none" points="112.177,1423.18 112.177,47.2441 "/>
<polyline clip-path="url(#clip340)" style="stroke:#000000; stroke-linecap:round; stroke-linejoin:round; stroke-width:4; stroke-opacity:1; fill:none" points="112.177,1239.07 131.075,1239.07 "/>
<polyline clip-path="url(#clip340)" style="stroke:#000000; stroke-linecap:round; stroke-linejoin:round; stroke-width:4; stroke-opacity:1; fill:none" points="112.177,1043.73 131.075,1043.73 "/>
<polyline clip-path="url(#clip340)" style="stroke:#000000; stroke-linecap:round; stroke-linejoin:round; stroke-width:4; stroke-opacity:1; fill:none" points="112.177,848.386 131.075,848.386 "/>
<polyline clip-path="url(#clip340)" style="stroke:#000000; stroke-linecap:round; stroke-linejoin:round; stroke-width:4; stroke-opacity:1; fill:none" points="112.177,653.043 131.075,653.043 "/>
<polyline clip-path="url(#clip340)" style="stroke:#000000; stroke-linecap:round; stroke-linejoin:round; stroke-width:4; stroke-opacity:1; fill:none" points="112.177,457.701 131.075,457.701 "/>
<polyline clip-path="url(#clip340)" style="stroke:#000000; stroke-linecap:round; stroke-linejoin:round; stroke-width:4; stroke-opacity:1; fill:none" points="112.177,262.359 131.075,262.359 "/>
<polyline clip-path="url(#clip340)" style="stroke:#000000; stroke-linecap:round; stroke-linejoin:round; stroke-width:4; stroke-opacity:1; fill:none" points="112.177,67.0165 131.075,67.0165 "/>
<path clip-path="url(#clip340)" d="M56.2699 1252.42 L63.9087 1252.42 L63.9087 1226.05 L55.5986 1227.72 L55.5986 1223.46 L63.8624 1221.79 L68.5383 1221.79 L68.5383 1252.42 L76.1772 1252.42 L76.1772 1256.35 L56.2699 1256.35 L56.2699 1252.42 Z" fill="#000000" fill-rule="nonzero" fill-opacity="1" /><path clip-path="url(#clip340)" d="M59.8578 1057.07 L76.1772 1057.07 L76.1772 1061.01 L54.2328 1061.01 L54.2328 1057.07 Q56.8949 1054.32 61.4782 1049.69 Q66.0846 1045.04 67.2652 1043.69 Q69.5105 1041.17 70.3902 1039.43 Q71.2929 1037.67 71.2929 1035.99 Q71.2929 1033.23 69.3485 1031.49 Q67.4272 1029.76 64.3254 1029.76 Q62.1263 1029.76 59.6726 1030.52 Q57.2421 1031.29 54.4643 1032.84 L54.4643 1028.11 Q57.2884 1026.98 59.7421 1026.4 Q62.1958 1025.82 64.2328 1025.82 Q69.6031 1025.82 72.7976 1028.51 Q75.992 1031.19 75.992 1035.68 Q75.992 1037.81 75.1818 1039.74 Q74.3948 1041.63 72.2883 1044.23 Q71.7096 1044.9 68.6078 1048.11 Q65.5059 1051.31 59.8578 1057.07 Z" fill="#000000" fill-rule="nonzero" fill-opacity="1" /><path clip-path="url(#clip340)" d="M69.0476 847.032 Q72.404 847.749 74.279 850.018 Q76.1772 852.286 76.1772 855.62 Q76.1772 860.735 72.6587 863.536 Q69.1402 866.337 62.6587 866.337 Q60.4828 866.337 58.168 865.897 Q55.8764 865.481 53.4227 864.624 L53.4227 860.11 Q55.3671 861.245 57.6819 861.823 Q59.9967 862.402 62.5198 862.402 Q66.918 862.402 69.2096 860.666 Q71.5244 858.93 71.5244 855.62 Q71.5244 852.564 69.3717 850.851 Q67.242 849.115 63.4226 849.115 L59.3949 849.115 L59.3949 845.272 L63.6078 845.272 Q67.0569 845.272 68.8855 843.907 Q70.7142 842.518 70.7142 839.925 Q70.7142 837.263 68.8161 835.851 Q66.9411 834.416 63.4226 834.416 Q61.5013 834.416 59.3023 834.833 Q57.1032 835.249 54.4643 836.129 L54.4643 831.962 Q57.1264 831.222 59.4412 830.851 Q61.7791 830.481 63.8393 830.481 Q69.1633 830.481 72.2652 832.911 Q75.367 835.319 75.367 839.439 Q75.367 842.309 73.7235 844.3 Q72.08 846.268 69.0476 847.032 Z" fill="#000000" fill-rule="nonzero" fill-opacity="1" /><path clip-path="url(#clip340)" d="M66.5939 639.838 L54.7884 658.287 L66.5939 658.287 L66.5939 639.838 M65.367 635.763 L71.2466 635.763 L71.2466 658.287 L76.1772 658.287 L76.1772 662.175 L71.2466 662.175 L71.2466 670.323 L66.5939 670.323 L66.5939 662.175 L50.9921 662.175 L50.9921 657.662 L65.367 635.763 Z" fill="#000000" fill-rule="nonzero" fill-opacity="1" /><path clip-path="url(#clip340)" d="M55.2745 440.421 L73.6309 440.421 L73.6309 444.356 L59.5569 444.356 L59.5569 452.828 Q60.5754 452.481 61.5939 452.319 Q62.6124 452.134 63.6309 452.134 Q69.418 452.134 72.7976 455.305 Q76.1772 458.477 76.1772 463.893 Q76.1772 469.472 72.705 472.574 Q69.2328 475.652 62.9134 475.652 Q60.7374 475.652 58.4689 475.282 Q56.2236 474.912 53.8162 474.171 L53.8162 469.472 Q55.8995 470.606 58.1217 471.162 Q60.3439 471.717 62.8208 471.717 Q66.8254 471.717 69.1633 469.611 Q71.5013 467.504 71.5013 463.893 Q71.5013 460.282 69.1633 458.176 Q66.8254 456.069 62.8208 456.069 Q60.9458 456.069 59.0708 456.486 Q57.2189 456.903 55.2745 457.782 L55.2745 440.421 Z" fill="#000000" fill-rule="nonzero" fill-opacity="1" /><path clip-path="url(#clip340)" d="M64.6495 260.495 Q61.5013 260.495 59.6495 262.648 Q57.8208 264.801 57.8208 268.551 Q57.8208 272.278 59.6495 274.454 Q61.5013 276.606 64.6495 276.606 Q67.7976 276.606 69.6263 274.454 Q71.4781 272.278 71.4781 268.551 Q71.4781 264.801 69.6263 262.648 Q67.7976 260.495 64.6495 260.495 M73.9318 245.843 L73.9318 250.102 Q72.1726 249.269 70.367 248.829 Q68.5846 248.389 66.8254 248.389 Q62.1958 248.389 59.7421 251.514 Q57.3115 254.639 56.9643 260.958 Q58.33 258.944 60.3902 257.88 Q62.4504 256.792 64.9272 256.792 Q70.1355 256.792 73.1448 259.963 Q76.1772 263.111 76.1772 268.551 Q76.1772 273.875 73.029 277.093 Q69.8809 280.31 64.6495 280.31 Q58.6541 280.31 55.4828 275.727 Q52.3116 271.12 52.3116 262.394 Q52.3116 254.199 56.2004 249.338 Q60.0893 244.454 66.6402 244.454 Q68.3994 244.454 70.1818 244.801 Q71.9874 245.148 73.9318 245.843 Z" fill="#000000" fill-rule="nonzero" fill-opacity="1" /><path clip-path="url(#clip340)" d="M53.9551 49.7365 L76.1772 49.7365 L76.1772 51.7272 L63.6309 84.2965 L58.7467 84.2965 L70.5522 53.6716 L53.9551 53.6716 L53.9551 49.7365 Z" fill="#000000" fill-rule="nonzero" fill-opacity="1" /><polyline clip-path="url(#clip342)" style="stroke:#009af9; stroke-linecap:round; stroke-linejoin:round; stroke-width:4; stroke-opacity:1; fill:none" points="112.177,1239.07 114.42,1238.07 116.663,1237.03 118.906,1235.94 121.148,1234.81 123.391,1233.64 125.634,1232.42 127.877,1231.16 130.12,1229.86 132.363,1228.51 134.605,1227.13 136.848,1225.69 139.091,1224.22 141.334,1222.71 143.577,1221.15 145.819,1219.55 148.062,1217.9 150.305,1216.22 152.548,1214.49 154.791,1212.71 157.034,1210.9 159.276,1209.04 161.519,1207.14 163.762,1205.19 166.005,1203.2 168.248,1201.17 170.491,1199.09 172.733,1196.97 174.976,1194.8 177.219,1192.59 179.462,1190.33 181.705,1188.03 183.947,1185.68 186.19,1183.28 188.433,1180.84 190.676,1178.35 192.919,1175.81 195.162,1173.23 197.404,1170.6 199.647,1167.92 201.89,1165.19 204.133,1162.41 206.376,1159.59 208.619,1156.71 210.861,1153.78 213.104,1150.8 215.347,1147.77 217.59,1144.69 219.833,1141.56 222.075,1138.37 224.318,1135.14 226.561,1131.84 228.804,1128.5 231.047,1125.09 233.29,1121.64 235.532,1118.12 237.775,1114.56 240.018,1110.93 242.261,1107.25 244.504,1103.5 246.746,1099.7 248.989,1095.85 251.232,1091.93 253.475,1087.95 255.718,1083.91 257.961,1079.8 260.203,1075.64 262.446,1071.41 264.689,1067.12 266.932,1062.77 269.175,1058.35 271.418,1053.86 273.66,1049.31 275.903,1044.69 278.146,1040 280.389,1035.25 282.632,1030.42 284.874,1025.53 287.117,1020.57 289.36,1015.53 291.603,1010.42 293.846,1005.24 296.089,999.991 298.331,994.664 300.574,989.262 302.817,983.785 305.06,978.232 307.303,972.602 309.545,966.895 311.788,961.109 314.031,955.244 316.274,949.299 318.517,943.274 320.76,937.167 323.002,930.979 325.245,924.707 327.488,918.353 329.731,911.915 331.974,905.392 334.217,898.784 336.459,892.09 338.702,885.308 340.945,878.439 343.188,871.482 345.431,864.435 347.673,857.298 349.916,850.072 352.159,842.754 354.402,835.345 356.645,827.844 358.888,820.25 361.13,812.564 363.373,804.784 365.616,796.911 367.859,788.944 370.102,780.883 372.344,772.728 374.587,764.477 376.83,756.132 379.073,747.692 381.316,739.156 383.559,730.525 385.801,721.799 388.044,712.978 390.287,704.061 392.53,695.048 394.773,685.941 397.016,676.738 399.258,667.446 401.501,658.063 403.744,648.589 405.987,639.024 408.23,629.367 410.472,619.619 412.715,609.781 414.958,599.852 417.201,589.834 419.444,579.729 421.687,569.537 423.929,559.262 426.172,548.904 428.415,538.467 430.658,527.954 432.901,517.366 435.143,506.709 437.386,495.985 439.629,485.199 441.872,474.354 444.115,463.455 446.358,452.508 448.6,441.517 450.843,430.487 453.086,419.425 455.329,408.337 457.572,397.227 459.815,386.105 462.057,374.975 464.3,363.846 466.543,352.724 468.786,341.619 471.029,330.536 473.271,319.486 475.514,308.476 477.757,297.502 480,286.574 482.243,275.711 484.486,264.931 486.728,254.253 488.971,243.697 491.214,233.283 493.457,223.03 495.7,212.961 497.942,203.097 500.185,193.46 502.428,184.072 504.671,174.956 506.914,166.136 509.157,157.635 511.399,149.479 513.642,141.691 515.885,134.298 518.128,127.325 520.371,120.798 522.614,114.745 524.856,109.192 527.099,104.169 529.342,99.7017 531.585,95.8205 533.828,92.5542 536.07,89.9326 538.313,87.986 540.556,86.7452 542.799,86.2413 545.042,86.506 547.285,87.5716 549.527,89.4708 551.77,92.2367 554.013,95.9029 556.256,100.504 558.499,106.076 560.741,112.661 562.984,120.26 565.227,128.872 567.47,138.489 569.713,149.102 571.956,160.697 574.198,173.257 576.441,186.763 578.684,201.191 580.927,216.514 583.17,232.703 585.413,249.724 587.655,267.541 589.898,286.113 592.141,305.397 594.384,325.347 596.627,345.912 598.869,367.04 601.112,388.673 603.355,410.752 605.598,433.213 607.841,455.99 610.084,479.013 612.326,502.208 614.569,525.499 616.812,548.805 619.055,572.044 621.298,595.156 623.54,618.118 625.783,640.874 628.026,663.372 630.269,685.563 632.512,707.4 634.755,728.843 636.997,749.855 639.24,770.401 641.483,790.453 643.726,809.985 645.969,828.975 648.212,847.407 650.454,865.265 652.697,882.542 654.94,899.23 657.183,915.329 659.426,930.84 661.668,945.77 663.911,960.129 666.154,973.93 668.397,987.192 670.64,999.938 672.883,1012.19 675.125,1023.99 677.368,1035.31 679.611,1046.17 681.854,1056.56 684.097,1066.51 686.339,1076.04 688.582,1085.15 690.825,1093.86 693.068,1102.2 695.311,1110.17 697.554,1117.78 699.796,1125.05 702.039,1132 704.282,1138.63 706.525,1144.96 708.768,1151 711.011,1156.76 713.253,1162.25 715.496,1167.49 717.739,1172.47 719.982,1177.22 722.225,1181.74 724.467,1186.04 726.71,1190.13 728.953,1194.02 731.196,1197.72 733.439,1201.24 735.682,1204.58 737.924,1207.75 740.167,1210.76 742.41,1213.62 744.653,1216.32 746.896,1218.89 749.138,1221.31 751.381,1223.6 753.624,1225.77 755.867,1227.81 758.11,1229.73 760.353,1231.54 762.595,1233.24 764.838,1234.84 767.081,1236.33 769.324,1237.73 771.567,1239.03 773.81,1240.24 776.052,1241.37 778.295,1242.4 780.538,1243.36 782.781,1244.23 785.024,1245.03 787.266,1245.75 789.509,1246.39 791.752,1246.97 793.995,1247.46 796.238,1247.9 798.481,1248.26 800.723,1248.56 802.966,1248.8 805.209,1248.98 807.452,1249.09 809.695,1249.15 811.938,1249.15 814.18,1249.09 816.423,1248.98 818.666,1248.81 820.909,1248.58 823.152,1248.31 825.394,1247.98 827.637,1247.6 829.88,1247.18 832.123,1246.7 834.366,1246.17 836.609,1245.6 838.851,1244.97 841.094,1244.31 843.337,1243.59 845.58,1242.83 847.823,1242.02 850.065,1241.17 852.308,1240.28 854.551,1239.34 856.794,1238.35 859.037,1237.33 861.28,1236.26 863.522,1235.14 865.765,1233.99 868.008,1232.79 870.251,1231.54 872.494,1230.26 874.737,1228.93 876.979,1227.56 879.222,1226.14 881.465,1224.69 883.708,1223.19 885.951,1221.64 888.193,1220.06 890.436,1218.43 892.679,1216.76 894.922,1215.04 897.165,1213.29 899.408,1211.49 901.65,1209.64 903.893,1207.75 906.136,1205.82 908.379,1203.85 910.622,1201.83 912.864,1199.76 915.107,1197.66 917.35,1195.5 919.593,1193.3 921.836,1191.06 924.079,1188.77 926.321,1186.44 928.564,1184.06 930.807,1181.63 933.05,1179.16 935.293,1176.64 937.536,1174.07 939.778,1171.46 942.021,1168.79 944.264,1166.08 946.507,1163.32 948.75,1160.51 950.992,1157.65 953.235,1154.74 955.478,1151.78 957.721,1148.77 959.964,1145.71 962.207,1142.59 964.449,1139.43 966.692,1136.21 968.935,1132.93 971.178,1129.6 973.421,1126.22 975.663,1122.78 977.906,1119.29 980.149,1115.74 982.392,1112.13 984.635,1108.47 986.878,1104.75 989.12,1100.97 991.363,1097.13 993.606,1093.23 995.849,1089.28 998.092,1085.26 1000.33,1081.18 1002.58,1077.03 1004.82,1072.83 1007.06,1068.56 1009.31,1064.23 1011.55,1059.83 1013.79,1055.37 1016.03,1050.84 1018.28,1046.25 1020.52,1041.59 1022.76,1036.86 1025.01,1032.06 1027.25,1027.19 1029.49,1022.25 1031.73,1017.24 1033.98,1012.16 1036.22,1007 1038.46,1001.78 1040.71,996.478 1042.95,991.103 1045.19,985.654 1047.43,980.128 1049.68,974.526 1051.92,968.846 1054.16,963.088 1056.41,957.251 1058.65,951.334 1060.89,945.336 1063.13,939.258 1065.38,933.097 1067.62,926.854 1069.86,920.527 1072.1,914.117 1074.35,907.622 1076.59,901.042 1078.83,894.376 1081.08,887.623 1083.32,880.783 1085.56,873.856 1087.8,866.839 1090.05,859.734 1092.29,852.54 1094.53,845.255 1096.78,837.88 1099.02,830.413 1101.26,822.854 1103.5,815.203 1105.75,807.46 1107.99,799.622 1110.23,791.691 1112.48,783.665 1114.72,775.545 1116.96,767.333 1119.2,759.035 1121.45,750.65 1123.69,742.174 1125.93,733.607 1128.18,724.945 1130.42,716.189 1132.66,707.336 1134.9,698.386 1137.15,689.339 1139.39,680.192 1141.63,670.948 1143.88,661.605 1146.12,652.164 1148.36,642.625 1150.6,632.989 1152.85,623.258 1155.09,613.431 1157.33,603.512 1159.57,593.501 1161.82,583.401 1164.06,573.213 1166.3,562.94 1168.55,552.586 1170.79,542.152 1173.03,531.642 1175.27,521.059 1177.52,510.408 1179.76,499.691 1182,488.914 1184.25,478.08 1186.49,467.194 1188.73,456.261 1190.97,445.286 1193.22,434.274 1195.46,423.231 1197.7,412.163 1199.95,401.076 1202.19,389.976 1204.43,378.87 1206.67,367.764 1208.92,356.665 1211.16,345.582 1213.4,334.521 1215.65,323.489 1217.89,312.496 1220.13,301.549 1222.37,290.657 1224.62,279.824 1226.86,269.052 1229.1,258.361 1231.35,247.772 1233.59,237.308 1235.83,226.991 1238.07,216.843 1240.32,206.889 1242.56,197.15 1244.8,187.652 1247.04,178.418 1249.29,169.472 1251.53,160.84 1253.77,152.546 1256.02,144.616 1258.26,137.076 1260.5,129.952 1262.74,123.269 1264.99,117.056 1267.23,111.339 1269.47,106.146 1271.72,101.503 1273.96,97.4406 1276.2,93.9857 1278.44,91.1673 1280.69,89.0146 1282.93,87.5571 1285.17,86.8245 1287.42,86.847 1289.66,87.6548 1291.9,89.2789 1294.14,91.7503 1296.39,95.1004 1298.63,99.3611 1300.87,104.564 1303.12,110.743 1305.36,117.957 1307.6,126.242 1309.84,135.577 1312.09,145.941 1314.33,157.309 1316.57,169.656 1318.82,182.953 1321.06,197.171 1323.3,212.276 1325.54,228.235 1327.79,245.011 1330.03,262.565 1332.27,280.857 1334.51,299.843 1336.76,319.48 1339,339.719 1341.24,360.511 1343.49,381.807 1345.73,403.551 1347.97,425.689 1350.21,448.163 1352.46,470.914 1354.7,493.879 1356.94,516.995 1359.19,540.197 1361.43,563.415 1363.67,586.58 1365.91,609.62 1368.16,632.46 1370.4,655.024 1372.64,677.238 1374.89,699.092 1377.13,720.565 1379.37,741.625 1381.61,762.244 1383.86,782.395 1386.1,802.055 1388.34,821.204 1390.59,839.824 1392.83,857.9 1395.07,875.42 1397.31,892.373 1399.56,908.754 1401.8,924.558 1404.04,939.784 1406.29,954.434 1408.53,968.512 1410.77,982.024 1413.01,994.981 1415.26,1007.39 1417.5,1019.28 1419.74,1030.66 1421.98,1041.55 1424.23,1051.97 1426.47,1061.95 1428.71,1071.52 1430.96,1080.72 1433.2,1089.57 1435.44,1098.05 1437.68,1106.16 1439.93,1113.91 1442.17,1121.3 1444.41,1128.37 1446.66,1135.12 1448.9,1141.56 1451.14,1147.7 1453.38,1153.57 1455.63,1159.16 1457.87,1164.5 1460.11,1169.58 1462.36,1174.43 1464.6,1179.05 1466.84,1183.46 1469.08,1187.65 1471.33,1191.64 1473.57,1195.44 1475.81,1199.05 1478.06,1202.49 1480.3,1205.75 1482.54,1208.85 1484.78,1211.79 1487.03,1214.57 1489.27,1217.2 1491.51,1219.69 1493.76,1222.04 1496,1224.26 1498.24,1226.36 1500.48,1228.34 1502.73,1230.2 1504.97,1231.95 1507.21,1233.59 1509.46,1235.13 1511.7,1236.57 1513.94,1237.91 1516.18,1239.16 1518.43,1240.32 1520.67,1241.39 1522.91,1242.37 1525.15,1243.27 1527.4,1244.09 1529.64,1244.84 1531.88,1245.51 1534.13,1246.11 1536.37,1246.63 1538.61,1247.09 1540.85,1247.48 1543.1,1247.81 1545.34,1248.08 1547.58,1248.28 1549.83,1248.42 1552.07,1248.5 1554.31,1248.52 1556.55,1248.49 1558.8,1248.4 1561.04,1248.25 1563.28,1248.05 1565.53,1247.8 1567.77,1247.5 1570.01,1247.15 1572.25,1246.74 1574.5,1246.29 1576.74,1245.78 1578.98,1245.23 1581.23,1244.63 1583.47,1243.98 1585.71,1243.28 1587.95,1242.54 1590.2,1241.75 1592.44,1240.92 1594.68,1240.04 1596.93,1239.12 1599.17,1238.15 1601.41,1237.14 1603.65,1236.08 1605.9,1234.98 1608.14,1233.84 1610.38,1232.65 1612.62,1231.42 1614.87,1230.14 1617.11,1228.83 1619.35,1227.47 1621.6,1226.07 1623.84,1224.63 1626.08,1223.14 1628.32,1221.61 1630.57,1220.04 1632.81,1218.43 1635.05,1216.77 1637.3,1215.07 1639.54,1213.33 1641.78,1211.54 1644.02,1209.72 1646.27,1207.84 1648.51,1205.93 1650.75,1203.97 1653,1201.97 1655.24,1199.92 1657.48,1197.83 1659.72,1195.69 1661.97,1193.51 1664.21,1191.28 1666.45,1189.01 1668.7,1186.69 1670.94,1184.32 1673.18,1181.91 1675.42,1179.46 1677.67,1176.95 1679.91,1174.4 1682.15,1171.8 1684.4,1169.15 1686.64,1166.45 1688.88,1163.71 1691.12,1160.91 1693.37,1158.07 1695.61,1155.18 1697.85,1152.23 1700.09,1149.23 1702.34,1146.19 1704.58,1143.09 1706.82,1139.94 1709.07,1136.73 1711.31,1133.47 1713.55,1130.16 1715.79,1126.8 1718.04,1123.38 1720.28,1119.9 1722.52,1116.37 1724.77,1112.78 1727.01,1109.13 1729.25,1105.43 1731.49,1101.67 1733.74,1097.85 1735.98,1093.97 1738.22,1090.03 1740.47,1086.03 1742.71,1081.96 1744.95,1077.84 1747.19,1073.65 1749.44,1069.4 1751.68,1065.09 1753.92,1060.71 1756.17,1056.27 1758.41,1051.76 1760.65,1047.18 1762.89,1042.54 1765.14,1037.83 1767.38,1033.05 1769.62,1028.2 1771.87,1023.29 1774.11,1018.3 1776.35,1013.24 1778.59,1008.11 1780.84,1002.91 1783.08,997.628 1785.32,992.277 1787.56,986.851 1789.81,981.35 1792.05,975.772 1794.29,970.117 1796.54,964.385 1798.78,958.574 1801.02,952.684 1803.26,946.713 1805.51,940.662 1807.75,934.529 1809.99,928.314 1812.24,922.016 1814.48,915.635 1816.72,909.171 1818.96,902.623 1821.21,895.989 1823.45,889.27 1825.69,882.463 1827.94,875.569 1830.18,868.586 1832.42,861.514 1834.66,854.351 1836.91,847.098 1839.15,839.754 1841.39,832.318 1843.64,824.789 1845.88,817.168 1848.12,809.453 1850.36,801.644 1852.61,793.742 1854.85,785.746 1857.09,777.655 1859.34,769.469 1861.58,761.189 1863.82,752.814 1866.06,744.344 1868.31,735.779 1870.55,727.12 1872.79,718.366 1875.03,709.517 1877.28,700.575 1879.52,691.538 1881.76,682.407 1884.01,673.183 1886.25,663.866 1888.49,654.457 1890.73,644.956 1892.98,635.363 1895.22,625.679 1897.46,615.905 1899.71,606.041 1901.95,596.1 1904.19,586.091 1906.43,576.011 1908.68,565.858 1910.92,555.63 1913.16,545.326 1915.41,534.946 1917.65,524.489 1919.89,513.956 1922.13,503.349 1924.38,492.669 1926.62,481.92 1928.86,471.104 1931.11,460.225 1933.35,449.287 1935.59,438.297 1937.83,427.259 1940.08,416.179 1942.32,405.066 1944.56,393.925 1946.81,382.766 1949.05,371.598 1951.29,360.428 1953.53,349.269 1955.78,338.13 1958.02,327.022 1960.26,315.958 1962.5,304.95 1964.75,294.011 1966.99,283.155 1969.23,272.397 1971.48,261.75 1973.72,251.232 1975.96,240.858 1978.2,230.645 1980.45,220.611 1982.69,210.773 1984.93,201.15 1987.18,191.763 1989.42,182.63 1991.66,173.772 1993.9,165.211 1996.15,156.969 1998.39,149.067 2000.63,141.529 2002.88,134.379 2005.12,127.64 2007.36,121.338 2009.6,115.499 2011.85,110.149 2014.09,105.312 2016.33,101.02 2018.58,97.3172 2020.82,94.2472 2023.06,91.8515 2025.3,90.1686 2027.55,89.2345 2029.79,89.0822 2032.03,89.7425 2034.28,91.243 2036.52,93.6091 2038.76,96.8632 2041,101.025 2043.25,106.112 2045.49,112.138 2047.73,119.116 2049.97,127.054 2052.22,135.959 2054.46,145.835 2056.7,156.682 2058.95,168.5 2061.19,181.283 2063.43,195.025 2065.67,209.717 2067.92,225.357 2070.16,241.916 2072.4,259.335 2074.65,277.555 2076.89,296.514 2079.13,316.155 2081.37,336.416 2083.62,357.237 2085.86,378.558 2088.1,400.318 2090.35,422.456 2092.59,444.913 2094.83,467.626 2097.07,490.534 2099.32,513.576 2101.56,536.69 2103.8,559.815 2106.05,582.889 2108.29,605.85 2110.53,628.635 2112.77,651.181 2115.02,673.428 2117.26,695.311 2119.5,716.791 2121.75,737.852 2123.99,758.469 2126.23,778.618 2128.47,798.279 2130.72,817.432 2132.96,836.063 2135.2,854.157 2137.45,871.704 2139.69,888.695 2141.93,905.124 2144.17,920.988 2146.42,936.286 2148.66,951.018 2150.9,965.19 2153.14,978.807 2155.39,991.878 2157.63,1004.41 2159.87,1016.43 2162.12,1027.94 2164.36,1038.97 2166.6,1049.53 2168.84,1059.66 2171.09,1069.37 2173.33,1078.69 2175.57,1087.64 2177.82,1096.19 2180.06,1104.36 2182.3,1112.17 2184.54,1119.63 2186.79,1126.76 2189.03,1133.56 2191.27,1140.06 2193.52,1146.26 2195.76,1152.18 2198,1157.82 2200.24,1163.2 2202.49,1168.34 2204.73,1173.23 2206.97,1177.89 2209.22,1182.33 2211.46,1186.56 2213.7,1190.58 2215.94,1194.41 2218.19,1198.05 2220.43,1201.51 2222.67,1204.79 2224.92,1207.91 2227.16,1210.86 2229.4,1213.66 2231.64,1216.31 2233.89,1218.82 2236.13,1221.2 2238.37,1223.45 2240.61,1225.57 2242.86,1227.57 2245.1,1229.45 2247.34,1231.22 2249.59,1232.88 2251.83,1234.44 2254.07,1235.9 2256.31,1237.26 2258.56,1238.52 2260.8,1239.7 2263.04,1240.78 2265.29,1241.78 2267.53,1242.7 2269.77,1243.54 2272.01,1244.31 2274.26,1244.99 2276.5,1245.61 2278.74,1246.15 2280.99,1246.63 2283.23,1247.04 2285.47,1247.38 2287.71,1247.66 2289.96,1247.87 2292.2,1248.02 2294.44,1248.11 2296.69,1248.15 2298.93,1248.13 2301.17,1248.05 2303.41,1247.91 2305.66,1247.72 2307.9,1247.48 2310.14,1247.18 2312.39,1246.84 2314.63,1246.44 2316.87,1245.99 2319.11,1245.49 2321.36,1244.95 2323.6,1244.35 2325.84,1243.71 2328.08,1243.02 2330.33,1242.29 2332.57,1241.51 2334.81,1240.68 2337.06,1239.81 2339.3,1238.89 2341.54,1237.93 2343.78,1236.93 2346.03,1235.88 2348.27,1234.79 2350.51,1233.65 2352.76,1232.48 "/>
<polyline clip-path="url(#clip342)" style="stroke:#e26f46; stroke-linecap:round; stroke-linejoin:round; stroke-width:4; stroke-opacity:1; fill:none" points="112.177,1239.07 114.42,1242.94 116.663,1246.72 118.906,1250.41 121.148,1254.03 123.391,1257.56 125.634,1261.01 127.877,1264.38 130.12,1267.68 132.363,1270.9 134.605,1274.05 136.848,1277.13 139.091,1280.13 141.334,1283.07 143.577,1285.94 145.819,1288.74 148.062,1291.48 150.305,1294.16 152.548,1296.77 154.791,1299.32 157.034,1301.81 159.276,1304.25 161.519,1306.63 163.762,1308.95 166.005,1311.21 168.248,1313.43 170.491,1315.59 172.733,1317.7 174.976,1319.76 177.219,1321.77 179.462,1323.73 181.705,1325.65 183.947,1327.52 186.19,1329.34 188.433,1331.13 190.676,1332.86 192.919,1334.56 195.162,1336.21 197.404,1337.83 199.647,1339.4 201.89,1340.94 204.133,1342.44 206.376,1343.9 208.619,1345.33 210.861,1346.72 213.104,1348.07 215.347,1349.39 217.59,1350.68 219.833,1351.94 222.075,1353.16 224.318,1354.35 226.561,1355.51 228.804,1356.64 231.047,1357.74 233.29,1358.82 235.532,1359.86 237.775,1360.88 240.018,1361.87 242.261,1362.83 244.504,1363.77 246.746,1364.68 248.989,1365.56 251.232,1366.42 253.475,1367.26 255.718,1368.07 257.961,1368.86 260.203,1369.63 262.446,1370.37 264.689,1371.09 266.932,1371.79 269.175,1372.47 271.418,1373.12 273.66,1373.76 275.903,1374.37 278.146,1374.97 280.389,1375.54 282.632,1376.09 284.874,1376.63 287.117,1377.14 289.36,1377.64 291.603,1378.12 293.846,1378.57 296.089,1379.01 298.331,1379.43 300.574,1379.84 302.817,1380.22 305.06,1380.59 307.303,1380.94 309.545,1381.27 311.788,1381.58 314.031,1381.88 316.274,1382.16 318.517,1382.42 320.76,1382.67 323.002,1382.89 325.245,1383.1 327.488,1383.29 329.731,1383.47 331.974,1383.62 334.217,1383.76 336.459,1383.88 338.702,1383.99 340.945,1384.07 343.188,1384.14 345.431,1384.19 347.673,1384.22 349.916,1384.24 352.159,1384.23 354.402,1384.21 356.645,1384.17 358.888,1384.11 361.13,1384.02 363.373,1383.92 365.616,1383.8 367.859,1383.66 370.102,1383.49 372.344,1383.3 374.587,1383.1 376.83,1382.86 379.073,1382.61 381.316,1382.33 383.559,1382.03 385.801,1381.7 388.044,1381.34 390.287,1380.96 392.53,1380.55 394.773,1380.11 397.016,1379.64 399.258,1379.14 401.501,1378.61 403.744,1378.05 405.987,1377.44 408.23,1376.81 410.472,1376.14 412.715,1375.43 414.958,1374.69 417.201,1373.9 419.444,1373.08 421.687,1372.21 423.929,1371.3 426.172,1370.34 428.415,1369.34 430.658,1368.28 432.901,1367.17 435.143,1366.01 437.386,1364.79 439.629,1363.51 441.872,1362.16 444.115,1360.75 446.358,1359.27 448.6,1357.71 450.843,1356.08 453.086,1354.36 455.329,1352.56 457.572,1350.67 459.815,1348.69 462.057,1346.61 464.3,1344.42 466.543,1342.13 468.786,1339.73 471.029,1337.2 473.271,1334.56 475.514,1331.79 477.757,1328.89 480,1325.87 482.243,1322.71 484.486,1319.39 486.728,1315.91 488.971,1312.26 491.214,1308.41 493.457,1304.37 495.7,1300.11 497.942,1295.64 500.185,1290.92 502.428,1285.96 504.671,1280.75 506.914,1275.27 509.157,1269.51 511.399,1263.46 513.642,1257.12 515.885,1250.46 518.128,1243.49 520.371,1236.18 522.614,1228.54 524.856,1220.55 527.099,1212.2 529.342,1203.48 531.585,1194.38 533.828,1184.9 536.07,1175.02 538.313,1164.74 540.556,1154.04 542.799,1142.92 545.042,1131.37 547.285,1119.38 549.527,1106.94 551.77,1094.05 554.013,1080.69 556.256,1066.87 558.499,1052.55 560.741,1037.72 562.984,1022.41 565.227,1006.66 567.47,990.505 569.713,973.998 571.956,957.178 574.198,940.091 576.441,922.783 578.684,905.298 580.927,887.684 583.17,869.987 585.413,852.257 587.655,834.542 589.898,816.892 592.141,799.356 594.384,781.985 596.627,764.832 598.869,747.949 601.112,731.388 603.355,715.203 605.598,699.45 607.841,684.182 610.084,669.457 612.326,655.33 614.569,641.858 616.812,629.101 619.055,617.117 621.298,605.944 623.54,595.588 625.783,586.073 628.026,577.42 630.269,569.648 632.512,562.771 634.755,556.798 636.997,551.735 639.24,547.584 641.483,544.343 643.726,542.004 645.969,540.559 648.212,539.993 650.454,540.288 652.697,541.42 654.94,543.365 657.183,546.092 659.426,549.567 661.668,553.751 663.911,558.602 666.154,564.074 668.397,570.116 670.64,576.675 672.883,583.692 675.125,591.104 677.368,598.903 679.611,607.098 681.854,615.659 684.097,624.552 686.339,633.747 688.582,643.215 690.825,652.928 693.068,662.858 695.311,672.98 697.554,683.269 699.796,693.701 702.039,704.254 704.282,714.906 706.525,725.638 708.768,736.43 711.011,747.264 713.253,758.125 715.496,768.996 717.739,779.864 719.982,790.714 722.225,801.536 724.467,812.317 726.71,823.049 728.953,833.721 731.196,844.318 733.439,854.831 735.682,865.255 737.924,875.584 740.167,885.814 742.41,895.937 744.653,905.951 746.896,915.851 749.138,925.632 751.381,935.291 753.624,944.824 755.867,954.228 758.11,963.501 760.353,972.64 762.595,981.643 764.838,990.507 767.081,999.232 769.324,1007.82 771.567,1016.26 773.81,1024.56 776.052,1032.72 778.295,1040.73 780.538,1048.61 782.781,1056.34 785.024,1063.93 787.266,1071.39 789.509,1078.71 791.752,1085.89 793.995,1092.94 796.238,1099.86 798.481,1106.64 800.723,1113.29 802.966,1119.81 805.209,1126.2 807.452,1132.46 809.695,1138.6 811.938,1144.61 814.18,1150.5 816.423,1156.27 818.666,1161.92 820.909,1167.46 823.152,1172.88 825.394,1178.18 827.637,1183.38 829.88,1188.46 832.123,1193.43 834.366,1198.3 836.609,1203.06 838.851,1207.72 841.094,1212.28 843.337,1216.73 845.58,1221.09 847.823,1225.36 850.065,1229.53 852.308,1233.6 854.551,1237.59 856.794,1241.49 859.037,1245.3 861.28,1249.03 863.522,1252.67 865.765,1256.23 868.008,1259.71 870.251,1263.11 872.494,1266.44 874.737,1269.69 876.979,1272.86 879.222,1275.96 881.465,1279 883.708,1281.96 885.951,1284.85 888.193,1287.68 890.436,1290.44 892.679,1293.14 894.922,1295.78 897.165,1298.35 899.408,1300.87 901.65,1303.32 903.893,1305.72 906.136,1308.06 908.379,1310.35 910.622,1312.58 912.864,1314.77 915.107,1316.9 917.35,1318.98 919.593,1321.01 921.836,1322.99 924.079,1324.92 926.321,1326.81 928.564,1328.65 930.807,1330.45 933.05,1332.21 935.293,1333.92 937.536,1335.59 939.778,1337.22 942.021,1338.81 944.264,1340.36 946.507,1341.87 948.75,1343.34 950.992,1344.78 953.235,1346.18 955.478,1347.55 957.721,1348.88 959.964,1350.18 962.207,1351.45 964.449,1352.68 966.692,1353.88 968.935,1355.05 971.178,1356.2 973.421,1357.31 975.663,1358.39 977.906,1359.44 980.149,1360.47 982.392,1361.47 984.635,1362.44 986.878,1363.39 989.12,1364.31 991.363,1365.2 993.606,1366.07 995.849,1366.92 998.092,1367.74 1000.33,1368.54 1002.58,1369.31 1004.82,1370.06 1007.06,1370.79 1009.31,1371.5 1011.55,1372.19 1013.79,1372.85 1016.03,1373.5 1018.28,1374.12 1020.52,1374.72 1022.76,1375.3 1025.01,1375.87 1027.25,1376.41 1029.49,1376.93 1031.73,1377.43 1033.98,1377.91 1036.22,1378.38 1038.46,1378.82 1040.71,1379.25 1042.95,1379.66 1045.19,1380.05 1047.43,1380.42 1049.68,1380.78 1051.92,1381.12 1054.16,1381.44 1056.41,1381.74 1058.65,1382.02 1060.89,1382.29 1063.13,1382.54 1065.38,1382.77 1067.62,1382.99 1069.86,1383.19 1072.1,1383.37 1074.35,1383.53 1076.59,1383.68 1078.83,1383.81 1081.08,1383.92 1083.32,1384.01 1085.56,1384.09 1087.8,1384.14 1090.05,1384.18 1092.29,1384.2 1094.53,1384.21 1096.78,1384.19 1099.02,1384.15 1101.26,1384.1 1103.5,1384.02 1105.75,1383.92 1107.99,1383.81 1110.23,1383.67 1112.48,1383.51 1114.72,1383.33 1116.96,1383.13 1119.2,1382.9 1121.45,1382.64 1123.69,1382.35 1125.93,1382.03 1128.18,1381.69 1130.42,1381.33 1132.66,1380.94 1134.9,1380.52 1137.15,1380.07 1139.39,1379.6 1141.63,1379.1 1143.88,1378.57 1146.12,1378.01 1148.36,1377.42 1150.6,1376.8 1152.85,1376.15 1155.09,1375.46 1157.33,1374.74 1159.57,1373.98 1161.82,1373.18 1164.06,1372.34 1166.3,1371.46 1168.55,1370.53 1170.79,1369.56 1173.03,1368.54 1175.27,1367.46 1177.52,1366.33 1179.76,1365.14 1182,1363.89 1184.25,1362.58 1186.49,1361.2 1188.73,1359.75 1190.97,1358.23 1193.22,1356.62 1195.46,1354.94 1197.7,1353.17 1199.95,1351.31 1202.19,1349.36 1204.43,1347.31 1206.67,1345.16 1208.92,1342.9 1211.16,1340.53 1213.4,1338.04 1215.65,1335.43 1217.89,1332.69 1220.13,1329.82 1222.37,1326.82 1224.62,1323.67 1226.86,1320.39 1229.1,1316.96 1231.35,1313.36 1233.59,1309.6 1235.83,1305.64 1238.07,1301.47 1240.32,1297.1 1242.56,1292.49 1244.8,1287.64 1247.04,1282.54 1249.29,1277.17 1251.53,1271.53 1253.77,1265.6 1256.02,1259.37 1258.26,1252.83 1260.5,1245.97 1262.74,1238.78 1264.99,1231.25 1267.23,1223.37 1269.47,1215.13 1271.72,1206.52 1273.96,1197.54 1276.2,1188.17 1278.44,1178.41 1280.69,1168.24 1282.93,1157.67 1285.17,1146.68 1287.42,1135.26 1289.66,1123.42 1291.9,1111.13 1294.14,1098.41 1296.39,1085.23 1298.63,1071.6 1300.87,1057.5 1303.12,1042.94 1305.36,1027.87 1307.6,1012.28 1309.84,996.214 1312.09,979.745 1314.33,962.923 1316.57,945.805 1318.82,928.446 1321.06,910.901 1323.3,893.224 1325.54,875.469 1327.79,857.688 1330.03,839.935 1332.27,822.261 1334.51,804.718 1336.76,787.356 1339,770.225 1341.24,753.376 1343.49,736.858 1345.73,720.719 1347.97,705.007 1350.21,689.769 1352.46,675.053 1354.7,660.905 1356.94,647.37 1359.19,634.495 1361.43,622.322 1363.67,610.897 1365.91,600.263 1368.16,590.462 1370.4,581.538 1372.64,573.53 1374.89,566.436 1377.13,560.248 1379.37,554.961 1381.61,550.569 1383.86,547.064 1386.1,544.433 1388.34,542.665 1390.59,541.744 1392.83,541.654 1395.07,542.375 1397.31,543.886 1399.56,546.165 1401.8,549.185 1404.04,552.919 1406.29,557.339 1408.53,562.413 1410.77,568.107 1413.01,574.386 1415.26,581.212 1417.5,588.546 1419.74,596.346 1421.98,604.568 1424.23,613.166 1426.47,622.092 1428.71,631.298 1430.96,640.729 1433.2,650.335 1435.44,660.13 1437.68,670.122 1439.93,680.287 1442.17,690.603 1444.41,701.05 1446.66,711.605 1448.9,722.25 1451.14,732.966 1453.38,743.735 1455.63,754.541 1457.87,765.366 1460.11,776.197 1462.36,787.019 1464.6,797.818 1466.84,808.581 1469.08,819.298 1471.33,829.958 1473.57,840.55 1475.81,851.066 1478.06,861.498 1480.3,871.838 1482.54,882.08 1484.78,892.219 1487.03,902.251 1489.27,912.171 1491.51,921.977 1493.76,931.664 1496,941.224 1498.24,950.654 1500.48,959.953 1502.73,969.118 1504.97,978.15 1507.21,987.046 1509.46,995.805 1511.7,1004.43 1513.94,1012.91 1516.18,1021.26 1518.43,1029.46 1520.67,1037.53 1522.91,1045.45 1525.15,1053.24 1527.4,1060.89 1529.64,1068.4 1531.88,1075.77 1534.13,1083 1536.37,1090.1 1538.61,1097.06 1540.85,1103.89 1543.1,1110.58 1545.34,1117.14 1547.58,1123.57 1549.83,1129.87 1552.07,1136.05 1554.31,1142.1 1556.55,1148.03 1558.8,1153.84 1561.04,1159.53 1563.28,1165.11 1565.53,1170.56 1567.77,1175.91 1570.01,1181.14 1572.25,1186.26 1574.5,1191.27 1576.74,1196.17 1578.98,1200.97 1581.23,1205.67 1583.47,1210.26 1585.71,1214.76 1587.95,1219.16 1590.2,1223.46 1592.44,1227.66 1594.68,1231.78 1596.93,1235.8 1599.17,1239.74 1601.41,1243.58 1603.65,1247.34 1605.9,1251.02 1608.14,1254.61 1610.38,1258.12 1612.62,1261.55 1614.87,1264.91 1617.11,1268.19 1619.35,1271.39 1621.6,1274.52 1623.84,1277.58 1626.08,1280.57 1628.32,1283.49 1630.57,1286.34 1632.81,1289.13 1635.05,1291.85 1637.3,1294.51 1639.54,1297.11 1641.78,1299.65 1644.02,1302.12 1646.27,1304.54 1648.51,1306.91 1650.75,1309.21 1653,1311.47 1655.24,1313.67 1657.48,1315.82 1659.72,1317.91 1661.97,1319.96 1664.21,1321.96 1666.45,1323.91 1668.7,1325.82 1670.94,1327.68 1673.18,1329.49 1675.42,1331.26 1677.67,1332.99 1679.91,1334.68 1682.15,1336.32 1684.4,1337.93 1686.64,1339.5 1688.88,1341.03 1691.12,1342.52 1693.37,1343.97 1695.61,1345.39 1697.85,1346.78 1700.09,1348.13 1702.34,1349.44 1704.58,1350.72 1706.82,1351.97 1709.07,1353.19 1711.31,1354.38 1713.55,1355.53 1715.79,1356.66 1718.04,1357.75 1720.28,1358.82 1722.52,1359.85 1724.77,1360.86 1727.01,1361.85 1729.25,1362.8 1731.49,1363.73 1733.74,1364.64 1735.98,1365.52 1738.22,1366.37 1740.47,1367.2 1742.71,1368 1744.95,1368.79 1747.19,1369.55 1749.44,1370.28 1751.68,1371 1753.92,1371.69 1756.17,1372.36 1758.41,1373.01 1760.65,1373.64 1762.89,1374.25 1765.14,1374.84 1767.38,1375.4 1769.62,1375.95 1771.87,1376.48 1774.11,1376.99 1776.35,1377.48 1778.59,1377.95 1780.84,1378.41 1783.08,1378.84 1785.32,1379.26 1787.56,1379.66 1789.81,1380.04 1792.05,1380.4 1794.29,1380.74 1796.54,1381.07 1798.78,1381.38 1801.02,1381.67 1803.26,1381.94 1805.51,1382.2 1807.75,1382.44 1809.99,1382.66 1812.24,1382.86 1814.48,1383.05 1816.72,1383.22 1818.96,1383.36 1821.21,1383.5 1823.45,1383.61 1825.69,1383.7 1827.94,1383.78 1830.18,1383.84 1832.42,1383.88 1834.66,1383.91 1836.91,1383.91 1839.15,1383.9 1841.39,1383.87 1843.64,1383.82 1845.88,1383.74 1848.12,1383.65 1850.36,1383.54 1852.61,1383.41 1854.85,1383.26 1857.09,1383.09 1859.34,1382.89 1861.58,1382.68 1863.82,1382.44 1866.06,1382.17 1868.31,1381.88 1870.55,1381.57 1872.79,1381.23 1875.03,1380.86 1877.28,1380.47 1879.52,1380.05 1881.76,1379.6 1884.01,1379.11 1886.25,1378.6 1888.49,1378.06 1890.73,1377.48 1892.98,1376.87 1895.22,1376.22 1897.46,1375.54 1899.71,1374.82 1901.95,1374.05 1904.19,1373.24 1906.43,1372.37 1908.68,1371.46 1910.92,1370.49 1913.16,1369.48 1915.41,1368.42 1917.65,1367.3 1919.89,1366.13 1922.13,1364.9 1924.38,1363.62 1926.62,1362.28 1928.86,1360.88 1931.11,1359.41 1933.35,1357.88 1935.59,1356.27 1937.83,1354.59 1940.08,1352.83 1942.32,1350.99 1944.56,1349.07 1946.81,1347.05 1949.05,1344.93 1951.29,1342.71 1953.53,1340.38 1955.78,1337.94 1958.02,1335.38 1960.26,1332.69 1962.5,1329.87 1964.75,1326.91 1966.99,1323.8 1969.23,1320.54 1971.48,1317.11 1973.72,1313.51 1975.96,1309.73 1978.2,1305.76 1980.45,1301.59 1982.69,1297.22 1984.93,1292.63 1987.18,1287.81 1989.42,1282.75 1991.66,1277.45 1993.9,1271.89 1996.15,1266.05 1998.39,1259.94 2000.63,1253.54 2002.88,1246.83 2005.12,1239.8 2007.36,1232.44 2009.6,1224.74 2011.85,1216.69 2014.09,1208.27 2016.33,1199.47 2018.58,1190.29 2020.82,1180.7 2023.06,1170.69 2025.3,1160.24 2027.55,1149.35 2029.79,1138.02 2032.03,1126.23 2034.28,1113.98 2036.52,1101.28 2038.76,1088.14 2041,1074.54 2043.25,1060.51 2045.49,1046.05 2047.73,1031.19 2049.97,1015.92 2052.22,1000.27 2054.46,984.269 2056.7,967.929 2058.95,951.28 2061.19,934.35 2063.43,917.169 2065.67,899.77 2067.92,882.181 2070.16,864.454 2072.4,846.66 2074.65,828.87 2076.89,811.151 2079.13,793.569 2081.37,776.187 2083.62,759.068 2085.86,742.27 2088.1,725.85 2090.35,709.864 2092.59,694.365 2094.83,679.403 2097.07,665.028 2099.32,651.284 2101.56,638.218 2103.8,625.871 2106.05,614.284 2108.29,603.494 2110.53,593.537 2112.77,584.447 2115.02,576.256 2117.26,568.993 2119.5,562.667 2121.75,557.26 2123.99,552.761 2126.23,549.156 2128.47,546.43 2130.72,544.568 2132.96,543.551 2135.2,543.359 2137.45,543.972 2139.69,545.367 2141.93,547.518 2144.17,550.401 2146.42,553.987 2148.66,558.247 2150.9,563.151 2153.14,568.665 2155.39,574.755 2157.63,581.387 2159.87,588.521 2162.12,596.121 2164.36,604.144 2166.6,612.548 2168.84,621.29 2171.09,630.325 2173.33,639.605 2175.57,649.11 2177.82,658.845 2180.06,668.786 2182.3,678.907 2184.54,689.187 2186.79,699.601 2189.03,710.129 2191.27,720.751 2193.52,731.447 2195.76,742.198 2198,752.987 2200.24,763.799 2202.49,774.616 2204.73,785.425 2206.97,796.213 2209.22,806.967 2211.46,817.675 2213.7,828.327 2215.94,838.914 2218.19,849.427 2220.43,859.858 2222.67,870.202 2224.92,880.451 2227.16,890.603 2229.4,900.648 2231.64,910.578 2233.89,920.39 2236.13,930.081 2238.37,939.649 2240.61,949.09 2242.86,958.403 2245.1,967.584 2247.34,976.633 2249.59,985.546 2251.83,994.324 2254.07,1002.96 2256.31,1011.47 2258.56,1019.83 2260.8,1028.05 2263.04,1036.13 2265.29,1044.07 2267.53,1051.88 2269.77,1059.54 2272.01,1067.06 2274.26,1074.44 2276.5,1081.69 2278.74,1088.8 2280.99,1095.77 2283.23,1102.61 2285.47,1109.32 2287.71,1115.9 2289.96,1122.35 2292.2,1128.68 2294.44,1134.87 2296.69,1140.95 2298.93,1146.9 2301.17,1152.72 2303.41,1158.43 2305.66,1164.03 2307.9,1169.5 2310.14,1174.86 2312.39,1180.11 2314.63,1185.25 2316.87,1190.28 2319.11,1195.2 2321.36,1200.02 2323.6,1204.73 2325.84,1209.34 2328.08,1213.85 2330.33,1218.26 2332.57,1222.58 2334.81,1226.8 2337.06,1230.93 2339.3,1234.96 2341.54,1238.91 2343.78,1242.77 2346.03,1246.54 2348.27,1250.23 2350.51,1253.84 2352.76,1257.36 "/>
<polyline clip-path="url(#clip342)" style="stroke:#3da44d; stroke-linecap:round; stroke-linejoin:round; stroke-width:4; stroke-opacity:1; fill:none" points="112.177,1239.07 114.42,1238.07 116.663,1237.03 118.906,1235.94 121.148,1234.81 123.391,1233.63 125.634,1232.42 127.877,1231.16 130.12,1229.85 132.363,1228.51 134.605,1227.12 136.848,1225.69 139.091,1224.21 141.334,1222.7 143.577,1221.14 145.819,1219.54 148.062,1217.89 150.305,1216.2 152.548,1214.47 154.791,1212.7 157.034,1210.88 159.276,1209.02 161.519,1207.12 163.762,1205.17 166.005,1203.18 168.248,1201.15 170.491,1199.07 172.733,1196.94 174.976,1194.77 177.219,1192.56 179.462,1190.3 181.705,1188 183.947,1185.65 186.19,1183.25 188.433,1180.81 190.676,1178.32 192.919,1175.78 195.162,1173.19 197.404,1170.56 199.647,1167.88 201.89,1165.15 204.133,1162.37 206.376,1159.54 208.619,1156.67 210.861,1153.74 213.104,1150.76 215.347,1147.73 217.59,1144.64 219.833,1141.51 222.075,1138.32 224.318,1135.08 226.561,1131.79 228.804,1128.44 231.047,1125.03 233.29,1121.58 235.532,1118.06 237.775,1114.49 240.018,1110.86 242.261,1107.18 244.504,1103.43 246.746,1099.63 248.989,1095.77 251.232,1091.85 253.475,1087.87 255.718,1083.83 257.961,1079.72 260.203,1075.55 262.446,1071.32 264.689,1067.03 266.932,1062.67 269.175,1058.25 271.418,1053.76 273.66,1049.21 275.903,1044.59 278.146,1039.9 280.389,1035.14 282.632,1030.31 284.874,1025.42 287.117,1020.45 289.36,1015.41 291.603,1010.3 293.846,1005.12 296.089,999.865 298.331,994.535 300.574,989.131 302.817,983.651 305.06,978.095 307.303,972.462 309.545,966.751 311.788,960.962 314.031,955.094 316.274,949.145 318.517,943.117 320.76,937.007 323.002,930.814 325.245,924.54 327.488,918.182 329.731,911.74 331.974,905.214 334.217,898.602 336.459,891.904 338.702,885.118 340.945,878.245 343.188,871.284 345.431,864.233 347.673,857.092 349.916,849.861 352.159,842.539 354.402,835.126 356.645,827.62 358.888,820.023 361.13,812.332 363.373,804.548 365.616,796.67 367.859,788.699 370.102,780.633 372.344,772.472 374.587,764.217 376.83,755.867 379.073,747.422 381.316,738.882 383.559,730.246 385.801,721.515 388.044,712.688 390.287,703.766 392.53,694.749 394.773,685.636 397.016,676.429 399.258,667.131 401.501,657.742 403.744,648.263 405.987,638.693 408.23,629.031 410.472,619.278 412.715,609.434 414.958,599.5 417.201,589.478 419.444,579.367 421.687,569.17 423.929,558.889 426.172,548.527 428.415,538.085 430.658,527.566 432.901,516.974 435.143,506.312 437.386,495.583 439.629,484.792 441.872,473.942 444.115,463.04 446.358,452.088 448.6,441.093 450.843,430.059 453.086,418.993 455.329,407.901 457.572,396.789 459.815,385.663 462.057,374.531 464.3,363.399 466.543,352.275 468.786,341.168 471.029,330.084 473.271,319.033 475.514,308.022 477.757,297.047 480,286.119 482.243,275.257 484.486,264.478 486.728,253.801 488.971,243.248 491.214,232.836 493.457,222.588 495.7,212.524 497.942,202.666 500.185,193.036 502.428,183.656 504.671,174.549 506.914,165.739 509.157,157.249 511.399,149.105 513.642,141.331 515.885,133.953 518.128,126.996 520.371,120.487 522.614,114.453 524.856,108.921 527.099,103.919 529.342,99.4752 531.585,95.6187 533.828,92.3786 536.07,89.7847 538.313,87.8673 540.556,86.6573 542.799,86.1857 545.042,86.4843 547.285,87.5854 549.527,89.5217 551.77,92.3263 554.013,96.0328 556.256,100.676 558.499,106.292 560.741,112.921 562.984,120.566 565.227,129.224 567.47,138.887 569.713,149.545 571.956,161.185 574.198,173.791 576.441,187.341 578.684,201.813 580.927,217.179 583.17,233.409 585.413,250.471 587.655,268.326 589.898,286.935 592.141,306.254 594.384,326.237 596.627,346.833 598.869,367.989 601.112,389.648 603.355,411.75 605.598,434.232 607.841,457.026 610.084,480.062 612.326,503.268 614.569,526.565 616.812,549.875 619.055,573.113 621.298,596.223 623.54,619.18 625.783,641.93 628.026,664.418 630.269,686.597 632.512,708.42 634.755,729.847 636.997,750.841 639.24,771.368 641.483,791.4 643.726,810.91 645.969,829.877 648.212,848.285 650.454,866.119 652.697,883.37 654.94,900.033 657.183,916.106 659.426,931.591 661.668,946.495 663.911,960.828 666.154,974.605 668.397,987.843 670.64,1000.56 672.883,1012.8 675.125,1024.57 677.368,1035.87 679.611,1046.71 681.854,1057.08 684.097,1067.01 686.339,1076.51 688.582,1085.61 690.825,1094.3 693.068,1102.62 695.311,1110.57 697.554,1118.17 699.796,1125.42 702.039,1132.35 704.282,1138.97 706.525,1145.29 708.768,1151.31 711.011,1157.06 713.253,1162.54 715.496,1167.76 717.739,1172.73 719.982,1177.47 722.225,1181.98 724.467,1186.27 726.71,1190.35 728.953,1194.23 731.196,1197.92 733.439,1201.43 735.682,1204.76 737.924,1207.92 740.167,1210.93 742.41,1213.78 744.653,1216.47 746.896,1219.03 749.138,1221.45 751.381,1223.73 753.624,1225.89 755.867,1227.93 758.11,1229.84 760.353,1231.65 762.595,1233.34 764.838,1234.93 767.081,1236.42 769.324,1237.81 771.567,1239.11 773.81,1240.32 776.052,1241.44 778.295,1242.47 780.538,1243.42 782.781,1244.29 785.024,1245.08 787.266,1245.8 789.509,1246.44 791.752,1247.01 793.995,1247.5 796.238,1247.93 798.481,1248.29 800.723,1248.59 802.966,1248.82 805.209,1249 807.452,1249.11 809.695,1249.16 811.938,1249.16 814.18,1249.1 816.423,1248.98 818.666,1248.81 820.909,1248.58 823.152,1248.31 825.394,1247.98 827.637,1247.59 829.88,1247.16 832.123,1246.68 834.366,1246.15 836.609,1245.58 838.851,1244.95 841.094,1244.28 843.337,1243.56 845.58,1242.8 847.823,1241.99 850.065,1241.14 852.308,1240.24 854.551,1239.3 856.794,1238.31 859.037,1237.28 861.28,1236.21 863.522,1235.09 865.765,1233.93 868.008,1232.73 870.251,1231.48 872.494,1230.19 874.737,1228.86 876.979,1227.49 879.222,1226.07 881.465,1224.61 883.708,1223.11 885.951,1221.57 888.193,1219.98 890.436,1218.35 892.679,1216.67 894.922,1214.95 897.165,1213.19 899.408,1211.39 901.65,1209.54 903.893,1207.65 906.136,1205.72 908.379,1203.74 910.622,1201.72 912.864,1199.65 915.107,1197.54 917.35,1195.38 919.593,1193.18 921.836,1190.94 924.079,1188.64 926.321,1186.31 928.564,1183.92 930.807,1181.49 933.05,1179.02 935.293,1176.49 937.536,1173.92 939.778,1171.31 942.021,1168.64 944.264,1165.93 946.507,1163.16 948.75,1160.35 950.992,1157.49 953.235,1154.57 955.478,1151.61 957.721,1148.59 959.964,1145.53 962.207,1142.41 964.449,1139.24 966.692,1136.01 968.935,1132.73 971.178,1129.4 973.421,1126.01 975.663,1122.57 977.906,1119.07 980.149,1115.52 982.392,1111.91 984.635,1108.24 986.878,1104.52 989.12,1100.73 991.363,1096.89 993.606,1092.99 995.849,1089.02 998.092,1085 1000.33,1080.92 1002.58,1076.77 1004.82,1072.56 1007.06,1068.29 1009.31,1063.95 1011.55,1059.55 1013.79,1055.08 1016.03,1050.55 1018.28,1045.95 1020.52,1041.28 1022.76,1036.54 1025.01,1031.74 1027.25,1026.86 1029.49,1021.92 1031.73,1016.9 1033.98,1011.82 1036.22,1006.66 1038.46,1001.42 1040.71,996.118 1042.95,990.737 1045.19,985.281 1047.43,979.75 1049.68,974.141 1051.92,968.454 1054.16,962.69 1056.41,956.846 1058.65,950.922 1060.89,944.917 1063.13,938.832 1065.38,932.664 1067.62,926.414 1069.86,920.08 1072.1,913.663 1074.35,907.16 1076.59,900.572 1078.83,893.899 1081.08,887.138 1083.32,880.291 1085.56,873.355 1087.8,866.331 1090.05,859.218 1092.29,852.016 1094.53,844.723 1096.78,837.339 1099.02,829.864 1101.26,822.297 1103.5,814.638 1105.75,806.885 1107.99,799.039 1110.23,791.1 1112.48,783.065 1114.72,774.936 1116.96,766.715 1119.2,758.409 1121.45,750.015 1123.69,741.531 1125.93,732.954 1128.18,724.284 1130.42,715.519 1132.66,706.657 1134.9,697.698 1137.15,688.641 1139.39,679.486 1141.63,670.232 1143.88,660.88 1146.12,651.429 1148.36,641.881 1150.6,632.236 1152.85,622.495 1155.09,612.66 1157.33,602.731 1159.57,592.711 1161.82,582.601 1164.06,572.404 1166.3,562.123 1168.55,551.76 1170.79,541.317 1173.03,530.799 1175.27,520.208 1177.52,509.548 1179.76,498.824 1182,488.039 1184.25,477.198 1186.49,466.305 1188.73,455.365 1190.97,444.384 1193.22,433.367 1195.46,422.319 1197.7,411.246 1199.95,400.155 1202.19,389.051 1204.43,377.942 1206.67,366.833 1208.92,355.733 1211.16,344.649 1213.4,333.588 1215.65,322.557 1217.89,311.565 1220.13,300.621 1222.37,289.732 1224.62,278.904 1226.86,268.138 1229.1,257.454 1231.35,246.873 1233.59,236.418 1235.83,226.112 1238.07,215.977 1240.32,206.037 1242.56,196.315 1244.8,186.835 1247.04,177.621 1249.29,168.697 1251.53,160.09 1253.77,151.823 1256.02,143.922 1258.26,136.413 1260.5,129.323 1262.74,122.677 1264.99,116.503 1267.23,110.827 1269.47,105.678 1271.72,101.083 1273.96,97.0697 1276.2,93.6672 1278.44,90.9042 1280.69,88.8098 1282.93,87.4133 1285.17,86.7447 1287.42,86.834 1289.66,87.7116 1291.9,89.4084 1294.14,91.9554 1296.39,95.3841 1298.63,99.7263 1300.87,105.014 1303.12,111.28 1305.36,118.588 1307.6,126.965 1309.84,136.391 1312.09,146.844 1314.33,158.3 1316.57,170.732 1318.82,184.113 1321.06,198.411 1323.3,213.595 1325.54,229.63 1327.79,246.48 1330.03,264.104 1332.27,282.463 1334.51,301.513 1336.76,321.21 1339,341.505 1341.24,362.35 1343.49,383.693 1345.73,405.48 1347.97,427.657 1350.21,450.164 1352.46,472.943 1354.7,495.93 1356.94,519.063 1359.19,542.275 1361.43,565.496 1363.67,588.658 1365.91,611.688 1368.16,634.51 1370.4,657.048 1372.64,679.232 1374.89,701.058 1377.13,722.499 1379.37,743.524 1381.61,764.106 1383.86,784.218 1386.1,803.836 1388.34,822.942 1390.59,841.516 1392.83,859.545 1395.07,877.017 1397.31,893.921 1399.56,910.251 1401.8,926.005 1404.04,941.18 1406.29,955.779 1408.53,969.805 1410.77,983.267 1413.01,996.174 1415.26,1008.54 1417.5,1020.38 1419.74,1031.71 1421.98,1042.55 1424.23,1052.93 1426.47,1062.88 1428.71,1072.42 1430.96,1081.58 1433.2,1090.4 1435.44,1098.85 1437.68,1106.92 1439.93,1114.63 1442.17,1122 1444.41,1129.04 1446.66,1135.75 1448.9,1142.17 1451.14,1148.29 1453.38,1154.13 1455.63,1159.69 1457.87,1165.01 1460.11,1170.07 1462.36,1174.9 1464.6,1179.5 1466.84,1183.88 1469.08,1188.06 1471.33,1192.03 1473.57,1195.81 1475.81,1199.41 1478.06,1202.82 1480.3,1206.07 1482.54,1209.15 1484.78,1212.08 1487.03,1214.84 1489.27,1217.46 1491.51,1219.94 1493.76,1222.27 1496,1224.48 1498.24,1226.57 1500.48,1228.53 1502.73,1230.39 1504.97,1232.13 1507.21,1233.76 1509.46,1235.29 1511.7,1236.72 1513.94,1238.05 1516.18,1239.29 1518.43,1240.44 1520.67,1241.5 1522.91,1242.47 1525.15,1243.37 1527.4,1244.18 1529.64,1244.92 1531.88,1245.58 1534.13,1246.18 1536.37,1246.7 1538.61,1247.15 1540.85,1247.53 1543.1,1247.85 1545.34,1248.11 1547.58,1248.31 1549.83,1248.44 1552.07,1248.52 1554.31,1248.54 1556.55,1248.5 1558.8,1248.4 1561.04,1248.25 1563.28,1248.05 1565.53,1247.79 1567.77,1247.48 1570.01,1247.12 1572.25,1246.71 1574.5,1246.25 1576.74,1245.74 1578.98,1245.18 1581.23,1244.58 1583.47,1243.93 1585.71,1243.23 1587.95,1242.48 1590.2,1241.69 1592.44,1240.85 1594.68,1239.96 1596.93,1239.04 1599.17,1238.06 1601.41,1237.05 1603.65,1235.98 1605.9,1234.88 1608.14,1233.73 1610.38,1232.54 1612.62,1231.3 1614.87,1230.03 1617.11,1228.71 1619.35,1227.34 1621.6,1225.94 1623.84,1224.49 1626.08,1223 1628.32,1221.47 1630.57,1219.89 1632.81,1218.27 1635.05,1216.61 1637.3,1214.91 1639.54,1213.16 1641.78,1211.37 1644.02,1209.54 1646.27,1207.66 1648.51,1205.74 1650.75,1203.78 1653,1201.77 1655.24,1199.72 1657.48,1197.62 1659.72,1195.48 1661.97,1193.29 1664.21,1191.06 1666.45,1188.78 1668.7,1186.46 1670.94,1184.09 1673.18,1181.67 1675.42,1179.21 1677.67,1176.7 1679.91,1174.14 1682.15,1171.53 1684.4,1168.88 1686.64,1166.18 1688.88,1163.43 1691.12,1160.63 1693.37,1157.78 1695.61,1154.88 1697.85,1151.93 1700.09,1148.92 1702.34,1145.87 1704.58,1142.77 1706.82,1139.61 1709.07,1136.4 1711.31,1133.13 1713.55,1129.82 1715.79,1126.44 1718.04,1123.02 1720.28,1119.53 1722.52,1115.99 1724.77,1112.4 1727.01,1108.75 1729.25,1105.04 1731.49,1101.27 1733.74,1097.44 1735.98,1093.55 1738.22,1089.6 1740.47,1085.6 1742.71,1081.53 1744.95,1077.39 1747.19,1073.2 1749.44,1068.94 1751.68,1064.62 1753.92,1060.23 1756.17,1055.78 1758.41,1051.27 1760.65,1046.68 1762.89,1042.03 1765.14,1037.31 1767.38,1032.53 1769.62,1027.67 1771.87,1022.74 1774.11,1017.75 1776.35,1012.68 1778.59,1007.54 1780.84,1002.32 1783.08,997.038 1785.32,991.677 1787.56,986.242 1789.81,980.731 1792.05,975.143 1794.29,969.479 1796.54,963.736 1798.78,957.915 1801.02,952.015 1803.26,946.034 1805.51,939.972 1807.75,933.829 1809.99,927.603 1812.24,921.294 1814.48,914.902 1816.72,908.427 1818.96,901.868 1821.21,895.223 1823.45,888.492 1825.69,881.674 1827.94,874.768 1830.18,867.774 1832.42,860.689 1834.66,853.515 1836.91,846.249 1839.15,838.893 1841.39,831.444 1843.64,823.903 1845.88,816.269 1848.12,808.541 1850.36,800.72 1852.61,792.805 1854.85,784.796 1857.09,776.692 1859.34,768.494 1861.58,760.2 1863.82,751.812 1866.06,743.329 1868.31,734.752 1870.55,726.079 1872.79,717.312 1875.03,708.45 1877.28,699.494 1879.52,690.444 1881.76,681.3 1884.01,672.063 1886.25,662.733 1888.49,653.31 1890.73,643.796 1892.98,634.19 1895.22,624.493 1897.46,614.705 1899.71,604.829 1901.95,594.879 1904.19,584.86 1906.43,574.77 1908.68,564.607 1910.92,554.367 1913.16,544.052 1915.41,533.66 1917.65,523.191 1919.89,512.646 1922.13,502.027 1924.38,491.335 1926.62,480.575 1928.86,469.748 1931.11,458.858 1933.35,447.911 1935.59,436.911 1937.83,425.864 1940.08,414.777 1942.32,403.657 1944.56,392.511 1946.81,381.347 1949.05,370.174 1951.29,359.003 1953.53,347.843 1955.78,336.704 1958.02,325.599 1960.26,314.539 1962.5,303.536 1964.75,292.605 1966.99,281.758 1969.23,271.01 1971.48,260.377 1973.72,249.874 1975.96,239.518 1978.2,229.324 1980.45,219.312 1982.69,209.499 1984.93,199.903 1987.18,190.545 1989.42,181.445 1991.66,172.622 1993.9,164.099 1996.15,155.897 1998.39,148.038 2000.63,140.547 2002.88,133.446 2005.12,126.76 2007.36,120.514 2009.6,114.734 2011.85,109.446 2014.09,104.675 2016.33,100.454 2018.58,96.8294 2020.82,93.8436 2023.06,91.5378 2025.3,89.9501 2027.55,89.116 2029.79,89.0683 2032.03,89.837 2034.28,91.4498 2036.52,93.9312 2038.76,97.3036 2041,101.586 2043.25,106.796 2045.49,112.947 2047.73,120.052 2049.97,128.117 2052.22,137.151 2054.46,147.155 2056.7,158.132 2058.95,170.079 2061.19,182.991 2063.43,196.863 2065.67,211.683 2067.92,227.452 2070.16,244.133 2072.4,261.665 2074.65,279.989 2076.89,299.045 2079.13,318.774 2081.37,339.116 2083.62,360.01 2085.86,381.396 2088.1,403.213 2090.35,425.401 2092.59,447.899 2094.83,470.645 2097.07,493.579 2099.32,516.638 2101.56,539.762 2103.8,562.888 2106.05,585.955 2108.29,608.9 2110.53,631.661 2112.77,654.175 2115.02,676.38 2117.26,698.212 2119.5,719.641 2121.75,740.647 2123.99,761.206 2126.23,781.294 2128.47,800.891 2130.72,819.978 2132.96,838.541 2135.2,856.565 2137.45,874.04 2139.69,890.958 2141.93,907.313 2144.17,923.103 2146.42,938.326 2148.66,952.983 2150.9,967.081 2153.14,980.625 2155.39,993.624 2157.63,1006.09 2159.87,1018.04 2162.12,1029.48 2164.36,1040.45 2166.6,1050.95 2168.84,1061.02 2171.09,1070.67 2173.33,1079.95 2175.57,1088.84 2177.82,1097.34 2180.06,1105.46 2182.3,1113.23 2184.54,1120.64 2186.79,1127.73 2189.03,1134.49 2191.27,1140.94 2193.52,1147.1 2195.76,1152.98 2198,1158.59 2200.24,1163.94 2202.49,1169.04 2204.73,1173.9 2206.97,1178.53 2209.22,1182.94 2211.46,1187.14 2213.7,1191.14 2215.94,1194.94 2218.19,1198.55 2220.43,1201.99 2222.67,1205.25 2224.92,1208.34 2227.16,1211.27 2229.4,1214.05 2231.64,1216.68 2233.89,1219.18 2236.13,1221.54 2238.37,1223.76 2240.61,1225.87 2242.86,1227.85 2245.1,1229.72 2247.34,1231.47 2249.59,1233.12 2251.83,1234.66 2254.07,1236.11 2256.31,1237.45 2258.56,1238.71 2260.8,1239.87 2263.04,1240.94 2265.29,1241.93 2267.53,1242.84 2269.77,1243.67 2272.01,1244.42 2274.26,1245.1 2276.5,1245.7 2278.74,1246.24 2280.99,1246.71 2283.23,1247.1 2285.47,1247.44 2287.71,1247.7 2289.96,1247.91 2292.2,1248.05 2294.44,1248.14 2296.69,1248.16 2298.93,1248.13 2301.17,1248.04 2303.41,1247.9 2305.66,1247.7 2307.9,1247.45 2310.14,1247.15 2312.39,1246.8 2314.63,1246.39 2316.87,1245.94 2319.11,1245.43 2321.36,1244.88 2323.6,1244.28 2325.84,1243.63 2328.08,1242.94 2330.33,1242.19 2332.57,1241.41 2334.81,1240.57 2337.06,1239.69 2339.3,1238.77 2341.54,1237.81 2343.78,1236.79 2346.03,1235.74 2348.27,1234.64 2350.51,1233.5 2352.76,1232.31 "/>
<polyline clip-path="url(#clip342)" style="stroke:#c271d2; stroke-linecap:round; stroke-linejoin:round; stroke-width:4; stroke-opacity:1; fill:none" points="112.177,1239.07 114.42,1242.94 116.663,1246.72 118.906,1250.41 121.148,1254.03 123.391,1257.56 125.634,1261.01 127.877,1264.38 130.12,1267.68 132.363,1270.9 134.605,1274.05 136.848,1277.13 139.091,1280.13 141.334,1283.07 143.577,1285.94 145.819,1288.74 148.062,1291.48 150.305,1294.16 152.548,1296.77 154.791,1299.32 157.034,1301.81 159.276,1304.25 161.519,1306.62 163.762,1308.95 166.005,1311.21 168.248,1313.43 170.491,1315.59 172.733,1317.7 174.976,1319.76 177.219,1321.77 179.462,1323.73 181.705,1325.65 183.947,1327.52 186.19,1329.34 188.433,1331.12 190.676,1332.86 192.919,1334.56 195.162,1336.21 197.404,1337.83 199.647,1339.4 201.89,1340.94 204.133,1342.44 206.376,1343.9 208.619,1345.32 210.861,1346.71 213.104,1348.07 215.347,1349.39 217.59,1350.68 219.833,1351.93 222.075,1353.15 224.318,1354.35 226.561,1355.51 228.804,1356.64 231.047,1357.74 233.29,1358.81 235.532,1359.86 237.775,1360.87 240.018,1361.86 242.261,1362.82 244.504,1363.76 246.746,1364.67 248.989,1365.56 251.232,1366.42 253.475,1367.25 255.718,1368.07 257.961,1368.85 260.203,1369.62 262.446,1370.36 264.689,1371.08 266.932,1371.78 269.175,1372.46 271.418,1373.12 273.66,1373.75 275.903,1374.36 278.146,1374.96 280.389,1375.53 282.632,1376.08 284.874,1376.62 287.117,1377.13 289.36,1377.63 291.603,1378.11 293.846,1378.56 296.089,1379 298.331,1379.42 300.574,1379.83 302.817,1380.21 305.06,1380.58 307.303,1380.93 309.545,1381.26 311.788,1381.57 314.031,1381.87 316.274,1382.15 318.517,1382.41 320.76,1382.65 323.002,1382.88 325.245,1383.09 327.488,1383.28 329.731,1383.45 331.974,1383.61 334.217,1383.75 336.459,1383.87 338.702,1383.97 340.945,1384.06 343.188,1384.12 345.431,1384.17 347.673,1384.2 349.916,1384.22 352.159,1384.21 354.402,1384.19 356.645,1384.15 358.888,1384.08 361.13,1384 363.373,1383.9 365.616,1383.77 367.859,1383.63 370.102,1383.46 372.344,1383.28 374.587,1383.07 376.83,1382.84 379.073,1382.58 381.316,1382.3 383.559,1381.99 385.801,1381.66 388.044,1381.31 390.287,1380.92 392.53,1380.51 394.773,1380.07 397.016,1379.61 399.258,1379.11 401.501,1378.57 403.744,1378 405.987,1377.4 408.23,1376.77 410.472,1376.09 412.715,1375.38 414.958,1374.64 417.201,1373.85 419.444,1373.02 421.687,1372.15 423.929,1371.24 426.172,1370.28 428.415,1369.27 430.658,1368.22 432.901,1367.11 435.143,1365.94 437.386,1364.72 439.629,1363.43 441.872,1362.09 444.115,1360.67 446.358,1359.18 448.6,1357.62 450.843,1355.99 453.086,1354.27 455.329,1352.46 457.572,1350.57 459.815,1348.58 462.057,1346.5 464.3,1344.31 466.543,1342.01 468.786,1339.6 471.029,1337.07 473.271,1334.42 475.514,1331.64 477.757,1328.74 480,1325.71 482.243,1322.54 484.486,1319.22 486.728,1315.74 488.971,1312.07 491.214,1308.22 493.457,1304.16 495.7,1299.9 497.942,1295.41 500.185,1290.69 502.428,1285.72 504.671,1280.49 506.914,1275 509.157,1269.22 511.399,1263.16 513.642,1256.8 515.885,1250.13 518.128,1243.14 520.371,1235.82 522.614,1228.16 524.856,1220.15 527.099,1211.78 529.342,1203.04 531.585,1193.93 533.828,1184.42 536.07,1174.53 538.313,1164.22 540.556,1153.5 542.799,1142.36 545.042,1130.79 547.285,1118.78 549.527,1106.31 551.77,1093.4 554.013,1080.02 556.256,1066.17 558.499,1051.83 560.741,1036.97 562.984,1021.64 565.227,1005.86 567.47,989.691 569.713,973.164 571.956,956.327 574.198,939.225 576.441,921.902 578.684,904.406 580.927,886.782 583.17,869.078 585.413,851.342 587.655,833.624 589.898,815.972 592.141,798.437 594.384,781.07 596.627,763.923 598.869,747.048 601.112,730.498 603.355,714.328 605.598,698.59 607.841,683.342 610.084,668.639 612.326,654.537 614.569,641.094 616.812,628.368 619.055,616.418 621.298,605.281 623.54,594.961 625.783,585.484 628.026,576.87 630.269,569.138 632.512,562.302 634.755,556.37 636.997,551.349 639.24,547.24 641.483,544.04 643.726,541.744 645.969,540.341 648.212,539.816 650.454,540.15 652.697,541.323 654.94,543.307 657.183,546.071 659.426,549.582 661.668,553.8 663.911,558.684 666.154,564.187 668.397,570.259 670.64,576.845 672.883,583.887 675.125,591.322 677.368,599.142 679.611,607.359 681.854,615.939 684.097,624.85 686.339,634.062 688.582,643.545 690.825,653.272 693.068,663.214 695.311,673.348 697.554,683.647 699.796,694.088 702.039,704.649 704.282,715.308 706.525,726.046 708.768,736.843 711.011,747.682 713.253,758.546 715.496,769.42 717.739,780.29 719.982,791.142 722.225,801.964 724.467,812.746 726.71,823.478 728.953,834.149 731.196,844.744 733.439,855.255 735.682,865.677 737.924,876.004 740.167,886.23 742.41,896.351 744.653,906.361 746.896,916.257 749.138,926.034 751.381,935.689 753.624,945.218 755.867,954.618 758.11,963.886 760.353,973.02 762.595,982.017 764.838,990.877 767.081,999.597 769.324,1008.18 771.567,1016.61 773.81,1024.91 776.052,1033.06 778.295,1041.07 780.538,1048.94 782.781,1056.67 785.024,1064.26 787.266,1071.7 789.509,1079.02 791.752,1086.2 793.995,1093.24 796.238,1100.15 798.481,1106.93 800.723,1113.57 802.966,1120.08 805.209,1126.47 807.452,1132.73 809.695,1138.86 811.938,1144.87 814.18,1150.75 816.423,1156.52 818.666,1162.17 820.909,1167.7 823.152,1173.11 825.394,1178.41 827.637,1183.6 829.88,1188.68 832.123,1193.64 834.366,1198.51 836.609,1203.26 838.851,1207.92 841.094,1212.47 843.337,1216.92 845.58,1221.28 847.823,1225.54 850.065,1229.71 852.308,1233.78 854.551,1237.76 856.794,1241.66 859.037,1245.46 861.28,1249.19 863.522,1252.83 865.765,1256.38 868.008,1259.86 870.251,1263.26 872.494,1266.58 874.737,1269.83 876.979,1273 879.222,1276.1 881.465,1279.13 883.708,1282.09 885.951,1284.98 888.193,1287.8 890.436,1290.56 892.679,1293.26 894.922,1295.89 897.165,1298.46 899.408,1300.97 901.65,1303.43 903.893,1305.82 906.136,1308.16 908.379,1310.45 910.622,1312.68 912.864,1314.86 915.107,1316.99 917.35,1319.06 919.593,1321.09 921.836,1323.07 924.079,1325 926.321,1326.89 928.564,1328.73 930.807,1330.53 933.05,1332.28 935.293,1333.99 937.536,1335.66 939.778,1337.28 942.021,1338.87 944.264,1340.42 946.507,1341.93 948.75,1343.4 950.992,1344.84 953.235,1346.24 955.478,1347.6 957.721,1348.94 959.964,1350.23 962.207,1351.5 964.449,1352.73 966.692,1353.93 968.935,1355.1 971.178,1356.24 973.421,1357.35 975.663,1358.43 977.906,1359.48 980.149,1360.51 982.392,1361.5 984.635,1362.48 986.878,1363.42 989.12,1364.34 991.363,1365.23 993.606,1366.1 995.849,1366.95 998.092,1367.77 1000.33,1368.56 1002.58,1369.34 1004.82,1370.09 1007.06,1370.82 1009.31,1371.52 1011.55,1372.21 1013.79,1372.87 1016.03,1373.52 1018.28,1374.14 1020.52,1374.74 1022.76,1375.32 1025.01,1375.88 1027.25,1376.42 1029.49,1376.94 1031.73,1377.44 1033.98,1377.92 1036.22,1378.39 1038.46,1378.83 1040.71,1379.26 1042.95,1379.67 1045.19,1380.06 1047.43,1380.43 1049.68,1380.78 1051.92,1381.12 1054.16,1381.44 1056.41,1381.74 1058.65,1382.02 1060.89,1382.29 1063.13,1382.54 1065.38,1382.77 1067.62,1382.98 1069.86,1383.18 1072.1,1383.36 1074.35,1383.52 1076.59,1383.67 1078.83,1383.8 1081.08,1383.91 1083.32,1384 1085.56,1384.07 1087.8,1384.13 1090.05,1384.17 1092.29,1384.18 1094.53,1384.18 1096.78,1384.17 1099.02,1384.13 1101.26,1384.07 1103.5,1383.99 1105.75,1383.9 1107.99,1383.78 1110.23,1383.64 1112.48,1383.48 1114.72,1383.3 1116.96,1383.09 1119.2,1382.86 1121.45,1382.59 1123.69,1382.31 1125.93,1381.99 1128.18,1381.65 1130.42,1381.28 1132.66,1380.88 1134.9,1380.46 1137.15,1380.01 1139.39,1379.54 1141.63,1379.03 1143.88,1378.5 1146.12,1377.94 1148.36,1377.35 1150.6,1376.72 1152.85,1376.07 1155.09,1375.38 1157.33,1374.65 1159.57,1373.89 1161.82,1373.09 1164.06,1372.25 1166.3,1371.36 1168.55,1370.43 1170.79,1369.45 1173.03,1368.43 1175.27,1367.35 1177.52,1366.21 1179.76,1365.02 1182,1363.76 1184.25,1362.45 1186.49,1361.06 1188.73,1359.6 1190.97,1358.07 1193.22,1356.46 1195.46,1354.77 1197.7,1353 1199.95,1351.13 1202.19,1349.17 1204.43,1347.11 1206.67,1344.95 1208.92,1342.68 1211.16,1340.3 1213.4,1337.8 1215.65,1335.18 1217.89,1332.43 1220.13,1329.55 1222.37,1326.53 1224.62,1323.37 1226.86,1320.07 1229.1,1316.63 1231.35,1313.02 1233.59,1309.23 1235.83,1305.25 1238.07,1301.07 1240.32,1296.67 1242.56,1292.05 1244.8,1287.18 1247.04,1282.05 1249.29,1276.66 1251.53,1270.99 1253.77,1265.04 1256.02,1258.78 1258.26,1252.21 1260.5,1245.32 1262.74,1238.1 1264.99,1230.54 1267.23,1222.63 1269.47,1214.36 1271.72,1205.72 1273.96,1196.7 1276.2,1187.29 1278.44,1177.49 1280.69,1167.29 1282.93,1156.67 1285.17,1145.64 1287.42,1134.19 1289.66,1122.3 1291.9,1109.97 1294.14,1097.2 1296.39,1083.98 1298.63,1070.31 1300.87,1056.17 1303.12,1041.56 1305.36,1026.44 1307.6,1010.8 1309.84,994.699 1312.09,978.195 1314.33,961.343 1316.57,944.199 1318.82,926.819 1321.06,909.257 1323.3,891.567 1325.54,873.803 1327.79,856.019 1330.03,838.266 1332.27,820.596 1334.51,803.061 1336.76,785.712 1339,768.599 1341.24,751.771 1343.49,735.277 1345.73,719.168 1347.97,703.489 1350.21,688.289 1352.46,673.615 1354.7,659.513 1356.94,646.03 1359.19,633.209 1361.43,621.096 1363.67,609.736 1365.91,599.171 1368.16,589.445 1370.4,580.6 1372.64,572.674 1374.89,565.66 1377.13,559.553 1379.37,554.346 1381.61,550.033 1383.86,546.606 1386.1,544.053 1388.34,542.362 1390.59,541.517 1392.83,541.501 1395.07,542.295 1397.31,543.878 1399.56,546.227 1401.8,549.315 1404.04,553.116 1406.29,557.6 1408.53,562.735 1410.77,568.488 1413.01,574.822 1415.26,581.701 1417.5,589.083 1419.74,596.928 1421.98,605.19 1424.23,613.825 1426.47,622.783 1428.71,632.015 1430.96,641.468 1433.2,651.091 1435.44,660.908 1437.68,670.92 1439.93,681.103 1442.17,691.435 1444.41,701.895 1446.66,712.463 1448.9,723.118 1451.14,733.843 1453.38,744.62 1455.63,755.431 1457.87,766.26 1460.11,777.094 1462.36,787.917 1464.6,798.715 1466.84,809.478 1469.08,820.193 1471.33,830.849 1473.57,841.437 1475.81,851.948 1478.06,862.373 1480.3,872.707 1482.54,882.942 1484.78,893.074 1487.03,903.097 1489.27,913.009 1491.51,922.807 1493.76,932.485 1496,942.034 1498.24,951.454 1500.48,960.742 1502.73,969.897 1504.97,978.918 1507.21,987.803 1509.46,996.551 1511.7,1005.16 1513.94,1013.63 1516.18,1021.97 1518.43,1030.16 1520.67,1038.22 1522.91,1046.13 1525.15,1053.91 1527.4,1061.54 1529.64,1069.04 1531.88,1076.4 1534.13,1083.62 1536.37,1090.71 1538.61,1097.66 1540.85,1104.47 1543.1,1111.15 1545.34,1117.7 1547.58,1124.12 1549.83,1130.42 1552.07,1136.58 1554.31,1142.62 1556.55,1148.54 1558.8,1154.34 1561.04,1160.02 1563.28,1165.59 1565.53,1171.03 1567.77,1176.37 1570.01,1181.59 1572.25,1186.7 1574.5,1191.7 1576.74,1196.6 1578.98,1201.39 1581.23,1206.07 1583.47,1210.66 1585.71,1215.15 1587.95,1219.54 1590.2,1223.83 1592.44,1228.03 1594.68,1232.13 1596.93,1236.15 1599.17,1240.07 1601.41,1243.91 1603.65,1247.67 1605.9,1251.33 1608.14,1254.92 1610.38,1258.43 1612.62,1261.85 1614.87,1265.2 1617.11,1268.47 1619.35,1271.67 1621.6,1274.79 1623.84,1277.84 1626.08,1280.83 1628.32,1283.74 1630.57,1286.59 1632.81,1289.37 1635.05,1292.09 1637.3,1294.74 1639.54,1297.33 1641.78,1299.86 1644.02,1302.34 1646.27,1304.75 1648.51,1307.11 1650.75,1309.41 1653,1311.66 1655.24,1313.86 1657.48,1316 1659.72,1318.09 1661.97,1320.14 1664.21,1322.13 1666.45,1324.08 1668.7,1325.98 1670.94,1327.83 1673.18,1329.65 1675.42,1331.41 1677.67,1333.14 1679.91,1334.82 1682.15,1336.46 1684.4,1338.07 1686.64,1339.63 1688.88,1341.16 1691.12,1342.64 1693.37,1344.1 1695.61,1345.51 1697.85,1346.89 1700.09,1348.24 1702.34,1349.55 1704.58,1350.83 1706.82,1352.08 1709.07,1353.29 1711.31,1354.47 1713.55,1355.63 1715.79,1356.75 1718.04,1357.84 1720.28,1358.9 1722.52,1359.94 1724.77,1360.95 1727.01,1361.93 1729.25,1362.88 1731.49,1363.81 1733.74,1364.71 1735.98,1365.58 1738.22,1366.44 1740.47,1367.26 1742.71,1368.07 1744.95,1368.85 1747.19,1369.6 1749.44,1370.34 1751.68,1371.05 1753.92,1371.74 1756.17,1372.41 1758.41,1373.06 1760.65,1373.69 1762.89,1374.29 1765.14,1374.88 1767.38,1375.44 1769.62,1375.99 1771.87,1376.52 1774.11,1377.03 1776.35,1377.51 1778.59,1377.98 1780.84,1378.44 1783.08,1378.87 1785.32,1379.28 1787.56,1379.68 1789.81,1380.06 1792.05,1380.42 1794.29,1380.76 1796.54,1381.09 1798.78,1381.39 1801.02,1381.68 1803.26,1381.95 1805.51,1382.21 1807.75,1382.44 1809.99,1382.66 1812.24,1382.86 1814.48,1383.05 1816.72,1383.21 1818.96,1383.36 1821.21,1383.49 1823.45,1383.6 1825.69,1383.69 1827.94,1383.77 1830.18,1383.83 1832.42,1383.87 1834.66,1383.89 1836.91,1383.89 1839.15,1383.88 1841.39,1383.84 1843.64,1383.79 1845.88,1383.71 1848.12,1383.62 1850.36,1383.51 1852.61,1383.38 1854.85,1383.22 1857.09,1383.05 1859.34,1382.85 1861.58,1382.63 1863.82,1382.39 1866.06,1382.12 1868.31,1381.83 1870.55,1381.51 1872.79,1381.17 1875.03,1380.8 1877.28,1380.4 1879.52,1379.97 1881.76,1379.52 1884.01,1379.03 1886.25,1378.52 1888.49,1377.97 1890.73,1377.39 1892.98,1376.77 1895.22,1376.12 1897.46,1375.43 1899.71,1374.7 1901.95,1373.93 1904.19,1373.11 1906.43,1372.24 1908.68,1371.32 1910.92,1370.35 1913.16,1369.33 1915.41,1368.25 1917.65,1367.13 1919.89,1365.95 1922.13,1364.72 1924.38,1363.43 1926.62,1362.08 1928.86,1360.67 1931.11,1359.2 1933.35,1357.65 1935.59,1356.04 1937.83,1354.35 1940.08,1352.58 1942.32,1350.73 1944.56,1348.79 1946.81,1346.76 1949.05,1344.63 1951.29,1342.39 1953.53,1340.05 1955.78,1337.6 1958.02,1335.02 1960.26,1332.32 1962.5,1329.48 1964.75,1326.5 1966.99,1323.37 1969.23,1320.08 1971.48,1316.63 1973.72,1313.01 1975.96,1309.2 1978.2,1305.21 1980.45,1301.01 1982.69,1296.61 1984.93,1291.99 1987.18,1287.14 1989.42,1282.05 1991.66,1276.71 1993.9,1271.11 1996.15,1265.24 1998.39,1259.09 2000.63,1252.64 2002.88,1245.89 2005.12,1238.82 2007.36,1231.42 2009.6,1223.67 2011.85,1215.57 2014.09,1207.1 2016.33,1198.25 2018.58,1189.01 2020.82,1179.36 2023.06,1169.29 2025.3,1158.79 2027.55,1147.84 2029.79,1136.44 2032.03,1124.58 2034.28,1112.28 2036.52,1099.52 2038.76,1086.31 2041,1072.65 2043.25,1058.56 2045.49,1044.04 2047.73,1029.12 2049.97,1013.8 2052.22,998.097 2054.46,982.043 2056.7,965.657 2058.95,948.965 2061.19,931.995 2063.43,914.778 2065.67,897.347 2067.92,879.729 2070.16,861.984 2072.4,844.181 2074.65,826.392 2076.89,808.683 2079.13,791.12 2081.37,773.766 2083.62,756.683 2085.86,739.928 2088.1,723.56 2090.35,707.632 2092.59,692.198 2094.83,677.308 2097.07,663.01 2099.32,649.351 2101.56,636.375 2103.8,624.124 2106.05,612.638 2108.29,601.954 2110.53,592.109 2112.77,583.135 2115.02,575.066 2117.26,567.928 2119.5,561.725 2121.75,556.44 2123.99,552.06 2126.23,548.573 2128.47,545.963 2130.72,544.215 2132.96,543.31 2135.2,543.228 2137.45,543.948 2139.69,545.446 2141.93,547.699 2144.17,550.679 2146.42,554.36 2148.66,558.711 2150.9,563.701 2153.14,569.297 2155.39,575.466 2157.63,582.17 2159.87,589.373 2162.12,597.035 2164.36,605.115 2166.6,613.57 2168.84,622.357 2171.09,631.43 2173.33,640.741 2175.57,650.281 2177.82,660.048 2180.06,670.017 2182.3,680.164 2184.54,690.466 2186.79,700.9 2189.03,711.445 2191.27,722.08 2193.52,732.787 2195.76,743.547 2198,754.343 2200.24,765.159 2202.49,775.979 2204.73,786.788 2206.97,797.575 2209.22,808.325 2211.46,819.029 2213.7,829.675 2215.94,840.255 2218.19,850.759 2220.43,861.181 2222.67,871.514 2224.92,881.754 2227.16,891.894 2229.4,901.925 2231.64,911.841 2233.89,921.639 2236.13,931.316 2238.37,940.868 2240.61,950.294 2242.86,959.591 2245.1,968.756 2247.34,977.788 2249.59,986.685 2251.83,995.446 2254.07,1004.07 2256.31,1012.55 2258.56,1020.9 2260.8,1029.1 2263.04,1037.17 2265.29,1045.09 2267.53,1052.87 2269.77,1060.52 2272.01,1068.02 2274.26,1075.39 2276.5,1082.62 2278.74,1089.71 2280.99,1096.66 2283.23,1103.49 2285.47,1110.18 2287.71,1116.74 2289.96,1123.18 2292.2,1129.49 2294.44,1135.67 2296.69,1141.73 2298.93,1147.66 2301.17,1153.47 2303.41,1159.17 2305.66,1164.74 2307.9,1170.21 2310.14,1175.55 2312.39,1180.79 2314.63,1185.91 2316.87,1190.93 2319.11,1195.83 2321.36,1200.64 2323.6,1205.34 2325.84,1209.94 2328.08,1214.43 2330.33,1218.83 2332.57,1223.14 2334.81,1227.34 2337.06,1231.46 2339.3,1235.48 2341.54,1239.42 2343.78,1243.27 2346.03,1247.03 2348.27,1250.71 2350.51,1254.3 2352.76,1257.81 "/>
<path clip-path="url(#clip340)" d="M186.863 352.309 L500.018 352.309 L500.018 93.1086 L186.863 93.1086  Z" fill="#ffffff" fill-rule="evenodd" fill-opacity="1"/>
<polyline clip-path="url(#clip340)" style="stroke:#000000; stroke-linecap:round; stroke-linejoin:round; stroke-width:4; stroke-opacity:1; fill:none" points="186.863,352.309 500.018,352.309 500.018,93.1086 186.863,93.1086 186.863,352.309 "/>
<polyline clip-path="url(#clip340)" style="stroke:#009af9; stroke-linecap:round; stroke-linejoin:round; stroke-width:4; stroke-opacity:1; fill:none" points="211.758,144.949 361.13,144.949 "/>
<path clip-path="url(#clip340)" d="M386.026 151.997 L386.026 136.303 L390.285 136.303 L390.285 151.835 Q390.285 155.516 391.72 157.368 Q393.155 159.196 396.026 159.196 Q399.475 159.196 401.465 156.997 Q403.479 154.798 403.479 151.002 L403.479 136.303 L407.739 136.303 L407.739 162.229 L403.479 162.229 L403.479 158.247 Q401.928 160.608 399.868 161.766 Q397.831 162.9 395.123 162.9 Q390.655 162.9 388.34 160.122 Q386.026 157.344 386.026 151.997 M396.743 135.678 L396.743 135.678 Z" fill="#000000" fill-rule="nonzero" fill-opacity="1" /><path clip-path="url(#clip340)" d="M416.118 126.21 L425.933 126.21 L425.933 129.52 L420.377 129.52 L420.377 165.168 L425.933 165.168 L425.933 168.479 L416.118 168.479 L416.118 126.21 Z" fill="#000000" fill-rule="nonzero" fill-opacity="1" /><path clip-path="url(#clip340)" d="M436.419 158.293 L444.058 158.293 L444.058 131.928 L435.748 133.595 L435.748 129.335 L444.011 127.669 L448.687 127.669 L448.687 158.293 L456.326 158.293 L456.326 162.229 L436.419 162.229 L436.419 158.293 Z" fill="#000000" fill-rule="nonzero" fill-opacity="1" /><path clip-path="url(#clip340)" d="M475.122 126.21 L475.122 168.479 L465.308 168.479 L465.308 165.168 L470.84 165.168 L470.84 129.52 L465.308 129.52 L465.308 126.21 L475.122 126.21 Z" fill="#000000" fill-rule="nonzero" fill-opacity="1" /><polyline clip-path="url(#clip340)" style="stroke:#e26f46; stroke-linecap:round; stroke-linejoin:round; stroke-width:4; stroke-opacity:1; fill:none" points="211.758,196.789 361.13,196.789 "/>
<path clip-path="url(#clip340)" d="M386.026 203.837 L386.026 188.143 L390.285 188.143 L390.285 203.675 Q390.285 207.356 391.72 209.208 Q393.155 211.036 396.026 211.036 Q399.475 211.036 401.465 208.837 Q403.479 206.638 403.479 202.842 L403.479 188.143 L407.739 188.143 L407.739 214.069 L403.479 214.069 L403.479 210.087 Q401.928 212.448 399.868 213.606 Q397.831 214.74 395.123 214.74 Q390.655 214.74 388.34 211.962 Q386.026 209.184 386.026 203.837 M396.743 187.518 L396.743 187.518 Z" fill="#000000" fill-rule="nonzero" fill-opacity="1" /><path clip-path="url(#clip340)" d="M416.118 178.05 L425.933 178.05 L425.933 181.36 L420.377 181.36 L420.377 217.008 L425.933 217.008 L425.933 220.319 L416.118 220.319 L416.118 178.05 Z" fill="#000000" fill-rule="nonzero" fill-opacity="1" /><path clip-path="url(#clip340)" d="M439.637 210.133 L455.956 210.133 L455.956 214.069 L434.012 214.069 L434.012 210.133 Q436.674 207.379 441.257 202.749 Q445.863 198.096 447.044 196.754 Q449.289 194.231 450.169 192.495 Q451.072 190.735 451.072 189.046 Q451.072 186.291 449.127 184.555 Q447.206 182.819 444.104 182.819 Q441.905 182.819 439.451 183.583 Q437.021 184.347 434.243 185.897 L434.243 181.175 Q437.067 180.041 439.521 179.462 Q441.974 178.884 444.011 178.884 Q449.382 178.884 452.576 181.569 Q455.771 184.254 455.771 188.745 Q455.771 190.874 454.961 192.796 Q454.173 194.694 452.067 197.286 Q451.488 197.958 448.386 201.175 Q445.285 204.37 439.637 210.133 Z" fill="#000000" fill-rule="nonzero" fill-opacity="1" /><path clip-path="url(#clip340)" d="M475.122 178.05 L475.122 220.319 L465.308 220.319 L465.308 217.008 L470.84 217.008 L470.84 181.36 L465.308 181.36 L465.308 178.05 L475.122 178.05 Z" fill="#000000" fill-rule="nonzero" fill-opacity="1" /><polyline clip-path="url(#clip340)" style="stroke:#3da44d; stroke-linecap:round; stroke-linejoin:round; stroke-width:4; stroke-opacity:1; fill:none" points="211.758,248.629 361.13,248.629 "/>
<path clip-path="url(#clip340)" d="M386.026 255.677 L386.026 239.983 L390.285 239.983 L390.285 255.515 Q390.285 259.196 391.72 261.048 Q393.155 262.876 396.026 262.876 Q399.475 262.876 401.465 260.677 Q403.479 258.478 403.479 254.682 L403.479 239.983 L407.739 239.983 L407.739 265.909 L403.479 265.909 L403.479 261.927 Q401.928 264.288 399.868 265.446 Q397.831 266.58 395.123 266.58 Q390.655 266.58 388.34 263.802 Q386.026 261.024 386.026 255.677 M396.743 239.358 L396.743 239.358 Z" fill="#000000" fill-rule="nonzero" fill-opacity="1" /><path clip-path="url(#clip340)" d="M416.118 229.89 L425.933 229.89 L425.933 233.2 L420.377 233.2 L420.377 268.848 L425.933 268.848 L425.933 272.159 L416.118 272.159 L416.118 229.89 Z" fill="#000000" fill-rule="nonzero" fill-opacity="1" /><path clip-path="url(#clip340)" d="M436.419 261.973 L444.058 261.973 L444.058 235.608 L435.748 237.275 L435.748 233.015 L444.011 231.349 L448.687 231.349 L448.687 261.973 L456.326 261.973 L456.326 265.909 L436.419 265.909 L436.419 261.973 Z" fill="#000000" fill-rule="nonzero" fill-opacity="1" /><path clip-path="url(#clip340)" d="M475.122 229.89 L475.122 272.159 L465.308 272.159 L465.308 268.848 L470.84 268.848 L470.84 233.2 L465.308 233.2 L465.308 229.89 L475.122 229.89 Z" fill="#000000" fill-rule="nonzero" fill-opacity="1" /><polyline clip-path="url(#clip340)" style="stroke:#c271d2; stroke-linecap:round; stroke-linejoin:round; stroke-width:4; stroke-opacity:1; fill:none" points="211.758,300.469 361.13,300.469 "/>
<path clip-path="url(#clip340)" d="M386.026 307.517 L386.026 291.823 L390.285 291.823 L390.285 307.355 Q390.285 311.036 391.72 312.888 Q393.155 314.716 396.026 314.716 Q399.475 314.716 401.465 312.517 Q403.479 310.318 403.479 306.522 L403.479 291.823 L407.739 291.823 L407.739 317.749 L403.479 317.749 L403.479 313.767 Q401.928 316.128 399.868 317.286 Q397.831 318.42 395.123 318.42 Q390.655 318.42 388.34 315.642 Q386.026 312.864 386.026 307.517 M396.743 291.198 L396.743 291.198 Z" fill="#000000" fill-rule="nonzero" fill-opacity="1" /><path clip-path="url(#clip340)" d="M416.118 281.73 L425.933 281.73 L425.933 285.04 L420.377 285.04 L420.377 320.688 L425.933 320.688 L425.933 323.999 L416.118 323.999 L416.118 281.73 Z" fill="#000000" fill-rule="nonzero" fill-opacity="1" /><path clip-path="url(#clip340)" d="M439.637 313.813 L455.956 313.813 L455.956 317.749 L434.012 317.749 L434.012 313.813 Q436.674 311.059 441.257 306.429 Q445.863 301.776 447.044 300.434 Q449.289 297.911 450.169 296.175 Q451.072 294.415 451.072 292.726 Q451.072 289.971 449.127 288.235 Q447.206 286.499 444.104 286.499 Q441.905 286.499 439.451 287.263 Q437.021 288.027 434.243 289.577 L434.243 284.855 Q437.067 283.721 439.521 283.142 Q441.974 282.564 444.011 282.564 Q449.382 282.564 452.576 285.249 Q455.771 287.934 455.771 292.425 Q455.771 294.554 454.961 296.476 Q454.173 298.374 452.067 300.966 Q451.488 301.638 448.386 304.855 Q445.285 308.05 439.637 313.813 Z" fill="#000000" fill-rule="nonzero" fill-opacity="1" /><path clip-path="url(#clip340)" d="M475.122 281.73 L475.122 323.999 L465.308 323.999 L465.308 320.688 L470.84 320.688 L470.84 285.04 L465.308 285.04 L465.308 281.73 L475.122 281.73 Z" fill="#000000" fill-rule="nonzero" fill-opacity="1" /></svg>
