<?xml version="1.0" encoding="utf-8"?>
<svg xmlns="http://www.w3.org/2000/svg" xmlns:xlink="http://www.w3.org/1999/xlink" width="600" height="400" viewBox="0 0 2400 1600">
<defs>
  <clipPath id="clip530">
    <rect x="0" y="0" width="2400" height="1600"/>
  </clipPath>
</defs>
<path clip-path="url(#clip530)" d="M0 1600 L2400 1600 L2400 0 L0 0  Z" fill="#ffffff" fill-rule="evenodd" fill-opacity="1"/>
<defs>
  <clipPath id="clip531">
    <rect x="480" y="0" width="1681" height="1600"/>
  </clipPath>
</defs>
<path clip-path="url(#clip530)" d="M112.177 1423.18 L2352.76 1423.18 L2352.76 47.2441 L112.177 47.2441  Z" fill="#ffffff" fill-rule="evenodd" fill-opacity="1"/>
<defs>
  <clipPath id="clip532">
    <rect x="112" y="47" width="2242" height="1377"/>
  </clipPath>
</defs>
<polyline clip-path="url(#clip532)" style="stroke:#000000; stroke-linecap:round; stroke-linejoin:round; stroke-width:2; stroke-opacity:0.1; fill:none" points="112.177,1423.18 112.177,47.2441 "/>
<polyline clip-path="url(#clip532)" style="stroke:#000000; stroke-linecap:round; stroke-linejoin:round; stroke-width:2; stroke-opacity:0.1; fill:none" points="560.293,1423.18 560.293,47.2441 "/>
<polyline clip-path="url(#clip532)" style="stroke:#000000; stroke-linecap:round; stroke-linejoin:round; stroke-width:2; stroke-opacity:0.1; fill:none" points="1008.41,1423.18 1008.41,47.2441 "/>
<polyline clip-path="url(#clip532)" style="stroke:#000000; stroke-linecap:round; stroke-linejoin:round; stroke-width:2; stroke-opacity:0.1; fill:none" points="1456.52,1423.18 1456.52,47.2441 "/>
<polyline clip-path="url(#clip532)" style="stroke:#000000; stroke-linecap:round; stroke-linejoin:round; stroke-width:2; stroke-opacity:0.1; fill:none" points="1904.64,1423.18 1904.64,47.2441 "/>
<polyline clip-path="url(#clip532)" style="stroke:#000000; stroke-linecap:round; stroke-linejoin:round; stroke-width:2; stroke-opacity:0.1; fill:none" points="2352.76,1423.18 2352.76,47.2441 "/>
<polyline clip-path="url(#clip530)" style="stroke:#000000; stroke-linecap:round; stroke-linejoin:round; stroke-width:4; stroke-opacity:1; fill:none" points="112.177,1423.18 2352.76,1423.18 "/>
<polyline clip-path="url(#clip530)" style="stroke:#000000; stroke-linecap:round; stroke-linejoin:round; stroke-width:4; stroke-opacity:1; fill:none" points="112.177,1423.18 112.177,1404.28 "/>
<polyline clip-path="url(#clip530)" style="stroke:#000000; stroke-linecap:round; stroke-linejoin:round; stroke-width:4; stroke-opacity:1; fill:none" points="560.293,1423.18 560.293,1404.28 "/>
<polyline clip-path="url(#clip530)" style="stroke:#000000; stroke-linecap:round; stroke-linejoin:round; stroke-width:4; stroke-opacity:1; fill:none" points="1008.41,1423.18 1008.41,1404.28 "/>
<polyline clip-path="url(#clip530)" style="stroke:#000000; stroke-linecap:round; stroke-linejoin:round; stroke-width:4; stroke-opacity:1; fill:none" points="1456.52,1423.18 1456.52,1404.28 "/>
<polyline clip-path="url(#clip530)" style="stroke:#000000; stroke-linecap:round; stroke-linejoin:round; stroke-width:4; stroke-opacity:1; fill:none" points="1904.64,1423.18 1904.64,1404.28 "/>
<polyline clip-path="url(#clip530)" style="stroke:#000000; stroke-linecap:round; stroke-linejoin:round; stroke-width:4; stroke-opacity:1; fill:none" points="2352.76,1423.18 2352.76,1404.28 "/>
<path clip-path="url(#clip530)" d="M112.177 1454.1 Q108.566 1454.1 106.737 1457.66 Q104.932 1461.2 104.932 1468.33 Q104.932 1475.44 106.737 1479.01 Q108.566 1482.55 112.177 1482.55 Q115.811 1482.55 117.617 1479.01 Q119.446 1475.44 119.446 1468.33 Q119.446 1461.2 117.617 1457.66 Q115.811 1454.1 112.177 1454.1 M112.177 1450.39 Q117.987 1450.39 121.043 1455 Q124.122 1459.58 124.122 1468.33 Q124.122 1477.06 121.043 1481.67 Q117.987 1486.25 112.177 1486.25 Q106.367 1486.25 103.288 1481.67 Q100.233 1477.06 100.233 1468.33 Q100.233 1459.58 103.288 1455 Q106.367 1450.39 112.177 1450.39 Z" fill="#000000" fill-rule="nonzero" fill-opacity="1" /><path clip-path="url(#clip530)" d="M554.946 1481.64 L571.265 1481.64 L571.265 1485.58 L549.321 1485.58 L549.321 1481.64 Q551.983 1478.89 556.566 1474.26 Q561.173 1469.61 562.353 1468.27 Q564.598 1465.74 565.478 1464.01 Q566.381 1462.25 566.381 1460.56 Q566.381 1457.8 564.436 1456.07 Q562.515 1454.33 559.413 1454.33 Q557.214 1454.33 554.761 1455.09 Q552.33 1455.86 549.552 1457.41 L549.552 1452.69 Q552.376 1451.55 554.83 1450.97 Q557.284 1450.39 559.321 1450.39 Q564.691 1450.39 567.885 1453.08 Q571.08 1455.77 571.08 1460.26 Q571.08 1462.39 570.27 1464.31 Q569.483 1466.2 567.376 1468.8 Q566.798 1469.47 563.696 1472.69 Q560.594 1475.88 554.946 1481.64 Z" fill="#000000" fill-rule="nonzero" fill-opacity="1" /><path clip-path="url(#clip530)" d="M1011.42 1455.09 L999.612 1473.54 L1011.42 1473.54 L1011.42 1455.09 M1010.19 1451.02 L1016.07 1451.02 L1016.07 1473.54 L1021 1473.54 L1021 1477.43 L1016.07 1477.43 L1016.07 1485.58 L1011.42 1485.58 L1011.42 1477.43 L995.816 1477.43 L995.816 1472.92 L1010.19 1451.02 Z" fill="#000000" fill-rule="nonzero" fill-opacity="1" /><path clip-path="url(#clip530)" d="M1456.93 1466.44 Q1453.78 1466.44 1451.93 1468.59 Q1450.1 1470.74 1450.1 1474.49 Q1450.1 1478.22 1451.93 1480.39 Q1453.78 1482.55 1456.93 1482.55 Q1460.08 1482.55 1461.91 1480.39 Q1463.76 1478.22 1463.76 1474.49 Q1463.76 1470.74 1461.91 1468.59 Q1460.08 1466.44 1456.93 1466.44 M1466.21 1451.78 L1466.21 1456.04 Q1464.45 1455.21 1462.65 1454.77 Q1460.86 1454.33 1459.11 1454.33 Q1454.48 1454.33 1452.02 1457.45 Q1449.59 1460.58 1449.24 1466.9 Q1450.61 1464.89 1452.67 1463.82 Q1454.73 1462.73 1457.21 1462.73 Q1462.42 1462.73 1465.42 1465.9 Q1468.46 1469.05 1468.46 1474.49 Q1468.46 1479.82 1465.31 1483.03 Q1462.16 1486.25 1456.93 1486.25 Q1450.93 1486.25 1447.76 1481.67 Q1444.59 1477.06 1444.59 1468.33 Q1444.59 1460.14 1448.48 1455.28 Q1452.37 1450.39 1458.92 1450.39 Q1460.68 1450.39 1462.46 1450.74 Q1464.27 1451.09 1466.21 1451.78 Z" fill="#000000" fill-rule="nonzero" fill-opacity="1" /><path clip-path="url(#clip530)" d="M1904.64 1469.17 Q1901.31 1469.17 1899.39 1470.95 Q1897.49 1472.73 1897.49 1475.86 Q1897.49 1478.98 1899.39 1480.77 Q1901.31 1482.55 1904.64 1482.55 Q1907.97 1482.55 1909.89 1480.77 Q1911.82 1478.96 1911.82 1475.86 Q1911.82 1472.73 1909.89 1470.95 Q1908 1469.17 1904.64 1469.17 M1899.96 1467.18 Q1896.96 1466.44 1895.27 1464.38 Q1893.6 1462.32 1893.6 1459.35 Q1893.6 1455.21 1896.54 1452.8 Q1899.5 1450.39 1904.64 1450.39 Q1909.8 1450.39 1912.74 1452.8 Q1915.68 1455.21 1915.68 1459.35 Q1915.68 1462.32 1913.99 1464.38 Q1912.33 1466.44 1909.34 1467.18 Q1912.72 1467.96 1914.59 1470.26 Q1916.49 1472.55 1916.49 1475.86 Q1916.49 1480.88 1913.41 1483.57 Q1910.36 1486.25 1904.64 1486.25 Q1898.92 1486.25 1895.84 1483.57 Q1892.79 1480.88 1892.79 1475.86 Q1892.79 1472.55 1894.69 1470.26 Q1896.58 1467.96 1899.96 1467.18 M1898.25 1459.79 Q1898.25 1462.48 1899.92 1463.98 Q1901.61 1465.49 1904.64 1465.49 Q1907.65 1465.49 1909.34 1463.98 Q1911.05 1462.48 1911.05 1459.79 Q1911.05 1457.11 1909.34 1455.6 Q1907.65 1454.1 1904.64 1454.1 Q1901.61 1454.1 1899.92 1455.6 Q1898.25 1457.11 1898.25 1459.79 Z" fill="#000000" fill-rule="nonzero" fill-opacity="1" /><path clip-path="url(#clip530)" d="M2327.44 1481.64 L2335.08 1481.64 L2335.08 1455.28 L2326.77 1456.95 L2326.77 1452.69 L2335.04 1451.02 L2339.71 1451.02 L2339.71 1481.64 L2347.35 1481.64 L2347.35 1485.58 L2327.44 1485.58 L2327.44 1481.64 Z" fill="#000000" fill-rule="nonzero" fill-opacity="1" /><path clip-path="url(#clip530)" d="M2366.8 1454.1 Q2363.18 1454.1 2361.36 1457.66 Q2359.55 1461.2 2359.55 1468.33 Q2359.55 1475.44 2361.36 1479.01 Q2363.18 1482.55 2366.8 1482.55 Q2370.43 1482.55 2372.23 1479.01 Q2374.06 1475.44 2374.06 1468.33 Q2374.06 1461.2 2372.23 1457.66 Q2370.43 1454.1 2366.8 1454.1 M2366.8 1450.39 Q2372.61 1450.39 2375.66 1455 Q2378.74 1459.58 2378.74 1468.33 Q2378.74 1477.06 2375.66 1481.67 Q2372.61 1486.25 2366.8 1486.25 Q2360.99 1486.25 2357.91 1481.67 Q2354.85 1477.06 2354.85 1468.33 Q2354.85 1459.58 2357.91 1455 Q2360.99 1450.39 2366.8 1450.39 Z" fill="#000000" fill-rule="nonzero" fill-opacity="1" /><path clip-path="url(#clip530)" d="M1231.53 1522.27 L1231.53 1532.4 L1243.59 1532.4 L1243.59 1536.95 L1231.53 1536.95 L1231.53 1556.3 Q1231.53 1560.66 1232.71 1561.9 Q1233.91 1563.14 1237.58 1563.14 L1243.59 1563.14 L1243.59 1568.04 L1237.58 1568.04 Q1230.8 1568.04 1228.22 1565.53 Q1225.64 1562.98 1225.64 1556.3 L1225.64 1536.95 L1221.34 1536.95 L1221.34 1532.4 L1225.64 1532.4 L1225.64 1522.27 L1231.53 1522.27 Z" fill="#000000" fill-rule="nonzero" fill-opacity="1" /><polyline clip-path="url(#clip532)" style="stroke:#000000; stroke-linecap:round; stroke-linejoin:round; stroke-width:2; stroke-opacity:0.1; fill:none" points="112.177,1239.07 2352.76,1239.07 "/>
<polyline clip-path="url(#clip532)" style="stroke:#000000; stroke-linecap:round; stroke-linejoin:round; stroke-width:2; stroke-opacity:0.1; fill:none" points="112.177,1043.73 2352.76,1043.73 "/>
<polyline clip-path="url(#clip532)" style="stroke:#000000; stroke-linecap:round; stroke-linejoin:round; stroke-width:2; stroke-opacity:0.1; fill:none" points="112.177,848.383 2352.76,848.383 "/>
<polyline clip-path="url(#clip532)" style="stroke:#000000; stroke-linecap:round; stroke-linejoin:round; stroke-width:2; stroke-opacity:0.1; fill:none" points="112.177,653.04 2352.76,653.04 "/>
<polyline clip-path="url(#clip532)" style="stroke:#000000; stroke-linecap:round; stroke-linejoin:round; stroke-width:2; stroke-opacity:0.1; fill:none" points="112.177,457.697 2352.76,457.697 "/>
<polyline clip-path="url(#clip532)" style="stroke:#000000; stroke-linecap:round; stroke-linejoin:round; stroke-width:2; stroke-opacity:0.1; fill:none" points="112.177,262.353 2352.76,262.353 "/>
<polyline clip-path="url(#clip532)" style="stroke:#000000; stroke-linecap:round; stroke-linejoin:round; stroke-width:2; stroke-opacity:0.1; fill:none" points="112.177,67.0101 2352.76,67.0101 "/>
<polyline clip-path="url(#clip530)" style="stroke:#000000; stroke-linecap:round; stroke-linejoin:round; stroke-width:4; stroke-opacity:1; fill:none" points="112.177,1423.18 112.177,47.2441 "/>
<polyline clip-path="url(#clip530)" style="stroke:#000000; stroke-linecap:round; stroke-linejoin:round; stroke-width:4; stroke-opacity:1; fill:none" points="112.177,1239.07 131.075,1239.07 "/>
<polyline clip-path="url(#clip530)" style="stroke:#000000; stroke-linecap:round; stroke-linejoin:round; stroke-width:4; stroke-opacity:1; fill:none" points="112.177,1043.73 131.075,1043.73 "/>
<polyline clip-path="url(#clip530)" style="stroke:#000000; stroke-linecap:round; stroke-linejoin:round; stroke-width:4; stroke-opacity:1; fill:none" points="112.177,848.383 131.075,848.383 "/>
<polyline clip-path="url(#clip530)" style="stroke:#000000; stroke-linecap:round; stroke-linejoin:round; stroke-width:4; stroke-opacity:1; fill:none" points="112.177,653.04 131.075,653.04 "/>
<polyline clip-path="url(#clip530)" style="stroke:#000000; stroke-linecap:round; stroke-linejoin:round; stroke-width:4; stroke-opacity:1; fill:none" points="112.177,457.697 131.075,457.697 "/>
<polyline clip-path="url(#clip530)" style="stroke:#000000; stroke-linecap:round; stroke-linejoin:round; stroke-width:4; stroke-opacity:1; fill:none" points="112.177,262.353 131.075,262.353 "/>
<polyline clip-path="url(#clip530)" style="stroke:#000000; stroke-linecap:round; stroke-linejoin:round; stroke-width:4; stroke-opacity:1; fill:none" points="112.177,67.0101 131.075,67.0101 "/>
<path clip-path="url(#clip530)" d="M56.2699 1252.41 L63.9087 1252.41 L63.9087 1226.05 L55.5986 1227.72 L55.5986 1223.46 L63.8624 1221.79 L68.5383 1221.79 L68.5383 1252.41 L76.1772 1252.41 L76.1772 1256.35 L56.2699 1256.35 L56.2699 1252.41 Z" fill="#000000" fill-rule="nonzero" fill-opacity="1" /><path clip-path="url(#clip530)" d="M59.8578 1057.07 L76.1772 1057.07 L76.1772 1061.01 L54.2328 1061.01 L54.2328 1057.07 Q56.8949 1054.32 61.4782 1049.69 Q66.0846 1045.03 67.2652 1043.69 Q69.5105 1041.17 70.3902 1039.43 Q71.2929 1037.67 71.2929 1035.98 Q71.2929 1033.23 69.3485 1031.49 Q67.4272 1029.76 64.3254 1029.76 Q62.1263 1029.76 59.6726 1030.52 Q57.2421 1031.28 54.4643 1032.84 L54.4643 1028.11 Q57.2884 1026.98 59.7421 1026.4 Q62.1958 1025.82 64.2328 1025.82 Q69.6031 1025.82 72.7976 1028.51 Q75.992 1031.19 75.992 1035.68 Q75.992 1037.81 75.1818 1039.73 Q74.3948 1041.63 72.2883 1044.22 Q71.7096 1044.9 68.6078 1048.11 Q65.5059 1051.31 59.8578 1057.07 Z" fill="#000000" fill-rule="nonzero" fill-opacity="1" /><path clip-path="url(#clip530)" d="M69.0476 847.029 Q72.404 847.747 74.279 850.015 Q76.1772 852.284 76.1772 855.617 Q76.1772 860.733 72.6587 863.534 Q69.1402 866.335 62.6587 866.335 Q60.4828 866.335 58.168 865.895 Q55.8764 865.478 53.4227 864.622 L53.4227 860.108 Q55.3671 861.242 57.6819 861.821 Q59.9967 862.399 62.5198 862.399 Q66.918 862.399 69.2096 860.663 Q71.5244 858.927 71.5244 855.617 Q71.5244 852.561 69.3717 850.849 Q67.242 849.112 63.4226 849.112 L59.3949 849.112 L59.3949 845.27 L63.6078 845.27 Q67.0569 845.27 68.8855 843.904 Q70.7142 842.515 70.7142 839.923 Q70.7142 837.261 68.8161 835.849 Q66.9411 834.413 63.4226 834.413 Q61.5013 834.413 59.3023 834.83 Q57.1032 835.247 54.4643 836.126 L54.4643 831.96 Q57.1264 831.219 59.4412 830.849 Q61.7791 830.478 63.8393 830.478 Q69.1633 830.478 72.2652 832.909 Q75.367 835.316 75.367 839.437 Q75.367 842.307 73.7235 844.298 Q72.08 846.265 69.0476 847.029 Z" fill="#000000" fill-rule="nonzero" fill-opacity="1" /><path clip-path="url(#clip530)" d="M66.5939 639.834 L54.7884 658.283 L66.5939 658.283 L66.5939 639.834 M65.367 635.76 L71.2466 635.76 L71.2466 658.283 L76.1772 658.283 L76.1772 662.172 L71.2466 662.172 L71.2466 670.32 L66.5939 670.32 L66.5939 662.172 L50.9921 662.172 L50.9921 657.658 L65.367 635.76 Z" fill="#000000" fill-rule="nonzero" fill-opacity="1" /><path clip-path="url(#clip530)" d="M55.2745 440.417 L73.6309 440.417 L73.6309 444.352 L59.5569 444.352 L59.5569 452.824 Q60.5754 452.477 61.5939 452.315 Q62.6124 452.13 63.6309 452.13 Q69.418 452.13 72.7976 455.301 Q76.1772 458.472 76.1772 463.889 Q76.1772 469.467 72.705 472.569 Q69.2328 475.648 62.9134 475.648 Q60.7374 475.648 58.4689 475.278 Q56.2236 474.907 53.8162 474.166 L53.8162 469.467 Q55.8995 470.602 58.1217 471.157 Q60.3439 471.713 62.8208 471.713 Q66.8254 471.713 69.1633 469.606 Q71.5013 467.5 71.5013 463.889 Q71.5013 460.278 69.1633 458.171 Q66.8254 456.065 62.8208 456.065 Q60.9458 456.065 59.0708 456.481 Q57.2189 456.898 55.2745 457.778 L55.2745 440.417 Z" fill="#000000" fill-rule="nonzero" fill-opacity="1" /><path clip-path="url(#clip530)" d="M64.6495 260.49 Q61.5013 260.49 59.6495 262.643 Q57.8208 264.795 57.8208 268.545 Q57.8208 272.272 59.6495 274.448 Q61.5013 276.601 64.6495 276.601 Q67.7976 276.601 69.6263 274.448 Q71.4781 272.272 71.4781 268.545 Q71.4781 264.795 69.6263 262.643 Q67.7976 260.49 64.6495 260.49 M73.9318 245.837 L73.9318 250.096 Q72.1726 249.263 70.367 248.823 Q68.5846 248.384 66.8254 248.384 Q62.1958 248.384 59.7421 251.509 Q57.3115 254.634 56.9643 260.953 Q58.33 258.939 60.3902 257.874 Q62.4504 256.786 64.9272 256.786 Q70.1355 256.786 73.1448 259.958 Q76.1772 263.106 76.1772 268.545 Q76.1772 273.87 73.029 277.087 Q69.8809 280.305 64.6495 280.305 Q58.6541 280.305 55.4828 275.721 Q52.3116 271.115 52.3116 262.388 Q52.3116 254.194 56.2004 249.333 Q60.0893 244.448 66.6402 244.448 Q68.3994 244.448 70.1818 244.796 Q71.9874 245.143 73.9318 245.837 Z" fill="#000000" fill-rule="nonzero" fill-opacity="1" /><path clip-path="url(#clip530)" d="M53.9551 49.7301 L76.1772 49.7301 L76.1772 51.7208 L63.6309 84.2901 L58.7467 84.2901 L70.5522 53.6652 L53.9551 53.6652 L53.9551 49.7301 Z" fill="#000000" fill-rule="nonzero" fill-opacity="1" /><polyline clip-path="url(#clip532)" style="stroke:#009af9; stroke-linecap:round; stroke-linejoin:round; stroke-width:4; stroke-opacity:1; fill:none" points="112.177,1239.07 114.42,1238.07 116.663,1237.03 118.906,1235.94 121.148,1234.81 123.391,1233.64 125.634,1232.42 127.877,1231.16 130.12,1229.86 132.363,1228.51 134.605,1227.12 136.848,1225.69 139.091,1224.22 141.334,1222.71 143.577,1221.15 145.819,1219.55 148.062,1217.9 150.305,1216.22 152.548,1214.49 154.791,1212.71 157.034,1210.9 159.276,1209.04 161.519,1207.14 163.762,1205.19 166.005,1203.2 168.248,1201.17 170.491,1199.09 172.733,1196.97 174.976,1194.8 177.219,1192.59 179.462,1190.33 181.705,1188.02 183.947,1185.67 186.19,1183.28 188.433,1180.84 190.676,1178.35 192.919,1175.81 195.162,1173.23 197.404,1170.6 199.647,1167.92 201.89,1165.19 204.133,1162.41 206.376,1159.58 208.619,1156.71 210.861,1153.78 213.104,1150.8 215.347,1147.77 217.59,1144.69 219.833,1141.56 222.075,1138.37 224.318,1135.13 226.561,1131.84 228.804,1128.49 231.047,1125.09 233.29,1121.64 235.532,1118.12 237.775,1114.55 240.018,1110.93 242.261,1107.24 244.504,1103.5 246.746,1099.7 248.989,1095.84 251.232,1091.92 253.475,1087.95 255.718,1083.9 257.961,1079.8 260.203,1075.64 262.446,1071.41 264.689,1067.12 266.932,1062.76 269.175,1058.34 271.418,1053.86 273.66,1049.31 275.903,1044.69 278.146,1040 280.389,1035.25 282.632,1030.42 284.874,1025.53 287.117,1020.56 289.36,1015.53 291.603,1010.42 293.846,1005.24 296.089,999.989 298.331,994.662 300.574,989.26 302.817,983.783 305.06,978.23 307.303,972.6 309.545,966.893 311.788,961.107 314.031,955.242 316.274,949.297 318.517,943.272 320.76,937.165 323.002,930.976 325.245,924.705 327.488,918.351 329.731,911.913 331.974,905.39 334.217,898.782 336.459,892.088 338.702,885.306 340.945,878.437 343.188,871.479 345.431,864.432 347.673,857.296 349.916,850.069 352.159,842.751 354.402,835.342 356.645,827.841 358.888,820.248 361.13,812.561 363.373,804.782 365.616,796.909 367.859,788.942 370.102,780.88 372.344,772.725 374.587,764.474 376.83,756.129 379.073,747.689 381.316,739.153 383.559,730.522 385.801,721.796 388.044,712.974 390.287,704.057 392.53,695.045 394.773,685.937 397.016,676.735 399.258,667.442 401.501,658.059 403.744,648.585 405.987,639.02 408.23,629.364 410.472,619.616 412.715,609.777 414.958,599.848 417.201,589.831 419.444,579.725 421.687,569.534 423.929,559.258 426.172,548.9 428.415,538.463 430.658,527.949 432.901,517.362 435.143,506.705 437.386,495.981 439.629,485.194 441.872,474.349 444.115,463.451 446.358,452.504 448.6,441.512 450.843,430.483 453.086,419.421 455.329,408.332 457.572,397.223 459.815,386.1 462.057,374.97 464.3,363.841 466.543,352.719 468.786,341.614 471.029,330.531 473.271,319.481 475.514,308.471 477.757,297.497 480,286.569 482.243,275.706 484.486,264.926 486.728,254.248 488.971,243.692 491.214,233.277 493.457,223.025 495.7,212.956 497.942,203.092 500.185,193.454 502.428,184.066 504.671,174.95 506.914,166.13 509.157,157.629 511.399,149.473 513.642,141.685 515.885,134.292 518.128,127.318 520.371,120.792 522.614,114.739 524.856,109.186 527.099,104.162 529.342,99.6955 531.585,95.8142 533.828,92.5479 536.07,89.9264 538.313,87.9798 540.556,86.7389 542.799,86.235 545.042,86.4997 547.285,87.5654 549.527,89.4645 551.77,92.2304 554.013,95.8967 556.256,100.497 558.499,106.07 560.741,112.654 562.984,120.254 565.227,128.866 567.47,138.483 569.713,149.096 571.956,160.691 574.198,173.251 576.441,186.757 578.684,201.185 580.927,216.509 583.17,232.698 585.413,249.719 587.655,267.535 589.898,286.108 592.141,305.392 594.384,325.342 596.627,345.907 598.869,367.035 601.112,388.668 603.355,410.747 605.598,433.209 607.841,455.986 610.084,479.009 612.326,502.204 614.569,525.495 616.812,548.801 619.055,572.04 621.298,595.152 623.54,618.114 625.783,640.871 628.026,663.369 630.269,685.559 632.512,707.397 634.755,728.84 636.997,749.851 639.24,770.398 641.483,790.45 643.726,809.982 645.969,828.973 648.212,847.404 650.454,865.263 652.697,882.539 654.94,899.228 657.183,915.327 659.426,930.838 661.668,945.768 663.911,960.127 666.154,973.928 668.397,987.191 670.64,999.936 672.883,1012.19 675.125,1023.98 677.368,1035.31 679.611,1046.17 681.854,1056.56 684.097,1066.51 686.339,1076.04 688.582,1085.15 690.825,1093.86 693.068,1102.2 695.311,1110.16 697.554,1117.78 699.796,1125.05 702.039,1132 704.282,1138.63 706.525,1144.96 708.768,1151 711.011,1156.76 713.253,1162.25 715.496,1167.48 717.739,1172.47 719.982,1177.22 722.225,1181.74 724.467,1186.04 726.71,1190.13 728.953,1194.02 731.196,1197.72 733.439,1201.23 735.682,1204.58 737.924,1207.75 740.167,1210.76 742.41,1213.62 744.653,1216.32 746.896,1218.88 749.138,1221.31 751.381,1223.6 753.624,1225.77 755.867,1227.81 758.11,1229.73 760.353,1231.54 762.595,1233.24 764.838,1234.84 767.081,1236.33 769.324,1237.73 771.567,1239.03 773.81,1240.24 776.052,1241.37 778.295,1242.4 780.538,1243.36 782.781,1244.23 785.024,1245.03 787.266,1245.75 789.509,1246.39 791.752,1246.96 793.995,1247.46 796.238,1247.89 798.481,1248.26 800.723,1248.56 802.966,1248.8 805.209,1248.98 807.452,1249.09 809.695,1249.15 811.938,1249.15 814.18,1249.09 816.423,1248.97 818.666,1248.81 820.909,1248.58 823.152,1248.31 825.394,1247.98 827.637,1247.6 829.88,1247.17 832.123,1246.7 834.366,1246.17 836.609,1245.6 838.851,1244.97 841.094,1244.31 843.337,1243.59 845.58,1242.83 847.823,1242.02 850.065,1241.17 852.308,1240.28 854.551,1239.34 856.794,1238.35 859.037,1237.33 861.28,1236.26 863.522,1235.14 865.765,1233.98 868.008,1232.78 870.251,1231.54 872.494,1230.26 874.737,1228.93 876.979,1227.56 879.222,1226.14 881.465,1224.69 883.708,1223.19 885.951,1221.64 888.193,1220.06 890.436,1218.43 892.679,1216.76 894.922,1215.04 897.165,1213.29 899.408,1211.49 901.65,1209.64 903.893,1207.75 906.136,1205.82 908.379,1203.85 910.622,1201.83 912.864,1199.76 915.107,1197.65 917.35,1195.5 919.593,1193.3 921.836,1191.06 924.079,1188.77 926.321,1186.44 928.564,1184.06 930.807,1181.63 933.05,1179.16 935.293,1176.64 937.536,1174.07 939.778,1171.46 942.021,1168.79 944.264,1166.08 946.507,1163.32 948.75,1160.51 950.992,1157.65 953.235,1154.74 955.478,1151.78 957.721,1148.77 959.964,1145.71 962.207,1142.59 964.449,1139.43 966.692,1136.2 968.935,1132.93 971.178,1129.6 973.421,1126.22 975.663,1122.78 977.906,1119.29 980.149,1115.74 982.392,1112.13 984.635,1108.47 986.878,1104.75 989.12,1100.97 991.363,1097.13 993.606,1093.23 995.849,1089.27 998.092,1085.26 1000.33,1081.18 1002.58,1077.03 1004.82,1072.83 1007.06,1068.56 1009.31,1064.23 1011.55,1059.83 1013.79,1055.37 1016.03,1050.84 1018.28,1046.25 1020.52,1041.58 1022.76,1036.85 1025.01,1032.05 1027.25,1027.19 1029.49,1022.25 1031.73,1017.24 1033.98,1012.16 1036.22,1007 1038.46,1001.78 1040.71,996.476 1042.95,991.101 1045.19,985.652 1047.43,980.126 1049.68,974.524 1051.92,968.844 1054.16,963.086 1056.41,957.249 1058.65,951.332 1060.89,945.334 1063.13,939.255 1065.38,933.095 1067.62,926.852 1069.86,920.525 1072.1,914.115 1074.35,907.62 1076.59,901.04 1078.83,894.373 1081.08,887.621 1083.32,880.781 1085.56,873.853 1087.8,866.837 1090.05,859.732 1092.29,852.537 1094.53,845.253 1096.78,837.877 1099.02,830.41 1101.26,822.852 1103.5,815.201 1105.75,807.457 1107.99,799.619 1110.23,791.688 1112.48,783.662 1114.72,775.542 1116.96,767.33 1119.2,759.032 1121.45,750.647 1123.69,742.171 1125.93,733.603 1128.18,724.942 1130.42,716.186 1132.66,707.333 1134.9,698.383 1137.15,689.335 1139.39,680.189 1141.63,670.945 1143.88,661.601 1146.12,652.16 1148.36,642.621 1150.6,632.986 1152.85,623.254 1155.09,613.428 1157.33,603.508 1159.57,593.497 1161.82,583.397 1164.06,573.209 1166.3,562.936 1168.55,552.582 1170.79,542.148 1173.03,531.638 1175.27,521.055 1177.52,510.404 1179.76,499.687 1182,488.91 1184.25,478.075 1186.49,467.189 1188.73,456.256 1190.97,445.281 1193.22,434.269 1195.46,423.227 1197.7,412.159 1199.95,401.071 1202.19,389.971 1204.43,378.865 1206.67,367.759 1208.92,356.66 1211.16,345.577 1213.4,334.515 1215.65,323.484 1217.89,312.491 1220.13,301.544 1222.37,290.651 1224.62,279.819 1226.86,269.047 1229.1,258.356 1231.35,247.767 1233.59,237.303 1235.83,226.985 1238.07,216.838 1240.32,206.883 1242.56,197.144 1244.8,187.646 1247.04,178.412 1249.29,169.466 1251.53,160.834 1253.77,152.54 1256.02,144.61 1258.26,137.07 1260.5,129.946 1262.74,123.263 1264.99,117.05 1267.23,111.333 1269.47,106.139 1271.72,101.497 1273.96,97.4344 1276.2,93.9794 1278.44,91.161 1280.69,89.0084 1282.93,87.5509 1285.17,86.8183 1287.42,86.8407 1289.66,87.6485 1291.9,89.2726 1294.14,91.744 1296.39,95.0942 1298.63,99.3549 1300.87,104.558 1303.12,110.736 1305.36,117.951 1307.6,126.236 1309.84,135.571 1312.09,145.935 1314.33,157.303 1316.57,169.65 1318.82,182.947 1321.06,197.165 1323.3,212.271 1325.54,228.23 1327.79,245.005 1330.03,262.56 1332.27,280.851 1334.51,299.838 1336.76,319.474 1339,339.714 1341.24,360.507 1343.49,381.802 1345.73,403.546 1347.97,425.684 1350.21,448.159 1352.46,470.909 1354.7,493.875 1356.94,516.991 1359.19,540.193 1361.43,563.411 1363.67,586.576 1365.91,609.616 1368.16,632.456 1370.4,655.02 1372.64,677.234 1374.89,699.088 1377.13,720.562 1379.37,741.622 1381.61,762.241 1383.86,782.392 1386.1,802.052 1388.34,821.202 1390.59,839.822 1392.83,857.898 1395.07,875.417 1397.31,892.371 1399.56,908.752 1401.8,924.556 1404.04,939.782 1406.29,954.432 1408.53,968.51 1410.77,982.022 1413.01,994.979 1415.26,1007.39 1417.5,1019.28 1419.74,1030.66 1421.98,1041.54 1424.23,1051.97 1426.47,1061.95 1428.71,1071.52 1430.96,1080.72 1433.2,1089.57 1435.44,1098.05 1437.68,1106.16 1439.93,1113.9 1442.17,1121.3 1444.41,1128.37 1446.66,1135.12 1448.9,1141.56 1451.14,1147.7 1453.38,1153.57 1455.63,1159.16 1457.87,1164.5 1460.11,1169.58 1462.36,1174.43 1464.6,1179.05 1466.84,1183.46 1469.08,1187.65 1471.33,1191.64 1473.57,1195.44 1475.81,1199.05 1478.06,1202.49 1480.3,1205.75 1482.54,1208.85 1484.78,1211.79 1487.03,1214.57 1489.27,1217.2 1491.51,1219.69 1493.76,1222.04 1496,1224.26 1498.24,1226.36 1500.48,1228.33 1502.73,1230.2 1504.97,1231.95 1507.21,1233.59 1509.46,1235.13 1511.7,1236.57 1513.94,1237.91 1516.18,1239.16 1518.43,1240.32 1520.67,1241.38 1522.91,1242.37 1525.15,1243.27 1527.4,1244.09 1529.64,1244.84 1531.88,1245.51 1534.13,1246.11 1536.37,1246.63 1538.61,1247.09 1540.85,1247.48 1543.1,1247.81 1545.34,1248.07 1547.58,1248.28 1549.83,1248.42 1552.07,1248.5 1554.31,1248.52 1556.55,1248.49 1558.8,1248.4 1561.04,1248.25 1563.28,1248.05 1565.53,1247.8 1567.77,1247.5 1570.01,1247.14 1572.25,1246.74 1574.5,1246.28 1576.74,1245.78 1578.98,1245.23 1581.23,1244.63 1583.47,1243.98 1585.71,1243.28 1587.95,1242.54 1590.2,1241.75 1592.44,1240.92 1594.68,1240.04 1596.93,1239.12 1599.17,1238.15 1601.41,1237.14 1603.65,1236.08 1605.9,1234.98 1608.14,1233.83 1610.38,1232.65 1612.62,1231.42 1614.87,1230.14 1617.11,1228.83 1619.35,1227.47 1621.6,1226.07 1623.84,1224.63 1626.08,1223.14 1628.32,1221.61 1630.57,1220.04 1632.81,1218.43 1635.05,1216.77 1637.3,1215.07 1639.54,1213.33 1641.78,1211.54 1644.02,1209.72 1646.27,1207.84 1648.51,1205.93 1650.75,1203.97 1653,1201.96 1655.24,1199.92 1657.48,1197.83 1659.72,1195.69 1661.97,1193.51 1664.21,1191.28 1666.45,1189.01 1668.7,1186.69 1670.94,1184.32 1673.18,1181.91 1675.42,1179.45 1677.67,1176.95 1679.91,1174.4 1682.15,1171.8 1684.4,1169.15 1686.64,1166.45 1688.88,1163.71 1691.12,1160.91 1693.37,1158.07 1695.61,1155.17 1697.85,1152.23 1700.09,1149.23 1702.34,1146.19 1704.58,1143.09 1706.82,1139.94 1709.07,1136.73 1711.31,1133.47 1713.55,1130.16 1715.79,1126.8 1718.04,1123.38 1720.28,1119.9 1722.52,1116.37 1724.77,1112.78 1727.01,1109.13 1729.25,1105.43 1731.49,1101.67 1733.74,1097.85 1735.98,1093.97 1738.22,1090.03 1740.47,1086.02 1742.71,1081.96 1744.95,1077.84 1747.19,1073.65 1749.44,1069.4 1751.68,1065.09 1753.92,1060.71 1756.17,1056.27 1758.41,1051.76 1760.65,1047.18 1762.89,1042.54 1765.14,1037.83 1767.38,1033.05 1769.62,1028.2 1771.87,1023.29 1774.11,1018.3 1776.35,1013.24 1778.59,1008.11 1780.84,1002.9 1783.08,997.626 1785.32,992.275 1787.56,986.849 1789.81,981.348 1792.05,975.77 1794.29,970.115 1796.54,964.383 1798.78,958.572 1801.02,952.682 1803.26,946.711 1805.51,940.66 1807.75,934.527 1809.99,928.312 1812.24,922.014 1814.48,915.633 1816.72,909.169 1818.96,902.621 1821.21,895.987 1823.45,889.268 1825.69,882.461 1827.94,875.567 1830.18,868.584 1832.42,861.511 1834.66,854.349 1836.91,847.096 1839.15,839.751 1841.39,832.315 1843.64,824.786 1845.88,817.165 1848.12,809.45 1850.36,801.642 1852.61,793.739 1854.85,785.743 1857.09,777.652 1859.34,769.466 1861.58,761.186 1863.82,752.811 1866.06,744.341 1868.31,735.776 1870.55,727.117 1872.79,718.363 1875.03,709.514 1877.28,700.571 1879.52,691.534 1881.76,682.404 1884.01,673.18 1886.25,663.863 1888.49,654.453 1890.73,644.952 1892.98,635.359 1895.22,625.675 1897.46,615.901 1899.71,606.037 1901.95,596.096 1904.19,586.087 1906.43,576.007 1908.68,565.854 1910.92,555.626 1913.16,545.322 1915.41,534.942 1917.65,524.485 1919.89,513.952 1922.13,503.344 1924.38,492.665 1926.62,481.915 1928.86,471.099 1931.11,460.22 1933.35,449.283 1935.59,438.292 1937.83,427.254 1940.08,416.175 1942.32,405.061 1944.56,393.921 1946.81,382.762 1949.05,371.593 1951.29,360.423 1953.53,349.264 1955.78,338.125 1958.02,327.017 1960.26,315.953 1962.5,304.945 1964.75,294.006 1966.99,283.15 1969.23,272.391 1971.48,261.745 1973.72,251.227 1975.96,240.853 1978.2,230.639 1980.45,220.605 1982.69,210.767 1984.93,201.145 1987.18,191.757 1989.42,182.624 1991.66,173.767 1993.9,165.205 1996.15,156.963 1998.39,149.061 2000.63,141.523 2002.88,134.372 2005.12,127.634 2007.36,121.332 2009.6,115.493 2011.85,110.142 2014.09,105.306 2016.33,101.014 2018.58,97.311 2020.82,94.241 2023.06,91.8452 2025.3,90.1624 2027.55,89.2282 2029.79,89.076 2032.03,89.7362 2034.28,91.2368 2036.52,93.6028 2038.76,96.8569 2041,101.019 2043.25,106.106 2045.49,112.132 2047.73,119.11 2049.97,127.048 2052.22,135.953 2054.46,145.829 2056.7,156.676 2058.95,168.494 2061.19,181.277 2063.43,195.02 2065.67,209.712 2067.92,225.352 2070.16,241.911 2072.4,259.33 2074.65,277.549 2076.89,296.509 2079.13,316.15 2081.37,336.41 2083.62,357.232 2085.86,378.553 2088.1,400.313 2090.35,422.452 2092.59,444.908 2094.83,467.621 2097.07,490.53 2099.32,513.572 2101.56,536.686 2103.8,559.811 2106.05,582.885 2108.29,605.846 2110.53,628.631 2112.77,651.178 2115.02,673.424 2117.26,695.308 2119.5,716.787 2121.75,737.849 2123.99,758.466 2126.23,778.615 2128.47,798.276 2130.72,817.429 2132.96,836.06 2135.2,854.155 2137.45,871.701 2139.69,888.693 2141.93,905.122 2144.17,920.986 2146.42,936.283 2148.66,951.016 2150.9,965.188 2153.14,978.805 2155.39,991.876 2157.63,1004.41 2159.87,1016.43 2162.12,1027.94 2164.36,1038.97 2166.6,1049.53 2168.84,1059.66 2171.09,1069.36 2173.33,1078.69 2175.57,1087.63 2177.82,1096.19 2180.06,1104.36 2182.3,1112.17 2184.54,1119.63 2186.79,1126.76 2189.03,1133.56 2191.27,1140.06 2193.52,1146.26 2195.76,1152.18 2198,1157.82 2200.24,1163.2 2202.49,1168.33 2204.73,1173.23 2206.97,1177.89 2209.22,1182.33 2211.46,1186.56 2213.7,1190.58 2215.94,1194.41 2218.19,1198.05 2220.43,1201.51 2222.67,1204.79 2224.92,1207.91 2227.16,1210.86 2229.4,1213.66 2231.64,1216.31 2233.89,1218.82 2236.13,1221.2 2238.37,1223.45 2240.61,1225.57 2242.86,1227.57 2245.1,1229.45 2247.34,1231.22 2249.59,1232.88 2251.83,1234.44 2254.07,1235.9 2256.31,1237.26 2258.56,1238.52 2260.8,1239.7 2263.04,1240.78 2265.29,1241.78 2267.53,1242.7 2269.77,1243.54 2272.01,1244.31 2274.26,1244.99 2276.5,1245.61 2278.74,1246.15 2280.99,1246.63 2283.23,1247.04 2285.47,1247.38 2287.71,1247.65 2289.96,1247.87 2292.2,1248.02 2294.44,1248.11 2296.69,1248.15 2298.93,1248.12 2301.17,1248.05 2303.41,1247.91 2305.66,1247.72 2307.9,1247.48 2310.14,1247.18 2312.39,1246.84 2314.63,1246.44 2316.87,1245.99 2319.11,1245.49 2321.36,1244.95 2323.6,1244.35 2325.84,1243.71 2328.08,1243.02 2330.33,1242.29 2332.57,1241.51 2334.81,1240.68 2337.06,1239.81 2339.3,1238.89 2341.54,1237.93 2343.78,1236.93 2346.03,1235.88 2348.27,1234.79 2350.51,1233.65 2352.76,1232.48 "/>
<polyline clip-path="url(#clip532)" style="stroke:#e26f46; stroke-linecap:round; stroke-linejoin:round; stroke-width:4; stroke-opacity:1; fill:none" points="112.177,1239.07 114.42,1242.94 116.663,1246.72 118.906,1250.41 121.148,1254.03 123.391,1257.56 125.634,1261.01 127.877,1264.38 130.12,1267.68 132.363,1270.9 134.605,1274.05 136.848,1277.13 139.091,1280.13 141.334,1283.07 143.577,1285.94 145.819,1288.74 148.062,1291.48 150.305,1294.16 152.548,1296.77 154.791,1299.32 157.034,1301.81 159.276,1304.25 161.519,1306.63 163.762,1308.95 166.005,1311.21 168.248,1313.43 170.491,1315.59 172.733,1317.7 174.976,1319.76 177.219,1321.77 179.462,1323.73 181.705,1325.65 183.947,1327.52 186.19,1329.34 188.433,1331.13 190.676,1332.86 192.919,1334.56 195.162,1336.21 197.404,1337.83 199.647,1339.4 201.89,1340.94 204.133,1342.44 206.376,1343.9 208.619,1345.33 210.861,1346.72 213.104,1348.07 215.347,1349.39 217.59,1350.68 219.833,1351.94 222.075,1353.16 224.318,1354.35 226.561,1355.51 228.804,1356.64 231.047,1357.74 233.29,1358.82 235.532,1359.86 237.775,1360.88 240.018,1361.87 242.261,1362.83 244.504,1363.77 246.746,1364.68 248.989,1365.56 251.232,1366.42 253.475,1367.26 255.718,1368.07 257.961,1368.86 260.203,1369.63 262.446,1370.37 264.689,1371.09 266.932,1371.79 269.175,1372.47 271.418,1373.12 273.66,1373.76 275.903,1374.37 278.146,1374.97 280.389,1375.54 282.632,1376.09 284.874,1376.63 287.117,1377.14 289.36,1377.64 291.603,1378.12 293.846,1378.57 296.089,1379.01 298.331,1379.43 300.574,1379.84 302.817,1380.22 305.06,1380.59 307.303,1380.94 309.545,1381.27 311.788,1381.58 314.031,1381.88 316.274,1382.16 318.517,1382.42 320.76,1382.67 323.002,1382.89 325.245,1383.1 327.488,1383.29 329.731,1383.47 331.974,1383.62 334.217,1383.76 336.459,1383.88 338.702,1383.99 340.945,1384.07 343.188,1384.14 345.431,1384.19 347.673,1384.22 349.916,1384.24 352.159,1384.23 354.402,1384.21 356.645,1384.17 358.888,1384.11 361.13,1384.02 363.373,1383.92 365.616,1383.8 367.859,1383.66 370.102,1383.49 372.344,1383.3 374.587,1383.1 376.83,1382.86 379.073,1382.61 381.316,1382.33 383.559,1382.03 385.801,1381.7 388.044,1381.34 390.287,1380.96 392.53,1380.55 394.773,1380.11 397.016,1379.64 399.258,1379.14 401.501,1378.61 403.744,1378.05 405.987,1377.44 408.23,1376.81 410.472,1376.14 412.715,1375.43 414.958,1374.69 417.201,1373.9 419.444,1373.08 421.687,1372.21 423.929,1371.3 426.172,1370.34 428.415,1369.34 430.658,1368.28 432.901,1367.17 435.143,1366.01 437.386,1364.79 439.629,1363.51 441.872,1362.16 444.115,1360.75 446.358,1359.27 448.6,1357.71 450.843,1356.08 453.086,1354.36 455.329,1352.56 457.572,1350.67 459.815,1348.69 462.057,1346.61 464.3,1344.42 466.543,1342.13 468.786,1339.72 471.029,1337.2 473.271,1334.56 475.514,1331.79 477.757,1328.89 480,1325.87 482.243,1322.71 484.486,1319.39 486.728,1315.91 488.971,1312.26 491.214,1308.41 493.457,1304.37 495.7,1300.11 497.942,1295.63 500.185,1290.92 502.428,1285.96 504.671,1280.75 506.914,1275.27 509.157,1269.51 511.399,1263.46 513.642,1257.12 515.885,1250.46 518.128,1243.49 520.371,1236.18 522.614,1228.54 524.856,1220.55 527.099,1212.2 529.342,1203.48 531.585,1194.38 533.828,1184.9 536.07,1175.02 538.313,1164.73 540.556,1154.04 542.799,1142.92 545.042,1131.37 547.285,1119.38 549.527,1106.94 551.77,1094.05 554.013,1080.69 556.256,1066.86 558.499,1052.55 560.741,1037.72 562.984,1022.41 565.227,1006.66 567.47,990.503 569.713,973.996 571.956,957.176 574.198,940.089 576.441,922.78 578.684,905.295 580.927,887.681 583.17,869.985 585.413,852.255 587.655,834.54 589.898,816.889 592.141,799.353 594.384,781.982 596.627,764.829 598.869,747.946 601.112,731.385 603.355,715.2 605.598,699.446 607.841,684.179 610.084,669.453 612.326,655.326 614.569,641.855 616.812,629.097 619.055,617.113 621.298,605.94 623.54,595.584 625.783,586.069 628.026,577.416 630.269,569.645 632.512,562.767 634.755,556.794 636.997,551.731 639.24,547.58 641.483,544.339 643.726,542 645.969,540.555 648.212,539.989 650.454,540.283 652.697,541.416 654.94,543.361 657.183,546.088 659.426,549.563 661.668,553.747 663.911,558.598 666.154,564.07 668.397,570.112 670.64,576.671 672.883,583.688 675.125,591.101 677.368,598.899 679.611,607.095 681.854,615.655 684.097,624.548 686.339,633.743 688.582,643.212 690.825,652.925 693.068,662.855 695.311,672.977 697.554,683.266 699.796,693.698 702.039,704.25 704.282,714.903 706.525,725.634 708.768,736.427 711.011,747.261 713.253,758.122 715.496,768.993 717.739,779.861 719.982,790.711 722.225,801.533 724.467,812.314 726.71,823.046 728.953,833.719 731.196,844.315 733.439,854.828 735.682,865.253 737.924,875.582 740.167,885.811 742.41,895.935 744.653,905.949 746.896,915.849 749.138,925.63 751.381,935.289 753.624,944.822 755.867,954.226 758.11,963.499 760.353,972.638 762.595,981.641 764.838,990.505 767.081,999.23 769.324,1007.81 771.567,1016.26 773.81,1024.56 776.052,1032.72 778.295,1040.73 780.538,1048.61 782.781,1056.34 785.024,1063.93 787.266,1071.39 789.509,1078.71 791.752,1085.89 793.995,1092.94 796.238,1099.85 798.481,1106.64 800.723,1113.29 802.966,1119.81 805.209,1126.2 807.452,1132.46 809.695,1138.6 811.938,1144.61 814.18,1150.5 816.423,1156.27 818.666,1161.92 820.909,1167.46 823.152,1172.88 825.394,1178.18 827.637,1183.37 829.88,1188.46 832.123,1193.43 834.366,1198.3 836.609,1203.06 838.851,1207.72 841.094,1212.28 843.337,1216.73 845.58,1221.09 847.823,1225.36 850.065,1229.53 852.308,1233.6 854.551,1237.59 856.794,1241.49 859.037,1245.3 861.28,1249.03 863.522,1252.67 865.765,1256.23 868.008,1259.71 870.251,1263.11 872.494,1266.44 874.737,1269.69 876.979,1272.86 879.222,1275.96 881.465,1279 883.708,1281.96 885.951,1284.85 888.193,1287.68 890.436,1290.44 892.679,1293.14 894.922,1295.78 897.165,1298.35 899.408,1300.86 901.65,1303.32 903.893,1305.72 906.136,1308.06 908.379,1310.35 910.622,1312.58 912.864,1314.77 915.107,1316.9 917.35,1318.97 919.593,1321 921.836,1322.99 924.079,1324.92 926.321,1326.81 928.564,1328.65 930.807,1330.45 933.05,1332.2 935.293,1333.92 937.536,1335.59 939.778,1337.22 942.021,1338.81 944.264,1340.36 946.507,1341.87 948.75,1343.34 950.992,1344.78 953.235,1346.18 955.478,1347.55 957.721,1348.88 959.964,1350.18 962.207,1351.45 964.449,1352.68 966.692,1353.88 968.935,1355.05 971.178,1356.19 973.421,1357.31 975.663,1358.39 977.906,1359.44 980.149,1360.47 982.392,1361.47 984.635,1362.44 986.878,1363.39 989.12,1364.31 991.363,1365.2 993.606,1366.07 995.849,1366.92 998.092,1367.74 1000.33,1368.54 1002.58,1369.31 1004.82,1370.06 1007.06,1370.79 1009.31,1371.5 1011.55,1372.19 1013.79,1372.85 1016.03,1373.5 1018.28,1374.12 1020.52,1374.72 1022.76,1375.3 1025.01,1375.86 1027.25,1376.41 1029.49,1376.93 1031.73,1377.43 1033.98,1377.91 1036.22,1378.38 1038.46,1378.82 1040.71,1379.25 1042.95,1379.66 1045.19,1380.05 1047.43,1380.42 1049.68,1380.78 1051.92,1381.12 1054.16,1381.44 1056.41,1381.74 1058.65,1382.02 1060.89,1382.29 1063.13,1382.54 1065.38,1382.77 1067.62,1382.99 1069.86,1383.19 1072.1,1383.37 1074.35,1383.53 1076.59,1383.68 1078.83,1383.81 1081.08,1383.92 1083.32,1384.01 1085.56,1384.09 1087.8,1384.14 1090.05,1384.18 1092.29,1384.2 1094.53,1384.21 1096.78,1384.19 1099.02,1384.15 1101.26,1384.1 1103.5,1384.02 1105.75,1383.92 1107.99,1383.81 1110.23,1383.67 1112.48,1383.51 1114.72,1383.33 1116.96,1383.13 1119.2,1382.9 1121.45,1382.64 1123.69,1382.35 1125.93,1382.03 1128.18,1381.69 1130.42,1381.33 1132.66,1380.94 1134.9,1380.52 1137.15,1380.07 1139.39,1379.6 1141.63,1379.1 1143.88,1378.57 1146.12,1378.01 1148.36,1377.42 1150.6,1376.8 1152.85,1376.15 1155.09,1375.46 1157.33,1374.74 1159.57,1373.98 1161.82,1373.18 1164.06,1372.34 1166.3,1371.46 1168.55,1370.53 1170.79,1369.56 1173.03,1368.54 1175.27,1367.46 1177.52,1366.33 1179.76,1365.14 1182,1363.89 1184.25,1362.58 1186.49,1361.2 1188.73,1359.75 1190.97,1358.23 1193.22,1356.62 1195.46,1354.94 1197.7,1353.17 1199.95,1351.31 1202.19,1349.36 1204.43,1347.31 1206.67,1345.16 1208.92,1342.9 1211.16,1340.53 1213.4,1338.04 1215.65,1335.43 1217.89,1332.69 1220.13,1329.82 1222.37,1326.82 1224.62,1323.67 1226.86,1320.39 1229.1,1316.96 1231.35,1313.36 1233.59,1309.6 1235.83,1305.64 1238.07,1301.47 1240.32,1297.09 1242.56,1292.49 1244.8,1287.64 1247.04,1282.54 1249.29,1277.17 1251.53,1271.53 1253.77,1265.6 1256.02,1259.37 1258.26,1252.83 1260.5,1245.97 1262.74,1238.78 1264.99,1231.25 1267.23,1223.37 1269.47,1215.13 1271.72,1206.52 1273.96,1197.54 1276.2,1188.17 1278.44,1178.41 1280.69,1168.24 1282.93,1157.67 1285.17,1146.68 1287.42,1135.26 1289.66,1123.42 1291.9,1111.13 1294.14,1098.41 1296.39,1085.23 1298.63,1071.6 1300.87,1057.5 1303.12,1042.94 1305.36,1027.87 1307.6,1012.27 1309.84,996.213 1312.09,979.743 1314.33,962.921 1316.57,945.803 1318.82,928.444 1321.06,910.899 1323.3,893.222 1325.54,875.466 1327.79,857.686 1330.03,839.932 1332.27,822.258 1334.51,804.715 1336.76,787.353 1339,770.222 1341.24,753.373 1343.49,736.855 1345.73,720.716 1347.97,705.004 1350.21,689.766 1352.46,675.05 1354.7,660.902 1356.94,647.367 1359.19,634.491 1361.43,622.318 1363.67,610.893 1365.91,600.259 1368.16,590.459 1370.4,581.535 1372.64,573.526 1374.89,566.432 1377.13,560.244 1379.37,554.957 1381.61,550.565 1383.86,547.06 1386.1,544.429 1388.34,542.661 1390.59,541.74 1392.83,541.65 1395.07,542.371 1397.31,543.882 1399.56,546.16 1401.8,549.181 1404.04,552.915 1406.29,557.335 1408.53,562.409 1410.77,568.103 1413.01,574.382 1415.26,581.208 1417.5,588.542 1419.74,596.342 1421.98,604.564 1424.23,613.162 1426.47,622.089 1428.71,631.294 1430.96,640.726 1433.2,650.332 1435.44,660.127 1437.68,670.119 1439.93,680.284 1442.17,690.6 1444.41,701.046 1446.66,711.602 1448.9,722.247 1451.14,732.963 1453.38,743.732 1455.63,754.538 1457.87,765.363 1460.11,776.194 1462.36,787.016 1464.6,797.815 1466.84,808.578 1469.08,819.295 1471.33,829.955 1473.57,840.547 1475.81,851.063 1478.06,861.495 1480.3,871.835 1482.54,882.078 1484.78,892.217 1487.03,902.248 1489.27,912.168 1491.51,921.975 1493.76,931.662 1496,941.222 1498.24,950.652 1500.48,959.951 1502.73,969.116 1504.97,978.148 1507.21,987.044 1509.46,995.803 1511.7,1004.42 1513.94,1012.91 1516.18,1021.25 1518.43,1029.46 1520.67,1037.53 1522.91,1045.45 1525.15,1053.24 1527.4,1060.89 1529.64,1068.4 1531.88,1075.77 1534.13,1083 1536.37,1090.1 1538.61,1097.06 1540.85,1103.89 1543.1,1110.58 1545.34,1117.14 1547.58,1123.57 1549.83,1129.87 1552.07,1136.05 1554.31,1142.1 1556.55,1148.03 1558.8,1153.84 1561.04,1159.53 1563.28,1165.11 1565.53,1170.56 1567.77,1175.91 1570.01,1181.14 1572.25,1186.26 1574.5,1191.27 1576.74,1196.17 1578.98,1200.97 1581.23,1205.67 1583.47,1210.26 1585.71,1214.76 1587.95,1219.16 1590.2,1223.46 1592.44,1227.66 1594.68,1231.78 1596.93,1235.8 1599.17,1239.73 1601.41,1243.58 1603.65,1247.34 1605.9,1251.02 1608.14,1254.61 1610.38,1258.12 1612.62,1261.55 1614.87,1264.91 1617.11,1268.19 1619.35,1271.39 1621.6,1274.52 1623.84,1277.58 1626.08,1280.57 1628.32,1283.49 1630.57,1286.34 1632.81,1289.13 1635.05,1291.85 1637.3,1294.51 1639.54,1297.11 1641.78,1299.65 1644.02,1302.12 1646.27,1304.54 1648.51,1306.91 1650.75,1309.21 1653,1311.47 1655.24,1313.67 1657.48,1315.82 1659.72,1317.91 1661.97,1319.96 1664.21,1321.96 1666.45,1323.91 1668.7,1325.82 1670.94,1327.68 1673.18,1329.49 1675.42,1331.26 1677.67,1332.99 1679.91,1334.68 1682.15,1336.32 1684.4,1337.93 1686.64,1339.5 1688.88,1341.03 1691.12,1342.52 1693.37,1343.97 1695.61,1345.39 1697.85,1346.78 1700.09,1348.13 1702.34,1349.44 1704.58,1350.72 1706.82,1351.97 1709.07,1353.19 1711.31,1354.38 1713.55,1355.53 1715.79,1356.66 1718.04,1357.75 1720.28,1358.82 1722.52,1359.85 1724.77,1360.86 1727.01,1361.85 1729.25,1362.8 1731.49,1363.73 1733.74,1364.64 1735.98,1365.52 1738.22,1366.37 1740.47,1367.2 1742.71,1368 1744.95,1368.79 1747.19,1369.55 1749.44,1370.28 1751.68,1371 1753.92,1371.69 1756.17,1372.36 1758.41,1373.01 1760.65,1373.64 1762.89,1374.25 1765.14,1374.84 1767.38,1375.4 1769.62,1375.95 1771.87,1376.48 1774.11,1376.99 1776.35,1377.48 1778.59,1377.95 1780.84,1378.41 1783.08,1378.84 1785.32,1379.26 1787.56,1379.66 1789.81,1380.04 1792.05,1380.4 1794.29,1380.74 1796.54,1381.07 1798.78,1381.38 1801.02,1381.67 1803.26,1381.94 1805.51,1382.2 1807.75,1382.44 1809.99,1382.66 1812.24,1382.86 1814.48,1383.05 1816.72,1383.22 1818.96,1383.36 1821.21,1383.5 1823.45,1383.61 1825.69,1383.7 1827.94,1383.78 1830.18,1383.84 1832.42,1383.88 1834.66,1383.91 1836.91,1383.91 1839.15,1383.9 1841.39,1383.87 1843.64,1383.82 1845.88,1383.74 1848.12,1383.65 1850.36,1383.54 1852.61,1383.41 1854.85,1383.26 1857.09,1383.09 1859.34,1382.89 1861.58,1382.68 1863.82,1382.44 1866.06,1382.17 1868.31,1381.88 1870.55,1381.57 1872.79,1381.23 1875.03,1380.86 1877.28,1380.47 1879.52,1380.05 1881.76,1379.6 1884.01,1379.11 1886.25,1378.6 1888.49,1378.06 1890.73,1377.48 1892.98,1376.87 1895.22,1376.22 1897.46,1375.54 1899.71,1374.82 1901.95,1374.05 1904.19,1373.24 1906.43,1372.37 1908.68,1371.46 1910.92,1370.49 1913.16,1369.48 1915.41,1368.42 1917.65,1367.3 1919.89,1366.13 1922.13,1364.9 1924.38,1363.62 1926.62,1362.28 1928.86,1360.88 1931.11,1359.41 1933.35,1357.88 1935.59,1356.27 1937.83,1354.59 1940.08,1352.83 1942.32,1350.99 1944.56,1349.07 1946.81,1347.05 1949.05,1344.93 1951.29,1342.71 1953.53,1340.38 1955.78,1337.94 1958.02,1335.38 1960.26,1332.69 1962.5,1329.87 1964.75,1326.91 1966.99,1323.8 1969.23,1320.54 1971.48,1317.11 1973.72,1313.51 1975.96,1309.73 1978.2,1305.76 1980.45,1301.59 1982.69,1297.22 1984.93,1292.63 1987.18,1287.81 1989.42,1282.75 1991.66,1277.45 1993.9,1271.89 1996.15,1266.05 1998.39,1259.94 2000.63,1253.54 2002.88,1246.82 2005.12,1239.8 2007.36,1232.44 2009.6,1224.74 2011.85,1216.69 2014.09,1208.27 2016.33,1199.47 2018.58,1190.29 2020.82,1180.7 2023.06,1170.68 2025.3,1160.24 2027.55,1149.35 2029.79,1138.01 2032.03,1126.23 2034.28,1113.98 2036.52,1101.28 2038.76,1088.13 2041,1074.54 2043.25,1060.51 2045.49,1046.05 2047.73,1031.18 2049.97,1015.92 2052.22,1000.27 2054.46,984.267 2056.7,967.927 2058.95,951.278 2061.19,934.348 2063.43,917.167 2065.67,899.767 2067.92,882.179 2070.16,864.451 2072.4,846.658 2074.65,828.867 2076.89,811.148 2079.13,793.566 2081.37,776.184 2083.62,759.065 2085.86,742.267 2088.1,725.847 2090.35,709.861 2092.59,694.362 2094.83,679.4 2097.07,665.024 2099.32,651.281 2101.56,638.215 2103.8,625.868 2106.05,614.28 2108.29,603.49 2110.53,593.533 2112.77,584.443 2115.02,576.252 2117.26,568.989 2119.5,562.663 2121.75,557.256 2123.99,552.757 2126.23,549.152 2128.47,546.426 2130.72,544.564 2132.96,543.547 2135.2,543.355 2137.45,543.968 2139.69,545.363 2141.93,547.514 2144.17,550.397 2146.42,553.983 2148.66,558.243 2150.9,563.147 2153.14,568.661 2155.39,574.751 2157.63,581.383 2159.87,588.518 2162.12,596.117 2164.36,604.14 2166.6,612.544 2168.84,621.287 2171.09,630.322 2173.33,639.602 2175.57,649.106 2177.82,658.842 2180.06,668.782 2182.3,678.904 2184.54,689.183 2186.79,699.598 2189.03,710.126 2191.27,720.748 2193.52,731.444 2195.76,742.195 2198,752.984 2200.24,763.796 2202.49,774.613 2204.73,785.423 2206.97,796.21 2209.22,806.964 2211.46,817.672 2213.7,828.325 2215.94,838.911 2218.19,849.424 2220.43,859.856 2222.67,870.199 2224.92,880.449 2227.16,890.601 2229.4,900.645 2231.64,910.575 2233.89,920.388 2236.13,930.079 2238.37,939.647 2240.61,949.088 2242.86,958.401 2245.1,967.582 2247.34,976.631 2249.59,985.545 2251.83,994.322 2254.07,1002.96 2256.31,1011.46 2258.56,1019.83 2260.8,1028.05 2263.04,1036.13 2265.29,1044.07 2267.53,1051.87 2269.77,1059.53 2272.01,1067.06 2274.26,1074.44 2276.5,1081.68 2278.74,1088.79 2280.99,1095.77 2283.23,1102.61 2285.47,1109.32 2287.71,1115.9 2289.96,1122.35 2292.2,1128.67 2294.44,1134.87 2296.69,1140.94 2298.93,1146.89 2301.17,1152.72 2303.41,1158.43 2305.66,1164.02 2307.9,1169.5 2310.14,1174.86 2312.39,1180.11 2314.63,1185.25 2316.87,1190.28 2319.11,1195.2 2321.36,1200.02 2323.6,1204.73 2325.84,1209.34 2328.08,1213.85 2330.33,1218.26 2332.57,1222.58 2334.81,1226.8 2337.06,1230.93 2339.3,1234.96 2341.54,1238.91 2343.78,1242.77 2346.03,1246.54 2348.27,1250.23 2350.51,1253.84 2352.76,1257.36 "/>
<polyline clip-path="url(#clip532)" style="stroke:#3da44d; stroke-linecap:round; stroke-linejoin:round; stroke-width:4; stroke-opacity:1; fill:none" points="112.177,1239.07 114.42,1238.07 116.663,1237.03 118.906,1235.94 121.148,1234.81 123.391,1233.63 125.634,1232.42 127.877,1231.15 130.12,1229.85 132.363,1228.51 134.605,1227.12 136.848,1225.69 139.091,1224.21 141.334,1222.7 143.577,1221.14 145.819,1219.54 148.062,1217.89 150.305,1216.2 152.548,1214.47 154.791,1212.7 157.034,1210.88 159.276,1209.02 161.519,1207.12 163.762,1205.17 166.005,1203.18 168.248,1201.15 170.491,1199.07 172.733,1196.94 174.976,1194.78 177.219,1192.56 179.462,1190.3 181.705,1188 183.947,1185.65 186.19,1183.25 188.433,1180.81 190.676,1178.32 192.919,1175.78 195.162,1173.2 197.404,1170.56 199.647,1167.88 201.89,1165.15 204.133,1162.38 206.376,1159.55 208.619,1156.67 210.861,1153.74 213.104,1150.76 215.347,1147.73 217.59,1144.65 219.833,1141.51 222.075,1138.33 224.318,1135.09 226.561,1131.79 228.804,1128.44 231.047,1125.04 233.29,1121.58 235.532,1118.07 237.775,1114.5 240.018,1110.87 242.261,1107.18 244.504,1103.44 246.746,1099.64 248.989,1095.78 251.232,1091.86 253.475,1087.88 255.718,1083.83 257.961,1079.73 260.203,1075.56 262.446,1071.33 264.689,1067.04 266.932,1062.68 269.175,1058.26 271.418,1053.77 273.66,1049.22 275.903,1044.6 278.146,1039.91 280.389,1035.15 282.632,1030.32 284.874,1025.43 287.117,1020.46 289.36,1015.42 291.603,1010.31 293.846,1005.13 296.089,999.877 298.331,994.548 300.574,989.144 302.817,983.664 305.06,978.108 307.303,972.476 309.545,966.765 311.788,960.977 314.031,955.109 316.274,949.161 318.517,943.133 320.76,937.023 323.002,930.831 325.245,924.557 327.488,918.199 329.731,911.758 331.974,905.232 334.217,898.62 336.459,891.922 338.702,885.138 340.945,878.265 343.188,871.304 345.431,864.253 347.673,857.113 349.916,849.883 352.159,842.561 354.402,835.148 356.645,827.643 358.888,820.046 361.13,812.356 363.373,804.572 365.616,796.695 367.859,788.724 370.102,780.658 372.344,772.499 374.587,764.244 376.83,755.894 379.073,747.45 381.316,738.91 383.559,730.275 385.801,721.544 388.044,712.718 390.287,703.797 392.53,694.78 394.773,685.668 397.016,676.461 399.258,667.163 401.501,657.776 403.744,648.297 405.987,638.727 408.23,629.066 410.472,619.314 412.715,609.47 414.958,599.537 417.201,589.515 419.444,579.404 421.687,569.208 423.929,558.928 426.172,548.566 428.415,538.124 430.658,527.606 432.901,517.015 435.143,506.353 437.386,495.625 439.629,484.834 441.872,473.985 444.115,463.083 446.358,452.131 448.6,441.137 450.843,430.104 453.086,419.038 455.329,407.946 457.572,396.834 459.815,385.709 462.057,374.576 464.3,363.445 466.543,352.322 468.786,341.214 471.029,330.131 473.271,319.079 475.514,308.069 477.757,297.094 480,286.166 482.243,275.303 484.486,264.524 486.728,253.848 488.971,243.294 491.214,232.882 493.457,222.633 495.7,212.569 497.942,202.71 500.185,193.078 502.428,183.697 504.671,174.589 506.914,165.778 509.157,157.288 511.399,149.142 513.642,141.366 515.885,133.986 518.128,127.028 520.371,120.517 522.614,114.48 524.856,108.946 527.099,103.941 529.342,99.4949 531.585,95.6355 533.828,92.3923 536.07,89.7953 538.313,87.8746 540.556,86.661 542.799,86.1857 545.042,86.4805 547.285,87.5775 549.527,89.5095 551.77,92.3097 554.013,96.0116 556.256,100.65 558.499,106.261 560.741,112.885 562.984,120.525 565.227,129.177 567.47,138.835 569.713,149.488 571.956,161.124 574.198,173.724 576.441,187.269 578.684,201.736 580.927,217.097 583.17,233.323 585.413,250.38 587.655,268.231 589.898,286.835 592.141,306.151 594.384,326.13 596.627,346.723 598.869,367.876 601.112,389.532 603.355,411.631 605.598,434.111 607.841,456.903 610.084,479.938 612.326,503.142 614.569,526.439 616.812,549.749 619.055,572.987 621.298,596.097 623.54,619.055 625.783,641.805 628.026,664.295 630.269,686.475 632.512,708.3 634.755,729.729 636.997,750.725 639.24,771.255 641.483,791.289 643.726,810.801 645.969,829.771 648.212,848.182 650.454,866.019 652.697,883.273 654.94,899.939 657.183,916.015 659.426,931.503 661.668,946.41 663.911,960.746 666.154,974.526 668.397,987.766 670.64,1000.49 672.883,1012.72 675.125,1024.5 677.368,1035.81 679.611,1046.64 681.854,1057.02 684.097,1066.95 686.339,1076.46 688.582,1085.55 690.825,1094.25 693.068,1102.57 695.311,1110.52 697.554,1118.12 699.796,1125.38 702.039,1132.31 704.282,1138.93 706.525,1145.25 708.768,1151.27 711.011,1157.02 713.253,1162.5 715.496,1167.73 717.739,1172.7 719.982,1177.44 722.225,1181.95 724.467,1186.25 726.71,1190.33 728.953,1194.21 731.196,1197.9 733.439,1201.4 735.682,1204.74 737.924,1207.9 740.167,1210.91 742.41,1213.76 744.653,1216.46 746.896,1219.01 749.138,1221.43 751.381,1223.72 753.624,1225.88 755.867,1227.91 758.11,1229.83 760.353,1231.63 762.595,1233.33 764.838,1234.92 767.081,1236.41 769.324,1237.8 771.567,1239.1 773.81,1240.31 776.052,1241.43 778.295,1242.46 780.538,1243.41 782.781,1244.29 785.024,1245.08 787.266,1245.79 789.509,1246.43 791.752,1247 793.995,1247.5 796.238,1247.93 798.481,1248.29 800.723,1248.59 802.966,1248.82 805.209,1248.99 807.452,1249.11 809.695,1249.16 811.938,1249.16 814.18,1249.1 816.423,1248.98 818.666,1248.81 820.909,1248.58 823.152,1248.31 825.394,1247.98 827.637,1247.59 829.88,1247.16 832.123,1246.68 834.366,1246.15 836.609,1245.58 838.851,1244.95 841.094,1244.28 843.337,1243.57 845.58,1242.8 847.823,1241.99 850.065,1241.14 852.308,1240.24 854.551,1239.3 856.794,1238.31 859.037,1237.29 861.28,1236.21 863.522,1235.1 865.765,1233.94 868.008,1232.73 870.251,1231.49 872.494,1230.2 874.737,1228.87 876.979,1227.5 879.222,1226.08 881.465,1224.62 883.708,1223.12 885.951,1221.57 888.193,1219.99 890.436,1218.35 892.679,1216.68 894.922,1214.96 897.165,1213.2 899.408,1211.4 901.65,1209.55 903.893,1207.66 906.136,1205.73 908.379,1203.75 910.622,1201.73 912.864,1199.66 915.107,1197.55 917.35,1195.4 919.593,1193.2 921.836,1190.95 924.079,1188.66 926.321,1186.32 928.564,1183.94 930.807,1181.51 933.05,1179.03 935.293,1176.51 937.536,1173.94 939.778,1171.32 942.021,1168.66 944.264,1165.94 946.507,1163.18 948.75,1160.37 950.992,1157.5 953.235,1154.59 955.478,1151.63 957.721,1148.61 959.964,1145.55 962.207,1142.43 964.449,1139.26 966.692,1136.03 968.935,1132.75 971.178,1129.42 973.421,1126.04 975.663,1122.59 977.906,1119.1 980.149,1115.54 982.392,1111.93 984.635,1108.27 986.878,1104.54 989.12,1100.76 991.363,1096.92 993.606,1093.01 995.849,1089.05 998.092,1085.03 1000.33,1080.94 1002.58,1076.8 1004.82,1072.59 1007.06,1068.32 1009.31,1063.98 1011.55,1059.58 1013.79,1055.11 1016.03,1050.58 1018.28,1045.98 1020.52,1041.31 1022.76,1036.58 1025.01,1031.77 1027.25,1026.9 1029.49,1021.95 1031.73,1016.94 1033.98,1011.85 1036.22,1006.69 1038.46,1001.46 1040.71,996.157 1042.95,990.777 1045.19,985.322 1047.43,979.791 1049.68,974.183 1051.92,968.497 1054.16,962.733 1056.41,956.89 1058.65,950.967 1060.89,944.963 1063.13,938.878 1065.38,932.712 1067.62,926.462 1069.86,920.129 1072.1,913.712 1074.35,907.211 1076.59,900.624 1078.83,893.951 1081.08,887.191 1083.32,880.345 1085.56,873.41 1087.8,866.387 1090.05,859.275 1092.29,852.073 1094.53,844.781 1096.78,837.398 1099.02,829.924 1101.26,822.358 1103.5,814.7 1105.75,806.948 1107.99,799.103 1110.23,791.164 1112.48,783.131 1114.72,775.003 1116.96,766.783 1119.2,758.478 1121.45,750.085 1123.69,741.601 1125.93,733.026 1128.18,724.356 1130.42,715.592 1132.66,706.731 1134.9,697.773 1137.15,688.717 1139.39,679.563 1141.63,670.311 1143.88,660.959 1146.12,651.51 1148.36,641.963 1150.6,632.319 1152.85,622.579 1155.09,612.744 1157.33,602.816 1159.57,592.797 1161.82,582.689 1164.06,572.493 1166.3,562.213 1168.55,551.85 1170.79,541.408 1173.03,530.891 1175.27,520.301 1177.52,509.642 1179.76,498.919 1182,488.135 1184.25,477.294 1186.49,466.402 1188.73,455.463 1190.97,444.483 1193.22,433.466 1195.46,422.418 1197.7,411.346 1199.95,400.255 1202.19,389.152 1204.43,378.043 1206.67,366.935 1208.92,355.835 1211.16,344.751 1213.4,333.689 1215.65,322.658 1217.89,311.667 1220.13,300.722 1222.37,289.832 1224.62,279.004 1226.86,268.237 1229.1,257.552 1231.35,246.97 1233.59,236.514 1235.83,226.207 1238.07,216.071 1240.32,206.129 1242.56,196.405 1244.8,186.922 1247.04,177.706 1249.29,168.78 1251.53,160.169 1253.77,151.899 1256.02,143.995 1258.26,136.483 1260.5,129.388 1262.74,122.738 1264.99,116.56 1267.23,110.879 1269.47,105.725 1271.72,101.124 1273.96,97.1056 1276.2,93.6972 1278.44,90.9278 1280.69,88.8267 1282.93,87.4232 1285.17,86.7472 1287.42,86.8289 1289.66,87.6985 1291.9,89.387 1294.14,91.9254 1296.39,95.3451 1298.63,99.6779 1300.87,104.956 1303.12,111.212 1305.36,118.509 1307.6,126.876 1309.84,136.291 1312.09,146.734 1314.33,158.18 1316.57,170.603 1318.82,183.974 1321.06,198.263 1323.3,213.439 1325.54,229.465 1327.79,246.306 1330.03,263.922 1332.27,282.274 1334.51,301.317 1336.76,321.006 1339,341.295 1341.24,362.134 1343.49,383.472 1345.73,405.255 1347.97,427.427 1350.21,449.931 1352.46,472.706 1354.7,495.691 1356.94,518.822 1359.19,542.033 1361.43,565.254 1363.67,588.417 1365.91,611.448 1368.16,634.272 1370.4,656.813 1372.64,679.001 1374.89,700.83 1377.13,722.274 1379.37,743.304 1381.61,763.89 1383.86,784.006 1386.1,803.63 1388.34,822.741 1390.59,841.321 1392.83,859.355 1395.07,876.832 1397.31,893.742 1399.56,910.078 1401.8,925.837 1404.04,941.018 1406.29,955.623 1408.53,969.655 1410.77,983.123 1413.01,996.036 1415.26,1008.41 1417.5,1020.25 1419.74,1031.59 1421.98,1042.44 1424.23,1052.82 1426.47,1062.77 1428.71,1072.31 1430.96,1081.48 1433.2,1090.3 1435.44,1098.75 1437.68,1106.83 1439.93,1114.55 1442.17,1121.92 1444.41,1128.96 1446.66,1135.68 1448.9,1142.1 1451.14,1148.22 1453.38,1154.06 1455.63,1159.63 1457.87,1164.95 1460.11,1170.01 1462.36,1174.84 1464.6,1179.45 1466.84,1183.83 1469.08,1188.01 1471.33,1191.98 1473.57,1195.77 1475.81,1199.37 1478.06,1202.79 1480.3,1206.03 1482.54,1209.12 1484.78,1212.04 1487.03,1214.81 1489.27,1217.43 1491.51,1219.91 1493.76,1222.25 1496,1224.46 1498.24,1226.54 1500.48,1228.51 1502.73,1230.36 1504.97,1232.11 1507.21,1233.74 1509.46,1235.27 1511.7,1236.7 1513.94,1238.03 1516.18,1239.27 1518.43,1240.42 1520.67,1241.49 1522.91,1242.46 1525.15,1243.36 1527.4,1244.17 1529.64,1244.91 1531.88,1245.57 1534.13,1246.17 1536.37,1246.69 1538.61,1247.14 1540.85,1247.53 1543.1,1247.85 1545.34,1248.11 1547.58,1248.3 1549.83,1248.44 1552.07,1248.52 1554.31,1248.53 1556.55,1248.5 1558.8,1248.4 1561.04,1248.25 1563.28,1248.05 1565.53,1247.79 1567.77,1247.48 1570.01,1247.12 1572.25,1246.71 1574.5,1246.25 1576.74,1245.75 1578.98,1245.19 1581.23,1244.58 1583.47,1243.93 1585.71,1243.23 1587.95,1242.49 1590.2,1241.69 1592.44,1240.86 1594.68,1239.97 1596.93,1239.04 1599.17,1238.07 1601.41,1237.05 1603.65,1235.99 1605.9,1234.89 1608.14,1233.74 1610.38,1232.55 1612.62,1231.32 1614.87,1230.04 1617.11,1228.72 1619.35,1227.36 1621.6,1225.95 1623.84,1224.5 1626.08,1223.01 1628.32,1221.48 1630.57,1219.91 1632.81,1218.29 1635.05,1216.63 1637.3,1214.93 1639.54,1213.18 1641.78,1211.39 1644.02,1209.56 1646.27,1207.68 1648.51,1205.76 1650.75,1203.8 1653,1201.79 1655.24,1199.74 1657.48,1197.64 1659.72,1195.5 1661.97,1193.31 1664.21,1191.08 1666.45,1188.81 1668.7,1186.48 1670.94,1184.11 1673.18,1181.7 1675.42,1179.23 1677.67,1176.73 1679.91,1174.17 1682.15,1171.56 1684.4,1168.91 1686.64,1166.21 1688.88,1163.46 1691.12,1160.66 1693.37,1157.81 1695.61,1154.91 1697.85,1151.96 1700.09,1148.96 1702.34,1145.91 1704.58,1142.8 1706.82,1139.64 1709.07,1136.43 1711.31,1133.17 1713.55,1129.85 1715.79,1126.48 1718.04,1123.06 1720.28,1119.57 1722.52,1116.04 1724.77,1112.44 1727.01,1108.79 1729.25,1105.08 1731.49,1101.31 1733.74,1097.48 1735.98,1093.6 1738.22,1089.65 1740.47,1085.64 1742.71,1081.57 1744.95,1077.44 1747.19,1073.25 1749.44,1068.99 1751.68,1064.67 1753.92,1060.29 1756.17,1055.84 1758.41,1051.32 1760.65,1046.74 1762.89,1042.09 1765.14,1037.37 1767.38,1032.58 1769.62,1027.73 1771.87,1022.8 1774.11,1017.81 1776.35,1012.74 1778.59,1007.6 1780.84,1002.39 1783.08,997.104 1785.32,991.744 1787.56,986.31 1789.81,980.8 1792.05,975.213 1794.29,969.55 1796.54,963.809 1798.78,957.989 1801.02,952.089 1803.26,946.11 1805.51,940.049 1807.75,933.907 1809.99,927.682 1812.24,921.374 1814.48,914.984 1816.72,908.51 1818.96,901.952 1821.21,895.309 1823.45,888.579 1825.69,881.762 1827.94,874.857 1830.18,867.864 1832.42,860.781 1834.66,853.608 1836.91,846.344 1839.15,838.989 1841.39,831.541 1843.64,824.002 1845.88,816.369 1848.12,808.643 1850.36,800.823 1852.61,792.91 1854.85,784.902 1857.09,776.799 1859.34,768.602 1861.58,760.31 1863.82,751.924 1866.06,743.442 1868.31,734.866 1870.55,726.195 1872.79,717.429 1875.03,708.569 1877.28,699.614 1879.52,690.566 1881.76,681.424 1884.01,672.188 1886.25,662.859 1888.49,653.438 1890.73,643.925 1892.98,634.32 1895.22,624.625 1897.46,614.839 1899.71,604.964 1901.95,595.015 1904.19,584.997 1906.43,574.908 1908.68,564.746 1910.92,554.508 1913.16,544.194 1915.41,533.803 1917.65,523.335 1919.89,512.792 1922.13,502.174 1924.38,491.484 1926.62,480.724 1928.86,469.898 1931.11,459.01 1933.35,448.064 1935.59,437.065 1937.83,426.019 1940.08,414.933 1942.32,403.813 1944.56,392.668 1946.81,381.504 1949.05,370.332 1951.29,359.161 1953.53,348.001 1955.78,336.862 1958.02,325.756 1960.26,314.696 1962.5,303.692 1964.75,292.76 1966.99,281.912 1969.23,271.163 1971.48,260.529 1973.72,250.024 1975.96,239.665 1978.2,229.47 1980.45,219.455 1982.69,209.639 1984.93,200.04 1987.18,190.679 1989.42,181.574 1991.66,172.748 1993.9,164.22 1996.15,156.013 1998.39,148.15 2000.63,140.653 2002.88,133.546 2005.12,126.854 2007.36,120.602 2009.6,114.815 2011.85,109.52 2014.09,104.741 2016.33,100.512 2018.58,96.8784 2020.82,93.8829 2023.06,91.5668 2025.3,89.9682 2027.55,89.1226 2029.79,89.0629 2032.03,89.8192 2034.28,91.4191 2036.52,93.8874 2038.76,97.2462 2041,101.515 2043.25,106.711 2045.49,112.848 2047.73,119.938 2049.97,127.989 2052.22,137.007 2054.46,146.997 2056.7,157.959 2058.95,169.891 2061.19,182.789 2063.43,196.646 2065.67,211.451 2067.92,227.206 2070.16,243.873 2072.4,261.392 2074.65,279.704 2076.89,298.75 2079.13,318.469 2081.37,338.801 2083.62,359.687 2085.86,381.066 2088.1,402.877 2090.35,425.059 2092.59,447.552 2094.83,470.295 2097.07,493.226 2099.32,516.284 2101.56,539.407 2103.8,562.533 2106.05,585.601 2108.29,608.548 2110.53,631.311 2112.77,653.829 2115.02,676.039 2117.26,697.877 2119.5,719.312 2121.75,740.325 2123.99,760.89 2126.23,780.986 2128.47,800.59 2130.72,819.685 2132.96,838.255 2135.2,856.287 2137.45,873.771 2139.69,890.697 2141.93,907.061 2144.17,922.859 2146.42,938.091 2148.66,952.757 2150.9,966.863 2153.14,980.415 2155.39,993.423 2157.63,1005.9 2159.87,1017.85 2162.12,1029.31 2164.36,1040.28 2166.6,1050.79 2168.84,1060.86 2171.09,1070.52 2173.33,1079.8 2175.57,1088.7 2177.82,1097.21 2180.06,1105.34 2182.3,1113.11 2184.54,1120.53 2186.79,1127.61 2189.03,1134.38 2191.27,1140.84 2193.52,1147.01 2195.76,1152.89 2198,1158.5 2200.24,1163.85 2202.49,1168.96 2204.73,1173.82 2206.97,1178.45 2209.22,1182.87 2211.46,1187.07 2213.7,1191.07 2215.94,1194.88 2218.19,1198.49 2220.43,1201.93 2222.67,1205.19 2224.92,1208.29 2227.16,1211.22 2229.4,1214 2231.64,1216.64 2233.89,1219.14 2236.13,1221.5 2238.37,1223.73 2240.61,1225.83 2242.86,1227.82 2245.1,1229.69 2247.34,1231.45 2249.59,1233.09 2251.83,1234.64 2254.07,1236.08 2256.31,1237.43 2258.56,1238.68 2260.8,1239.85 2263.04,1240.92 2265.29,1241.91 2267.53,1242.82 2269.77,1243.65 2272.01,1244.41 2274.26,1245.09 2276.5,1245.69 2278.74,1246.23 2280.99,1246.7 2283.23,1247.1 2285.47,1247.43 2287.71,1247.7 2289.96,1247.9 2292.2,1248.05 2294.44,1248.13 2296.69,1248.16 2298.93,1248.13 2301.17,1248.04 2303.41,1247.9 2305.66,1247.71 2307.9,1247.46 2310.14,1247.16 2312.39,1246.8 2314.63,1246.4 2316.87,1245.94 2319.11,1245.44 2321.36,1244.89 2323.6,1244.29 2325.84,1243.64 2328.08,1242.94 2330.33,1242.2 2332.57,1241.42 2334.81,1240.58 2337.06,1239.71 2339.3,1238.79 2341.54,1237.82 2343.78,1236.81 2346.03,1235.76 2348.27,1234.66 2350.51,1233.52 2352.76,1232.33 "/>
<polyline clip-path="url(#clip532)" style="stroke:#c271d2; stroke-linecap:round; stroke-linejoin:round; stroke-width:4; stroke-opacity:1; fill:none" points="112.177,1239.07 114.42,1242.94 116.663,1246.72 118.906,1250.41 121.148,1254.03 123.391,1257.56 125.634,1261.01 127.877,1264.38 130.12,1267.68 132.363,1270.9 134.605,1274.05 136.848,1277.13 139.091,1280.13 141.334,1283.07 143.577,1285.94 145.819,1288.74 148.062,1291.48 150.305,1294.16 152.548,1296.77 154.791,1299.32 157.034,1301.81 159.276,1304.25 161.519,1306.62 163.762,1308.95 166.005,1311.21 168.248,1313.43 170.491,1315.59 172.733,1317.7 174.976,1319.76 177.219,1321.77 179.462,1323.73 181.705,1325.65 183.947,1327.52 186.19,1329.34 188.433,1331.12 190.676,1332.86 192.919,1334.56 195.162,1336.21 197.404,1337.83 199.647,1339.4 201.89,1340.94 204.133,1342.44 206.376,1343.9 208.619,1345.32 210.861,1346.71 213.104,1348.07 215.347,1349.39 217.59,1350.68 219.833,1351.93 222.075,1353.15 224.318,1354.35 226.561,1355.51 228.804,1356.64 231.047,1357.74 233.29,1358.81 235.532,1359.86 237.775,1360.87 240.018,1361.86 242.261,1362.82 244.504,1363.76 246.746,1364.67 248.989,1365.56 251.232,1366.42 253.475,1367.25 255.718,1368.07 257.961,1368.86 260.203,1369.62 262.446,1370.36 264.689,1371.09 266.932,1371.78 269.175,1372.46 271.418,1373.12 273.66,1373.75 275.903,1374.36 278.146,1374.96 280.389,1375.53 282.632,1376.09 284.874,1376.62 287.117,1377.13 289.36,1377.63 291.603,1378.11 293.846,1378.56 296.089,1379 298.331,1379.42 300.574,1379.83 302.817,1380.21 305.06,1380.58 307.303,1380.93 309.545,1381.26 311.788,1381.57 314.031,1381.87 316.274,1382.15 318.517,1382.41 320.76,1382.65 323.002,1382.88 325.245,1383.09 327.488,1383.28 329.731,1383.45 331.974,1383.61 334.217,1383.75 336.459,1383.87 338.702,1383.97 340.945,1384.06 343.188,1384.13 345.431,1384.18 347.673,1384.21 349.916,1384.22 352.159,1384.21 354.402,1384.19 356.645,1384.15 358.888,1384.08 361.13,1384 363.373,1383.9 365.616,1383.78 367.859,1383.63 370.102,1383.47 372.344,1383.28 374.587,1383.07 376.83,1382.84 379.073,1382.58 381.316,1382.3 383.559,1382 385.801,1381.67 388.044,1381.31 390.287,1380.93 392.53,1380.52 394.773,1380.08 397.016,1379.61 399.258,1379.11 401.501,1378.58 403.744,1378.01 405.987,1377.41 408.23,1376.77 410.472,1376.1 412.715,1375.39 414.958,1374.64 417.201,1373.86 419.444,1373.03 421.687,1372.16 423.929,1371.25 426.172,1370.29 428.415,1369.28 430.658,1368.22 432.901,1367.11 435.143,1365.95 437.386,1364.73 439.629,1363.44 441.872,1362.09 444.115,1360.68 446.358,1359.19 448.6,1357.63 450.843,1356 453.086,1354.28 455.329,1352.48 457.572,1350.58 459.815,1348.59 462.057,1346.51 464.3,1344.32 466.543,1342.02 468.786,1339.61 471.029,1337.09 473.271,1334.44 475.514,1331.66 477.757,1328.76 480,1325.73 482.243,1322.56 484.486,1319.24 486.728,1315.76 488.971,1312.09 491.214,1308.24 493.457,1304.19 495.7,1299.92 497.942,1295.44 500.185,1290.71 502.428,1285.75 504.671,1280.52 506.914,1275.03 509.157,1269.26 511.399,1263.2 513.642,1256.84 515.885,1250.17 518.128,1243.18 520.371,1235.86 522.614,1228.2 524.856,1220.2 527.099,1211.83 529.342,1203.09 531.585,1193.98 533.828,1184.48 536.07,1174.58 538.313,1164.28 540.556,1153.56 542.799,1142.42 545.042,1130.85 547.285,1118.84 549.527,1106.39 551.77,1093.47 554.013,1080.09 556.256,1066.24 558.499,1051.91 560.741,1037.06 562.984,1021.72 565.227,1005.95 567.47,989.782 569.713,973.257 571.956,956.423 574.198,939.322 576.441,922.001 578.684,904.506 580.927,886.883 583.17,869.179 585.413,851.444 587.655,833.726 589.898,816.074 592.141,798.539 594.384,781.172 596.627,764.024 598.869,747.148 601.112,730.597 603.355,714.424 605.598,698.685 607.841,683.435 610.084,668.729 612.326,654.624 614.569,641.178 616.812,628.448 619.055,616.494 621.298,605.353 623.54,595.029 625.783,585.547 628.026,576.929 630.269,569.193 632.512,562.352 634.755,556.415 636.997,551.389 639.24,547.275 641.483,544.071 643.726,541.77 645.969,540.361 648.212,539.832 650.454,540.162 652.697,541.33 654.94,543.309 657.183,546.069 659.426,549.576 661.668,553.79 663.911,558.671 666.154,564.17 668.397,570.239 670.64,576.822 672.883,583.861 675.125,591.293 677.368,599.111 679.611,607.325 681.854,615.903 684.097,624.812 686.339,634.022 688.582,643.504 690.825,653.229 693.068,663.17 695.311,673.302 697.554,683.6 699.796,694.04 702.039,704.6 704.282,715.259 706.525,725.996 708.768,736.793 711.011,747.631 713.253,758.495 715.496,769.369 717.739,780.238 719.982,791.09 722.225,801.912 724.467,812.694 726.71,823.426 728.953,834.097 731.196,844.692 733.439,855.204 735.682,865.626 737.924,875.953 740.167,886.18 742.41,896.301 744.653,906.312 746.896,916.208 749.138,925.986 751.381,935.641 753.624,945.171 755.867,954.571 758.11,963.84 760.353,972.974 762.595,981.973 764.838,990.833 767.081,999.553 769.324,1008.13 771.567,1016.57 773.81,1024.87 776.052,1033.02 778.295,1041.03 780.538,1048.9 782.781,1056.63 785.024,1064.22 787.266,1071.67 789.509,1078.98 791.752,1086.16 793.995,1093.2 796.238,1100.11 798.481,1106.89 800.723,1113.54 802.966,1120.05 805.209,1126.44 807.452,1132.7 809.695,1138.83 811.938,1144.84 814.18,1150.72 816.423,1156.49 818.666,1162.14 820.909,1167.67 823.152,1173.08 825.394,1178.38 827.637,1183.57 829.88,1188.65 832.123,1193.62 834.366,1198.48 836.609,1203.24 838.851,1207.9 841.094,1212.45 843.337,1216.9 845.58,1221.26 847.823,1225.52 850.065,1229.68 852.308,1233.76 854.551,1237.74 856.794,1241.64 859.037,1245.45 861.28,1249.17 863.522,1252.81 865.765,1256.37 868.008,1259.84 870.251,1263.24 872.494,1266.56 874.737,1269.81 876.979,1272.98 879.222,1276.08 881.465,1279.11 883.708,1282.07 885.951,1284.96 888.193,1287.79 890.436,1290.55 892.679,1293.24 894.922,1295.87 897.165,1298.45 899.408,1300.96 901.65,1303.41 903.893,1305.81 906.136,1308.15 908.379,1310.44 910.622,1312.67 912.864,1314.85 915.107,1316.97 917.35,1319.05 919.593,1321.08 921.836,1323.06 924.079,1324.99 926.321,1326.88 928.564,1328.72 930.807,1330.52 933.05,1332.27 935.293,1333.98 937.536,1335.65 939.778,1337.28 942.021,1338.86 944.264,1340.41 946.507,1341.92 948.75,1343.4 950.992,1344.83 953.235,1346.23 955.478,1347.6 957.721,1348.93 959.964,1350.23 962.207,1351.49 964.449,1352.72 966.692,1353.92 968.935,1355.09 971.178,1356.23 973.421,1357.34 975.663,1358.43 977.906,1359.48 980.149,1360.5 982.392,1361.5 984.635,1362.47 986.878,1363.42 989.12,1364.33 991.363,1365.23 993.606,1366.1 995.849,1366.94 998.092,1367.76 1000.33,1368.56 1002.58,1369.33 1004.82,1370.09 1007.06,1370.81 1009.31,1371.52 1011.55,1372.21 1013.79,1372.87 1016.03,1373.51 1018.28,1374.13 1020.52,1374.74 1022.76,1375.32 1025.01,1375.88 1027.25,1376.42 1029.49,1376.94 1031.73,1377.44 1033.98,1377.92 1036.22,1378.39 1038.46,1378.83 1040.71,1379.26 1042.95,1379.67 1045.19,1380.06 1047.43,1380.43 1049.68,1380.78 1051.92,1381.12 1054.16,1381.44 1056.41,1381.74 1058.65,1382.02 1060.89,1382.29 1063.13,1382.54 1065.38,1382.77 1067.62,1382.99 1069.86,1383.18 1072.1,1383.36 1074.35,1383.53 1076.59,1383.67 1078.83,1383.8 1081.08,1383.91 1083.32,1384 1085.56,1384.07 1087.8,1384.13 1090.05,1384.17 1092.29,1384.19 1094.53,1384.19 1096.78,1384.17 1099.02,1384.13 1101.26,1384.07 1103.5,1384 1105.75,1383.9 1107.99,1383.78 1110.23,1383.64 1112.48,1383.48 1114.72,1383.3 1116.96,1383.1 1119.2,1382.86 1121.45,1382.6 1123.69,1382.31 1125.93,1381.99 1128.18,1381.65 1130.42,1381.28 1132.66,1380.89 1134.9,1380.47 1137.15,1380.02 1139.39,1379.54 1141.63,1379.04 1143.88,1378.51 1146.12,1377.95 1148.36,1377.36 1150.6,1376.73 1152.85,1376.08 1155.09,1375.39 1157.33,1374.66 1159.57,1373.9 1161.82,1373.1 1164.06,1372.26 1166.3,1371.37 1168.55,1370.44 1170.79,1369.47 1173.03,1368.44 1175.27,1367.36 1177.52,1366.23 1179.76,1365.03 1182,1363.78 1184.25,1362.46 1186.49,1361.08 1188.73,1359.62 1190.97,1358.09 1193.22,1356.48 1195.46,1354.79 1197.7,1353.02 1199.95,1351.15 1202.19,1349.19 1204.43,1347.13 1206.67,1344.97 1208.92,1342.7 1211.16,1340.32 1213.4,1337.83 1215.65,1335.21 1217.89,1332.46 1220.13,1329.58 1222.37,1326.56 1224.62,1323.4 1226.86,1320.11 1229.1,1316.66 1231.35,1313.06 1233.59,1309.27 1235.83,1305.3 1238.07,1301.12 1240.32,1296.72 1242.56,1292.1 1244.8,1287.23 1247.04,1282.11 1249.29,1276.72 1251.53,1271.05 1253.77,1265.1 1256.02,1258.85 1258.26,1252.28 1260.5,1245.4 1262.74,1238.18 1264.99,1230.62 1267.23,1222.71 1269.47,1214.45 1271.72,1205.81 1273.96,1196.79 1276.2,1187.39 1278.44,1177.6 1280.69,1167.4 1282.93,1156.79 1285.17,1145.76 1287.42,1134.31 1289.66,1122.43 1291.9,1110.11 1294.14,1097.34 1296.39,1084.12 1298.63,1070.45 1300.87,1056.32 1303.12,1041.72 1305.36,1026.6 1307.6,1010.97 1309.84,994.871 1312.09,978.37 1314.33,961.521 1316.57,944.38 1318.82,927.003 1321.06,909.442 1323.3,891.754 1325.54,873.991 1327.79,856.207 1330.03,838.454 1332.27,820.784 1334.51,803.248 1336.76,785.897 1339,768.782 1341.24,751.951 1343.49,735.455 1345.73,719.342 1347.97,703.659 1350.21,688.455 1352.46,673.776 1354.7,659.669 1356.94,646.179 1359.19,633.352 1361.43,621.232 1363.67,609.864 1365.91,599.292 1368.16,589.557 1370.4,580.703 1372.64,572.768 1374.89,565.745 1377.13,559.628 1379.37,554.412 1381.61,550.09 1383.86,546.654 1386.1,544.092 1388.34,542.392 1390.59,541.538 1392.83,541.514 1395.07,542.3 1397.31,543.875 1399.56,546.215 1401.8,549.296 1404.04,553.089 1406.29,557.566 1408.53,562.694 1410.77,568.44 1413.01,574.768 1415.26,581.641 1417.5,589.018 1419.74,596.857 1421.98,605.115 1424.23,613.745 1426.47,622.7 1428.71,631.929 1430.96,641.38 1433.2,651.001 1435.44,660.816 1437.68,670.825 1439.93,681.006 1442.17,691.337 1444.41,701.795 1446.66,712.361 1448.9,723.016 1451.14,733.74 1453.38,744.515 1455.63,755.326 1457.87,766.155 1460.11,776.988 1462.36,787.811 1464.6,798.61 1466.84,809.373 1469.08,820.088 1471.33,830.744 1473.57,841.333 1475.81,851.844 1478.06,862.271 1480.3,872.605 1482.54,882.841 1484.78,892.974 1487.03,902.998 1489.27,912.911 1491.51,922.71 1493.76,932.389 1496,941.94 1498.24,951.36 1500.48,960.65 1502.73,969.806 1504.97,978.828 1507.21,987.714 1509.46,996.464 1511.7,1005.08 1513.94,1013.55 1516.18,1021.88 1518.43,1030.08 1520.67,1038.14 1522.91,1046.05 1525.15,1053.83 1527.4,1061.47 1529.64,1068.97 1531.88,1076.33 1534.13,1083.55 1536.37,1090.64 1538.61,1097.59 1540.85,1104.4 1543.1,1111.09 1545.34,1117.64 1547.58,1124.06 1549.83,1130.35 1552.07,1136.52 1554.31,1142.56 1556.55,1148.48 1558.8,1154.28 1561.04,1159.97 1563.28,1165.53 1565.53,1170.98 1567.77,1176.31 1570.01,1181.54 1572.25,1186.65 1574.5,1191.65 1576.74,1196.55 1578.98,1201.34 1581.23,1206.03 1583.47,1210.61 1585.71,1215.1 1587.95,1219.49 1590.2,1223.79 1592.44,1227.99 1594.68,1232.09 1596.93,1236.11 1599.17,1240.04 1601.41,1243.87 1603.65,1247.63 1605.9,1251.3 1608.14,1254.88 1610.38,1258.39 1612.62,1261.82 1614.87,1265.17 1617.11,1268.44 1619.35,1271.64 1621.6,1274.76 1623.84,1277.81 1626.08,1280.8 1628.32,1283.71 1630.57,1286.56 1632.81,1289.34 1635.05,1292.06 1637.3,1294.71 1639.54,1297.31 1641.78,1299.84 1644.02,1302.31 1646.27,1304.73 1648.51,1307.09 1650.75,1309.39 1653,1311.64 1655.24,1313.83 1657.48,1315.98 1659.72,1318.07 1661.97,1320.12 1664.21,1322.11 1666.45,1324.06 1668.7,1325.96 1670.94,1327.82 1673.18,1329.63 1675.42,1331.4 1677.67,1333.12 1679.91,1334.8 1682.15,1336.45 1684.4,1338.05 1686.64,1339.62 1688.88,1341.14 1691.12,1342.63 1693.37,1344.08 1695.61,1345.5 1697.85,1346.88 1700.09,1348.22 1702.34,1349.54 1704.58,1350.82 1706.82,1352.06 1709.07,1353.28 1711.31,1354.46 1713.55,1355.61 1715.79,1356.74 1718.04,1357.83 1720.28,1358.89 1722.52,1359.93 1724.77,1360.94 1727.01,1361.92 1729.25,1362.87 1731.49,1363.8 1733.74,1364.7 1735.98,1365.58 1738.22,1366.43 1740.47,1367.26 1742.71,1368.06 1744.95,1368.84 1747.19,1369.6 1749.44,1370.33 1751.68,1371.04 1753.92,1371.74 1756.17,1372.4 1758.41,1373.05 1760.65,1373.68 1762.89,1374.29 1765.14,1374.87 1767.38,1375.44 1769.62,1375.99 1771.87,1376.51 1774.11,1377.02 1776.35,1377.51 1778.59,1377.98 1780.84,1378.43 1783.08,1378.87 1785.32,1379.28 1787.56,1379.68 1789.81,1380.06 1792.05,1380.42 1794.29,1380.76 1796.54,1381.08 1798.78,1381.39 1801.02,1381.68 1803.26,1381.95 1805.51,1382.21 1807.75,1382.44 1809.99,1382.66 1812.24,1382.86 1814.48,1383.05 1816.72,1383.21 1818.96,1383.36 1821.21,1383.49 1823.45,1383.6 1825.69,1383.69 1827.94,1383.77 1830.18,1383.83 1832.42,1383.87 1834.66,1383.89 1836.91,1383.89 1839.15,1383.88 1841.39,1383.84 1843.64,1383.79 1845.88,1383.72 1848.12,1383.63 1850.36,1383.51 1852.61,1383.38 1854.85,1383.23 1857.09,1383.05 1859.34,1382.85 1861.58,1382.63 1863.82,1382.39 1866.06,1382.12 1868.31,1381.83 1870.55,1381.52 1872.79,1381.17 1875.03,1380.8 1877.28,1380.41 1879.52,1379.98 1881.76,1379.53 1884.01,1379.04 1886.25,1378.53 1888.49,1377.98 1890.73,1377.4 1892.98,1376.78 1895.22,1376.13 1897.46,1375.44 1899.71,1374.72 1901.95,1373.94 1904.19,1373.12 1906.43,1372.25 1908.68,1371.33 1910.92,1370.36 1913.16,1369.34 1915.41,1368.27 1917.65,1367.15 1919.89,1365.97 1922.13,1364.74 1924.38,1363.45 1926.62,1362.11 1928.86,1360.7 1931.11,1359.22 1933.35,1357.68 1935.59,1356.06 1937.83,1354.38 1940.08,1352.61 1942.32,1350.76 1944.56,1348.82 1946.81,1346.79 1949.05,1344.66 1951.29,1342.43 1953.53,1340.09 1955.78,1337.64 1958.02,1335.06 1960.26,1332.36 1962.5,1329.52 1964.75,1326.54 1966.99,1323.42 1969.23,1320.13 1971.48,1316.68 1973.72,1313.06 1975.96,1309.26 1978.2,1305.27 1980.45,1301.08 1982.69,1296.68 1984.93,1292.06 1987.18,1287.21 1989.42,1282.13 1991.66,1276.79 1993.9,1271.2 1996.15,1265.33 1998.39,1259.19 2000.63,1252.75 2002.88,1246 2005.12,1238.93 2007.36,1231.53 2009.6,1223.79 2011.85,1215.69 2014.09,1207.23 2016.33,1198.39 2018.58,1189.16 2020.82,1179.51 2023.06,1169.45 2025.3,1158.95 2027.55,1148.01 2029.79,1136.62 2032.03,1124.77 2034.28,1112.47 2036.52,1099.72 2038.76,1086.51 2041,1072.87 2043.25,1058.78 2045.49,1044.27 2047.73,1029.35 2049.97,1014.04 2052.22,998.344 2054.46,982.296 2056.7,965.915 2058.95,949.228 2061.19,932.262 2063.43,915.049 2065.67,897.622 2067.92,880.008 2070.16,862.264 2072.4,844.462 2074.65,826.673 2076.89,808.963 2079.13,791.397 2081.37,774.04 2083.62,756.952 2085.86,740.193 2088.1,723.818 2090.35,707.884 2092.59,692.442 2094.83,677.544 2097.07,663.237 2099.32,649.568 2101.56,636.582 2103.8,624.319 2106.05,612.821 2108.29,602.126 2110.53,592.267 2112.77,583.281 2115.02,575.197 2117.26,568.045 2119.5,561.828 2121.75,556.529 2123.99,552.135 2126.23,548.635 2128.47,546.012 2130.72,544.251 2132.96,543.333 2135.2,543.238 2137.45,543.946 2139.69,545.432 2141.93,547.673 2144.17,550.643 2146.42,554.312 2148.66,558.653 2150.9,563.633 2153.14,569.22 2155.39,575.38 2157.63,582.076 2159.87,589.271 2162.12,596.926 2164.36,605 2166.6,613.449 2168.84,622.231 2171.09,631.3 2173.33,640.607 2175.57,650.143 2177.82,659.907 2180.06,669.873 2182.3,680.017 2184.54,690.316 2186.79,700.748 2189.03,711.291 2191.27,721.925 2193.52,732.631 2195.76,743.39 2198,754.185 2200.24,765 2202.49,775.82 2204.73,786.63 2206.97,797.416 2209.22,808.167 2211.46,818.871 2213.7,829.518 2215.94,840.099 2218.19,850.604 2220.43,861.027 2222.67,871.362 2224.92,881.602 2227.16,891.744 2229.4,901.777 2231.64,911.694 2233.89,921.494 2236.13,931.172 2238.37,940.727 2240.61,950.154 2242.86,959.453 2245.1,968.62 2247.34,977.654 2249.59,986.553 2251.83,995.316 2254.07,1003.94 2256.31,1012.43 2258.56,1020.77 2260.8,1028.98 2263.04,1037.05 2265.29,1044.97 2267.53,1052.76 2269.77,1060.4 2272.01,1067.91 2274.26,1075.28 2276.5,1082.51 2278.74,1089.6 2280.99,1096.56 2283.23,1103.39 2285.47,1110.08 2287.71,1116.65 2289.96,1123.08 2292.2,1129.39 2294.44,1135.58 2296.69,1141.64 2298.93,1147.57 2301.17,1153.39 2303.41,1159.08 2305.66,1164.66 2307.9,1170.12 2310.14,1175.47 2312.39,1180.71 2314.63,1185.83 2316.87,1190.85 2319.11,1195.76 2321.36,1200.57 2323.6,1205.27 2325.84,1209.87 2328.08,1214.37 2330.33,1218.77 2332.57,1223.07 2334.81,1227.28 2337.06,1231.4 2339.3,1235.42 2341.54,1239.36 2343.78,1243.21 2346.03,1246.97 2348.27,1250.65 2350.51,1254.25 2352.76,1257.76 "/>
<path clip-path="url(#clip530)" d="M186.863 352.309 L500.018 352.309 L500.018 93.1086 L186.863 93.1086  Z" fill="#ffffff" fill-rule="evenodd" fill-opacity="1"/>
<polyline clip-path="url(#clip530)" style="stroke:#000000; stroke-linecap:round; stroke-linejoin:round; stroke-width:4; stroke-opacity:1; fill:none" points="186.863,352.309 500.018,352.309 500.018,93.1086 186.863,93.1086 186.863,352.309 "/>
<polyline clip-path="url(#clip530)" style="stroke:#009af9; stroke-linecap:round; stroke-linejoin:round; stroke-width:4; stroke-opacity:1; fill:none" points="211.758,144.949 361.13,144.949 "/>
<path clip-path="url(#clip530)" d="M386.026 151.997 L386.026 136.303 L390.285 136.303 L390.285 151.835 Q390.285 155.516 391.72 157.368 Q393.155 159.196 396.026 159.196 Q399.475 159.196 401.465 156.997 Q403.479 154.798 403.479 151.002 L403.479 136.303 L407.739 136.303 L407.739 162.229 L403.479 162.229 L403.479 158.247 Q401.928 160.608 399.868 161.766 Q397.831 162.9 395.123 162.9 Q390.655 162.9 388.34 160.122 Q386.026 157.344 386.026 151.997 M396.743 135.678 L396.743 135.678 Z" fill="#000000" fill-rule="nonzero" fill-opacity="1" /><path clip-path="url(#clip530)" d="M416.118 126.21 L425.933 126.21 L425.933 129.52 L420.377 129.52 L420.377 165.168 L425.933 165.168 L425.933 168.479 L416.118 168.479 L416.118 126.21 Z" fill="#000000" fill-rule="nonzero" fill-opacity="1" /><path clip-path="url(#clip530)" d="M436.419 158.293 L444.058 158.293 L444.058 131.928 L435.748 133.595 L435.748 129.335 L444.011 127.669 L448.687 127.669 L448.687 158.293 L456.326 158.293 L456.326 162.229 L436.419 162.229 L436.419 158.293 Z" fill="#000000" fill-rule="nonzero" fill-opacity="1" /><path clip-path="url(#clip530)" d="M475.122 126.21 L475.122 168.479 L465.308 168.479 L465.308 165.168 L470.84 165.168 L470.84 129.52 L465.308 129.52 L465.308 126.21 L475.122 126.21 Z" fill="#000000" fill-rule="nonzero" fill-opacity="1" /><polyline clip-path="url(#clip530)" style="stroke:#e26f46; stroke-linecap:round; stroke-linejoin:round; stroke-width:4; stroke-opacity:1; fill:none" points="211.758,196.789 361.13,196.789 "/>
<path clip-path="url(#clip530)" d="M386.026 203.837 L386.026 188.143 L390.285 188.143 L390.285 203.675 Q390.285 207.356 391.72 209.208 Q393.155 211.036 396.026 211.036 Q399.475 211.036 401.465 208.837 Q403.479 206.638 403.479 202.842 L403.479 188.143 L407.739 188.143 L407.739 214.069 L403.479 214.069 L403.479 210.087 Q401.928 212.448 399.868 213.606 Q397.831 214.74 395.123 214.74 Q390.655 214.74 388.34 211.962 Q386.026 209.184 386.026 203.837 M396.743 187.518 L396.743 187.518 Z" fill="#000000" fill-rule="nonzero" fill-opacity="1" /><path clip-path="url(#clip530)" d="M416.118 178.05 L425.933 178.05 L425.933 181.36 L420.377 181.36 L420.377 217.008 L425.933 217.008 L425.933 220.319 L416.118 220.319 L416.118 178.05 Z" fill="#000000" fill-rule="nonzero" fill-opacity="1" /><path clip-path="url(#clip530)" d="M439.637 210.133 L455.956 210.133 L455.956 214.069 L434.012 214.069 L434.012 210.133 Q436.674 207.379 441.257 202.749 Q445.863 198.096 447.044 196.754 Q449.289 194.231 450.169 192.495 Q451.072 190.735 451.072 189.046 Q451.072 186.291 449.127 184.555 Q447.206 182.819 444.104 182.819 Q441.905 182.819 439.451 183.583 Q437.021 184.347 434.243 185.897 L434.243 181.175 Q437.067 180.041 439.521 179.462 Q441.974 178.884 444.011 178.884 Q449.382 178.884 452.576 181.569 Q455.771 184.254 455.771 188.745 Q455.771 190.874 454.961 192.796 Q454.173 194.694 452.067 197.286 Q451.488 197.958 448.386 201.175 Q445.285 204.37 439.637 210.133 Z" fill="#000000" fill-rule="nonzero" fill-opacity="1" /><path clip-path="url(#clip530)" d="M475.122 178.05 L475.122 220.319 L465.308 220.319 L465.308 217.008 L470.84 217.008 L470.84 181.36 L465.308 181.36 L465.308 178.05 L475.122 178.05 Z" fill="#000000" fill-rule="nonzero" fill-opacity="1" /><polyline clip-path="url(#clip530)" style="stroke:#3da44d; stroke-linecap:round; stroke-linejoin:round; stroke-width:4; stroke-opacity:1; fill:none" points="211.758,248.629 361.13,248.629 "/>
<path clip-path="url(#clip530)" d="M386.026 255.677 L386.026 239.983 L390.285 239.983 L390.285 255.515 Q390.285 259.196 391.72 261.048 Q393.155 262.876 396.026 262.876 Q399.475 262.876 401.465 260.677 Q403.479 258.478 403.479 254.682 L403.479 239.983 L407.739 239.983 L407.739 265.909 L403.479 265.909 L403.479 261.927 Q401.928 264.288 399.868 265.446 Q397.831 266.58 395.123 266.58 Q390.655 266.58 388.34 263.802 Q386.026 261.024 386.026 255.677 M396.743 239.358 L396.743 239.358 Z" fill="#000000" fill-rule="nonzero" fill-opacity="1" /><path clip-path="url(#clip530)" d="M416.118 229.89 L425.933 229.89 L425.933 233.2 L420.377 233.2 L420.377 268.848 L425.933 268.848 L425.933 272.159 L416.118 272.159 L416.118 229.89 Z" fill="#000000" fill-rule="nonzero" fill-opacity="1" /><path clip-path="url(#clip530)" d="M436.419 261.973 L444.058 261.973 L444.058 235.608 L435.748 237.275 L435.748 233.015 L444.011 231.349 L448.687 231.349 L448.687 261.973 L456.326 261.973 L456.326 265.909 L436.419 265.909 L436.419 261.973 Z" fill="#000000" fill-rule="nonzero" fill-opacity="1" /><path clip-path="url(#clip530)" d="M475.122 229.89 L475.122 272.159 L465.308 272.159 L465.308 268.848 L470.84 268.848 L470.84 233.2 L465.308 233.2 L465.308 229.89 L475.122 229.89 Z" fill="#000000" fill-rule="nonzero" fill-opacity="1" /><polyline clip-path="url(#clip530)" style="stroke:#c271d2; stroke-linecap:round; stroke-linejoin:round; stroke-width:4; stroke-opacity:1; fill:none" points="211.758,300.469 361.13,300.469 "/>
<path clip-path="url(#clip530)" d="M386.026 307.517 L386.026 291.823 L390.285 291.823 L390.285 307.355 Q390.285 311.036 391.72 312.888 Q393.155 314.716 396.026 314.716 Q399.475 314.716 401.465 312.517 Q403.479 310.318 403.479 306.522 L403.479 291.823 L407.739 291.823 L407.739 317.749 L403.479 317.749 L403.479 313.767 Q401.928 316.128 399.868 317.286 Q397.831 318.42 395.123 318.42 Q390.655 318.42 388.34 315.642 Q386.026 312.864 386.026 307.517 M396.743 291.198 L396.743 291.198 Z" fill="#000000" fill-rule="nonzero" fill-opacity="1" /><path clip-path="url(#clip530)" d="M416.118 281.73 L425.933 281.73 L425.933 285.04 L420.377 285.04 L420.377 320.688 L425.933 320.688 L425.933 323.999 L416.118 323.999 L416.118 281.73 Z" fill="#000000" fill-rule="nonzero" fill-opacity="1" /><path clip-path="url(#clip530)" d="M439.637 313.813 L455.956 313.813 L455.956 317.749 L434.012 317.749 L434.012 313.813 Q436.674 311.059 441.257 306.429 Q445.863 301.776 447.044 300.434 Q449.289 297.911 450.169 296.175 Q451.072 294.415 451.072 292.726 Q451.072 289.971 449.127 288.235 Q447.206 286.499 444.104 286.499 Q441.905 286.499 439.451 287.263 Q437.021 288.027 434.243 289.577 L434.243 284.855 Q437.067 283.721 439.521 283.142 Q441.974 282.564 444.011 282.564 Q449.382 282.564 452.576 285.249 Q455.771 287.934 455.771 292.425 Q455.771 294.554 454.961 296.476 Q454.173 298.374 452.067 300.966 Q451.488 301.638 448.386 304.855 Q445.285 308.05 439.637 313.813 Z" fill="#000000" fill-rule="nonzero" fill-opacity="1" /><path clip-path="url(#clip530)" d="M475.122 281.73 L475.122 323.999 L465.308 323.999 L465.308 320.688 L470.84 320.688 L470.84 285.04 L465.308 285.04 L465.308 281.73 L475.122 281.73 Z" fill="#000000" fill-rule="nonzero" fill-opacity="1" /></svg>
