<?xml version="1.0" encoding="utf-8"?>
<svg xmlns="http://www.w3.org/2000/svg" xmlns:xlink="http://www.w3.org/1999/xlink" width="600" height="400" viewBox="0 0 2400 1600">
<defs>
  <clipPath id="clip210">
    <rect x="0" y="0" width="2400" height="1600"/>
  </clipPath>
</defs>
<path clip-path="url(#clip210)" d="M0 1600 L2400 1600 L2400 0 L0 0  Z" fill="#ffffff" fill-rule="evenodd" fill-opacity="1"/>
<defs>
  <clipPath id="clip211">
    <rect x="480" y="0" width="1681" height="1600"/>
  </clipPath>
</defs>
<path clip-path="url(#clip210)" d="M112.177 1423.18 L2352.76 1423.18 L2352.76 47.2441 L112.177 47.2441  Z" fill="#ffffff" fill-rule="evenodd" fill-opacity="1"/>
<defs>
  <clipPath id="clip212">
    <rect x="112" y="47" width="2242" height="1377"/>
  </clipPath>
</defs>
<polyline clip-path="url(#clip212)" style="stroke:#000000; stroke-linecap:round; stroke-linejoin:round; stroke-width:2; stroke-opacity:0.1; fill:none" points="112.177,1423.18 112.177,47.2441 "/>
<polyline clip-path="url(#clip212)" style="stroke:#000000; stroke-linecap:round; stroke-linejoin:round; stroke-width:2; stroke-opacity:0.1; fill:none" points="560.293,1423.18 560.293,47.2441 "/>
<polyline clip-path="url(#clip212)" style="stroke:#000000; stroke-linecap:round; stroke-linejoin:round; stroke-width:2; stroke-opacity:0.1; fill:none" points="1008.41,1423.18 1008.41,47.2441 "/>
<polyline clip-path="url(#clip212)" style="stroke:#000000; stroke-linecap:round; stroke-linejoin:round; stroke-width:2; stroke-opacity:0.1; fill:none" points="1456.52,1423.18 1456.52,47.2441 "/>
<polyline clip-path="url(#clip212)" style="stroke:#000000; stroke-linecap:round; stroke-linejoin:round; stroke-width:2; stroke-opacity:0.1; fill:none" points="1904.64,1423.18 1904.64,47.2441 "/>
<polyline clip-path="url(#clip212)" style="stroke:#000000; stroke-linecap:round; stroke-linejoin:round; stroke-width:2; stroke-opacity:0.1; fill:none" points="2352.76,1423.18 2352.76,47.2441 "/>
<polyline clip-path="url(#clip210)" style="stroke:#000000; stroke-linecap:round; stroke-linejoin:round; stroke-width:4; stroke-opacity:1; fill:none" points="112.177,1423.18 2352.76,1423.18 "/>
<polyline clip-path="url(#clip210)" style="stroke:#000000; stroke-linecap:round; stroke-linejoin:round; stroke-width:4; stroke-opacity:1; fill:none" points="112.177,1423.18 112.177,1404.28 "/>
<polyline clip-path="url(#clip210)" style="stroke:#000000; stroke-linecap:round; stroke-linejoin:round; stroke-width:4; stroke-opacity:1; fill:none" points="560.293,1423.18 560.293,1404.28 "/>
<polyline clip-path="url(#clip210)" style="stroke:#000000; stroke-linecap:round; stroke-linejoin:round; stroke-width:4; stroke-opacity:1; fill:none" points="1008.41,1423.18 1008.41,1404.28 "/>
<polyline clip-path="url(#clip210)" style="stroke:#000000; stroke-linecap:round; stroke-linejoin:round; stroke-width:4; stroke-opacity:1; fill:none" points="1456.52,1423.18 1456.52,1404.28 "/>
<polyline clip-path="url(#clip210)" style="stroke:#000000; stroke-linecap:round; stroke-linejoin:round; stroke-width:4; stroke-opacity:1; fill:none" points="1904.64,1423.18 1904.64,1404.28 "/>
<polyline clip-path="url(#clip210)" style="stroke:#000000; stroke-linecap:round; stroke-linejoin:round; stroke-width:4; stroke-opacity:1; fill:none" points="2352.76,1423.18 2352.76,1404.28 "/>
<path clip-path="url(#clip210)" d="M112.177 1454.1 Q108.566 1454.1 106.737 1457.66 Q104.932 1461.2 104.932 1468.33 Q104.932 1475.44 106.737 1479.01 Q108.566 1482.55 112.177 1482.55 Q115.811 1482.55 117.617 1479.01 Q119.446 1475.44 119.446 1468.33 Q119.446 1461.2 117.617 1457.66 Q115.811 1454.1 112.177 1454.1 M112.177 1450.39 Q117.987 1450.39 121.043 1455 Q124.122 1459.58 124.122 1468.33 Q124.122 1477.06 121.043 1481.67 Q117.987 1486.25 112.177 1486.25 Q106.367 1486.25 103.288 1481.67 Q100.233 1477.06 100.233 1468.33 Q100.233 1459.58 103.288 1455 Q106.367 1450.39 112.177 1450.39 Z" fill="#000000" fill-rule="nonzero" fill-opacity="1" /><path clip-path="url(#clip210)" d="M554.946 1481.64 L571.265 1481.64 L571.265 1485.58 L549.321 1485.58 L549.321 1481.64 Q551.983 1478.89 556.566 1474.26 Q561.173 1469.61 562.353 1468.27 Q564.598 1465.74 565.478 1464.01 Q566.381 1462.25 566.381 1460.56 Q566.381 1457.8 564.436 1456.07 Q562.515 1454.33 559.413 1454.33 Q557.214 1454.33 554.761 1455.09 Q552.33 1455.86 549.552 1457.41 L549.552 1452.69 Q552.376 1451.55 554.83 1450.97 Q557.284 1450.39 559.321 1450.39 Q564.691 1450.39 567.885 1453.08 Q571.08 1455.77 571.08 1460.26 Q571.08 1462.39 570.27 1464.31 Q569.483 1466.2 567.376 1468.8 Q566.798 1469.47 563.696 1472.69 Q560.594 1475.88 554.946 1481.64 Z" fill="#000000" fill-rule="nonzero" fill-opacity="1" /><path clip-path="url(#clip210)" d="M1011.42 1455.09 L999.612 1473.54 L1011.42 1473.54 L1011.42 1455.09 M1010.19 1451.02 L1016.07 1451.02 L1016.07 1473.54 L1021 1473.54 L1021 1477.43 L1016.07 1477.43 L1016.07 1485.58 L1011.42 1485.58 L1011.42 1477.43 L995.816 1477.43 L995.816 1472.92 L1010.19 1451.02 Z" fill="#000000" fill-rule="nonzero" fill-opacity="1" /><path clip-path="url(#clip210)" d="M1456.93 1466.44 Q1453.78 1466.44 1451.93 1468.59 Q1450.1 1470.74 1450.1 1474.49 Q1450.1 1478.22 1451.93 1480.39 Q1453.78 1482.55 1456.93 1482.55 Q1460.08 1482.55 1461.91 1480.39 Q1463.76 1478.22 1463.76 1474.49 Q1463.76 1470.74 1461.91 1468.59 Q1460.08 1466.44 1456.93 1466.44 M1466.21 1451.78 L1466.21 1456.04 Q1464.45 1455.21 1462.65 1454.77 Q1460.86 1454.33 1459.11 1454.33 Q1454.48 1454.33 1452.02 1457.45 Q1449.59 1460.58 1449.24 1466.9 Q1450.61 1464.89 1452.67 1463.82 Q1454.73 1462.73 1457.21 1462.73 Q1462.42 1462.73 1465.42 1465.9 Q1468.46 1469.05 1468.46 1474.49 Q1468.46 1479.82 1465.31 1483.03 Q1462.16 1486.25 1456.93 1486.25 Q1450.93 1486.25 1447.76 1481.67 Q1444.59 1477.06 1444.59 1468.33 Q1444.59 1460.14 1448.48 1455.28 Q1452.37 1450.39 1458.92 1450.39 Q1460.68 1450.39 1462.46 1450.74 Q1464.27 1451.09 1466.21 1451.78 Z" fill="#000000" fill-rule="nonzero" fill-opacity="1" /><path clip-path="url(#clip210)" d="M1904.64 1469.17 Q1901.31 1469.17 1899.39 1470.95 Q1897.49 1472.73 1897.49 1475.86 Q1897.49 1478.98 1899.39 1480.77 Q1901.31 1482.55 1904.64 1482.55 Q1907.97 1482.55 1909.89 1480.77 Q1911.82 1478.96 1911.82 1475.86 Q1911.82 1472.73 1909.89 1470.95 Q1908 1469.17 1904.64 1469.17 M1899.96 1467.18 Q1896.96 1466.44 1895.27 1464.38 Q1893.6 1462.32 1893.6 1459.35 Q1893.6 1455.21 1896.54 1452.8 Q1899.5 1450.39 1904.64 1450.39 Q1909.8 1450.39 1912.74 1452.8 Q1915.68 1455.21 1915.68 1459.35 Q1915.68 1462.32 1913.99 1464.38 Q1912.33 1466.44 1909.34 1467.18 Q1912.72 1467.96 1914.59 1470.26 Q1916.49 1472.55 1916.49 1475.86 Q1916.49 1480.88 1913.41 1483.57 Q1910.36 1486.25 1904.64 1486.25 Q1898.92 1486.25 1895.84 1483.57 Q1892.79 1480.88 1892.79 1475.86 Q1892.79 1472.55 1894.69 1470.26 Q1896.58 1467.96 1899.96 1467.18 M1898.25 1459.79 Q1898.25 1462.48 1899.92 1463.98 Q1901.61 1465.49 1904.64 1465.49 Q1907.65 1465.49 1909.34 1463.98 Q1911.05 1462.48 1911.05 1459.79 Q1911.05 1457.11 1909.34 1455.6 Q1907.65 1454.1 1904.64 1454.1 Q1901.61 1454.1 1899.92 1455.6 Q1898.25 1457.11 1898.25 1459.79 Z" fill="#000000" fill-rule="nonzero" fill-opacity="1" /><path clip-path="url(#clip210)" d="M2327.44 1481.64 L2335.08 1481.64 L2335.08 1455.28 L2326.77 1456.95 L2326.77 1452.69 L2335.04 1451.02 L2339.71 1451.02 L2339.71 1481.64 L2347.35 1481.64 L2347.35 1485.58 L2327.44 1485.58 L2327.44 1481.64 Z" fill="#000000" fill-rule="nonzero" fill-opacity="1" /><path clip-path="url(#clip210)" d="M2366.8 1454.1 Q2363.18 1454.1 2361.36 1457.66 Q2359.55 1461.2 2359.55 1468.33 Q2359.55 1475.44 2361.36 1479.01 Q2363.18 1482.55 2366.8 1482.55 Q2370.43 1482.55 2372.23 1479.01 Q2374.06 1475.44 2374.06 1468.33 Q2374.06 1461.2 2372.23 1457.66 Q2370.43 1454.1 2366.8 1454.1 M2366.8 1450.39 Q2372.61 1450.39 2375.66 1455 Q2378.74 1459.58 2378.74 1468.33 Q2378.74 1477.06 2375.66 1481.67 Q2372.61 1486.25 2366.8 1486.25 Q2360.99 1486.25 2357.91 1481.67 Q2354.85 1477.06 2354.85 1468.33 Q2354.85 1459.58 2357.91 1455 Q2360.99 1450.39 2366.8 1450.39 Z" fill="#000000" fill-rule="nonzero" fill-opacity="1" /><path clip-path="url(#clip210)" d="M1231.53 1522.27 L1231.53 1532.4 L1243.59 1532.4 L1243.59 1536.95 L1231.53 1536.95 L1231.53 1556.3 Q1231.53 1560.66 1232.71 1561.9 Q1233.91 1563.14 1237.58 1563.14 L1243.59 1563.14 L1243.59 1568.04 L1237.58 1568.04 Q1230.8 1568.04 1228.22 1565.53 Q1225.64 1562.98 1225.64 1556.3 L1225.64 1536.95 L1221.34 1536.95 L1221.34 1532.4 L1225.64 1532.4 L1225.64 1522.27 L1231.53 1522.27 Z" fill="#000000" fill-rule="nonzero" fill-opacity="1" /><polyline clip-path="url(#clip212)" style="stroke:#000000; stroke-linecap:round; stroke-linejoin:round; stroke-width:2; stroke-opacity:0.1; fill:none" points="112.177,1239.07 2352.76,1239.07 "/>
<polyline clip-path="url(#clip212)" style="stroke:#000000; stroke-linecap:round; stroke-linejoin:round; stroke-width:2; stroke-opacity:0.1; fill:none" points="112.177,1043.73 2352.76,1043.73 "/>
<polyline clip-path="url(#clip212)" style="stroke:#000000; stroke-linecap:round; stroke-linejoin:round; stroke-width:2; stroke-opacity:0.1; fill:none" points="112.177,848.382 2352.76,848.382 "/>
<polyline clip-path="url(#clip212)" style="stroke:#000000; stroke-linecap:round; stroke-linejoin:round; stroke-width:2; stroke-opacity:0.1; fill:none" points="112.177,653.038 2352.76,653.038 "/>
<polyline clip-path="url(#clip212)" style="stroke:#000000; stroke-linecap:round; stroke-linejoin:round; stroke-width:2; stroke-opacity:0.1; fill:none" points="112.177,457.694 2352.76,457.694 "/>
<polyline clip-path="url(#clip212)" style="stroke:#000000; stroke-linecap:round; stroke-linejoin:round; stroke-width:2; stroke-opacity:0.1; fill:none" points="112.177,262.35 2352.76,262.35 "/>
<polyline clip-path="url(#clip212)" style="stroke:#000000; stroke-linecap:round; stroke-linejoin:round; stroke-width:2; stroke-opacity:0.1; fill:none" points="112.177,67.0066 2352.76,67.0066 "/>
<polyline clip-path="url(#clip210)" style="stroke:#000000; stroke-linecap:round; stroke-linejoin:round; stroke-width:4; stroke-opacity:1; fill:none" points="112.177,1423.18 112.177,47.2441 "/>
<polyline clip-path="url(#clip210)" style="stroke:#000000; stroke-linecap:round; stroke-linejoin:round; stroke-width:4; stroke-opacity:1; fill:none" points="112.177,1239.07 131.075,1239.07 "/>
<polyline clip-path="url(#clip210)" style="stroke:#000000; stroke-linecap:round; stroke-linejoin:round; stroke-width:4; stroke-opacity:1; fill:none" points="112.177,1043.73 131.075,1043.73 "/>
<polyline clip-path="url(#clip210)" style="stroke:#000000; stroke-linecap:round; stroke-linejoin:round; stroke-width:4; stroke-opacity:1; fill:none" points="112.177,848.382 131.075,848.382 "/>
<polyline clip-path="url(#clip210)" style="stroke:#000000; stroke-linecap:round; stroke-linejoin:round; stroke-width:4; stroke-opacity:1; fill:none" points="112.177,653.038 131.075,653.038 "/>
<polyline clip-path="url(#clip210)" style="stroke:#000000; stroke-linecap:round; stroke-linejoin:round; stroke-width:4; stroke-opacity:1; fill:none" points="112.177,457.694 131.075,457.694 "/>
<polyline clip-path="url(#clip210)" style="stroke:#000000; stroke-linecap:round; stroke-linejoin:round; stroke-width:4; stroke-opacity:1; fill:none" points="112.177,262.35 131.075,262.35 "/>
<polyline clip-path="url(#clip210)" style="stroke:#000000; stroke-linecap:round; stroke-linejoin:round; stroke-width:4; stroke-opacity:1; fill:none" points="112.177,67.0066 131.075,67.0066 "/>
<path clip-path="url(#clip210)" d="M56.2699 1252.41 L63.9087 1252.41 L63.9087 1226.05 L55.5986 1227.72 L55.5986 1223.46 L63.8624 1221.79 L68.5383 1221.79 L68.5383 1252.41 L76.1772 1252.41 L76.1772 1256.35 L56.2699 1256.35 L56.2699 1252.41 Z" fill="#000000" fill-rule="nonzero" fill-opacity="1" /><path clip-path="url(#clip210)" d="M59.8578 1057.07 L76.1772 1057.07 L76.1772 1061.01 L54.2328 1061.01 L54.2328 1057.07 Q56.8949 1054.32 61.4782 1049.69 Q66.0846 1045.03 67.2652 1043.69 Q69.5105 1041.17 70.3902 1039.43 Q71.2929 1037.67 71.2929 1035.98 Q71.2929 1033.23 69.3485 1031.49 Q67.4272 1029.76 64.3254 1029.76 Q62.1263 1029.76 59.6726 1030.52 Q57.2421 1031.28 54.4643 1032.83 L54.4643 1028.11 Q57.2884 1026.98 59.7421 1026.4 Q62.1958 1025.82 64.2328 1025.82 Q69.6031 1025.82 72.7976 1028.51 Q75.992 1031.19 75.992 1035.68 Q75.992 1037.81 75.1818 1039.73 Q74.3948 1041.63 72.2883 1044.22 Q71.7096 1044.89 68.6078 1048.11 Q65.5059 1051.31 59.8578 1057.07 Z" fill="#000000" fill-rule="nonzero" fill-opacity="1" /><path clip-path="url(#clip210)" d="M69.0476 847.028 Q72.404 847.745 74.279 850.014 Q76.1772 852.282 76.1772 855.616 Q76.1772 860.731 72.6587 863.532 Q69.1402 866.333 62.6587 866.333 Q60.4828 866.333 58.168 865.893 Q55.8764 865.477 53.4227 864.62 L53.4227 860.106 Q55.3671 861.241 57.6819 861.819 Q59.9967 862.398 62.5198 862.398 Q66.918 862.398 69.2096 860.662 Q71.5244 858.926 71.5244 855.616 Q71.5244 852.56 69.3717 850.847 Q67.242 849.111 63.4226 849.111 L59.3949 849.111 L59.3949 845.268 L63.6078 845.268 Q67.0569 845.268 68.8855 843.903 Q70.7142 842.514 70.7142 839.921 Q70.7142 837.259 68.8161 835.847 Q66.9411 834.412 63.4226 834.412 Q61.5013 834.412 59.3023 834.829 Q57.1032 835.245 54.4643 836.125 L54.4643 831.958 Q57.1264 831.218 59.4412 830.847 Q61.7791 830.477 63.8393 830.477 Q69.1633 830.477 72.2652 832.907 Q75.367 835.315 75.367 839.435 Q75.367 842.305 73.7235 844.296 Q72.08 846.264 69.0476 847.028 Z" fill="#000000" fill-rule="nonzero" fill-opacity="1" /><path clip-path="url(#clip210)" d="M66.5939 639.832 L54.7884 658.281 L66.5939 658.281 L66.5939 639.832 M65.367 635.758 L71.2466 635.758 L71.2466 658.281 L76.1772 658.281 L76.1772 662.17 L71.2466 662.17 L71.2466 670.318 L66.5939 670.318 L66.5939 662.17 L50.9921 662.17 L50.9921 657.656 L65.367 635.758 Z" fill="#000000" fill-rule="nonzero" fill-opacity="1" /><path clip-path="url(#clip210)" d="M55.2745 440.414 L73.6309 440.414 L73.6309 444.349 L59.5569 444.349 L59.5569 452.822 Q60.5754 452.474 61.5939 452.312 Q62.6124 452.127 63.6309 452.127 Q69.418 452.127 72.7976 455.298 Q76.1772 458.47 76.1772 463.886 Q76.1772 469.465 72.705 472.567 Q69.2328 475.646 62.9134 475.646 Q60.7374 475.646 58.4689 475.275 Q56.2236 474.905 53.8162 474.164 L53.8162 469.465 Q55.8995 470.599 58.1217 471.155 Q60.3439 471.71 62.8208 471.71 Q66.8254 471.71 69.1633 469.604 Q71.5013 467.497 71.5013 463.886 Q71.5013 460.275 69.1633 458.169 Q66.8254 456.062 62.8208 456.062 Q60.9458 456.062 59.0708 456.479 Q57.2189 456.896 55.2745 457.775 L55.2745 440.414 Z" fill="#000000" fill-rule="nonzero" fill-opacity="1" /><path clip-path="url(#clip210)" d="M64.6495 260.487 Q61.5013 260.487 59.6495 262.64 Q57.8208 264.793 57.8208 268.543 Q57.8208 272.269 59.6495 274.445 Q61.5013 276.598 64.6495 276.598 Q67.7976 276.598 69.6263 274.445 Q71.4781 272.269 71.4781 268.543 Q71.4781 264.793 69.6263 262.64 Q67.7976 260.487 64.6495 260.487 M73.9318 245.834 L73.9318 250.094 Q72.1726 249.26 70.367 248.82 Q68.5846 248.381 66.8254 248.381 Q62.1958 248.381 59.7421 251.506 Q57.3115 254.631 56.9643 260.95 Q58.33 258.936 60.3902 257.871 Q62.4504 256.783 64.9272 256.783 Q70.1355 256.783 73.1448 259.955 Q76.1772 263.103 76.1772 268.543 Q76.1772 273.867 73.029 277.084 Q69.8809 280.302 64.6495 280.302 Q58.6541 280.302 55.4828 275.718 Q52.3116 271.112 52.3116 262.385 Q52.3116 254.191 56.2004 249.33 Q60.0893 244.445 66.6402 244.445 Q68.3994 244.445 70.1818 244.793 Q71.9874 245.14 73.9318 245.834 Z" fill="#000000" fill-rule="nonzero" fill-opacity="1" /><path clip-path="url(#clip210)" d="M53.9551 49.7266 L76.1772 49.7266 L76.1772 51.7174 L63.6309 84.2866 L58.7467 84.2866 L70.5522 53.6618 L53.9551 53.6618 L53.9551 49.7266 Z" fill="#000000" fill-rule="nonzero" fill-opacity="1" /><polyline clip-path="url(#clip212)" style="stroke:#009af9; stroke-linecap:round; stroke-linejoin:round; stroke-width:4; stroke-opacity:1; fill:none" points="112.177,1239.07 114.42,1238.07 116.663,1237.03 118.906,1235.94 121.148,1234.81 123.391,1233.64 125.634,1232.42 127.877,1231.16 130.12,1229.86 132.363,1228.51 134.605,1227.12 136.848,1225.69 139.091,1224.22 141.334,1222.71 143.577,1221.15 145.819,1219.55 148.062,1217.9 150.305,1216.22 152.548,1214.49 154.791,1212.71 157.034,1210.9 159.276,1209.04 161.519,1207.14 163.762,1205.19 166.005,1203.2 168.248,1201.17 170.491,1199.09 172.733,1196.96 174.976,1194.8 177.219,1192.58 179.462,1190.33 181.705,1188.02 183.947,1185.67 186.19,1183.28 188.433,1180.84 190.676,1178.35 192.919,1175.81 195.162,1173.23 197.404,1170.6 199.647,1167.92 201.89,1165.19 204.133,1162.41 206.376,1159.58 208.619,1156.71 210.861,1153.78 213.104,1150.8 215.347,1147.77 217.59,1144.69 219.833,1141.56 222.075,1138.37 224.318,1135.13 226.561,1131.84 228.804,1128.49 231.047,1125.09 233.29,1121.64 235.532,1118.12 237.775,1114.55 240.018,1110.93 242.261,1107.24 244.504,1103.5 246.746,1099.7 248.989,1095.84 251.232,1091.92 253.475,1087.94 255.718,1083.9 257.961,1079.8 260.203,1075.64 262.446,1071.41 264.689,1067.12 266.932,1062.76 269.175,1058.34 271.418,1053.86 273.66,1049.3 275.903,1044.69 278.146,1040 280.389,1035.24 282.632,1030.42 284.874,1025.53 287.117,1020.56 289.36,1015.53 291.603,1010.42 293.846,1005.24 296.089,999.988 298.331,994.661 300.574,989.259 302.817,983.782 305.06,978.229 307.303,972.599 309.545,966.892 311.788,961.106 314.031,955.241 316.274,949.296 318.517,943.271 320.76,937.164 323.002,930.975 325.245,924.704 327.488,918.35 329.731,911.912 331.974,905.389 334.217,898.781 336.459,892.086 338.702,885.305 340.945,878.436 343.188,871.478 345.431,864.431 347.673,857.295 349.916,850.068 352.159,842.75 354.402,835.341 356.645,827.84 358.888,820.246 361.13,812.56 363.373,804.78 365.616,796.907 367.859,788.94 370.102,780.879 372.344,772.723 374.587,764.473 376.83,756.127 379.073,747.687 381.316,739.151 383.559,730.52 385.801,721.794 388.044,712.973 390.287,704.056 392.53,695.043 394.773,685.936 397.016,676.733 399.258,667.44 401.501,658.057 403.744,648.583 405.987,639.018 408.23,629.362 410.472,619.614 412.715,609.775 414.958,599.846 417.201,589.828 419.444,579.723 421.687,569.531 423.929,559.256 426.172,548.898 428.415,538.461 430.658,527.947 432.901,517.36 435.143,506.702 437.386,495.978 439.629,485.192 441.872,474.347 444.115,463.449 446.358,452.501 448.6,441.51 450.843,430.48 453.086,419.418 455.329,408.329 457.572,397.22 459.815,386.097 462.057,374.968 464.3,363.838 466.543,352.717 468.786,341.611 471.029,330.529 473.271,319.478 475.514,308.468 477.757,297.494 480,286.566 482.243,275.703 484.486,264.923 486.728,254.245 488.971,243.689 491.214,233.274 493.457,223.022 495.7,212.953 497.942,203.088 500.185,193.451 502.428,184.063 504.671,174.947 506.914,166.127 509.157,157.626 511.399,149.469 513.642,141.682 515.885,134.288 518.128,127.315 520.371,120.789 522.614,114.735 524.856,109.183 527.099,104.159 529.342,99.6921 531.585,95.8109 533.828,92.5445 536.07,89.923 538.313,87.9764 540.556,86.7355 542.799,86.2316 545.042,86.4963 547.285,87.562 549.527,89.4611 551.77,92.227 554.013,95.8933 556.256,100.494 558.499,106.067 560.741,112.651 562.984,120.251 565.227,128.863 567.47,138.48 569.713,149.093 571.956,160.688 574.198,173.248 576.441,186.754 578.684,201.182 580.927,216.505 583.17,232.695 585.413,249.716 587.655,267.532 589.898,286.105 592.141,305.389 594.384,325.339 596.627,345.905 598.869,367.032 601.112,388.666 603.355,410.745 605.598,433.206 607.841,455.983 610.084,479.006 612.326,502.201 614.569,525.492 616.812,548.799 619.055,572.038 621.298,595.15 623.54,618.112 625.783,640.869 628.026,663.367 630.269,685.557 632.512,707.395 634.755,728.838 636.997,749.85 639.24,770.396 641.483,790.448 643.726,809.98 645.969,828.971 648.212,847.403 650.454,865.262 652.697,882.538 654.94,899.227 657.183,915.325 659.426,930.837 661.668,945.767 663.911,960.125 666.154,973.927 668.397,987.19 670.64,999.935 672.883,1012.19 675.125,1023.98 677.368,1035.31 679.611,1046.17 681.854,1056.56 684.097,1066.51 686.339,1076.03 688.582,1085.15 690.825,1093.86 693.068,1102.2 695.311,1110.16 697.554,1117.78 699.796,1125.05 702.039,1132 704.282,1138.63 706.525,1144.96 708.768,1151 711.011,1156.76 713.253,1162.25 715.496,1167.48 717.739,1172.47 719.982,1177.22 722.225,1181.74 724.467,1186.04 726.71,1190.13 728.953,1194.02 731.196,1197.72 733.439,1201.23 735.682,1204.58 737.924,1207.75 740.167,1210.76 742.41,1213.62 744.653,1216.32 746.896,1218.88 749.138,1221.31 751.381,1223.6 753.624,1225.76 755.867,1227.81 758.11,1229.73 760.353,1231.54 762.595,1233.24 764.838,1234.84 767.081,1236.33 769.324,1237.73 771.567,1239.03 773.81,1240.24 776.052,1241.37 778.295,1242.4 780.538,1243.36 782.781,1244.23 785.024,1245.03 787.266,1245.75 789.509,1246.39 791.752,1246.96 793.995,1247.46 796.238,1247.89 798.481,1248.26 800.723,1248.56 802.966,1248.8 805.209,1248.98 807.452,1249.09 809.695,1249.15 811.938,1249.15 814.18,1249.09 816.423,1248.97 818.666,1248.81 820.909,1248.58 823.152,1248.31 825.394,1247.98 827.637,1247.6 829.88,1247.17 832.123,1246.7 834.366,1246.17 836.609,1245.6 838.851,1244.97 841.094,1244.31 843.337,1243.59 845.58,1242.83 847.823,1242.02 850.065,1241.17 852.308,1240.28 854.551,1239.34 856.794,1238.35 859.037,1237.33 861.28,1236.26 863.522,1235.14 865.765,1233.98 868.008,1232.78 870.251,1231.54 872.494,1230.26 874.737,1228.93 876.979,1227.56 879.222,1226.14 881.465,1224.68 883.708,1223.19 885.951,1221.64 888.193,1220.06 890.436,1218.43 892.679,1216.76 894.922,1215.04 897.165,1213.29 899.408,1211.48 901.65,1209.64 903.893,1207.75 906.136,1205.82 908.379,1203.85 910.622,1201.83 912.864,1199.76 915.107,1197.65 917.35,1195.5 919.593,1193.3 921.836,1191.06 924.079,1188.77 926.321,1186.44 928.564,1184.06 930.807,1181.63 933.05,1179.16 935.293,1176.64 937.536,1174.07 939.778,1171.46 942.021,1168.79 944.264,1166.08 946.507,1163.32 948.75,1160.51 950.992,1157.65 953.235,1154.74 955.478,1151.78 957.721,1148.77 959.964,1145.71 962.207,1142.59 964.449,1139.42 966.692,1136.2 968.935,1132.93 971.178,1129.6 973.421,1126.22 975.663,1122.78 977.906,1119.29 980.149,1115.74 982.392,1112.13 984.635,1108.47 986.878,1104.75 989.12,1100.97 991.363,1097.13 993.606,1093.23 995.849,1089.27 998.092,1085.26 1000.33,1081.17 1002.58,1077.03 1004.82,1072.83 1007.06,1068.56 1009.31,1064.23 1011.55,1059.83 1013.79,1055.37 1016.03,1050.84 1018.28,1046.25 1020.52,1041.58 1022.76,1036.85 1025.01,1032.05 1027.25,1027.18 1029.49,1022.25 1031.73,1017.24 1033.98,1012.15 1036.22,1007 1038.46,1001.77 1040.71,996.475 1042.95,991.1 1045.19,985.651 1047.43,980.125 1049.68,974.523 1051.92,968.843 1054.16,963.085 1056.41,957.248 1058.65,951.331 1060.89,945.333 1063.13,939.254 1065.38,933.094 1067.62,926.85 1069.86,920.524 1072.1,914.114 1074.35,907.619 1076.59,901.038 1078.83,894.372 1081.08,887.619 1083.32,880.779 1085.56,873.852 1087.8,866.836 1090.05,859.731 1092.29,852.536 1094.53,845.251 1096.78,837.876 1099.02,830.409 1101.26,822.85 1103.5,815.199 1105.75,807.455 1107.99,799.618 1110.23,791.687 1112.48,783.661 1114.72,775.54 1116.96,767.328 1119.2,759.031 1121.45,750.645 1123.69,742.169 1125.93,733.602 1128.18,724.94 1130.42,716.184 1132.66,707.331 1134.9,698.381 1137.15,689.333 1139.39,680.187 1141.63,670.943 1143.88,661.6 1146.12,652.158 1148.36,642.619 1150.6,632.984 1152.85,623.252 1155.09,613.426 1157.33,603.506 1159.57,593.495 1161.82,583.395 1164.06,573.207 1166.3,562.934 1168.55,552.579 1170.79,542.146 1173.03,531.636 1175.27,521.053 1177.52,510.401 1179.76,499.685 1182,488.907 1184.25,478.073 1186.49,467.187 1188.73,456.254 1190.97,445.279 1193.22,434.267 1195.46,423.224 1197.7,412.156 1199.95,401.069 1202.19,389.969 1204.43,378.862 1206.67,367.756 1208.92,356.658 1211.16,345.574 1213.4,334.513 1215.65,323.481 1217.89,312.488 1220.13,301.541 1222.37,290.649 1224.62,279.816 1226.86,269.044 1229.1,258.353 1231.35,247.764 1233.59,237.3 1235.83,226.982 1238.07,216.835 1240.32,206.88 1242.56,197.141 1244.8,187.643 1247.04,178.409 1249.29,169.463 1251.53,160.831 1253.77,152.537 1256.02,144.607 1258.26,137.067 1260.5,129.942 1262.74,123.26 1264.99,117.047 1267.23,111.33 1269.47,106.136 1271.72,101.494 1273.96,97.431 1276.2,93.976 1278.44,91.1577 1280.69,89.005 1282.93,87.5475 1285.17,86.8149 1287.42,86.8373 1289.66,87.6451 1291.9,89.2692 1294.14,91.7406 1296.39,95.0908 1298.63,99.3515 1300.87,104.555 1303.12,110.733 1305.36,117.948 1307.6,126.233 1309.84,135.568 1312.09,145.932 1314.33,157.3 1316.57,169.647 1318.82,182.944 1321.06,197.162 1323.3,212.267 1325.54,228.227 1327.79,245.002 1330.03,262.557 1332.27,280.849 1334.51,299.835 1336.76,319.472 1339,339.711 1341.24,360.504 1343.49,381.799 1345.73,403.544 1347.97,425.682 1350.21,448.156 1352.46,470.907 1354.7,493.872 1356.94,516.989 1359.19,540.19 1361.43,563.409 1363.67,586.574 1365.91,609.614 1368.16,632.454 1370.4,655.018 1372.64,677.232 1374.89,699.087 1377.13,720.56 1379.37,741.62 1381.61,762.239 1383.86,782.39 1386.1,802.051 1388.34,821.2 1390.59,839.82 1392.83,857.896 1395.07,875.416 1397.31,892.369 1399.56,908.75 1401.8,924.555 1404.04,939.781 1406.29,954.431 1408.53,968.509 1410.77,982.021 1413.01,994.978 1415.26,1007.39 1417.5,1019.28 1419.74,1030.65 1421.98,1041.54 1424.23,1051.96 1426.47,1061.95 1428.71,1071.52 1430.96,1080.72 1433.2,1089.57 1435.44,1098.05 1437.68,1106.16 1439.93,1113.9 1442.17,1121.3 1444.41,1128.37 1446.66,1135.12 1448.9,1141.56 1451.14,1147.7 1453.38,1153.57 1455.63,1159.16 1457.87,1164.49 1460.11,1169.58 1462.36,1174.43 1464.6,1179.05 1466.84,1183.46 1469.08,1187.65 1471.33,1191.64 1473.57,1195.44 1475.81,1199.05 1478.06,1202.49 1480.3,1205.75 1482.54,1208.85 1484.78,1211.79 1487.03,1214.57 1489.27,1217.2 1491.51,1219.69 1493.76,1222.04 1496,1224.26 1498.24,1226.36 1500.48,1228.33 1502.73,1230.2 1504.97,1231.95 1507.21,1233.59 1509.46,1235.13 1511.7,1236.57 1513.94,1237.91 1516.18,1239.16 1518.43,1240.31 1520.67,1241.38 1522.91,1242.37 1525.15,1243.27 1527.4,1244.09 1529.64,1244.84 1531.88,1245.51 1534.13,1246.11 1536.37,1246.63 1538.61,1247.09 1540.85,1247.48 1543.1,1247.81 1545.34,1248.07 1547.58,1248.28 1549.83,1248.42 1552.07,1248.5 1554.31,1248.52 1556.55,1248.49 1558.8,1248.4 1561.04,1248.25 1563.28,1248.05 1565.53,1247.8 1567.77,1247.5 1570.01,1247.14 1572.25,1246.74 1574.5,1246.28 1576.74,1245.78 1578.98,1245.23 1581.23,1244.63 1583.47,1243.98 1585.71,1243.28 1587.95,1242.54 1590.2,1241.75 1592.44,1240.92 1594.68,1240.04 1596.93,1239.12 1599.17,1238.15 1601.41,1237.14 1603.65,1236.08 1605.9,1234.98 1608.14,1233.83 1610.38,1232.65 1612.62,1231.42 1614.87,1230.14 1617.11,1228.83 1619.35,1227.47 1621.6,1226.07 1623.84,1224.62 1626.08,1223.14 1628.32,1221.61 1630.57,1220.04 1632.81,1218.43 1635.05,1216.77 1637.3,1215.07 1639.54,1213.33 1641.78,1211.54 1644.02,1209.71 1646.27,1207.84 1648.51,1205.93 1650.75,1203.97 1653,1201.96 1655.24,1199.92 1657.48,1197.82 1659.72,1195.69 1661.97,1193.51 1664.21,1191.28 1666.45,1189.01 1668.7,1186.69 1670.94,1184.32 1673.18,1181.91 1675.42,1179.45 1677.67,1176.95 1679.91,1174.4 1682.15,1171.8 1684.4,1169.15 1686.64,1166.45 1688.88,1163.71 1691.12,1160.91 1693.37,1158.07 1695.61,1155.17 1697.85,1152.23 1700.09,1149.23 1702.34,1146.19 1704.58,1143.09 1706.82,1139.94 1709.07,1136.73 1711.31,1133.47 1713.55,1130.16 1715.79,1126.8 1718.04,1123.37 1720.28,1119.9 1722.52,1116.37 1724.77,1112.78 1727.01,1109.13 1729.25,1105.43 1731.49,1101.67 1733.74,1097.85 1735.98,1093.97 1738.22,1090.03 1740.47,1086.02 1742.71,1081.96 1744.95,1077.84 1747.19,1073.65 1749.44,1069.4 1751.68,1065.09 1753.92,1060.71 1756.17,1056.27 1758.41,1051.76 1760.65,1047.18 1762.89,1042.54 1765.14,1037.83 1767.38,1033.05 1769.62,1028.2 1771.87,1023.28 1774.11,1018.3 1776.35,1013.24 1778.59,1008.11 1780.84,1002.9 1783.08,997.625 1785.32,992.274 1787.56,986.848 1789.81,981.347 1792.05,975.769 1794.29,970.114 1796.54,964.382 1798.78,958.571 1801.02,952.68 1803.26,946.71 1805.51,940.659 1807.75,934.526 1809.99,928.311 1812.24,922.013 1814.48,915.632 1816.72,909.168 1818.96,902.619 1821.21,895.986 1823.45,889.266 1825.69,882.46 1827.94,875.565 1830.18,868.582 1832.42,861.51 1834.66,854.348 1836.91,847.094 1839.15,839.75 1841.39,832.314 1843.64,824.785 1845.88,817.163 1848.12,809.448 1850.36,801.64 1852.61,793.738 1854.85,785.741 1857.09,777.65 1859.34,769.465 1861.58,761.184 1863.82,752.809 1866.06,744.339 1868.31,735.775 1870.55,727.115 1872.79,718.361 1875.03,709.512 1877.28,700.569 1879.52,691.533 1881.76,682.402 1884.01,673.178 1886.25,663.861 1888.49,654.452 1890.73,644.95 1892.98,635.357 1895.22,625.673 1897.46,615.899 1899.71,606.035 1901.95,596.094 1904.19,586.085 1906.43,576.005 1908.68,565.852 1910.92,555.624 1913.16,545.32 1915.41,534.939 1917.65,524.482 1919.89,513.949 1922.13,503.342 1924.38,492.662 1926.62,481.913 1928.86,471.097 1931.11,460.218 1933.35,449.28 1935.59,438.29 1937.83,427.252 1940.08,416.172 1942.32,405.059 1944.56,393.918 1946.81,382.759 1949.05,371.59 1951.29,360.421 1953.53,349.261 1955.78,338.122 1958.02,327.014 1960.26,315.95 1962.5,304.942 1964.75,294.003 1966.99,283.147 1969.23,272.388 1971.48,261.742 1973.72,251.224 1975.96,240.85 1978.2,230.636 1980.45,220.602 1982.69,210.764 1984.93,201.142 1987.18,191.754 1989.42,182.621 1991.66,173.763 1993.9,165.202 1996.15,156.96 1998.39,149.058 2000.63,141.52 2002.88,134.369 2005.12,127.631 2007.36,121.329 2009.6,115.49 2011.85,110.139 2014.09,105.303 2016.33,101.011 2018.58,97.3076 2020.82,94.2376 2023.06,91.8419 2025.3,90.159 2027.55,89.2248 2029.79,89.0726 2032.03,89.7328 2034.28,91.2334 2036.52,93.5995 2038.76,96.8536 2041,101.016 2043.25,106.102 2045.49,112.129 2047.73,119.107 2049.97,127.045 2052.22,135.95 2054.46,145.826 2056.7,156.673 2058.95,168.491 2061.19,181.274 2063.43,195.017 2065.67,209.708 2067.92,225.349 2070.16,241.908 2072.4,259.327 2074.65,277.546 2076.89,296.506 2079.13,316.147 2081.37,336.408 2083.62,357.229 2085.86,378.55 2088.1,400.31 2090.35,422.449 2092.59,444.906 2094.83,467.619 2097.07,490.527 2099.32,513.569 2101.56,536.684 2103.8,559.809 2106.05,582.883 2108.29,605.844 2110.53,628.629 2112.77,651.176 2115.02,673.423 2117.26,695.306 2119.5,716.786 2121.75,737.847 2123.99,758.464 2126.23,778.614 2128.47,798.274 2130.72,817.428 2132.96,836.059 2135.2,854.153 2137.45,871.7 2139.69,888.691 2141.93,905.121 2144.17,920.985 2146.42,936.282 2148.66,951.015 2150.9,965.187 2153.14,978.804 2155.39,991.875 2157.63,1004.41 2159.87,1016.43 2162.12,1027.94 2164.36,1038.97 2166.6,1049.53 2168.84,1059.65 2171.09,1069.36 2173.33,1078.69 2175.57,1087.63 2177.82,1096.19 2180.06,1104.36 2182.3,1112.17 2184.54,1119.63 2186.79,1126.76 2189.03,1133.56 2191.27,1140.06 2193.52,1146.26 2195.76,1152.17 2198,1157.82 2200.24,1163.2 2202.49,1168.33 2204.73,1173.23 2206.97,1177.89 2209.22,1182.33 2211.46,1186.56 2213.7,1190.58 2215.94,1194.41 2218.19,1198.05 2220.43,1201.51 2222.67,1204.79 2224.92,1207.91 2227.16,1210.86 2229.4,1213.66 2231.64,1216.31 2233.89,1218.82 2236.13,1221.2 2238.37,1223.45 2240.61,1225.57 2242.86,1227.57 2245.1,1229.45 2247.34,1231.22 2249.59,1232.88 2251.83,1234.44 2254.07,1235.9 2256.31,1237.26 2258.56,1238.52 2260.8,1239.69 2263.04,1240.78 2265.29,1241.78 2267.53,1242.7 2269.77,1243.54 2272.01,1244.31 2274.26,1244.99 2276.5,1245.61 2278.74,1246.15 2280.99,1246.63 2283.23,1247.04 2285.47,1247.38 2287.71,1247.65 2289.96,1247.87 2292.2,1248.02 2294.44,1248.11 2296.69,1248.15 2298.93,1248.12 2301.17,1248.04 2303.41,1247.91 2305.66,1247.72 2307.9,1247.48 2310.14,1247.18 2312.39,1246.84 2314.63,1246.44 2316.87,1245.99 2319.11,1245.49 2321.36,1244.95 2323.6,1244.35 2325.84,1243.71 2328.08,1243.02 2330.33,1242.29 2332.57,1241.51 2334.81,1240.68 2337.06,1239.81 2339.3,1238.89 2341.54,1237.93 2343.78,1236.93 2346.03,1235.88 2348.27,1234.79 2350.51,1233.65 2352.76,1232.48 "/>
<polyline clip-path="url(#clip212)" style="stroke:#e26f46; stroke-linecap:round; stroke-linejoin:round; stroke-width:4; stroke-opacity:1; fill:none" points="112.177,1239.07 114.42,1242.94 116.663,1246.72 118.906,1250.41 121.148,1254.03 123.391,1257.56 125.634,1261.01 127.877,1264.38 130.12,1267.68 132.363,1270.9 134.605,1274.05 136.848,1277.13 139.091,1280.13 141.334,1283.07 143.577,1285.94 145.819,1288.74 148.062,1291.48 150.305,1294.16 152.548,1296.77 154.791,1299.32 157.034,1301.81 159.276,1304.25 161.519,1306.63 163.762,1308.95 166.005,1311.21 168.248,1313.43 170.491,1315.59 172.733,1317.7 174.976,1319.76 177.219,1321.77 179.462,1323.73 181.705,1325.65 183.947,1327.52 186.19,1329.34 188.433,1331.13 190.676,1332.86 192.919,1334.56 195.162,1336.21 197.404,1337.83 199.647,1339.4 201.89,1340.94 204.133,1342.44 206.376,1343.9 208.619,1345.33 210.861,1346.72 213.104,1348.07 215.347,1349.39 217.59,1350.68 219.833,1351.94 222.075,1353.16 224.318,1354.35 226.561,1355.51 228.804,1356.64 231.047,1357.74 233.29,1358.82 235.532,1359.86 237.775,1360.88 240.018,1361.87 242.261,1362.83 244.504,1363.77 246.746,1364.68 248.989,1365.56 251.232,1366.42 253.475,1367.26 255.718,1368.07 257.961,1368.86 260.203,1369.63 262.446,1370.37 264.689,1371.09 266.932,1371.79 269.175,1372.47 271.418,1373.12 273.66,1373.76 275.903,1374.37 278.146,1374.97 280.389,1375.54 282.632,1376.09 284.874,1376.63 287.117,1377.14 289.36,1377.64 291.603,1378.12 293.846,1378.57 296.089,1379.01 298.331,1379.43 300.574,1379.84 302.817,1380.22 305.06,1380.59 307.303,1380.94 309.545,1381.27 311.788,1381.58 314.031,1381.88 316.274,1382.16 318.517,1382.42 320.76,1382.67 323.002,1382.89 325.245,1383.1 327.488,1383.29 329.731,1383.47 331.974,1383.62 334.217,1383.76 336.459,1383.88 338.702,1383.99 340.945,1384.07 343.188,1384.14 345.431,1384.19 347.673,1384.22 349.916,1384.24 352.159,1384.23 354.402,1384.21 356.645,1384.17 358.888,1384.11 361.13,1384.02 363.373,1383.92 365.616,1383.8 367.859,1383.66 370.102,1383.49 372.344,1383.3 374.587,1383.1 376.83,1382.86 379.073,1382.61 381.316,1382.33 383.559,1382.03 385.801,1381.7 388.044,1381.34 390.287,1380.96 392.53,1380.55 394.773,1380.11 397.016,1379.64 399.258,1379.14 401.501,1378.61 403.744,1378.05 405.987,1377.44 408.23,1376.81 410.472,1376.14 412.715,1375.43 414.958,1374.69 417.201,1373.9 419.444,1373.08 421.687,1372.21 423.929,1371.3 426.172,1370.34 428.415,1369.34 430.658,1368.28 432.901,1367.17 435.143,1366.01 437.386,1364.79 439.629,1363.51 441.872,1362.16 444.115,1360.75 446.358,1359.27 448.6,1357.71 450.843,1356.08 453.086,1354.36 455.329,1352.56 457.572,1350.67 459.815,1348.69 462.057,1346.61 464.3,1344.42 466.543,1342.13 468.786,1339.72 471.029,1337.2 473.271,1334.56 475.514,1331.79 477.757,1328.89 480,1325.87 482.243,1322.71 484.486,1319.39 486.728,1315.91 488.971,1312.26 491.214,1308.41 493.457,1304.37 495.7,1300.11 497.942,1295.63 500.185,1290.92 502.428,1285.96 504.671,1280.75 506.914,1275.27 509.157,1269.51 511.399,1263.46 513.642,1257.12 515.885,1250.46 518.128,1243.49 520.371,1236.18 522.614,1228.54 524.856,1220.55 527.099,1212.2 529.342,1203.48 531.585,1194.38 533.828,1184.9 536.07,1175.02 538.313,1164.73 540.556,1154.04 542.799,1142.92 545.042,1131.37 547.285,1119.38 549.527,1106.94 551.77,1094.05 554.013,1080.69 556.256,1066.86 558.499,1052.55 560.741,1037.72 562.984,1022.41 565.227,1006.65 567.47,990.502 569.713,973.995 571.956,957.175 574.198,940.088 576.441,922.779 578.684,905.294 580.927,887.68 583.17,869.984 585.413,852.253 587.655,834.538 589.898,816.887 592.141,799.351 594.384,781.981 596.627,764.828 598.869,747.944 601.112,731.383 603.355,715.198 605.598,699.444 607.841,684.177 610.084,669.451 612.326,655.324 614.569,641.853 616.812,629.096 619.055,617.111 621.298,605.938 623.54,595.582 625.783,586.067 628.026,577.414 630.269,569.642 632.512,562.765 634.755,556.792 636.997,551.729 639.24,547.578 641.483,544.336 643.726,541.998 645.969,540.553 648.212,539.987 650.454,540.281 652.697,541.414 654.94,543.359 657.183,546.086 659.426,549.561 661.668,553.744 663.911,558.596 666.154,564.068 668.397,570.11 670.64,576.669 672.883,583.686 675.125,591.098 677.368,598.897 679.611,607.093 681.854,615.653 684.097,624.546 686.339,633.742 688.582,643.21 690.825,652.923 693.068,662.853 695.311,672.975 697.554,683.264 699.796,693.696 702.039,704.249 704.282,714.901 706.525,725.633 708.768,736.425 711.011,747.26 713.253,758.12 715.496,768.992 717.739,779.859 719.982,790.71 722.225,801.531 724.467,812.313 726.71,823.045 728.953,833.717 731.196,844.314 733.439,854.827 735.682,865.251 737.924,875.581 740.167,885.81 742.41,895.934 744.653,905.948 746.896,915.847 749.138,925.629 751.381,935.288 753.624,944.821 755.867,954.225 758.11,963.498 760.353,972.637 762.595,981.64 764.838,990.504 767.081,999.229 769.324,1007.81 771.567,1016.26 773.81,1024.56 776.052,1032.72 778.295,1040.73 780.538,1048.61 782.781,1056.34 785.024,1063.93 787.266,1071.39 789.509,1078.71 791.752,1085.89 793.995,1092.94 796.238,1099.85 798.481,1106.64 800.723,1113.29 802.966,1119.8 805.209,1126.2 807.452,1132.46 809.695,1138.6 811.938,1144.61 814.18,1150.5 816.423,1156.27 818.666,1161.92 820.909,1167.46 823.152,1172.88 825.394,1178.18 827.637,1183.37 829.88,1188.46 832.123,1193.43 834.366,1198.3 836.609,1203.06 838.851,1207.72 841.094,1212.27 843.337,1216.73 845.58,1221.09 847.823,1225.36 850.065,1229.53 852.308,1233.6 854.551,1237.59 856.794,1241.49 859.037,1245.3 861.28,1249.03 863.522,1252.67 865.765,1256.23 868.008,1259.71 870.251,1263.11 872.494,1266.44 874.737,1269.69 876.979,1272.86 879.222,1275.96 881.465,1279 883.708,1281.96 885.951,1284.85 888.193,1287.68 890.436,1290.44 892.679,1293.14 894.922,1295.78 897.165,1298.35 899.408,1300.86 901.65,1303.32 903.893,1305.72 906.136,1308.06 908.379,1310.35 910.622,1312.58 912.864,1314.77 915.107,1316.9 917.35,1318.97 919.593,1321 921.836,1322.99 924.079,1324.92 926.321,1326.81 928.564,1328.65 930.807,1330.45 933.05,1332.2 935.293,1333.92 937.536,1335.59 939.778,1337.22 942.021,1338.81 944.264,1340.36 946.507,1341.87 948.75,1343.34 950.992,1344.78 953.235,1346.18 955.478,1347.55 957.721,1348.88 959.964,1350.18 962.207,1351.45 964.449,1352.68 966.692,1353.88 968.935,1355.05 971.178,1356.19 973.421,1357.31 975.663,1358.39 977.906,1359.44 980.149,1360.47 982.392,1361.47 984.635,1362.44 986.878,1363.39 989.12,1364.31 991.363,1365.2 993.606,1366.07 995.849,1366.92 998.092,1367.74 1000.33,1368.54 1002.58,1369.31 1004.82,1370.06 1007.06,1370.79 1009.31,1371.5 1011.55,1372.19 1013.79,1372.85 1016.03,1373.5 1018.28,1374.12 1020.52,1374.72 1022.76,1375.3 1025.01,1375.86 1027.25,1376.41 1029.49,1376.93 1031.73,1377.43 1033.98,1377.91 1036.22,1378.38 1038.46,1378.82 1040.71,1379.25 1042.95,1379.66 1045.19,1380.05 1047.43,1380.42 1049.68,1380.78 1051.92,1381.12 1054.16,1381.44 1056.41,1381.74 1058.65,1382.02 1060.89,1382.29 1063.13,1382.54 1065.38,1382.77 1067.62,1382.99 1069.86,1383.19 1072.1,1383.37 1074.35,1383.53 1076.59,1383.68 1078.83,1383.81 1081.08,1383.92 1083.32,1384.01 1085.56,1384.09 1087.8,1384.14 1090.05,1384.18 1092.29,1384.2 1094.53,1384.21 1096.78,1384.19 1099.02,1384.15 1101.26,1384.1 1103.5,1384.02 1105.75,1383.92 1107.99,1383.81 1110.23,1383.67 1112.48,1383.51 1114.72,1383.33 1116.96,1383.13 1119.2,1382.9 1121.45,1382.64 1123.69,1382.35 1125.93,1382.03 1128.18,1381.69 1130.42,1381.33 1132.66,1380.94 1134.9,1380.52 1137.15,1380.07 1139.39,1379.6 1141.63,1379.1 1143.88,1378.57 1146.12,1378.01 1148.36,1377.42 1150.6,1376.8 1152.85,1376.15 1155.09,1375.46 1157.33,1374.74 1159.57,1373.98 1161.82,1373.18 1164.06,1372.34 1166.3,1371.46 1168.55,1370.53 1170.79,1369.56 1173.03,1368.54 1175.27,1367.46 1177.52,1366.33 1179.76,1365.14 1182,1363.89 1184.25,1362.58 1186.49,1361.2 1188.73,1359.75 1190.97,1358.23 1193.22,1356.62 1195.46,1354.94 1197.7,1353.17 1199.95,1351.31 1202.19,1349.36 1204.43,1347.31 1206.67,1345.16 1208.92,1342.9 1211.16,1340.53 1213.4,1338.04 1215.65,1335.43 1217.89,1332.69 1220.13,1329.82 1222.37,1326.82 1224.62,1323.67 1226.86,1320.39 1229.1,1316.96 1231.35,1313.36 1233.59,1309.59 1235.83,1305.64 1238.07,1301.47 1240.32,1297.09 1242.56,1292.49 1244.8,1287.64 1247.04,1282.54 1249.29,1277.17 1251.53,1271.53 1253.77,1265.6 1256.02,1259.37 1258.26,1252.83 1260.5,1245.97 1262.74,1238.78 1264.99,1231.25 1267.23,1223.37 1269.47,1215.13 1271.72,1206.52 1273.96,1197.54 1276.2,1188.17 1278.44,1178.41 1280.69,1168.24 1282.93,1157.67 1285.17,1146.68 1287.42,1135.26 1289.66,1123.42 1291.9,1111.13 1294.14,1098.41 1296.39,1085.23 1298.63,1071.6 1300.87,1057.5 1303.12,1042.94 1305.36,1027.87 1307.6,1012.27 1309.84,996.211 1312.09,979.742 1314.33,962.92 1316.57,945.802 1318.82,928.443 1321.06,910.898 1323.3,893.221 1325.54,875.465 1327.79,857.684 1330.03,839.931 1332.27,822.257 1334.51,804.713 1336.76,787.351 1339,770.221 1341.24,753.372 1343.49,736.853 1345.73,720.714 1347.97,705.002 1350.21,689.764 1352.46,675.048 1354.7,660.9 1356.94,647.365 1359.19,634.489 1361.43,622.316 1363.67,610.891 1365.91,600.257 1368.16,590.457 1370.4,581.532 1372.64,573.524 1374.89,566.43 1377.13,560.242 1379.37,554.955 1381.61,550.563 1383.86,547.057 1386.1,544.427 1388.34,542.659 1390.59,541.738 1392.83,541.648 1395.07,542.369 1397.31,543.88 1399.56,546.158 1401.8,549.178 1404.04,552.913 1406.29,557.333 1408.53,562.407 1410.77,568.101 1413.01,574.38 1415.26,581.206 1417.5,588.54 1419.74,596.34 1421.98,604.562 1424.23,613.16 1426.47,622.087 1428.71,631.292 1430.96,640.724 1433.2,650.33 1435.44,660.125 1437.68,670.117 1439.93,680.282 1442.17,690.598 1444.41,701.044 1446.66,711.6 1448.9,722.245 1451.14,732.961 1453.38,743.73 1455.63,754.536 1457.87,765.362 1460.11,776.193 1462.36,787.014 1464.6,797.813 1466.84,808.577 1469.08,819.294 1471.33,829.954 1473.57,840.546 1475.81,851.062 1478.06,861.494 1480.3,871.834 1482.54,882.076 1484.78,892.216 1487.03,902.247 1489.27,912.167 1491.51,921.973 1493.76,931.661 1496,941.221 1498.24,950.651 1500.48,959.95 1502.73,969.115 1504.97,978.147 1507.21,987.043 1509.46,995.802 1511.7,1004.42 1513.94,1012.91 1516.18,1021.25 1518.43,1029.46 1520.67,1037.52 1522.91,1045.45 1525.15,1053.24 1527.4,1060.89 1529.64,1068.4 1531.88,1075.77 1534.13,1083 1536.37,1090.1 1538.61,1097.06 1540.85,1103.88 1543.1,1110.58 1545.34,1117.14 1547.58,1123.57 1549.83,1129.87 1552.07,1136.05 1554.31,1142.1 1556.55,1148.03 1558.8,1153.84 1561.04,1159.53 1563.28,1165.11 1565.53,1170.56 1567.77,1175.91 1570.01,1181.14 1572.25,1186.26 1574.5,1191.27 1576.74,1196.17 1578.98,1200.97 1581.23,1205.67 1583.47,1210.26 1585.71,1214.76 1587.95,1219.16 1590.2,1223.46 1592.44,1227.66 1594.68,1231.78 1596.93,1235.8 1599.17,1239.73 1601.41,1243.58 1603.65,1247.34 1605.9,1251.02 1608.14,1254.61 1610.38,1258.12 1612.62,1261.55 1614.87,1264.91 1617.11,1268.19 1619.35,1271.39 1621.6,1274.52 1623.84,1277.58 1626.08,1280.57 1628.32,1283.49 1630.57,1286.34 1632.81,1289.13 1635.05,1291.85 1637.3,1294.51 1639.54,1297.11 1641.78,1299.65 1644.02,1302.12 1646.27,1304.54 1648.51,1306.91 1650.75,1309.21 1653,1311.47 1655.24,1313.67 1657.48,1315.82 1659.72,1317.91 1661.97,1319.96 1664.21,1321.96 1666.45,1323.91 1668.7,1325.82 1670.94,1327.68 1673.18,1329.49 1675.42,1331.26 1677.67,1332.99 1679.91,1334.68 1682.15,1336.32 1684.4,1337.93 1686.64,1339.5 1688.88,1341.03 1691.12,1342.52 1693.37,1343.97 1695.61,1345.39 1697.85,1346.78 1700.09,1348.13 1702.34,1349.44 1704.58,1350.72 1706.82,1351.97 1709.07,1353.19 1711.31,1354.38 1713.55,1355.53 1715.79,1356.66 1718.04,1357.75 1720.28,1358.82 1722.52,1359.85 1724.77,1360.86 1727.01,1361.85 1729.25,1362.8 1731.49,1363.73 1733.74,1364.64 1735.98,1365.52 1738.22,1366.37 1740.47,1367.2 1742.71,1368 1744.95,1368.79 1747.19,1369.55 1749.44,1370.28 1751.68,1371 1753.92,1371.69 1756.17,1372.36 1758.41,1373.01 1760.65,1373.64 1762.89,1374.25 1765.14,1374.84 1767.38,1375.4 1769.62,1375.95 1771.87,1376.48 1774.11,1376.99 1776.35,1377.48 1778.59,1377.95 1780.84,1378.41 1783.08,1378.84 1785.32,1379.26 1787.56,1379.66 1789.81,1380.04 1792.05,1380.4 1794.29,1380.74 1796.54,1381.07 1798.78,1381.38 1801.02,1381.67 1803.26,1381.94 1805.51,1382.2 1807.75,1382.44 1809.99,1382.66 1812.24,1382.86 1814.48,1383.05 1816.72,1383.22 1818.96,1383.36 1821.21,1383.5 1823.45,1383.61 1825.69,1383.7 1827.94,1383.78 1830.18,1383.84 1832.42,1383.88 1834.66,1383.91 1836.91,1383.91 1839.15,1383.9 1841.39,1383.87 1843.64,1383.82 1845.88,1383.74 1848.12,1383.65 1850.36,1383.54 1852.61,1383.41 1854.85,1383.26 1857.09,1383.09 1859.34,1382.89 1861.58,1382.68 1863.82,1382.44 1866.06,1382.17 1868.31,1381.88 1870.55,1381.57 1872.79,1381.23 1875.03,1380.86 1877.28,1380.47 1879.52,1380.05 1881.76,1379.6 1884.01,1379.11 1886.25,1378.6 1888.49,1378.06 1890.73,1377.48 1892.98,1376.87 1895.22,1376.22 1897.46,1375.54 1899.71,1374.82 1901.95,1374.05 1904.19,1373.24 1906.43,1372.37 1908.68,1371.46 1910.92,1370.49 1913.16,1369.48 1915.41,1368.42 1917.65,1367.3 1919.89,1366.13 1922.13,1364.9 1924.38,1363.62 1926.62,1362.28 1928.86,1360.88 1931.11,1359.41 1933.35,1357.88 1935.59,1356.27 1937.83,1354.59 1940.08,1352.83 1942.32,1350.99 1944.56,1349.07 1946.81,1347.05 1949.05,1344.93 1951.29,1342.71 1953.53,1340.38 1955.78,1337.94 1958.02,1335.38 1960.26,1332.69 1962.5,1329.87 1964.75,1326.91 1966.99,1323.8 1969.23,1320.54 1971.48,1317.11 1973.72,1313.51 1975.96,1309.73 1978.2,1305.76 1980.45,1301.59 1982.69,1297.22 1984.93,1292.63 1987.18,1287.81 1989.42,1282.75 1991.66,1277.45 1993.9,1271.89 1996.15,1266.05 1998.39,1259.94 2000.63,1253.53 2002.88,1246.82 2005.12,1239.8 2007.36,1232.44 2009.6,1224.74 2011.85,1216.69 2014.09,1208.27 2016.33,1199.47 2018.58,1190.29 2020.82,1180.7 2023.06,1170.68 2025.3,1160.24 2027.55,1149.35 2029.79,1138.01 2032.03,1126.22 2034.28,1113.98 2036.52,1101.28 2038.76,1088.13 2041,1074.54 2043.25,1060.51 2045.49,1046.05 2047.73,1031.18 2049.97,1015.92 2052.22,1000.27 2054.46,984.266 2056.7,967.926 2058.95,951.277 2061.19,934.347 2063.43,917.165 2065.67,899.766 2067.92,882.177 2070.16,864.45 2072.4,846.656 2074.65,828.866 2076.89,811.146 2079.13,793.564 2081.37,776.183 2083.62,759.063 2085.86,742.265 2088.1,725.845 2090.35,709.859 2092.59,694.36 2094.83,679.398 2097.07,665.022 2099.32,651.279 2101.56,638.213 2103.8,625.866 2106.05,614.278 2108.29,603.488 2110.53,593.531 2112.77,584.441 2115.02,576.25 2117.26,568.987 2119.5,562.661 2121.75,557.254 2123.99,552.754 2126.23,549.149 2128.47,546.424 2130.72,544.561 2132.96,543.544 2135.2,543.353 2137.45,543.966 2139.69,545.36 2141.93,547.512 2144.17,550.395 2146.42,553.981 2148.66,558.241 2150.9,563.145 2153.14,568.659 2155.39,574.749 2157.63,581.381 2159.87,588.515 2162.12,596.115 2164.36,604.138 2166.6,612.542 2168.84,621.285 2171.09,630.32 2173.33,639.6 2175.57,649.104 2177.82,658.84 2180.06,668.781 2182.3,678.902 2184.54,689.181 2186.79,699.596 2189.03,710.124 2191.27,720.746 2193.52,731.442 2195.76,742.193 2198,752.983 2200.24,763.794 2202.49,774.612 2204.73,785.421 2206.97,796.209 2209.22,806.963 2211.46,817.671 2213.7,828.323 2215.94,838.91 2218.19,849.423 2220.43,859.854 2222.67,870.198 2224.92,880.448 2227.16,890.6 2229.4,900.644 2231.64,910.574 2233.89,920.386 2236.13,930.078 2238.37,939.646 2240.61,949.087 2242.86,958.4 2245.1,967.581 2247.34,976.63 2249.59,985.544 2251.83,994.321 2254.07,1002.96 2256.31,1011.46 2258.56,1019.83 2260.8,1028.05 2263.04,1036.13 2265.29,1044.07 2267.53,1051.87 2269.77,1059.53 2272.01,1067.06 2274.26,1074.44 2276.5,1081.68 2278.74,1088.79 2280.99,1095.77 2283.23,1102.61 2285.47,1109.32 2287.71,1115.9 2289.96,1122.35 2292.2,1128.67 2294.44,1134.87 2296.69,1140.94 2298.93,1146.89 2301.17,1152.72 2303.41,1158.43 2305.66,1164.02 2307.9,1169.5 2310.14,1174.86 2312.39,1180.11 2314.63,1185.25 2316.87,1190.28 2319.11,1195.2 2321.36,1200.02 2323.6,1204.73 2325.84,1209.34 2328.08,1213.85 2330.33,1218.26 2332.57,1222.58 2334.81,1226.8 2337.06,1230.93 2339.3,1234.96 2341.54,1238.91 2343.78,1242.77 2346.03,1246.54 2348.27,1250.23 2350.51,1253.83 2352.76,1257.36 "/>
<polyline clip-path="url(#clip212)" style="stroke:#3da44d; stroke-linecap:round; stroke-linejoin:round; stroke-width:4; stroke-opacity:1; fill:none" points="112.177,1239.07 114.42,1238.07 116.663,1237.03 118.906,1235.94 121.148,1234.81 123.391,1233.63 125.634,1232.42 127.877,1231.15 130.12,1229.85 132.363,1228.51 134.605,1227.12 136.848,1225.69 139.091,1224.21 141.334,1222.7 143.577,1221.14 145.819,1219.54 148.062,1217.89 150.305,1216.2 152.548,1214.47 154.791,1212.7 157.034,1210.88 159.276,1209.02 161.519,1207.12 163.762,1205.17 166.005,1203.18 168.248,1201.15 170.491,1199.07 172.733,1196.95 174.976,1194.78 177.219,1192.56 179.462,1190.3 181.705,1188 183.947,1185.65 186.19,1183.25 188.433,1180.81 190.676,1178.32 192.919,1175.78 195.162,1173.2 197.404,1170.57 199.647,1167.89 201.89,1165.16 204.133,1162.38 206.376,1159.55 208.619,1156.67 210.861,1153.74 213.104,1150.76 215.347,1147.73 217.59,1144.65 219.833,1141.52 222.075,1138.33 224.318,1135.09 226.561,1131.79 228.804,1128.45 231.047,1125.04 233.29,1121.58 235.532,1118.07 237.775,1114.5 240.018,1110.87 242.261,1107.19 244.504,1103.44 246.746,1099.64 248.989,1095.78 251.232,1091.86 253.475,1087.88 255.718,1083.84 257.961,1079.73 260.203,1075.57 262.446,1071.34 264.689,1067.04 266.932,1062.69 269.175,1058.27 271.418,1053.78 273.66,1049.22 275.903,1044.6 278.146,1039.91 280.389,1035.16 282.632,1030.33 284.874,1025.43 287.117,1020.47 289.36,1015.43 291.603,1010.32 293.846,1005.14 296.089,999.884 298.331,994.555 300.574,989.151 302.817,983.672 305.06,978.116 307.303,972.483 309.545,966.773 311.788,960.985 314.031,955.117 316.274,949.169 318.517,943.141 320.76,937.032 323.002,930.84 325.245,924.566 327.488,918.208 329.731,911.767 331.974,905.242 334.217,898.63 336.459,891.933 338.702,885.148 340.945,878.276 343.188,871.315 345.431,864.264 347.673,857.125 349.916,849.894 352.159,842.573 354.402,835.16 356.645,827.656 358.888,820.058 361.13,812.368 363.373,804.585 365.616,796.708 367.859,788.737 370.102,780.672 372.344,772.513 374.587,764.258 376.83,755.909 379.073,747.465 381.316,738.925 383.559,730.29 385.801,721.56 388.044,712.734 390.287,703.813 392.53,694.796 394.773,685.684 397.016,676.478 399.258,667.181 401.501,657.793 403.744,648.315 405.987,638.746 408.23,629.085 410.472,619.333 412.715,609.49 414.958,599.557 417.201,589.534 419.444,579.425 421.687,569.229 423.929,558.949 426.172,548.587 428.415,538.146 430.658,527.628 432.901,517.036 435.143,506.375 437.386,495.647 439.629,484.857 441.872,474.008 444.115,463.106 446.358,452.155 448.6,441.16 450.843,430.127 453.086,419.062 455.329,407.97 457.572,396.859 459.815,385.733 462.057,374.601 464.3,363.47 466.543,352.347 468.786,341.239 471.029,330.156 473.271,319.105 475.514,308.094 477.757,297.119 480,286.191 482.243,275.328 484.486,264.549 486.728,253.873 488.971,243.318 491.214,232.906 493.457,222.657 495.7,212.593 497.942,202.733 500.185,193.102 502.428,183.72 504.671,174.611 506.914,165.799 509.157,157.308 511.399,149.162 513.642,141.385 515.885,134.004 518.128,127.045 520.371,120.532 522.614,114.495 524.856,108.959 527.099,103.953 529.342,99.5055 531.585,95.6445 533.828,92.3998 536.07,89.801 538.313,87.8785 540.556,86.663 542.799,86.1857 545.042,86.4784 547.285,87.5732 549.527,89.5029 551.77,92.3007 554.013,96.0002 556.256,100.636 558.499,106.244 560.741,112.866 562.984,120.503 565.227,129.152 567.47,138.807 569.713,149.458 571.956,161.09 574.198,173.688 576.441,187.23 578.684,201.694 580.927,217.053 583.17,233.276 585.413,250.331 587.655,268.179 589.898,286.782 592.141,306.095 594.384,326.072 596.627,346.663 598.869,367.815 601.112,389.469 603.355,411.567 605.598,434.045 607.841,456.837 610.084,479.871 612.326,503.075 614.569,526.371 616.812,549.681 619.055,572.919 621.298,596.029 623.54,618.987 625.783,641.738 628.026,664.229 630.269,686.409 632.512,708.236 634.755,729.666 636.997,750.663 639.24,771.194 641.483,791.229 643.726,810.743 645.969,829.714 648.212,848.126 650.454,865.965 652.697,883.221 654.94,899.888 657.183,915.966 659.426,931.456 661.668,946.364 663.911,960.702 666.154,974.483 668.397,987.725 670.64,1000.45 672.883,1012.69 675.125,1024.46 677.368,1035.77 679.611,1046.61 681.854,1056.99 684.097,1066.92 686.339,1076.43 688.582,1085.52 690.825,1094.22 693.068,1102.54 695.311,1110.5 697.554,1118.1 699.796,1125.36 702.039,1132.29 704.282,1138.91 706.525,1145.23 708.768,1151.25 711.011,1157 713.253,1162.49 715.496,1167.71 717.739,1172.69 719.982,1177.43 722.225,1181.94 724.467,1186.23 726.71,1190.31 728.953,1194.19 731.196,1197.88 733.439,1201.39 735.682,1204.73 737.924,1207.89 740.167,1210.9 742.41,1213.75 744.653,1216.45 746.896,1219 749.138,1221.42 751.381,1223.71 753.624,1225.87 755.867,1227.9 758.11,1229.82 760.353,1231.63 762.595,1233.32 764.838,1234.92 767.081,1236.41 769.324,1237.8 771.567,1239.1 773.81,1240.3 776.052,1241.42 778.295,1242.46 780.538,1243.41 782.781,1244.28 785.024,1245.07 787.266,1245.79 789.509,1246.43 791.752,1247 793.995,1247.5 796.238,1247.92 798.481,1248.29 800.723,1248.58 802.966,1248.82 805.209,1248.99 807.452,1249.11 809.695,1249.16 811.938,1249.16 814.18,1249.1 816.423,1248.98 818.666,1248.81 820.909,1248.58 823.152,1248.3 825.394,1247.98 827.637,1247.59 829.88,1247.16 832.123,1246.68 834.366,1246.16 836.609,1245.58 838.851,1244.95 841.094,1244.28 843.337,1243.57 845.58,1242.8 847.823,1242 850.065,1241.14 852.308,1240.25 854.551,1239.3 856.794,1238.32 859.037,1237.29 861.28,1236.21 863.522,1235.1 865.765,1233.94 868.008,1232.74 870.251,1231.49 872.494,1230.2 874.737,1228.87 876.979,1227.5 879.222,1226.08 881.465,1224.62 883.708,1223.12 885.951,1221.58 888.193,1219.99 890.436,1218.36 892.679,1216.69 894.922,1214.97 897.165,1213.21 899.408,1211.41 901.65,1209.56 903.893,1207.67 906.136,1205.73 908.379,1203.76 910.622,1201.74 912.864,1199.67 915.107,1197.56 917.35,1195.4 919.593,1193.2 921.836,1190.96 924.079,1188.67 926.321,1186.33 928.564,1183.95 930.807,1181.52 933.05,1179.04 935.293,1176.52 937.536,1173.95 939.778,1171.33 942.021,1168.67 944.264,1165.95 946.507,1163.19 948.75,1160.38 950.992,1157.51 953.235,1154.6 955.478,1151.64 957.721,1148.62 959.964,1145.56 962.207,1142.44 964.449,1139.27 966.692,1136.04 968.935,1132.77 971.178,1129.43 973.421,1126.05 975.663,1122.61 977.906,1119.11 980.149,1115.56 982.392,1111.95 984.635,1108.28 986.878,1104.56 989.12,1100.77 991.363,1096.93 993.606,1093.03 995.849,1089.07 998.092,1085.04 1000.33,1080.96 1002.58,1076.81 1004.82,1072.6 1007.06,1068.33 1009.31,1064 1011.55,1059.59 1013.79,1055.13 1016.03,1050.6 1018.28,1046 1020.52,1041.33 1022.76,1036.59 1025.01,1031.79 1027.25,1026.92 1029.49,1021.97 1031.73,1016.96 1033.98,1011.87 1036.22,1006.71 1038.46,1001.48 1040.71,996.178 1042.95,990.799 1045.19,985.344 1047.43,979.813 1049.68,974.206 1051.92,968.52 1054.16,962.757 1056.41,956.914 1058.65,950.991 1060.89,944.988 1063.13,938.903 1065.38,932.737 1067.62,926.488 1069.86,920.156 1072.1,913.739 1074.35,907.238 1076.59,900.651 1078.83,893.979 1081.08,887.22 1083.32,880.374 1085.56,873.44 1087.8,866.417 1090.05,859.305 1092.29,852.104 1094.53,844.813 1096.78,837.43 1099.02,829.957 1101.26,822.391 1103.5,814.733 1105.75,806.982 1107.99,799.138 1110.23,791.199 1112.48,783.166 1114.72,775.038 1116.96,766.82 1119.2,758.515 1121.45,750.122 1123.69,741.639 1125.93,733.064 1128.18,724.395 1130.42,715.632 1132.66,706.771 1134.9,697.814 1137.15,688.759 1139.39,679.605 1141.63,670.353 1143.88,661.002 1146.12,651.553 1148.36,642.007 1150.6,632.363 1152.85,622.624 1155.09,612.79 1157.33,602.863 1159.57,592.844 1161.82,582.736 1164.06,572.541 1166.3,562.261 1168.55,551.899 1170.79,541.458 1173.03,530.941 1175.27,520.351 1177.52,509.693 1179.76,498.97 1182,488.186 1184.25,477.346 1186.49,466.454 1188.73,455.516 1190.97,444.536 1193.22,433.519 1195.46,422.472 1197.7,411.4 1199.95,400.309 1202.19,389.206 1204.43,378.098 1206.67,366.99 1208.92,355.89 1211.16,344.805 1213.4,333.744 1215.65,322.713 1217.89,311.721 1220.13,300.776 1222.37,289.887 1224.62,279.058 1226.86,268.291 1229.1,257.605 1231.35,247.023 1233.59,236.566 1235.83,226.258 1238.07,216.121 1240.32,206.178 1242.56,196.453 1244.8,186.97 1247.04,177.752 1249.29,168.825 1251.53,160.212 1253.77,151.941 1256.02,144.035 1258.26,136.52 1260.5,129.424 1262.74,122.772 1264.99,116.59 1267.23,110.908 1269.47,105.75 1271.72,101.147 1273.96,97.125 1276.2,93.7133 1278.44,90.9405 1280.69,88.8358 1282.93,87.4286 1285.17,86.7486 1287.42,86.8261 1289.66,87.6915 1291.9,89.3755 1294.14,91.9092 1296.39,95.3241 1298.63,99.6519 1300.87,104.925 1303.12,111.175 1305.36,118.467 1307.6,126.828 1309.84,136.238 1312.09,146.675 1314.33,158.116 1316.57,170.533 1318.82,183.899 1321.06,198.184 1323.3,213.354 1325.54,229.376 1327.79,246.212 1330.03,263.824 1332.27,282.172 1334.51,301.211 1336.76,320.897 1339,341.182 1341.24,362.018 1343.49,383.353 1345.73,405.133 1347.97,427.303 1350.21,449.805 1352.46,472.579 1354.7,495.562 1356.94,518.693 1359.19,541.902 1361.43,565.124 1363.67,588.287 1365.91,611.318 1368.16,634.144 1370.4,656.687 1372.64,678.876 1374.89,700.707 1377.13,722.153 1379.37,743.185 1381.61,763.774 1383.86,783.893 1386.1,803.519 1388.34,822.632 1390.59,841.215 1392.83,859.252 1395.07,876.732 1397.31,893.645 1399.56,909.985 1401.8,925.747 1404.04,940.931 1406.29,955.539 1408.53,969.575 1410.77,983.045 1413.01,995.961 1415.26,1008.34 1417.5,1020.18 1419.74,1031.52 1421.98,1042.37 1424.23,1052.76 1426.47,1062.71 1428.71,1072.26 1430.96,1081.42 1433.2,1090.25 1435.44,1098.7 1437.68,1106.78 1439.93,1114.5 1442.17,1121.88 1444.41,1128.92 1446.66,1135.64 1448.9,1142.06 1451.14,1148.18 1453.38,1154.03 1455.63,1159.6 1457.87,1164.92 1460.11,1169.98 1462.36,1174.82 1464.6,1179.42 1466.84,1183.81 1469.08,1187.98 1471.33,1191.96 1473.57,1195.74 1475.81,1199.34 1478.06,1202.76 1480.3,1206.01 1482.54,1209.1 1484.78,1212.02 1487.03,1214.8 1489.27,1217.42 1491.51,1219.89 1493.76,1222.23 1496,1224.44 1498.24,1226.53 1500.48,1228.5 1502.73,1230.35 1504.97,1232.09 1507.21,1233.73 1509.46,1235.26 1511.7,1236.69 1513.94,1238.03 1516.18,1239.27 1518.43,1240.42 1520.67,1241.48 1522.91,1242.46 1525.15,1243.35 1527.4,1244.17 1529.64,1244.91 1531.88,1245.57 1534.13,1246.16 1536.37,1246.68 1538.61,1247.14 1540.85,1247.52 1543.1,1247.85 1545.34,1248.1 1547.58,1248.3 1549.83,1248.44 1552.07,1248.51 1554.31,1248.53 1556.55,1248.49 1558.8,1248.4 1561.04,1248.25 1563.28,1248.05 1565.53,1247.79 1567.77,1247.48 1570.01,1247.12 1572.25,1246.72 1574.5,1246.26 1576.74,1245.75 1578.98,1245.19 1581.23,1244.59 1583.47,1243.93 1585.71,1243.24 1587.95,1242.49 1590.2,1241.7 1592.44,1240.86 1594.68,1239.98 1596.93,1239.05 1599.17,1238.08 1601.41,1237.06 1603.65,1236 1605.9,1234.9 1608.14,1233.75 1610.38,1232.56 1612.62,1231.32 1614.87,1230.05 1617.11,1228.73 1619.35,1227.36 1621.6,1225.96 1623.84,1224.51 1626.08,1223.02 1628.32,1221.49 1630.57,1219.92 1632.81,1218.3 1635.05,1216.64 1637.3,1214.94 1639.54,1213.19 1641.78,1211.4 1644.02,1209.57 1646.27,1207.69 1648.51,1205.77 1650.75,1203.81 1653,1201.8 1655.24,1199.75 1657.48,1197.65 1659.72,1195.51 1661.97,1193.33 1664.21,1191.1 1666.45,1188.82 1668.7,1186.5 1670.94,1184.13 1673.18,1181.71 1675.42,1179.25 1677.67,1176.74 1679.91,1174.18 1682.15,1171.58 1684.4,1168.93 1686.64,1166.23 1688.88,1163.48 1691.12,1160.68 1693.37,1157.83 1695.61,1154.93 1697.85,1151.98 1700.09,1148.98 1702.34,1145.92 1704.58,1142.82 1706.82,1139.66 1709.07,1136.45 1711.31,1133.19 1713.55,1129.87 1715.79,1126.5 1718.04,1123.08 1720.28,1119.6 1722.52,1116.06 1724.77,1112.46 1727.01,1108.81 1729.25,1105.1 1731.49,1101.34 1733.74,1097.51 1735.98,1093.62 1738.22,1089.68 1740.47,1085.67 1742.71,1081.6 1744.95,1077.47 1747.19,1073.28 1749.44,1069.02 1751.68,1064.7 1753.92,1060.32 1756.17,1055.87 1758.41,1051.35 1760.65,1046.77 1762.89,1042.12 1765.14,1037.4 1767.38,1032.62 1769.62,1027.76 1771.87,1022.84 1774.11,1017.84 1776.35,1012.77 1778.59,1007.64 1780.84,1002.42 1783.08,997.139 1785.32,991.78 1787.56,986.346 1789.81,980.837 1792.05,975.251 1794.29,969.588 1796.54,963.847 1798.78,958.028 1801.02,952.129 1803.26,946.15 1805.51,940.091 1807.75,933.949 1809.99,927.725 1812.24,921.418 1814.48,915.028 1816.72,908.555 1818.96,901.997 1821.21,895.355 1823.45,888.626 1825.69,881.81 1827.94,874.906 1830.18,867.913 1832.42,860.831 1834.66,853.658 1836.91,846.395 1839.15,839.04 1841.39,831.594 1843.64,824.055 1845.88,816.423 1848.12,808.698 1850.36,800.879 1852.61,792.966 1854.85,784.959 1857.09,776.857 1859.34,768.661 1861.58,760.37 1863.82,751.984 1866.06,743.503 1868.31,734.928 1870.55,726.257 1872.79,717.492 1875.03,708.633 1877.28,699.679 1879.52,690.631 1881.76,681.49 1884.01,672.255 1886.25,662.927 1888.49,653.507 1890.73,643.995 1892.98,634.391 1895.22,624.696 1897.46,614.911 1899.71,605.037 1901.95,595.088 1904.19,585.071 1906.43,574.983 1908.68,564.821 1910.92,554.584 1913.16,544.27 1915.41,533.88 1917.65,523.413 1919.89,512.87 1922.13,502.253 1924.38,491.564 1926.62,480.805 1928.86,469.98 1931.11,459.092 1933.35,448.146 1935.59,437.148 1937.83,426.103 1940.08,415.017 1942.32,403.898 1944.56,392.752 1946.81,381.589 1949.05,370.417 1951.29,359.246 1953.53,348.086 1955.78,336.947 1958.02,325.841 1960.26,314.78 1962.5,303.777 1964.75,292.844 1966.99,281.995 1969.23,271.246 1971.48,260.61 1973.72,250.105 1975.96,239.745 1978.2,229.548 1980.45,219.532 1982.69,209.714 1984.93,200.114 1987.18,190.751 1989.42,181.644 1991.66,172.815 1993.9,164.285 1996.15,156.076 1998.39,148.21 2000.63,140.71 2002.88,133.6 2005.12,126.905 2007.36,120.65 2009.6,114.859 2011.85,109.56 2014.09,104.777 2016.33,100.544 2018.58,96.9049 2020.82,93.9042 2023.06,91.5825 2025.3,89.978 2027.55,89.1262 2029.79,89.06 2032.03,89.8097 2034.28,91.4026 2036.52,93.8638 2038.76,97.2153 2041,101.477 2043.25,106.665 2045.49,112.794 2047.73,119.876 2049.97,127.919 2052.22,136.93 2054.46,146.912 2056.7,157.866 2058.95,169.79 2061.19,182.68 2063.43,196.529 2065.67,211.327 2067.92,227.074 2070.16,243.733 2072.4,261.245 2074.65,279.551 2076.89,298.591 2079.13,318.304 2081.37,338.632 2083.62,359.513 2085.86,380.888 2088.1,402.695 2090.35,424.875 2092.59,447.366 2094.83,470.106 2097.07,493.036 2099.32,516.093 2101.56,539.215 2103.8,562.341 2106.05,585.41 2108.29,608.357 2110.53,631.123 2112.77,653.643 2115.02,675.855 2117.26,697.697 2119.5,719.135 2121.75,740.151 2123.99,760.72 2126.23,780.819 2128.47,800.427 2130.72,819.527 2132.96,838.101 2135.2,856.138 2137.45,873.626 2139.69,890.557 2141.93,906.925 2144.17,922.728 2146.42,937.964 2148.66,952.635 2150.9,966.746 2153.14,980.302 2155.39,993.314 2157.63,1005.79 2159.87,1017.75 2162.12,1029.21 2164.36,1040.19 2166.6,1050.7 2168.84,1060.78 2171.09,1070.44 2173.33,1079.73 2175.57,1088.63 2177.82,1097.14 2180.06,1105.27 2182.3,1113.04 2184.54,1120.46 2186.79,1127.55 2189.03,1134.32 2191.27,1140.79 2193.52,1146.95 2195.76,1152.84 2198,1158.45 2200.24,1163.81 2202.49,1168.91 2204.73,1173.78 2206.97,1178.41 2209.22,1182.83 2211.46,1187.04 2213.7,1191.04 2215.94,1194.84 2218.19,1198.46 2220.43,1201.9 2222.67,1205.17 2224.92,1208.26 2227.16,1211.2 2229.4,1213.98 2231.64,1216.62 2233.89,1219.11 2236.13,1221.48 2238.37,1223.71 2240.61,1225.81 2242.86,1227.8 2245.1,1229.67 2247.34,1231.43 2249.59,1233.08 2251.83,1234.62 2254.07,1236.07 2256.31,1237.42 2258.56,1238.67 2260.8,1239.84 2263.04,1240.91 2265.29,1241.9 2267.53,1242.82 2269.77,1243.65 2272.01,1244.4 2274.26,1245.08 2276.5,1245.69 2278.74,1246.22 2280.99,1246.69 2283.23,1247.09 2285.47,1247.42 2287.71,1247.69 2289.96,1247.9 2292.2,1248.04 2294.44,1248.13 2296.69,1248.16 2298.93,1248.13 2301.17,1248.04 2303.41,1247.9 2305.66,1247.71 2307.9,1247.46 2310.14,1247.16 2312.39,1246.8 2314.63,1246.4 2316.87,1245.95 2319.11,1245.44 2321.36,1244.89 2323.6,1244.29 2325.84,1243.64 2328.08,1242.95 2330.33,1242.21 2332.57,1241.42 2334.81,1240.59 2337.06,1239.71 2339.3,1238.79 2341.54,1237.83 2343.78,1236.82 2346.03,1235.76 2348.27,1234.67 2350.51,1233.53 2352.76,1232.34 "/>
<polyline clip-path="url(#clip212)" style="stroke:#c271d2; stroke-linecap:round; stroke-linejoin:round; stroke-width:4; stroke-opacity:1; fill:none" points="112.177,1239.07 114.42,1242.94 116.663,1246.72 118.906,1250.41 121.148,1254.03 123.391,1257.56 125.634,1261.01 127.877,1264.38 130.12,1267.68 132.363,1270.9 134.605,1274.05 136.848,1277.13 139.091,1280.13 141.334,1283.07 143.577,1285.94 145.819,1288.74 148.062,1291.48 150.305,1294.16 152.548,1296.77 154.791,1299.32 157.034,1301.81 159.276,1304.25 161.519,1306.62 163.762,1308.95 166.005,1311.21 168.248,1313.43 170.491,1315.59 172.733,1317.7 174.976,1319.76 177.219,1321.77 179.462,1323.73 181.705,1325.65 183.947,1327.52 186.19,1329.34 188.433,1331.12 190.676,1332.86 192.919,1334.56 195.162,1336.21 197.404,1337.83 199.647,1339.4 201.89,1340.94 204.133,1342.44 206.376,1343.9 208.619,1345.32 210.861,1346.71 213.104,1348.07 215.347,1349.39 217.59,1350.68 219.833,1351.93 222.075,1353.15 224.318,1354.35 226.561,1355.51 228.804,1356.64 231.047,1357.74 233.29,1358.81 235.532,1359.86 237.775,1360.87 240.018,1361.86 242.261,1362.83 244.504,1363.76 246.746,1364.67 248.989,1365.56 251.232,1366.42 253.475,1367.25 255.718,1368.07 257.961,1368.86 260.203,1369.62 262.446,1370.36 264.689,1371.09 266.932,1371.78 269.175,1372.46 271.418,1373.12 273.66,1373.75 275.903,1374.37 278.146,1374.96 280.389,1375.53 282.632,1376.09 284.874,1376.62 287.117,1377.13 289.36,1377.63 291.603,1378.11 293.846,1378.56 296.089,1379 298.331,1379.43 300.574,1379.83 302.817,1380.21 305.06,1380.58 307.303,1380.93 309.545,1381.26 311.788,1381.57 314.031,1381.87 316.274,1382.15 318.517,1382.41 320.76,1382.65 323.002,1382.88 325.245,1383.09 327.488,1383.28 329.731,1383.45 331.974,1383.61 334.217,1383.75 336.459,1383.87 338.702,1383.97 340.945,1384.06 343.188,1384.13 345.431,1384.18 347.673,1384.21 349.916,1384.22 352.159,1384.22 354.402,1384.19 356.645,1384.15 358.888,1384.09 361.13,1384 363.373,1383.9 365.616,1383.78 367.859,1383.63 370.102,1383.47 372.344,1383.28 374.587,1383.07 376.83,1382.84 379.073,1382.58 381.316,1382.3 383.559,1382 385.801,1381.67 388.044,1381.31 390.287,1380.93 392.53,1380.52 394.773,1380.08 397.016,1379.61 399.258,1379.11 401.501,1378.58 403.744,1378.01 405.987,1377.41 408.23,1376.77 410.472,1376.1 412.715,1375.39 414.958,1374.64 417.201,1373.86 419.444,1373.03 421.687,1372.16 423.929,1371.25 426.172,1370.29 428.415,1369.29 430.658,1368.23 432.901,1367.12 435.143,1365.95 437.386,1364.73 439.629,1363.45 441.872,1362.1 444.115,1360.68 446.358,1359.2 448.6,1357.64 450.843,1356 453.086,1354.28 455.329,1352.48 457.572,1350.59 459.815,1348.6 462.057,1346.52 464.3,1344.33 466.543,1342.03 468.786,1339.62 471.029,1337.09 473.271,1334.45 475.514,1331.67 477.757,1328.77 480,1325.74 482.243,1322.57 484.486,1319.25 486.728,1315.77 488.971,1312.1 491.214,1308.25 493.457,1304.2 495.7,1299.94 497.942,1295.45 500.185,1290.73 502.428,1285.76 504.671,1280.54 506.914,1275.04 509.157,1269.27 511.399,1263.22 513.642,1256.86 515.885,1250.19 518.128,1243.2 520.371,1235.88 522.614,1228.23 524.856,1220.22 527.099,1211.85 529.342,1203.12 531.585,1194.01 533.828,1184.51 536.07,1174.61 538.313,1164.31 540.556,1153.59 542.799,1142.46 545.042,1130.89 547.285,1118.88 549.527,1106.42 551.77,1093.51 554.013,1080.13 556.256,1066.29 558.499,1051.95 560.741,1037.1 562.984,1021.77 565.227,1006 567.47,989.831 569.713,973.308 571.956,956.474 574.198,939.374 576.441,922.054 578.684,904.559 580.927,886.937 583.17,869.234 585.413,851.499 587.655,833.781 589.898,816.129 592.141,798.594 594.384,781.227 596.627,764.078 598.869,747.202 601.112,730.65 603.355,714.477 605.598,698.737 607.841,683.485 610.084,668.778 612.326,654.671 614.569,641.223 616.812,628.491 619.055,616.535 621.298,605.392 623.54,595.065 625.783,585.581 628.026,576.961 630.269,569.222 632.512,562.378 634.755,556.439 636.997,551.411 639.24,547.294 641.483,544.087 643.726,541.783 645.969,540.373 648.212,539.84 650.454,540.168 652.697,541.334 654.94,543.311 657.183,546.068 659.426,549.573 661.668,553.785 663.911,558.664 666.154,564.161 668.397,570.228 670.64,576.809 672.883,583.846 675.125,591.278 677.368,599.094 679.611,607.307 681.854,615.884 684.097,624.792 686.339,634.001 688.582,643.481 690.825,653.206 693.068,663.146 695.311,673.278 697.554,683.575 699.796,694.015 702.039,704.574 704.282,715.232 706.525,725.969 708.768,736.766 711.011,747.604 713.253,758.468 715.496,769.341 717.739,780.21 719.982,791.062 722.225,801.884 724.467,812.666 726.71,823.398 728.953,834.069 731.196,844.665 733.439,855.176 735.682,865.599 737.924,875.926 740.167,886.153 742.41,896.274 744.653,906.286 746.896,916.182 749.138,925.96 751.381,935.616 753.624,945.145 755.867,954.546 758.11,963.815 760.353,972.95 762.595,981.948 764.838,990.809 767.081,999.53 769.324,1008.11 771.567,1016.55 773.81,1024.84 776.052,1033 778.295,1041.01 780.538,1048.88 782.781,1056.61 785.024,1064.2 787.266,1071.65 789.509,1078.96 791.752,1086.14 793.995,1093.19 796.238,1100.1 798.481,1106.87 800.723,1113.52 802.966,1120.03 805.209,1126.42 807.452,1132.68 809.695,1138.81 811.938,1144.82 814.18,1150.71 816.423,1156.47 818.666,1162.12 820.909,1167.65 823.152,1173.07 825.394,1178.37 827.637,1183.56 829.88,1188.64 832.123,1193.61 834.366,1198.47 836.609,1203.23 838.851,1207.88 841.094,1212.44 843.337,1216.89 845.58,1221.25 847.823,1225.51 850.065,1229.67 852.308,1233.75 854.551,1237.73 856.794,1241.63 859.037,1245.44 861.28,1249.16 863.522,1252.8 865.765,1256.36 868.008,1259.83 870.251,1263.23 872.494,1266.55 874.737,1269.8 876.979,1272.97 879.222,1276.07 881.465,1279.1 883.708,1282.06 885.951,1284.95 888.193,1287.78 890.436,1290.54 892.679,1293.23 894.922,1295.87 897.165,1298.44 899.408,1300.95 901.65,1303.41 903.893,1305.8 906.136,1308.14 908.379,1310.43 910.622,1312.66 912.864,1314.84 915.107,1316.97 917.35,1319.05 919.593,1321.07 921.836,1323.05 924.079,1324.99 926.321,1326.87 928.564,1328.71 930.807,1330.51 933.05,1332.26 935.293,1333.98 937.536,1335.64 939.778,1337.27 942.021,1338.86 944.264,1340.41 946.507,1341.92 948.75,1343.39 950.992,1344.83 953.235,1346.23 955.478,1347.59 957.721,1348.93 959.964,1350.22 962.207,1351.49 964.449,1352.72 966.692,1353.92 968.935,1355.09 971.178,1356.23 973.421,1357.34 975.663,1358.42 977.906,1359.48 980.149,1360.5 982.392,1361.5 984.635,1362.47 986.878,1363.41 989.12,1364.33 991.363,1365.23 993.606,1366.1 995.849,1366.94 998.092,1367.76 1000.33,1368.56 1002.58,1369.33 1004.82,1370.08 1007.06,1370.81 1009.31,1371.52 1011.55,1372.2 1013.79,1372.87 1016.03,1373.51 1018.28,1374.13 1020.52,1374.73 1022.76,1375.32 1025.01,1375.88 1027.25,1376.42 1029.49,1376.94 1031.73,1377.44 1033.98,1377.92 1036.22,1378.39 1038.46,1378.83 1040.71,1379.26 1042.95,1379.67 1045.19,1380.06 1047.43,1380.43 1049.68,1380.78 1051.92,1381.12 1054.16,1381.44 1056.41,1381.74 1058.65,1382.02 1060.89,1382.29 1063.13,1382.54 1065.38,1382.77 1067.62,1382.99 1069.86,1383.18 1072.1,1383.36 1074.35,1383.53 1076.59,1383.67 1078.83,1383.8 1081.08,1383.91 1083.32,1384 1085.56,1384.07 1087.8,1384.13 1090.05,1384.17 1092.29,1384.19 1094.53,1384.19 1096.78,1384.17 1099.02,1384.13 1101.26,1384.07 1103.5,1384 1105.75,1383.9 1107.99,1383.78 1110.23,1383.64 1112.48,1383.48 1114.72,1383.3 1116.96,1383.1 1119.2,1382.86 1121.45,1382.6 1123.69,1382.31 1125.93,1382 1128.18,1381.66 1130.42,1381.29 1132.66,1380.89 1134.9,1380.47 1137.15,1380.02 1139.39,1379.55 1141.63,1379.04 1143.88,1378.51 1146.12,1377.95 1148.36,1377.36 1150.6,1376.74 1152.85,1376.08 1155.09,1375.39 1157.33,1374.67 1159.57,1373.91 1161.82,1373.11 1164.06,1372.26 1166.3,1371.38 1168.55,1370.45 1170.79,1369.47 1173.03,1368.45 1175.27,1367.37 1177.52,1366.23 1179.76,1365.04 1182,1363.79 1184.25,1362.47 1186.49,1361.09 1188.73,1359.63 1190.97,1358.1 1193.22,1356.49 1195.46,1354.8 1197.7,1353.03 1199.95,1351.16 1202.19,1349.2 1204.43,1347.15 1206.67,1344.98 1208.92,1342.72 1211.16,1340.34 1213.4,1337.84 1215.65,1335.22 1217.89,1332.47 1220.13,1329.59 1222.37,1326.58 1224.62,1323.42 1226.86,1320.13 1229.1,1316.68 1231.35,1313.08 1233.59,1309.29 1235.83,1305.32 1238.07,1301.14 1240.32,1296.75 1242.56,1292.12 1244.8,1287.26 1247.04,1282.14 1249.29,1276.75 1251.53,1271.09 1253.77,1265.13 1256.02,1258.88 1258.26,1252.32 1260.5,1245.44 1262.74,1238.22 1264.99,1230.67 1267.23,1222.76 1269.47,1214.49 1271.72,1205.86 1273.96,1196.84 1276.2,1187.45 1278.44,1177.65 1280.69,1167.46 1282.93,1156.85 1285.17,1145.82 1287.42,1134.38 1289.66,1122.5 1291.9,1110.18 1294.14,1097.41 1296.39,1084.2 1298.63,1070.53 1300.87,1056.4 1303.12,1041.8 1305.36,1026.69 1307.6,1011.06 1309.84,994.963 1312.09,978.465 1314.33,961.618 1316.57,944.478 1318.82,927.102 1321.06,909.543 1323.3,891.855 1325.54,874.093 1327.79,856.309 1330.03,838.556 1332.27,820.885 1334.51,803.348 1336.76,785.997 1339,768.88 1341.24,752.049 1343.49,735.551 1345.73,719.436 1347.97,703.751 1350.21,688.544 1352.46,673.863 1354.7,659.753 1356.94,646.26 1359.19,633.429 1361.43,621.306 1363.67,609.934 1365.91,599.357 1368.16,589.618 1370.4,580.759 1372.64,572.818 1374.89,565.79 1377.13,559.668 1379.37,554.447 1381.61,550.121 1383.86,546.68 1386.1,544.113 1388.34,542.408 1390.59,541.55 1392.83,541.521 1395.07,542.303 1397.31,543.873 1399.56,546.209 1401.8,549.286 1404.04,553.075 1406.29,557.547 1408.53,562.672 1410.77,568.414 1413.01,574.739 1415.26,581.608 1417.5,588.982 1419.74,596.819 1421.98,605.075 1424.23,613.703 1426.47,622.656 1428.71,631.883 1430.96,641.332 1433.2,650.952 1435.44,660.766 1437.68,670.774 1439.93,680.954 1442.17,691.283 1444.41,701.741 1446.66,712.307 1448.9,722.961 1451.14,733.684 1453.38,744.459 1455.63,755.269 1457.87,766.098 1460.11,776.931 1462.36,787.754 1464.6,798.553 1466.84,809.316 1469.08,820.031 1471.33,830.688 1473.57,841.277 1475.81,851.788 1478.06,862.215 1480.3,872.55 1482.54,882.787 1484.78,892.92 1487.03,902.945 1489.27,912.858 1491.51,922.657 1493.76,932.337 1496,941.888 1498.24,951.31 1500.48,960.6 1502.73,969.757 1504.97,978.78 1507.21,987.667 1509.46,996.417 1511.7,1005.03 1513.94,1013.5 1516.18,1021.84 1518.43,1030.04 1520.67,1038.09 1522.91,1046.01 1525.15,1053.79 1527.4,1061.43 1529.64,1068.93 1531.88,1076.29 1534.13,1083.51 1536.37,1090.6 1538.61,1097.55 1540.85,1104.37 1543.1,1111.05 1545.34,1117.6 1547.58,1124.03 1549.83,1130.32 1552.07,1136.49 1554.31,1142.53 1556.55,1148.45 1558.8,1154.25 1561.04,1159.94 1563.28,1165.5 1565.53,1170.95 1567.77,1176.29 1570.01,1181.51 1572.25,1186.62 1574.5,1191.62 1576.74,1196.52 1578.98,1201.31 1581.23,1206 1583.47,1210.59 1585.71,1215.08 1587.95,1219.47 1590.2,1223.76 1592.44,1227.96 1594.68,1232.07 1596.93,1236.09 1599.17,1240.01 1601.41,1243.85 1603.65,1247.61 1605.9,1251.28 1608.14,1254.86 1610.38,1258.37 1612.62,1261.8 1614.87,1265.15 1617.11,1268.42 1619.35,1271.62 1621.6,1274.74 1623.84,1277.8 1626.08,1280.78 1628.32,1283.7 1630.57,1286.54 1632.81,1289.33 1635.05,1292.04 1637.3,1294.7 1639.54,1297.29 1641.78,1299.83 1644.02,1302.3 1646.27,1304.71 1648.51,1307.07 1650.75,1309.38 1653,1311.63 1655.24,1313.82 1657.48,1315.97 1659.72,1318.06 1661.97,1320.1 1664.21,1322.1 1666.45,1324.05 1668.7,1325.95 1670.94,1327.81 1673.18,1329.62 1675.42,1331.39 1677.67,1333.11 1679.91,1334.8 1682.15,1336.44 1684.4,1338.04 1686.64,1339.61 1688.88,1341.13 1691.12,1342.62 1693.37,1344.07 1695.61,1345.49 1697.85,1346.87 1700.09,1348.22 1702.34,1349.53 1704.58,1350.81 1706.82,1352.06 1709.07,1353.27 1711.31,1354.46 1713.55,1355.61 1715.79,1356.73 1718.04,1357.82 1720.28,1358.89 1722.52,1359.92 1724.77,1360.93 1727.01,1361.91 1729.25,1362.87 1731.49,1363.79 1733.74,1364.7 1735.98,1365.57 1738.22,1366.42 1740.47,1367.25 1742.71,1368.06 1744.95,1368.84 1747.19,1369.59 1749.44,1370.33 1751.68,1371.04 1753.92,1371.73 1756.17,1372.4 1758.41,1373.05 1760.65,1373.68 1762.89,1374.28 1765.14,1374.87 1767.38,1375.44 1769.62,1375.98 1771.87,1376.51 1774.11,1377.02 1776.35,1377.51 1778.59,1377.98 1780.84,1378.43 1783.08,1378.86 1785.32,1379.28 1787.56,1379.68 1789.81,1380.05 1792.05,1380.41 1794.29,1380.76 1796.54,1381.08 1798.78,1381.39 1801.02,1381.68 1803.26,1381.95 1805.51,1382.21 1807.75,1382.44 1809.99,1382.66 1812.24,1382.86 1814.48,1383.05 1816.72,1383.21 1818.96,1383.36 1821.21,1383.49 1823.45,1383.6 1825.69,1383.7 1827.94,1383.77 1830.18,1383.83 1832.42,1383.87 1834.66,1383.89 1836.91,1383.89 1839.15,1383.88 1841.39,1383.85 1843.64,1383.79 1845.88,1383.72 1848.12,1383.63 1850.36,1383.52 1852.61,1383.38 1854.85,1383.23 1857.09,1383.05 1859.34,1382.86 1861.58,1382.64 1863.82,1382.39 1866.06,1382.13 1868.31,1381.84 1870.55,1381.52 1872.79,1381.18 1875.03,1380.81 1877.28,1380.41 1879.52,1379.99 1881.76,1379.53 1884.01,1379.05 1886.25,1378.53 1888.49,1377.98 1890.73,1377.4 1892.98,1376.79 1895.22,1376.14 1897.46,1375.45 1899.71,1374.72 1901.95,1373.95 1904.19,1373.13 1906.43,1372.26 1908.68,1371.34 1910.92,1370.37 1913.16,1369.35 1915.41,1368.28 1917.65,1367.16 1919.89,1365.98 1922.13,1364.75 1924.38,1363.46 1926.62,1362.12 1928.86,1360.71 1931.11,1359.23 1933.35,1357.69 1935.59,1356.08 1937.83,1354.39 1940.08,1352.62 1942.32,1350.78 1944.56,1348.84 1946.81,1346.81 1949.05,1344.68 1951.29,1342.45 1953.53,1340.11 1955.78,1337.66 1958.02,1335.08 1960.26,1332.38 1962.5,1329.55 1964.75,1326.57 1966.99,1323.44 1969.23,1320.16 1971.48,1316.71 1973.72,1313.09 1975.96,1309.29 1978.2,1305.3 1980.45,1301.11 1982.69,1296.72 1984.93,1292.1 1987.18,1287.25 1989.42,1282.17 1991.66,1276.84 1993.9,1271.25 1996.15,1265.38 1998.39,1259.24 2000.63,1252.8 2002.88,1246.05 2005.12,1238.99 2007.36,1231.6 2009.6,1223.86 2011.85,1215.76 2014.09,1207.3 2016.33,1198.46 2018.58,1189.24 2020.82,1179.6 2023.06,1169.54 2025.3,1159.04 2027.55,1148.1 2029.79,1136.71 2032.03,1124.87 2034.28,1112.58 2036.52,1099.83 2038.76,1086.63 2041,1072.98 2043.25,1058.9 2045.49,1044.4 2047.73,1029.48 2049.97,1014.17 2052.22,998.478 2054.46,982.433 2056.7,966.055 2058.95,949.37 2061.19,932.407 2063.43,915.196 2065.67,897.77 2067.92,880.158 2070.16,862.415 2072.4,844.614 2074.65,826.824 2076.89,809.113 2079.13,791.547 2081.37,774.188 2083.62,757.097 2085.86,740.335 2088.1,723.957 2090.35,708.019 2092.59,692.574 2094.83,677.671 2097.07,663.359 2099.32,649.685 2101.56,636.693 2103.8,624.425 2106.05,612.921 2108.29,602.218 2110.53,592.353 2112.77,583.359 2115.02,575.268 2117.26,568.108 2119.5,561.884 2121.75,556.577 2123.99,552.176 2126.23,548.668 2128.47,546.038 2130.72,544.27 2132.96,543.345 2135.2,543.244 2137.45,543.945 2139.69,545.425 2141.93,547.66 2144.17,550.623 2146.42,554.287 2148.66,558.622 2150.9,563.597 2153.14,569.179 2155.39,575.334 2157.63,582.025 2159.87,589.216 2162.12,596.867 2164.36,604.937 2166.6,613.384 2168.84,622.163 2171.09,631.23 2173.33,640.535 2175.57,650.069 2177.82,659.831 2180.06,669.795 2182.3,679.938 2184.54,690.235 2186.79,700.666 2189.03,711.208 2191.27,721.841 2193.52,732.546 2195.76,743.305 2198,754.1 2200.24,764.915 2202.49,775.734 2204.73,786.544 2206.97,797.331 2209.22,808.082 2211.46,818.786 2213.7,829.434 2215.94,840.015 2218.19,850.521 2220.43,860.944 2222.67,871.279 2224.92,881.521 2227.16,891.663 2229.4,901.697 2231.64,911.615 2233.89,921.416 2236.13,931.095 2238.37,940.65 2240.61,950.079 2242.86,959.379 2245.1,968.547 2247.34,977.582 2249.59,986.482 2251.83,995.246 2254.07,1003.87 2256.31,1012.36 2258.56,1020.71 2260.8,1028.92 2263.04,1036.98 2265.29,1044.91 2267.53,1052.7 2269.77,1060.34 2272.01,1067.85 2274.26,1075.22 2276.5,1082.45 2278.74,1089.54 2280.99,1096.5 2283.23,1103.33 2285.47,1110.03 2287.71,1116.59 2289.96,1123.03 2292.2,1129.34 2294.44,1135.53 2296.69,1141.59 2298.93,1147.52 2301.17,1153.34 2303.41,1159.04 2305.66,1164.62 2307.9,1170.08 2310.14,1175.43 2312.39,1180.67 2314.63,1185.79 2316.87,1190.81 2319.11,1195.72 2321.36,1200.53 2323.6,1205.23 2325.84,1209.83 2328.08,1214.33 2330.33,1218.73 2332.57,1223.04 2334.81,1227.25 2337.06,1231.37 2339.3,1235.39 2341.54,1239.33 2343.78,1243.18 2346.03,1246.94 2348.27,1250.62 2350.51,1254.22 2352.76,1257.73 "/>
<path clip-path="url(#clip210)" d="M186.863 352.309 L500.018 352.309 L500.018 93.1086 L186.863 93.1086  Z" fill="#ffffff" fill-rule="evenodd" fill-opacity="1"/>
<polyline clip-path="url(#clip210)" style="stroke:#000000; stroke-linecap:round; stroke-linejoin:round; stroke-width:4; stroke-opacity:1; fill:none" points="186.863,352.309 500.018,352.309 500.018,93.1086 186.863,93.1086 186.863,352.309 "/>
<polyline clip-path="url(#clip210)" style="stroke:#009af9; stroke-linecap:round; stroke-linejoin:round; stroke-width:4; stroke-opacity:1; fill:none" points="211.758,144.949 361.13,144.949 "/>
<path clip-path="url(#clip210)" d="M386.026 151.997 L386.026 136.303 L390.285 136.303 L390.285 151.835 Q390.285 155.516 391.72 157.368 Q393.155 159.196 396.026 159.196 Q399.475 159.196 401.465 156.997 Q403.479 154.798 403.479 151.002 L403.479 136.303 L407.739 136.303 L407.739 162.229 L403.479 162.229 L403.479 158.247 Q401.928 160.608 399.868 161.766 Q397.831 162.9 395.123 162.9 Q390.655 162.9 388.34 160.122 Q386.026 157.344 386.026 151.997 M396.743 135.678 L396.743 135.678 Z" fill="#000000" fill-rule="nonzero" fill-opacity="1" /><path clip-path="url(#clip210)" d="M416.118 126.21 L425.933 126.21 L425.933 129.52 L420.377 129.52 L420.377 165.168 L425.933 165.168 L425.933 168.479 L416.118 168.479 L416.118 126.21 Z" fill="#000000" fill-rule="nonzero" fill-opacity="1" /><path clip-path="url(#clip210)" d="M436.419 158.293 L444.058 158.293 L444.058 131.928 L435.748 133.595 L435.748 129.335 L444.011 127.669 L448.687 127.669 L448.687 158.293 L456.326 158.293 L456.326 162.229 L436.419 162.229 L436.419 158.293 Z" fill="#000000" fill-rule="nonzero" fill-opacity="1" /><path clip-path="url(#clip210)" d="M475.122 126.21 L475.122 168.479 L465.308 168.479 L465.308 165.168 L470.84 165.168 L470.84 129.52 L465.308 129.52 L465.308 126.21 L475.122 126.21 Z" fill="#000000" fill-rule="nonzero" fill-opacity="1" /><polyline clip-path="url(#clip210)" style="stroke:#e26f46; stroke-linecap:round; stroke-linejoin:round; stroke-width:4; stroke-opacity:1; fill:none" points="211.758,196.789 361.13,196.789 "/>
<path clip-path="url(#clip210)" d="M386.026 203.837 L386.026 188.143 L390.285 188.143 L390.285 203.675 Q390.285 207.356 391.72 209.208 Q393.155 211.036 396.026 211.036 Q399.475 211.036 401.465 208.837 Q403.479 206.638 403.479 202.842 L403.479 188.143 L407.739 188.143 L407.739 214.069 L403.479 214.069 L403.479 210.087 Q401.928 212.448 399.868 213.606 Q397.831 214.74 395.123 214.74 Q390.655 214.74 388.34 211.962 Q386.026 209.184 386.026 203.837 M396.743 187.518 L396.743 187.518 Z" fill="#000000" fill-rule="nonzero" fill-opacity="1" /><path clip-path="url(#clip210)" d="M416.118 178.05 L425.933 178.05 L425.933 181.36 L420.377 181.36 L420.377 217.008 L425.933 217.008 L425.933 220.319 L416.118 220.319 L416.118 178.05 Z" fill="#000000" fill-rule="nonzero" fill-opacity="1" /><path clip-path="url(#clip210)" d="M439.637 210.133 L455.956 210.133 L455.956 214.069 L434.012 214.069 L434.012 210.133 Q436.674 207.379 441.257 202.749 Q445.863 198.096 447.044 196.754 Q449.289 194.231 450.169 192.495 Q451.072 190.735 451.072 189.046 Q451.072 186.291 449.127 184.555 Q447.206 182.819 444.104 182.819 Q441.905 182.819 439.451 183.583 Q437.021 184.347 434.243 185.897 L434.243 181.175 Q437.067 180.041 439.521 179.462 Q441.974 178.884 444.011 178.884 Q449.382 178.884 452.576 181.569 Q455.771 184.254 455.771 188.745 Q455.771 190.874 454.961 192.796 Q454.173 194.694 452.067 197.286 Q451.488 197.958 448.386 201.175 Q445.285 204.37 439.637 210.133 Z" fill="#000000" fill-rule="nonzero" fill-opacity="1" /><path clip-path="url(#clip210)" d="M475.122 178.05 L475.122 220.319 L465.308 220.319 L465.308 217.008 L470.84 217.008 L470.84 181.36 L465.308 181.36 L465.308 178.05 L475.122 178.05 Z" fill="#000000" fill-rule="nonzero" fill-opacity="1" /><polyline clip-path="url(#clip210)" style="stroke:#3da44d; stroke-linecap:round; stroke-linejoin:round; stroke-width:4; stroke-opacity:1; fill:none" points="211.758,248.629 361.13,248.629 "/>
<path clip-path="url(#clip210)" d="M386.026 255.677 L386.026 239.983 L390.285 239.983 L390.285 255.515 Q390.285 259.196 391.72 261.048 Q393.155 262.876 396.026 262.876 Q399.475 262.876 401.465 260.677 Q403.479 258.478 403.479 254.682 L403.479 239.983 L407.739 239.983 L407.739 265.909 L403.479 265.909 L403.479 261.927 Q401.928 264.288 399.868 265.446 Q397.831 266.58 395.123 266.58 Q390.655 266.58 388.34 263.802 Q386.026 261.024 386.026 255.677 M396.743 239.358 L396.743 239.358 Z" fill="#000000" fill-rule="nonzero" fill-opacity="1" /><path clip-path="url(#clip210)" d="M416.118 229.89 L425.933 229.89 L425.933 233.2 L420.377 233.2 L420.377 268.848 L425.933 268.848 L425.933 272.159 L416.118 272.159 L416.118 229.89 Z" fill="#000000" fill-rule="nonzero" fill-opacity="1" /><path clip-path="url(#clip210)" d="M436.419 261.973 L444.058 261.973 L444.058 235.608 L435.748 237.275 L435.748 233.015 L444.011 231.349 L448.687 231.349 L448.687 261.973 L456.326 261.973 L456.326 265.909 L436.419 265.909 L436.419 261.973 Z" fill="#000000" fill-rule="nonzero" fill-opacity="1" /><path clip-path="url(#clip210)" d="M475.122 229.89 L475.122 272.159 L465.308 272.159 L465.308 268.848 L470.84 268.848 L470.84 233.2 L465.308 233.2 L465.308 229.89 L475.122 229.89 Z" fill="#000000" fill-rule="nonzero" fill-opacity="1" /><polyline clip-path="url(#clip210)" style="stroke:#c271d2; stroke-linecap:round; stroke-linejoin:round; stroke-width:4; stroke-opacity:1; fill:none" points="211.758,300.469 361.13,300.469 "/>
<path clip-path="url(#clip210)" d="M386.026 307.517 L386.026 291.823 L390.285 291.823 L390.285 307.355 Q390.285 311.036 391.72 312.888 Q393.155 314.716 396.026 314.716 Q399.475 314.716 401.465 312.517 Q403.479 310.318 403.479 306.522 L403.479 291.823 L407.739 291.823 L407.739 317.749 L403.479 317.749 L403.479 313.767 Q401.928 316.128 399.868 317.286 Q397.831 318.42 395.123 318.42 Q390.655 318.42 388.34 315.642 Q386.026 312.864 386.026 307.517 M396.743 291.198 L396.743 291.198 Z" fill="#000000" fill-rule="nonzero" fill-opacity="1" /><path clip-path="url(#clip210)" d="M416.118 281.73 L425.933 281.73 L425.933 285.04 L420.377 285.04 L420.377 320.688 L425.933 320.688 L425.933 323.999 L416.118 323.999 L416.118 281.73 Z" fill="#000000" fill-rule="nonzero" fill-opacity="1" /><path clip-path="url(#clip210)" d="M439.637 313.813 L455.956 313.813 L455.956 317.749 L434.012 317.749 L434.012 313.813 Q436.674 311.059 441.257 306.429 Q445.863 301.776 447.044 300.434 Q449.289 297.911 450.169 296.175 Q451.072 294.415 451.072 292.726 Q451.072 289.971 449.127 288.235 Q447.206 286.499 444.104 286.499 Q441.905 286.499 439.451 287.263 Q437.021 288.027 434.243 289.577 L434.243 284.855 Q437.067 283.721 439.521 283.142 Q441.974 282.564 444.011 282.564 Q449.382 282.564 452.576 285.249 Q455.771 287.934 455.771 292.425 Q455.771 294.554 454.961 296.476 Q454.173 298.374 452.067 300.966 Q451.488 301.638 448.386 304.855 Q445.285 308.05 439.637 313.813 Z" fill="#000000" fill-rule="nonzero" fill-opacity="1" /><path clip-path="url(#clip210)" d="M475.122 281.73 L475.122 323.999 L465.308 323.999 L465.308 320.688 L470.84 320.688 L470.84 285.04 L465.308 285.04 L465.308 281.73 L475.122 281.73 Z" fill="#000000" fill-rule="nonzero" fill-opacity="1" /></svg>
