<?xml version="1.0" encoding="utf-8"?>
<svg xmlns="http://www.w3.org/2000/svg" xmlns:xlink="http://www.w3.org/1999/xlink" width="600" height="400" viewBox="0 0 2400 1600">
<defs>
  <clipPath id="clip630">
    <rect x="0" y="0" width="2400" height="1600"/>
  </clipPath>
</defs>
<path clip-path="url(#clip630)" d="M0 1600 L2400 1600 L2400 0 L0 0  Z" fill="#ffffff" fill-rule="evenodd" fill-opacity="1"/>
<defs>
  <clipPath id="clip631">
    <rect x="480" y="0" width="1681" height="1600"/>
  </clipPath>
</defs>
<path clip-path="url(#clip630)" d="M112.177 1423.18 L2352.76 1423.18 L2352.76 47.2441 L112.177 47.2441  Z" fill="#ffffff" fill-rule="evenodd" fill-opacity="1"/>
<defs>
  <clipPath id="clip632">
    <rect x="112" y="47" width="2242" height="1377"/>
  </clipPath>
</defs>
<polyline clip-path="url(#clip632)" style="stroke:#000000; stroke-linecap:round; stroke-linejoin:round; stroke-width:2; stroke-opacity:0.1; fill:none" points="112.177,1423.18 112.177,47.2441 "/>
<polyline clip-path="url(#clip632)" style="stroke:#000000; stroke-linecap:round; stroke-linejoin:round; stroke-width:2; stroke-opacity:0.1; fill:none" points="560.293,1423.18 560.293,47.2441 "/>
<polyline clip-path="url(#clip632)" style="stroke:#000000; stroke-linecap:round; stroke-linejoin:round; stroke-width:2; stroke-opacity:0.1; fill:none" points="1008.41,1423.18 1008.41,47.2441 "/>
<polyline clip-path="url(#clip632)" style="stroke:#000000; stroke-linecap:round; stroke-linejoin:round; stroke-width:2; stroke-opacity:0.1; fill:none" points="1456.52,1423.18 1456.52,47.2441 "/>
<polyline clip-path="url(#clip632)" style="stroke:#000000; stroke-linecap:round; stroke-linejoin:round; stroke-width:2; stroke-opacity:0.1; fill:none" points="1904.64,1423.18 1904.64,47.2441 "/>
<polyline clip-path="url(#clip632)" style="stroke:#000000; stroke-linecap:round; stroke-linejoin:round; stroke-width:2; stroke-opacity:0.1; fill:none" points="2352.76,1423.18 2352.76,47.2441 "/>
<polyline clip-path="url(#clip630)" style="stroke:#000000; stroke-linecap:round; stroke-linejoin:round; stroke-width:4; stroke-opacity:1; fill:none" points="112.177,1423.18 2352.76,1423.18 "/>
<polyline clip-path="url(#clip630)" style="stroke:#000000; stroke-linecap:round; stroke-linejoin:round; stroke-width:4; stroke-opacity:1; fill:none" points="112.177,1423.18 112.177,1404.28 "/>
<polyline clip-path="url(#clip630)" style="stroke:#000000; stroke-linecap:round; stroke-linejoin:round; stroke-width:4; stroke-opacity:1; fill:none" points="560.293,1423.18 560.293,1404.28 "/>
<polyline clip-path="url(#clip630)" style="stroke:#000000; stroke-linecap:round; stroke-linejoin:round; stroke-width:4; stroke-opacity:1; fill:none" points="1008.41,1423.18 1008.41,1404.28 "/>
<polyline clip-path="url(#clip630)" style="stroke:#000000; stroke-linecap:round; stroke-linejoin:round; stroke-width:4; stroke-opacity:1; fill:none" points="1456.52,1423.18 1456.52,1404.28 "/>
<polyline clip-path="url(#clip630)" style="stroke:#000000; stroke-linecap:round; stroke-linejoin:round; stroke-width:4; stroke-opacity:1; fill:none" points="1904.64,1423.18 1904.64,1404.28 "/>
<polyline clip-path="url(#clip630)" style="stroke:#000000; stroke-linecap:round; stroke-linejoin:round; stroke-width:4; stroke-opacity:1; fill:none" points="2352.76,1423.18 2352.76,1404.28 "/>
<path clip-path="url(#clip630)" d="M112.177 1454.1 Q108.566 1454.1 106.737 1457.66 Q104.932 1461.2 104.932 1468.33 Q104.932 1475.44 106.737 1479.01 Q108.566 1482.55 112.177 1482.55 Q115.811 1482.55 117.617 1479.01 Q119.446 1475.44 119.446 1468.33 Q119.446 1461.2 117.617 1457.66 Q115.811 1454.1 112.177 1454.1 M112.177 1450.39 Q117.987 1450.39 121.043 1455 Q124.122 1459.58 124.122 1468.33 Q124.122 1477.06 121.043 1481.67 Q117.987 1486.25 112.177 1486.25 Q106.367 1486.25 103.288 1481.67 Q100.233 1477.06 100.233 1468.33 Q100.233 1459.58 103.288 1455 Q106.367 1450.39 112.177 1450.39 Z" fill="#000000" fill-rule="nonzero" fill-opacity="1" /><path clip-path="url(#clip630)" d="M554.946 1481.64 L571.265 1481.64 L571.265 1485.58 L549.321 1485.58 L549.321 1481.64 Q551.983 1478.89 556.566 1474.26 Q561.173 1469.61 562.353 1468.27 Q564.598 1465.74 565.478 1464.01 Q566.381 1462.25 566.381 1460.56 Q566.381 1457.8 564.436 1456.07 Q562.515 1454.33 559.413 1454.33 Q557.214 1454.33 554.761 1455.09 Q552.33 1455.86 549.552 1457.41 L549.552 1452.69 Q552.376 1451.55 554.83 1450.97 Q557.284 1450.39 559.321 1450.39 Q564.691 1450.39 567.885 1453.08 Q571.08 1455.77 571.08 1460.26 Q571.08 1462.39 570.27 1464.31 Q569.483 1466.2 567.376 1468.8 Q566.798 1469.47 563.696 1472.69 Q560.594 1475.88 554.946 1481.64 Z" fill="#000000" fill-rule="nonzero" fill-opacity="1" /><path clip-path="url(#clip630)" d="M1011.42 1455.09 L999.612 1473.54 L1011.42 1473.54 L1011.42 1455.09 M1010.19 1451.02 L1016.07 1451.02 L1016.07 1473.54 L1021 1473.54 L1021 1477.43 L1016.07 1477.43 L1016.07 1485.58 L1011.42 1485.58 L1011.42 1477.43 L995.816 1477.43 L995.816 1472.92 L1010.19 1451.02 Z" fill="#000000" fill-rule="nonzero" fill-opacity="1" /><path clip-path="url(#clip630)" d="M1456.93 1466.44 Q1453.78 1466.44 1451.93 1468.59 Q1450.1 1470.74 1450.1 1474.49 Q1450.1 1478.22 1451.93 1480.39 Q1453.78 1482.55 1456.93 1482.55 Q1460.08 1482.55 1461.91 1480.39 Q1463.76 1478.22 1463.76 1474.49 Q1463.76 1470.74 1461.91 1468.59 Q1460.08 1466.44 1456.93 1466.44 M1466.21 1451.78 L1466.21 1456.04 Q1464.45 1455.21 1462.65 1454.77 Q1460.86 1454.33 1459.11 1454.33 Q1454.48 1454.33 1452.02 1457.45 Q1449.59 1460.58 1449.24 1466.9 Q1450.61 1464.89 1452.67 1463.82 Q1454.73 1462.73 1457.21 1462.73 Q1462.42 1462.73 1465.42 1465.9 Q1468.46 1469.05 1468.46 1474.49 Q1468.46 1479.82 1465.31 1483.03 Q1462.16 1486.25 1456.93 1486.25 Q1450.93 1486.25 1447.76 1481.67 Q1444.59 1477.06 1444.59 1468.33 Q1444.59 1460.14 1448.48 1455.28 Q1452.37 1450.39 1458.92 1450.39 Q1460.68 1450.39 1462.46 1450.74 Q1464.27 1451.09 1466.21 1451.78 Z" fill="#000000" fill-rule="nonzero" fill-opacity="1" /><path clip-path="url(#clip630)" d="M1904.64 1469.17 Q1901.31 1469.17 1899.39 1470.95 Q1897.49 1472.73 1897.49 1475.86 Q1897.49 1478.98 1899.39 1480.77 Q1901.31 1482.55 1904.64 1482.55 Q1907.97 1482.55 1909.89 1480.77 Q1911.82 1478.96 1911.82 1475.86 Q1911.82 1472.73 1909.89 1470.95 Q1908 1469.17 1904.64 1469.17 M1899.96 1467.18 Q1896.96 1466.44 1895.27 1464.38 Q1893.6 1462.32 1893.6 1459.35 Q1893.6 1455.21 1896.54 1452.8 Q1899.5 1450.39 1904.64 1450.39 Q1909.8 1450.39 1912.74 1452.8 Q1915.68 1455.21 1915.68 1459.35 Q1915.68 1462.32 1913.99 1464.38 Q1912.33 1466.44 1909.34 1467.18 Q1912.72 1467.96 1914.59 1470.26 Q1916.49 1472.55 1916.49 1475.86 Q1916.49 1480.88 1913.41 1483.57 Q1910.36 1486.25 1904.64 1486.25 Q1898.92 1486.25 1895.84 1483.57 Q1892.79 1480.88 1892.79 1475.86 Q1892.79 1472.55 1894.69 1470.26 Q1896.58 1467.96 1899.96 1467.18 M1898.25 1459.79 Q1898.25 1462.48 1899.92 1463.98 Q1901.61 1465.49 1904.64 1465.49 Q1907.65 1465.49 1909.34 1463.98 Q1911.05 1462.48 1911.05 1459.79 Q1911.05 1457.11 1909.34 1455.6 Q1907.65 1454.1 1904.64 1454.1 Q1901.61 1454.1 1899.92 1455.6 Q1898.25 1457.11 1898.25 1459.79 Z" fill="#000000" fill-rule="nonzero" fill-opacity="1" /><path clip-path="url(#clip630)" d="M2327.44 1481.64 L2335.08 1481.64 L2335.08 1455.28 L2326.77 1456.95 L2326.77 1452.69 L2335.04 1451.02 L2339.71 1451.02 L2339.71 1481.64 L2347.35 1481.64 L2347.35 1485.58 L2327.44 1485.58 L2327.44 1481.64 Z" fill="#000000" fill-rule="nonzero" fill-opacity="1" /><path clip-path="url(#clip630)" d="M2366.8 1454.1 Q2363.18 1454.1 2361.36 1457.66 Q2359.55 1461.2 2359.55 1468.33 Q2359.55 1475.44 2361.36 1479.01 Q2363.18 1482.55 2366.8 1482.55 Q2370.43 1482.55 2372.23 1479.01 Q2374.06 1475.44 2374.06 1468.33 Q2374.06 1461.2 2372.23 1457.66 Q2370.43 1454.1 2366.8 1454.1 M2366.8 1450.39 Q2372.61 1450.39 2375.66 1455 Q2378.74 1459.58 2378.74 1468.33 Q2378.74 1477.06 2375.66 1481.67 Q2372.61 1486.25 2366.8 1486.25 Q2360.99 1486.25 2357.91 1481.67 Q2354.85 1477.06 2354.85 1468.33 Q2354.85 1459.58 2357.91 1455 Q2360.99 1450.39 2366.8 1450.39 Z" fill="#000000" fill-rule="nonzero" fill-opacity="1" /><path clip-path="url(#clip630)" d="M1231.53 1522.27 L1231.53 1532.4 L1243.59 1532.4 L1243.59 1536.95 L1231.53 1536.95 L1231.53 1556.3 Q1231.53 1560.66 1232.71 1561.9 Q1233.91 1563.14 1237.58 1563.14 L1243.59 1563.14 L1243.59 1568.04 L1237.58 1568.04 Q1230.8 1568.04 1228.22 1565.53 Q1225.64 1562.98 1225.64 1556.3 L1225.64 1536.95 L1221.34 1536.95 L1221.34 1532.4 L1225.64 1532.4 L1225.64 1522.27 L1231.53 1522.27 Z" fill="#000000" fill-rule="nonzero" fill-opacity="1" /><polyline clip-path="url(#clip632)" style="stroke:#000000; stroke-linecap:round; stroke-linejoin:round; stroke-width:2; stroke-opacity:0.1; fill:none" points="112.177,1239.07 2352.76,1239.07 "/>
<polyline clip-path="url(#clip632)" style="stroke:#000000; stroke-linecap:round; stroke-linejoin:round; stroke-width:2; stroke-opacity:0.1; fill:none" points="112.177,1043.73 2352.76,1043.73 "/>
<polyline clip-path="url(#clip632)" style="stroke:#000000; stroke-linecap:round; stroke-linejoin:round; stroke-width:2; stroke-opacity:0.1; fill:none" points="112.177,848.389 2352.76,848.389 "/>
<polyline clip-path="url(#clip632)" style="stroke:#000000; stroke-linecap:round; stroke-linejoin:round; stroke-width:2; stroke-opacity:0.1; fill:none" points="112.177,653.047 2352.76,653.047 "/>
<polyline clip-path="url(#clip632)" style="stroke:#000000; stroke-linecap:round; stroke-linejoin:round; stroke-width:2; stroke-opacity:0.1; fill:none" points="112.177,457.706 2352.76,457.706 "/>
<polyline clip-path="url(#clip632)" style="stroke:#000000; stroke-linecap:round; stroke-linejoin:round; stroke-width:2; stroke-opacity:0.1; fill:none" points="112.177,262.364 2352.76,262.364 "/>
<polyline clip-path="url(#clip632)" style="stroke:#000000; stroke-linecap:round; stroke-linejoin:round; stroke-width:2; stroke-opacity:0.1; fill:none" points="112.177,67.0231 2352.76,67.0231 "/>
<polyline clip-path="url(#clip630)" style="stroke:#000000; stroke-linecap:round; stroke-linejoin:round; stroke-width:4; stroke-opacity:1; fill:none" points="112.177,1423.18 112.177,47.2441 "/>
<polyline clip-path="url(#clip630)" style="stroke:#000000; stroke-linecap:round; stroke-linejoin:round; stroke-width:4; stroke-opacity:1; fill:none" points="112.177,1239.07 131.075,1239.07 "/>
<polyline clip-path="url(#clip630)" style="stroke:#000000; stroke-linecap:round; stroke-linejoin:round; stroke-width:4; stroke-opacity:1; fill:none" points="112.177,1043.73 131.075,1043.73 "/>
<polyline clip-path="url(#clip630)" style="stroke:#000000; stroke-linecap:round; stroke-linejoin:round; stroke-width:4; stroke-opacity:1; fill:none" points="112.177,848.389 131.075,848.389 "/>
<polyline clip-path="url(#clip630)" style="stroke:#000000; stroke-linecap:round; stroke-linejoin:round; stroke-width:4; stroke-opacity:1; fill:none" points="112.177,653.047 131.075,653.047 "/>
<polyline clip-path="url(#clip630)" style="stroke:#000000; stroke-linecap:round; stroke-linejoin:round; stroke-width:4; stroke-opacity:1; fill:none" points="112.177,457.706 131.075,457.706 "/>
<polyline clip-path="url(#clip630)" style="stroke:#000000; stroke-linecap:round; stroke-linejoin:round; stroke-width:4; stroke-opacity:1; fill:none" points="112.177,262.364 131.075,262.364 "/>
<polyline clip-path="url(#clip630)" style="stroke:#000000; stroke-linecap:round; stroke-linejoin:round; stroke-width:4; stroke-opacity:1; fill:none" points="112.177,67.0231 131.075,67.0231 "/>
<path clip-path="url(#clip630)" d="M56.2699 1252.42 L63.9087 1252.42 L63.9087 1226.05 L55.5986 1227.72 L55.5986 1223.46 L63.8624 1221.79 L68.5383 1221.79 L68.5383 1252.42 L76.1772 1252.42 L76.1772 1256.35 L56.2699 1256.35 L56.2699 1252.42 Z" fill="#000000" fill-rule="nonzero" fill-opacity="1" /><path clip-path="url(#clip630)" d="M59.8578 1057.07 L76.1772 1057.07 L76.1772 1061.01 L54.2328 1061.01 L54.2328 1057.07 Q56.8949 1054.32 61.4782 1049.69 Q66.0846 1045.04 67.2652 1043.7 Q69.5105 1041.17 70.3902 1039.44 Q71.2929 1037.68 71.2929 1035.99 Q71.2929 1033.23 69.3485 1031.5 Q67.4272 1029.76 64.3254 1029.76 Q62.1263 1029.76 59.6726 1030.52 Q57.2421 1031.29 54.4643 1032.84 L54.4643 1028.12 Q57.2884 1026.98 59.7421 1026.4 Q62.1958 1025.82 64.2328 1025.82 Q69.6031 1025.82 72.7976 1028.51 Q75.992 1031.2 75.992 1035.69 Q75.992 1037.82 75.1818 1039.74 Q74.3948 1041.64 72.2883 1044.23 Q71.7096 1044.9 68.6078 1048.12 Q65.5059 1051.31 59.8578 1057.07 Z" fill="#000000" fill-rule="nonzero" fill-opacity="1" /><path clip-path="url(#clip630)" d="M69.0476 847.034 Q72.404 847.752 74.279 850.02 Q76.1772 852.289 76.1772 855.622 Q76.1772 860.738 72.6587 863.539 Q69.1402 866.34 62.6587 866.34 Q60.4828 866.34 58.168 865.9 Q55.8764 865.483 53.4227 864.627 L53.4227 860.113 Q55.3671 861.247 57.6819 861.826 Q59.9967 862.405 62.5198 862.405 Q66.918 862.405 69.2096 860.669 Q71.5244 858.932 71.5244 855.622 Q71.5244 852.567 69.3717 850.854 Q67.242 849.118 63.4226 849.118 L59.3949 849.118 L59.3949 845.275 L63.6078 845.275 Q67.0569 845.275 68.8855 843.909 Q70.7142 842.521 70.7142 839.928 Q70.7142 837.266 68.8161 835.854 Q66.9411 834.419 63.4226 834.419 Q61.5013 834.419 59.3023 834.835 Q57.1032 835.252 54.4643 836.132 L54.4643 831.965 Q57.1264 831.224 59.4412 830.854 Q61.7791 830.484 63.8393 830.484 Q69.1633 830.484 72.2652 832.914 Q75.367 835.321 75.367 839.442 Q75.367 842.312 73.7235 844.303 Q72.08 846.27 69.0476 847.034 Z" fill="#000000" fill-rule="nonzero" fill-opacity="1" /><path clip-path="url(#clip630)" d="M66.5939 639.841 L54.7884 658.29 L66.5939 658.29 L66.5939 639.841 M65.367 635.767 L71.2466 635.767 L71.2466 658.29 L76.1772 658.29 L76.1772 662.179 L71.2466 662.179 L71.2466 670.327 L66.5939 670.327 L66.5939 662.179 L50.9921 662.179 L50.9921 657.665 L65.367 635.767 Z" fill="#000000" fill-rule="nonzero" fill-opacity="1" /><path clip-path="url(#clip630)" d="M55.2745 440.426 L73.6309 440.426 L73.6309 444.361 L59.5569 444.361 L59.5569 452.833 Q60.5754 452.486 61.5939 452.324 Q62.6124 452.139 63.6309 452.139 Q69.418 452.139 72.7976 455.31 Q76.1772 458.481 76.1772 463.898 Q76.1772 469.477 72.705 472.578 Q69.2328 475.657 62.9134 475.657 Q60.7374 475.657 58.4689 475.287 Q56.2236 474.916 53.8162 474.176 L53.8162 469.477 Q55.8995 470.611 58.1217 471.166 Q60.3439 471.722 62.8208 471.722 Q66.8254 471.722 69.1633 469.615 Q71.5013 467.509 71.5013 463.898 Q71.5013 460.287 69.1633 458.18 Q66.8254 456.074 62.8208 456.074 Q60.9458 456.074 59.0708 456.491 Q57.2189 456.907 55.2745 457.787 L55.2745 440.426 Z" fill="#000000" fill-rule="nonzero" fill-opacity="1" /><path clip-path="url(#clip630)" d="M64.6495 260.501 Q61.5013 260.501 59.6495 262.654 Q57.8208 264.807 57.8208 268.557 Q57.8208 272.283 59.6495 274.459 Q61.5013 276.612 64.6495 276.612 Q67.7976 276.612 69.6263 274.459 Q71.4781 272.283 71.4781 268.557 Q71.4781 264.807 69.6263 262.654 Q67.7976 260.501 64.6495 260.501 M73.9318 245.848 L73.9318 250.108 Q72.1726 249.274 70.367 248.834 Q68.5846 248.395 66.8254 248.395 Q62.1958 248.395 59.7421 251.52 Q57.3115 254.645 56.9643 260.964 Q58.33 258.95 60.3902 257.885 Q62.4504 256.797 64.9272 256.797 Q70.1355 256.797 73.1448 259.969 Q76.1772 263.117 76.1772 268.557 Q76.1772 273.881 73.029 277.098 Q69.8809 280.316 64.6495 280.316 Q58.6541 280.316 55.4828 275.732 Q52.3116 271.126 52.3116 262.399 Q52.3116 254.205 56.2004 249.344 Q60.0893 244.459 66.6402 244.459 Q68.3994 244.459 70.1818 244.807 Q71.9874 245.154 73.9318 245.848 Z" fill="#000000" fill-rule="nonzero" fill-opacity="1" /><path clip-path="url(#clip630)" d="M53.9551 49.7431 L76.1772 49.7431 L76.1772 51.7338 L63.6309 84.3031 L58.7467 84.3031 L70.5522 53.6783 L53.9551 53.6783 L53.9551 49.7431 Z" fill="#000000" fill-rule="nonzero" fill-opacity="1" /><polyline clip-path="url(#clip632)" style="stroke:#009af9; stroke-linecap:round; stroke-linejoin:round; stroke-width:4; stroke-opacity:1; fill:none" points="112.177,1239.07 114.42,1238.07 116.663,1237.03 118.906,1235.94 121.148,1234.81 123.391,1233.64 125.634,1232.42 127.877,1231.16 130.12,1229.86 132.363,1228.51 134.605,1227.13 136.848,1225.7 139.091,1224.22 141.334,1222.71 143.577,1221.15 145.819,1219.55 148.062,1217.9 150.305,1216.22 152.548,1214.49 154.791,1212.72 157.034,1210.9 159.276,1209.04 161.519,1207.14 163.762,1205.19 166.005,1203.2 168.248,1201.17 170.491,1199.09 172.733,1196.97 174.976,1194.8 177.219,1192.59 179.462,1190.33 181.705,1188.03 183.947,1185.68 186.19,1183.28 188.433,1180.84 190.676,1178.35 192.919,1175.81 195.162,1173.23 197.404,1170.6 199.647,1167.92 201.89,1165.19 204.133,1162.41 206.376,1159.59 208.619,1156.71 210.861,1153.78 213.104,1150.81 215.347,1147.78 217.59,1144.69 219.833,1141.56 222.075,1138.38 224.318,1135.14 226.561,1131.84 228.804,1128.5 231.047,1125.1 233.29,1121.64 235.532,1118.13 237.775,1114.56 240.018,1110.93 242.261,1107.25 244.504,1103.51 246.746,1099.71 248.989,1095.85 251.232,1091.93 253.475,1087.95 255.718,1083.91 257.961,1079.81 260.203,1075.64 262.446,1071.41 264.689,1067.12 266.932,1062.77 269.175,1058.35 271.418,1053.86 273.66,1049.31 275.903,1044.69 278.146,1040 280.389,1035.25 282.632,1030.42 284.874,1025.53 287.117,1020.57 289.36,1015.53 291.603,1010.42 293.846,1005.25 296.089,999.993 298.331,994.666 300.574,989.264 302.817,983.787 305.06,978.234 307.303,972.605 309.545,966.897 311.788,961.111 314.031,955.246 316.274,949.301 318.517,943.276 320.76,937.17 323.002,930.981 325.245,924.71 327.488,918.355 329.731,911.917 331.974,905.395 334.217,898.787 336.459,892.092 338.702,885.311 340.945,878.442 343.188,871.484 345.431,864.438 347.673,857.301 349.916,850.074 352.159,842.757 354.402,835.348 356.645,827.847 358.888,820.253 361.13,812.567 363.373,804.787 365.616,796.914 367.859,788.947 370.102,780.886 372.344,772.731 374.587,764.48 376.83,756.135 379.073,747.695 381.316,739.159 383.559,730.529 385.801,721.803 388.044,712.981 390.287,704.064 392.53,695.052 394.773,685.944 397.016,676.742 399.258,667.449 401.501,658.066 403.744,648.593 405.987,639.027 408.23,629.371 410.472,619.623 412.715,609.785 414.958,599.856 417.201,589.838 419.444,579.733 421.687,569.542 423.929,559.266 426.172,548.909 428.415,538.472 430.658,527.958 432.901,517.371 435.143,506.713 437.386,495.99 439.629,485.203 441.872,474.358 444.115,463.46 446.358,452.513 448.6,441.522 450.843,430.492 453.086,419.43 455.329,408.341 457.572,397.232 459.815,386.11 462.057,374.98 464.3,363.851 466.543,352.73 468.786,341.624 471.029,330.542 473.271,319.492 475.514,308.482 477.757,297.508 480,286.58 482.243,275.717 484.486,264.937 486.728,254.259 488.971,243.703 491.214,233.288 493.457,223.036 495.7,212.967 497.942,203.103 500.185,193.466 502.428,184.078 504.671,174.962 506.914,166.142 509.157,157.641 511.399,149.485 513.642,141.697 515.885,134.304 518.128,127.331 520.371,120.804 522.614,114.751 524.856,109.199 527.099,104.175 529.342,99.7082 531.585,95.827 533.828,92.5607 536.07,89.9391 538.313,87.9926 540.556,86.7517 542.799,86.2478 545.042,86.5126 547.285,87.5782 549.527,89.4773 551.77,92.2432 554.013,95.9094 556.256,100.51 558.499,106.083 560.741,112.667 562.984,120.267 565.227,128.878 567.47,138.495 569.713,149.108 571.956,160.703 574.198,173.263 576.441,186.769 578.684,201.197 580.927,216.52 583.17,232.709 585.413,249.73 587.655,267.546 589.898,286.118 592.141,305.403 594.384,325.352 596.627,345.918 598.869,367.045 601.112,388.678 603.355,410.757 605.598,433.218 607.841,455.995 610.084,479.017 612.326,502.212 614.569,525.503 616.812,548.809 619.055,572.048 621.298,595.16 623.54,618.121 625.783,640.878 628.026,663.376 630.269,685.566 632.512,707.403 634.755,728.846 636.997,749.858 639.24,770.404 641.483,790.456 643.726,809.988 645.969,828.978 648.212,847.409 650.454,865.268 652.697,882.544 654.94,899.233 657.183,915.331 659.426,930.842 661.668,945.772 663.911,960.131 666.154,973.932 668.397,987.194 670.64,999.94 672.883,1012.19 675.125,1023.99 677.368,1035.32 679.611,1046.17 681.854,1056.56 684.097,1066.51 686.339,1076.04 688.582,1085.15 690.825,1093.87 693.068,1102.2 695.311,1110.17 697.554,1117.78 699.796,1125.05 702.039,1132 704.282,1138.63 706.525,1144.96 708.768,1151 711.011,1156.76 713.253,1162.25 715.496,1167.49 717.739,1172.47 719.982,1177.22 722.225,1181.74 724.467,1186.04 726.71,1190.13 728.953,1194.02 731.196,1197.72 733.439,1201.24 735.682,1204.58 737.924,1207.75 740.167,1210.76 742.41,1213.62 744.653,1216.32 746.896,1218.89 749.138,1221.31 751.381,1223.6 753.624,1225.77 755.867,1227.81 758.11,1229.73 760.353,1231.54 762.595,1233.24 764.838,1234.84 767.081,1236.33 769.324,1237.73 771.567,1239.03 773.81,1240.24 776.052,1241.37 778.295,1242.41 780.538,1243.36 782.781,1244.23 785.024,1245.03 787.266,1245.75 789.509,1246.39 791.752,1246.97 793.995,1247.46 796.238,1247.9 798.481,1248.26 800.723,1248.56 802.966,1248.8 805.209,1248.98 807.452,1249.09 809.695,1249.15 811.938,1249.15 814.18,1249.09 816.423,1248.98 818.666,1248.81 820.909,1248.58 823.152,1248.31 825.394,1247.98 827.637,1247.6 829.88,1247.18 832.123,1246.7 834.366,1246.17 836.609,1245.6 838.851,1244.98 841.094,1244.31 843.337,1243.59 845.58,1242.83 847.823,1242.03 850.065,1241.17 852.308,1240.28 854.551,1239.34 856.794,1238.36 859.037,1237.33 861.28,1236.26 863.522,1235.14 865.765,1233.99 868.008,1232.79 870.251,1231.54 872.494,1230.26 874.737,1228.93 876.979,1227.56 879.222,1226.14 881.465,1224.69 883.708,1223.19 885.951,1221.64 888.193,1220.06 890.436,1218.43 892.679,1216.76 894.922,1215.05 897.165,1213.29 899.408,1211.49 901.65,1209.64 903.893,1207.75 906.136,1205.82 908.379,1203.85 910.622,1201.83 912.864,1199.76 915.107,1197.66 917.35,1195.5 919.593,1193.31 921.836,1191.06 924.079,1188.77 926.321,1186.44 928.564,1184.06 930.807,1181.63 933.05,1179.16 935.293,1176.64 937.536,1174.07 939.778,1171.46 942.021,1168.8 944.264,1166.08 946.507,1163.32 948.75,1160.51 950.992,1157.66 953.235,1154.75 955.478,1151.79 957.721,1148.77 959.964,1145.71 962.207,1142.6 964.449,1139.43 966.692,1136.21 968.935,1132.93 971.178,1129.6 973.421,1126.22 975.663,1122.78 977.906,1119.29 980.149,1115.74 982.392,1112.14 984.635,1108.47 986.878,1104.75 989.12,1100.97 991.363,1097.13 993.606,1093.24 995.849,1089.28 998.092,1085.26 1000.33,1081.18 1002.58,1077.04 1004.82,1072.83 1007.06,1068.56 1009.31,1064.23 1011.55,1059.83 1013.79,1055.37 1016.03,1050.84 1018.28,1046.25 1020.52,1041.59 1022.76,1036.86 1025.01,1032.06 1027.25,1027.19 1029.49,1022.25 1031.73,1017.24 1033.98,1012.16 1036.22,1007.01 1038.46,1001.78 1040.71,996.48 1042.95,991.105 1045.19,985.656 1047.43,980.13 1049.68,974.528 1051.92,968.848 1054.16,963.09 1056.41,957.253 1058.65,951.336 1060.89,945.338 1063.13,939.26 1065.38,933.099 1067.62,926.856 1069.86,920.53 1072.1,914.119 1074.35,907.624 1076.59,901.044 1078.83,894.378 1081.08,887.626 1083.32,880.786 1085.56,873.858 1087.8,866.842 1090.05,859.737 1092.29,852.543 1094.53,845.258 1096.78,837.882 1099.02,830.416 1101.26,822.857 1103.5,815.206 1105.75,807.462 1107.99,799.625 1110.23,791.694 1112.48,783.668 1114.72,775.548 1116.96,767.336 1119.2,759.039 1121.45,750.653 1123.69,742.177 1125.93,733.61 1128.18,724.949 1130.42,716.192 1132.66,707.339 1134.9,698.39 1137.15,689.342 1139.39,680.196 1141.63,670.952 1143.88,661.609 1146.12,652.168 1148.36,642.629 1150.6,632.993 1152.85,623.261 1155.09,613.435 1157.33,603.516 1159.57,593.505 1161.82,583.405 1164.06,573.217 1166.3,562.944 1168.55,552.59 1170.79,542.156 1173.03,531.646 1175.27,521.064 1177.52,510.412 1179.76,499.696 1182,488.918 1184.25,478.084 1186.49,467.198 1188.73,456.265 1190.97,445.29 1193.22,434.279 1195.46,423.236 1197.7,412.168 1199.95,401.081 1202.19,389.981 1204.43,378.875 1206.67,367.769 1208.92,356.671 1211.16,345.587 1213.4,334.526 1215.65,323.495 1217.89,312.501 1220.13,301.554 1222.37,290.662 1224.62,279.83 1226.86,269.058 1229.1,258.367 1231.35,247.778 1233.59,237.314 1235.83,226.997 1238.07,216.849 1240.32,206.895 1242.56,197.156 1244.8,187.658 1247.04,178.424 1249.29,169.478 1251.53,160.846 1253.77,152.552 1256.02,144.622 1258.26,137.082 1260.5,129.958 1262.74,123.276 1264.99,117.063 1267.23,111.346 1269.47,106.152 1271.72,101.51 1273.96,97.4471 1276.2,93.9922 1278.44,91.1738 1280.69,89.0212 1282.93,87.5637 1285.17,86.8311 1287.42,86.8535 1289.66,87.6613 1291.9,89.2854 1294.14,91.7568 1296.39,95.1069 1298.63,99.3675 1300.87,104.571 1303.12,110.749 1305.36,117.964 1307.6,126.248 1309.84,135.584 1312.09,145.947 1314.33,157.315 1316.57,169.662 1318.82,182.959 1321.06,197.177 1323.3,212.282 1325.54,228.241 1327.79,245.017 1330.03,262.571 1332.27,280.862 1334.51,299.849 1336.76,319.485 1339,339.724 1341.24,360.517 1343.49,381.812 1345.73,403.556 1347.97,425.694 1350.21,448.168 1352.46,470.918 1354.7,493.884 1356.94,517 1359.19,540.201 1361.43,563.419 1363.67,586.584 1365.91,609.624 1368.16,632.464 1370.4,655.027 1372.64,677.241 1374.89,699.095 1377.13,720.568 1379.37,741.628 1381.61,762.247 1383.86,782.398 1386.1,802.058 1388.34,821.207 1390.59,839.827 1392.83,857.903 1395.07,875.422 1397.31,892.376 1399.56,908.756 1401.8,924.56 1404.04,939.787 1406.29,954.436 1408.53,968.514 1410.77,982.026 1413.01,994.983 1415.26,1007.4 1417.5,1019.28 1419.74,1030.66 1421.98,1041.55 1424.23,1051.97 1426.47,1061.95 1428.71,1071.52 1430.96,1080.72 1433.2,1089.57 1435.44,1098.05 1437.68,1106.16 1439.93,1113.91 1442.17,1121.31 1444.41,1128.37 1446.66,1135.12 1448.9,1141.56 1451.14,1147.7 1453.38,1153.57 1455.63,1159.16 1457.87,1164.5 1460.11,1169.58 1462.36,1174.43 1464.6,1179.06 1466.84,1183.46 1469.08,1187.65 1471.33,1191.64 1473.57,1195.44 1475.81,1199.06 1478.06,1202.49 1480.3,1205.75 1482.54,1208.85 1484.78,1211.79 1487.03,1214.57 1489.27,1217.2 1491.51,1219.69 1493.76,1222.04 1496,1224.26 1498.24,1226.36 1500.48,1228.34 1502.73,1230.2 1504.97,1231.95 1507.21,1233.59 1509.46,1235.13 1511.7,1236.57 1513.94,1237.91 1516.18,1239.16 1518.43,1240.32 1520.67,1241.39 1522.91,1242.37 1525.15,1243.27 1527.4,1244.09 1529.64,1244.84 1531.88,1245.51 1534.13,1246.11 1536.37,1246.63 1538.61,1247.09 1540.85,1247.48 1543.1,1247.81 1545.34,1248.08 1547.58,1248.28 1549.83,1248.42 1552.07,1248.5 1554.31,1248.52 1556.55,1248.49 1558.8,1248.4 1561.04,1248.25 1563.28,1248.05 1565.53,1247.8 1567.77,1247.5 1570.01,1247.15 1572.25,1246.74 1574.5,1246.29 1576.74,1245.78 1578.98,1245.23 1581.23,1244.63 1583.47,1243.98 1585.71,1243.28 1587.95,1242.54 1590.2,1241.75 1592.44,1240.92 1594.68,1240.04 1596.93,1239.12 1599.17,1238.15 1601.41,1237.14 1603.65,1236.08 1605.9,1234.98 1608.14,1233.84 1610.38,1232.65 1612.62,1231.42 1614.87,1230.15 1617.11,1228.83 1619.35,1227.47 1621.6,1226.07 1623.84,1224.63 1626.08,1223.14 1628.32,1221.61 1630.57,1220.04 1632.81,1218.43 1635.05,1216.77 1637.3,1215.07 1639.54,1213.33 1641.78,1211.55 1644.02,1209.72 1646.27,1207.84 1648.51,1205.93 1650.75,1203.97 1653,1201.97 1655.24,1199.92 1657.48,1197.83 1659.72,1195.69 1661.97,1193.51 1664.21,1191.28 1666.45,1189.01 1668.7,1186.69 1670.94,1184.33 1673.18,1181.91 1675.42,1179.46 1677.67,1176.95 1679.91,1174.4 1682.15,1171.8 1684.4,1169.15 1686.64,1166.46 1688.88,1163.71 1691.12,1160.92 1693.37,1158.07 1695.61,1155.18 1697.85,1152.23 1700.09,1149.24 1702.34,1146.19 1704.58,1143.09 1706.82,1139.94 1709.07,1136.73 1711.31,1133.48 1713.55,1130.16 1715.79,1126.8 1718.04,1123.38 1720.28,1119.9 1722.52,1116.37 1724.77,1112.78 1727.01,1109.14 1729.25,1105.43 1731.49,1101.67 1733.74,1097.85 1735.98,1093.97 1738.22,1090.03 1740.47,1086.03 1742.71,1081.97 1744.95,1077.84 1747.19,1073.65 1749.44,1069.4 1751.68,1065.09 1753.92,1060.71 1756.17,1056.27 1758.41,1051.76 1760.65,1047.19 1762.89,1042.54 1765.14,1037.83 1767.38,1033.05 1769.62,1028.21 1771.87,1023.29 1774.11,1018.3 1776.35,1013.24 1778.59,1008.11 1780.84,1002.91 1783.08,997.63 1785.32,992.279 1787.56,986.853 1789.81,981.352 1792.05,975.774 1794.29,970.119 1796.54,964.387 1798.78,958.576 1801.02,952.686 1803.26,946.716 1805.51,940.664 1807.75,934.532 1809.99,928.317 1812.24,922.018 1814.48,915.638 1816.72,909.173 1818.96,902.625 1821.21,895.992 1823.45,889.272 1825.69,882.466 1827.94,875.572 1830.18,868.589 1832.42,861.516 1834.66,854.354 1836.91,847.101 1839.15,839.757 1841.39,832.32 1843.64,824.792 1845.88,817.17 1848.12,809.456 1850.36,801.647 1852.61,793.745 1854.85,785.749 1857.09,777.658 1859.34,769.472 1861.58,761.192 1863.82,752.817 1866.06,744.347 1868.31,735.783 1870.55,727.123 1872.79,718.369 1875.03,709.521 1877.28,700.578 1879.52,691.541 1881.76,682.411 1884.01,673.187 1886.25,663.87 1888.49,654.461 1890.73,644.959 1892.98,635.366 1895.22,625.683 1897.46,615.909 1899.71,606.045 1901.95,596.104 1904.19,586.095 1906.43,576.015 1908.68,565.862 1910.92,555.635 1913.16,545.331 1915.41,534.95 1917.65,524.493 1919.89,513.96 1922.13,503.353 1924.38,492.674 1926.62,481.924 1928.86,471.108 1931.11,460.229 1933.35,449.292 1935.59,438.302 1937.83,427.264 1940.08,416.184 1942.32,405.071 1944.56,393.93 1946.81,382.771 1949.05,371.603 1951.29,360.434 1953.53,349.274 1955.78,338.135 1958.02,327.027 1960.26,315.963 1962.5,304.955 1964.75,294.017 1966.99,283.161 1969.23,272.402 1971.48,261.756 1973.72,251.238 1975.96,240.864 1978.2,230.651 1980.45,220.616 1982.69,210.779 1984.93,201.156 1987.18,191.769 1989.42,182.636 1991.66,173.779 1993.9,165.218 1996.15,156.975 1998.39,149.073 2000.63,141.535 2002.88,134.385 2005.12,127.646 2007.36,121.345 2009.6,115.506 2011.85,110.155 2014.09,105.319 2016.33,101.027 2018.58,97.3237 2020.82,94.2537 2023.06,91.858 2025.3,90.1751 2027.55,89.241 2029.79,89.0888 2032.03,89.749 2034.28,91.2495 2036.52,93.6156 2038.76,96.8696 2041,101.032 2043.25,106.118 2045.49,112.145 2047.73,119.122 2049.97,127.061 2052.22,135.965 2054.46,145.841 2056.7,156.688 2058.95,168.506 2061.19,181.289 2063.43,195.031 2065.67,209.723 2067.92,225.363 2070.16,241.922 2072.4,259.341 2074.65,277.56 2076.89,296.52 2079.13,316.16 2081.37,336.421 2083.62,357.242 2085.86,378.563 2088.1,400.323 2090.35,422.461 2092.59,444.918 2094.83,467.63 2097.07,490.538 2099.32,513.58 2101.56,536.695 2103.8,559.82 2106.05,582.893 2108.29,605.854 2110.53,628.638 2112.77,651.185 2115.02,673.431 2117.26,695.315 2119.5,716.794 2121.75,737.855 2123.99,758.472 2126.23,778.621 2128.47,798.282 2130.72,817.435 2132.96,836.066 2135.2,854.16 2137.45,871.707 2139.69,888.698 2141.93,905.127 2144.17,920.99 2146.42,936.288 2148.66,951.02 2150.9,965.192 2153.14,978.809 2155.39,991.88 2157.63,1004.42 2159.87,1016.43 2162.12,1027.95 2164.36,1038.97 2166.6,1049.54 2168.84,1059.66 2171.09,1069.37 2173.33,1078.69 2175.57,1087.64 2177.82,1096.19 2180.06,1104.36 2182.3,1112.17 2184.54,1119.63 2186.79,1126.76 2189.03,1133.57 2191.27,1140.06 2193.52,1146.26 2195.76,1152.18 2198,1157.82 2200.24,1163.2 2202.49,1168.34 2204.73,1173.23 2206.97,1177.89 2209.22,1182.33 2211.46,1186.56 2213.7,1190.58 2215.94,1194.41 2218.19,1198.05 2220.43,1201.51 2222.67,1204.79 2224.92,1207.91 2227.16,1210.86 2229.4,1213.66 2231.64,1216.31 2233.89,1218.82 2236.13,1221.2 2238.37,1223.45 2240.61,1225.57 2242.86,1227.57 2245.1,1229.45 2247.34,1231.22 2249.59,1232.88 2251.83,1234.44 2254.07,1235.9 2256.31,1237.26 2258.56,1238.52 2260.8,1239.7 2263.04,1240.78 2265.29,1241.78 2267.53,1242.7 2269.77,1243.54 2272.01,1244.31 2274.26,1245 2276.5,1245.61 2278.74,1246.16 2280.99,1246.63 2283.23,1247.04 2285.47,1247.38 2287.71,1247.66 2289.96,1247.87 2292.2,1248.02 2294.44,1248.11 2296.69,1248.15 2298.93,1248.13 2301.17,1248.05 2303.41,1247.91 2305.66,1247.72 2307.9,1247.48 2310.14,1247.19 2312.39,1246.84 2314.63,1246.44 2316.87,1245.99 2319.11,1245.5 2321.36,1244.95 2323.6,1244.36 2325.84,1243.71 2328.08,1243.03 2330.33,1242.29 2332.57,1241.51 2334.81,1240.68 2337.06,1239.81 2339.3,1238.9 2341.54,1237.93 2343.78,1236.93 2346.03,1235.88 2348.27,1234.79 2350.51,1233.66 2352.76,1232.48 "/>
<polyline clip-path="url(#clip632)" style="stroke:#e26f46; stroke-linecap:round; stroke-linejoin:round; stroke-width:4; stroke-opacity:1; fill:none" points="112.177,1239.07 114.42,1242.94 116.663,1246.72 118.906,1250.41 121.148,1254.03 123.391,1257.56 125.634,1261.01 127.877,1264.38 130.12,1267.68 132.363,1270.9 134.605,1274.05 136.848,1277.13 139.091,1280.13 141.334,1283.07 143.577,1285.94 145.819,1288.74 148.062,1291.48 150.305,1294.16 152.548,1296.77 154.791,1299.32 157.034,1301.81 159.276,1304.25 161.519,1306.63 163.762,1308.95 166.005,1311.21 168.248,1313.43 170.491,1315.59 172.733,1317.7 174.976,1319.76 177.219,1321.77 179.462,1323.73 181.705,1325.65 183.947,1327.52 186.19,1329.34 188.433,1331.13 190.676,1332.86 192.919,1334.56 195.162,1336.22 197.404,1337.83 199.647,1339.4 201.89,1340.94 204.133,1342.44 206.376,1343.9 208.619,1345.33 210.861,1346.72 213.104,1348.07 215.347,1349.39 217.59,1350.68 219.833,1351.94 222.075,1353.16 224.318,1354.35 226.561,1355.51 228.804,1356.64 231.047,1357.74 233.29,1358.82 235.532,1359.86 237.775,1360.88 240.018,1361.87 242.261,1362.83 244.504,1363.77 246.746,1364.68 248.989,1365.56 251.232,1366.42 253.475,1367.26 255.718,1368.07 257.961,1368.86 260.203,1369.63 262.446,1370.37 264.689,1371.09 266.932,1371.79 269.175,1372.47 271.418,1373.12 273.66,1373.76 275.903,1374.37 278.146,1374.97 280.389,1375.54 282.632,1376.09 284.874,1376.63 287.117,1377.14 289.36,1377.64 291.603,1378.12 293.846,1378.57 296.089,1379.01 298.331,1379.43 300.574,1379.84 302.817,1380.22 305.06,1380.59 307.303,1380.94 309.545,1381.27 311.788,1381.58 314.031,1381.88 316.274,1382.16 318.517,1382.42 320.76,1382.67 323.002,1382.89 325.245,1383.1 327.488,1383.29 329.731,1383.47 331.974,1383.62 334.217,1383.76 336.459,1383.88 338.702,1383.99 340.945,1384.07 343.188,1384.14 345.431,1384.19 347.673,1384.22 349.916,1384.24 352.159,1384.23 354.402,1384.21 356.645,1384.17 358.888,1384.11 361.13,1384.02 363.373,1383.92 365.616,1383.8 367.859,1383.66 370.102,1383.49 372.344,1383.3 374.587,1383.1 376.83,1382.86 379.073,1382.61 381.316,1382.33 383.559,1382.03 385.801,1381.7 388.044,1381.34 390.287,1380.96 392.53,1380.55 394.773,1380.11 397.016,1379.64 399.258,1379.14 401.501,1378.61 403.744,1378.05 405.987,1377.44 408.23,1376.81 410.472,1376.14 412.715,1375.43 414.958,1374.69 417.201,1373.9 419.444,1373.08 421.687,1372.21 423.929,1371.3 426.172,1370.34 428.415,1369.34 430.658,1368.28 432.901,1367.17 435.143,1366.01 437.386,1364.79 439.629,1363.51 441.872,1362.16 444.115,1360.75 446.358,1359.27 448.6,1357.71 450.843,1356.08 453.086,1354.36 455.329,1352.56 457.572,1350.67 459.815,1348.69 462.057,1346.61 464.3,1344.42 466.543,1342.13 468.786,1339.73 471.029,1337.2 473.271,1334.56 475.514,1331.79 477.757,1328.89 480,1325.87 482.243,1322.71 484.486,1319.39 486.728,1315.91 488.971,1312.26 491.214,1308.41 493.457,1304.37 495.7,1300.11 497.942,1295.64 500.185,1290.92 502.428,1285.97 504.671,1280.75 506.914,1275.27 509.157,1269.51 511.399,1263.46 513.642,1257.12 515.885,1250.46 518.128,1243.49 520.371,1236.18 522.614,1228.54 524.856,1220.55 527.099,1212.2 529.342,1203.48 531.585,1194.38 533.828,1184.9 536.07,1175.02 538.313,1164.74 540.556,1154.04 542.799,1142.92 545.042,1131.37 547.285,1119.38 549.527,1106.94 551.77,1094.05 554.013,1080.69 556.256,1066.87 558.499,1052.55 560.741,1037.72 562.984,1022.41 565.227,1006.66 567.47,990.507 569.713,974 571.956,957.18 574.198,940.094 576.441,922.785 578.684,905.3 580.927,887.686 583.17,869.99 585.413,852.26 587.655,834.545 589.898,816.894 592.141,799.359 594.384,781.988 596.627,764.835 598.869,747.952 601.112,731.391 603.355,715.207 605.598,699.453 607.841,684.186 610.084,669.46 612.326,655.333 614.569,641.862 616.812,629.105 619.055,617.12 621.298,605.948 623.54,595.592 625.783,586.077 628.026,577.424 630.269,569.653 632.512,562.775 634.755,556.802 636.997,551.739 639.24,547.588 641.483,544.347 643.726,542.009 645.969,540.564 648.212,539.997 650.454,540.292 652.697,541.425 654.94,543.37 657.183,546.096 659.426,549.571 661.668,553.755 663.911,558.606 666.154,564.078 668.397,570.12 670.64,576.679 672.883,583.696 675.125,591.108 677.368,598.907 679.611,607.102 681.854,615.663 684.097,624.556 686.339,633.751 688.582,643.219 690.825,652.932 693.068,662.862 695.311,672.984 697.554,683.273 699.796,693.704 702.039,704.257 704.282,714.909 706.525,725.641 708.768,736.433 711.011,747.268 713.253,758.128 715.496,768.999 717.739,779.867 719.982,790.717 722.225,801.538 724.467,812.32 726.71,823.052 728.953,833.724 731.196,844.32 733.439,854.834 735.682,865.258 737.924,875.587 740.167,885.816 742.41,895.94 744.653,905.954 746.896,915.853 749.138,925.634 751.381,935.293 753.624,944.826 755.867,954.231 758.11,963.503 760.353,972.642 762.595,981.645 764.838,990.509 767.081,999.234 769.324,1007.82 771.567,1016.26 773.81,1024.56 776.052,1032.72 778.295,1040.74 780.538,1048.61 782.781,1056.34 785.024,1063.94 787.266,1071.39 789.509,1078.71 791.752,1085.89 793.995,1092.94 796.238,1099.86 798.481,1106.64 800.723,1113.29 802.966,1119.81 805.209,1126.2 807.452,1132.46 809.695,1138.6 811.938,1144.61 814.18,1150.5 816.423,1156.27 818.666,1161.93 820.909,1167.46 823.152,1172.88 825.394,1178.18 827.637,1183.38 829.88,1188.46 832.123,1193.43 834.366,1198.3 836.609,1203.06 838.851,1207.72 841.094,1212.28 843.337,1216.73 845.58,1221.09 847.823,1225.36 850.065,1229.53 852.308,1233.6 854.551,1237.59 856.794,1241.49 859.037,1245.3 861.28,1249.03 863.522,1252.67 865.765,1256.23 868.008,1259.71 870.251,1263.11 872.494,1266.44 874.737,1269.69 876.979,1272.86 879.222,1275.97 881.465,1279 883.708,1281.96 885.951,1284.85 888.193,1287.68 890.436,1290.44 892.679,1293.14 894.922,1295.78 897.165,1298.35 899.408,1300.87 901.65,1303.32 903.893,1305.72 906.136,1308.06 908.379,1310.35 910.622,1312.58 912.864,1314.77 915.107,1316.9 917.35,1318.98 919.593,1321.01 921.836,1322.99 924.079,1324.92 926.321,1326.81 928.564,1328.65 930.807,1330.45 933.05,1332.21 935.293,1333.92 937.536,1335.59 939.778,1337.22 942.021,1338.81 944.264,1340.36 946.507,1341.87 948.75,1343.34 950.992,1344.78 953.235,1346.18 955.478,1347.55 957.721,1348.88 959.964,1350.18 962.207,1351.45 964.449,1352.68 966.692,1353.88 968.935,1355.05 971.178,1356.2 973.421,1357.31 975.663,1358.39 977.906,1359.44 980.149,1360.47 982.392,1361.47 984.635,1362.44 986.878,1363.39 989.12,1364.31 991.363,1365.2 993.606,1366.07 995.849,1366.92 998.092,1367.74 1000.33,1368.54 1002.58,1369.31 1004.82,1370.06 1007.06,1370.79 1009.31,1371.5 1011.55,1372.19 1013.79,1372.85 1016.03,1373.5 1018.28,1374.12 1020.52,1374.72 1022.76,1375.3 1025.01,1375.87 1027.25,1376.41 1029.49,1376.93 1031.73,1377.43 1033.98,1377.91 1036.22,1378.38 1038.46,1378.82 1040.71,1379.25 1042.95,1379.66 1045.19,1380.05 1047.43,1380.42 1049.68,1380.78 1051.92,1381.12 1054.16,1381.44 1056.41,1381.74 1058.65,1382.02 1060.89,1382.29 1063.13,1382.54 1065.38,1382.77 1067.62,1382.99 1069.86,1383.19 1072.1,1383.37 1074.35,1383.53 1076.59,1383.68 1078.83,1383.81 1081.08,1383.92 1083.32,1384.01 1085.56,1384.09 1087.8,1384.14 1090.05,1384.18 1092.29,1384.2 1094.53,1384.21 1096.78,1384.19 1099.02,1384.15 1101.26,1384.1 1103.5,1384.02 1105.75,1383.92 1107.99,1383.81 1110.23,1383.67 1112.48,1383.51 1114.72,1383.33 1116.96,1383.13 1119.2,1382.9 1121.45,1382.64 1123.69,1382.35 1125.93,1382.03 1128.18,1381.69 1130.42,1381.33 1132.66,1380.94 1134.9,1380.52 1137.15,1380.07 1139.39,1379.6 1141.63,1379.1 1143.88,1378.57 1146.12,1378.01 1148.36,1377.42 1150.6,1376.8 1152.85,1376.15 1155.09,1375.46 1157.33,1374.74 1159.57,1373.98 1161.82,1373.18 1164.06,1372.34 1166.3,1371.46 1168.55,1370.53 1170.79,1369.56 1173.03,1368.54 1175.27,1367.46 1177.52,1366.33 1179.76,1365.14 1182,1363.89 1184.25,1362.58 1186.49,1361.2 1188.73,1359.75 1190.97,1358.23 1193.22,1356.62 1195.46,1354.94 1197.7,1353.17 1199.95,1351.31 1202.19,1349.36 1204.43,1347.31 1206.67,1345.16 1208.92,1342.9 1211.16,1340.53 1213.4,1338.04 1215.65,1335.43 1217.89,1332.69 1220.13,1329.82 1222.37,1326.82 1224.62,1323.67 1226.86,1320.39 1229.1,1316.96 1231.35,1313.37 1233.59,1309.6 1235.83,1305.64 1238.07,1301.47 1240.32,1297.1 1242.56,1292.49 1244.8,1287.64 1247.04,1282.54 1249.29,1277.17 1251.53,1271.53 1253.77,1265.6 1256.02,1259.37 1258.26,1252.83 1260.5,1245.97 1262.74,1238.78 1264.99,1231.25 1267.23,1223.37 1269.47,1215.13 1271.72,1206.53 1273.96,1197.54 1276.2,1188.17 1278.44,1178.41 1280.69,1168.25 1282.93,1157.67 1285.17,1146.68 1287.42,1135.27 1289.66,1123.42 1291.9,1111.14 1294.14,1098.41 1296.39,1085.23 1298.63,1071.6 1300.87,1057.51 1303.12,1042.94 1305.36,1027.87 1307.6,1012.28 1309.84,996.216 1312.09,979.747 1314.33,962.925 1316.57,945.807 1318.82,928.449 1321.06,910.904 1323.3,893.227 1325.54,875.471 1327.79,857.691 1330.03,839.938 1332.27,822.264 1334.51,804.721 1336.76,787.359 1339,770.228 1341.24,753.38 1343.49,736.861 1345.73,720.722 1347.97,705.01 1350.21,689.773 1352.46,675.057 1354.7,660.909 1356.94,647.374 1359.19,634.498 1361.43,622.326 1363.67,610.901 1365.91,600.267 1368.16,590.466 1370.4,581.542 1372.64,573.534 1374.89,566.44 1377.13,560.252 1379.37,554.965 1381.61,550.574 1383.86,547.068 1386.1,544.437 1388.34,542.669 1390.59,541.749 1392.83,541.658 1395.07,542.379 1397.31,543.89 1399.56,546.169 1401.8,549.189 1404.04,552.924 1406.29,557.344 1408.53,562.417 1410.77,568.111 1413.01,574.39 1415.26,581.216 1417.5,588.55 1419.74,596.35 1421.98,604.572 1424.23,613.17 1426.47,622.096 1428.71,631.301 1430.96,640.733 1433.2,650.339 1435.44,660.134 1437.68,670.126 1439.93,680.291 1442.17,690.607 1444.41,701.053 1446.66,711.608 1448.9,722.253 1451.14,732.969 1453.38,743.738 1455.63,754.544 1457.87,765.37 1460.11,776.2 1462.36,787.022 1464.6,797.82 1466.84,808.584 1469.08,819.301 1471.33,829.961 1473.57,840.553 1475.81,851.069 1478.06,861.5 1480.3,871.84 1482.54,882.083 1484.78,892.222 1487.03,902.253 1489.27,912.173 1491.51,921.979 1493.76,931.666 1496,941.226 1498.24,950.656 1500.48,959.955 1502.73,969.121 1504.97,978.152 1507.21,987.048 1509.46,995.807 1511.7,1004.43 1513.94,1012.91 1516.18,1021.26 1518.43,1029.46 1520.67,1037.53 1522.91,1045.46 1525.15,1053.24 1527.4,1060.89 1529.64,1068.4 1531.88,1075.77 1534.13,1083 1536.37,1090.1 1538.61,1097.06 1540.85,1103.89 1543.1,1110.58 1545.34,1117.14 1547.58,1123.57 1549.83,1129.88 1552.07,1136.05 1554.31,1142.1 1556.55,1148.03 1558.8,1153.84 1561.04,1159.54 1563.28,1165.11 1565.53,1170.57 1567.77,1175.91 1570.01,1181.14 1572.25,1186.26 1574.5,1191.27 1576.74,1196.17 1578.98,1200.97 1581.23,1205.67 1583.47,1210.27 1585.71,1214.76 1587.95,1219.16 1590.2,1223.46 1592.44,1227.67 1594.68,1231.78 1596.93,1235.8 1599.17,1239.74 1601.41,1243.58 1603.65,1247.34 1605.9,1251.02 1608.14,1254.61 1610.38,1258.12 1612.62,1261.56 1614.87,1264.91 1617.11,1268.19 1619.35,1271.39 1621.6,1274.52 1623.84,1277.58 1626.08,1280.57 1628.32,1283.49 1630.57,1286.34 1632.81,1289.13 1635.05,1291.85 1637.3,1294.51 1639.54,1297.11 1641.78,1299.65 1644.02,1302.12 1646.27,1304.54 1648.51,1306.91 1650.75,1309.22 1653,1311.47 1655.24,1313.67 1657.48,1315.82 1659.72,1317.91 1661.97,1319.96 1664.21,1321.96 1666.45,1323.91 1668.7,1325.82 1670.94,1327.68 1673.18,1329.49 1675.42,1331.26 1677.67,1332.99 1679.91,1334.68 1682.15,1336.33 1684.4,1337.93 1686.64,1339.5 1688.88,1341.03 1691.12,1342.52 1693.37,1343.97 1695.61,1345.39 1697.85,1346.78 1700.09,1348.13 1702.34,1349.44 1704.58,1350.72 1706.82,1351.97 1709.07,1353.19 1711.31,1354.38 1713.55,1355.53 1715.79,1356.66 1718.04,1357.75 1720.28,1358.82 1722.52,1359.86 1724.77,1360.86 1727.01,1361.85 1729.25,1362.8 1731.49,1363.73 1733.74,1364.64 1735.98,1365.52 1738.22,1366.37 1740.47,1367.2 1742.71,1368 1744.95,1368.79 1747.19,1369.55 1749.44,1370.28 1751.68,1371 1753.92,1371.69 1756.17,1372.36 1758.41,1373.01 1760.65,1373.64 1762.89,1374.25 1765.14,1374.84 1767.38,1375.4 1769.62,1375.95 1771.87,1376.48 1774.11,1376.99 1776.35,1377.48 1778.59,1377.95 1780.84,1378.41 1783.08,1378.84 1785.32,1379.26 1787.56,1379.66 1789.81,1380.04 1792.05,1380.4 1794.29,1380.74 1796.54,1381.07 1798.78,1381.38 1801.02,1381.67 1803.26,1381.94 1805.51,1382.2 1807.75,1382.44 1809.99,1382.66 1812.24,1382.86 1814.48,1383.05 1816.72,1383.22 1818.96,1383.36 1821.21,1383.5 1823.45,1383.61 1825.69,1383.7 1827.94,1383.78 1830.18,1383.84 1832.42,1383.88 1834.66,1383.91 1836.91,1383.91 1839.15,1383.9 1841.39,1383.87 1843.64,1383.82 1845.88,1383.74 1848.12,1383.65 1850.36,1383.54 1852.61,1383.41 1854.85,1383.26 1857.09,1383.09 1859.34,1382.89 1861.58,1382.68 1863.82,1382.44 1866.06,1382.17 1868.31,1381.88 1870.55,1381.57 1872.79,1381.23 1875.03,1380.86 1877.28,1380.47 1879.52,1380.05 1881.76,1379.6 1884.01,1379.11 1886.25,1378.6 1888.49,1378.06 1890.73,1377.48 1892.98,1376.87 1895.22,1376.22 1897.46,1375.54 1899.71,1374.82 1901.95,1374.05 1904.19,1373.24 1906.43,1372.37 1908.68,1371.46 1910.92,1370.49 1913.16,1369.48 1915.41,1368.42 1917.65,1367.3 1919.89,1366.13 1922.13,1364.9 1924.38,1363.62 1926.62,1362.28 1928.86,1360.88 1931.11,1359.41 1933.35,1357.88 1935.59,1356.27 1937.83,1354.59 1940.08,1352.83 1942.32,1350.99 1944.56,1349.07 1946.81,1347.05 1949.05,1344.93 1951.29,1342.71 1953.53,1340.38 1955.78,1337.94 1958.02,1335.38 1960.26,1332.69 1962.5,1329.87 1964.75,1326.91 1966.99,1323.8 1969.23,1320.54 1971.48,1317.11 1973.72,1313.51 1975.96,1309.73 1978.2,1305.76 1980.45,1301.59 1982.69,1297.22 1984.93,1292.63 1987.18,1287.81 1989.42,1282.75 1991.66,1277.45 1993.9,1271.89 1996.15,1266.06 1998.39,1259.94 2000.63,1253.54 2002.88,1246.83 2005.12,1239.8 2007.36,1232.44 2009.6,1224.74 2011.85,1216.69 2014.09,1208.27 2016.33,1199.47 2018.58,1190.29 2020.82,1180.7 2023.06,1170.69 2025.3,1160.24 2027.55,1149.35 2029.79,1138.02 2032.03,1126.23 2034.28,1113.98 2036.52,1101.29 2038.76,1088.14 2041,1074.54 2043.25,1060.51 2045.49,1046.06 2047.73,1031.19 2049.97,1015.92 2052.22,1000.27 2054.46,984.271 2056.7,967.932 2058.95,951.283 2061.19,934.352 2063.43,917.171 2065.67,899.772 2067.92,882.184 2070.16,864.457 2072.4,846.663 2074.65,828.873 2076.89,811.154 2079.13,793.572 2081.37,776.19 2083.62,759.071 2085.86,742.273 2088.1,725.853 2090.35,709.868 2092.59,694.369 2094.83,679.407 2097.07,665.031 2099.32,651.288 2101.56,638.222 2103.8,625.875 2106.05,614.288 2108.29,603.498 2110.53,593.541 2112.77,584.451 2115.02,576.26 2117.26,568.997 2119.5,562.671 2121.75,557.264 2123.99,552.765 2126.23,549.16 2128.47,546.434 2130.72,544.572 2132.96,543.555 2135.2,543.363 2137.45,543.976 2139.69,545.371 2141.93,547.523 2144.17,550.405 2146.42,553.991 2148.66,558.252 2150.9,563.155 2153.14,568.669 2155.39,574.759 2157.63,581.391 2159.87,588.525 2162.12,596.125 2164.36,604.147 2166.6,612.552 2168.84,621.294 2171.09,630.329 2173.33,639.609 2175.57,649.114 2177.82,658.849 2180.06,668.789 2182.3,678.911 2184.54,689.19 2186.79,699.605 2189.03,710.133 2191.27,720.754 2193.52,731.45 2195.76,742.201 2198,752.991 2200.24,763.802 2202.49,774.619 2204.73,785.428 2206.97,796.216 2209.22,806.97 2211.46,817.678 2213.7,828.33 2215.94,838.917 2218.19,849.429 2220.43,859.861 2222.67,870.204 2224.92,880.454 2227.16,890.606 2229.4,900.65 2231.64,910.58 2233.89,920.392 2236.13,930.084 2238.37,939.651 2240.61,949.092 2242.86,958.405 2245.1,967.586 2247.34,976.635 2249.59,985.548 2251.83,994.326 2254.07,1002.97 2256.31,1011.47 2258.56,1019.83 2260.8,1028.05 2263.04,1036.13 2265.29,1044.08 2267.53,1051.88 2269.77,1059.54 2272.01,1067.06 2274.26,1074.44 2276.5,1081.69 2278.74,1088.8 2280.99,1095.77 2283.23,1102.61 2285.47,1109.32 2287.71,1115.9 2289.96,1122.35 2292.2,1128.68 2294.44,1134.87 2296.69,1140.95 2298.93,1146.9 2301.17,1152.73 2303.41,1158.43 2305.66,1164.03 2307.9,1169.5 2310.14,1174.86 2312.39,1180.11 2314.63,1185.25 2316.87,1190.28 2319.11,1195.2 2321.36,1200.02 2323.6,1204.73 2325.84,1209.34 2328.08,1213.85 2330.33,1218.27 2332.57,1222.58 2334.81,1226.8 2337.06,1230.93 2339.3,1234.97 2341.54,1238.91 2343.78,1242.77 2346.03,1246.54 2348.27,1250.23 2350.51,1253.84 2352.76,1257.36 "/>
<polyline clip-path="url(#clip632)" style="stroke:#3da44d; stroke-linecap:round; stroke-linejoin:round; stroke-width:4; stroke-opacity:1; fill:none" points="112.177,1239.07 114.42,1238.07 116.663,1237.03 118.906,1235.94 121.148,1234.81 123.391,1233.63 125.634,1232.42 127.877,1231.16 130.12,1229.85 132.363,1228.51 134.605,1227.12 136.848,1225.69 139.091,1224.21 141.334,1222.7 143.577,1221.14 145.819,1219.53 148.062,1217.89 150.305,1216.2 152.548,1214.47 154.791,1212.7 157.034,1210.88 159.276,1209.02 161.519,1207.12 163.762,1205.17 166.005,1203.18 168.248,1201.14 170.491,1199.06 172.733,1196.94 174.976,1194.77 177.219,1192.56 179.462,1190.3 181.705,1187.99 183.947,1185.64 186.19,1183.25 188.433,1180.8 190.676,1178.31 192.919,1175.78 195.162,1173.19 197.404,1170.56 199.647,1167.88 201.89,1165.15 204.133,1162.37 206.376,1159.54 208.619,1156.66 210.861,1153.73 213.104,1150.75 215.347,1147.72 217.59,1144.64 219.833,1141.5 222.075,1138.32 224.318,1135.08 226.561,1131.78 228.804,1128.43 231.047,1125.03 233.29,1121.57 235.532,1118.06 237.775,1114.48 240.018,1110.86 242.261,1107.17 244.504,1103.43 246.746,1099.62 248.989,1095.76 251.232,1091.84 253.475,1087.86 255.718,1083.82 257.961,1079.71 260.203,1075.55 262.446,1071.32 264.689,1067.02 266.932,1062.66 269.175,1058.24 271.418,1053.75 273.66,1049.2 275.903,1044.58 278.146,1039.89 280.389,1035.13 282.632,1030.3 284.874,1025.41 287.117,1020.44 289.36,1015.4 291.603,1010.29 293.846,1005.11 296.089,999.852 298.331,994.522 300.574,989.117 302.817,983.637 305.06,978.08 307.303,972.447 309.545,966.736 311.788,960.946 314.031,955.078 316.274,949.129 318.517,943.1 320.76,936.99 323.002,930.797 325.245,924.522 327.488,918.164 329.731,911.722 331.974,905.195 334.217,898.582 336.459,891.884 338.702,885.098 340.945,878.225 343.188,871.262 345.431,864.211 347.673,857.07 349.916,849.839 352.159,842.516 354.402,835.102 356.645,827.597 358.888,819.998 361.13,812.307 363.373,804.522 365.616,796.644 367.859,788.672 370.102,780.606 372.344,772.445 374.587,764.189 376.83,755.839 379.073,747.393 381.316,738.852 383.559,730.216 385.801,721.484 388.044,712.657 390.287,703.734 392.53,694.717 394.773,685.603 397.016,676.395 399.258,667.097 401.501,657.708 403.744,648.228 405.987,638.657 408.23,628.995 410.472,619.241 412.715,609.397 414.958,599.463 417.201,589.439 419.444,579.328 421.687,569.131 423.929,558.849 426.172,548.486 428.415,538.043 430.658,527.524 432.901,516.931 435.143,506.269 437.386,495.539 439.629,484.748 441.872,473.898 444.115,462.995 446.358,452.042 448.6,441.047 450.843,430.013 453.086,418.947 455.329,407.854 457.572,396.741 459.815,385.615 462.057,374.483 464.3,363.351 466.543,352.227 468.786,341.119 471.029,330.035 473.271,318.984 475.514,307.973 477.757,296.998 480,286.071 482.243,275.208 484.486,264.429 486.728,253.753 488.971,243.2 491.214,232.789 493.457,222.542 495.7,212.478 497.942,202.621 500.185,192.991 502.428,183.612 504.671,174.506 506.914,165.698 509.157,157.21 511.399,149.067 513.642,141.295 515.885,133.918 518.128,126.963 520.371,120.457 522.614,114.425 524.856,108.895 527.099,103.896 529.342,99.4548 531.585,95.6012 533.828,92.3642 536.07,89.7737 538.313,87.8598 540.556,86.6534 542.799,86.1857 545.042,86.4884 547.285,87.5937 549.527,89.5344 551.77,92.3435 554.013,96.0549 556.256,100.703 558.499,106.324 560.741,112.959 562.984,120.609 565.227,129.272 567.47,138.94 569.713,149.604 571.956,161.25 574.198,173.861 576.441,187.416 578.684,201.893 580.927,217.264 583.17,233.499 585.413,250.565 587.655,268.425 589.898,287.038 592.141,306.362 594.384,326.349 596.627,346.948 598.869,368.108 601.112,389.77 603.355,411.874 605.598,434.358 607.841,457.154 610.084,480.192 612.326,503.398 614.569,526.697 616.812,550.007 619.055,573.245 621.298,596.354 623.54,619.31 625.783,642.059 628.026,664.546 630.269,686.723 632.512,708.545 634.755,729.97 636.997,750.962 639.24,771.487 641.483,791.515 643.726,811.023 645.969,829.987 648.212,848.392 650.454,866.223 652.697,883.471 654.94,900.131 657.183,916.201 659.426,931.683 661.668,946.584 663.911,960.914 666.154,974.687 668.397,987.922 670.64,1000.64 672.883,1012.87 675.125,1024.64 677.368,1035.94 679.611,1046.77 681.854,1057.14 684.097,1067.07 686.339,1076.57 688.582,1085.66 690.825,1094.36 693.068,1102.67 695.311,1110.62 697.554,1118.21 699.796,1125.47 702.039,1132.4 704.282,1139.01 706.525,1145.33 708.768,1151.35 711.011,1157.09 713.253,1162.57 715.496,1167.79 717.739,1172.77 719.982,1177.5 722.225,1182.01 724.467,1186.3 726.71,1190.38 728.953,1194.26 731.196,1197.94 733.439,1201.45 735.682,1204.78 737.924,1207.95 740.167,1210.95 742.41,1213.8 744.653,1216.49 746.896,1219.05 749.138,1221.46 751.381,1223.75 753.624,1225.91 755.867,1227.94 758.11,1229.86 760.353,1231.66 762.595,1233.36 764.838,1234.95 767.081,1236.43 769.324,1237.83 771.567,1239.12 773.81,1240.33 776.052,1241.45 778.295,1242.48 780.538,1243.43 782.781,1244.3 785.024,1245.09 787.266,1245.81 789.509,1246.45 791.752,1247.01 793.995,1247.51 796.238,1247.94 798.481,1248.3 800.723,1248.59 802.966,1248.83 805.209,1249 807.452,1249.11 809.695,1249.17 811.938,1249.16 814.18,1249.1 816.423,1248.98 818.666,1248.81 820.909,1248.58 823.152,1248.31 825.394,1247.98 827.637,1247.59 829.88,1247.16 832.123,1246.68 834.366,1246.15 836.609,1245.57 838.851,1244.95 841.094,1244.28 843.337,1243.56 845.58,1242.8 847.823,1241.99 850.065,1241.13 852.308,1240.24 854.551,1239.29 856.794,1238.31 859.037,1237.28 861.28,1236.2 863.522,1235.08 865.765,1233.92 868.008,1232.72 870.251,1231.48 872.494,1230.19 874.737,1228.86 876.979,1227.48 879.222,1226.06 881.465,1224.6 883.708,1223.1 885.951,1221.56 888.193,1219.97 890.436,1218.34 892.679,1216.66 894.922,1214.94 897.165,1213.18 899.408,1211.38 901.65,1209.53 903.893,1207.64 906.136,1205.71 908.379,1203.73 910.622,1201.7 912.864,1199.64 915.107,1197.53 917.35,1195.37 919.593,1193.17 921.836,1190.92 924.079,1188.63 926.321,1186.29 928.564,1183.91 930.807,1181.48 933.05,1179 935.293,1176.48 937.536,1173.91 939.778,1171.29 942.021,1168.62 944.264,1165.91 946.507,1163.14 948.75,1160.33 950.992,1157.47 953.235,1154.55 955.478,1151.59 957.721,1148.57 959.964,1145.51 962.207,1142.39 964.449,1139.21 966.692,1135.99 968.935,1132.71 971.178,1129.38 973.421,1125.99 975.663,1122.55 977.906,1119.05 980.149,1115.5 982.392,1111.88 984.635,1108.22 986.878,1104.49 989.12,1100.71 991.363,1096.86 993.606,1092.96 995.849,1089 998.092,1084.97 1000.33,1080.89 1002.58,1076.74 1004.82,1072.53 1007.06,1068.25 1009.31,1063.92 1011.55,1059.51 1013.79,1055.05 1016.03,1050.51 1018.28,1045.91 1020.52,1041.24 1022.76,1036.51 1025.01,1031.7 1027.25,1026.83 1029.49,1021.88 1031.73,1016.86 1033.98,1011.78 1036.22,1006.62 1038.46,1001.38 1040.71,996.077 1042.95,990.696 1045.19,985.239 1047.43,979.706 1049.68,974.097 1051.92,968.41 1054.16,962.644 1056.41,956.799 1058.65,950.875 1060.89,944.87 1063.13,938.783 1065.38,932.615 1067.62,926.364 1069.86,920.029 1072.1,913.611 1074.35,907.107 1076.59,900.519 1078.83,893.844 1081.08,887.083 1083.32,880.235 1085.56,873.298 1087.8,866.273 1090.05,859.159 1092.29,851.956 1094.53,844.662 1096.78,837.277 1099.02,829.801 1101.26,822.234 1103.5,814.573 1105.75,806.82 1107.99,798.973 1110.23,791.032 1112.48,782.997 1114.72,774.866 1116.96,766.645 1119.2,758.338 1121.45,749.943 1123.69,741.457 1125.93,732.88 1128.18,724.208 1130.42,715.442 1132.66,706.579 1134.9,697.619 1137.15,688.561 1139.39,679.405 1141.63,670.15 1143.88,660.797 1146.12,651.346 1148.36,641.796 1150.6,632.15 1152.85,622.408 1155.09,612.572 1157.33,602.642 1159.57,592.621 1161.82,582.51 1164.06,572.312 1166.3,562.03 1168.55,551.665 1170.79,541.222 1173.03,530.702 1175.27,520.111 1177.52,509.45 1179.76,498.725 1182,487.939 1184.25,477.097 1186.49,466.203 1188.73,455.263 1190.97,444.281 1193.22,433.263 1195.46,422.215 1197.7,411.141 1199.95,400.05 1202.19,388.946 1204.43,377.836 1206.67,366.728 1208.92,355.628 1211.16,344.543 1213.4,333.482 1215.65,322.451 1217.89,311.46 1220.13,300.516 1222.37,289.627 1224.62,278.8 1226.86,268.035 1229.1,257.351 1231.35,246.772 1233.59,236.318 1235.83,226.013 1238.07,215.88 1240.32,205.942 1242.56,196.221 1244.8,186.744 1247.04,177.532 1249.29,168.611 1251.53,160.007 1253.77,151.743 1256.02,143.846 1258.26,136.341 1260.5,129.254 1262.74,122.613 1264.99,116.443 1267.23,110.773 1269.47,105.629 1271.72,101.039 1273.96,97.0322 1276.2,93.6361 1278.44,90.8797 1280.69,88.7922 1282.93,87.4031 1285.17,86.7421 1287.42,86.8394 1289.66,87.7253 1291.9,89.4308 1294.14,91.9868 1296.39,95.4249 1298.63,99.7767 1300.87,105.074 1303.12,111.35 1305.36,118.67 1307.6,127.058 1309.84,136.495 1312.09,146.958 1314.33,158.424 1316.57,170.867 1318.82,184.257 1321.06,198.566 1323.3,213.759 1325.54,229.803 1327.79,246.661 1330.03,264.294 1332.27,282.66 1334.51,301.718 1336.76,321.421 1339,341.723 1341.24,362.574 1343.49,383.923 1345.73,405.715 1347.97,427.896 1350.21,450.407 1352.46,473.189 1354.7,496.179 1356.94,519.314 1359.19,542.526 1361.43,565.749 1363.67,588.91 1365.91,611.938 1368.16,634.758 1370.4,657.293 1372.64,679.474 1374.89,701.295 1377.13,722.732 1379.37,743.754 1381.61,764.331 1383.86,784.438 1386.1,804.051 1388.34,823.151 1390.59,841.721 1392.83,859.744 1395.07,877.209 1397.31,894.107 1399.56,910.432 1401.8,926.179 1404.04,941.348 1406.29,955.941 1408.53,969.961 1410.77,983.417 1413.01,996.318 1415.26,1008.68 1417.5,1020.51 1419.74,1031.84 1421.98,1042.67 1424.23,1053.05 1426.47,1062.99 1428.71,1072.52 1430.96,1081.68 1433.2,1090.5 1435.44,1098.94 1437.68,1107.01 1439.93,1114.72 1442.17,1122.08 1444.41,1129.12 1446.66,1135.83 1448.9,1142.24 1451.14,1148.36 1453.38,1154.19 1455.63,1159.76 1457.87,1165.07 1460.11,1170.13 1462.36,1174.96 1464.6,1179.55 1466.84,1183.93 1469.08,1188.11 1471.33,1192.08 1473.57,1195.86 1475.81,1199.45 1478.06,1202.87 1480.3,1206.11 1482.54,1209.19 1484.78,1212.11 1487.03,1214.88 1489.27,1217.5 1491.51,1219.97 1493.76,1222.3 1496,1224.51 1498.24,1226.59 1500.48,1228.56 1502.73,1230.41 1504.97,1232.15 1507.21,1233.78 1509.46,1235.31 1511.7,1236.74 1513.94,1238.07 1516.18,1239.31 1518.43,1240.45 1520.67,1241.51 1522.91,1242.49 1525.15,1243.38 1527.4,1244.19 1529.64,1244.93 1531.88,1245.59 1534.13,1246.18 1536.37,1246.7 1538.61,1247.16 1540.85,1247.54 1543.1,1247.86 1545.34,1248.12 1547.58,1248.31 1549.83,1248.45 1552.07,1248.52 1554.31,1248.54 1556.55,1248.5 1558.8,1248.4 1561.04,1248.25 1563.28,1248.05 1565.53,1247.79 1567.77,1247.48 1570.01,1247.12 1572.25,1246.71 1574.5,1246.25 1576.74,1245.74 1578.98,1245.18 1581.23,1244.57 1583.47,1243.92 1585.71,1243.22 1587.95,1242.47 1590.2,1241.68 1592.44,1240.84 1594.68,1239.96 1596.93,1239.03 1599.17,1238.05 1601.41,1237.03 1603.65,1235.97 1605.9,1234.87 1608.14,1233.72 1610.38,1232.53 1612.62,1231.29 1614.87,1230.01 1617.11,1228.69 1619.35,1227.33 1621.6,1225.92 1623.84,1224.47 1626.08,1222.98 1628.32,1221.45 1630.57,1219.87 1632.81,1218.25 1635.05,1216.59 1637.3,1214.89 1639.54,1213.14 1641.78,1211.35 1644.02,1209.52 1646.27,1207.64 1648.51,1205.72 1650.75,1203.75 1653,1201.75 1655.24,1199.69 1657.48,1197.6 1659.72,1195.45 1661.97,1193.27 1664.21,1191.03 1666.45,1188.75 1668.7,1186.43 1670.94,1184.06 1673.18,1181.64 1675.42,1179.18 1677.67,1176.67 1679.91,1174.11 1682.15,1171.5 1684.4,1168.85 1686.64,1166.15 1688.88,1163.4 1691.12,1160.59 1693.37,1157.74 1695.61,1154.84 1697.85,1151.89 1700.09,1148.89 1702.34,1145.83 1704.58,1142.73 1706.82,1139.57 1709.07,1136.36 1711.31,1133.09 1713.55,1129.78 1715.79,1126.4 1718.04,1122.97 1720.28,1119.49 1722.52,1115.95 1724.77,1112.35 1727.01,1108.7 1729.25,1104.99 1731.49,1101.22 1733.74,1097.39 1735.98,1093.5 1738.22,1089.55 1740.47,1085.55 1742.71,1081.47 1744.95,1077.34 1747.19,1073.15 1749.44,1068.89 1751.68,1064.57 1753.92,1060.18 1756.17,1055.73 1758.41,1051.21 1760.65,1046.62 1762.89,1041.97 1765.14,1037.25 1767.38,1032.46 1769.62,1027.61 1771.87,1022.68 1774.11,1017.68 1776.35,1012.61 1778.59,1007.47 1780.84,1002.26 1783.08,996.969 1785.32,991.608 1787.56,986.171 1789.81,980.659 1792.05,975.07 1794.29,969.405 1796.54,963.661 1798.78,957.839 1801.02,951.937 1803.26,945.955 1805.51,939.892 1807.75,933.748 1809.99,927.52 1812.24,921.21 1814.48,914.817 1816.72,908.341 1818.96,901.78 1821.21,895.134 1823.45,888.402 1825.69,881.583 1827.94,874.675 1830.18,867.679 1832.42,860.593 1834.66,853.418 1836.91,846.151 1839.15,838.793 1841.39,831.343 1843.64,823.8 1845.88,816.164 1848.12,808.436 1850.36,800.613 1852.61,792.696 1854.85,784.686 1857.09,776.58 1859.34,768.38 1861.58,760.086 1863.82,751.696 1866.06,743.211 1868.31,734.632 1870.55,725.958 1872.79,717.189 1875.03,708.326 1877.28,699.369 1879.52,690.317 1881.76,681.172 1884.01,671.933 1886.25,662.601 1888.49,653.177 1890.73,643.661 1892.98,634.054 1895.22,624.355 1897.46,614.566 1899.71,604.688 1901.95,594.737 1904.19,584.718 1906.43,574.626 1908.68,564.461 1910.92,554.221 1913.16,543.904 1915.41,533.51 1917.65,523.04 1919.89,512.494 1922.13,501.874 1924.38,491.181 1926.62,480.419 1928.86,469.59 1931.11,458.7 1933.35,447.751 1935.59,436.75 1937.83,425.703 1940.08,414.615 1942.32,403.494 1944.56,392.347 1946.81,381.183 1949.05,370.01 1951.29,358.838 1953.53,347.678 1955.78,336.54 1958.02,325.435 1960.26,314.375 1962.5,303.373 1964.75,292.442 1966.99,281.597 1969.23,270.851 1971.48,260.219 1973.72,249.718 1975.96,239.364 1978.2,229.173 1980.45,219.163 1982.69,209.353 1984.93,199.761 1987.18,190.407 1989.42,181.31 1991.66,172.491 1993.9,163.973 1996.15,155.776 1998.39,147.922 2000.63,140.437 2002.88,133.342 2005.12,126.662 2007.36,120.423 2009.6,114.65 2011.85,109.369 2014.09,104.606 2016.33,100.394 2018.58,96.7784 2020.82,93.8027 2023.06,91.5077 2025.3,89.9314 2027.55,89.1093 2029.79,89.0741 2032.03,89.8558 2034.28,91.4819 2036.52,93.9772 2038.76,97.3636 2041,101.661 2043.25,106.885 2045.49,113.051 2047.73,120.17 2049.97,128.251 2052.22,137.3 2054.46,147.32 2056.7,158.312 2058.95,170.274 2061.19,183.202 2063.43,197.089 2065.67,211.924 2067.92,227.709 2070.16,244.404 2072.4,261.949 2074.65,280.285 2076.89,299.353 2079.13,319.093 2081.37,339.444 2083.62,360.346 2085.86,381.739 2088.1,403.563 2090.35,425.757 2092.59,448.26 2094.83,471.01 2097.07,493.946 2099.32,517.008 2101.56,540.133 2103.8,563.259 2106.05,586.324 2108.29,609.267 2110.53,632.025 2112.77,654.535 2115.02,676.735 2117.26,698.561 2119.5,719.983 2121.75,740.983 2123.99,761.535 2126.23,781.616 2128.47,801.205 2130.72,820.284 2132.96,838.838 2135.2,856.854 2137.45,874.32 2139.69,891.23 2141.93,907.576 2144.17,923.356 2146.42,938.57 2148.66,953.219 2150.9,967.308 2153.14,980.843 2155.39,993.833 2157.63,1006.29 2159.87,1018.23 2162.12,1029.67 2164.36,1040.63 2166.6,1051.12 2168.84,1061.18 2171.09,1070.83 2173.33,1080.1 2175.57,1088.99 2177.82,1097.48 2180.06,1105.6 2182.3,1113.35 2184.54,1120.76 2186.79,1127.84 2189.03,1134.6 2191.27,1141.05 2193.52,1147.21 2195.76,1153.08 2198,1158.68 2200.24,1164.03 2202.49,1169.12 2204.73,1173.98 2206.97,1178.61 2209.22,1183.01 2211.46,1187.21 2213.7,1191.2 2215.94,1195 2218.19,1198.61 2220.43,1202.05 2222.67,1205.3 2224.92,1208.39 2227.16,1211.32 2229.4,1214.1 2231.64,1216.73 2233.89,1219.22 2236.13,1221.58 2238.37,1223.8 2240.61,1225.9 2242.86,1227.89 2245.1,1229.75 2247.34,1231.51 2249.59,1233.15 2251.83,1234.69 2254.07,1236.13 2256.31,1237.48 2258.56,1238.73 2260.8,1239.89 2263.04,1240.96 2265.29,1241.95 2267.53,1242.86 2269.77,1243.69 2272.01,1244.44 2274.26,1245.11 2276.5,1245.72 2278.74,1246.25 2280.99,1246.71 2283.23,1247.11 2285.47,1247.44 2287.71,1247.71 2289.96,1247.91 2292.2,1248.06 2294.44,1248.14 2296.69,1248.16 2298.93,1248.13 2301.17,1248.04 2303.41,1247.9 2305.66,1247.7 2307.9,1247.45 2310.14,1247.15 2312.39,1246.79 2314.63,1246.39 2316.87,1245.93 2319.11,1245.43 2321.36,1244.87 2323.6,1244.27 2325.84,1243.62 2328.08,1242.93 2330.33,1242.18 2332.57,1241.39 2334.81,1240.56 2337.06,1239.68 2339.3,1238.76 2341.54,1237.79 2343.78,1236.78 2346.03,1235.72 2348.27,1234.62 2350.51,1233.48 2352.76,1232.3 "/>
<polyline clip-path="url(#clip632)" style="stroke:#c271d2; stroke-linecap:round; stroke-linejoin:round; stroke-width:4; stroke-opacity:1; fill:none" points="112.177,1239.07 114.42,1242.94 116.663,1246.72 118.906,1250.41 121.148,1254.03 123.391,1257.56 125.634,1261.01 127.877,1264.38 130.12,1267.68 132.363,1270.9 134.605,1274.05 136.848,1277.13 139.091,1280.13 141.334,1283.07 143.577,1285.94 145.819,1288.74 148.062,1291.48 150.305,1294.16 152.548,1296.77 154.791,1299.32 157.034,1301.81 159.276,1304.25 161.519,1306.62 163.762,1308.95 166.005,1311.21 168.248,1313.43 170.491,1315.59 172.733,1317.7 174.976,1319.76 177.219,1321.77 179.462,1323.73 181.705,1325.65 183.947,1327.52 186.19,1329.34 188.433,1331.12 190.676,1332.86 192.919,1334.56 195.162,1336.21 197.404,1337.83 199.647,1339.4 201.89,1340.94 204.133,1342.44 206.376,1343.9 208.619,1345.32 210.861,1346.71 213.104,1348.07 215.347,1349.39 217.59,1350.68 219.833,1351.93 222.075,1353.15 224.318,1354.35 226.561,1355.51 228.804,1356.64 231.047,1357.74 233.29,1358.81 235.532,1359.86 237.775,1360.87 240.018,1361.86 242.261,1362.82 244.504,1363.76 246.746,1364.67 248.989,1365.56 251.232,1366.42 253.475,1367.25 255.718,1368.07 257.961,1368.85 260.203,1369.62 262.446,1370.36 264.689,1371.08 266.932,1371.78 269.175,1372.46 271.418,1373.11 273.66,1373.75 275.903,1374.36 278.146,1374.96 280.389,1375.53 282.632,1376.08 284.874,1376.62 287.117,1377.13 289.36,1377.63 291.603,1378.1 293.846,1378.56 296.089,1379 298.331,1379.42 300.574,1379.82 302.817,1380.21 305.06,1380.58 307.303,1380.93 309.545,1381.26 311.788,1381.57 314.031,1381.87 316.274,1382.14 318.517,1382.41 320.76,1382.65 323.002,1382.88 325.245,1383.08 327.488,1383.28 329.731,1383.45 331.974,1383.61 334.217,1383.74 336.459,1383.86 338.702,1383.97 340.945,1384.05 343.188,1384.12 345.431,1384.17 347.673,1384.2 349.916,1384.22 352.159,1384.21 354.402,1384.19 356.645,1384.14 358.888,1384.08 361.13,1384 363.373,1383.89 365.616,1383.77 367.859,1383.63 370.102,1383.46 372.344,1383.27 374.587,1383.06 376.83,1382.83 379.073,1382.58 381.316,1382.3 383.559,1381.99 385.801,1381.66 388.044,1381.3 390.287,1380.92 392.53,1380.51 394.773,1380.07 397.016,1379.6 399.258,1379.1 401.501,1378.57 403.744,1378 405.987,1377.4 408.23,1376.76 410.472,1376.09 412.715,1375.38 414.958,1374.63 417.201,1373.84 419.444,1373.02 421.687,1372.15 423.929,1371.23 426.172,1370.28 428.415,1369.27 430.658,1368.21 432.901,1367.1 435.143,1365.93 437.386,1364.71 439.629,1363.43 441.872,1362.08 444.115,1360.66 446.358,1359.18 448.6,1357.61 450.843,1355.98 453.086,1354.26 455.329,1352.45 457.572,1350.56 459.815,1348.57 462.057,1346.48 464.3,1344.29 466.543,1342 468.786,1339.59 471.029,1337.06 473.271,1334.41 475.514,1331.63 477.757,1328.73 480,1325.7 482.243,1322.53 484.486,1319.2 486.728,1315.71 488.971,1312.05 491.214,1308.2 493.457,1304.14 495.7,1299.87 497.942,1295.38 500.185,1290.66 502.428,1285.69 504.671,1280.46 506.914,1274.96 509.157,1269.19 511.399,1263.13 513.642,1256.77 515.885,1250.09 518.128,1243.1 520.371,1235.78 522.614,1228.12 524.856,1220.1 527.099,1211.73 529.342,1202.99 531.585,1193.87 533.828,1184.37 536.07,1174.47 538.313,1164.16 540.556,1153.44 542.799,1142.29 545.042,1130.72 547.285,1118.7 549.527,1106.24 551.77,1093.32 554.013,1079.94 556.256,1066.08 558.499,1051.74 560.741,1036.89 562.984,1021.55 565.227,1005.77 567.47,989.596 569.713,973.067 571.956,956.228 574.198,939.124 576.441,921.8 578.684,904.302 580.927,886.677 583.17,868.972 585.413,851.236 587.655,833.517 589.898,815.865 592.141,798.33 594.384,780.964 596.627,763.818 598.869,746.944 601.112,730.395 603.355,714.227 605.598,698.492 607.841,683.246 610.084,668.545 612.326,654.447 614.569,641.007 616.812,628.285 619.055,616.339 621.298,605.206 623.54,594.89 625.783,585.417 628.026,576.809 630.269,569.082 632.512,562.25 634.755,556.324 636.997,551.307 639.24,547.203 641.483,544.009 643.726,541.717 645.969,540.319 648.212,539.799 650.454,540.138 652.697,541.316 654.94,543.304 657.183,546.073 659.426,549.588 661.668,553.81 663.911,558.698 666.154,564.205 668.397,570.28 670.64,576.87 672.883,583.914 675.125,591.352 677.368,599.175 679.611,607.394 681.854,615.976 684.097,624.889 686.339,634.103 688.582,643.588 690.825,653.316 693.068,663.261 695.311,673.395 697.554,683.695 699.796,694.138 702.039,704.699 704.282,715.359 706.525,726.098 708.768,736.896 711.011,747.735 713.253,758.6 715.496,769.474 717.739,780.344 719.982,791.196 722.225,802.018 724.467,812.8 726.71,823.531 728.953,834.202 731.196,844.797 733.439,855.308 735.682,865.73 737.924,876.056 740.167,886.282 742.41,896.402 744.653,906.412 746.896,916.308 749.138,926.084 751.381,935.739 753.624,945.267 755.867,954.666 758.11,963.934 760.353,973.067 762.595,982.064 764.838,990.923 767.081,999.642 769.324,1008.22 771.567,1016.66 773.81,1024.95 776.052,1033.1 778.295,1041.11 780.538,1048.98 782.781,1056.71 785.024,1064.3 787.266,1071.74 789.509,1079.06 791.752,1086.23 793.995,1093.28 796.238,1100.19 798.481,1106.96 800.723,1113.61 802.966,1120.12 805.209,1126.5 807.452,1132.76 809.695,1138.89 811.938,1144.9 814.18,1150.79 816.423,1156.55 818.666,1162.2 820.909,1167.73 823.152,1173.14 825.394,1178.44 827.637,1183.63 829.88,1188.7 832.123,1193.67 834.366,1198.53 836.609,1203.29 838.851,1207.94 841.094,1212.5 843.337,1216.95 845.58,1221.3 847.823,1225.56 850.065,1229.73 852.308,1233.8 854.551,1237.78 856.794,1241.68 859.037,1245.49 861.28,1249.21 863.522,1252.85 865.765,1256.4 868.008,1259.88 870.251,1263.28 872.494,1266.6 874.737,1269.84 876.979,1273.02 879.222,1276.11 881.465,1279.14 883.708,1282.1 885.951,1284.99 888.193,1287.82 890.436,1290.57 892.679,1293.27 894.922,1295.9 897.165,1298.47 899.408,1300.99 901.65,1303.44 903.893,1305.83 906.136,1308.17 908.379,1310.46 910.622,1312.69 912.864,1314.87 915.107,1317 917.35,1319.07 919.593,1321.1 921.836,1323.08 924.079,1325.01 926.321,1326.9 928.564,1328.74 930.807,1330.53 933.05,1332.29 935.293,1334 937.536,1335.66 939.778,1337.29 942.021,1338.88 944.264,1340.43 946.507,1341.94 948.75,1343.41 950.992,1344.85 953.235,1346.25 955.478,1347.61 957.721,1348.94 959.964,1350.24 962.207,1351.5 964.449,1352.73 966.692,1353.94 968.935,1355.1 971.178,1356.24 973.421,1357.35 975.663,1358.43 977.906,1359.49 980.149,1360.51 982.392,1361.51 984.635,1362.48 986.878,1363.42 989.12,1364.34 991.363,1365.24 993.606,1366.1 995.849,1366.95 998.092,1367.77 1000.33,1368.57 1002.58,1369.34 1004.82,1370.09 1007.06,1370.82 1009.31,1371.53 1011.55,1372.21 1013.79,1372.87 1016.03,1373.52 1018.28,1374.14 1020.52,1374.74 1022.76,1375.32 1025.01,1375.88 1027.25,1376.42 1029.49,1376.94 1031.73,1377.44 1033.98,1377.93 1036.22,1378.39 1038.46,1378.83 1040.71,1379.26 1042.95,1379.67 1045.19,1380.06 1047.43,1380.43 1049.68,1380.78 1051.92,1381.12 1054.16,1381.44 1056.41,1381.74 1058.65,1382.02 1060.89,1382.29 1063.13,1382.54 1065.38,1382.77 1067.62,1382.98 1069.86,1383.18 1072.1,1383.36 1074.35,1383.52 1076.59,1383.67 1078.83,1383.8 1081.08,1383.9 1083.32,1384 1085.56,1384.07 1087.8,1384.13 1090.05,1384.16 1092.29,1384.18 1094.53,1384.18 1096.78,1384.16 1099.02,1384.12 1101.26,1384.07 1103.5,1383.99 1105.75,1383.89 1107.99,1383.77 1110.23,1383.63 1112.48,1383.47 1114.72,1383.29 1116.96,1383.09 1119.2,1382.85 1121.45,1382.59 1123.69,1382.3 1125.93,1381.98 1128.18,1381.64 1130.42,1381.27 1132.66,1380.88 1134.9,1380.46 1137.15,1380.01 1139.39,1379.53 1141.63,1379.03 1143.88,1378.49 1146.12,1377.93 1148.36,1377.34 1150.6,1376.72 1152.85,1376.06 1155.09,1375.37 1157.33,1374.64 1159.57,1373.88 1161.82,1373.08 1164.06,1372.24 1166.3,1371.35 1168.55,1370.42 1170.79,1369.44 1173.03,1368.41 1175.27,1367.33 1177.52,1366.2 1179.76,1365 1182,1363.75 1184.25,1362.43 1186.49,1361.04 1188.73,1359.59 1190.97,1358.05 1193.22,1356.44 1195.46,1354.75 1197.7,1352.98 1199.95,1351.11 1202.19,1349.15 1204.43,1347.09 1206.67,1344.92 1208.92,1342.65 1211.16,1340.27 1213.4,1337.77 1215.65,1335.15 1217.89,1332.4 1220.13,1329.51 1222.37,1326.49 1224.62,1323.33 1226.86,1320.03 1229.1,1316.59 1231.35,1312.98 1233.59,1309.19 1235.83,1305.21 1238.07,1301.02 1240.32,1296.62 1242.56,1291.99 1244.8,1287.12 1247.04,1281.99 1249.29,1276.6 1251.53,1270.93 1253.77,1264.97 1256.02,1258.71 1258.26,1252.14 1260.5,1245.25 1262.74,1238.02 1264.99,1230.46 1267.23,1222.54 1269.47,1214.27 1271.72,1205.62 1273.96,1196.6 1276.2,1187.19 1278.44,1177.38 1280.69,1167.18 1282.93,1156.56 1285.17,1145.52 1287.42,1134.06 1289.66,1122.17 1291.9,1109.84 1294.14,1097.06 1296.39,1083.84 1298.63,1070.15 1300.87,1056.01 1303.12,1041.4 1305.36,1026.27 1307.6,1010.63 1309.84,994.521 1312.09,978.012 1314.33,961.156 1316.57,944.009 1318.82,926.627 1321.06,909.063 1323.3,891.372 1325.54,873.608 1327.79,855.823 1330.03,838.07 1332.27,820.401 1334.51,802.867 1336.76,785.519 1339,768.408 1341.24,751.583 1343.49,735.093 1345.73,718.986 1347.97,703.312 1350.21,688.117 1352.46,673.448 1354.7,659.351 1356.94,645.874 1359.19,633.06 1361.43,620.954 1363.67,609.602 1365.91,599.045 1368.16,589.328 1370.4,580.493 1372.64,572.577 1374.89,565.573 1377.13,559.474 1379.37,554.277 1381.61,549.974 1383.86,546.556 1386.1,544.013 1388.34,542.33 1390.59,541.494 1392.83,541.488 1395.07,542.291 1397.31,543.882 1399.56,546.239 1401.8,549.335 1404.04,553.144 1406.29,557.636 1408.53,562.778 1410.77,568.537 1413.01,574.878 1415.26,581.763 1417.5,589.151 1419.74,597.001 1421.98,605.269 1424.23,613.907 1426.47,622.869 1428.71,632.104 1430.96,641.559 1433.2,651.185 1435.44,661.005 1437.68,671.019 1439.93,681.204 1442.17,691.538 1444.41,702 1446.66,712.569 1448.9,723.225 1451.14,733.951 1453.38,744.728 1455.63,755.54 1457.87,766.37 1460.11,777.204 1462.36,788.027 1464.6,798.825 1466.84,809.588 1469.08,820.302 1471.33,830.958 1473.57,841.545 1475.81,852.055 1478.06,862.48 1480.3,872.813 1482.54,883.047 1484.78,893.178 1487.03,903.201 1489.27,913.111 1491.51,922.908 1493.76,932.585 1496,942.133 1498.24,951.551 1500.48,960.838 1502.73,969.992 1504.97,979.011 1507.21,987.895 1509.46,996.642 1511.7,1005.25 1513.94,1013.72 1516.18,1022.05 1518.43,1030.25 1520.67,1038.3 1522.91,1046.21 1525.15,1053.99 1527.4,1061.62 1529.64,1069.12 1531.88,1076.48 1534.13,1083.7 1536.37,1090.78 1538.61,1097.73 1540.85,1104.54 1543.1,1111.22 1545.34,1117.77 1547.58,1124.19 1549.83,1130.48 1552.07,1136.65 1554.31,1142.69 1556.55,1148.6 1558.8,1154.4 1561.04,1160.08 1563.28,1165.65 1565.53,1171.09 1567.77,1176.42 1570.01,1181.64 1572.25,1186.75 1574.5,1191.75 1576.74,1196.65 1578.98,1201.44 1581.23,1206.12 1583.47,1210.71 1585.71,1215.19 1587.95,1219.58 1590.2,1223.87 1592.44,1228.07 1594.68,1232.18 1596.93,1236.19 1599.17,1240.12 1601.41,1243.95 1603.65,1247.71 1605.9,1251.37 1608.14,1254.96 1610.38,1258.46 1612.62,1261.89 1614.87,1265.23 1617.11,1268.5 1619.35,1271.7 1621.6,1274.82 1623.84,1277.88 1626.08,1280.86 1628.32,1283.77 1630.57,1286.62 1632.81,1289.4 1635.05,1292.12 1637.3,1294.77 1639.54,1297.36 1641.78,1299.89 1644.02,1302.36 1646.27,1304.78 1648.51,1307.13 1650.75,1309.44 1653,1311.68 1655.24,1313.88 1657.48,1316.02 1659.72,1318.11 1661.97,1320.16 1664.21,1322.15 1666.45,1324.1 1668.7,1326 1670.94,1327.85 1673.18,1329.66 1675.42,1331.43 1677.67,1333.16 1679.91,1334.84 1682.15,1336.48 1684.4,1338.08 1686.64,1339.65 1688.88,1341.17 1691.12,1342.66 1693.37,1344.11 1695.61,1345.53 1697.85,1346.91 1700.09,1348.25 1702.34,1349.56 1704.58,1350.84 1706.82,1352.09 1709.07,1353.3 1711.31,1354.49 1713.55,1355.64 1715.79,1356.76 1718.04,1357.85 1720.28,1358.91 1722.52,1359.95 1724.77,1360.96 1727.01,1361.94 1729.25,1362.89 1731.49,1363.82 1733.74,1364.72 1735.98,1365.59 1738.22,1366.44 1740.47,1367.27 1742.71,1368.07 1744.95,1368.85 1747.19,1369.61 1749.44,1370.35 1751.68,1371.06 1753.92,1371.75 1756.17,1372.42 1758.41,1373.06 1760.65,1373.69 1762.89,1374.3 1765.14,1374.88 1767.38,1375.45 1769.62,1376 1771.87,1376.52 1774.11,1377.03 1776.35,1377.52 1778.59,1377.99 1780.84,1378.44 1783.08,1378.87 1785.32,1379.29 1787.56,1379.68 1789.81,1380.06 1792.05,1380.42 1794.29,1380.76 1796.54,1381.09 1798.78,1381.39 1801.02,1381.68 1803.26,1381.95 1805.51,1382.21 1807.75,1382.44 1809.99,1382.66 1812.24,1382.86 1814.48,1383.05 1816.72,1383.21 1818.96,1383.36 1821.21,1383.49 1823.45,1383.6 1825.69,1383.69 1827.94,1383.77 1830.18,1383.82 1832.42,1383.86 1834.66,1383.89 1836.91,1383.89 1839.15,1383.87 1841.39,1383.84 1843.64,1383.78 1845.88,1383.71 1848.12,1383.62 1850.36,1383.51 1852.61,1383.37 1854.85,1383.22 1857.09,1383.04 1859.34,1382.84 1861.58,1382.62 1863.82,1382.38 1866.06,1382.11 1868.31,1381.82 1870.55,1381.5 1872.79,1381.16 1875.03,1380.79 1877.28,1380.39 1879.52,1379.96 1881.76,1379.51 1884.01,1379.02 1886.25,1378.51 1888.49,1377.96 1890.73,1377.37 1892.98,1376.76 1895.22,1376.11 1897.46,1375.42 1899.71,1374.69 1901.95,1373.92 1904.19,1373.09 1906.43,1372.22 1908.68,1371.3 1910.92,1370.33 1913.16,1369.31 1915.41,1368.23 1917.65,1367.11 1919.89,1365.93 1922.13,1364.7 1924.38,1363.41 1926.62,1362.06 1928.86,1360.65 1931.11,1359.17 1933.35,1357.63 1935.59,1356.01 1937.83,1354.32 1940.08,1352.55 1942.32,1350.7 1944.56,1348.76 1946.81,1346.72 1949.05,1344.59 1951.29,1342.36 1953.53,1340.01 1955.78,1337.56 1958.02,1334.98 1960.26,1332.27 1962.5,1329.43 1964.75,1326.45 1966.99,1323.31 1969.23,1320.03 1971.48,1316.57 1973.72,1312.95 1975.96,1309.14 1978.2,1305.14 1980.45,1300.94 1982.69,1296.54 1984.93,1291.91 1987.18,1287.06 1989.42,1281.96 1991.66,1276.62 1993.9,1271.02 1996.15,1265.15 1998.39,1258.99 2000.63,1252.54 2002.88,1245.78 2005.12,1238.7 2007.36,1231.3 2009.6,1223.54 2011.85,1215.43 2014.09,1206.96 2016.33,1198.1 2018.58,1188.86 2020.82,1179.2 2023.06,1169.13 2025.3,1158.61 2027.55,1147.66 2029.79,1136.25 2032.03,1124.39 2034.28,1112.08 2036.52,1099.31 2038.76,1086.09 2041,1072.43 2043.25,1058.33 2045.49,1043.8 2047.73,1028.87 2049.97,1013.54 2052.22,997.839 2054.46,981.78 2056.7,965.388 2058.95,948.691 2061.19,931.716 2063.43,914.495 2065.67,897.06 2067.92,879.44 2070.16,861.692 2072.4,843.889 2074.65,826.1 2076.89,808.392 2079.13,790.832 2081.37,773.481 2083.62,756.402 2085.86,739.653 2088.1,723.291 2090.35,707.37 2092.59,691.944 2094.83,677.062 2097.07,662.774 2099.32,649.125 2101.56,636.16 2103.8,623.92 2106.05,612.446 2108.29,601.775 2110.53,591.943 2112.77,582.984 2115.02,574.929 2117.26,567.807 2119.5,561.618 2121.75,556.347 2123.99,551.982 2126.23,548.509 2128.47,545.913 2130.72,544.178 2132.96,543.286 2135.2,543.217 2137.45,543.95 2139.69,545.461 2141.93,547.725 2144.17,550.718 2146.42,554.409 2148.66,558.771 2150.9,563.771 2153.14,569.377 2155.39,575.555 2157.63,582.268 2159.87,589.479 2162.12,597.148 2164.36,605.235 2166.6,613.697 2168.84,622.489 2171.09,631.566 2173.33,640.881 2175.57,650.425 2177.82,660.195 2180.06,670.168 2182.3,680.318 2184.54,690.622 2186.79,701.058 2189.03,711.605 2191.27,722.242 2193.52,732.95 2195.76,743.711 2198,754.508 2200.24,765.324 2202.49,776.144 2204.73,786.954 2206.97,797.74 2209.22,808.49 2211.46,819.193 2213.7,829.838 2215.94,840.417 2218.19,850.92 2220.43,861.341 2222.67,871.673 2224.92,881.911 2227.16,892.05 2229.4,902.079 2231.64,911.994 2233.89,921.79 2236.13,931.465 2238.37,941.016 2240.61,950.44 2242.86,959.734 2245.1,968.898 2247.34,977.928 2249.59,986.823 2251.83,995.581 2254.07,1004.2 2256.31,1012.68 2258.56,1021.03 2260.8,1029.23 2263.04,1037.29 2265.29,1045.21 2267.53,1053 2269.77,1060.64 2272.01,1068.14 2274.26,1075.5 2276.5,1082.73 2278.74,1089.82 2280.99,1096.77 2283.23,1103.59 2285.47,1110.28 2287.71,1116.85 2289.96,1123.28 2292.2,1129.59 2294.44,1135.77 2296.69,1141.82 2298.93,1147.75 2301.17,1153.56 2303.41,1159.26 2305.66,1164.83 2307.9,1170.29 2310.14,1175.64 2312.39,1180.87 2314.63,1185.99 2316.87,1191 2319.11,1195.91 2321.36,1200.71 2323.6,1205.41 2325.84,1210.01 2328.08,1214.5 2330.33,1218.9 2332.57,1223.2 2334.81,1227.41 2337.06,1231.52 2339.3,1235.55 2341.54,1239.48 2343.78,1243.33 2346.03,1247.09 2348.27,1250.76 2350.51,1254.36 2352.76,1257.87 "/>
<path clip-path="url(#clip630)" d="M186.863 352.309 L500.018 352.309 L500.018 93.1086 L186.863 93.1086  Z" fill="#ffffff" fill-rule="evenodd" fill-opacity="1"/>
<polyline clip-path="url(#clip630)" style="stroke:#000000; stroke-linecap:round; stroke-linejoin:round; stroke-width:4; stroke-opacity:1; fill:none" points="186.863,352.309 500.018,352.309 500.018,93.1086 186.863,93.1086 186.863,352.309 "/>
<polyline clip-path="url(#clip630)" style="stroke:#009af9; stroke-linecap:round; stroke-linejoin:round; stroke-width:4; stroke-opacity:1; fill:none" points="211.758,144.949 361.13,144.949 "/>
<path clip-path="url(#clip630)" d="M386.026 151.997 L386.026 136.303 L390.285 136.303 L390.285 151.835 Q390.285 155.516 391.72 157.368 Q393.155 159.196 396.026 159.196 Q399.475 159.196 401.465 156.997 Q403.479 154.798 403.479 151.002 L403.479 136.303 L407.739 136.303 L407.739 162.229 L403.479 162.229 L403.479 158.247 Q401.928 160.608 399.868 161.766 Q397.831 162.9 395.123 162.9 Q390.655 162.9 388.34 160.122 Q386.026 157.344 386.026 151.997 M396.743 135.678 L396.743 135.678 Z" fill="#000000" fill-rule="nonzero" fill-opacity="1" /><path clip-path="url(#clip630)" d="M416.118 126.21 L425.933 126.21 L425.933 129.52 L420.377 129.52 L420.377 165.168 L425.933 165.168 L425.933 168.479 L416.118 168.479 L416.118 126.21 Z" fill="#000000" fill-rule="nonzero" fill-opacity="1" /><path clip-path="url(#clip630)" d="M436.419 158.293 L444.058 158.293 L444.058 131.928 L435.748 133.595 L435.748 129.335 L444.011 127.669 L448.687 127.669 L448.687 158.293 L456.326 158.293 L456.326 162.229 L436.419 162.229 L436.419 158.293 Z" fill="#000000" fill-rule="nonzero" fill-opacity="1" /><path clip-path="url(#clip630)" d="M475.122 126.21 L475.122 168.479 L465.308 168.479 L465.308 165.168 L470.84 165.168 L470.84 129.52 L465.308 129.52 L465.308 126.21 L475.122 126.21 Z" fill="#000000" fill-rule="nonzero" fill-opacity="1" /><polyline clip-path="url(#clip630)" style="stroke:#e26f46; stroke-linecap:round; stroke-linejoin:round; stroke-width:4; stroke-opacity:1; fill:none" points="211.758,196.789 361.13,196.789 "/>
<path clip-path="url(#clip630)" d="M386.026 203.837 L386.026 188.143 L390.285 188.143 L390.285 203.675 Q390.285 207.356 391.72 209.208 Q393.155 211.036 396.026 211.036 Q399.475 211.036 401.465 208.837 Q403.479 206.638 403.479 202.842 L403.479 188.143 L407.739 188.143 L407.739 214.069 L403.479 214.069 L403.479 210.087 Q401.928 212.448 399.868 213.606 Q397.831 214.74 395.123 214.74 Q390.655 214.74 388.34 211.962 Q386.026 209.184 386.026 203.837 M396.743 187.518 L396.743 187.518 Z" fill="#000000" fill-rule="nonzero" fill-opacity="1" /><path clip-path="url(#clip630)" d="M416.118 178.05 L425.933 178.05 L425.933 181.36 L420.377 181.36 L420.377 217.008 L425.933 217.008 L425.933 220.319 L416.118 220.319 L416.118 178.05 Z" fill="#000000" fill-rule="nonzero" fill-opacity="1" /><path clip-path="url(#clip630)" d="M439.637 210.133 L455.956 210.133 L455.956 214.069 L434.012 214.069 L434.012 210.133 Q436.674 207.379 441.257 202.749 Q445.863 198.096 447.044 196.754 Q449.289 194.231 450.169 192.495 Q451.072 190.735 451.072 189.046 Q451.072 186.291 449.127 184.555 Q447.206 182.819 444.104 182.819 Q441.905 182.819 439.451 183.583 Q437.021 184.347 434.243 185.897 L434.243 181.175 Q437.067 180.041 439.521 179.462 Q441.974 178.884 444.011 178.884 Q449.382 178.884 452.576 181.569 Q455.771 184.254 455.771 188.745 Q455.771 190.874 454.961 192.796 Q454.173 194.694 452.067 197.286 Q451.488 197.958 448.386 201.175 Q445.285 204.37 439.637 210.133 Z" fill="#000000" fill-rule="nonzero" fill-opacity="1" /><path clip-path="url(#clip630)" d="M475.122 178.05 L475.122 220.319 L465.308 220.319 L465.308 217.008 L470.84 217.008 L470.84 181.36 L465.308 181.36 L465.308 178.05 L475.122 178.05 Z" fill="#000000" fill-rule="nonzero" fill-opacity="1" /><polyline clip-path="url(#clip630)" style="stroke:#3da44d; stroke-linecap:round; stroke-linejoin:round; stroke-width:4; stroke-opacity:1; fill:none" points="211.758,248.629 361.13,248.629 "/>
<path clip-path="url(#clip630)" d="M386.026 255.677 L386.026 239.983 L390.285 239.983 L390.285 255.515 Q390.285 259.196 391.72 261.048 Q393.155 262.876 396.026 262.876 Q399.475 262.876 401.465 260.677 Q403.479 258.478 403.479 254.682 L403.479 239.983 L407.739 239.983 L407.739 265.909 L403.479 265.909 L403.479 261.927 Q401.928 264.288 399.868 265.446 Q397.831 266.58 395.123 266.58 Q390.655 266.58 388.34 263.802 Q386.026 261.024 386.026 255.677 M396.743 239.358 L396.743 239.358 Z" fill="#000000" fill-rule="nonzero" fill-opacity="1" /><path clip-path="url(#clip630)" d="M416.118 229.89 L425.933 229.89 L425.933 233.2 L420.377 233.2 L420.377 268.848 L425.933 268.848 L425.933 272.159 L416.118 272.159 L416.118 229.89 Z" fill="#000000" fill-rule="nonzero" fill-opacity="1" /><path clip-path="url(#clip630)" d="M436.419 261.973 L444.058 261.973 L444.058 235.608 L435.748 237.275 L435.748 233.015 L444.011 231.349 L448.687 231.349 L448.687 261.973 L456.326 261.973 L456.326 265.909 L436.419 265.909 L436.419 261.973 Z" fill="#000000" fill-rule="nonzero" fill-opacity="1" /><path clip-path="url(#clip630)" d="M475.122 229.89 L475.122 272.159 L465.308 272.159 L465.308 268.848 L470.84 268.848 L470.84 233.2 L465.308 233.2 L465.308 229.89 L475.122 229.89 Z" fill="#000000" fill-rule="nonzero" fill-opacity="1" /><polyline clip-path="url(#clip630)" style="stroke:#c271d2; stroke-linecap:round; stroke-linejoin:round; stroke-width:4; stroke-opacity:1; fill:none" points="211.758,300.469 361.13,300.469 "/>
<path clip-path="url(#clip630)" d="M386.026 307.517 L386.026 291.823 L390.285 291.823 L390.285 307.355 Q390.285 311.036 391.72 312.888 Q393.155 314.716 396.026 314.716 Q399.475 314.716 401.465 312.517 Q403.479 310.318 403.479 306.522 L403.479 291.823 L407.739 291.823 L407.739 317.749 L403.479 317.749 L403.479 313.767 Q401.928 316.128 399.868 317.286 Q397.831 318.42 395.123 318.42 Q390.655 318.42 388.34 315.642 Q386.026 312.864 386.026 307.517 M396.743 291.198 L396.743 291.198 Z" fill="#000000" fill-rule="nonzero" fill-opacity="1" /><path clip-path="url(#clip630)" d="M416.118 281.73 L425.933 281.73 L425.933 285.04 L420.377 285.04 L420.377 320.688 L425.933 320.688 L425.933 323.999 L416.118 323.999 L416.118 281.73 Z" fill="#000000" fill-rule="nonzero" fill-opacity="1" /><path clip-path="url(#clip630)" d="M439.637 313.813 L455.956 313.813 L455.956 317.749 L434.012 317.749 L434.012 313.813 Q436.674 311.059 441.257 306.429 Q445.863 301.776 447.044 300.434 Q449.289 297.911 450.169 296.175 Q451.072 294.415 451.072 292.726 Q451.072 289.971 449.127 288.235 Q447.206 286.499 444.104 286.499 Q441.905 286.499 439.451 287.263 Q437.021 288.027 434.243 289.577 L434.243 284.855 Q437.067 283.721 439.521 283.142 Q441.974 282.564 444.011 282.564 Q449.382 282.564 452.576 285.249 Q455.771 287.934 455.771 292.425 Q455.771 294.554 454.961 296.476 Q454.173 298.374 452.067 300.966 Q451.488 301.638 448.386 304.855 Q445.285 308.05 439.637 313.813 Z" fill="#000000" fill-rule="nonzero" fill-opacity="1" /><path clip-path="url(#clip630)" d="M475.122 281.73 L475.122 323.999 L465.308 323.999 L465.308 320.688 L470.84 320.688 L470.84 285.04 L465.308 285.04 L465.308 281.73 L475.122 281.73 Z" fill="#000000" fill-rule="nonzero" fill-opacity="1" /></svg>
